<svg xmlns="http://www.w3.org/2000/svg" width="300" height="362" viewBox="0 0 300 362">
  <g fill="none" fill-rule="evenodd">
    <g transform="translate(0 62)">
      <polygon fill="#EC6D54" points="0 231.171 119.281 299.783 299.785 196.336 179.449 127.724"/>
      <path fill="#E85740" d="M68.7238406,226.253261 C69.9723913,236.382971 93.4636957,239.626449 99.481087,239.626449 C105.499203,239.626449 117.533986,246.980797 125.557899,247.649638 C133.581087,248.318478 181.722391,233.608333 197.101377,222.241667 C212.479638,210.875 215.154275,207.531522 217.160072,194.159058 C219.16587,180.786594 208.468043,169.419928 202.449928,170.088043 C196.432536,170.756884 105.950652,193.572101 94.8006522,198.170652 C83.6506522,202.769203 67.0658696,212.80471 68.7238406,226.253261"/>
      <path fill="#2C2E33" d="M217.318478,156.19587 C208.496014,150.902391 161.107609,154.450942 161.107609,154.450942 L163.800362,137.389348 L100.581522,157.391522 C100.581522,157.391522 94.3003623,167.193696 89.6097826,181.603841 C86.6097826,190.822681 84.548913,204.262536 84.2554348,210.587174 C83.575,225.25529 88.3728261,229.408913 96.0184783,231.173406 C103.664855,232.937899 149.542391,219.998043 149.542391,219.998043 L165.422826,229.996594 C165.422826,229.996594 216.635145,196.272681 223.693116,182.156739 C230.751087,168.040797 226.140942,161.489348 217.318478,156.19587"/>
      <path fill="#FFCFB5" d="M149.38442,219.91442 C149.38442,219.91442 133.828623,225.454275 130.703261,226.156449 C127.577899,226.859348 115.703986,226.736159 115.926449,230.097029 C116.148188,233.458623 119.36558,238.135435 124.300362,241.426739 C129.23442,244.717319 145.480072,243.889058 149.913406,239.455725 C154.346739,235.023116 165.26558,229.912971 165.26558,229.912971 L149.38442,219.91442 Z"/>
      <path fill="#7BCAEC" d="M94.5418841,160.837029 L95.4404348,169.502971 C95.4404348,169.502971 107.893333,181.480507 133.395507,177.570362 C140.212899,176.52471 157.349855,168.596449 160.198406,162.939203 C162.816522,157.741377 162.125942,153.190652 162.125942,153.190652 L163.446957,135.830507 L94.5418841,160.837029 Z"/>
      <path fill="#5E9AB4" d="M95.4696377,163.467319 C95.4696377,163.467319 116.197174,162.798478 122.21529,162.129638 C126.733406,161.627464 141.828333,148.088333 148.960217,145.413696 C156.092101,142.739783 162.125435,153.190507 162.125435,153.190507 L163.447174,135.830362 L144.400072,132.512971 L95.4696377,163.467319 Z"/>
      <path fill="#FFCFB5" d="M109.180797,49.9462319 C109.180797,49.9462319 109.149638,53.6853623 108.56413,56.502029 C107.977899,59.3194203 105.087319,65.6027536 105.087319,65.6027536 L109.152536,68.6723188 L131.61413,85.8636232 L134.813406,83.1194203 L140.646739,67.8042029 L140.616304,48.7288406 L142.970652,42.2614493 L145.025725,36.2882609 L147.025725,24.6042029 L141.197464,12.7143478 L124.448913,4.08463768 L110.307609,19.4730435 L106.81558,33.0781159 L109.180797,49.9462319 Z"/>
      <path fill="#925F36" d="M134.310652,1.09507246 C134.310652,1.09507246 140.350507,4.97405797 142.117899,7.96536232 C143.88529,10.9566667 147.02587,24.6044928 147.02587,24.6044928 C147.02587,24.6044928 141.856304,18.49 139.964275,18.5378261 C138.072246,18.5863768 120.902681,25.5747826 119.356304,28.6762319 C117.809928,31.7776812 119.07442,41.3131884 119.07442,41.3131884 C119.07442,41.3131884 115.638188,32.9313043 113.209203,31.9421739 C110.779493,30.9537681 108.553406,32.8153623 108.477319,34.6269565 C108.447609,35.3276812 108.723696,42.1986957 110.825145,43.6885507 C112.451957,44.8428986 109.067174,47.4146377 109.067174,47.4146377 C109.067174,47.4146377 100.74471,31.1515942 99.9635507,24.0755072 C99.2345652,17.4747826 103.902681,7.51246377 103.902681,7.51246377 C103.902681,7.51246377 109.341812,1.29217391 117.882391,0.300144928 C126.422971,-0.692608696 134.310652,1.09507246 134.310652,1.09507246"/>
      <path fill="#BA9386" d="M140.601014,49.1642754 C139.55971,51.3454348 138.599565,52.7592029 137.971304,53.5360145 C135.761884,56.2642754 130.466232,59.3287681 127.743768,58.4265942 C125.021304,57.5244203 114.00971,50.0563043 114.00971,50.0563043 C114.00971,50.0563043 118.866957,59.7693478 120.408261,61.0468841 C121.949565,62.3251449 128.963333,65.3896377 131.73,63.9664493 C134.497391,62.5432609 140.601014,49.1642754 140.601014,49.1642754"/>
      <path fill="#7BCAEC" d="M74.6802174,145.123913 C74.6802174,145.123913 80.4773188,157.623913 86.1048551,161.271739 C91.7316667,164.919565 116.643261,159.00942 130.461377,151.431884 C138.606304,146.965217 143.945435,133.713043 143.945435,133.713043 C143.945435,133.713043 151.75558,137.415217 156.101957,138.41087 C165.359928,140.531884 179.717174,144.745652 183.728768,132.376087 C189.038188,116.005072 175.338913,82.4731884 175.338913,82.4731884 C175.615725,80.634058 170.291812,62.2442029 167.502681,57.3673913 C166.677319,55.923913 159.515,52.6333333 155.716449,52.1608696 C149.500507,51.3891304 140.601232,49.1644928 140.601232,49.1644928 C140.601232,49.1644928 139.999783,59.0224638 139.206304,62.4072464 C137.777319,68.507971 131.977319,79.8442029 131.977319,79.8442029 C131.977319,79.8442029 120.022971,73.3355072 116.483116,71.6768116 C109.917899,68.6 108.564275,56.5021739 108.564275,56.5021739 C108.564275,56.5021739 87.5012319,68.3557971 84.4816667,71.9543478 C81.4621014,75.5536232 78.5273188,87.7492754 78.3222464,90.5514493 C77.3200725,104.260145 74.5686232,146.010145 74.6802174,145.123913"/>
      <path fill="#5E9AB4" d="M101.936884 124.911159C100.932536 123.82058 104.932536 92.5234783 104.932536 92.5234783L107.505 126.023478 129.488333 127.774928 101.358623 135.795942 101.936884 124.911159zM167.502826 122.933261C167.156449 122.000652 163.309348 117.944855 161.491957 109.921667 157.681087 93.0999275 153.812246 74.639058 153.812246 74.639058L153.640507 113.319493 156.002826 122.770942 167.502826 122.933261z"/>
      <path fill="#FFCFB5" d="M144.305217,92.3576812 C146.739275,92.5605797 150.855942,93.9953623 152.025507,97.0366667 C153.195797,100.077971 154.171159,104.235217 154.171159,106.106957 C154.171159,107.978696 156.003043,122.771449 156.003043,122.771449 L157.611739,125.075797 C157.611739,125.075797 157.108116,128.346812 154.131304,130.023623 C150.439275,132.102609 143.135652,127.216377 143.135652,127.216377 C143.135652,127.216377 135.813913,104.057681 137.053043,101.247536 C138.291449,98.4373913 141.497971,92.1236232 144.305217,92.3576812"/>
      <path fill="#BA9386" d="M154.131304,130.023623 C154.131304,130.023623 152.025507,125.344638 151.791449,122.537391 C151.558116,119.72942 151.558116,104.055507 150.153768,99.6098551 C148.750145,95.1649275 147.413913,94.5975362 144.613913,94.0968116 C141.813913,93.5953623 139.59942,97.1055072 139.59942,97.1055072 L144.295072,131.542464 C144.295072,131.542464 150.387826,130.959855 154.131304,130.023623"/>
      <path fill="#FFCFB5" d="M129.803986,117.797464 C129.803986,117.797464 129.420652,105.664855 131.485145,104.046014 C133.548913,102.427899 134.380072,105.96413 134.380072,105.96413 C134.380072,105.96413 140.461232,95.232971 141.919928,94.9467391 C143.377899,94.6605072 143.267029,92.132971 147.548913,98.3583333 C151.831522,104.583696 148.046739,120.966304 148.046739,120.966304 L140.880072,134.372826 L129.488043,127.775 L129.803986,117.797464 Z"/>
      <path fill="#1D1D1B" d="M183.900217,177.392899 C183.900217,177.392899 166.185725,179.705942 161.698768,177.887826 C158.167609,176.456667 167.900217,170.757391 166.34587,171.016087 L145.489348,178.874783 L126.949493,185.109565 L133.866159,186.921159 L122.309638,194.921884 C122.309638,194.921884 160.485725,186.955217 162.838623,188.132029 C163.753116,188.589275 170.12558,190.051594 168.685,192.887101 C168.685,192.887101 150.396594,213.774783 135.253116,217.292174 C127.743696,219.036377 102.627029,231.082029 102.627029,231.082029 L149.384275,219.914638 L181.619783,181.98058 L183.900217,177.392899 Z"/>
      <path fill="#BA9386" d="M149.38442 219.91442C149.38442 219.91442 116.559783 226.215145 115.266304 227.767319 113.972826 229.319493 117.077899 231.647754 117.077899 231.647754 117.077899 231.647754 127.772826 226.61587 130.703261 226.156449 133.633696 225.697754 149.38442 219.91442 149.38442 219.91442M215.154855 191.549565C215.154855 191.549565 217.829493 199.573478 213.149058 203.585072 208.468623 207.597391 192.421522 210.940145 192.421522 210.940145L215.154855 191.549565z"/>
    </g>
    <g transform="translate(131)">
      <polygon fill="#7BCAEC" points="21 49 21 72.548 44.548 49"/>
      <rect width="109" height="50" fill="#7BCAEC" rx="25"/>
      <path fill="#FFFFFF" d="M23.372,20.944 C22.9879981,21.4080023 22.592002,21.9039974 22.184,22.432 C21.775998,22.9600026 21.3800019,23.5119971 20.996,24.088 C20.6119981,24.6640029 20.2440018,25.251997 19.892,25.852 C19.5399982,26.452003 19.2200014,27.047997 18.932,27.64 L23.372,27.64 L23.372,20.944 Z M26.204,17.368 L26.204,27.64 L28.076,27.64 L28.076,30.016 L26.204,30.016 L26.204,34 L23.372,34 L23.372,30.016 L16.076,30.016 L16.076,27.952 C16.3960016,27.2479965 16.8239973,26.4400046 17.36,25.528 C17.8960027,24.6159954 18.4919967,23.6800048 19.148,22.72 C19.8040033,21.7599952 20.4999963,20.8160046 21.236,19.888 C21.9720037,18.9599954 22.7079963,18.1200038 23.444,17.368 L26.204,17.368 Z M38.972,25.672 C38.972,26.5840046 39.0839989,27.4119963 39.308,28.156 C39.5320011,28.9000037 39.8559979,29.5319974 40.28,30.052 C40.7040021,30.5720026 41.219997,30.9759986 41.828,31.264 C42.436003,31.5520014 43.1239962,31.696 43.892,31.696 C44.6440038,31.696 45.323997,31.5520014 45.932,31.264 C46.540003,30.9759986 47.0559979,30.5720026 47.48,30.052 C47.9040021,29.5319974 48.2279989,28.9000037 48.452,28.156 C48.6760011,27.4119963 48.788,26.5840046 48.788,25.672 C48.788,24.7599954 48.6760011,23.9320037 48.452,23.188 C48.2279989,22.4439963 47.9040021,21.8120026 47.48,21.292 C47.0559979,20.7719974 46.540003,20.3680014 45.932,20.08 C45.323997,19.7919986 44.6440038,19.648 43.892,19.648 C43.1239962,19.648 42.436003,19.7919986 41.828,20.08 C41.219997,20.3680014 40.7040021,20.7759974 40.28,21.304 C39.8559979,21.8320026 39.5320011,22.4639963 39.308,23.2 C39.0839989,23.9360037 38.972,24.7599954 38.972,25.672 Z M51.956,25.672 C51.956,27.0960071 51.7440021,28.3519946 51.32,29.44 C50.8959979,30.5280054 50.3200036,31.4359964 49.592,32.164 C48.8639964,32.8920036 48.0120049,33.4399982 47.036,33.808 C46.0599951,34.1760018 45.0200055,34.36 43.916,34.36 C42.8119945,34.36 41.7680049,34.1760018 40.784,33.808 C39.7999951,33.4399982 38.9440036,32.8920036 38.216,32.164 C37.4879964,31.4359964 36.9080022,30.5280054 36.476,29.44 C36.0439978,28.3519946 35.828,27.0960071 35.828,25.672 C35.828,24.2479929 36.0439978,22.9960054 36.476,21.916 C36.9080022,20.8359946 37.4959963,19.9280037 38.24,19.192 C38.9840037,18.4559963 39.8439951,17.9040018 40.82,17.536 C41.7960049,17.1679982 42.8279946,16.984 43.916,16.984 C45.0040054,16.984 46.0359951,17.1679982 47.012,17.536 C47.9880049,17.9040018 48.8399964,18.4559963 49.568,19.192 C50.2960036,19.9280037 50.8759978,20.8359946 51.308,21.916 C51.7400022,22.9960054 51.956,24.2479929 51.956,25.672 Z M58.892,17.368 C59.2440018,17.976003 59.6359978,18.7199956 60.068,19.6 C60.5000022,20.4800044 60.9399978,21.4039952 61.388,22.372 C61.8360022,23.3400048 62.2799978,24.323995 62.72,25.324 C63.1600022,26.324005 63.5639982,27.2479958 63.932,28.096 C64.3000018,27.2479958 64.6999978,26.324005 65.132,25.324 C65.5640022,24.323995 66.0039978,23.3400048 66.452,22.372 C66.9000022,21.4039952 67.3399978,20.4800044 67.772,19.6 C68.2040022,18.7199956 68.5959982,17.976003 68.948,17.368 L71.684,17.368 C71.8280007,18.5840061 71.9639994,19.8759932 72.092,21.244 C72.2200006,22.6120068 72.3359995,24.0119928 72.44,25.444 C72.5440005,26.8760072 72.6399996,28.3159928 72.728,29.764 C72.8160004,31.2120072 72.8919997,32.6239931 72.956,34 L69.98,34 C69.9159997,32.0639903 69.8400004,30.0720102 69.752,28.024 C69.6639996,25.9759898 69.5320009,23.9920096 69.356,22.072 C69.1799991,22.4400018 68.9720012,22.8799974 68.732,23.392 C68.4919988,23.9040026 68.2360014,24.459997 67.964,25.06 C67.6919986,25.660003 67.4160014,26.2799968 67.136,26.92 C66.8559986,27.5600032 66.5840013,28.179997 66.32,28.78 C66.0559987,29.380003 65.8120011,29.9399974 65.588,30.46 C65.3639989,30.9800026 65.1720008,31.4239982 65.012,31.792 L62.756,31.792 C62.5959992,31.4239982 62.4040011,30.9760026 62.18,30.448 C61.9559989,29.9199974 61.7120013,29.356003 61.448,28.756 C61.1839987,28.155997 60.9120014,27.5360032 60.632,26.896 C60.3519986,26.2559968 60.0760014,25.640003 59.804,25.048 C59.5319986,24.455997 59.2760012,23.9000026 59.036,23.38 C58.7959988,22.8599974 58.5880009,22.4240018 58.412,22.072 C58.2359991,23.9920096 58.1040004,25.9759898 58.016,28.024 C57.9279996,30.0720102 57.8520003,32.0639903 57.788,34 L54.812,34 C54.8760003,32.6239931 54.9519996,31.2000074 55.04,29.728 C55.1280004,28.2559926 55.2239995,26.7960072 55.328,25.348 C55.4320005,23.8999928 55.5479994,22.4960068 55.676,21.136 C55.8040006,19.7759932 55.9399993,18.5200058 56.084,17.368 L58.892,17.368 Z M88.172,20.944 C87.7879981,21.4080023 87.392002,21.9039974 86.984,22.432 C86.575998,22.9600026 86.1800019,23.5119971 85.796,24.088 C85.4119981,24.6640029 85.0440018,25.251997 84.692,25.852 C84.3399982,26.452003 84.0200014,27.047997 83.732,27.64 L88.172,27.64 L88.172,20.944 Z M91.004,17.368 L91.004,27.64 L92.876,27.64 L92.876,30.016 L91.004,30.016 L91.004,34 L88.172,34 L88.172,30.016 L80.876,30.016 L80.876,27.952 C81.1960016,27.2479965 81.6239973,26.4400046 82.16,25.528 C82.6960027,24.6159954 83.2919967,23.6800048 83.948,22.72 C84.6040033,21.7599952 85.2999963,20.8160046 86.036,19.888 C86.7720037,18.9599954 87.5079963,18.1200038 88.244,17.368 L91.004,17.368 Z"/>
    </g>
  </g>
</svg>
