<svg xmlns="http://www.w3.org/2000/svg" width="117" height="168" viewBox="0 0 117 168" xmlns:xlink="http://www.w3.org/1999/xlink">
  <defs>
    <rect id="a" width="117" height="168" rx="4"/>
    <mask id="b" width="117" height="168" x="0" y="0" fill="white">
      <use xlink:href="#a"/>
    </mask>
  </defs>
  <g fill="none" fill-rule="evenodd">
    <use fill="#171615" stroke="#4E4B49" stroke-width="2" mask="url(#b)" xlink:href="#a"/>
    <polygon fill="#FFFFFF" points="7 12 111 12 111 156 7 156"/>
    <path fill="#2591BF" d="M73.002,83.007 C72.997,83.007 72.992,83.005 72.986,83.005 L72.986,83.007 L45.986,83.007 L45.986,83.006 C42.132,82.997 39.009,79.867 39.009,76.007 C39.009,72.141 42.14,69.007 46.002,69.007 C46.054,69.007 46.104,69.014 46.155,69.015 C46.071,68.687 46.012,68.349 46.012,67.993 C46.012,65.786 47.744,63.997 49.88,63.997 C51.944,63.997 53.857,65.841 53.985,67.957 L54.001,67.957 C54.13,63.085 58.314,58.993 63.139,58.993 C68.04,58.993 72.013,63.026 72.013,67.998 C72.013,69.144 71.794,70.235 71.41,71.242 C71.92,71.101 72.447,71 73.002,71 C76.31,71 78.991,73.688 78.991,77.003 C78.991,80.319 76.31,83.007 73.002,83.007 M73.938,69.067 C73.971,68.715 73.991,68.359 73.991,67.998 C73.991,61.924 69.066,57 62.991,57 C58.736,57 55.053,59.42 53.224,62.953 C52.292,62.36 51.193,62.004 50.007,62.004 C46.961,62.004 44.472,64.282 44.084,67.224 C40.034,68.104 37,71.699 37,76.008 C37,80.969 41.023,84.991 45.986,84.999 L45.986,85 L72.986,85 L72.986,84.999 C72.992,84.999 72.997,85 73.002,85 C77.419,85 81,81.42 81,77.004 C81,72.904 77.913,69.53 73.938,69.067"/>
  </g>
</svg>
