<svg xmlns="http://www.w3.org/2000/svg" width="117" height="168" viewBox="0 0 117 168" xmlns:xlink="http://www.w3.org/1999/xlink">
  <defs>
    <rect id="a" width="117" height="168" rx="4"/>
    <mask id="b" width="117" height="168" x="0" y="0" fill="white">
      <use xlink:href="#a"/>
    </mask>
  </defs>
  <g fill="none" fill-rule="evenodd">
    <use fill="#171615" stroke="#4E4B49" stroke-width="2" mask="url(#b)" xlink:href="#a"/>
    <polygon fill="#FFFFFF" points="7 12 111 12 111 156 7 156"/>
    <g transform="translate(11 15.538)">
      <rect width="96" height="16" fill="#777675"/>
      <rect width="96" height="50" y="74" fill="#7BCAEC"/>
      <rect width="23" height="3" x="6" y="55" fill="#D8D8D8"/>
      <rect width="23" height="3" x="7" y="81" fill="#FFFFFF"/>
      <rect width="52" height="3" x="7" y="87" fill="#FFFFFF"/>
      <rect width="52" height="3" x="7" y="92" fill="#FFFFFF"/>
      <rect width="52" height="3" x="7" y="97" fill="#FFFFFF"/>
      <rect width="17.548" height="7" y="127" fill="#2591BF"/>
      <rect width="17.548" height="7" x="39.226" y="127" fill="#2591BF"/>
      <rect width="17.548" height="7" x="19.613" y="127" fill="#2591BF"/>
      <rect width="17.548" height="7" x="58.839" y="127" fill="#2591BF"/>
      <rect width="17.548" height="7" x="78.452" y="127" fill="#2591BF"/>
      <rect width="23" height="3" x="6" y="60" fill="#D8D8D8"/>
      <rect width="23" height="3" x="6" y="65" fill="#D8D8D8"/>
      <rect width="23" height="3" x="37" y="55" fill="#D8D8D8"/>
      <rect width="23" height="3" x="37" y="60" fill="#D8D8D8"/>
      <rect width="23" height="3" x="37" y="65" fill="#D8D8D8"/>
      <rect width="23" height="3" x="68" y="55" fill="#D8D8D8"/>
      <rect width="23" height="3" x="68" y="60" fill="#D8D8D8"/>
      <rect width="23" height="3" x="68" y="65" fill="#D8D8D8"/>
      <circle cx="18" cy="38" r="10" stroke="#DBD9DB" stroke-width="3"/>
      <circle cx="48" cy="38" r="10" stroke="#DBD9DB" stroke-width="3"/>
      <circle cx="78" cy="38" r="10" stroke="#DBD9DB" stroke-width="3"/>
      <circle cx="18" cy="38" r="10" stroke="#00AAD6" stroke-width="3" stroke-dasharray="30 40" transform="rotate(-7 18 38)"/>
      <circle cx="48" cy="38" r="10" stroke="#E85740" stroke-width="3" stroke-dasharray="50 50" transform="rotate(107 48 38)"/>
      <circle cx="78" cy="38" r="10" stroke="#777675" stroke-width="3" stroke-dasharray="40 60" transform="rotate(49 78 38)"/>
    </g>
  </g>
</svg>
