<svg xmlns="http://www.w3.org/2000/svg" width="309" height="255" viewBox="0 0 309 255" xmlns:xlink="http://www.w3.org/1999/xlink">
  <defs>
    <rect id="a" width="117" height="168" rx="4"/>
    <mask id="b" width="117" height="168" x="0" y="0" fill="white">
      <use xlink:href="#a"/>
    </mask>
  </defs>
  <g fill="none" fill-rule="evenodd">
    <g transform="translate(192)">
      <use fill="#171615" stroke="#4E4B49" stroke-width="2" mask="url(#b)" xlink:href="#a"/>
      <polygon fill="#FFFFFF" points="7 12 111 12 111 156 7 156"/>
      <g transform="translate(11 15.538)">
        <rect width="96" height="16" fill="#777675"/>
        <rect width="96" height="50" y="74" fill="#7BCAEC"/>
        <rect width="23" height="3" x="6" y="55" fill="#D8D8D8"/>
        <rect width="23" height="3" x="7" y="81" fill="#FFFFFF"/>
        <rect width="52" height="3" x="7" y="87" fill="#FFFFFF"/>
        <rect width="52" height="3" x="7" y="92" fill="#FFFFFF"/>
        <rect width="52" height="3" x="7" y="97" fill="#FFFFFF"/>
        <rect width="17.548" height="7" y="127" fill="#2591BF"/>
        <rect width="17.548" height="7" x="39.226" y="127" fill="#2591BF"/>
        <rect width="17.548" height="7" x="19.613" y="127" fill="#2591BF"/>
        <rect width="17.548" height="7" x="58.839" y="127" fill="#2591BF"/>
        <rect width="17.548" height="7" x="78.452" y="127" fill="#2591BF"/>
        <rect width="23" height="3" x="6" y="60" fill="#D8D8D8"/>
        <rect width="23" height="3" x="6" y="65" fill="#D8D8D8"/>
        <rect width="23" height="3" x="37" y="55" fill="#D8D8D8"/>
        <rect width="23" height="3" x="37" y="60" fill="#D8D8D8"/>
        <rect width="23" height="3" x="37" y="65" fill="#D8D8D8"/>
        <rect width="23" height="3" x="68" y="55" fill="#D8D8D8"/>
        <rect width="23" height="3" x="68" y="60" fill="#D8D8D8"/>
        <rect width="23" height="3" x="68" y="65" fill="#D8D8D8"/>
        <circle cx="18" cy="38" r="10" stroke="#DBD9DB" stroke-width="3"/>
        <circle cx="48" cy="38" r="10" stroke="#DBD9DB" stroke-width="3"/>
        <circle cx="78" cy="38" r="10" stroke="#DBD9DB" stroke-width="3"/>
        <circle cx="18" cy="38" r="10" stroke="#00AAD6" stroke-width="3" stroke-dasharray="30 40" transform="rotate(-7 18 38)"/>
        <circle cx="48" cy="38" r="10" stroke="#E85740" stroke-width="3" stroke-dasharray="50 50" transform="rotate(107 48 38)"/>
        <circle cx="78" cy="38" r="10" stroke="#777675" stroke-width="3" stroke-dasharray="40 60" transform="rotate(49 78 38)"/>
      </g>
    </g>
    <path fill="#E85740" d="M134.382686,109.770051 C133.278116,109.770051 132.382686,108.87462 132.382686,107.770051 C132.382686,106.665481 133.278116,105.770051 134.382686,105.770051 C135.487255,105.770051 136.382686,106.665481 136.382686,107.770051 C136.382686,108.87462 135.487255,109.770051 134.382686,109.770051 Z M144.382686,109.770051 C143.278116,109.770051 142.382686,108.87462 142.382686,107.770051 C142.382686,106.665481 143.278116,105.770051 144.382686,105.770051 C145.487255,105.770051 146.382686,106.665481 146.382686,107.770051 C146.382686,108.87462 145.487255,109.770051 144.382686,109.770051 Z M154.382686,109.770051 C153.278116,109.770051 152.382686,108.87462 152.382686,107.770051 C152.382686,106.665481 153.278116,105.770051 154.382686,105.770051 C155.487255,105.770051 156.382686,106.665481 156.382686,107.770051 C156.382686,108.87462 155.487255,109.770051 154.382686,109.770051 Z M164.382686,109.770051 C163.278116,109.770051 162.382686,108.87462 162.382686,107.770051 C162.382686,106.665481 163.278116,105.770051 164.382686,105.770051 C165.487255,105.770051 166.382686,106.665481 166.382686,107.770051 C166.382686,108.87462 165.487255,109.770051 164.382686,109.770051 Z M174.382686,109.770051 C173.278116,109.770051 172.382686,108.87462 172.382686,107.770051 C172.382686,106.665481 173.278116,105.770051 174.382686,105.770051 C175.487255,105.770051 176.382686,106.665481 176.382686,107.770051 C176.382686,108.87462 175.487255,109.770051 174.382686,109.770051 Z M184.382686,109.770051 C183.278116,109.770051 182.382686,108.87462 182.382686,107.770051 C182.382686,106.665481 183.278116,105.770051 184.382686,105.770051 C185.487255,105.770051 186.382686,106.665481 186.382686,107.770051 C186.382686,108.87462 185.487255,109.770051 184.382686,109.770051 Z" transform="rotate(-30 159.383 107.77)"/>
    <polygon fill="#DBD9DB" points="163.695 198.214 97.319 160.105 .504 216.061 67.926 254.284" style="mix-blend-mode:multiply"/>
    <g transform="translate(6.504 18)">
      <path fill="#2C2E33" d="M58.157211,80.1785716 L58.157211,104.96951 L56.7186239,127.481142 L52.2915229,164.18741 C52.2915229,164.18741 57.8102936,171.251837 58.7410642,174.698941 C59.6725138,178.145367 52.970422,178.59838 52.970422,178.59838 C52.970422,178.59838 43.9750092,170.629961 42.4474862,169.443175 C40.9199633,168.25639 45.2873211,118.148258 42.7638532,117.771199 C40.2410642,117.39414 39.7318899,169.273635 39.7318899,169.273635 C39.7318899,169.273635 42.5825872,176.953834 43.3660367,179.59528 C43.9879083,181.690805 38.9701651,183.661548 36.8526789,182.453739 C35.048844,181.424965 30.8953394,177.001306 29.7928073,174.459549 C28.3182385,171.060595 28.3603303,171.816747 27.3419817,170.629961 C26.323633,169.443175 26.6630826,164.865573 26.6630826,164.865573 C26.6630826,164.865573 24.9026972,133.904026 25.5883853,124.796971 C25.9312294,120.243783 26.8762569,106.299388 25.8456881,97.4947939 C24.8157982,88.6895213 25.8456881,81.9953711 25.8456881,81.9953711 L47.4699817,82.1547395 L55.8550642,74.9065299 L58.157211,80.1785716"/>
      <path fill="#E85740" d="M28.530055,27.5937875 C28.530055,27.5937875 30.5776147,26.2483114 33.690367,25.6006655 C36.8031193,24.9530195 43.4658349,27.1984183 43.4658349,27.1984183 L47.6661835,31.2389153 L53.0057248,78.8147851 L53.1598349,80.1785716 C53.1598349,80.1785716 48.853578,84.2380572 42.805945,85.1271293 C41.0917248,85.3787279 33.5097798,84.245517 33.5097798,84.245517 L28.530055,27.5937875"/>
      <path fill="#ECF0F3" d="M30.1261468,26.6179104 C30.1261468,26.6179104 19.388,31.1595702 18.102844,31.7122733 C15.4042202,32.8732889 13.3817798,40.2639128 13.2602569,41.6080326 C13.1903303,42.3872422 12.7857064,57.9097225 12.2982569,69.6717872 C11.9452294,78.1888404 22.5285872,71.6330355 22.5285872,71.6330355 C22.5285872,71.6330355 21.2413945,121.093521 23.4702202,121.48889 C28.0629725,122.303365 38.0943853,123.338242 38.0943853,123.338242 C38.0943853,123.338242 40.9233578,88.4216468 40.2974128,65.5709336 C40.0149908,55.2547131 36.387633,47.3914094 36.0807706,46.3212676 C35.0929725,42.8802669 30.5633578,33.4185323 29.956422,31.2802833 C29.3494862,29.1420343 30.1261468,26.6179104 30.1261468,26.6179104"/>
      <polyline fill="#D4D8DB" points="21.624 105.541 25.512 53.894 26.953 51.585 27.027 64.982 27.027 76.234 24.347 122.191 21.624 105.541"/>
      <path fill="#ECF0F3" d="M56.9297615,44.3356054 C56.9297615,44.3356054 61.7689541,106.596424 61.4512294,110.540622 C61.1335046,114.48482 52.7762569,119.773815 52.7762569,119.773815 L47.5392294,63.7629502 C47.5392294,63.7629502 47.9567523,41.888114 47.1875596,37.9235712 C46.4176881,33.9583503 44.1861468,30.1918312 43.2886422,29.0592984 C41.7305688,27.0919466 41.7597615,26.3778406 41.7597615,26.3778406 L50.6648807,28.3248475 L56.0146055,30.7859022 L63.8328073,42.2875522 L56.9297615,44.3356054"/>
      <path fill="#EED2B7" d="M51.4625872,6.75586303 C51.4625872,6.75586303 51.0308073,7.10443898 51.8224037,9.94662147 C52.614,12.788804 51.6757615,21.2746616 49.4740917,24.3453852 C47.2717431,27.4167868 44.9159633,30.6590857 41.5146789,26.8634056 C41.2322569,26.5480596 41.7746972,28.6083198 41.7746972,28.6083198 L42.657945,31.9123315 C42.657945,31.9123315 41.7685872,34.8277556 40.5241651,35.505919 C38.8683303,36.4078762 30.4655963,28.2285483 30.4655963,28.2285483 L35.3434862,13.4391626 L39.5621651,5.4971919 L51.4625872,6.75586303"/>
      <path fill="#463C39" d="M32.5233394,3.35623029 C34.1255413,1.60249993 37.9226239,0.368242685 42.0740917,0.721565776 C46.2255596,1.0742107 50.4489908,3.55900112 51.9568257,5.17031718 C53.4639817,6.78163324 52.2229541,10.9794642 52.2229541,10.9794642 C52.2229541,10.9794642 50.3138899,12.5229639 47.9798349,11.6576275 C44.742844,10.4572784 40.4168991,6.75789752 41.6939083,9.59940184 C43.1263853,12.7874476 39.7318899,16.3478051 39.7318899,16.3478051 C39.7318899,16.3478051 39.7135596,12.8973101 38.6694128,12.6613092 C37.625945,12.4253084 36.6775229,14.1112224 36.5464954,16.5817714 C36.4908257,17.6322464 33.8865688,19.6023109 33.8865688,19.6023109 L31.7385321,24.2443388 C31.7385321,24.2443388 31.4384587,19.7053917 30.0277064,16.8231976 C28.617633,13.9403253 30.9204587,5.10996064 32.5233394,3.35623029"/>
      <path fill="#B7A587" d="M38.9402936,20.8107979 C38.9402936,20.8107979 40.1860734,24.1961892 41.292,25.4229867 C42.3979266,26.6497841 43.4970642,27.5788679 44.9478716,27.9206622 C46.0184954,28.1729389 47.184844,27.2092689 47.184844,27.2092689 C47.184844,27.2092689 45.6627523,29.4750125 43.9152661,28.8884013 L42.1671009,28.30179 L41.9912661,29.9429452 C41.9912661,29.9429452 37.7433945,26.6735198 38.1453028,24.8465478 C38.5465321,23.020254 38.9402936,20.8107979 38.9402936,20.8107979"/>
      <path fill="#ECF0F3" d="M63.8328073,42.2875522 L67.4533761,54.9461488 C67.4533761,54.9461488 68.2741651,74.1951366 67.6801284,75.2910485 C64.7377798,80.7163551 59.7594128,77.7778734 59.7594128,77.7778734 L57.4966422,73.4830651 L54.1021468,51.1036754 L55.6860183,40.0265557 L63.8328073,42.2875522"/>
      <path fill="#EED2B7" d="M53.8753945,63.0841087 C53.8753945,63.0841087 52.970422,59.6939702 53.8753945,58.563472 C54.7810459,57.4329737 57.948789,55.3984837 58.6276881,55.8508187 C59.3065872,56.3024754 61.7961101,57.6594803 61.7961101,57.6594803 L55.459945,63.7629502 L53.8753945,63.0841087"/>
      <path fill="#2C2E33" d="M45.8928991,73.2009491 L60.9821101,56.0047617 C61.0690092,55.9050717 61.1891743,55.8399681 61.3202018,55.8203013 L79.2913394,53.3619593 C79.8066239,53.286005 80.1365688,53.8936393 79.7916881,54.2829051 L63.9584037,70.6279975 C63.8769358,70.7202277 63.7669541,70.7826187 63.6461101,70.8063544 L46.4176881,74.1164696 C45.8962936,74.2161596 45.5425872,73.6003873 45.8928991,73.2009491"/>
      <path fill="#EED2B7" d="M44.4841835,68.2272993 L49.0667523,65.6841869 L53.6493211,64.1583194 L56.0308991,64.8120688 C56.6215413,64.974828 57.0125872,65.5349909 56.9569174,66.1439816 C56.825211,67.5959293 56.5516147,70.0746162 56.1951927,70.4313301 C55.6860183,70.9399526 51.867211,72.2115089 51.867211,72.2115089 L46.5208807,73.059213 L44.2295963,75.2632438 L42.7869358,72.9744426 C42.7869358,72.9744426 44.1447339,68.9054626 44.4841835,68.2272993"/>
      <path fill="#ECF0F3" d="M12.1461835,70.4238703 C12.1461835,70.4238703 12.0667523,79.4169942 17.3282202,82.2991883 C19.2719083,83.3639047 45.0782202,76.110948 45.0782202,76.110948 C45.0782202,76.110948 47.286,73.0944775 46.2662936,72.9744426 C44.823633,72.8049018 43.861633,71.3054827 44.1447339,70.5161005 C44.649156,69.1075553 45.3226239,67.7641138 45.5025321,67.4643656 C45.5025321,67.4643656 31.9245505,68.7359218 27.851156,69.0750035 C23.7777615,69.4140851 19.704367,63.3106152 19.704367,63.3106152 L12.1461835,70.4238703"/>
      <path fill="#D4D8DB" d="M12.7456514,73.8221467 C12.7456514,73.8221467 15.1217982,79.586535 20.0438165,79.4169942 C24.9658349,79.2474533 36.676844,76.3652592 36.676844,76.3652592 L45.8928991,73.2009491 L46.4176881,74.1164696 L45.0782202,76.110948 C45.0782202,76.110948 27.851156,80.9428616 23.7777615,81.621025 C19.704367,82.2991883 17.3282202,83.1468924 15.1217982,80.9428616 C12.9153761,78.7388308 12.7456514,73.8221467 12.7456514,73.8221467"/>
      <polyline fill="#6F6F6E" points="138.92 180.696 58.865 226.823 58.885 197.072 138.941 150.946 138.92 180.696"/>
      <polyline fill="#868686" points="9.103 168.965 58.954 197.812 58.806 226.616 9.165 197.847 9.103 168.965"/>
      <polyline fill="#B1B1B1" points="147.392 149.81 53.714 203.736 53.734 189.612 147.412 135.686 147.392 149.81"/>
      <polyline fill="#868C96" points="93.973 118.959 .296 172.885 .316 158.761 93.994 104.835 93.973 118.959"/>
      <polyline fill="#C6C6C5" points="53.862 189.674 147.709 135.55 94.082 104.622 .234 158.746 53.862 189.674"/>
      <path fill="#8CBF52"/>
      <path fill="#683B11" d="M89.9785688,116.052055 C87.1665688,114.431245 87.1631743,111.802006 89.9711009,110.177804 C92.7817431,108.552247 97.3446239,108.546822 100.162055,110.16831 C102.980844,111.790477 102.982881,114.424463 100.166807,116.049342 C97.3527706,117.672865 92.7919266,117.672865 89.9785688,116.052055"/>
      <path fill="#92C148" d="M95.2339266,112.941998 C93.4871193,111.445292 92.2671376,109.821769 91.7627156,107.567554 C91.5325688,106.53878 90.8000367,105.160074 91.5413945,104.214714 C92.1340734,104.515141 92.5488807,105.012234 92.809578,105.609696 C93.212844,106.536745 93.656844,107.508554 94.0125872,108.453913 C94.4491193,109.613572 94.4497982,110.980072 94.5577431,112.212294 C94.5570642,110.843761 94.5916881,109.482009 94.3690092,108.125682 C94.1361468,106.710355 93.7030092,105.361488 93.6466606,103.914966 C93.6086422,102.92756 93.6120367,101.943545 93.4782936,100.962243 C93.4090459,100.449551 93.2311743,99.9422853 93.522422,99.4987665 C93.8374312,99.0186269 94.5509541,98.7602466 95.0859266,98.8009364 C97.8436147,99.0098107 97.733633,104.599911 97.6066789,106.469607 C97.5014495,108.016498 96.7091743,109.113088 96.1131009,110.480265 C95.762789,111.285245 95.5937431,112.181777 95.1606055,112.946745 C95.3289725,111.777592 96.2828257,110.653875 96.8048991,109.597975 C97.1205872,108.959823 97.3357982,108.157556 97.7343119,107.565519 C98.3853761,106.599136 99.9414128,106.434343 100.956367,106.015238 C101.135596,105.94064 101.485229,105.695145 101.676,105.695823 C102.269358,105.698536 102.137651,106.163756 102.103706,106.7307 C102.03989,107.788635 101.696367,108.516982 100.970624,109.277203 C99.6386239,110.672185 97.9440917,111.384935 96.2522752,112.238065 C97.9535963,111.850155 99.6216514,111.374763 101.340624,111.804718 C102.29244,112.043432 103.247651,112.240099 104.194716,112.499157 C103.95778,116.191079 98.6331743,113.930082 96.7546606,112.905377 C96.2020367,112.603595 95.5109174,112.231283 94.9732294,112.73448 C94.2868624,112.467284 93.8462569,112.238743 93.1463119,112.588675 C92.3581101,112.98201 92.1924587,113.317701 91.2386055,113.45808 C89.8237798,113.667633 87.7619633,113.923979 86.5066789,113.021343 C86.9242018,110.632852 90.3343119,110.955658 92.0369908,111.151647 C92.6466422,111.221498 93.6391927,110.994313 94.1028807,111.529384"/>
      <path fill="#683B11" d="M103.084716,123.625105 C100.273394,122.004295 100.269321,119.375055 103.077927,117.750854 C105.88789,116.125297 110.450771,116.12055 113.268881,117.742038 C116.08767,119.363527 116.089706,121.997513 113.273633,123.622392 C110.459596,125.245915 105.898073,125.246593 103.084716,123.625105"/>
      <path fill="#92C148" d="M116.076128,113.323126 C115.268239,112.543238 115.077468,112.533744 114.115468,113.36585 L109.255908,119.80908 L108.779321,120.077633 C108.711431,119.741264 108.648294,119.442872 108.591266,119.181779 C109.307505,117.809176 110.247101,116.55593 111.001358,115.17519 C112.226771,112.93386 114.478,108.49935 111.853376,106.177319 C110.215193,104.728084 109.651706,106.734769 109.272881,108.147383 C108.97145,109.270422 108.88455,110.341242 108.892697,111.488694 C108.727046,110.931244 108.526092,110.379219 108.343468,109.805493 C107.989761,108.694661 106.597339,104.764705 104.818624,105.927077 C102.502899,107.441415 105.185908,112.988791 105.805743,114.568234 C106.414716,116.12055 107.428991,117.903441 107.709376,119.585286 L107.647596,119.737873 L105.045376,115.217236 L105.176404,115.637019 C105.16011,115.601076 105.139743,115.564456 105.125486,115.529191 C104.483248,113.95653 103.839651,112.51679 102.597266,111.297452 C102.257138,110.963796 99.3609541,108.324384 98.7288991,109.137502 C98.2672477,109.731573 99.7024404,111.747074 99.8762385,112.03665 C101.220459,114.269842 102.678055,115.396949 104.768385,116.770908 C105.194734,117.05099 105.565413,117.345313 105.894679,117.662693 L107.421523,121.094878 L108.270147,121.101659 L108.284404,121.096912 L108.185284,121.228476 C109.363174,121.298327 111.31433,119.583251 112.101853,118.869146 C112.988495,118.064844 113.854092,117.352094 114.845963,116.668506 C115.565596,116.172768 116.847358,115.664824 116.826991,114.56213 C116.816128,113.980266 116.462422,113.696116 116.076128,113.323126"/>
      <path fill="#683B11" d="M115.304899 130.632567C112.493578 129.012434 112.489505 126.383195 115.29811 124.758316 118.108073 123.132758 122.670954 123.128011 125.489064 124.7495 128.307853 126.371666 128.30989 129.004975 125.493817 130.629854 122.67978 132.253377 118.118257 132.254055 115.304899 130.632567M128.430734 137.753281C125.618734 136.133149 125.615339 133.50391 128.423266 131.879031 131.233229 130.253473 135.796789 130.248726 138.61422 131.870215 141.433688 133.492381 141.435046 136.125689 138.618972 137.750569 135.804936 139.374092 131.244092 139.37477 128.430734 137.753281M77.3055596 123.398598C74.4935596 121.777788 74.4901651 119.148549 77.2980917 117.524348 80.1087339 115.89879 84.6716147 115.894043 87.4890459 117.515532 90.3085138 119.137698 90.3105505 121.771006 87.4937982 123.395886 84.6797615 125.019409 80.1189174 125.020087 77.3055596 123.398598M90.4123853 130.971648C87.6003853 129.351516 87.5969908 126.722277 90.4049174 125.097397 93.2148807 123.47184 97.7784404 123.467093 100.595872 125.088581 103.415339 126.710748 103.416697 129.344056 100.600624 130.968936 97.7865872 132.592459 93.2257431 132.593137 90.4123853 130.971648M102.632569 137.979788C99.8205688 136.358978 99.8171743 133.729738 102.625101 132.104859 105.435064 130.479302 109.998624 130.474554 112.816055 132.096043 115.635523 133.71821 115.636881 136.351518 112.820807 137.976397 110.006771 139.59992 105.445927 139.600598 102.632569 137.979788M115.757725 145.100503C112.945725 143.479693 112.94233 140.850453 115.750257 139.225574 118.560899 137.600017 123.12378 137.595269 125.94189 139.216758 128.760679 140.838925 128.762716 143.472233 125.946642 145.097112 123.132606 146.720635 118.571083 146.721313 115.757725 145.100503M64.2367523 130.349772C61.4247523 128.728962 61.4213578 126.099723 64.2292844 124.475522 67.0399266 122.849964 71.6028073 122.845217 74.4209174 124.466706 77.2397064 126.088872 77.2417431 128.72218 74.4256697 130.34706 71.6109541 131.970583 67.0501101 131.971261 64.2367523 130.349772M77.343578 137.922822C74.531578 136.30269 74.5281835 133.673451 77.3361101 132.048572 80.1460734 130.423014 84.709633 130.418267 87.5270642 132.039755 90.3465321 133.661922 90.3478899 136.29523 87.5318165 137.92011 84.7177798 139.543633 80.1569358 139.544311 77.343578 137.922822M89.5637615 144.930962C86.7517615 143.310152 86.748367 140.680912 89.5562936 139.056033 92.3662569 137.430476 96.9298165 137.425729 99.7472477 139.047217 102.566716 140.669384 102.568073 143.302692 99.752 144.927571 96.9379633 146.551094 92.3771193 146.551772 89.5637615 144.930962M102.688917 152.616587C99.8769174 150.995777 99.8735229 148.366537 102.682128 146.742336 105.492092 145.116779 110.054972 145.112032 112.873083 146.73352 115.691872 148.355009 115.693908 150.988995 112.877835 152.613874 110.063119 154.237397 105.502275 154.238075 102.688917 152.616587M51.3376697 137.809569C48.5256697 136.188759 48.5222752 133.559519 51.3302018 131.935318 54.140844 130.309761 58.7037248 130.305014 61.5218349 131.926502 64.3406239 133.548669 64.3426606 136.181977 61.5259083 137.806856 58.7118716 139.430379 54.1510275 139.431057 51.3376697 137.809569M64.4444954 145.382619C61.6324954 143.762487 61.6291009 141.133247 64.4370275 139.508368 67.2469908 137.882811 71.8105505 137.878063 74.6279817 139.499552 77.4474495 141.121719 77.4488073 143.755027 74.6327339 145.379906 71.8186972 147.003429 67.2578532 147.004107 64.4444954 145.382619M76.6646789 152.390759C73.8526789 150.769948 73.8492844 148.140709 76.657211 146.516508 79.4671743 144.890272 84.0307339 144.885525 86.8481651 146.507014 89.667633 148.12918 89.6689908 150.762488 86.8529174 152.387368 84.0388807 154.010891 79.4780367 154.011569 76.6646789 152.390759M89.7898349 160.076384C86.9778349 158.455573 86.9744404 155.826334 89.782367 154.202133 92.5930092 152.576575 97.1558899 152.571828 99.974 154.192639 102.792789 155.814805 102.794826 158.448792 99.9787523 160.073671 97.1647156 161.697194 92.6031927 161.697872 89.7898349 160.076384M38.9477615 145.438906C36.1357615 143.818096 36.132367 141.188857 38.9402936 139.564656 41.7509358 137.939098 46.3138165 137.934351 49.1319266 139.55584 51.9507156 141.178006 51.9527523 143.811314 49.1366789 145.436194 46.3219633 147.059717 41.7611193 147.060395 38.9477615 145.438906M52.0545872 153.011956C49.2425872 151.391824 49.2391927 148.762585 52.0471193 147.137705 54.8570826 145.512148 59.4206422 145.507401 62.2380734 147.128889 65.0575413 148.751056 65.0588991 151.384364 62.2428257 153.009244 59.428789 154.632767 54.867945 154.633445 52.0545872 153.011956M64.2747706 160.020096C61.4627706 158.399286 61.4593761 155.770046 64.2673028 154.145845 67.0772661 152.51961 71.6408257 152.514862 74.4582569 154.136351 77.2777248 155.758518 77.2790826 158.391826 74.4630092 160.016705 71.6489725 161.640228 67.0881284 161.640906 64.2747706 160.020096M77.3999266 167.705721C74.5879266 166.084911 74.5845321 163.455671 77.3924587 161.83147 80.2031009 160.205913 84.7659817 160.201166 87.5840917 161.821976 90.4028807 163.444143 90.4049174 166.078129 87.588844 167.703008 84.7748073 169.326531 80.2132844 169.327209 77.3999266 167.705721M25.5395046 152.729162C22.7275046 151.108352 22.7241101 148.479113 25.5320367 146.854911 28.3426789 145.229354 32.9055596 145.224607 35.7236697 146.846095 38.5424587 148.468262 38.5444954 151.10157 35.728422 152.726449 32.9137064 154.349972 28.3528624 154.350651 25.5395046 152.729162M38.6463303 160.302212C35.8343303 158.68208 35.8309358 156.052841 38.6388624 154.427961 41.4488257 152.802404 46.0123853 152.797657 48.8298165 154.419145 51.6492844 156.041312 51.6506422 158.67462 48.8345688 160.299499 46.0205321 161.923022 41.4596881 161.9237 38.6463303 160.302212M50.8665138 167.310352C48.0545138 165.689541 48.0511193 163.060302 50.8590459 161.436101 53.6690092 159.809865 58.2325688 159.805118 61.05 161.426607 63.8694679 163.048773 63.8708257 165.682082 61.0547523 167.306961 58.2407156 168.930484 53.6798716 168.931162 50.8665138 167.310352M63.9916697 174.995977C61.1796697 173.375166 61.1762752 170.745927 63.9842018 169.121726 66.794844 167.496168 71.3577248 167.491421 74.1758349 169.112232 76.9946239 170.734398 76.9966606 173.368385 74.1805872 174.993264 71.3658716 176.616787 66.8050275 176.617465 63.9916697 174.995977M12.8101468 160.019418C9.99814679 158.398607 9.99475229 155.769368 12.8026789 154.145167 15.6133211 152.51961 20.1762018 152.514862 22.9943119 154.136351 25.8131009 155.758518 25.8151376 158.391826 22.9990642 160.016705 20.1843486 161.640228 15.6235046 161.640906 12.8101468 160.019418M25.9169725 167.592468C23.1049725 165.972335 23.101578 163.342418 25.9095046 161.718217 28.7194679 160.092659 33.2830275 160.087912 36.1004587 161.709401 38.9199266 163.331567 38.9212844 165.964876 36.105211 167.589755 33.2911743 169.213278 28.7303303 169.213956 25.9169725 167.592468M38.137156 174.600607C35.325156 172.979797 35.3217615 170.350558 38.1296881 168.725679 40.9396514 167.100121 45.503211 167.095374 48.3206422 168.716862 51.1401101 170.339029 51.1414679 172.972337 48.3253945 174.597217 45.5113578 176.22074 40.9505138 176.221418 38.137156 174.600607M51.2623119 182.286232C48.4503119 180.665422 48.4469174 178.036183 51.254844 176.411982 54.0654862 174.786424 58.628367 174.781677 61.4464771 176.402487 64.2652661 178.024654 64.2673028 180.65864 61.4512294 182.28352 58.6371927 183.907043 54.0756697 183.907043 51.2623119 182.286232"/>
      <path fill="#92C148" d="M123.736826 121.681489C124.871266 120.060678 126.472789 118.455466 127.015908 116.506424 127.36622 115.247753 127.733505 113.312953 127.091945 112.08819 126.633009 111.214038 125.937817 110.657266 125.176771 111.19844 124.848862 111.43105 124.577303 112.09565 124.351229 112.440835 123.736147 113.380092 122.810128 114.513981 122.442165 115.597686 121.917376 117.141185 121.916697 118.882031 121.417028 120.474358 121.115596 121.435994 120.846752 122.432216 120.581982 123.43115 120.624073 122.308112 120.64444 121.162694 120.735413 120.240392 120.896312 118.599237 121.013761 116.528804 120.77411 114.905959 120.512734 113.137987 120.010349 112.862653 118.829064 113.850737 119.449578 115.936767 119.751688 118.178775 119.635596 120.351611 119.560917 121.747949 120.033431 123.34638 120.170569 124.965156 120.038183 125.460893 119.899688 125.949171 119.759156 126.435414 118.117578 125.163179 117.778807 120.902279 115.389761 120.795808 113.372752 120.705612 115.79167 123.690209 116.258073 124.2619 117.223468 125.444617 118.366055 126.392689 119.484202 127.376026 119.477413 127.397049 119.483523 127.403153 119.492349 127.383486 119.61455 127.491314 119.705523 128.035201 120.269009 128.084029 120.600991 127.972132 120.831138 127.704257 121.214716 127.610671 121.55756 127.526578 122.203193 127.725959 122.580661 127.761223 123.620734 127.8582 125.527083 128.048086 126.248752 127.100014 127.15033 125.914584 125.626881 125.26626 124.606495 125.191662 123.286037 125.095363 121.943174 125.690112 120.945872 126.625299 121.256807 126.118033 121.540587 125.589066 121.817578 125.150972 122.521596 124.037428 122.980532 122.763159 123.736826 121.681489M132.668422 133.937256C131.794 132.022123 129.658183 130.724797 129.183633 128.713364 128.855046 127.320417 129.097413 125.18149 131.028202 126.76161 132.36156 127.852775 131.757339 129.648552 131.868 131.059131 131.931817 131.881065 132.100183 132.7247 132.208128 133.567657 132.278055 131.285638 132.610037 129.018538 132.743101 126.741265 132.834752 125.169961 132.775009 123.728864 133.180991 122.194858 133.472917 121.09013 133.695596 119.552734 134.603284 118.766743 139.377982 123.068333 131.258349 129.155527 132.769578 134.018636 133.764165 131.136442 134.962422 128.777112 138.011358 127.819545 139.087413 130.728866 135.04389 132.389688 133.315413 134.164441 136.25233 133.878934 138.314147 135.817125 139.061615 138.392111 139.422789 139.639254 139.454018 140.816545 139.460807 142.085389 135.13622 141.41672 136.308679 135.620458 132.894495 134.276338M80.2234679 119.469998C78.3021835 118.299488 76.1161284 117.226634 74.4209174 115.740778 74.0081468 115.379317 72.9741835 114.568912 73.2029725 113.873794 73.8228073 111.987822 77.0570826 115.351512 77.6545138 116.077825 77.7448073 115.751629 77.8473211 115.314213 77.9776697 114.961568 79.3857064 115.109408 80.1182385 116.989277 80.9688991 117.947522 80.317156 115.240294 79.2295596 112.282823 78.9933028 109.524055 78.870422 108.096521 79.5377798 107.806945 80.8541651 108.926593 82.274422 110.134402 82.9220917 113.77207 82.9512844 115.526478 82.974367 116.898403 82.6912661 117.734578 81.6776697 118.556512 84.0490642 118.655524 84.7843119 116.976392 84.9275596 114.96835 84.9771193 114.274589 84.6268073 112.178386 85.0239633 111.638568 85.8725872 110.4823 86.8583486 112.206191 87.2100183 112.931826 87.9113211 114.380382 88.2494128 115.820801 87.6920367 117.323611 86.7639817 119.826712 84.683156 119.227894 82.4950642 119.040721 83.0463303 119.659884 83.6071009 120.001 83.9336514 120.830394 84.1746606 121.442097 84.6675413 123.895692 83.7822569 124.326326 82.0707523 125.15911 80.9512477 120.947038 80.7889908 119.921655M93.5746972 126.364207C93.1225505 124.38736 91.6452661 122.622101 90.5311927 120.956532 90.2202569 120.491312 87.6424771 117.619291 88.134 116.867886 88.8407339 115.786215 92.4714862 120.932797 92.7566239 121.375637 93.791945 122.982884 93.8000917 124.541982 93.8014495 126.367597 93.7383119 125.15572 94.6765505 116.754632 96.5224771 117.304623 98.1946055 117.803073 97.4213394 122.898792 97.1973028 123.852968 96.9759817 124.796293 96.751945 126.105148 95.950844 126.71753 95.7716147 126.699219 95.3737798 126.575115 95.2352844 126.493058 95.8809174 125.741653 105.217138 122.619389 104.33389 126.534426 102.291083 127.608636 100.236734 126.589357 98.1178899 126.589357 97.3161101 126.588679 96.7078165 126.804335 95.9610275 126.944036 96.4722385 128.208133 97.7967706 130.090714 97.6385872 131.551478 95.5197431 132.125204 95.2950275 127.71443 94.6161284 126.69515 94.7281468 127.287865 94.5244771 127.521831 94.1049174 127.827683 93.2977064 128.414972 90.6248807 128.389202 89.560367 128.528226 87.5467523 128.792031 87.3118532 127.792419 87.3322202 125.867113 88.9357798 125.028225 91.2243486 126.162114 92.9080183 126.356747 93.5129174 126.426598 94.1585505 126.405575 94.706422 126.590713M106.587156 134.05051C106.336642 132.197767 105.115982 131.769846 104.065046 130.526095 103.730349 130.130726 102.361688 128.059615 103.02633 127.611349 104.655009 126.513402 106.747376 132.936287 106.700532 133.811118 106.503651 131.630823 107.555266 124.137796 110.181248 123.100206 111.242367 125.11503 110.021028 129.315573 109.305468 131.473489 108.968734 132.490056 108.464991 133.461186 107.807817 134.286511 107.728385 132.327975 111.472514 129.266746 113.363248 128.376317 114.464422 127.8582 115.695266 127.562521 115.539119 129.130435 115.234294 132.20048 110.301413 132.930862 108.15745 134.490638 109.215853 133.598175 116.368055 131.65388 116.425083 134.563201 116.444092 135.505848 109.054954 135.227123 107.724312 134.849386 107.49145 134.783604 107.335982 134.46012 107.099725 134.39366 106.369229 134.188855 105.390257 134.42689 104.635321 134.323809 104.010734 134.239039 100.333138 133.773819 100.321596 132.829138 100.297156 130.873314 104.270073 131.832916 105.228 132.544309 105.710018 132.901701 106.101743 133.440163 106.587156 133.711428M119.372862 141.510306C119.401376 140.80366 116.67967 133.290289 118.354514 133.49645 119.351817 133.619876 121.254771 140.25367 120.844037 141.073569 120.204514 139.764036 121.247982 137.537625 121.619339 136.212494 121.937743 135.079283 121.998165 132.63993 123.042312 131.855973 123.647211 131.401604 127.180881 131.075407 127.497248 131.744076 128.222991 133.282151 124.627541 134.211913 124.009064 135.097594 123.03756 136.488507 123.260239 141.170546 120.858972 141.271593 120.725908 139.561265 125.057284 138.499261 126.244679 138.288352 127.82855 138.006914 129.709101 138.164927 130.953523 139.230321 128.828569 141.988411 122.819633 140.95489 119.854202 141.191569 121.27378 142.043343 125.447651 142.741173 125.225651 145.080158 125.055927 146.876613 121.639706 145.624045 120.886807 144.646812 119.98455 143.475624 119.98455 142.120653 118.709578 141.398409 118.668844 141.375352 117.359927 141.159696 117.626734 141.22819 116.727872 140.998971 115.960716 140.358107 115.047596 140.166865 114.552 140.063106 114.164349 139.903737 113.738679 140.235359 116.127725 138.166961 117.237046 140.773821 119.260165 141.057971M68.1159817 127.94704C66.3053578 127.357038 64.4825138 126.861978 62.6739266 126.246206 61.7438349 125.929504 59.4416881 125.65417 59.8517431 124.111348 60.356844 122.2091 63.6501835 124.070658 64.8314679 124.440257 66.6848624 125.019409 67.494789 125.719273 68.019578 127.614062 67.6651927 125.974263 67.3630826 124.411774 66.8681651 122.799102 66.391578 121.246786 65.2999083 119.19602 65.2598532 117.632854 68.1227706 119.184491 68.6842202 124.476878 68.5742385 127.357716 68.1573945 125.982401 67.8736147 121.878156 69.1031009 120.814796 69.6550459 122.148065 69.9490092 126.628012 68.9910826 127.839212 68.6645321 126.671415 70.1839083 116.520666 73.1846422 117.66744 75.0190275 118.367983 74.3509908 123.432507 73.7060367 124.748143 72.9015413 126.389299 71.4914679 127.245819 69.9116697 127.902281 71.5668257 127.523866 75.3313211 130.08868 73.6055596 131.571145 71.847211 133.081414 68.348844 129.754345 68.0032844 128.059615M81.3545138 135.18033C80.5676697 134.173935 75.3842752 133.227898 75.574367 131.839697 75.809945 130.11445 80.8521284 133.18992 81.3714862 134.13528 80.5099633 132.972908 79.9749908 131.381937 79.6722018 130.015438 81.0089541 131.16289 81.4930092 132.363239 81.4726422 134.14274 81.0109908 132.228963 80.8276881 130.131404 81.1800367 128.191179 81.3110642 127.466222 81.427156 125.924079 82.2499817 125.664342 83.4122569 127.682556 84.4883119 130.422336 84.0721468 132.747758 83.9275413 133.559519 83.4876147 135.618423 82.5025321 135.722182 82.2927523 134.137315 84.8141835 130.503715 86.5039633 130.657659 87.2269908 130.72344 87.0565872 130.790579 87.2493945 131.404316 87.9602018 133.671416 85.1719633 135.263744 83.5656881 136.017861 84.9954495 135.57909 85.8230275 136.352196 86.4849541 137.5912 86.929633 138.422629 87.743633 139.894243 86.7083119 140.416429 85.6872477 140.931833 82.3850826 137.918753 81.7048257 137.090038 81.1868257 136.458668 80.7020917 135.588584 80.8059633 134.745627 80.9227339 134.716466 81.0089541 134.735455 81.1284404 134.728673M93.462 141.397053C92.6154128 140.739235 89.1150092 138.892596 90.2847523 137.119877 91.7559266 134.890754 93.8625505 140.297072 94.5570642 141.055937 93.462 139.733518 93.5685872 136.780117 93.5753761 135.084031 93.5767339 134.755121 93.2861651 132.678585 94.0797982 133.090909 95.0479083 133.592749 95.0411193 137.128015 95.0465505 137.966903 95.056055 139.346965 95.0221101 140.694476 95.2760183 142.052837 95.204055 139.606702 95.6813211 133.994222 98.8965872 133.358105 99.7350275 134.767328 98.9624404 136.080252 98.0187706 137.176164 96.745156 138.655917 95.9467706 140.166865 94.9304587 141.804629 95.0540183 140.32352 97.1986606 138.16357 98.5367706 137.478625 99.5632661 136.953049 102.612202 136.474944 103.650239 137.16667 104.511761 137.739718 105.51178 140.019025 105.437101 141.037626 104.695064 141.330593 104.115284 141.116293 103.498844 140.67074 102.342 139.835921 101.933982 139.340862 100.318202 139.235746 99.1830826 139.162505 98.0683303 139.292712 97.1966239 140.044117 96.4111376 140.720246 96.0309541 141.85956 94.8469541 142.079963 96.8612477 141.408582 99.0635963 143.69467 99.5686972 145.442975 98.4417248 145.834954 96.6528257 145.598953 95.5917064 145.019123 94.2970459 144.313155 94.1972477 142.754736 93.5977798 141.543536 93.5197064 142.90461 90.3125872 142.682172 89.3824954 142.630632 89.5379633 139.955278 91.6296514 140.596142 93.2352477 141.057971"/>
      <path fill="#92C148" d="M107.266055 149.309184C106.79422 148.465549 103.486624 141.597789 105.507028 141.513019 107.192055 141.441812 107.452752 147.093625 107.724991 148.163088 107.545761 146.84067 108.69989 143.889981 109.46433 142.865277 110.139835 141.959929 111.05567 141.721215 112.141229 141.504203 112.719651 143.240301 111.375431 144.753283 110.360477 146.033656 109.676147 146.896958 109.08211 147.993548 108.377413 148.766654 109.317688 146.613485 113.551982 146.818969 115.39655 147.102441 116.273009 147.237395 119.345706 147.736524 119.718422 148.881263 120.39189 150.951696 114.621248 149.975141 113.372752 149.804244 112.359156 149.665898 109.122165 148.481825 108.744018 150.181302 108.401853 151.715308 110.779358 154.267237 108.182569 155.314999 107.249761 153.752511 107.290495 151.699032 107.257229 149.914106 106.408606 149.793393 99.0201468 150.508177 100.704495 148.291261 102.416679 146.038403 105.411303 149.518737 107.365853 149.293587 107.357706 149.110483 107.346165 148.805987 107.266055 148.631021M55.5563486 134.728673C54.605211 133.280794 49.3837982 132.171319 50.1170092 129.611931 50.8142385 127.182072 54.6900734 133.348611 55.3438532 134.028808 54.8129541 132.276434 54.3920367 130.433187 53.9792661 128.649617 53.7409725 127.623556 53.0865138 125.124524 54.1985505 124.2619 55.4504404 123.29077 56.1395229 126.160758 56.3730642 127.24921 56.7220183 128.876124 57.2977248 132.096043 56.6649908 133.714819 55.1605505 132.515826 56.5597615 127.567946 57.0349908 125.892205 57.2590275 125.101466 57.4755963 123.902474 58.1395596 123.385035 59.8198349 126.400149 59.8130459 131.31819 57.6609358 134.164441 58.7722936 132.044503 62.0167523 130.616969 64.2442202 131.767134 64.9102202 132.110963 65.8226606 132.731482 65.7242202 133.55545 65.0751927 133.672773 64.3114312 133.354714 63.6189541 133.355392 62.4064404 133.35607 61.0113028 133.448979 59.8110092 133.595462 58.9365872 133.702612 58.3371193 134.430281 57.5013945 134.401798 58.3432294 134.879903 61.2889725 139.442586 59.1063119 139.250666 57.7071009 139.12724 57.5828624 136.838439 56.9338349 135.946654 56.6344404 135.535687 55.9460367 135.094881 55.7831009 134.841248M68.9082569 142.640126C66.8749541 142.003331 65.5524587 141.811411 63.4281835 142.504494 62.5619083 142.787288 61.574789 143.283025 62.1111193 141.465547 62.7981651 139.137413 67.5735413 140.167543 68.6414495 141.939584 68.0155046 140.911488 67.1376881 133.949463 69.3291743 133.949463 70.1771193 136.417978 69.082055 138.624043 69.2463486 141.055937 69.1322936 139.897634 71.5097982 133.31945 74.006789 134.605247 75.2661468 135.25425 74.0794312 137.280602 73.4969358 137.873316 72.2728807 139.119781 70.938844 140.472038 69.6530092 141.60864 71.9198532 139.251344 75.796367 138.417203 78.9654679 138.357525 80.2390826 138.333789 80.6280917 138.345996 81.245211 139.364597 81.6063853 139.961381 81.9281835 140.700579 81.4495596 141.295328 80.2995046 142.724219 75.2288073 142.115906 73.4236147 142.182366 72.5682018 142.213562 70.9958716 142.71269 70.3176514 141.985699 71.2321284 142.822552 73.0461468 145.451113 71.7141468 146.370703 69.573578 147.848421 67.7656697 143.616682 68.4554312 142.18847"/>
      <path fill="#92C148" d="M81.1284404 148.85685C79.9281468 147.999651 78.0761101 146.687405 78.406055 144.973686 79.119578 141.271593 82.4231009 146.877291 83.0375046 148.054582 81.8412844 147.033268 82.7381101 140.712108 84.2968624 140.011565 85.2656514 141.855491 85.571156 146.633152 83.9811743 148.297365 83.4692844 145.841057 89.0403303 143.023289 89.6622018 145.341929 90.0552844 146.808796 84.7476514 148.043054 83.6281468 148.412653 85.8664771 148.178686 89.7979817 147.560201 91.7953028 149.136253 92.8021101 149.930382 92.5780734 150.382039 91.6669908 150.721799 89.8780917 151.388433 87.2724771 150.759776 85.5697982 150.194866 84.8101101 149.943267 83.6213578 149.833405 83.0897798 149.193897 83.5507523 150.041601 85.241211 154.100408 82.9852294 153.833212 81.5805872 153.666384 80.8738532 150.072796 81.0238899 148.765976 81.353156 148.753769 81.4509174 148.477756 81.6939633 148.404515M93.8014495 156.429899C93.0139266 156.384462 90.7280734 153.285256 91.8720183 152.553518 93.0390459 151.807538 94.5502752 155.951116 94.8218349 156.57367 94.6962385 154.559525 94.2305138 150.301337 96.6501101 149.168805 97.5958165 150.774695 98.3975963 156.23391 96.0764404 157.214534 96.3181284 156.058266 101.231321 152.818001 101.84233 155.276344 102.151229 156.519417 98.7200734 157.248442 97.7512844 157.639065 98.9149174 157.663478 101.495413 160.614845 100.487927 161.992873 99.4179817 163.454993 98.0343853 160.787099 97.5326789 159.931935 96.8157615 158.709206 96.0771193 158.320619 94.8123303 157.689927 94.2121835 157.390179 93.2182752 157.324397 93.8014495 156.316646M42.6009174 142.75338C41.890789 142.583839 41.2437982 142.107768 40.4610275 141.910423 38.8262385 141.498099 36.7080734 142.096239 35.4032294 140.739913 34.1092477 139.395115 34.7514862 139.118424 36.5030459 139.283218 38.0393945 139.427667 41.628055 140.033267 42.1093945 141.872445 41.1881284 140.528326 33.9802569 133.612416 35.1425321 131.563007 36.7053578 128.808985 39.3707156 134.289901 39.6388807 135.124042 40.3544404 137.350452 40.854789 139.585001 41.7801284 141.732066 41.4223486 140.657855 40.2098349 127.159014 42.0265688 127.685947 43.7109174 128.174224 43.4542936 133.598853 43.4508991 134.653397 43.4441101 136.869635 43.814789 139.538885 43.1603303 141.597789 41.8656697 137.510499 44.3002018 132.539562 46.5412477 129.141964 47.8671376 130.76413 48.5935596 134.702903 47.7123486 136.645163 46.8060183 138.642354 44.3456881 139.69215 43.4495413 141.673744 45.1182752 141.159696 50.5983486 139.327298 51.2643486 142.423792 51.8108624 144.962836 40.9104587 145.173066 40.9036697 142.583839M56.0091743 149.704554C54.4001835 148.371285 51.0036514 147.135671 51.2840367 144.644777 53.5522385 144.482696 56.3425138 146.403933 56.9671009 148.529975 55.8944404 145.059135 54.2026239 139.244563 56.2250642 135.805596 57.975945 139.077734 57.0764037 144.161925 57.020055 147.826719 57.0363486 145.021836 59.4328624 139.576863 62.106367 138.450433 62.2733761 140.596142 62.0506972 143.565141 60.9773578 145.501297 60.1457064 147.000716 58.7566789 147.421178 57.5529908 148.501492 59.5217982 148.515733 64.5110275 145.63693 66.4200917 147.629374 66.788055 148.012536 67.2137248 148.764619 66.6977615 149.288161 66.0928624 149.901899 64.2971743 149.169483 63.552422 149.109804 61.9169541 148.977563 60.2298899 149.012149 58.5726972 149.034528 61.1871376 148.074249 65.355578 151.814998 64.9774312 154.607674 62.7961284 154.627341 62.4105138 151.518641 61.1015963 150.376614 60.108367 149.509243 57.8958349 149.196609 57.1972477 148.687309"/>
      <path fill="#92C148" d="M68.5688073 156.486187C66.6169725 155.642552 63.2523486 155.45131 60.9535963 155.278378 60.2326055 152.801726 66.9075413 154.522904 68.0372294 155.934162 67.407211 154.385237 65.2394862 150.215211 67.5463853 149.176943 68.4479633 151.181593 69.0243486 153.567372 69.0908807 155.773437 68.0806789 152.912944 69.3821284 149.32546 70.0875046 146.496841 70.4296697 145.124239 70.4466422 141.844641 72.0943303 141.38349 73.4534862 144.794651 71.8234495 152.640323 69.2687523 155.45131 69.1852477 153.526004 72.3713211 149.625887 74.1513945 148.991804 75.2050459 148.61678 76.9885138 148.953149 77.935578 149.53976 78.9430642 150.16367 79.9193211 151.677331 79.744844 152.900059 78.1949174 153.169968 77.6212477 151.351134 76.2091376 151.082582 73.4901468 150.565143 71.7324771 153.513797 70.1085505 154.938618 71.8234495 153.991902 78.8283303 156.438037 77.1168257 158.451504 75.6558349 160.172005 67.4065321 158.090721 68.9082569 155.299401M81.8073394 164.963228C79.0211376 163.387177 76.4297798 169.034921 74.6374862 168.357436 73.0631193 167.762008 74.0325872 166.328371 74.666 165.72345 76.3876881 164.079582 79.2913394 163.93242 81.4190092 164.639745 78.7013761 163.179659 77.8649725 161.517481 77.390422 158.336216 80.1087339 158.372837 82.4488991 161.006145 82.6681835 163.602833 82.1977064 161.22248 80.8120734 155.538115 83.3728807 153.789131 85.3450826 156.510601 85.5195596 162.017287 83.6580183 164.939493 82.9078349 163.195935 84.8637431 153.496165 88.3254495 155.87584 89.5834495 156.740498 89.338367 158.086652 88.8522752 159.351427 88.1767706 161.108548 85.9900367 164.691963 84.36 165.63461 85.8630826 162.929417 94.0933761 163.8585 93.6609174 167.818974 91.410367 167.825756 89.5712294 166.323624 87.3396881 166.145945 85.3946422 165.991324 83.5086606 166.648464 81.9770642 165.132769M29.5321101 149.365472C28.059578 149.309863 21.8082752 151.248732 21.547578 149.704554 21.1232661 147.190602 28.3562569 150.254544 29.6916514 150.17859 28.5429541 149.205425 26.8701468 148.614745 25.7370642 147.467971 24.0554312 145.766459 22.94 143.515635 21.8931376 141.421467 24.0506789 140.986086 29.1444587 146.089265 29.3813945 148.338055 28.3257064 145.878356 26.5612477 138.872929 28.0011927 136.135862 28.8430275 134.535396 30.1492294 134.919915 30.0467156 136.903543 29.9828991 138.143903 28.8077248 138.90209 28.6794128 140.147198 28.3806972 143.02261 30.8573211 145.832241 30.8586789 148.700872 29.4574312 145.945494 30.1641651 141.245144 33.3923303 140.023772 34.3441468 142.048768 33.4724404 143.49529 32.6489358 145.27886 34.2796514 144.668513 39.1385321 144.899767 37.6816147 147.463224 37.0006789 148.662217 30.1621284 152.396862 30.2110092 149.365472M43.6192661 158.181595C42.4766789 157.370512 39.765156 149.608254 42.5628991 149.719473 43.6111193 151.942493 43.8894679 154.600215 44.2974862 156.975821 44.3151376 154.131604 44.2099083 149.496358 45.9872661 147.13228 48.0368624 148.673067 46.8976697 155.264137 45.1793761 156.998878 44.5887339 154.202133 52.257578 149.715404 50.9812477 153.914592 50.0918899 156.842223 46.236422 156.070473 44.8209174 158.012054 46.7761468 159.244955 47.6247706 160.559236 47.3274128 163.037923 45.5989358 163.570959 43.3802936 158.420309 43.6192661 158.012054"/>
      <path fill="#92C148" d="M54.9908257 163.945983C54.0797431 163.677431 48.5670826 159.968556 48.7368073 158.546447 50.7599266 158.30163 54.0987523 161.677527 54.4802936 163.584522 54.6269358 161.930482 51.9425688 152.727128 54.3085321 151.75532 55.6527523 154.505272 55.2752844 157.700777 55.4151376 160.671133 55.4524771 161.476113 55.7668073 162.359081 55.1958532 162.928738 54.847578 161.1411 56.0512661 157.163672 57.134789 155.651368 58.0513028 154.37303 59.5367339 154.063788 61.077156 153.943074 62.1518532 156.730326 59.3086239 159.068633 57.7376514 161.22248 57.1578716 162.017965 56.4789725 162.592369 55.6805872 163.159314 56.1598899 159.316162 59.2190092 159.979406 61.8273394 160.644684 62.4512477 160.804053 67.2911193 161.834183 65.4302569 163.523488 64.696367 164.188766 61.8606055 162.081034 60.633156 162.102736 58.8137064 162.134609 57.383945 163.631994 55.7165688 163.60758 57.0132661 163.565534 59.9080917 168.063113 58.069633 168.927771 56.6534495 169.593728 54.3105688 164.268111 54.4816514 163.26782M68.3990826 172.253484C65.9652294 172.704463 65.0229174 174.726068 62.314789 174.601286 61.7553761 171.889989 67.6930275 171.348136 69.3678716 171.045675 68.3047156 171.61262 65.9054862 171.322366 64.7866606 170.736433 64.1593578 170.408202 62.2231376 168.596828 62.6128257 167.759296 63.5374862 165.772277 67.4642385 170.185764 68.4024771 170.712697 67.8987339 169.347554 66.2381468 163.766948 69.2124037 163.956834 69.6862752 166.205624 69.3094862 168.479505 69.2334495 170.732364 69.9775229 166.390084 72.4385321 163.943271 76.3530642 161.970494 76.8092844 164.64517 74.208422 166.881074 72.3882936 168.404907 71.2300917 169.375359 70.4541101 170.438719 69.4411927 171.540056 70.8994679 170.208822 79.0802018 168.61446 78.7556881 172.130737 78.4454312 175.485611 69.6265321 172.808222 67.730367 172.212794 67.9062018 172.040541 68.1044404 172.090047 68.3990826 172.083943M16.6330275 156.994809C15.8556881 157.441041 10.9424954 158.340285 10.2092844 157.002947 8.91666055 154.647008 16.1448991 155.123079 16.8903303 156.140324 15.8977798 155.58762 7.53238532 146.155725 10.6077982 145.643034 13.4293028 145.173745 15.600422 153.658924 16.7769541 155.419436 16.4578716 154.107868 13.1217615 142.289516 15.6085688 142.846288 18.6887339 143.536658 17.4938716 153.346969 17.4789358 155.80938 17.4293761 153.112324 18.3234862 148.239721 21.049945 146.829819 23.060844 149.317322 20.7709174 155.080354 18.3329908 156.441428 19.6215413 154.20688 24.6868073 152.183241 25.4322385 155.806667 25.8280367 157.731295 25.0710642 157.88456 23.4131927 158.011376 22.0146606 158.118526 17.510844 158.433872 16.8027523 157.16435"/>
      <path fill="#92C148" d="M29.7018349,164.963228 C28.7235413,164.972045 22.7994679,165.088689 22.7356514,163.526879 C22.6161651,160.625696 27.9896514,163.458384 28.813156,164.08026 C28.3195963,163.372257 23.4430642,156.478049 25.5361101,155.808702 C27.1871927,155.281091 30.1668807,161.903356 31.0827156,163.221027 C30.3223486,162.076287 26.808367,148.597791 31.3189725,151.905872 C33.9415596,153.829821 31.995156,159.869544 31.3814312,162.432323 C31.3766789,161.718895 34.369945,153.507015 36.5858716,154.869446 C38.8011193,156.231197 33.1547156,162.863635 31.914367,164.019903 C33.8078165,162.380104 38.0000183,160.575512 39.8140367,163.277314 C40.4990459,164.297272 40.7617798,167.467007 39.583211,167.972239 C39.0489174,166.153405 37.3822202,164.988999 35.5722752,164.792331 C33.7480734,164.594308 31.4065505,166.051002 29.8715596,164.793688"/>
      <path fill="#92C148" d="M43.2798165,172.083943 C41.2614495,172.370128 36.4208991,172.449473 35.3027523,170.218994 C33.9626055,167.547709 41.0021101,169.704268 42.2309174,170.408202 C42.2051193,168.080067 41.2600917,164.407135 43.1175596,162.546254 C43.8833578,164.610584 42.9498716,167.450732 42.2411009,169.516417 C42.630789,168.383884 44.6905688,161.092272 47.6451376,162.745634 C49.7252844,163.909363 46.1393394,170.141005 44.4923303,171.034825 C45.6946606,168.975921 56.3893578,164.467491 55.3377431,169.556429 C54.7090826,172.597313 47.9682936,171.310837 45.8324771,172.265013 C46.4692844,174.500239 48.3600183,176.615431 48.3471193,179.005956 C44.850789,179.579004 43.0720734,175.381852 42.940367,172.592566"/>
      <path fill="#92C148" d="M54.6513761,179.204658 C53.8292294,178.213862 48.1373394,173.628121 51.5046789,172.62783 C54.3662385,171.776735 55.6541101,176.628994 55.5006789,178.683151 C55.4409358,177.499756 56.5875963,168.608356 58.6412661,169.468267 C60.7465321,170.34988 57.3242018,177.580457 56.3669541,178.84591 C56.7193028,175.534438 61.7601284,170.836801 65.1593761,170.03589 C67.1485505,175.638875 61.7234679,177.328858 57.9263853,179.554591 C59.2556697,179.157865 73.0013394,179.269084 70.3841835,182.929809 C68.5226422,185.533957 59.7404037,181.622989 57.3547523,180.363639 C56.6819633,181.913243 57.5733578,184.02233 56.1870459,185.484451 C55.0030459,186.732949 54.3126055,186.37081 53.6316697,185.094507 C52.7762569,183.49065 53.6819083,179.47728 56.0091743,179.374199"/>
      <polyline fill="#9C9B9B" points=".234 158.746 53.862 189.674 53.714 203.736 .296 172.885 .234 158.746"/>
      <path fill="#E85740" d="M65.2971927 187.126284C66.5674128 186.37827 67.6095229 186.964203 67.6237798 188.436496 67.6387156 189.910144 66.620367 191.713381 65.348789 192.463429 64.0758532 193.214156 63.0330642 192.626189 63.0201651 191.150505 63.0065872 189.676178 64.0262936 187.874976 65.2971927 187.126284M78.0265505 180.09034C79.2967706 179.342325 80.3382018 179.928259 80.3531376 181.400551 80.3680734 182.8742 79.3497248 184.677436 78.0774679 185.427485 76.805211 186.178212 75.762422 185.590244 75.7495229 184.114561 75.735945 182.640234 76.7556514 180.839032 78.0265505 180.09034"/>
      <path fill="#2C2E33" d="M71.8865872 204.421483C73.7365872 203.336422 75.258 204.190908 75.2858349 206.330513 75.3129908 208.472153 73.8336697 211.09122 71.9809541 212.179672 70.1275596 213.268124 68.6041101 212.411604 68.5796697 210.267251 68.5545505 208.124255 70.0352294 205.507223 71.8865872 204.421483M97.9108257 191.762887C99.7608257 190.677147 101.282239 191.531633 101.310073 193.671238 101.337229 195.812878 99.8585872 198.431945 98.0058716 199.520397 96.1524771 200.609527 94.6290275 199.753007 94.6039083 197.607976 94.578789 195.46498 96.0601468 192.848626 97.9108257 191.762887M130.497982 173.678305C132.347982 172.593244 133.870073 173.447052 133.897229 175.587335 133.924385 177.728975 132.445743 180.347363 130.593028 181.435816 128.739633 182.524946 127.216183 181.668426 127.191064 179.524073 127.165945 177.381077 128.647303 174.764045 130.497982 173.678305"/>
      <path fill="#E85740" d="M90.8407706 173.054395C92.1109908 172.306381 93.1531009 172.892314 93.1673578 174.364607 93.1822936 175.838255 92.163945 177.641492 90.892367 178.39154 89.6194312 179.142267 88.5766422 178.5543 88.5630642 177.078616 88.5501651 175.604289 89.5698716 173.803087 90.8407706 173.054395M103.677394 165.515253C104.947615 164.767239 105.989046 165.353172 106.003982 166.825465 106.018917 168.299114 104.99989 170.10235 103.728312 170.852399 102.456055 171.603126 101.412587 171.015158 101.399688 169.539475 101.38611 168.065147 102.406495 166.263946 103.677394 165.515253M116.576477 157.885916C117.846697 157.137902 118.888128 157.723835 118.903064 159.196128 118.918 160.669776 117.899651 162.473013 116.627394 163.223061 115.354459 163.973788 114.312349 163.385821 114.298771 161.910137 114.285193 160.43581 115.305578 158.634608 116.576477 157.885916M129.47556 150.256579C130.74578 149.508564 131.787211 150.094498 131.802147 151.56679 131.817083 153.040439 130.798734 154.843675 129.526477 155.593724 128.253541 156.344451 127.211431 155.756483 127.197853 154.2808 127.184275 152.806473 128.204661 151.005271 129.47556 150.256579M142.374642 143.305405C143.644862 142.55739 144.686294 143.144002 144.701229 144.615616 144.716165 146.089265 143.697138 147.892501 142.42556 148.64255 141.153303 149.393277 140.110514 148.805309 140.096936 147.329626 140.084037 145.855299 141.103743 144.054097 142.374642 143.305405"/>
      <path stroke="#EC6D54" stroke-width=".72" d="M103.701835,168.184504 C109.617083,174.404618 110.489468,180.703399 107.257229,188.224909 C105.424881,192.487165 100.816514,194.519621 97.9875413,195.9892 C99.7126239,195.957327 100.376587,194.722391 101.911578,193.953354 C104.784679,192.513613 107.226,190.27364 109.626587,188.151667 C113.564881,184.669298 116.983138,178.859473 117.472624,173.585397 C117.865706,169.348911 116.831743,164.63025 116.600917,160.555167 M90.8658899,175.723646 C99.6481284,180.364318 106.300661,189.035314 97.7614679,196.328282 M142.399083,145.974655 C148.36389,152.036079 142.944917,158.810253 139.855248,165.72345 C137.477064,171.045675 134.023505,173.653213 130.348624,177.678791 C135.399633,171.17317 136.497413,158.643424 129.5,152.925829 M78.0516697,182.75959 C86.1706239,188.127253 78.8446239,202.474476 72.6422018,206.839814 M65.3223119,189.795535 C69.7745321,190.215318 74.3367339,194.129677 75.2742936,198.288852 C76.2573394,202.650799 74.0054312,205.133555 71.2844037,208.19614"/>
    </g>
  </g>
</svg>
