<svg xmlns="http://www.w3.org/2000/svg" width="335" height="230" viewBox="0 0 335 230" xmlns:xlink="http://www.w3.org/1999/xlink">
  <defs>
    <rect id="a" width="135" height="194" rx="4.615"/>
    <mask id="b" width="135" height="194" x="0" y="0" fill="white">
      <use xlink:href="#a"/>
    </mask>
  </defs>
  <g fill="none" fill-rule="evenodd">
    <path fill="#E85740" d="M134.577151,111.720903 C133.523266,111.720903 132.668923,110.86449 132.668923,109.808051 C132.668923,108.751613 133.523266,107.8952 134.577151,107.8952 C135.631036,107.8952 136.485379,108.751613 136.485379,109.808051 C136.485379,110.86449 135.631036,111.720903 134.577151,111.720903 Z M144.118291,111.720903 C143.064405,111.720903 142.210063,110.86449 142.210063,109.808051 C142.210063,108.751613 143.064405,107.8952 144.118291,107.8952 C145.172176,107.8952 146.026518,108.751613 146.026518,109.808051 C146.026518,110.86449 145.172176,111.720903 144.118291,111.720903 Z M153.65943,111.720903 C152.605545,111.720903 151.751202,110.86449 151.751202,109.808051 C151.751202,108.751613 152.605545,107.8952 153.65943,107.8952 C154.713315,107.8952 155.567658,108.751613 155.567658,109.808051 C155.567658,110.86449 154.713315,111.720903 153.65943,111.720903 Z M163.200569,111.720903 C162.146684,111.720903 161.292341,110.86449 161.292341,109.808051 C161.292341,108.751613 162.146684,107.8952 163.200569,107.8952 C164.254454,107.8952 165.108797,108.751613 165.108797,109.808051 C165.108797,110.86449 164.254454,111.720903 163.200569,111.720903 Z M172.741708,111.720903 C171.687823,111.720903 170.83348,110.86449 170.83348,109.808051 C170.83348,108.751613 171.687823,107.8952 172.741708,107.8952 C173.795593,107.8952 174.649936,108.751613 174.649936,109.808051 C174.649936,110.86449 173.795593,111.720903 172.741708,111.720903 Z M182.282847,111.720903 C181.228962,111.720903 180.37462,110.86449 180.37462,109.808051 C180.37462,108.751613 181.228962,107.8952 182.282847,107.8952 C183.336733,107.8952 184.191075,108.751613 184.191075,109.808051 C184.191075,110.86449 183.336733,111.720903 182.282847,111.720903 Z" transform="rotate(-30 158.43 109.808)"/>
    <polygon fill="#DBD9DB" points="136 183.562 80.684 152 0 198.343 56.188 230" style="mix-blend-mode:multiply"/>
    <g transform="translate(3 22)">
      <path fill="#2C2E33" d="M50.8028568,72.3899731 L50.8028568,94.2291307 L49.5411111,114.060371 L45.657626,146.396137 C45.657626,146.396137 50.4979895,152.619425 51.3149385,155.656093 C52.1312921,158.692163 46.2536654,159.091238 46.2536654,159.091238 C46.2536654,159.091238 38.3634382,152.071594 37.0242849,151.026115 C35.6845361,149.980636 39.5144313,105.838726 37.3017618,105.506562 C35.0890922,105.174398 34.6425093,150.876761 34.6425093,150.876761 C34.6425093,150.876761 37.1427782,157.642503 37.8299205,159.96944 C38.3753471,161.815457 33.9744212,163.551549 32.1172317,162.487551 C30.5351373,161.58127 26.8922115,157.684322 25.9252106,155.445205 C24.6319065,152.451551 24.668824,153.117073 23.7756581,152.071594 C22.8824923,151.026115 23.1802142,146.993554 23.1802142,146.993554 C23.1802142,146.993554 21.6362282,119.718503 22.2370311,111.695797 C22.5377303,107.68534 23.3665882,95.4012619 22.4632998,87.644406 C21.5594159,79.8881476 22.4632998,73.9904519 22.4632998,73.9904519 L41.4293789,74.1308448 L48.783111,67.7462546 L50.8028568,72.3899731 Z"/>
      <path fill="#EC6D54" d="M24.8176254,26.0665963 C24.8176254,26.0665963 26.6134842,24.8813219 29.3435945,24.3107892 C32.0737048,23.739659 37.9173912,25.7183025 37.9173912,25.7183025 L41.6014026,29.27771 L46.2839734,71.1888672 L46.4203301,72.3902718 C46.4203301,72.3902718 42.642834,75.966407 37.3386197,76.7490226 C35.8345284,76.9712615 29.1852064,75.9729786 29.1852064,75.9729786 L24.8176254,26.0665963 Z"/>
      <path fill="#ECF0F3" d="M26.2175736,25.2066152 C26.2175736,25.2066152 16.7994374,29.2075135 15.6722621,29.6950054 C13.3053726,30.717185 11.5315452,37.2278301 11.4249607,38.4119096 C11.3630346,39.0983411 11.0087455,52.7732048 10.5812167,63.1341992 C10.2715859,70.6371531 19.5545563,64.8619278 19.5545563,64.8619278 C19.5545563,64.8619278 18.4255947,108.433903 20.3798416,108.781599 C24.4080195,109.499096 33.2062986,110.410754 33.2062986,110.410754 C33.2062986,110.410754 35.6875133,79.6521681 35.1385141,59.5216216 C34.8908094,50.4343192 31.7093526,43.5066775 31.440212,42.5639543 C30.5738411,39.5326629 26.6010394,31.1975079 26.0687126,29.3138537 C25.5357903,27.4307969 26.2175736,25.2066152 26.2175736,25.2066152"/>
      <polygon fill="#D4D8DB" points="18.76 94.733 22.171 49.235 23.434 47.201 23.499 59.003 23.499 68.915 21.149 109.4"/>
      <path fill="#ECF0F3" d="M49.7259369,40.8150174 C49.7259369,40.8150174 53.9708565,95.6626316 53.6915933,99.137206 C53.4129255,102.61178 46.0830111,107.271032 46.0830111,107.271032 L41.4897569,57.9286105 C41.4897569,57.9286105 41.8559549,38.6589413 41.1813169,35.165847 C40.506679,31.6733501 38.5488595,28.3552989 37.7622781,27.3576133 C36.3951389,25.6245081 36.420743,24.9954285 36.420743,24.9954285 L44.2311806,26.7106113 L48.9232785,28.8786357 L55.7804105,39.0102222 L49.7259369,40.8150174 Z"/>
      <path fill="#ECF0F3" d="M55.7804105,39.0105209 L58.9565083,50.1618973 C58.9565083,50.1618973 59.6763999,67.1189673 59.1547911,68.0843924 C56.5747327,72.8637244 52.2077471,70.2751187 52.2077471,70.2751187 L50.2231326,66.49168 L47.2459131,46.7769354 L48.6350837,37.0193317 L55.7804105,39.0105209 Z"/>
      <path fill="#936A48" d="M47.0476302,57.331194 C47.0476302,57.331194 46.2533081,54.3441115 47.0476302,53.3482182 C47.841357,52.3529223 50.6202937,50.5606728 51.2157376,50.9585522 C51.8111815,51.357029 53.9940788,52.551862 53.9940788,52.551862 L48.4368009,57.9286105 L47.0476302,57.331194 Z"/>
      <path fill="#2C2E33" d="M40.0459245,66.2433937 L53.2808561,51.0947034 C53.3564775,51.0068832 53.461871,50.9495312 53.5767917,50.9328036 L69.3387872,48.7665713 C69.7907291,48.6990633 70.0801148,49.2343485 69.7776293,49.5778629 L55.8906867,63.9767955 C55.8192334,64.0580441 55.7227715,64.1130064 55.6167825,64.1333186 L40.5062027,67.0499059 C40.0489017,67.1377262 39.7386755,66.595272 40.0459245,66.2433937"/>
      <polygon fill="#6F6F6E" points="121.638 160.939 51.208 201.476 50.38 175.466 121.656 134.731"/>
      <polygon fill="#868686" points="7.779 150.605 51.5 176.017 51.371 201.392 7.833 176.047"/>
      <polygon fill="#B1B1B1" points="129.068 133.731 46.906 181.236 46.924 168.793 129.086 121.289"/>
      <polygon fill="#868C96" points="82.217 106.553 .054 154.058 .072 141.616 82.234 94.111"/>
      <polygon fill="#C6C6C5" points="47.035 168.849 129.346 121.169 82.311 93.923 0 141.603"/>
      <g fill="#683B11" transform="translate(8.932 97.379)">
        <path d="M69.7809043 6.61322145C67.3139802 5.18539601 67.3115984 2.86921223 69.773759 1.43839971 72.2388967.00639235657 76.2414706.00221044106 78.7125628 1.4306333 81.1848459 2.85965357 81.1866322 5.17942184 78.7167309 6.61083178 76.2486159 8.04104688 72.2484238 8.0416443 69.7809043 6.61322145M81.2763656 13.2845118C78.8094415 11.8566863 78.8070597 9.54050256 81.2698157 8.10969004 83.734358 6.67768269 87.7369319 6.67350077 90.2080241 8.10192363 92.6803072 9.5309439 92.6820935 11.8507122 90.2121922 13.2821221 87.7440772 14.7123372 83.7438851 14.7129346 81.2763656 13.2845118M91.9943558 19.4579152C89.5274317 18.0300898 89.5250499 15.713906 91.9878059 14.2830935 94.4523482 12.8510861 98.4549221 12.8469042 100.926014 14.275327 103.398297 15.7043473 103.400084 18.0241156 100.930182 19.4555255 98.4620674 20.8857406 94.4618753 20.886338 91.9943558 19.4579152M103.506073 25.7307885C101.039744 24.302963 101.036767 21.9867792 103.499523 20.5559667 105.964661 19.1239594 109.966639 19.1197775 112.437731 20.5482003 114.910014 21.9772206 114.911801 24.2969889 112.442495 25.7283988 109.973784 27.1586139 105.973592 27.1592113 103.506073 25.7307885M58.665753 13.0852734C56.1994244 11.6574479 56.1964471 9.34126416 58.6592031 7.91045164 61.1243409 6.47844428 65.1263193 6.47426237 67.5974115 7.90268522 70.0696946 9.33110808 70.0714809 11.6514738 67.6015796 13.0828837 65.1334646 14.5130988 61.1332725 14.5136962 58.665753 13.0852734M70.1612143 19.7566234C67.6948857 18.328798 67.6919084 16.0126142 70.1546644 14.5818017 72.6198022 13.1497944 76.6217806 13.1456124 79.0928728 14.5740353 81.5651559 16.0030556 81.5669422 18.3228238 79.0976364 19.7542338 76.6289259 21.1844489 72.6287338 21.1850463 70.1612143 19.7566234M80.8792045 25.9300269C78.4128759 24.5022014 78.4098986 22.1860176 80.8726546 20.7552051 83.3377924 19.3226004 87.3397708 19.3190159 89.810863 20.7474387 92.2831461 22.1758616 92.2849324 24.4962273 89.8156266 25.9276372 87.3469161 27.3578523 83.346724 27.3584497 80.8792045 25.9300269M92.3909214 32.2029001C89.9245928 30.7750747 89.922211 28.4588909 92.3843715 27.0280784 94.8495093 25.5954736 98.8520832 25.5918891 101.323175 27.020312 103.795458 28.4487348 103.796649 30.7691005 101.327343 32.2005105 98.8586331 33.6307256 94.8590364 33.631323 92.3909214 32.2029001M47.2034579 19.2087925C44.7371293 17.7809671 44.7341521 15.4647833 47.196908 14.0339708 49.6620458 12.6019634 53.6640242 12.5977815 56.1351164 14.0262044 58.6073995 15.4546272 58.6091858 17.7749929 56.1392845 19.2064028 53.6711696 20.636618 49.6709774 20.6372154 47.2034579 19.2087925M58.6989192 25.8801426C56.2325906 24.4523171 56.2296134 22.1361334 58.6923693 20.7053208 61.1575071 19.2733135 65.1594855 19.2691316 67.6305777 20.6975544 70.1028608 22.1265747 70.1046471 24.446343 67.6353413 25.8777529 65.1666309 27.307968 61.1664387 27.3085654 58.6989192 25.8801426M69.4169094 32.053546C66.9505808 30.6257206 66.9476036 28.3095368 69.4103595 26.8787243 71.8754973 25.4461195 75.8774757 25.442535 78.3485679 26.8709579 80.820851 28.2993807 80.8226373 30.6197464 78.3533315 32.0511563 75.8846211 33.4813714 71.8844289 33.4819689 69.4169094 32.053546M80.9286263 38.8240672C78.4622977 37.3962418 78.4599159 35.080058 80.9220765 33.6492455 83.3872142 32.2172381 87.3897881 32.2130562 89.8608803 33.6414791 92.3331634 35.0704993 92.3343543 37.3902676 89.8650484 38.8216775 87.396338 40.2518927 83.3967413 40.2524901 80.9286263 38.8240672M35.8900238 25.780374C33.4236952 24.3525486 33.420718 22.0363648 35.8834739 20.6055523 38.3486117 19.1735449 42.3505901 19.169363 44.8216823 20.5977859 47.2939654 22.0262087 47.2957517 24.3465744 44.8258504 25.7779844 42.3577355 27.2081995 38.3575433 27.2087969 35.8900238 25.780374M47.3854851 32.4517241C44.9191565 31.0238987 44.9161793 28.7077149 47.3789352 27.2769024 49.844073 25.844895 53.8460514 25.8407131 56.3171436 27.2691359 58.7894267 28.6981562 58.791213 31.0179245 56.3219072 32.4493344 53.8531968 33.8795495 49.8530046 33.880147 47.3854851 32.4517241M58.1034753 38.6251275C55.6371467 37.1973021 55.6341695 34.8811183 58.0969254 33.4503058 60.5620632 32.017701 64.5640416 32.0141165 67.0351338 33.4425394 69.5074169 34.8709622 69.5092032 37.1913279 67.0398974 38.6227379 64.571187 40.052953 60.5709948 40.0535504 58.1034753 38.6251275M69.6151922 45.3956487C67.1488636 43.9678233 67.1464818 41.6516395 69.6086424 40.220827 72.0737801 38.7888196 76.076354 38.7846377 78.5474462 40.2130606 81.0197293 41.6420808 81.0209202 43.9618491 78.5516143 45.3932591 76.0829039 46.8234742 72.0833072 46.8240716 69.6151922 45.3956487M25.0231726 32.5013097C22.556844 31.0734842 22.5538668 28.7573005 25.0166228 27.3264879 27.4811651 25.8944806 31.483739 25.8902987 33.9548311 27.3187215 36.4271142 28.7471444 36.4289005 31.0675101 33.9589992 32.49892 31.4908843 33.9291351 27.4906922 33.9297325 25.0231726 32.5013097M36.5186339 39.1726597C34.0523053 37.7448343 34.0493281 35.4286505 36.5120841 33.997838 38.9772218 32.5658307 42.9792003 32.5616487 45.4502924 33.9900716 47.9225755 35.4190919 47.9243618 37.7388601 45.455056 39.1702701 42.9863456 40.6004852 38.9861535 40.6010826 36.5186339 39.1726597M47.2366241 45.3460632C44.7702955 43.9182377 44.7673183 41.6020539 47.2300743 40.1712414 49.695212 38.7386367 53.6971905 38.7350522 56.1682826 40.163475 58.6405657 41.5918979 58.6423521 43.9122636 56.1730462 45.3436735 53.7043358 46.7738886 49.7041437 46.774486 47.2366241 45.3460632M58.7483411 52.1165844C56.2820124 50.6887589 56.2796307 48.3725752 58.7417912 46.9417626 61.2069289 45.5097553 65.2095028 45.5055734 67.680595 46.9339962 70.1528781 48.3630165 70.154069 50.6827848 67.6847631 52.1141947 65.2160527 53.5444098 61.216456 53.5450072 58.7483411 52.1165844M13.2631556 38.9235371C10.796827 37.4957116 10.7938498 35.1795278 13.2566057 33.7487153 15.721148 32.316708 19.7237219 32.3125261 22.1948141 33.7409489 24.6676926 35.1693718 24.6688835 37.4897375 22.1989822 38.9211474 19.7308673 40.3513625 15.7306751 40.3519599 13.2631556 38.9235371M24.7586169 45.5948871C22.2922883 44.1670617 22.2893111 41.8508779 24.752067 40.4200654 27.2166093 38.988058 31.2191832 38.9838761 33.6902754 40.412299 36.1625585 41.8413193 36.1643448 44.1610875 33.695039 45.5924975 31.2263286 47.0227126 27.2261364 47.02331 24.7586169 45.5948871M35.4766071 51.7682905C33.0102785 50.3404651 33.0073013 48.0242813 35.4700572 46.5934688 37.935195 45.160864 41.9371734 45.1572795 44.4082656 46.5857024 46.8805487 48.0141253 46.882335 50.3344909 44.4130292 51.7659009 41.9443188 53.196116 37.9441266 53.1967134 35.4766071 51.7682905M46.988324 58.5388118C44.5219954 57.1109863 44.5196136 54.7948025 46.9817742 53.36399 49.4469119 51.9319827 53.4494858 51.9278008 55.920578 53.3562236 58.3928611 54.7852439 58.3940519 57.1050122 55.9247461 58.5364221 53.4560357 59.9666372 49.456439 59.9672346 46.988324 58.5388118M2.09858248 45.3457644C-.367746153 43.917939-.370723372 41.6017552 2.0920326 40.1709427 4.5565749 38.7389354 8.5591488 38.7347534 11.030241 40.1631763 13.5031195 41.5915992 13.5043104 43.9119648 11.0344091 45.3433748 8.56629413 46.7735899 4.566102 46.7741873 2.09858248 45.3457644M13.5940438 52.0171145C11.1277152 50.5892891 11.1247379 48.2731053 13.5874939 46.8422928 16.0520362 45.4102854 20.0546101 45.4061035 22.5257023 46.8345264 24.9985808 48.2635466 24.9997717 50.5833149 22.5298704 52.0147249 20.0617554 53.44494 16.0615633 53.4455374 13.5940438 52.0171145M24.312034 58.1905179C21.8457054 56.7626925 21.8427281 54.4465087 24.3054841 53.0156962 26.7700264 51.5830914 30.7726003 51.5795069 33.2436925 53.0079298 35.7159756 54.4363526 35.7177619 56.7567183 33.248456 58.1881283 30.7797456 59.6183434 26.7795535 59.6189408 24.312034 58.1905179M35.8237509 64.9610391C33.3574223 63.5332137 33.3550405 61.2170299 35.817201 59.7862174 38.2823388 58.3542101 42.2849127 58.3500281 44.7560049 59.778451 47.2282879 61.2074713 47.2294788 63.5272395 44.760173 64.9586495 42.2914626 66.3888646 38.2918659 66.389462 35.8237509 64.9610391"/>
      </g>
      <g fill="#92C148" transform="translate(8.336 88.418)">
        <path d="M99.9845579 20.5337428C100.979545 19.10532 102.383601 17.6918325 102.859957 15.9748575 103.167801 14.8660525 103.490532 13.1616232 102.926646 12.082689 102.525317 11.3126191 101.914987 10.8227376 101.247494 11.2988785 100.959895 11.5037924 100.721122 12.0892606 100.523435 12.3933456 99.9839625 13.2207674 99.171777 14.2196478 98.8490464 15.1743194 98.3887683 16.5340394 98.3881728 18.0676075 97.9499261 19.4703415 97.685549 20.3174781 97.4497533 21.1950829 97.2181256 22.0750774 97.2544477 21.0857557 97.272311 20.0767192 97.3521005 19.2642328 97.4932207 17.8184848 97.5962325 15.9945723 97.3860408 14.5649546 97.1567949 13.0074897 96.7161664 12.7649386 95.680094 13.6359719 96.2243297 15.4730276 96.4893022 17.4480866 96.3874813 19.3622091 96.322578 20.5922896 96.7364115 22.0004003 96.8566911 23.4264335 96.7405796 23.863145 96.619109 24.2932849 96.4958521 24.7216325 95.0560688 23.6008791 94.7589423 19.8479087 92.6635752 19.7535169 90.8945114 19.6740605 93.0166734 22.3032905 93.4251479 22.8069126 94.2712737 23.848807 95.2740012 24.6833978 96.2541019 25.5502492 96.2493384 25.5687691 96.2541019 25.5747433 96.2618427 25.5568208 96.3690226 25.6512126 96.4488121 26.130938 96.9430305 26.173952 97.2342026 26.0753783 97.436058 25.8393988 97.7724838 25.7569553 98.073183 25.6828757 98.6394502 25.8585161 98.9711124 25.8895818 99.882737 25.9750123 101.555339 26.1422889 102.1877 25.3071007 102.977854 24.2628166 101.642274 23.6916865 100.747322 23.6259706 99.5891832 23.5411375 98.4113952 24.0650718 97.5366881 24.8889091 97.8094014 24.4420416 98.0588924 23.9760567 98.3018335 23.5901257 98.9187134 22.6091678 99.3212334 21.4866221 99.9845579 20.5337428M107.817801 31.3301344C107.051465 29.6430302 105.178198 28.5001724 104.761983 26.728235 104.473788 25.501739 104.685766 23.6168899 106.379804 25.0088704 107.549256 25.9701135 107.018715 27.5520724 107.115773 28.7946987 107.17234 29.5187675 107.32001 30.2625511 107.41409 31.0051398 107.476016 28.9942358 107.767188 26.9976699 107.8833 24.9909479 107.96428 23.6067338 107.911286 22.3372238 108.267957 20.9864651 108.524593 20.0126762 108.719303 18.6589304 109.515412 17.9659272 113.703169 21.7559375 106.582255 27.1177506 107.906522 31.4018243 108.779443 28.8628042 109.830401 26.7849896 112.503945 25.9408401 113.448319 28.5037569 109.901855 29.9668299 108.385855 31.5302689 110.961745 31.279354 112.770108 32.9861729 113.425692 35.2551608 113.742468 36.3532123 113.769858 37.3909248 113.775813 38.508691 109.982835 37.919041 111.011167 32.8129221 108.016679 31.6288426M61.8197598 18.5854481C60.135249 17.5543073 58.2173242 16.6091943 56.7310962 15.3002548 56.3690663 14.9818318 55.4622053 14.2679191 55.6622744 13.6555672 56.2059147 11.9947493 59.0432049 14.9573377 59.5671955 15.5977682 59.646985 15.3098135 59.7357061 14.9250772 59.8506268 14.6144206 61.0855775 14.7446574 61.7280614 16.4000986 62.4741526 17.2442481 61.9025265 14.8593614 60.9486254 12.2540281 60.7408154 9.82373772 60.6336355 8.56617599 61.2189569 8.31107914 62.3735226 9.29741379 63.6185958 10.36201 64.1872447 13.5659547 64.2134443 15.1114712 64.2336894 16.3200448 63.9847938 17.0566593 63.0957961 17.7813255 65.1756816 17.8679509 65.8211428 16.3887477 65.9467815 14.6197974 65.9896534 14.0092377 65.6824044 12.1626233 66.0301436 11.6864824 66.7744485 10.6684847 67.6396285 12.18652 67.9480684 12.8257556 68.563162 14.1018373 68.859693 15.3713474 68.3708336 16.6946249 67.5568618 18.9002866 65.7318262 18.3721704 63.8127105 18.2078809 64.296211 18.7527248 64.7880476 19.0532253 65.0744561 19.7838656 65.2852433 20.3227353 65.718131 22.4841882 64.9410767 22.8641451 63.4405581 23.5971752 62.4586711 19.8866213 62.31636 18.9839249M73.530355 24.659083C73.1331939 22.9170165 71.8381034 21.3625387 70.8615754 19.8952838 70.5882667 19.4848587 68.3279616 16.9547998 68.7578721 16.2928623 69.3777292 15.3405804 72.5621632 19.8743742 72.8122496 20.2644872 73.7203016 21.6803643 73.7280424 23.0538249 73.7292332 24.6620701 73.673857 23.5938894 74.4967604 16.1936912 76.1157724 16.678196 77.5823507 17.1172971 76.9041401 21.6062847 76.7076436 22.4468497 76.5135289 23.277856 76.3170324 24.4308699 75.6144086 24.970337 75.4572114 24.9542067 75.1076859 24.8448795 74.9862153 24.7719947 75.5524825 24.1106546 83.741027 21.3601491 82.9669499 24.8084371 81.1752592 25.7553423 79.373446 24.8574253 77.5150656 24.8574253 76.8118463 24.8568279 76.2783286 25.0462089 75.6239357 25.1692767 76.072305 26.2834585 77.2334206 27.9418867 77.0946822 29.2281244 75.2357063 29.7341362 75.0392098 25.8485393 74.4437659 24.9506222 74.5420142 25.4727643 74.363381 25.678873 73.9953967 25.9477104 73.2874139 26.4656705 70.9425558 26.4429687 70.0094952 26.5654391 68.2428131 26.7978341 68.0367896 25.9166447 68.0558438 24.2211767 69.4616868 23.4815751 71.4683327 24.4810529 72.9462245 24.6525114 73.4755741 24.7134479 74.0418413 24.6955254 74.52296 24.8580227M84.9432282 31.4299029C84.7235094 29.7983585 83.6523058 29.4207912 82.7311541 28.3257268 82.4376003 27.9768355 81.2365899 26.152923 81.8207204 25.7574332 83.2479994 24.7908133 85.083753 30.4483476 85.0426673 31.2190149 84.8699886 29.2989183 85.7923312 22.6974659 88.0955082 21.7834187 89.026187 23.5583431 87.9549835 27.2593383 87.3273856 29.1603176 87.0326409 30.0552475 86.5908215 30.910748 86.0138363 31.6384013 85.9441694 29.912465 89.2274471 27.2157269 90.8863538 26.431319 91.8521638 25.9748928 92.9317036 25.7144192 92.7953469 27.0956462 92.5273972 29.8001507 88.2009018 30.4441657 86.32049 31.8176262 87.248787 31.0314261 93.5217885 29.3192304 93.5718058 31.8815498 93.5884782 32.7119587 87.1076668 32.4664205 85.9405967 32.1336596 85.7363595 32.0757102 85.6005983 31.7907425 85.3927884 31.7321957 84.7526862 31.5517759 83.8934606 31.7614691 83.2307316 31.6706618 82.6835186 31.5959847 79.457999 31.186157 79.4478765 30.3545532 79.4264405 28.6310066 82.9109782 29.4769484 83.7511495 30.1030409 84.1739147 30.4178794 84.5174858 30.8922281 84.9432282 31.1311947M96.1572232 38.0014844C96.1822318 37.3789764 93.7950972 30.760199 95.2640573 30.9424111 96.1387644 31.0505434 97.8071982 36.8944717 97.4475501 37.6167482 96.886642 36.4637344 97.8018392 34.5018186 98.1281425 33.3344667 98.4068102 32.3361837 98.4598047 30.1872766 99.375002 29.4972605 99.906138 29.0963941 103.005423 28.8090367 103.2829 29.3980894 103.918834 30.75303 100.765959 31.572088 100.22351 32.352314 99.3708339 33.5782127 99.566735 37.7021788 97.4600544 37.7911938 97.3439429 36.2845094 101.14228 35.3489552 102.184306 35.1631586 103.573477 34.9152308 105.222857 35.0544288 106.314305 35.9929702 104.450566 38.4226631 99.1802919 37.5122003 96.5793929 37.7206987 97.8244661 38.4710538 101.485255 39.0857954 101.290545 41.1468823 101.141089 42.7288412 98.1454104 41.6254129 97.4844676 40.7645358 96.6931227 39.7327975 96.6937181 38.5391593 95.5754745 37.9029107 95.5397479 37.8825985 94.391732 37.6932175 94.6257415 37.7529592 93.8373737 37.5510324 93.1651176 36.9864738 92.3636501 36.8180023 91.928976 36.7265976 91.5889776 36.5862047 91.2150388 36.8783414 93.3110013 35.0568185 94.2839567 37.3526901 96.0577841 37.6030076M51.2012087 26.0531544C49.6125644 25.533402 48.0137975 25.097288 46.427535 24.5548338 45.6117768 24.2758403 43.593222 24.0338866 43.9522747 22.6741667 44.3958804 20.9990108 47.2843787 22.6383217 48.3204511 22.9639137 49.946013 23.4741074 50.6563776 24.0906412 51.1160602 25.7598229 50.805834 24.3152698 50.5408614 22.9388222 50.1061874 21.5187632 49.6887812 20.1506794 48.7313074 18.3440919 48.6961762 16.9670468 51.2071632 18.3339358 51.6995953 22.9961742 51.6031334 25.5339995 51.2375308 24.3230362 50.9892307 20.7074715 52.0669842 19.7701251 52.5516755 20.9446459 52.8083118 24.8917767 51.9687359 25.9581652 51.6823274 24.929414 53.0149308 15.9878812 55.6467929 16.9975151 57.2556823 17.6146463 56.6703609 22.0761528 56.1040938 23.2351408 55.3984928 24.6814861 54.1623512 25.4354257 52.7767533 26.0143223 54.2278501 25.6803665 57.5295865 27.9397957 56.0159681 29.2457482 54.473173 30.5761947 51.405446 27.6458668 51.1017696 26.152923M62.8123648 32.4254975C62.1222453 31.5389314 57.5754357 30.7055354 57.74216 29.4826238 57.9493744 27.9627962 62.3723317 30.6720801 62.8266554 31.5048787 62.0716326 30.4809068 61.6024228 29.0787703 61.3362593 27.8755734 62.5092838 28.8864022 62.9338353 29.9438294 62.915972 31.5114503 62.5104747 29.8255409 62.3503003 27.9771342 62.6587402 26.2679256 62.7748518 25.6298848 62.8754818 24.2713597 63.5977553 24.0425492 64.6171552 25.8198633 65.5609338 28.2340233 65.1965221 30.2825645 65.0690972 30.9976721 64.6832495 32.8114286 63.8192604 32.9028333 63.6352682 31.5060735 65.8473423 28.3057133 67.3288068 28.4413269 67.9623591 28.4986789 67.8134981 28.5578231 67.9826042 29.0990824 68.6060339 31.0962458 66.1605458 32.4989797 64.7517256 33.1627095 66.0057304 32.776181 66.7315765 33.4584306 67.3127298 34.5493132 67.7021501 35.2811484 68.4160873 36.5781396 67.5080354 37.0381503 66.6124877 37.4915894 63.7168441 34.8372679 63.1202093 34.107225 62.6652901 33.5516276 62.2401432 32.7851422 62.3312461 32.0425535 62.433067 32.0162672 62.5086884 32.0335923 62.614082 32.0270207M73.4309158 37.9017159C72.6889927 37.3222219 69.6194794 35.6960542 70.6448338 34.13381 71.9351608 32.1706994 73.7828232 36.9327063 74.3913669 37.6018128 73.4315113 36.4362532 73.524996 33.8345043 73.5309504 32.3403657 73.5321413 32.0512161 73.2772913 30.2219267 73.9733652 30.5845586 74.8224682 31.0272442 74.8165138 34.1415764 74.8212774 34.8799832 74.8296136 36.0957258 74.7998414 37.2827924 75.0225374 38.4794176 74.9588249 36.3245363 75.3786128 31.3803173 78.1980397 30.8199407 78.9328175 32.0613722 78.2557978 33.2185679 77.4281307 34.1833956 76.311078 35.4869584 75.610836 36.8185998 74.7194564 38.2607632 74.8278272 36.9560056 76.7088345 35.053234 77.8830499 34.4498433 78.7821702 33.9868455 81.4569042 33.5656669 82.3673379 34.1750317 83.1229562 34.6798487 84.0000451 36.6877655 83.9345462 37.5856825 83.2837261 37.8431691 82.7746215 37.6543854 82.2339585 37.2624802 81.2199175 36.5264631 80.8620557 36.090349 79.4448992 35.9977495 78.449317 35.9338259 77.4715982 36.0479325 76.7064527 36.70987 76.0181196 37.3054942 75.684671 38.3097513 74.6462168 38.5033143 76.4134943 37.9124694 78.3445189 39.925763 78.7875292 41.4659027 77.7990923 41.8112095 76.2300976 41.6033085 75.2994188 41.0931148 74.1639073 40.4706068 74.076377 39.0977437 73.5506001 38.0307578 73.482124 39.2297728 70.669247 39.0344176 69.8534889 38.9884165 69.9898455 36.6316084 71.8244082 37.196167 73.232633 37.6030076"/>
        <path d="M85.5386721 44.8717742C85.1248386 44.1285881 82.2238359 38.0785512 83.995877 38.0038741 85.4737687 37.9411454 85.7018237 42.9200145 85.9411922 43.8627377 85.7833996 42.6971781 86.7962496 40.0984164 87.4667195 39.1951226 88.0585907 38.3975716 88.86244 38.1878784 89.8145548 37.9967051 90.321873 39.5254939 89.142894 40.8583301 88.2527054 41.9862525 87.652498 42.7467637 87.1314845 43.7127862 86.5140092 44.393841 87.3375081 42.4970436 91.0518872 42.6780608 92.6697083 42.9283783 93.4384263 43.0466668 96.1334054 43.4869627 96.4603041 44.4948044 97.0509845 46.318717 91.9897113 45.4584372 90.89469 45.3078882 90.0056922 45.1860153 87.1666157 44.1429261 86.8349535 45.6400518 86.5348498 46.9914079 88.6200943 49.2400837 86.3425214 50.1624947 85.5243815 48.7860471 85.5595126 46.9770699 85.5309313 45.4046697 84.786031 45.2983296 78.3064105 45.9280066 79.7837068 43.975052 81.2848209 41.9904344 83.9125148 45.0569733 85.6256069 44.858631 85.6196525 44.6973286 85.6089345 44.4290886 85.5386721 44.2743577M40.1854966 32.0273194C39.3512797 30.7518352 34.7711252 29.7744618 35.4148 27.5204093 36.0263209 25.379866 39.4263056 30.8115768 39.9991226 31.4107856 39.5328901 29.8670613 39.1643103 28.2438807 38.8022804 26.6720779 38.5932796 25.7675893 38.0192717 23.5667069 38.9946088 22.8067931 40.0926073 21.9512927 40.6963874 24.4795593 40.9018156 25.4390102 41.2078737 26.8722124 41.7128102 29.7081486 41.1578565 31.1341817 39.8383528 30.0779494 41.0655627 25.7191986 41.4823734 24.2435798 41.6788699 23.5469922 41.8688165 22.4901624 42.4511606 22.0343336 43.9242888 24.6904474 43.9189298 29.0235092 42.0313727 31.5302689 43.0055189 29.6627449 45.8517407 28.4057806 47.8053922 29.4184016 48.3889272 29.7212917 49.1897992 30.2685252 49.1034599 30.9943863 48.5342155 31.0971419 47.8643411 30.8169536 47.2569883 30.817551 46.1935255 30.8181484 44.9698883 30.8999945 43.9171435 31.0296339 43.1502117 31.1234283 42.6244348 31.7644562 41.8914433 31.7399621 42.6297938 32.1611407 45.2134249 36.1799615 43.2990727 36.0108926 42.0718628 35.9021628 41.9623012 33.8864796 41.3930568 33.1002795 41.1310615 32.7382451 40.5272814 32.3505217 40.3837794 32.127088M51.8960918 38.997079C50.1127373 38.4361049 48.9528126 38.2664386 47.0896686 38.8775957 46.3292867 39.126121 45.4641067 39.5634299 45.9345074 37.9623537 46.5365012 35.9114228 50.725449 36.8188985 51.6614869 38.3793504 51.1136785 37.4742644 50.3431741 31.3411866 52.265267 31.3411866 53.0089764 33.5157826 52.0485254 35.4585811 52.1926228 37.6015141 52.0925882 36.5805293 54.1778328 30.7855892 56.3678754 31.9182909 57.4724239 32.4900185 56.4309925 34.275099 55.9206971 34.7978384 54.8465163 35.89589 53.676469 37.0865411 52.5492937 38.0884085 54.5374809 36.0111914 57.9374656 35.2769665 60.7164022 35.2243938 61.8340504 35.2028868 62.1758352 35.2136403 62.7164983 36.1115573 63.0332745 36.6366864 63.3155149 37.2878704 62.8957269 37.8124021 61.887045 39.0711587 57.4396745 38.5352761 55.8557937 38.5932255 55.1061298 38.6207066 53.7270817 39.0610026 53.1322333 38.4205721 53.9342962 39.1577841 55.5253223 41.4733704 54.3570614 42.2834672 52.4790313 43.5852378 50.8939597 39.8573588 51.4989307 38.5986022"/>
        <path d="M62.614082 44.4732974C61.5607417 43.7181629 59.9369662 42.5627594 60.2263519 41.0524905 60.851568 37.7911938 63.748998 42.730036 64.2884702 43.7665537 63.239298 42.8674418 64.025284 37.2983252 65.3930186 36.6817914 66.2427171 38.3055694 66.5100714 42.5143687 65.1161372 43.9804288 64.6665771 41.8171836 69.5533852 39.3343206 70.0982163 41.3768877 70.4429784 42.6690996 65.7883934 43.756995 64.8065064 44.0819896 66.7696849 43.8758809 70.218496 43.331037 71.9696965 44.719433 72.8521444 45.4190077 72.6562433 45.8168871 71.8565622 46.1161928 70.2881629 46.7034532 68.0028493 46.1496481 66.5094759 45.6520001 65.8431742 45.4303586 64.800552 45.3335772 64.3343194 44.7702134 64.7380303 45.5175814 66.2212811 49.0925218 64.242621 48.8571397 63.0106476 48.7107726 62.390195 45.5444652 62.5223836 44.3932436 62.8111739 44.3824901 62.8975133 44.1393416 63.1100867 44.0748206M73.7286378 51.1446475C73.0385183 51.1046206 71.0336587 48.3744271 72.0369817 47.7298147 73.0605497 47.073254 74.3860079 50.7228714 74.6241854 51.2712998 74.5140283 49.4969728 74.1055538 45.7457945 76.2271204 44.748109 77.0577646 46.1627913 77.7603884 50.9719941 75.7245657 51.8364558 75.9365438 50.8178606 80.2451758 47.9634046 80.7816708 50.128442 81.0525978 51.2235064 78.0432243 51.8663266 77.1929304 52.2104385 78.2135213 52.2313481 80.477399 54.8313047 79.5937602 56.045255 78.6547452 57.333285 77.441826 54.9830485 77.0017929 54.2297063 76.3724087 53.1525643 75.7257566 52.8102447 74.6158492 52.2546473 74.0888814 51.9905892 73.2177469 51.9326398 73.7286378 51.0448789M28.8226406 39.0965489C28.1998063 38.9471948 27.6323483 38.5278084 26.9458014 38.3539602 25.5119725 37.9907309 23.6541876 38.5176523 22.5091489 37.3228193 21.3748283 36.1381424 21.9381182 35.8943964 23.4743635 36.0395686 24.8212576 36.1674158 27.9693695 36.7003113 28.3915392 38.3211023 27.5835219 37.1364253 21.261694 31.0439719 22.2810939 29.2391766 23.6512103 26.8124708 25.9889231 31.6407909 26.2241234 32.3756132 26.8523168 34.337529 27.2911589 36.305419 28.1027489 38.1968396 27.78895 37.2505319 26.7254872 25.3589564 28.3188951 25.823149 29.7961914 26.2532889 29.5711136 31.0320235 29.5681364 31.9610062 29.5615865 33.9133633 29.8872943 36.2653921 29.3132864 38.0785512 28.1777749 34.4779219 30.3130367 30.098859 32.278597 27.1058023 33.441499 28.5348225 34.0786239 32.0046176 33.3057377 33.7162159 32.5108201 35.47501 30.3529314 36.3998108 29.5669455 38.1454618 31.0305466 37.6926201 35.8363743 36.0789981 36.4211002 38.8062045 36.8998371 41.0429318 27.3399853 41.228131 27.3340309 38.9471948M40.5826576 45.220068C39.1714556 44.0455472 36.1918543 42.9570543 36.4377727 40.7627435 38.4277462 40.619961 40.8750206 42.3124419 41.422829 44.1853426 40.4820276 41.127765 38.9981814 36.0055159 40.7720088 32.9760168 42.3070632 35.8585514 41.5181 40.337383 41.4692736 43.5658217 41.4841597 41.0955045 43.5854812 36.29825 45.9303393 35.3065386 46.0768185 37.196167 45.8809175 39.8116564 44.9395207 41.5172805 44.2106973 42.8387658 42.9924191 43.2085667 41.9361016 44.1602511 43.6634844 44.1727969 48.0388062 41.6367638 49.7137899 43.3919735 50.0365205 43.7301113 50.4098638 44.3920487 49.9573264 44.8538517 49.4273813 45.3945136 47.8518368 44.7487064 47.1980394 44.6961337 45.7642105 44.5802349 44.2845324 44.6101058 42.8304584 44.6298205 45.1241083 43.7844762 48.7807293 47.0792282 48.4484716 49.5393893 46.5347149 49.5573118 46.1970982 46.8181572 45.0490823 45.8121078 44.1779479 45.0486095 42.2373962 44.7726031 41.6246845 44.3239433"/>
        <path d="M51.5983698 51.194233C49.8858731 50.4516443 46.9354486 50.2825755 44.9186801 50.1302342 44.2869142 47.9484692 50.1413186 49.4647123 51.1321372 50.7085334 50.5789698 49.3440341 48.6783129 45.6699226 50.7016313 44.7558754 51.4917853 46.5218386 51.9979127 48.6229524 52.0562662 50.5663483 51.1702456 48.0464455 52.3117116 44.8861122 52.9297824 42.3948854 53.2298861 41.185117 53.2453676 38.2960108 54.69051 37.8897675 55.8819932 40.8947725 54.4529279 47.8062841 52.2122725 50.2825755 52.1390329 48.5871074 54.9334511 45.1513651 56.4953004 44.5921833 57.4188339 44.2618119 58.9824696 44.558728 59.8137093 45.0748958 60.697348 45.624519 61.5535964 46.9579526 61.4005673 48.0350946 60.0411689 48.2728663 59.5380188 46.6705953 58.2994955 46.4340183 55.9147426 45.978787 54.3725429 48.5757565 52.9488366 49.8309286 54.4529279 48.9969351 60.5961226 51.1518165 59.0961994 52.9255461 57.8136132 54.4411917 50.5789698 52.6077205 51.8960918 50.1487542M63.2095259 58.6619393C60.7658241 57.2735434 58.4930147 62.248828 56.9204474 61.6520089 55.5402084 61.1274772 56.3905023 59.8651361 56.9460515 59.3316432 58.4560972 57.8835056 61.0028108 57.7538662 62.8689319 58.3769716 60.4859655 57.0907339 59.7517831 55.6270635 59.3349724 52.8239852 61.7197252 52.8562457 63.7722203 55.176014 63.9645487 57.4635218 63.5519061 55.3671873 62.3366051 50.3596422 64.5832149 48.8183076 66.312384 51.21574 66.4654131 56.066762 64.8333014 58.6410297 64.1747404 57.1056693 65.8902143 48.5608211 68.9263827 50.6565582 70.0297403 51.4182642 69.814785 52.604136 69.3884472 53.7189152 68.7959805 55.2662239 66.8780557 58.4229727 65.4483949 59.2533816 66.7667077 56.8702872 73.9852741 57.6887478 73.6059764 61.1776602 71.6326753 61.1836344 70.0196177 59.8609542 68.0617982 59.7044311 66.3558514 59.5676227 64.7017083 60.1471167 63.3583868 58.8112934M17.3603455 44.9213598C16.0688277 44.8723716 10.5859803 46.5803854 10.3573298 45.220068 9.98458195 43.005445 16.3290367 45.7051702 17.5002749 45.6382596 16.4927838 44.7809669 15.02561 44.2606171 14.0318141 43.2497884 12.5568996 41.7508704 11.5785853 39.7686424 10.6604108 37.9238203 12.552136 37.5396815 17.0203471 42.0352406 17.228157 44.0162738 16.3022417 41.8494441 14.754683 35.6781317 16.0176195 33.2669587 16.75597 31.8570557 17.9010086 32.1963883 17.811692 33.9438316 17.7563157 35.0365063 16.7256023 35.7038206 16.6118726 36.8006773 16.3504727 39.3343206 18.522652 41.8094172 18.5238429 44.336489 17.2948467 41.9085884 17.9147038 37.768492 20.7460396 36.6919475 21.5808519 38.4764305 20.8163019 39.7507199 20.0940285 41.3219253 21.5242847 40.7836531 25.7852813 40.9873721 24.5080541 43.2456065 23.9102284 44.3018389 17.912322 47.5918115 17.9557894 44.9213598M29.7158065 52.6877743C28.7130789 51.9732642 26.3354714 45.1352349 28.7892958 45.2332112 29.7080657 47.1915425 29.9527931 49.5334152 30.3106549 51.6255677 30.3261365 49.1200029 30.2338427 45.0366612 31.7921194 42.9546646 33.5903599 44.3113975 32.5906096 50.1176885 31.0841366 51.6464773 30.5661004 49.1821343 37.2928301 45.2296267 36.1728001 48.9288297 35.3921732 51.5078767 32.0106473 50.8280167 30.7697422 52.5384202 32.4840252 53.6245234 33.2289255 54.7823165 32.9681211 56.9658739 31.4521209 57.4354432 29.5062102 52.8980649 29.7158065 52.5384202"/>
        <path d="M39.6894918 57.7658145C38.8904061 57.5292376 34.0554016 54.2619668 34.2042626 53.0091844 35.9786854 52.7941144 38.9070785 55.7674564 39.241718 57.4473916 39.3703339 55.9902927 37.0159487 47.8827534 39.0910707 47.0266555 40.2700496 49.4491794 39.9389828 52.264206 40.0610488 54.8814877 40.0943937 55.5900236 40.3700842 56.3678599 39.8693159 56.8696898 39.5638531 55.2948999 40.6195752 51.7916495 41.5699036 50.4594107 42.3737529 49.3326832 43.6759887 49.0608587 45.0276464 48.9539212 45.9702341 51.409303 43.476515 53.4691951 42.0986578 55.3671873 41.5901487 56.0673594 40.9947048 56.5733712 40.2944628 57.0734088 40.7148462 53.6872521 43.3979164 54.2715254 45.6856119 54.8581884 46.2322294 54.9979839 50.4777444 55.9054596 48.8450372 57.3936241 48.2019578 57.9796897 45.7147886 56.1229192 44.6382261 56.1420365 43.0424364 56.1701151 41.7878361 57.4898081 40.3254259 57.4677037 41.4633192 57.4306639 44.002292 61.3927301 42.3898299 62.1544362 41.1471385 62.7410992 39.092857 58.0495874 39.2429089 57.168398M51.4495088 65.0841667C49.3148424 65.4814487 48.4877709 67.2623473 46.1131406 67.1524226 45.6224948 64.7639514 50.8302472 64.2872131 52.2992073 64.0207653 51.3667421 64.5202055 49.2624434 64.2639138 48.2811518 63.747746 47.7309617 63.4585964 46.0321602 61.8634943 46.3745405 61.1250875 47.1855351 59.3746572 50.6289871 63.2632412 51.452486 63.7268364 51.0106667 62.524237 49.5536154 57.6080966 52.1628506 57.7759706 52.5784705 59.7564063 52.2485945 61.7595439 52.1813094 63.7447589 52.8339159 59.9189036 54.9924 57.7640223 58.4257296 56.0255403 58.8264633 58.381751 56.5447223 60.3514332 54.9483372 61.693828 53.9325099 62.5487311 53.2519175 63.4854801 52.3635152 64.4556845 53.6425287 63.2829559 60.8176277 61.8784297 60.5330055 64.9766317 60.2614831 67.9320512 52.5266668 65.5728534 50.8629966 65.0483217 51.0166211 64.8971753 51.1904907 64.9407867 51.4495088 64.9348126M6.04691144 51.6422954C5.36453273 52.0359929 1.05590067 52.8275697.412821256 51.6494644-.72090393 49.5746369 5.61878728 49.9940233 6.27258468 50.890148 5.4020457 50.4026562-1.93501404 42.0937875.762346825 41.642738 3.23701167 41.2287284 5.14124127 48.7042011 6.17314555 50.2544969 5.89328691 49.0996908 2.96727559 38.687916 5.14838659 39.1783949 7.84991557 39.7865649 6.8019343 48.428792 6.78883454 50.5980114 6.74536713 48.2220859 7.52956675 43.9296484 9.92086945 42.6876195 11.6845743 44.8789432 9.67614201 49.9557886 7.53730752 51.155401 8.66805549 49.1863162 13.1106624 47.4036253 13.7644598 50.5956217 14.1116036 52.2910897 13.4476837 52.4261059 11.9936097 52.5384202 10.7669952 52.6322146 6.8168204 52.9106106 6.19577241 51.7916495"/>
        <path d="M17.5092065,58.6619393 C16.6511719,58.6697057 11.4553284,58.7724614 11.3987612,57.3966112 C11.2945585,54.8408634 16.007497,57.3368695 16.7297705,57.884103 C16.2962873,57.2604002 12.0198092,51.1876615 13.8555627,50.5974139 C15.3036823,50.1326239 17.9170856,55.966396 18.7203394,57.1271763 C18.0534422,56.1193347 14.9714246,44.2450843 18.9269584,47.159282 C21.2277537,48.8541526 19.5200206,54.1753414 18.9823347,56.4323809 C18.9781666,55.8038988 21.6034788,48.5697823 23.5470077,49.7699921 C25.4899411,50.9696044 20.5370387,56.8123378 19.4497582,57.8309329 C21.1104512,56.3863798 24.7873173,54.7966545 26.3783434,57.1773593 C26.9785509,58.0758737 27.2095831,60.867601 26.1758925,61.3126763 C25.7072781,59.7104053 24.2454634,58.6846411 22.6574145,58.5113903 C21.0580522,58.3375421 19.0043662,59.6201954 17.6580675,58.5125852"/>
        <path d="M29.4180845,64.9348126 C27.6472344,65.1875197 23.4023148,65.2568201 22.4216187,63.2919172 C21.2462124,60.9386936 27.4203702,62.8384781 28.4981237,63.4585964 C28.4754968,61.408263 27.6466389,58.1720578 29.2757734,56.5327469 C29.9474341,58.3512827 29.1286988,60.8538604 28.5070554,62.6729937 C28.8482447,61.6753081 30.6554169,55.2518859 33.2467888,56.7083873 C35.0712289,57.7341515 31.9260942,63.2232143 30.4815473,64.0112067 C31.5366739,62.1968527 40.9167017,58.2252278 39.9937636,62.7082413 C39.4423826,65.3870569 33.5302201,64.2543552 31.6569536,65.0949202 C32.21548,67.0634076 33.8731958,68.9267496 33.8624778,71.0326428 C30.7953463,71.5380572 29.2352832,67.840049 29.1203626,65.3828749"/>
        <path d="M39.3917698 71.2076858C38.6706873 70.3348603 33.6778902 66.2957274 36.6318874 65.4139406 39.1416834 64.6641829 40.2712405 68.9392954 40.1366702 70.7482725 40.0842711 69.7057807 41.0899759 61.873053 42.8911936 62.6311745 44.7376652 63.4072186 41.7360325 69.7774707 40.8958611 70.8922499 41.205492 67.9744677 45.6272584 63.836761 48.6080505 63.1306147 50.3527012 68.0670673 45.594509 69.5552318 42.2641912 71.5159527 43.4300704 71.1664641 55.486023 71.2644404 53.1911822 74.4892947 51.5578796 76.783374 43.8552173 73.3380731 41.7628275 72.2286706 41.1721471 73.5943648 41.9545604 75.4517327 40.738664 76.7397626 39.7002098 77.8396064 39.0946433 77.520586 38.4974131 76.3962481 37.7465584 74.9839555 38.541476 71.4484447 40.5826576 71.35704M74.9857985 12.8350156C73.4537213 11.51592 72.3831132 10.0863023 71.9412938 8.09989241 71.7394384 7.19361158 71.0963589 5.97966125 71.7471791 5.14626523 72.2670017 5.41151815 72.6308179 5.84882703 72.8594683 6.37574839 73.2125666 7.19241674 73.6019869 8.04851459 73.9139995 8.88131319 74.2974654 9.90229799 74.2980608 11.1060922 74.3927364 12.1921954 74.3921409 10.9866089 74.4225086 9.78639919 74.227203 8.59156619 74.0229657 7.34535537 73.6424771 6.15709395 73.5936507 4.88220713 73.5597104 4.01296612 73.5626876 3.14551736 73.4459806 2.2816531 73.3852453 1.83000623 73.229239 1.38313868 73.4846844.992428292 73.760375.569457409 74.3861865.341244306 74.8559917.377089296 77.2746849.561690995 77.1782229 5.48619522 77.0662795 7.13327251 76.9745811 8.49597955 76.2796981 9.46140462 75.7568984 10.6663937 75.4490539 11.3749297 75.3007883 12.1647143 74.9214906 12.8386001 75.0691606 11.8092515 75.9057593 10.8193323 76.3630602 9.88915483 76.6399417 9.3269859 76.8292928 8.61964477 77.1788184 8.09869758 77.7492536 7.24678165 79.1146065 7.10220685 80.0047951 6.73300345 80.1619923 6.66728764 80.4686459 6.45102287 80.6353702 6.45162028 81.1557882 6.45341253 81.0408675 6.86324025 81.0104999 7.36268045 80.9545282 8.29524761 80.653829 8.93687293 80.016704 9.60657683 78.8484431 10.8348652 77.3622151 11.4633473 75.8783689 12.2148973 77.3711468 11.8725776 78.8341524 11.4537886 80.3418164 11.8331481 81.1760333 12.0428413 82.0144183 12.2166895 82.8444671 12.4449026 82.6372526 15.6972381 77.9665907 13.7054514 76.3195928 12.8021577 75.8349015 12.5363073 75.2281442 12.2089231 74.7565526 12.6522062 74.1545588 12.4162266 73.7687112 12.2154947 73.1548085 12.5237616 72.4634981 12.8702632 72.3182098 13.1653869 71.4810157 13.2896496 70.2407061 13.4742513 68.4323429 13.6994773 67.3313672 12.9043159 67.6975652 10.8008124 70.6878844 11.0851827 72.1818532 11.257836 72.7159664 11.3193699 73.5865053 11.1192354 73.9931935 11.590597"/>
        <path d="M93.2654499,13.1707637 C92.5574671,12.4837347 92.3895519,12.4747734 91.5458079,13.2078035 L87.2842159,18.8838577 L86.8656188,19.1204346 C86.8060745,18.824116 86.7512936,18.5612528 86.7012763,18.3312474 C87.3282788,17.1226738 88.1529686,16.0186481 88.8145067,14.8017107 C89.889283,12.8278466 91.8637749,8.9213401 89.5611934,6.87518858 C88.1249827,5.59850952 87.6307643,7.36626495 87.2985066,8.61128093 C87.0341295,9.60000524 86.9579126,10.5439233 86.965058,11.554752 C86.8203651,11.0636757 86.6435183,10.5773786 86.4833439,10.0719643 C86.1731176,9.09279864 84.9518621,5.63077001 83.3917991,6.65533931 C81.36074,7.98937036 83.7139343,12.8762373 84.2575746,14.267023 C84.7922832,15.6345093 85.6818764,17.2051173 85.9271993,18.6867102 L85.8736093,18.8217264 L83.5906774,14.8387505 L83.7055981,15.2085514 C83.6913074,15.1768883 83.6740395,15.1452252 83.6609398,15.1135621 C83.0976498,13.7287507 82.533169,12.4604355 81.4435067,11.3856832 C81.1457847,11.0923517 78.6056211,8.76720664 78.0512628,9.48350903 C77.6463609,10.0068459 78.9045339,11.7823677 79.0569675,12.0368672 C80.2359465,14.0047571 81.5143645,14.9976633 83.3477363,16.2074318 C83.721675,16.4541648 84.0473829,16.7140409 84.3355777,16.9936319 L85.674731,20.0165594 L86.4190359,20.0231309 L86.4315402,20.018949 L86.3446054,20.1348478 C87.3777006,20.1963817 89.0884109,18.6855154 89.7797213,18.0564358 C90.557371,17.3478999 91.3171574,16.7194177 92.1865055,16.1172219 C92.8176761,15.6811078 93.9424696,15.2330454 93.9240108,14.2622436 C93.9150792,13.7496603 93.6042575,13.4993427 93.2654499,13.1707637"/>
      </g>
      <polygon fill="#9C9B9B" points="0 141.603 47.035 168.849 46.905 181.236 .054 154.058"/>
      <path fill="#E85740" d="M57.0654975 166.60387C58.1795731 165.944919 59.0923886 166.461087 59.1060838 167.758676 59.1185881 169.056264 58.2254222 170.644795 57.1101558 171.305538 55.9936985 171.966878 55.0790967 171.448918 55.0677832 170.149537 55.0558744 168.850156 55.9508265 167.263417 57.0654975 166.60387M68.2300706 160.405673C69.3441462 159.746723 70.2569617 160.262891 70.2706569 161.56048 70.2831612 162.858068 69.3899954 164.446599 68.2747289 165.107341 67.1582716 165.768681 66.2436698 165.250721 66.2323564 163.95134 66.2204475 162.65196 67.1153997 161.065221 68.2300706 160.405673"/>
      <path fill="#2C2E33" d="M62.8443401 181.840022C64.4675202 180.884155 65.80191 181.636303 65.8257277 183.521749 65.8495455 185.40839 64.5520732 187.715016 62.9277023 188.673869 61.301545 189.63332 59.9653689 188.878783 59.9439329 186.989752 59.9219014 185.101318 61.2205646 182.796486 62.8443401 181.840022M85.6694911 170.688347C87.2926712 169.731883 88.627061 170.484628 88.6508787 172.369477 88.6752919 174.256118 87.3778197 176.56334 85.7528533 177.522194 84.126696 178.481645 82.7911153 177.727108 82.7690839 175.838077 82.7470525 173.949643 84.0457156 171.64481 85.6694911 170.688347M114.250798 154.757041C115.873978 153.801174 117.208368 154.553322 117.232186 156.438768 117.256599 158.325409 115.959127 160.632035 114.33416 161.590888 112.708003 162.550339 111.372423 161.795802 111.350391 159.906771 111.32836 158.018935 112.627023 155.713505 114.250798 154.757041"/>
      <path fill="#E85740" d="M79.4690743 154.207477C80.5831498 153.548527 81.4959653 154.064695 81.5096605 155.362283 81.5221648 156.659872 80.628999 158.248402 79.5137326 158.909145 78.3972752 159.570485 77.4826734 159.052525 77.47136 157.753144 77.4594511 156.453763 78.3544033 154.867025 79.4690743 154.207477M90.7272512 147.566177C91.8413267 146.906629 92.7547376 147.423395 92.7678374 148.720386 92.7809372 150.017975 91.8871759 151.607102 90.7719095 152.267845 89.6554521 152.929185 88.7414458 152.411225 88.7295369 151.111247 88.717628 149.812463 89.6125802 148.225725 90.7272512 147.566177M102.040685 140.845242C103.154761 140.185694 104.068172 140.702459 104.081272 141.99945 104.094371 143.297039 103.20061 144.886167 102.085344 145.546909 100.968886 146.20825 100.05488 145.690289 100.042971 144.390311 100.031062 143.091528 100.926014 141.504789 102.040685 140.845242M113.354119 134.124306C114.468195 133.464758 115.381606 133.981523 115.394706 135.278515 115.407805 136.576103 114.514044 138.165231 113.398778 138.825974 112.28232 139.487314 111.368314 138.969354 111.356405 137.669375 111.344496 136.370592 112.239448 134.783854 113.354119 134.124306M124.667553 128.000787C125.781629 127.341239 126.69504 127.858004 126.70814 129.154996 126.721239 130.452584 125.827478 132.041712 124.712212 132.702455 123.595754 133.363795 122.681748 132.845835 122.669839 131.545856 122.65793 130.247073 123.552882 128.660335 124.667553 128.000787"/>
      <path stroke="#EC6D54" stroke-width=".595" d="M90.7488062 149.91731C95.9369089 155.396814 96.7020544 160.945619 93.8665505 167.572162 92.2600429 171.326925 88.2181697 173.116785 85.7369549 174.411386 87.2499779 174.383308 87.832322 173.29601 89.1786207 172.61854 91.6991347 171.349627 93.8397555 169.37636 95.9452452 167.507044 99.3994152 164.43931 102.397475 159.321243 102.82679 154.675135 103.170957 150.943074 102.264691 146.786847 102.06224 143.196374M79.4905698 156.558909C87.1938275 160.64703 93.0279869 168.285597 85.5384935 174.710214M124.689109 130.351919C129.920679 135.691628 125.167845 141.659222 122.45798 147.749285 120.37214 152.438408 117.343117 154.734877 114.119979 158.281141 118.550082 152.550124 119.51351 141.512257 113.375674 136.475439M68.2515662 162.757105C75.3724798 167.485656 68.9476401 180.1246 63.5070692 183.97017"/>
      <path stroke="#EC6D54" stroke-width=".595" d="M57.086993,168.955301 C60.9925096,169.325699 64.9932971,172.77339 65.8156052,176.436748 C66.6778079,180.279928 64.7027205,182.46707 62.3161814,185.165003"/>
      <path fill="#936A48" d="M26.3655414,26.6120973 L26.8817912,25.0618015 L26.995521,24.6346487 C27.0717378,24.2678349 27.149741,23.6746003 27.0997237,22.8662958 C27.011598,21.4498213 27.2086899,18.7076796 27.2086899,18.7076796 C27.2086899,18.7076796 25.6390998,17.5361458 25.6140912,15.9022117 C25.6009914,15.0867381 26.273843,12.8141658 26.273843,12.8141658 C26.273843,12.8141658 25.7135303,11.7525566 26.2166804,10.1198173 C26.719235,8.48588321 27.9845533,6.13385445 29.9417774,4.77174482 C31.8990015,3.41023262 35.8414356,3.54704099 38.0457689,4.39417759 C40.2501022,5.24131419 43.0981104,8.66451075 43.3327153,10.0989078 C43.5673202,11.5339022 42.1233687,15.0491009 42.1233687,15.0491009 L41.5809193,17.7070069 C41.5809193,17.7070069 40.087546,21.8942992 39.4736434,23.4434002 C38.814487,25.1078025 37.1764208,26.4203266 36.2636053,26.4370542 C36.3713807,28.2221348 35.0745038,29.3745512 34.0027048,29.9223821 C32.3914336,30.7456221 28.3733782,29.1033241 27.8225926,28.8888516 C27.2712115,28.6749765 26.3655414,26.6120973 26.3655414,26.6120973"/>
      <path fill="#735337" d="M29.4122492,18.9162377 C29.4122492,18.9162377 30.4584441,23.1483361 31.3468464,24.1298915 C32.2352487,25.1114468 32.7187491,25.5953541 33.8697422,26.0840408 C35.0201398,26.5721301 36.3039169,26.5279213 36.3039169,26.5279213 L36.0824117,27.68213 C36.0824117,27.68213 34.8176889,29.4642234 33.2469079,28.6744388 C31.6755314,27.8852516 28.2481563,21.3375667 29.4122492,18.9162377"/>
      <path fill="#2C2E33" d="M44.5204472,13.1637739 C45.4284992,13.3824283 46.2406847,12.3799635 46.2543799,11.4432144 C46.2686705,10.5064653 45.7732612,9.65156229 45.3951543,8.79486703 C45.1647175,8.272725 44.8610412,7.64603509 44.2935831,7.60600819 C44.4245808,7.13046465 44.5537921,6.61310196 44.3680136,6.15607834 C44.1828306,5.69905472 43.5308195,5.41826896 43.1836757,5.7671602 C43.3111007,5.15002895 43.434953,4.48988372 43.1985618,3.90620779 C42.962766,3.32193446 42.2083386,2.90852224 41.6849434,3.25681606 C40.744142,2.00702074 39.4246384,1.04816725 37.9485329,0.540363226 C37.8211079,0.70525018 37.6942784,0.871331967 37.5668534,1.03681634 C37.575785,0.557688304 37.2024417,0.10066468 36.7326365,0.0146367043 C36.2628312,-0.0707938554 35.7531313,0.224927313 35.5929569,0.676574188 C34.5312804,0.0331566158 33.0361207,0.229706645 32.1762998,1.12642881 C31.1801221,0.0970801815 29.2115846,0.348592529 28.5041972,1.59540077 C27.9802066,1.27160102 27.2239928,1.40363007 26.840527,1.8863426 C26.4564656,2.36905514 26.4957649,3.13793017 26.9274618,3.57882355 C26.2784279,4.02509368 25.6287986,4.47196122 24.9803602,4.91823135 C25.232233,5.14943153 25.4847012,5.38063172 25.7377649,5.61123449 C24.9136705,6.38429144 24.0074049,7.06833334 23.0392131,7.64902218 C23.2678636,8.1060458 23.6376342,8.49078203 24.0848126,8.73632021 C23.2267779,9.33612638 23.1523474,10.7776924 23.9442878,11.4635265 C23.6179846,11.8906793 23.2785816,12.3542745 23.2517866,12.891352 C23.2243962,13.4284294 23.6739563,14.0198717 24.2009242,13.9201032 C23.1082846,14.500792 23.0648172,16.3509909 24.1288754,16.9824602 C23.4971095,17.3068573 23.7650592,17.8140639 24.4742329,17.8331813 C24.043727,18.3995321 24.5837946,19.2825137 25.2762958,19.4384394 C25.6222487,19.5161036 26.7404924,21.2330786 27.0804909,21.1297255 C27.4210848,21.0269699 26.9816472,18.7770993 27.2948507,18.6098227 C26.410021,17.3253772 25.9866604,17.1616851 26.0086918,15.6006358 C26.0307233,14.0395865 27.2114885,12.5968256 28.3636725,13.2462174 C29.5158564,13.8956091 29.0502193,16.5839834 29.0502193,16.5839834 C29.0502193,16.5839834 30.5584787,15.6060126 30.608496,14.6698609 C30.6585133,13.7331118 29.637327,12.5992153 30.3685321,12.0155394 C30.5036978,12.2443499 31.5760923,12.501239 31.7106626,12.7300495 C31.3849548,12.268844 32.0780515,11.4246945 32.5883469,11.1851304 C33.0986424,10.9467613 33.4457861,11.7723909 33.9983581,11.6594792 C34.2835757,11.6015297 34.4949583,10.8798506 34.7861304,10.8744739 C35.6828689,10.858941 36.3854927,11.7431175 36.5099405,12.633268 C36.7225139,12.2210507 37.0607261,11.8745491 37.4674143,11.6523102 C37.8419485,12.025098 38.0765534,12.537084 38.1146618,13.0652002 C38.6118574,12.9379505 39.1096485,12.8095059 39.6074396,12.6816588 C39.7670186,12.8758191 39.8557397,13.1267341 39.8545488,13.377649 C40.6536346,12.3297805 42.0999678,15.6484291 43.0229058,15.7726918 C44.2239162,15.9339942 46.0900374,13.5419385 44.5204472,13.1637739"/>
      <path fill="#936A48" d="M46.8486329,58.2770836 L45.9155723,58.5895324 C45.8435236,58.5190373 45.7637341,58.452724 45.6672722,58.3971643 C45.1283955,58.0877026 43.5867912,58.3971643 42.6620668,58.9384237 L40.0593815,61.1655924 L38.8101402,61.8615826 C38.5124183,62.4589991 37.3221259,66.0434981 37.3221259,66.0434981 L38.5868488,68.0597788 L40.684806,66.7939261 L45.2855927,65.3714045 C45.2855927,65.3714045 48.6349646,64.2512486 49.0815475,63.8031862 C49.394751,63.4895426 49.6347149,61.3053878 49.750231,60.0263191 C49.798462,59.4898391 49.4554863,58.9963731 48.9380455,58.8535905 L46.8486329,58.2770836 Z"/>
      <path fill="#ECF0F3" d="M10.4478968,63.7968536 C10.4478968,63.7968536 10.3782299,71.7191938 14.9929201,74.258214 C16.697676,75.1961579 39.3310941,68.8067884 39.3310941,68.8067884 C39.3310941,68.8067884 40.5976033,67.2268411 39.7032466,67.1210984 C38.4379283,66.9717442 38.102895,63.7701402 38.3505997,63.0747474 C38.79361,61.8339133 39.5460494,61.4537861 39.7032466,61.189728 C39.7032466,61.189728 27.794964,62.3098839 24.2223006,62.6085922 C20.6496372,62.9073004 17.0769738,57.5305519 17.0769738,57.5305519 L10.4478968,63.7968536 Z"/>
      <path fill="#D4D8DB" d="M17.3745767,71.7190744 C21.6915449,71.5697202 31.9629522,69.0307001 31.9629522,69.0307001 L39.3315705,67.049667 L40.5063813,67.049667 L39.700198,69.0307001 C39.700198,69.0307001 24.2221815,73.0632615 20.6495181,73.660678 C17.0768547,74.2580945 14.9928011,75.0048651 13.0576084,73.0632615 C11.1224157,71.1216579 10.9735547,66.7903882 10.9735547,66.7903882 C10.9735547,66.7903882 13.0576084,71.8684285 17.3745767,71.7190744 Z"/>
    </g>
    <g transform="translate(200)">
      <use fill="#171615" stroke="#4E4B49" stroke-width="2.308" mask="url(#b)" xlink:href="#a"/>
      <polygon fill="#FFFFFF" points="8.077 13.857 128.077 13.857 128.077 180.143 8.077 180.143"/>
      <g transform="translate(12.692 17.943)">
        <rect width="110.769" height="18.476" fill="#777675"/>
        <rect width="110.769" height="57.738" y="85.452" fill="#7BCAEC"/>
        <rect width="26.538" height="3.464" x="6.923" y="63.512" fill="#D8D8D8"/>
        <rect width="26.538" height="3.464" x="8.077" y="93.536" fill="#FFFFFF"/>
        <rect width="60" height="3.464" x="8.077" y="100.464" fill="#FFFFFF"/>
        <rect width="60" height="3.464" x="8.077" y="106.238" fill="#FFFFFF"/>
        <rect width="60" height="3.464" x="8.077" y="112.012" fill="#FFFFFF"/>
        <rect width="20.248" height="8.083" y="146.655" fill="#2591BF"/>
        <rect width="20.248" height="8.083" x="45.261" y="146.655" fill="#2591BF"/>
        <rect width="20.248" height="8.083" x="22.63" y="146.655" fill="#2591BF"/>
        <rect width="20.248" height="8.083" x="67.891" y="146.655" fill="#2591BF"/>
        <rect width="20.248" height="8.083" x="90.521" y="146.655" fill="#2591BF"/>
        <rect width="26.538" height="3.464" x="6.923" y="69.286" fill="#D8D8D8"/>
        <rect width="26.538" height="3.464" x="6.923" y="75.06" fill="#D8D8D8"/>
        <rect width="26.538" height="3.464" x="42.692" y="63.512" fill="#D8D8D8"/>
        <rect width="26.538" height="3.464" x="42.692" y="69.286" fill="#D8D8D8"/>
        <rect width="26.538" height="3.464" x="42.692" y="75.06" fill="#D8D8D8"/>
        <rect width="26.538" height="3.464" x="78.462" y="63.512" fill="#D8D8D8"/>
        <rect width="26.538" height="3.464" x="78.462" y="69.286" fill="#D8D8D8"/>
        <rect width="26.538" height="3.464" x="78.462" y="75.06" fill="#D8D8D8"/>
        <ellipse cx="20.769" cy="43.881" stroke="#DBD9DB" stroke-width="3.462" rx="11.538" ry="11.548"/>
        <ellipse cx="55.385" cy="43.881" stroke="#DBD9DB" stroke-width="3.462" rx="11.538" ry="11.548"/>
        <ellipse cx="90" cy="43.881" stroke="#DBD9DB" stroke-width="3.462" rx="11.538" ry="11.548"/>
        <ellipse cx="20.769" cy="43.881" stroke="#00AAD6" stroke-width="3.462" stroke-dasharray="34.615 46.154" transform="rotate(-7 20.77 43.881)" rx="11.538" ry="11.548"/>
        <ellipse cx="55.385" cy="43.881" stroke="#E85740" stroke-width="3.462" stroke-dasharray="57.692 57.692" transform="rotate(107 55.385 43.881)" rx="11.538" ry="11.548"/>
        <ellipse cx="90" cy="43.881" stroke="#777675" stroke-width="3.462" stroke-dasharray="46.154 69.231" transform="rotate(49 90 43.881)" rx="11.538" ry="11.548"/>
      </g>
    </g>
  </g>
</svg>
