<svg xmlns="http://www.w3.org/2000/svg" width="309" height="255" viewBox="0 0 309 255" xmlns:xlink="http://www.w3.org/1999/xlink">
  <defs>
    <rect id="a" width="124" height="178" rx="4.239"/>
    <mask id="b" width="124" height="178" x="0" y="0" fill="white">
      <use xlink:href="#a"/>
    </mask>
  </defs>
  <g fill="none" fill-rule="evenodd">
    <polygon fill="#207BA4" points="114.877 197.617 67.339 170.169 -2 210.47 46.287 238"/>
    <g transform="translate(1 17)">
      <path fill="#E85740" d="M123.562387,122.732051 C122.580548,122.732051 121.78461,121.83662 121.78461,120.732051 C121.78461,119.627481 122.580548,118.732051 123.562387,118.732051 C124.544227,118.732051 125.340165,119.627481 125.340165,120.732051 C125.340165,121.83662 124.544227,122.732051 123.562387,122.732051 Z M132.451276,122.732051 C131.469437,122.732051 130.673499,121.83662 130.673499,120.732051 C130.673499,119.627481 131.469437,118.732051 132.451276,118.732051 C133.433116,118.732051 134.229054,119.627481 134.229054,120.732051 C134.229054,121.83662 133.433116,122.732051 132.451276,122.732051 Z M141.340165,122.732051 C140.358326,122.732051 139.562387,121.83662 139.562387,120.732051 C139.562387,119.627481 140.358326,118.732051 141.340165,118.732051 C142.322005,118.732051 143.117943,119.627481 143.117943,120.732051 C143.117943,121.83662 142.322005,122.732051 141.340165,122.732051 Z M150.229054,122.732051 C149.247215,122.732051 148.451276,121.83662 148.451276,120.732051 C148.451276,119.627481 149.247215,118.732051 150.229054,118.732051 C151.210894,118.732051 152.006832,119.627481 152.006832,120.732051 C152.006832,121.83662 151.210894,122.732051 150.229054,122.732051 Z M159.117943,122.732051 C158.136103,122.732051 157.340165,121.83662 157.340165,120.732051 C157.340165,119.627481 158.136103,118.732051 159.117943,118.732051 C160.099783,118.732051 160.895721,119.627481 160.895721,120.732051 C160.895721,121.83662 160.099783,122.732051 159.117943,122.732051 Z M168.006832,122.732051 C167.024992,122.732051 166.229054,121.83662 166.229054,120.732051 C166.229054,119.627481 167.024992,118.732051 168.006832,118.732051 C168.988671,118.732051 169.78461,119.627481 169.78461,120.732051 C169.78461,121.83662 168.988671,122.732051 168.006832,122.732051 Z" transform="rotate(-30 145.785 120.732)"/>
      <g transform="translate(.13 44.64)">
        <path fill="#2C2E33" d="M43.5463971,59.826301 L43.5463971,78.4146108 L42.4692257,95.2938905 L39.1543436,122.816345 C39.1543436,122.816345 43.2866356,128.113271 43.9835691,130.697919 C44.681011,133.282058 39.6626832,133.621728 39.6626832,133.621728 C39.6626832,133.621728 32.9271844,127.646987 31.7834205,126.757132 C30.6396566,125.867277 33.9098048,88.2960701 32.0203067,88.0133505 C30.1313171,87.7306308 29.7500624,126.63001 29.7500624,126.63001 C29.7500624,126.63001 31.8845801,132.388644 32.4712039,134.369207 C32.9368429,135.940437 29.1797055,137.418104 27.5941945,136.512486 C26.2435364,135.741109 23.1335151,132.424238 22.3079718,130.518422 C21.2038583,127.969878 21.2353754,128.536842 20.4728661,127.646987 C19.7103568,126.757132 19.9645265,123.324834 19.9645265,123.324834 C19.9645265,123.324834 18.6464021,100.109786 19.1598251,93.2812925 C19.4165365,89.8673 20.1241451,79.411757 19.3524857,72.8100493 C18.5813347,66.2078331 19.3524857,61.188542 19.3524857,61.188542 L35.5441163,61.3080368 L41.8226178,55.8733104 L43.5463971,59.826301"/>
        <path fill="#E85740" d="M21.3624602,20.3980936 C21.3624602,20.3980936 22.8956122,19.3892522 25.226349,18.9036455 C27.5570857,18.4180389 32.5459298,20.1016447 32.5459298,20.1016447 L35.6910264,23.1312199 L39.6891168,58.8037303 L39.8045099,59.826301 C39.8045099,59.826301 36.5801123,62.8701138 32.0518238,63.5367424 C30.7682665,63.7253917 25.0911307,62.8757072 25.0911307,62.8757072 L21.3624602,20.3980936"/>
        <path fill="#ECF0F3" d="M22.5575665,19.6663785 C22.5575665,19.6663785 14.5171602,23.0717267 13.5548735,23.486145 C11.5342238,24.3566775 10.0198804,29.8981864 9.92888762,30.9060109 C9.87652865,31.4902643 9.57355829,43.1290602 9.20857051,51.9482868 C8.94423396,58.3343954 16.8687388,53.4188359 16.8687388,53.4188359 C16.8687388,53.4188359 15.9049271,90.5044362 17.5738057,90.8008851 C21.0127226,91.4115799 28.5239475,92.1875335 28.5239475,92.1875335 C28.5239475,92.1875335 30.6421983,66.0069801 30.1735092,48.8734561 C29.96204,41.1383273 27.2459819,35.2424018 27.0162124,34.4400067 C26.2765784,31.8599355 22.8849371,24.7655023 22.4304816,23.1622377 C21.976026,21.5589731 22.5575665,19.6663785 22.5575665,19.6663785"/>
        <polyline fill="#D4D8DB" points="16.191 78.843 19.103 40.118 20.182 38.387 20.237 48.432 20.237 56.868 18.231 91.327 16.191 78.843"/>
        <path fill="#ECF0F3" d="M42.6273193,32.9511521 C42.6273193,32.9511521 46.2507634,79.634475 46.0128605,82.5918448 C45.7749576,85.5492146 39.5172981,89.5149173 39.5172981,89.5149173 L35.595967,47.5178255 C35.595967,47.5178255 35.9085958,31.1160167 35.3326471,28.1433922 C34.7561901,25.1702593 33.085278,22.3461135 32.4132532,21.4969375 C31.246614,20.021812 31.2684726,19.4863735 31.2684726,19.4863735 L37.9363621,20.9462443 L41.9420776,22.7915495 L47.7961156,31.4155165 L42.6273193,32.9511521"/>
        <path fill="#EED2B7" d="M38.5336611,4.77376385 C38.5336611,4.77376385 38.2103571,5.035127 38.803081,7.1662028 C39.3958049,9.29727859 38.6932797,15.6599967 37.0447346,17.9624331 C35.3956812,20.2653781 33.631743,22.6964621 31.084962,19.8504513 C30.8734928,19.6140041 31.279656,21.1587926 31.279656,21.1587926 L31.9410058,23.6361491 C31.9410058,23.6361491 31.275081,25.8221417 30.3432946,26.3306303 C29.1034545,27.0069201 22.8117362,20.8740389 22.8117362,20.8740389 L26.4641557,9.78491917 L29.6229775,3.83000898 L38.5336611,4.77376385"/>
        <path fill="#463C39" d="M24.3525133,2.22471042 C25.5521946,0.909758853 28.3953376,-0.0156904298 31.5038338,0.24923214 C34.61233,0.513646221 37.7747102,2.37674851 38.9037323,3.58491747 C40.032246,4.79308642 39.1030013,7.94063096 39.1030013,7.94063096 C39.1030013,7.94063096 37.6735506,9.09795105 35.9258793,8.44911958 C33.5021165,7.54909473 30.262977,4.77528932 31.2191636,6.90585663 C32.29176,9.29626161 29.7500624,11.9658269 29.7500624,11.9658269 C29.7500624,11.9658269 29.7363372,9.37863677 28.9545111,9.20168273 C28.1731932,9.02472869 27.4630429,10.2888314 27.3649334,12.1412554 C27.3232495,12.9289043 25.3732591,14.4060637 25.3732591,14.4060637 L23.7648728,17.8866683 C23.7648728,17.8866683 23.5401868,14.483354 22.4838572,12.3222774 C21.428036,10.1606923 23.1523237,3.53966198 24.3525133,2.22471042"/>
        <path fill="#B7A587" d="M29.1573385,15.3121904 C29.1573385,15.3121904 30.0901416,17.8505656 30.9182266,18.7704215 C31.7463117,19.6902774 32.5693134,20.3869068 33.655635,20.6431851 C34.4572864,20.8323429 35.3306137,20.1097805 35.3306137,20.1097805 C35.3306137,20.1097805 34.1909165,21.808641 32.8824506,21.3687984 L31.5734763,20.9289557 L31.4418164,22.1594982 C31.4418164,22.1594982 28.2611359,19.7080745 28.5620729,18.3382062 C28.8625016,16.9688464 29.1573385,15.3121904 29.1573385,15.3121904"/>
        <path fill="#ECF0F3" d="M47.7961156,31.4155165 L50.5070903,40.906965 C50.5070903,40.906965 51.1216728,55.3399059 50.6768757,56.1616235 C48.4737322,60.2295324 44.7460784,58.0262513 44.7460784,58.0262513 L43.0517828,54.8059928 L40.5100852,38.0258685 L41.6960413,29.7202154 L47.7961156,31.4155165"/>
        <path fill="#EED2B7" d="M40.3402998,47.0088284 C40.3402998,47.0088284 39.6626832,44.4668938 40.3402998,43.6192433 C41.0184247,42.7715927 43.3903369,41.2461269 43.8986764,41.5852888 C44.407016,41.9239422 46.271097,42.9414279 46.271097,42.9414279 L41.5267642,47.5178255 L40.3402998,47.0088284"/>
        <path fill="#2C2E33" d="M34.3632436,54.5944616 L45.6615979,41.7007157 C45.7266654,41.6259679 45.8166415,41.577153 45.914751,41.5624068 L59.3710066,39.7191356 C59.7568363,39.6621848 60.0038893,40.1177906 59.7456528,40.4096631 L47.8901584,52.6652558 C47.8291576,52.7344102 47.7468066,52.7811912 47.6563222,52.7989883 L34.7561901,55.2809212 C34.3657853,55.355669 34.1009404,54.8939614 34.3632436,54.5944616"/>
        <path fill="#EED2B7" d="M33.3084391,50.8652061 L36.7397309,48.9583737 L40.1710227,47.8142744 L41.9542777,48.3044574 C42.3965331,48.4264946 42.6893367,48.8465062 42.6476529,49.303129 C42.549035,50.3918032 42.3441742,52.250329 42.0772959,52.5177941 C41.6960413,52.8991605 38.8366314,53.8525767 38.8366314,53.8525767 L34.8334577,54.4881875 L33.1178118,56.1407755 L32.0375903,54.4246264 C32.0375903,54.4246264 33.0542693,51.3736947 33.3084391,50.8652061"/>
        <path fill="#ECF0F3" d="M9.09470246,52.5122007 C9.09470246,52.5122007 9.03522673,59.2552682 12.9748581,61.4163449 C14.4302341,62.214672 33.7532362,56.7763862 33.7532362,56.7763862 C33.7532362,56.7763862 35.4063563,54.5146289 34.6428303,54.4246264 C33.5626089,54.2975042 32.8422917,53.1732359 33.0542693,52.5813551 C33.4319656,51.5252243 33.9362384,50.5179083 34.0709484,50.2931564 C34.0709484,50.2931564 23.9041579,51.2465725 20.8541207,51.5008168 C17.8040836,51.7550611 14.7540464,47.1786636 14.7540464,47.1786636 L9.09470246,52.5122007"/>
        <path fill="#D4D8DB" d="M9.54356626,55.0602371 C9.54356626,55.0602371 11.3227546,59.3823904 15.0082162,59.2552682 C18.6936777,59.1281461 27.4625345,56.9670695 27.4625345,56.9670695 L34.3632436,54.5944616 L34.7561901,55.2809212 L33.7532362,56.7763862 C33.7532362,56.7763862 20.8541207,60.3993676 17.8040836,60.9078562 C14.7540464,61.4163449 12.9748581,62.0519556 11.3227546,60.3993676 C9.67065114,58.7467796 9.54356626,55.0602371 9.54356626,55.0602371"/>
        <polyline fill="#6F6F6E" points="104.019 135.194 44.076 169.781 44.091 147.473 104.035 112.888 104.019 135.194"/>
        <polyline fill="#868686" points="6.816 126.399 44.143 148.028 44.032 169.626 6.863 148.054 6.816 126.399"/>
        <polyline fill="#B1B1B1" points="110.363 112.036 40.219 152.47 40.235 141.88 110.378 101.446 110.363 112.036"/>
        <polyline fill="#868C96" points="70.364 88.904 .222 129.338 .237 118.747 70.38 78.314 70.364 88.904"/>
        <polyline fill="#C6C6C5" points="40.33 141.926 110.6 101.344 70.446 78.154 .175 118.736 40.33 141.926"/>
        <path fill="#8CBF52"/>
        <path fill="#683B11" d="M67.3732874,86.7243318 C65.2677451,85.509044 65.2652034,83.5376337 67.3676957,82.3198034 C69.4722213,81.1009562 72.8887713,81.0968883 74.9983803,82.3126846 C77.109006,83.5289893 77.110531,85.5039591 75.0019387,86.7222979 C72.8948713,87.9396196 69.4798464,87.9396196 67.3732874,86.7243318"/>
        <path fill="#92C148" d="M71.3083437,84.392403 C70.0003861,83.2701686 69.0868999,82.0528469 68.7092037,80.3626307 C68.5368766,79.5912535 67.9883782,78.5574961 68.543485,77.848663 C68.9872654,78.0739235 69.2978608,78.4466456 69.4930632,78.8946241 C69.7950169,79.589728 70.1274709,80.3183922 70.3938409,81.0272254 C70.7207032,81.8967409 70.7212115,82.9213455 70.8020375,83.8452693 C70.8015292,82.8191392 70.8274545,81.7980941 70.6607191,80.7811169 C70.4863587,79.7199011 70.162038,78.7085173 70.1198459,77.623911 C70.0913788,76.8835516 70.0939205,76.1457346 69.9937777,75.4099516 C69.941927,75.0255342 69.8087421,74.6451847 70.0268197,74.3126332 C70.2626893,73.9526232 70.7969541,73.7588891 71.1975257,73.7893984 C73.2624008,73.9460129 73.1800498,78.1374845 73.0849903,79.5393877 C73.0061977,80.6992502 72.4129655,81.5214763 71.9666434,82.5465893 C71.7043402,83.1501653 71.5777636,83.8223873 71.253443,84.3959624 C71.3795112,83.5193281 72.0937282,82.6767624 72.4846413,81.8850457 C72.7210192,81.4065579 72.8821628,80.8050158 73.1805581,80.3611053 C73.6680557,79.636509 74.8331699,79.5129463 75.5931375,79.1987003 C75.7273392,79.1427665 75.989134,78.9586937 76.1319774,78.9592021 C76.5762662,78.9612361 76.4776483,79.3100593 76.4522313,79.7351558 C76.4044474,80.528398 76.1472276,81.0745148 75.6038127,81.6445305 C74.6064505,82.6904916 73.3376351,83.2249132 72.070853,83.8645918 C73.3447518,83.5737363 74.593742,83.2172858 75.8808577,83.5396676 C76.5935497,83.7186556 77.3087834,83.8661173 78.0179171,84.06036 C77.8405066,86.828572 73.8535997,85.1332709 72.4470242,84.3649446 C72.0332358,84.1386672 71.5157462,83.859507 71.1131413,84.2368055 C70.59921,84.036461 70.2692977,83.8651003 69.7451996,84.1274805 C69.1550174,84.4224038 69.0309826,84.6741057 68.3167656,84.7793629 C67.257386,84.9364858 65.7135588,85.1286945 64.7736391,84.4518962 C65.0862679,82.6609993 67.6396573,82.9030399 68.9145728,83.0499931 C69.3710617,83.1023674 70.1142541,82.9320237 70.46145,83.3332212"/>
        <path fill="#683B11" d="M77.1867819,92.4026242 C75.081748,91.1873364 75.0786979,89.215926 77.1816985,87.9980958 C79.2857158,86.7792486 82.7022658,86.7756892 84.8123832,87.9914855 C86.9230089,89.2072817 86.9245339,91.1822515 84.8159415,92.4005903 C82.7088742,93.617912 79.2933409,93.6184205 77.1867819,92.4026242"/>
        <path fill="#92C148" d="M86.9143671,84.6781736 C86.3094431,84.0934117 86.1665997,84.0862929 85.4462826,84.7102084 L81.8075882,89.5413588 L81.4507339,89.7427202 C81.3998999,89.4905099 81.3526244,89.2667749 81.3099238,89.0710068 C81.846222,88.0418258 82.5497639,87.1021389 83.1145292,86.066856 C84.032082,84.3863012 85.7177359,81.0612941 83.7524953,79.3202291 C82.525872,78.2335889 82.1039502,79.7382067 81.8202967,80.7973885 C81.594594,81.6394456 81.5295265,82.4423492 81.5356266,83.3027119 C81.4115917,82.8847343 81.2611232,82.4708245 81.1243799,82.0406432 C80.859535,81.2077388 79.8169307,78.2610473 78.4850811,79.1325968 C76.751135,80.2680518 78.7600928,84.4274887 79.2242068,85.6117587 C79.6801873,86.7756892 80.4396466,88.1125057 80.6495908,89.3735575 L80.6033319,89.4879675 L78.6548665,86.0983823 L78.752976,86.4131368 C78.7407759,86.3861869 78.7255257,86.3587285 78.7148506,86.3322871 C78.2339614,85.153102 77.7520555,84.0735807 76.8217942,83.1593181 C76.5671161,82.9091417 74.3985396,80.930104 73.9252755,81.5397819 C73.5796047,81.9852179 74.6542344,83.4964461 74.7843693,83.7135707 C75.7908816,85.3880237 76.8822866,86.2331318 78.447464,87.2633298 C78.7667012,87.4733356 79.0442546,87.6940196 79.2907992,87.9319923 L80.4340548,90.5054532 L81.0694792,90.5105381 L81.0801544,90.5069786 L81.0059368,90.6056254 C81.8879059,90.6579998 83.3488737,89.372032 83.9385475,88.8365935 C84.6024389,88.233526 85.2505718,87.6991045 85.9932559,87.186548 C86.5320958,86.8148428 87.4918408,86.4339848 87.4765906,85.6071823 C87.4684572,85.1708991 87.2036123,84.9578424 86.9143671,84.6781736"/>
        <path fill="#683B11" d="M86.3368934 97.6568371C84.2318594 96.4420578 84.2288094 94.4706474 86.33181 93.2523087 88.4358273 92.0334615 91.8523773 92.029902 93.9624946 93.2456983 96.0731203 94.4620031 96.0746454 96.4364644 93.966053 97.6548031 91.8589857 98.8721249 88.4434524 98.8726334 86.3368934 97.6568371M96.1651298 102.995968C94.0595875 101.781188 94.0570458 99.8097779 96.1595381 98.5914392 98.2635554 97.3725919 101.680614 97.3690325 103.790223 98.5848288 105.901357 99.8011336 105.902373 101.775595 103.793781 102.993934 101.686714 104.211255 98.2716888 104.211764 96.1651298 102.995968M57.8841135 92.232789C55.7785712 91.0175012 55.7760295 89.0460908 57.8785217 87.8282606 59.9830474 86.6094134 63.3995973 86.605854 65.5092064 87.8216503 67.6203404 89.037955 67.6218654 91.0124163 65.5127647 92.2307551 63.4056974 93.4480768 59.9906725 93.4485853 57.8841135 92.232789M67.6981164 97.9110814C65.592574 96.6963021 65.5900323 94.7248917 67.6925246 93.506553 69.7965419 92.2877058 73.2136002 92.2841464 75.3232092 93.4999426 77.4343433 94.7162474 77.43536 96.6907087 75.3267676 97.9090474 73.2197003 99.1263692 69.8046754 99.1268777 67.6981164 97.9110814M76.8482278 103.165803C74.7426855 101.950515 74.7401438 99.9791046 76.8426361 98.7607659 78.9466534 97.5419187 82.3637117 97.5383592 84.4733207 98.7541555 86.5844548 99.9704603 86.5854714 101.944922 84.4768791 103.16326 82.3698118 104.380582 78.9547868 104.381091 76.8482278 103.165803M86.6759559 108.504933C84.5704136 107.289645 84.5678719 105.318235 86.6703641 104.099896 88.7748898 102.881049 92.1914397 102.87749 94.3015571 104.093286 96.4121828 105.309591 96.4137078 107.284052 94.3051155 108.502391 92.1980481 109.719713 88.7825149 109.720221 86.6759559 108.504933M48.0985776 97.4447973C45.9930353 96.2295095 45.9904936 94.2580992 48.0929859 93.0402689 50.1975115 91.8214217 53.6140615 91.8178623 55.7241788 93.0336586 57.8348045 94.2499634 57.8363296 96.2244247 55.7277372 97.4427634 53.6201615 98.6600851 50.2051366 98.6605936 48.0985776 97.4447973M57.9125805 103.12309C55.8070382 101.90831 55.8044965 99.9369 57.9069887 98.7185613 60.011006 97.4997141 63.4280643 97.4961547 65.5376734 98.711951 67.6488074 99.9282557 67.6498241 101.902717 65.5412317 103.121056 63.4341644 104.338378 60.0191395 104.338886 57.9125805 103.12309M67.0626919 108.377811C64.9571496 107.162523 64.9546079 105.191113 67.0571002 103.972774 69.1611175 102.753927 72.5781758 102.750368 74.6877848 103.966164 76.7989189 105.182469 76.7999356 107.15693 74.6913432 108.375269 72.5842759 109.59259 69.1692509 109.593099 67.0626919 108.377811M76.89042 114.140513C74.7848777 112.925225 74.782336 110.953814 76.8853366 109.735984 78.9893539 108.517137 82.4059039 108.513578 84.5160212 109.729374 86.6266469 110.94517 86.628172 112.92014 84.5195796 114.138479 82.4120039 115.3558 78.996979 115.356309 76.89042 114.140513M38.4401266 103.038172C36.3345843 101.822884 36.3320426 99.851474 38.4345349 98.6336437 40.5390605 97.4147965 43.9556105 97.4112371 46.0657278 98.6270334 48.1763535 99.8433381 48.1778786 101.817799 46.0687779 103.036138 43.9617105 104.25346 40.5466856 104.253968 38.4401266 103.038172M48.2541295 108.716465C46.1485872 107.501685 46.1460455 105.530275 48.2485378 104.311936 50.3525551 103.093089 53.7696133 103.089529 55.8792224 104.305326 57.9903564 105.521631 57.9913731 107.496092 55.8827808 108.714431 53.7757134 109.931752 50.3606885 109.932261 48.2541295 108.716465M57.404241 113.971186C55.2986986 112.755898 55.2961569 110.784488 57.3986492 109.566657 59.5026665 108.347302 62.9197248 108.343742 65.0293338 109.559539 67.1404679 110.775843 67.1414846 112.750305 65.0328922 113.968643 62.9258249 115.185965 59.5108 115.186474 57.404241 113.971186M67.231969 119.733887C65.1264267 118.5186 65.123885 116.547189 67.2263773 115.329359 69.3309029 114.110512 72.7474529 114.106952 74.8575702 115.32224 76.9681959 116.538545 76.969721 118.513515 74.8611286 119.731853 72.7540613 120.949175 69.338528 120.949684 67.231969 119.733887M29.1629303 108.758669C27.0573879 107.543381 27.0548462 105.571971 29.1573385 104.354141 31.2618642 103.135293 34.6784141 103.131734 36.7885315 104.34753 38.8991572 105.563835 38.9006822 107.538296 36.7920899 108.756635 34.6845142 109.973957 31.2694893 109.974465 29.1629303 108.758669M38.9769331 114.436961C36.8713908 113.222182 36.8688491 111.250772 38.9713414 110.032433 41.0753587 108.813586 44.492417 108.810026 46.602026 110.025823 48.7131601 111.242127 48.7141768 113.216589 46.6055844 114.434927 44.4985171 115.652249 41.0834921 115.652758 38.9769331 114.436961M48.1270446 119.691683C46.0215023 118.476395 46.0189606 116.504985 48.1214529 115.287154 50.2254702 114.067799 53.6425285 114.064239 55.7521375 115.280036 57.8632715 116.49634 57.8642882 118.470802 55.7556959 119.68914 53.6486285 120.906462 50.2336036 120.906971 48.1270446 119.691683M57.9547727 125.454384C55.8492303 124.239097 55.8466886 122.267686 57.9491809 121.049856 60.0537066 119.831009 63.4702565 119.827449 65.5803739 121.042737 67.6909996 122.259042 67.6925246 124.234012 65.5839323 125.45235 63.4768649 126.669672 60.0613317 126.670181 57.9547727 125.454384M19.1232246 114.224922C17.0176823 113.009634 17.0151406 111.038224 19.1176329 109.820393 21.2221585 108.601546 24.6387085 108.597987 26.7488259 109.813783 28.8594516 111.030088 28.8609766 113.004549 26.7523842 114.222888 24.6448086 115.440209 21.2297836 115.440718 19.1232246 114.224922M28.9372275 119.903214C26.8316852 118.688435 26.8291435 116.717024 28.9316358 115.498686 31.0356531 114.279838 34.4527114 114.276279 36.5623204 115.492075 38.6734544 116.70838 38.6744711 118.682841 36.5658788 119.90118 34.4588114 121.118502 31.0437865 121.11901 28.9372275 119.903214M38.087339 125.157935C35.9817967 123.942648 35.979255 121.971237 38.0817472 120.753407 40.1857645 119.534051 43.6028228 119.530492 45.7124319 120.746288 47.8235659 121.962593 47.8245826 123.937054 45.7159902 125.155393 43.6089229 126.372715 40.193898 126.373223 38.087339 125.157935M47.915067 130.920637C45.8095247 129.705349 45.806983 127.733939 47.9094753 126.516109 50.0140009 125.297261 53.4305509 125.293702 55.5406683 126.50899 57.651294 127.725294 57.652819 129.700264 55.5442266 130.918603 53.436651 132.135925 50.021626 132.136433 47.915067 130.920637M9.59185851 119.691174C7.4863162 118.475887 7.4837745 116.504476 9.58626678 115.286646 11.6907924 114.067799 15.1073424 114.064239 17.2174597 115.280036 19.3280855 116.49634 19.3296105 118.470802 17.2210181 119.68914 15.1134424 120.906462 11.6984175 120.906971 9.59185851 119.691174M19.4058614 125.369467C17.3003191 124.154687 17.2977774 122.182769 19.4002697 120.964938 21.504287 119.746091 24.9213453 119.742532 27.0309543 120.958328 29.1420883 122.174633 29.143105 124.149094 27.0345127 125.367433 24.9274453 126.584755 21.5124204 126.585263 19.4058614 125.369467M28.5559729 130.624188C26.4504305 129.4089 26.4478889 127.43749 28.5503811 126.219151 30.6543984 125.000304 34.0714567 124.996745 36.1810658 126.212541 38.2921998 127.428846 38.2932165 129.403307 36.1846241 130.621646 34.0775568 131.838967 30.6625319 131.839476 28.5559729 130.624188M38.3837009 136.38689C36.2781586 135.171602 36.2756169 133.200191 38.3781092 131.982361 40.4826348 130.763514 43.8991848 130.759955 46.0093021 131.975242 48.1199279 133.191547 48.1214529 135.166517 46.0128605 136.384856 43.9057932 137.602177 40.4902599 137.602177 38.3837009 136.38689"/>
        <path fill="#92C148" d="M92.6504703 90.9452958C93.4999057 89.730008 94.6990786 88.5264155 95.1057502 87.0650192 95.3680534 86.1212643 95.6430651 84.6705463 95.1626843 83.7522159 94.8190467 83.096774 94.2985071 82.6793049 93.7286585 83.0850788 93.4831305 83.2594904 93.2797947 83.7578092 93.1105176 84.0166299 92.649962 84.7208867 91.9565869 85.5710796 91.6810668 86.3836444 91.2881204 87.5409645 91.2876121 88.8462548 90.9134742 90.0401861 90.6877714 90.7612229 90.486469 91.5081927 90.2882165 92.2571965 90.3197336 91.4151393 90.3349838 90.556302 90.4031013 89.8647575 90.5235777 88.6342151 90.6115205 87.0817993 90.4320766 85.8649861 90.2363659 84.5393562 89.8601947 84.3329099 88.9756839 85.0737778 89.4403062 86.6378888 89.6665173 88.3189521 89.5795912 89.9481497 89.5236739 90.9951277 89.8774782 92.1936354 89.9801628 93.4073977 89.8810366 93.7791029 89.7773353 94.1452147 89.672109 94.509801 88.4429441 93.5558764 88.1892826 90.3610424 86.4004359 90.2812097 84.8901591 90.2135807 86.7013728 92.4514391 87.0506021 92.880095 87.7734609 93.7668992 88.6289963 94.4777663 89.4662315 95.2150747 89.4611481 95.2308379 89.4657232 95.2354143 89.4723316 95.2206681 89.5638327 95.3015178 89.6319502 95.7093257 90.053872 95.7459369 90.3024501 95.6620362 90.4747772 95.4611832 90.761989 95.3910118 91.0187004 95.3279592 91.5021313 95.4774549 91.7847681 95.5038963 92.5635443 95.5766102 93.9909617 95.718987 94.5313266 95.0081199 95.2064015 94.1192818 94.0656876 93.6331667 93.3016533 93.5772329 92.3129329 93.5050275 91.3074373 93.950972 90.5606865 94.6521778 90.793506 94.2718284 91.005992 93.8752072 91.2133945 93.5467236 91.7405426 92.7117853 92.0841801 91.7563352 92.6504703 90.9452958M99.3381851 100.134702C98.6834438 98.6987303 97.0842077 97.7259915 96.7288783 96.2178143 96.482842 95.1733787 96.6643192 93.5696056 98.1100368 94.7543841 99.1084157 95.5725422 98.6559935 96.9190201 98.7388528 97.9766764 98.7866367 98.5929646 98.9127049 99.2255245 98.9935309 99.8575758 99.0458899 98.1465116 99.2944679 96.4466342 99.3941025 94.7391294 99.4627283 93.5609613 99.4179944 92.480423 99.7219815 91.3302217 99.9405675 90.5018938 100.107303 89.3491501 100.786953 88.7598118 104.362105 91.9851551 98.2823639 96.5493489 99.4139277 100.195721 100.158645 98.0346441 101.055864 96.2656122 103.338817 95.5476263 104.144535 97.7290425 101.116865 98.9743311 99.8226327 100.305046 102.021709 100.090972 103.565537 101.544233 104.125218 103.474964 104.395655 104.410074 104.419039 105.292811 104.424122 106.244193 101.185999 105.742823 102.063902 101.396771 99.5074622 100.388946M60.0689568 89.2871144C58.6303559 88.4094631 56.9935026 87.6050341 55.7241788 86.4909355 55.4151084 86.2199111 54.6409073 85.6122672 54.8122177 85.0910664 55.2763317 83.6769595 57.6980612 86.1990631 58.1454 86.7436544 58.2130091 86.4990714 58.2897684 86.1710962 58.3873696 85.9066821 59.4416658 86.0175326 59.9901641 87.4270631 60.6271136 88.1455575 60.1391076 86.1156709 59.3247477 83.8981521 59.1478455 81.8296204 59.0558361 80.7592519 59.5555338 80.5421272 60.5412042 81.3816419 61.6046505 82.2872601 62.0896064 85.0147931 62.111465 86.3302531 62.1287485 87.3589256 61.9167709 87.9858921 61.15782 88.6021803 62.93345 88.6764196 63.4839817 87.4174018 63.5912413 85.911767 63.6283501 85.3915832 63.3660469 83.8198448 63.6634255 83.4150879 64.2988499 82.5481148 65.0369589 83.8406929 65.3002788 84.3847757 65.8253935 85.4709074 66.0785466 86.5509372 65.6611999 87.677748 64.9662997 89.5545795 63.4082391 89.105584 61.7698608 88.9652412 62.1826325 89.4294913 62.6025209 89.685261 62.8470323 90.3071426 63.0274928 90.7657993 63.3965473 92.6055112 62.7336725 92.9284014 61.4521486 93.5528255 60.6138967 90.3946027 60.4924036 89.6257679M70.0659619 94.4564097C69.7274077 92.9741654 68.6212609 91.6505695 67.7870758 90.4017215 67.5542563 90.0528983 65.6240911 87.899449 65.9921289 87.3360436 66.5213104 86.5250043 69.2399101 90.3839244 69.4534127 90.7159675 70.2286305 91.9210855 70.2347306 93.0901008 70.2357473 94.4589522 70.1884717 93.550283 70.8909969 87.251126 72.2731721 87.6635103 73.5252123 88.0372494 72.9462136 91.8580329 72.7784616 92.5734764 72.6127429 93.280784 72.4449908 94.2621671 71.8451502 94.7213323 71.7109486 94.7076031 71.4130616 94.6145497 71.3093603 94.5530226 71.7927912 93.9896172 78.7834764 91.6485356 78.1221267 94.5840404 76.592533 95.3894863 75.0542976 94.625228 73.46777 94.625228 72.867421 94.6247195 72.4119488 94.7864188 71.8527753 94.8911675 72.235555 95.8389903 73.2273254 97.2505547 73.1088823 98.3458392 71.5223546 98.7760205 71.3540942 95.4688106 70.8457547 94.7045522 70.9296307 95.1489712 70.7771289 95.3243998 70.462975 95.5537282 69.8585593 95.9940793 67.8572266 95.9747567 67.0601503 96.0789969 65.5524152 96.276799 65.3765297 95.5272868 65.3917799 94.0836876 66.5924779 93.4546872 68.3060904 94.3048801 69.5667725 94.4508164 70.019703 94.5031907 70.5031339 94.4874275 70.9133639 94.6262449M79.8093056 100.21962C79.6217283 98.8304288 78.7077338 98.5095725 77.9208242 97.5770044 77.6702128 97.2805555 76.6454003 95.7276313 77.1430647 95.3915203 78.3625713 94.5682772 79.9292737 99.3841729 79.8941983 100.040123 79.7467798 98.4053323 80.5341977 92.7870416 82.500455 92.009054 83.2949897 93.5197737 82.3804869 96.6693522 81.844697 98.287363 81.5925606 99.0495874 81.2153727 99.7777431 80.7233 100.396574 80.6638243 98.9280586 83.4673168 96.632741 84.8830424 95.9650955 85.7075691 95.5766102 86.6291886 95.3549091 86.5122705 96.5305348 86.2840261 98.8324628 82.5904311 99.380105 80.9850949 100.549629 81.7775962 99.8804578 87.1329531 98.4226209 87.1756536 100.604037 87.1898871 101.310836 81.6571197 101.101847 80.6607743 100.818619 80.4864138 100.769296 80.3700041 100.526747 80.1931019 100.476915 79.6461286 100.323351 78.913103 100.501831 78.3478294 100.424541 77.8801571 100.36098 75.1264818 100.012156 75.1178401 99.3038317 75.0995399 97.8373505 78.0743428 98.5568619 78.7916098 99.0902665 79.1525309 99.35824 79.4458428 99.76198 79.8093056 99.9653754M89.3828638 105.812995C89.4042141 105.283149 87.3662809 99.649604 88.6203546 99.8041845 89.3671053 99.8967294 90.791981 104.870765 90.4844356 105.485528 90.0055798 104.503636 90.7868976 102.834268 91.0649593 101.840681 91.3033706 100.990997 91.3486128 99.1619634 92.130439 98.5741506 92.5833695 98.2334632 95.2292767 97.9888802 95.466163 98.4902499 96.0095779 99.6435021 93.3174118 100.34064 92.8543145 101.004726 92.1268806 102.047636 92.293616 105.558242 90.4956191 105.634007 90.3959845 104.351598 93.6391907 103.555305 94.5282765 103.397165 95.7142326 103.186142 97.1223331 103.30462 98.0541195 104.103456 96.4630168 106.171479 91.9637036 105.396542 89.7432766 105.574005 90.8062145 106.212667 93.9314859 106.735901 93.7652589 108.489679 93.638174 109.836665 91.0802095 108.897486 90.516461 108.164754 89.8408778 107.286595 89.8408778 106.270634 88.8862161 105.729094 88.8557158 105.711805 87.8756372 105.550106 88.0754146 105.601463 87.4023731 105.429594 86.8279494 104.949072 86.1442327 104.805679 85.7731449 104.72788 85.482883 104.608385 85.1641541 104.857036 86.9530009 103.306146 87.7836277 105.260776 89.2984795 105.473833M51.0032296 95.6432222C49.6474881 95.2008371 48.2825965 94.8296404 46.92838 94.3679327 46.2319549 94.1304685 44.5081755 93.9240221 44.8152126 92.7672105 45.1934172 91.3409 47.6593722 92.7367012 48.543883 93.0138275 49.9316499 93.4480768 50.538099 93.9728371 50.9310454 95.3935543 50.6656922 94.1640288 50.4394811 92.992471 50.0689016 91.7832851 49.7120473 90.6193546 48.8946373 89.081685 48.8646453 87.9096188 51.008313 89.0730407 51.4287098 93.0412859 51.3463588 95.2013456 51.0342384 94.1701306 50.8217524 91.0927575 51.7423553 90.2954474 52.1556354 91.295136 52.3757464 94.6542118 51.6584793 95.5623725 51.413968 94.6867551 52.5516318 87.0756975 54.7984925 87.9355517 56.1720259 88.4608204 55.6718199 92.2582134 55.1888973 93.2446814 54.586515 94.4752238 53.5306938 95.1174449 52.3477877 95.6096619 53.5871195 95.3259253 56.4058621 97.2490292 55.1136631 98.3605853 53.7970637 99.4929895 51.1775901 96.9983443 50.9188453 95.7276313M60.9158504 101.066762C60.3266849 100.312165 56.4455126 99.602823 56.5878477 98.5619468 56.7642415 97.2683518 60.5396792 99.5743477 60.9285589 100.283181 60.283476 99.4116313 59.8829045 98.218717 59.6561851 97.1941124 60.6571056 98.0544752 61.0195517 98.9545 61.0043015 100.288774 60.6586306 98.8538193 60.5213789 97.281064 60.7852071 95.8262781 60.8833167 95.2827037 60.9702427 94.1264006 61.5863502 93.9316495 62.4566275 95.4449116 63.2623457 97.4992056 62.9507335 99.2428131 62.8424572 99.851474 62.5130532 101.395245 61.7754525 101.473044 61.6183756 100.284706 63.5063486 97.5602242 64.7716057 97.6756512 65.3129873 97.7249746 65.1853941 97.7753149 65.3297625 98.2354971 65.861994 99.9353746 63.7742436 101.129306 62.5715122 101.694745 63.6420753 101.365753 64.2617412 101.94543 64.7573722 102.874439 65.0903346 103.497846 65.6998337 104.601266 64.9246159 104.992802 64.1600733 105.379254 61.6875098 103.120039 61.1781536 102.498666 60.7902905 102.025263 60.4273361 101.372872 60.5051121 100.740821 60.5925465 100.718956 60.6571056 100.733193 60.7465733 100.728108M69.9815775 105.728077C69.3476781 105.234843 66.7266795 103.850228 67.6025485 102.521039 68.7041203 100.849637 70.2814978 104.903308 70.8015292 105.472307 69.9815775 104.480754 70.0613868 102.266286 70.0664702 100.994556 70.0674869 100.747939 69.8499176 99.1909472 70.4441665 99.5001083 71.1690586 99.8763899 71.1639752 102.527141 71.168042 103.156141 71.1751587 104.190916 71.1497417 105.201283 71.3398607 106.219785 71.2859767 104.385667 71.6433394 100.177415 74.0508354 99.7004528 74.6786347 100.757092 74.1001443 101.741526 73.3935524 102.563244 72.4399075 103.672766 71.8421002 104.805679 71.0811159 106.033679 71.1736337 104.923139 72.7794783 103.303603 73.7814155 102.79003 74.5500248 102.395951 76.8329776 102.037467 77.6102288 102.556125 78.2553116 102.985798 79.0040957 104.694828 78.9481784 105.458578 78.3925633 105.678245 77.9584413 105.517563 77.4968691 105.183486 76.6306585 104.557536 76.3251464 104.186339 75.1152984 104.107524 74.2653547 104.052607 73.4306612 104.150237 72.7779532 104.713642 72.1898044 105.220605 71.9051343 106.074866 71.0185901 106.240125 72.5268335 105.736721 74.1758869 107.450836 74.5540915 108.76172 73.7102479 109.055626 72.3707733 108.878672 71.5762386 108.443915 70.6068351 107.914578 70.5321092 106.746071 70.0832454 105.83791 70.0247864 106.858447 67.6233904 106.691663 66.9269653 106.653018 67.043375 104.64703 68.6095691 105.127552 69.8117921 105.473833"/>
        <path fill="#92C148" d="M80.3176451 111.660614C79.9643491 111.028054 77.4877189 105.87859 79.0005374 105.815028 80.2622361 105.761637 80.4574385 109.999381 80.6612826 110.801268 80.527081 109.809715 81.3912582 107.597281 81.9636485 106.828955 82.4694463 106.150122 83.1551963 105.971134 83.9680312 105.808418 84.4011365 107.110149 83.3946242 108.244587 82.6346566 109.204614 82.1222504 109.85192 81.6774533 110.674146 81.1497969 111.253823 81.8538471 109.639371 85.0243608 109.793443 86.4055192 110.005992 87.0617856 110.107181 89.3625303 110.481428 89.6416087 111.339757 90.1458815 112.892173 85.8249955 112.159949 84.8901591 112.03181 84.1312082 111.928079 81.7074453 111.040257 81.4243002 112.31453 81.1680971 113.464731 82.9483021 115.378174 81.0039034 116.163789 80.3054449 114.992231 80.3359453 113.452527 80.3110367 112.114185 79.6756123 112.023674 74.1433532 112.559621 75.4045436 110.897372 76.6865759 109.208173 78.9288615 111.817737 80.392371 111.648918 80.3862709 111.511626 80.3776291 111.283315 80.3176451 111.152125M41.5989484 100.728108C40.8867647 99.6424851 36.9771254 98.8105978 37.5261321 96.8915617 38.0481968 95.069647 40.9503072 99.693334 41.4398381 100.203348 41.0423166 98.8894135 40.7271461 97.5073414 40.4180757 96.1700164 40.2396485 95.4006731 39.7496092 93.5268925 40.5822694 92.880095 41.5196475 92.1519393 42.0356121 94.3038631 42.2104809 95.1199874 42.4717674 96.3398516 42.9028393 98.7541555 42.4290669 99.9679178 41.3025865 99.06891 42.3502742 95.358977 42.7061119 94.1025017 42.8738639 93.5096039 43.0360243 92.610596 43.5331803 92.2226192 44.7913206 94.4833596 44.7862372 98.1709191 43.1748009 100.305046 44.0069528 98.7155104 46.4363073 97.6451418 48.1041693 98.5075385 48.6028504 98.7653423 49.2860587 99.2306094 49.2123495 99.848423 48.7263769 99.9363916 48.1544949 99.6979104 47.6359886 99.6984189 46.7280942 99.6989274 45.6834565 99.7685903 44.7847122 99.8784239 44.1299709 99.9587651 43.6811071 100.504373 43.0553412 100.483017 43.6856822 100.841501 45.8913674 104.262613 44.2570558 104.11871 43.209368 104.026166 43.1163419 102.310016 42.6303693 101.641354 42.4061916 101.33321 41.8907353 101.002692 41.7687338 100.812517M51.5964619 106.660137C50.073985 106.182666 49.0837396 106.038763 47.4931452 106.558439 46.844504 106.770479 46.1053783 107.142184 46.5069665 105.779434 47.0214061 104.033793 50.5970664 104.806187 51.3966844 106.134868 50.9279954 105.363999 50.2707124 100.143855 51.9116324 100.143855 52.5465484 101.994753 51.7265968 103.648867 51.849615 105.472307 51.7642139 104.603809 53.5444189 99.671469 55.4140917 100.635563 56.3570615 101.122187 55.468484 102.641551 55.0323287 103.08597 54.1157926 104.020572 53.1169054 105.034498 52.1541103 105.886725 53.851456 104.119219 56.7540747 103.493778 59.1270036 103.449031 60.0806486 103.431234 60.3719271 103.440387 60.8340077 104.204137 61.1044444 104.651607 61.3453973 105.205859 60.9870179 105.651804 60.1258908 106.723189 56.3291029 106.267075 54.9774281 106.316907 54.3369203 106.340297 53.1596059 106.714545 52.6517747 106.169445 53.3365081 106.79692 54.6947913 108.767822 53.6974291 109.457332 52.0946346 110.565329 50.7409265 107.39236 51.2573994 106.321483"/>
        <path fill="#92C148" d="M60.7465733 111.321452C59.8478291 110.678722 58.4610788 109.694797 58.7081318 108.409846 59.2423967 105.634007 61.7159768 109.837173 62.1760241 110.71991 61.2803298 109.954126 61.9518464 105.214503 63.1189939 104.689235 63.8443944 106.071815 64.0731472 109.654118 62.882616 110.901949 62.499328 109.060203 66.6707622 106.947433 67.1364012 108.685955 67.4307298 109.785816 63.4565314 110.711265 62.6182795 110.988392 64.2942749 110.812963 67.2380691 110.349221 68.733604 111.530949 69.4874715 112.126389 69.3197194 112.465043 68.6375278 112.719795 67.2980531 113.21964 65.347046 112.748271 64.0721305 112.3247 63.5032986 112.13605 62.6131961 112.053675 62.2151662 111.574171 62.5603288 112.209781 63.8260942 115.253086 62.1368819 115.052741 61.0851275 114.927653 60.555946 112.233172 60.6682891 111.253314 60.9148337 111.244161 60.9880346 111.037207 61.1700202 110.98229M70.2357473 116.999744C69.6460734 116.965675 67.9344942 114.641882 68.7910463 114.093223 69.664882 113.533886 70.7964458 116.640751 70.9997816 117.107544 70.9057388 115.597332 70.5570178 112.404532 72.3687399 111.555356 73.0768569 112.759457 73.6772059 116.852791 71.939193 117.588065 72.1201619 116.721092 75.799015 114.291534 76.2565206 116.134805 76.4878151 117.066865 73.9186671 117.61349 73.1932666 117.906379 74.0645606 117.924685 75.9967591 120.137627 75.2423833 121.170876 74.4412402 122.267178 73.4052442 120.266783 73.0295813 119.625579 72.4927748 118.708774 71.9397014 118.41741 70.9926648 117.944516 70.5432927 117.719764 69.7990836 117.670441 70.2357473 116.914826M31.8983052 106.745054C31.3665821 106.617932 30.8821345 106.260973 30.2960191 106.113003 29.0719375 105.803842 27.4859182 106.252329 26.5088896 105.235351 25.5399945 104.227019 26.0208836 104.019555 27.3323996 104.143118 28.482772 104.251426 31.1698547 104.705506 31.5302674 106.084527 30.8404507 105.076703 25.4434099 99.8911361 26.3136872 98.3544835 27.4838848 96.2895112 29.4796258 100.399116 29.6804199 101.024557 30.2162098 102.693925 30.590856 104.369395 31.2837228 105.97927 31.0158278 105.173824 30.1079334 95.0523584 31.46825 95.447454 32.7294404 95.8135658 32.537288 99.8809663 32.5347463 100.671666 32.5296629 102.333407 32.8072163 104.334818 32.317177 105.87859 31.3477735 102.813929 33.1706791 99.0867071 34.8487079 96.5391791 35.8414949 97.7554839 36.3854182 100.708786 35.7255935 102.165097 35.0469603 103.662596 33.2047378 104.449737 32.5337297 105.93554 33.7832282 105.550106 37.8865449 104.17617 38.3852259 106.497929 38.7944393 108.40171 30.6325398 108.559342 30.6274564 106.617932M41.9380109 111.957062C40.7332462 110.957374 38.1900236 110.030908 38.3999678 108.163229 40.0983301 108.0417 42.1876056 109.482248 42.655278 111.07636 41.8521015 108.473915 40.5853194 104.114134 42.0996629 101.535588 43.4106705 103.989046 42.7371206 107.801185 42.6949284 110.549057 42.7071286 108.445949 44.5015671 104.363293 46.5034082 103.518694 46.6284597 105.127552 46.4617243 107.353715 45.6580395 108.80545 45.0353236 109.929718 43.9952609 110.244981 43.093975 111.055004 44.5681596 111.065682 48.3039468 108.907148 49.7333975 110.401087 50.0089175 110.688383 50.3276464 111.252297 49.9413084 111.64485 49.4883779 112.105033 48.1438198 111.555865 47.5861714 111.511118 46.3615814 111.411963 45.0983577 111.437896 43.8575009 111.454676 45.8151164 110.734656 48.9363211 113.539479 48.653176 115.633435 47.0198811 115.648181 46.7311443 113.31727 45.7510657 112.460975 45.0073649 111.810618 43.3506864 111.576204 42.8276051 111.19433"/>
        <path fill="#92C148" d="M51.3422921 117.041949C49.880816 116.409389 47.3614853 116.265995 45.6402476 116.13633 45.1003911 114.27933 50.0983853 115.569874 50.9442623 116.628039 50.4725232 115.466651 48.8493951 112.339954 50.5767328 111.561458 51.2518077 113.064551 51.6833879 114.853414 51.7332052 116.507527 50.976796 114.362722 51.9512829 111.672817 52.4794476 109.551911 52.7356508 108.52273 52.7483592 106.063679 53.9820993 105.717907 54.999795 108.275605 53.7792718 114.15831 51.8663902 116.265995 51.8038644 114.822396 54.1895018 111.898078 55.522368 111.422641 56.311311 111.141447 57.6467189 111.393657 58.3558525 111.8335 59.1102284 112.301309 59.8412206 113.436256 59.7105774 114.353061 58.5500382 114.555439 58.1204913 113.191673 57.0631451 112.990311 55.0272453 112.602335 53.7111543 114.813243 52.4952062 115.881578 53.7792718 115.171727 59.024319 117.005846 57.7427951 118.515549 56.6488484 119.805584 50.4720148 118.245033 51.5964619 116.152094M61.2549129 123.398056C59.1686875 122.216329 57.2283555 126.451022 55.8863391 125.943042 54.7074998 125.496589 55.4334086 124.421644 55.9076894 123.968072 57.1968384 122.735496 59.3710066 122.625154 60.9641427 123.155507 58.9292595 122.060731 58.3029852 120.814426 57.9476559 118.429106 59.9830474 118.456564 61.7352937 120.431025 61.8994874 122.378028 61.5472081 120.593233 60.5096871 116.331082 62.4271438 115.019689 63.9038701 117.060254 64.0345134 121.189182 62.6406464 123.380259 62.0789312 122.072935 63.5434574 114.800022 66.1354807 116.584309 67.0774338 117.232632 66.8939232 118.241982 66.5299521 119.190313 66.0241543 120.507807 64.3867927 123.194661 63.1662695 123.90146 64.2917332 121.873099 70.4543333 122.569728 70.130521 125.539302 68.4453755 125.544387 67.0682837 124.418085 65.3973717 124.28486 63.9409789 124.168925 62.5288117 124.661651 61.3819977 123.525178M22.1127694 111.702818C21.0101809 111.661122 16.3293906 113.114891 16.1341882 111.957062 15.816476 110.072095 21.2323253 112.369447 22.2322292 112.312496 21.3721187 111.582815 20.1195701 111.139921 19.2711514 110.280067 18.0119944 109.004269 17.1767926 107.316595 16.392933 105.746382 18.008436 105.419933 21.8225075 109.24631 21.999918 110.932458 21.20945 109.08817 19.8882756 103.835482 20.9664637 101.783222 21.5968048 100.583189 22.57485 100.871502 22.4980907 102.358831 22.4503068 103.288857 21.5703711 103.857347 21.4742949 104.790932 21.2506255 106.946924 23.1050481 109.053592 23.1060648 111.204499 22.056852 109.13851 22.5860335 105.614175 25.0031879 104.698387 25.7158799 106.216734 25.063172 107.301341 24.4465561 108.638666 25.6675877 108.181026 29.3057737 108.354421 28.214877 110.276508 27.7050125 111.175515 22.5845085 113.975762 22.6211089 111.702818M32.6608145 118.31317C31.8052791 117.705018 29.774971 111.884857 31.8698382 111.968249 32.6547145 113.635075 32.8631337 115.627842 33.1686457 117.409077 33.1818625 115.276476 33.1030699 111.800956 34.4339028 110.028365 35.9685798 111.183651 35.1155861 116.125652 33.8289788 117.426366 33.3867234 115.329359 39.1289267 111.965198 38.1732484 115.11376 37.5073236 117.308905 34.6204634 116.730245 33.5605755 118.186048 35.0245933 119.11048 35.6600177 120.095931 35.437365 121.954457 34.1431326 122.354129 32.481879 118.492158 32.6608145 118.186048"/>
        <path fill="#92C148" d="M41.1755016 122.635323C40.49331 122.433962 36.365593 119.653038 36.4926779 118.586737 38.0075297 118.403173 40.5075435 120.934429 40.7932303 122.364299 40.9030316 121.124095 38.8930571 114.223396 40.6646204 113.494732 41.6711326 115.556653 41.3884959 117.952652 41.4932138 120.179832 41.5211725 120.783408 41.7565337 121.44546 41.3290201 121.87259 41.068242 120.532214 41.9695279 117.549929 42.7808378 116.415999 43.4670962 115.457498 44.5793431 115.225627 45.7327654 115.135116 46.5374669 117.225005 44.408541 118.978273 43.2322433 120.593233 42.7981214 121.18969 42.2897818 121.62038 41.6919746 122.045477 42.0508623 119.163872 44.3414402 119.661173 46.2944806 120.160001 46.7616446 120.279496 50.3855971 121.05189 48.9922385 122.318535 48.4427235 122.817362 46.3193893 121.23698 45.4003114 121.253251 44.0379615 121.27715 42.9673984 122.399893 41.7189165 122.381588 42.689845 122.350061 44.8574048 125.722358 43.4808213 126.370681 42.4204251 126.870017 40.6661454 122.876856 40.7942469 122.126835M51.2152072 128.864309C49.39281 129.202454 48.6872348 130.718258 46.6594684 130.624697 46.2405966 128.591759 50.6865341 128.185477 51.9406077 127.958691 51.144548 128.383787 49.3480762 128.166154 48.5103326 127.72682 48.0406269 127.480711 46.5908426 126.122538 46.8826295 125.494555 47.5749879 124.004683 50.5152237 127.313927 51.2177489 127.709023 50.840561 126.685435 49.5971625 122.501082 51.824198 122.643459 52.179019 124.329607 51.8968905 126.03457 51.8399565 127.723769 52.3970966 124.467916 54.2398274 122.633289 57.1709131 121.154096 57.5125173 123.159575 55.5650686 124.836062 54.2022103 125.978636 53.3349831 126.706283 52.753951 127.503593 51.9955084 128.329379 53.0874217 127.331216 59.212913 126.135759 58.9699267 128.772273 58.7376155 131.287766 52.1342851 129.280253 50.7144928 128.8338 50.8461527 128.704644 50.9945879 128.741763 51.2152072 128.737187M12.4543184 117.423315C11.8722696 117.757901 8.19341648 118.432157 7.64440979 117.429417 6.67653133 115.662928 12.0888223 116.019887 12.6469791 116.782619 11.9037867 116.368201 5.64002704 109.296142 7.94280509 108.911724 10.0554642 108.55985 11.681134 114.92206 12.5620864 116.242096 12.3231668 115.258679 9.82518636 106.397248 11.687234 106.814717 13.9935705 107.332358 13.0988929 114.688155 13.0877094 116.534477 13.0506006 114.512218 13.7200838 110.858727 15.7615753 109.801579 17.267277 111.666715 15.5526478 115.987852 13.7272006 117.008388 14.692029 115.332918 18.4847502 113.815588 19.042907 116.532443 19.3392689 117.975534 18.7724704 118.090452 17.5311052 118.18554 16.4839258 118.265881 13.1116014 118.502328 12.5814033 117.550437"/>
        <path fill="#92C148" d="M22.2398543,123.398056 C21.507337,123.404667 17.0715663,123.492127 17.0237824,122.321077 C16.9343146,120.145763 20.957822,122.26972 21.5744378,122.736004 C21.204875,122.205142 17.5534722,117.035847 19.1206829,116.533969 C20.3569647,116.138364 22.5880668,121.103756 23.2738169,122.091749 C22.7044766,121.23342 20.0733112,111.127209 23.450719,113.607617 C25.4144346,115.050199 23.9570252,119.578798 23.4974862,121.500377 C23.4939279,120.965447 25.7351968,114.808158 27.394417,115.829712 C29.0531289,116.850757 24.8252691,121.823776 23.8965328,122.690749 C25.3142917,121.461223 28.4532883,120.108135 29.8115715,122.133954 C30.3244861,122.898721 30.5212135,125.275396 29.6387361,125.65422 C29.2386728,124.290454 27.9906993,123.417379 26.6354661,123.269917 C25.2695578,123.121439 23.5162948,124.213672 22.3669391,123.270934"/>
        <path fill="#92C148" d="M32.4066448,128.737187 C30.8953514,128.951769 27.2708905,129.011262 26.4336553,127.338843 C25.4301931,125.335906 30.7011657,126.9529 31.6212602,127.480711 C31.6019433,125.73507 30.8943347,122.981096 32.2851516,121.585803 C32.8585586,123.133642 32.1595918,125.263193 31.6288853,126.812049 C31.9206722,125.962873 33.4629743,120.495603 35.6752679,121.735299 C37.2328202,122.607865 34.5477709,127.280367 33.3145392,127.950555 C34.2148085,126.406783 42.222681,123.026351 41.4352631,126.84205 C40.9645407,129.122113 35.9172375,128.15751 34.3180014,128.872953 C34.7948239,130.548932 36.2105494,132.134908 36.200891,133.92733 C33.5829424,134.357003 32.2510929,131.209967 32.152475,129.118553"/>
        <path fill="#92C148" d="M40.9213318,134.076317 C40.3057327,133.333415 36.0438141,129.895015 38.5651781,129.144995 C40.7078292,128.506841 41.6721493,132.145078 41.5572646,133.68529 C41.5125307,132.797977 42.3711162,126.131183 43.9088432,126.775946 C45.4852041,127.436981 42.9226645,132.858487 42.2059058,133.807327 C42.469734,131.324377 46.244155,127.802076 48.789411,127.201551 C50.2788458,131.402684 46.2167047,132.669838 43.3735617,134.338697 C44.3688905,134.041232 54.6612409,134.124624 52.701592,136.869445 C51.307725,138.822042 44.7318449,135.889588 42.9455398,134.945324 C42.4417754,136.107221 43.1092252,137.68862 42.0711958,138.784922 C41.1846517,139.721049 40.6676704,139.449517 40.1578059,138.492541 C39.5172981,137.289965 40.195423,134.28073 41.9380109,134.203439"/>
        <polyline fill="#9C9B9B" points=".175 118.736 40.33 141.926 40.219 152.47 .222 129.338 .175 118.736"/>
        <path fill="#E85740" d="M48.8926039 140.015973C49.8437072 139.45511 50.6240084 139.894444 50.6346835 140.998373 50.645867 142.103319 49.8833577 143.45539 48.9312377 144.017778 47.9781011 144.580675 47.1972916 144.139816 47.1876332 143.033344 47.1774664 141.92789 47.9409923 140.577344 48.8926039 140.015973M58.42397 134.740403C59.3750733 134.17954 60.1548661 134.618875 60.1660496 135.722803 60.1772331 136.827749 59.4147238 138.17982 58.4620955 138.742209 57.5094672 139.305106 56.7286577 138.864246 56.7189993 137.757775 56.7088325 136.652321 57.4723585 135.301775 58.42397 134.740403"/>
        <path fill="#2C2E33" d="M53.8265474 152.983958C55.2117726 152.170376 56.3509615 152.811072 56.3718034 154.415353 56.392137 156.021161 55.2844651 157.984944 53.8972066 158.801068 52.5094397 159.617192 51.3687258 158.974971 51.3504255 157.36713 51.331617 155.760306 52.4403055 153.798048 53.8265474 152.983958M73.3127264 143.49251C74.6979516 142.678419 75.8371405 143.319115 75.8579824 144.923396 75.878316 146.529204 74.7711525 148.492987 73.383894 149.309111 71.996127 150.125744 70.8554132 149.483522 70.8366046 147.875173 70.817796 146.268349 71.9269929 144.3066 73.3127264 143.49251M97.7130237 129.932644C99.0982489 129.119062 100.237946 129.759249 100.25828 131.364039 100.278613 132.969846 99.1714498 134.933121 97.7841912 135.749245 96.3964243 136.565878 95.2557104 135.923656 95.2369018 134.315815 95.2180933 132.708991 96.3272901 130.746734 97.7130237 129.932644"/>
        <path fill="#E85740" d="M68.0188786 129.464834C68.9699818 128.903971 69.750283 129.343305 69.7609582 130.447234 69.7721416 131.55218 69.0096323 132.904251 68.0575124 133.466639 67.1043758 134.029536 66.3235663 133.588677 66.3133995 132.482205 66.303741 131.376751 67.067267 130.026205 68.0188786 129.464834M77.6305624 123.811966C78.5816656 123.251103 79.3614584 123.690437 79.3726419 124.794366 79.3838254 125.899312 78.6208077 127.251383 77.6686878 127.813771 76.7160595 128.376668 75.9347417 127.935809 75.9250832 126.829338 75.9149165 125.723883 76.6789508 124.373338 77.6305624 123.811966M87.2890133 118.091469C88.2401166 117.530606 89.0199094 117.96994 89.0310929 119.073869 89.0422764 120.178815 88.2797671 121.530886 87.3271388 122.093275 86.3740022 122.656171 85.593701 122.215312 85.5835342 121.108841 85.5733674 120.003386 86.3374017 118.652841 87.2890133 118.091469M96.9474643 112.370972C97.8985676 111.810109 98.6783604 112.249443 98.6895439 113.353372 98.7007274 114.458318 97.9382181 115.810389 96.9855898 116.372778 96.0324532 116.935675 95.252152 116.494815 95.2419852 115.388344 95.2318184 114.282889 95.9958527 112.932344 96.9474643 112.370972M106.605915 107.158964C107.557019 106.598101 108.336811 107.037944 108.347995 108.141364 108.359178 109.24631 107.596161 110.598381 106.644041 111.160769 105.691413 111.723666 104.910603 111.282807 104.900436 110.176335 104.890778 109.070881 105.654304 107.720335 106.605915 107.158964"/>
        <path stroke="#EC6D54" stroke-width=".5" d="M77.6488626,125.813377 C82.0780249,130.477235 82.7312412,135.200077 80.3110367,140.839724 C78.9390283,144.035575 75.4884196,145.559516 73.3701688,146.661411 C74.6618595,146.637512 75.1590156,145.711554 76.3083712,145.134928 C78.4596641,144.055406 80.2876531,142.375869 82.0851416,140.784808 C85.0340192,138.173719 87.5935087,133.817497 87.9600215,129.862981 C88.2543501,126.686452 87.480149,123.148388 87.3073136,120.09288 M68.0376872,131.466245 C74.6135673,134.945833 79.5947863,141.447368 73.2008917,146.915655 M106.624216,109.160375 C111.090487,113.705246 107.032921,118.784539 104.719467,123.968072 C102.938754,127.958691 100.352831,129.913829 97.601189,132.932218 C101.383235,128.054287 102.20522,118.659451 96.9657646,114.372383 M58.4427786,136.741815 C64.522011,140.766502 59.0365192,151.524087 54.3923293,154.797228 M48.9114125,142.017384 C52.2451031,142.332138 55.6611447,145.267135 56.3631616,148.385695 C57.0992372,151.656294 55.413075,153.517871 53.3756502,155.814206"/>
      </g>
      <g transform="translate(186)">
        <use fill="#171615" stroke="#4E4B49" stroke-width="2.12" mask="url(#b)" xlink:href="#a"/>
        <polygon fill="#FFFFFF" points="7.419 12.714 117.641 12.714 117.641 165.286 7.419 165.286"/>
        <g transform="translate(11.658 16.463)">
          <rect width="101.744" height="16.952" fill="#777675"/>
          <rect width="101.744" height="52.976" y="78.405" fill="#7BCAEC"/>
          <rect width="24.376" height="3.179" x="6.359" y="58.274" fill="#D8D8D8"/>
          <rect width="24.376" height="3.179" x="7.419" y="85.821" fill="#FFFFFF"/>
          <rect width="55.111" height="3.179" x="7.419" y="92.179" fill="#FFFFFF"/>
          <rect width="55.111" height="3.179" x="7.419" y="97.476" fill="#FFFFFF"/>
          <rect width="55.111" height="3.179" x="7.419" y="102.774" fill="#FFFFFF"/>
          <rect width="18.598" height="7.417" y="134.56" fill="#2591BF"/>
          <rect width="18.598" height="7.417" x="41.573" y="134.56" fill="#2591BF"/>
          <rect width="18.598" height="7.417" x="20.786" y="134.56" fill="#2591BF"/>
          <rect width="18.598" height="7.417" x="62.359" y="134.56" fill="#2591BF"/>
          <rect width="18.598" height="7.417" x="83.145" y="134.56" fill="#2591BF"/>
          <rect width="24.376" height="3.179" x="6.359" y="63.571" fill="#D8D8D8"/>
          <rect width="24.376" height="3.179" x="6.359" y="68.869" fill="#D8D8D8"/>
          <rect width="24.376" height="3.179" x="39.214" y="58.274" fill="#D8D8D8"/>
          <rect width="24.376" height="3.179" x="39.214" y="63.571" fill="#D8D8D8"/>
          <rect width="24.376" height="3.179" x="39.214" y="68.869" fill="#D8D8D8"/>
          <rect width="24.376" height="3.179" x="72.068" y="58.274" fill="#D8D8D8"/>
          <rect width="24.376" height="3.179" x="72.068" y="63.571" fill="#D8D8D8"/>
          <rect width="24.376" height="3.179" x="72.068" y="68.869" fill="#D8D8D8"/>
          <ellipse cx="19.077" cy="40.262" stroke="#DBD9DB" stroke-width="3.179" rx="10.598" ry="10.595"/>
          <ellipse cx="50.872" cy="40.262" stroke="#DBD9DB" stroke-width="3.179" rx="10.598" ry="10.595"/>
          <ellipse cx="82.667" cy="40.262" stroke="#DBD9DB" stroke-width="3.179" rx="10.598" ry="10.595"/>
          <ellipse cx="19.077" cy="40.262" stroke="#00AAD6" stroke-width="3.179" stroke-dasharray="31.795 42.393" transform="rotate(-7 19.077 40.262)" rx="10.598" ry="10.595"/>
          <ellipse cx="50.872" cy="40.262" stroke="#E85740" stroke-width="3.179" stroke-dasharray="52.991 52.991" transform="rotate(107 50.872 40.262)" rx="10.598" ry="10.595"/>
          <ellipse cx="82.667" cy="40.262" stroke="#777675" stroke-width="3.179" stroke-dasharray="42.393 63.59" transform="rotate(49 82.667 40.262)" rx="10.598" ry="10.595"/>
        </g>
      </g>
    </g>
  </g>
</svg>
