<svg xmlns="http://www.w3.org/2000/svg" xmlns:xlink="http://www.w3.org/1999/xlink" width="120" height="120" viewBox="0 0 120 120">
  <defs>
    <path id="andre-a" d="M120,59.9999233 C120,93.1369885 93.1369885,120 59.9999233,120 C26.8628581,120 0,93.1369885 0,59.9999233 C0,26.8628581 26.8628581,0 59.9999233,0 C93.1369885,0 120,26.8628581 120,59.9999233"/>
  </defs>
  <g fill="none" fill-rule="evenodd">
    <mask id="andre-b" fill="#fff">
      <use xlink:href="#andre-a"/>
    </mask>
    <use fill="#7BCAEC" xlink:href="#andre-a"/>
    <path fill="#26232F" d="M47.8677273,123.91587 L81.337843,123.91587 L98.9092204,123.91587 L92.4751043,105.819985 C92.4751043,105.819985 75.9660825,92.0866364 75.6909321,92.9106373 C75.4157817,93.7346382 74.0400299,100.051979 67.9867219,100.326646 C61.9334139,100.601313 49.5516475,97.8546429 48.7261964,98.9533108 C47.9007453,100.051979 47.8677273,123.91587 47.8677273,123.91587" mask="url(#andre-b)"/>
    <path fill="#828683" d="M24.7881698,89.6146885 C29.465726,86.3186848 34.1432822,83.846682 34.1432822,83.846682 L37.1699362,78.9026765 L39.9214398,78.0786756 C39.9214398,78.0786756 74.040085,86.5933518 77.066739,87.6920197 C80.093393,88.7906876 82.5800781,89.7099609 87.7451172,91.8505859 C92.9101563,93.9912109 99.5224454,104.562683 100.623047,106.485352 C101.723648,108.40802 98.0820313,113.463867 94.1260615,109.116044 L76.2412879,95.108028 C76.2412879,95.108028 74.865536,99.2280327 72.1140324,100.876035 C69.3625288,102.524036 66.0607244,103.622704 62.2086193,102.524036 C58.3565142,101.425368 52.5783566,99.2280327 52.3032062,100.326701 C52.0280558,101.425368 52.3078837,118.422585 50.6569816,123.915924 L-6.80019261,123.915924 C-5.14929042,122.267923 4.42704285,108.292043 9.3797494,102.524036 C9.3797494,102.524036 20.1106136,92.9106922 24.7881698,89.6146885 Z" mask="url(#andre-b)"/>
    <path fill="#E7B18E" d="M33.6846065,49.0554403 C33.6846065,49.0554403 31.8603596,48.7837946 30.9878578,49.5457208 C30.115356,50.3079217 29.4607733,52.2673959 30.3332751,54.4449556 C31.206052,56.6222408 32.4057076,59.6704949 33.1689747,60.7592747 C33.932517,61.8480546 35.1321726,63.2634136 35.6775206,64.8963087 C36.2228686,66.5294786 36.0046744,67.5092157 37.20433,68.3801846 C38.4039856,69.2511536 40.1489892,69.7955436 40.1489892,69.7955436 L41.3486447,76.8717889 L39.0582931,81.3356766 C39.0582931,81.3356766 44.9478867,87.9765747 46.5836556,89.8272808 C48.2194245,91.6782615 55.0904794,95.9243383 57.2715963,96.5774964 C59.4527133,97.2306544 70.0319696,96.5774964 71.3403096,96.4684536 C72.6491999,96.3596854 73.7398959,95.3796737 73.7398959,95.3796737 L75.048511,88.3034284 C75.048511,88.3034284 78.2113645,85.2548996 80.7196352,81.1178656 C83.2281811,76.9808317 85.409298,70.8843235 85.7367269,69.1423855 C86.0636056,67.4004475 86.1728403,64.4609616 86.2817998,61.6302437 C86.3910345,58.7998005 85.8454113,51.6142378 86.0636056,51.2876588 C86.2817998,50.9608051 86.1728403,47.5859719 86.1728403,47.5859719 C86.1728403,47.5859719 87.4817305,39.2031358 87.3724958,37.5702407 C87.2635363,35.9370708 86.6092287,25.376675 82.0285255,22.9815789 C77.4480974,20.5864829 50.8369299,17.973576 47.4561574,19.3889349 C44.0753849,20.8042938 39.8218354,35.501449 39.8218354,35.501449 L33.6846065,49.0554403 Z" mask="url(#andre-b)"/>
    <path fill="#B9866B" d="M66.0854329 58.516152C66.0854329 58.516152 65.9514347 54.732065 65.9572128 54.686745 65.9572128 54.686745 65.5034899 51.7088056 64.8546853 51.0614156 64.2064311 50.4140255 63.6231123 49.1035894 63.1685639 48.9896026 62.7142906 48.8758904 59.9465531 48.6836236 59.622426 48.6836236 59.2980237 48.6836236 59.7520218 49.8490355 59.1034924 50.0432251 58.4552382 50.2374146 57.417371 50.4964256 57.6768378 50.4316042 57.9363046 50.3670575 61.8272059 52.5679639 62.0866727 53.0857112 62.3461394 53.6037331 62.4110749 54.2513978 62.2162685 54.8339665 62.0217372 55.4165351 61.5030787 57.034873 62.7352021 56.6462192 63.3276008 56.459995 63.9180735 56.2875041 64.3880303 56.0515652L66.0854329 58.516152zM65.2368692 60.7185966C65.2368692 60.7185966 62.6056062 62.3432517 62.3461394 62.8612736 62.0866727 63.3792956 60.6286509 67.4309081 60.6286509 67.4309081L62.3461394 66.0334025C62.3461394 66.0334025 64.3841782 67.1949692 65.0701281 66.7453393 66.6973673 65.6785328 69.1555607 66.0334025 69.8040901 66.3569602 70.4526195 66.6807926 70.9093691 67.1589878 71.7527049 67.0944411 72.5957657 67.0296197 73.2431945 66.2913148 73.2431945 66.2913148L74.8621792 66.1627707C74.8621792 66.1627707 74.6029876 66.6159712 75.4460483 66.2924135 76.289109 65.9685811 77.3916365 65.2563697 77.6508281 64.5444329 77.9105701 63.8322214 77.712737 63.6352852 77.7143879 62.9895431 77.7160388 62.3432517 76.3537693 61.6313149 76.3537693 61.6313149 76.3537693 61.6313149 75.9008718 61.5563308 75.5764696 60.8441194 75.2520673 60.1321826 74.0708468 58.2894418 74.0708468 58.2894418L75.2000639 62.1215955C75.2000639 62.1215955 76.8080426 62.1490622 76.8727029 62.8612736 76.9376384 63.5734851 76.6781716 64.026411 76.0299174 64.2208752 75.3811128 64.4150647 74.6029876 64.4150647 74.6029876 64.4150647 74.6029876 64.4150647 73.4357997 65.3860125 72.1387409 65.2563697 70.8416821 65.1270015 69.5446233 64.1560538 69.5446233 63.9618642 69.5446233 63.7676747 68.182629 64.1560538 67.7935664 64.2854219 67.4045037 64.4150647 64.8755967 64.9976334 64.2914525 63.6380318 63.7078586 62.278705 65.2368692 60.7185966 65.2368692 60.7185966M72.7871052 52.0502167C72.9816365 51.7912057 72.7871052 50.8199833 74.1490995 49.8490355 75.5108187 48.8780878 76.4837504 48.489434 76.872813 48.489434 77.2618756 48.489434 81.6717105 48.489434 81.2826479 48.6836236 80.8935852 48.8780878 78.6885302 49.5900246 78.6885302 49.9138569 78.6885302 50.2374146 78.7534657 50.4964256 78.7534657 50.4964256 78.7534657 50.4964256 74.5670529 52.7780842 74.9740003 53.4177836 75.3812229 54.0572083 76.4837504 54.8985132 76.7432172 55.3519884 77.0024088 55.8049142 75.70535 56.5171257 74.9921602 55.9991038 74.2786953 55.4810819 73.046572 54.5101341 72.8520407 53.7979227 72.6575094 53.0859858 72.7871052 52.0502167 72.7871052 52.0502167" mask="url(#andre-b)"/>
    <path fill="#A25F4D" d="M62.1199383,74.3240055 C62.2674189,74.3240055 64.3431533,74.0625225 64.9820524,73.8664103 C65.6212267,73.6700234 67.4396955,72.8361345 67.8328853,72.7869691 C68.2258001,72.7380784 69.012455,72.7380784 69.4056448,72.8852998 C69.7988347,73.0322467 70.4867106,73.1794682 71.3223423,73.1794682 C72.1576988,73.1794682 73.3865203,72.5416915 73.7307334,72.4925261 C74.0746714,72.4433607 74.5171131,72.5416915 74.6645937,72.6397476 C74.8120743,72.7380784 75.5007757,73.3755804 75.5007757,73.3755804 L77.0443692,73.7312741 C77.0443692,73.7312741 75.4595031,75.6880017 75.2633209,75.7860578 C75.0665884,75.8843886 67.3648546,76.3191864 65.8410719,76.2208556 C64.3175643,76.1227995 62.1199383,74.3240055 62.1199383,74.3240055" mask="url(#andre-b)"/>
    <path fill="#B9866B" d="M74.3560676,53.4021001 C74.3560676,53.4021001 76.3555853,54.0621248 77.2052496,54.2439544 C78.0554643,54.4260586 79.8769597,54.0621248 80.0593844,53.9409967 C80.2415339,53.8198685 81.637922,53.0922757 81.8808798,52.9107209 C82.1235624,52.7288913 83.4596926,52.7895927 83.4596926,52.7895927 C83.4596926,52.7895927 82.5486697,51.0921508 82.1235624,50.9103213 C81.6987302,50.7284917 79.5126606,50.3648327 79.5126606,50.3648327 L74.3560676,53.4021001 Z" mask="url(#andre-b)"/>
    <path fill="#AAA3A4" d="M73.5015882 53.3347792C73.5015882 53.3347792 73.8053542 51.8801429 74.472869 51.4557824 75.140934 51.0314219 76.11249 50.4255066 77.6913028 50.4255066 79.2698404 50.4255066 80.2413963 51.0314219 80.2413963 51.0314219L81.4605876 51.6142653C81.4605876 51.6142653 81.0297021 52.3511968 80.3630128 52.849992 79.6957732 53.3487872 76.8410881 53.4559073 75.8695322 53.4559073 74.8979763 53.4559073 73.5015882 53.3347792 73.5015882 53.3347792M52.6747968 52.0014084C53.3428618 51.6377493 54.8000582 50.9101565 56.439404 50.6681749 58.0790251 50.4256439 59.0503058 50.7283269 60.0218618 51.091986 60.9931426 51.4559197 61.9041654 52.6075984 61.9041654 52.6075984 61.9041654 52.6075984 61.3577168 53.3346419 59.4754132 53.3346419 57.5931095 53.3346419 53.9074704 53.0297615 53.9074704 53.0297615L52.6747968 52.0014084z" mask="url(#andre-b)"/>
    <path fill="#D8CECD" d="M80.8172585 52.495754C80.8172585 52.495754 80.6568459 52.9755972 79.6957457 53.3485949 78.7346454 53.7218674 76.7056866 53.6152966 76.2783781 53.5087258 75.8510696 53.402155 74.3561777 53.402155 74.3561777 53.402155 74.3561777 53.402155 74.7298319 52.7624556 75.3172779 52.4427433 75.9047239 52.1227562 78.9481621 51.7494838 79.6957457 51.7494838 80.4433292 51.7494838 81.0841544 52.0161854 81.0841544 52.0161854L80.8172585 52.495754zM60.1318119 53.5936254C60.1318119 53.5936254 59.3509351 53.7218948 58.6033516 53.7218948 57.8560432 53.7218948 55.0902317 53.6202681 54.2419432 53.1582782 53.6041446 52.8110991 53.5306795 52.5490668 53.5306795 52.5490668 53.5306795 52.5490668 54.3883232 51.9294181 55.5599134 51.8027967 56.7315037 51.6764499 58.3898349 51.3229535 59.0840393 51.4830843 59.7782436 51.6429405 60.792723 52.4427707 60.792723 52.4427707L61.1129981 52.9223393 60.1318119 53.5936254z" mask="url(#andre-b)"/>
    <path fill="#3E2B21" d="M74.7583099,53.3511219 L73.7347506,53.1767084 C73.7347506,53.1767084 73.8863584,52.4205502 74.1389465,52.1184165 C74.3912594,51.8157335 75.7042769,51.1603781 75.7042769,51.1603781 C75.7042769,51.1603781 78.2287815,50.6061001 79.3398387,50.8077057 C80.4506207,51.0095859 81.4604225,51.6144026 81.4604225,51.6144026 L81.0567769,50.8077057 C81.0567769,50.8077057 81.8142659,51.110114 82.0159511,51.2614555 C82.2179115,51.4125224 83.0763806,51.9165363 83.0763806,51.9165363 C83.0763806,51.9165363 82.9250479,51.1603781 82.0665788,50.7069029 C81.2081096,50.2534277 80.0502769,50.1224116 79.7437594,50.1020862 C78.7309309,50.0350675 76.0823335,50.7071776 75.4434344,50.7195376 C74.8606659,50.7307989 73.7683189,51.7264667 73.3814575,52.6726945 C73.232326,53.0371775 73.3814575,53.8320638 73.3814575,53.8320638 L74.7583099,53.3511219 Z" mask="url(#andre-b)"/>
    <path fill="#301507" d="M58.6794857,51.3614068 C59.1073445,52.4430454 58.575754,53.6658628 57.492487,54.0929699 C56.4089449,54.5200771 55.1837003,53.9894205 54.7555664,52.9080566 C54.3279827,51.826418 54.859298,50.603326 55.9428402,50.1764935 C57.0261072,49.7491117 58.2513517,50.2797683 58.6794857,51.3614068" mask="url(#andre-b)"/>
    <path stroke="#1D0500" stroke-width=".5" d="M58.6794857,51.3614068 C59.1073445,52.4430454 58.575754,53.6658628 57.492487,54.0929699 C56.4089449,54.5200771 55.1837003,53.9894205 54.7555664,52.9080566 C54.3279827,51.826418 54.859298,50.603326 55.9428402,50.1764935 C57.0261072,49.7491117 58.2513517,50.2797683 58.6794857,51.3614068 Z" mask="url(#andre-b)"/>
    <path fill="#1D0500" d="M58.8673033,51.845013 C58.8673033,51.845013 57.8464955,51.5714447 56.7313111,51.6763675 C55.7016984,51.7733249 54.557348,52.2344908 54.5823867,52.3438082 C54.4442612,51.1630149 55.2917244,50.094011 56.4748709,49.9561282 C57.6580175,49.8182454 58.7291779,50.663945 58.8673033,51.845013" mask="url(#andre-b)"/>
    <path fill="#000" d="M57.5245971,51.816585 C57.7006933,52.2612708 57.4819488,52.7644607 57.0364803,52.9402476 C56.5904616,53.1157597 56.0863861,52.8979488 55.910565,52.4527137 C55.7344688,52.0077532 55.9529382,51.5045633 56.3986818,51.3290511 C56.8444254,51.1532642 57.3485008,51.3716245 57.5245971,51.816585" mask="url(#andre-b)"/>
    <path fill="#FEFEFE" d="M58.3675202,51.6443962 C58.3732984,51.8498471 58.2112348,52.02069 58.0054223,52.026458 C57.799885,52.0319513 57.6281912,51.8701725 57.6226882,51.6647216 C57.61691,51.4595454 57.7792487,51.2884278 57.9847861,51.2829345 C58.1905985,51.2771665 58.3617421,51.43922 58.3675202,51.6443962" mask="url(#andre-b)"/>
    <path fill="#301507" d="M79.1719969,51.2136085 C79.6001309,52.2952471 79.0685404,53.5183391 77.9852734,53.9451716 C76.9014561,54.3722788 75.6764867,53.8416222 75.2483527,52.7602583 C74.8207691,51.6786197 75.3520844,50.4555277 76.4356266,50.0286952 C77.5188935,49.6015881 78.7441381,50.13197 79.1719969,51.2136085" mask="url(#andre-b)"/>
    <path stroke="#1D0500" stroke-width=".5" d="M79.1719969,51.2136085 C79.6001309,52.2952471 79.0685404,53.5183391 77.9852734,53.9451716 C76.9014561,54.3722788 75.6764867,53.8416222 75.2483527,52.7602583 C74.8207691,51.6786197 75.3520844,50.4555277 76.4356266,50.0286952 C77.5188935,49.6015881 78.7441381,50.13197 79.1719969,51.2136085 Z" mask="url(#andre-b)"/>
    <path fill="#1D0500" d="M79.3598146,51.6972422 C79.3598146,51.6972422 78.3390067,51.4236738 77.2240974,51.5285966 C76.1944848,51.6255541 75.0501344,52.0869946 75.074898,52.1960374 C74.9370476,51.0152441 75.7845107,49.9462402 76.9676573,49.8083574 C78.1508039,49.6707492 79.2219642,50.5164488 79.3598146,51.6972422" mask="url(#andre-b)"/>
    <path fill="#000" d="M78.0173835,51.6687867 C78.1934797,52.1137472 77.9747352,52.6169371 77.5292667,52.7927239 C77.083248,52.9682361 76.5791725,52.7501505 76.4033514,52.3049154 C76.2272552,51.8599549 76.4457246,51.3570396 76.8914682,51.1815274 C77.3372118,51.0054659 77.8412872,51.2238262 78.0173835,51.6687867" mask="url(#andre-b)"/>
    <path fill="#FEFEFE" d="M78.8603066,51.4968726 C78.8660848,51.7020488 78.7040212,51.8731664 78.4982087,51.8789344 C78.2926714,51.8844277 78.1209776,51.7223742 78.1154746,51.517198 C78.1096964,51.3117471 78.2720351,51.1406295 78.4775724,51.1351362 C78.6833849,51.1293682 78.8545284,51.2914217 78.8603066,51.4968726" mask="url(#andre-b)"/>
    <path fill="#201208" d="M74.0379113,52.3200495 C74.0379113,52.3200495 74.5934398,51.4630886 75.7042219,51.1604056 C76.815279,50.8582719 78.430962,50.5555889 79.3400588,50.8077332 C80.2486053,51.0598774 81.2083297,51.5133526 81.7635832,51.9165637 C82.3191118,52.3200495 82.6724048,52.6224579 82.8743652,52.6224579 C83.0766007,52.6224579 83.4802463,52.5213804 83.4802463,52.5213804 C83.4802463,52.5213804 82.2178564,52.0679052 81.8645634,51.7149582 C81.5109952,51.3622858 81.0567219,51.0598774 80.4002131,50.7069304 C79.7437044,50.354258 79.1378233,50.2029165 78.4813145,50.1523778 C77.8250809,50.1021137 75.9061822,50.404522 75.5528892,50.5555889 C75.1993209,50.7069304 74.2398716,51.4630886 74.1895191,51.6144301 C74.1388914,51.7652222 74.0379113,52.3200495 74.0379113,52.3200495" mask="url(#andre-b)"/>
    <path fill="#4C3028" d="M64.1507681 48.84944C64.1507681 48.84944 62.9362544 49.1526724 62.086315 49.1526724 61.2361003 49.1526724 58.9894976 48.9705682 57.8968755 48.7887386 56.8037031 48.6069091 54.9822077 48.6676105 54.0103766 48.7283119 53.0390958 48.7887386 51.1567922 49.2130991 50.428194 49.45563 49.6995959 49.698161 47.452718 51.0313945 47.452718 51.0313945 47.452718 51.0313945 47.8172922 49.6374596 48.2423995 49.1526724 48.6675069 48.6676105 49.5171712 47.5162065 50.3673858 47.2736756 51.2173253 47.0311446 53.4033949 46.3035518 54.1319931 46.1824237 54.8605913 46.0615702 56.5607453 45.8190393 56.9858527 46.0615702 57.41096 46.3035518 60.3256278 46.6674856 60.810993 46.7279123 61.2969086 46.7886137 64.3329177 46.9097418 64.6972168 47.2129742 65.0615158 47.5162065 65.790114 48.0616951 65.6079645 48.2435247 65.4258149 48.4250795 64.1507681 48.84944 64.1507681 48.84944M73.9873937 49.576868C74.3175741 49.7419429 76.1731881 49.213209 77.0839359 49.0313794 77.9946836 48.8495499 80.3020945 48.7281471 81.0309678 48.7888485 81.7592908 48.8495499 83.2775705 49.0918062 84.12751 49.4557399 84.9774495 49.819399 85.6455146 50.728272 85.6455146 50.728272 85.6455146 50.728272 85.9490054 49.7586976 85.767131 49.0313794 85.5847064 48.3040613 85.5847064 47.5767431 84.5523422 47.0916812 83.5202532 46.606894 82.1235899 46.3643631 81.3341835 46.3036617 80.5450523 46.2429603 78.4805991 46.7887236 77.5090432 46.9098517 76.5377624 47.0309798 74.5943754 47.3949136 74.108735 47.5767431 73.6230946 47.7585727 73.0763708 48.4251894 73.2587955 48.6070189 73.440945 48.7888485 73.6230946 49.3950385 73.9873937 49.576868" mask="url(#andre-b)"/>
    <path fill="#B9866B" d="M77.1807888 53.6730865C78.0761281 53.6409505 79.2595498 53.513505 79.2595498 53.513505L78.5879077 54.2798259C78.5879077 54.2798259 76.9530029 54.7999268 75.8171387 54.2798259 74.6812744 53.759725 74.9740829 53.4176462 74.9740829 53.4176462 74.9740829 53.4176462 76.2854495 53.7049479 77.1807888 53.6730865zM60.724018 53.5828859C60.724018 53.5828859 58.8562973 54.1613345 58.0833999 54.2898787 57.3107777 54.4186975 57.0529618 54.4829696 56.0869089 54.4829696 55.120856 54.4829696 52.9312094 53.4543417 52.2229723 53.4543417 51.514185 53.4543417 49.8396199 53.5186138 50.2262062 53.1327067 50.6125173 52.7470743 51.719172 51.916756 51.719172 51.916756 51.719172 51.916756 52.7892318 52.5745834 53.6199107 52.8610611 54.4503145 53.1478134 55.5630226 53.684238 56.7866163 53.7485101 58.0104851 53.8127821 60.724018 53.5828859 60.724018 53.5828859" mask="url(#andre-b)"/>
    <path fill="#3E2B21" d="M51.7193096,51.9166461 C51.7193096,51.9166461 53.1836598,51.3620935 54.0418538,51.0599598 C54.9005981,50.7572768 58.2332193,50.2029989 58.9400806,50.2532629 C59.6469419,50.3038017 60.4547834,50.3543404 60.8083516,50.4548685 C61.1616446,50.5556713 62.0203889,51.160488 62.2220742,51.3620935 C62.4240345,51.5639737 62.62627,52.0174489 62.4746622,51.8661074 C62.3230543,51.7150406 60.505411,51.0094211 60.6567437,51.0094211 C60.8083516,51.0094211 61.7678009,52.0679876 61.9697613,52.1687904 C62.1717216,52.2695932 62.8282304,52.7736071 62.9289354,52.9752127 C63.0299156,53.1768182 63.484464,53.6302934 63.1815235,53.7816349 C62.8785829,53.9329764 62.62627,53.9329764 62.4240345,53.8824377 C62.2220742,53.8321736 61.0606645,53.1768182 60.7073714,53.3281597 C60.3538032,53.4792266 61.3638802,52.723343 61.3638802,52.723343 L60.4041557,51.3118295 C60.4041557,51.3118295 59.0680255,50.4186124 56.2009587,50.7509595 C55.3600992,50.8481916 52.9816995,52.1182517 52.9816995,52.1182517 L53.9075804,53.0298714 C53.9075804,53.0298714 52.8807193,52.5214628 52.6784838,52.5720015 C52.4767986,52.6222656 51.8709175,52.2695932 51.8709175,52.2695932 L51.7193096,51.9166461 Z" mask="url(#andre-b)"/>
    <path fill="#201208" d="M61.3637976,51.967075 C61.3637976,51.967075 59.5965068,50.8582444 58.8896455,50.8077057 C58.1825091,50.7574416 56.1629054,50.7574416 54.9005156,51.3117196 C53.6381257,51.8662722 52.9816169,52.1184165 52.9816169,52.1184165 C52.9816169,52.1184165 53.4361653,52.6224304 53.2845575,52.6224304 C53.1332248,52.6224304 51.8708349,52.269758 51.8708349,52.269758 C51.8708349,52.269758 52.6786764,51.6144026 54.2440068,51.110114 C55.8093372,50.6061001 57.8795686,50.152625 58.6370575,50.3542305 C59.3945465,50.5555614 60.3033681,50.7574416 60.6569363,51.0095859 C61.0102294,51.2614555 61.3637976,51.967075 61.3637976,51.967075" mask="url(#andre-b)"/>
    <path fill="#B9866B" d="M74.7577872,50.9322397 C74.828776,50.8613756 75.1361189,50.058524 76.0350352,49.7989638 C76.9334011,49.5394035 77.2170811,49.444918 77.8323173,49.5866462 C78.4470032,49.7280997 78.8489979,50.1530095 78.8489979,50.1530095 C78.8489979,50.1530095 76.9334011,50.2947376 76.2713893,50.3889484 C75.6091024,50.4834339 74.7577872,50.9322397 74.7577872,50.9322397" mask="url(#andre-b)"/>
    <path fill="#E7B18E" d="M54.3649354,50.8466809 C54.3649354,50.8466809 56.3383138,50.3308564 56.9491476,50.3778244 C57.5599814,50.4247925 58.3116922,50.2369202 58.3116922,50.2369202 C58.3116922,50.2369202 57.9826124,49.3928686 56.8082706,49.4865301 C55.6333786,49.5804662 54.3649354,50.8466809 54.3649354,50.8466809" mask="url(#andre-b)"/>
    <path fill="#623F30" d="M63.3793291 62.451086C63.3793291 62.451086 62.8859845 64.3221174 63.0832673 64.8143206 63.2808252 65.3065239 63.6412722 65.9725913 64.1346168 66.2678583 64.6276863 66.5633999 65.6479438 66.1928742 65.6479438 66.1928742 65.6479438 66.1928742 65.1545992 65.6020655 65.54944 65.4051293 65.9437305 65.2081931 66.2642806 65.105193 66.954908 65.2035237 67.6452603 65.3021292 69.2975382 65.8973325 69.2975382 65.8973325L70.4812351 66.291205 67.3247101 65.995938 66.8861205 66.061858C66.8861205 66.061858 66.9301445 66.4881412 66.2397923 66.8820136 65.54944 67.2758861 64.2014784 67.2407287 63.4123471 66.7485255 62.6232159 66.2563223 62.392915 65.6020655 62.4914188 64.518779 62.5901978 63.4357671 63.3793291 62.451086 63.3793291 62.451086M73.2431119 66.2913423C73.5388986 66.1930115 75.0183821 65.404992 75.6105057 65.2083304 76.2023541 65.0113942 76.5966446 65.0113942 76.5966446 65.0113942L74.6240916 66.4882785C74.6240916 66.4882785 74.7391045 66.0803981 74.4356136 66.1108861 74.1318476 66.1410995 73.2431119 66.2913423 73.2431119 66.2913423M77.1677467 65.2320891C77.3196297 65.1411743 77.5017792 64.7470272 77.6839287 64.2015386 77.8660783 63.65605 77.7141953 62.9894333 77.7141953 62.9894333 77.7141953 62.9894333 78.4125269 63.5349219 77.957153 64.26224 77.5017792 64.9895582 77.1677467 65.2320891 77.1677467 65.2320891" mask="url(#andre-b)"/>
    <path fill="#4C3028" d="M56.9716274 75.9433046C57.2338457 75.6818217 57.2338457 74.460927 57.3213435 74.1988947 57.4085662 73.9374117 57.9327276 72.1056576 58.3696664 71.8441747 58.8066052 71.5824171 59.4182644 70.7103494 59.4182644 70.7103494 59.4182644 70.7103494 60.2915917 70.7103494 60.7285305 70.5359359 61.1654692 70.3615223 62.4762856 69.4894547 62.4762856 69.4894547L63.4371106 69.6638682C63.4371106 69.6638682 65.0970928 68.2682853 65.4468089 68.2682853 65.7962499 68.2682853 67.9806686 67.047116 68.2426118 67.2215295 68.50483 67.3962177 69.4656551 68.1809412 69.4656551 68.1809412L70.4267553 69.7509377 70.25231 71.4080035C70.25231 71.4080035 69.1164893 71.1465206 68.6795505 71.4080035 68.2426118 71.6697611 66.058193 72.0185882 66.058193 72.0185882 66.058193 72.0185882 64.1362677 72.8909305 63.8740494 72.978 63.6121063 73.0650694 61.602408 73.5012405 61.602408 73.5012405 61.602408 73.5012405 60.7285305 74.460927 60.204369 74.7224099 59.6802076 74.9841675 58.7193825 75.5944776 58.4568891 76.0306487 58.1949459 76.4665452 57.5832866 76.9027164 57.5832866 76.9027164L56.9716274 75.9433046zM70.8637491 71.3209066C71.0384696 71.059149 71.3879106 69.9253237 71.3879106 69.9253237L71.1259674 68.8785679 71.9123472 68.3553273 73.3976089 67.9194308 74.70815 67.3961902 75.4945298 67.9194308 76.0186912 68.8785679 78.3778304 69.6638408 80.3000309 71.3209066C80.3000309 71.3209066 80.9989128 72.5418013 80.7366945 72.9779725 80.4747514 73.4141436 79.4261533 76.3794483 79.4261533 76.3794483L78.1156121 73.152386C78.1156121 73.152386 77.1545119 71.9314913 76.3681322 71.6700083 75.5817524 71.4079761 74.6206522 71.059149 74.2712113 71.2338372 73.9217703 71.4079761 72.2617881 71.4953202 72.2617881 71.4953202L70.8637491 71.3209066zM68.679468 78.4727128C68.679468 78.4727128 70.5141706 78.5597822 71.0383321 78.5597822 71.5627686 78.5597822 73.3974713 78.2112298 73.3974713 78.2112298 73.3974713 78.2112298 73.2227508 79.1703669 72.5238689 79.6065381 71.8249869 80.0427092 71.2133277 80.5659498 70.7763889 80.7403633 70.3394501 80.9150515 69.1164068 81.002121 68.5047475 80.4788804 67.8933634 79.9553651 67.8055904 79.4321245 67.8055904 79.4321245L68.679468 78.4727128z" mask="url(#andre-b)"/>
    <path fill="#CA7E73" d="M63.9500735,74.5533249 C63.9500735,74.5533249 64.8839338,74.4552688 65.473581,74.4061034 C66.0635034,74.356938 68.1769334,74.3077726 68.9633131,74.5041595 C69.7496928,74.7002718 70.2411114,74.7494371 71.0274911,74.7002718 C71.8138709,74.6511064 72.4037933,74.2588819 73.190173,74.2097165 C73.9762776,74.1605512 74.3694675,73.9155482 74.8611612,73.9644389 C75.3525797,74.0136043 76.335692,74.1116604 76.335692,74.1116604 C76.335692,74.1116604 76.4339206,74.7002718 75.991754,75.190827 C75.5490371,75.6816569 74.8121844,76.7610981 74.1730101,77.1044318 C73.5341109,77.4477655 72.2070607,77.6441524 71.2242236,77.8405393 C70.2411114,78.0366515 69.1107937,78.2327637 68.275162,77.7913739 C67.4398055,77.3499841 65.178895,76.1724867 64.7364532,75.8288784 C64.2940114,75.4855446 63.9500735,74.5533249 63.9500735,74.5533249" mask="url(#andre-b)"/>
    <path fill="#652821" d="M61.5416823,74.7494097 C61.5416823,74.7494097 61.9351474,74.5532975 62.2790853,74.5041321 C62.6230233,74.4552413 63.5079068,74.5532975 63.6553874,74.5532975 C63.8025929,74.5532975 69.3072511,75.0930181 70.4868207,74.994962 C71.6663903,74.8966312 76.335692,74.111633 76.335692,74.111633 L76.9253392,73.8663554 L77.5642383,73.9155207 C77.5642383,73.9155207 77.2200252,73.522747 76.9253392,73.5719124 C76.630378,73.6210777 76.28644,73.8663554 75.6965177,73.7682992 C75.1068704,73.6699685 74.4187194,73.5719124 73.5341109,73.81719 C72.6495025,74.0624676 72.0598553,74.5041321 71.0274911,74.406076 C69.9954021,74.3080198 68.6683519,74.1605237 67.9312241,74.111633 C67.1938211,74.0624676 65.7195655,74.0135769 65.2278718,74.0624676 C64.7364532,74.111633 64.2940114,74.2588545 63.704089,74.2096891 C63.1144418,74.1605237 62.5737713,74.0135769 62.1805815,74.111633 C61.7876668,74.2096891 61.5416823,74.7494097 61.5416823,74.7494097" mask="url(#andre-b)"/>
    <path fill="#996E58" d="M33.8681318 51.7106459C33.8681318 51.7106459 33.5010812 50.886645 32.4004798 51.161312 31.2998783 51.4359789 30.8414778 51.6191818 30.9331029 52.2599799 31.0247279 52.9007779 31.758554 55.3727807 31.758554 55.3727807 31.758554 55.3727807 33.5929814 59.2181183 33.9597569 60.0421193 34.3265323 60.8661202 36.0693347 62.9719919 36.0693347 62.9719919 36.0693347 62.9719919 33.5010812 59.5845241 33.3178311 57.8447835 33.1343058 56.1053175 33.1343058 52.8093138 33.8681318 51.7106459M35.3355087 52.8093138C35.6106591 52.8093138 37.0780359 54.6405185 37.0780359 54.6405185 37.0780359 54.6405185 35.8858094 54.7319826 35.519034 54.1826487 35.1519834 53.6333147 35.3355087 52.8093138 35.3355087 52.8093138" mask="url(#andre-b)"/>
    <path fill="#996E58" d="M37.3531863,55.5559836 L37.903487,56.1967816 C37.903487,56.1967816 37.0780359,58.1194504 37.4450865,58.7605232 C37.811862,59.4013212 38.9124634,59.9506552 38.9124634,60.683192 C38.9124634,61.4154542 38.8208384,61.9647881 38.8208384,61.9647881 C38.8208384,61.9647881 37.903487,61.4154542 37.5367116,61.5071929 C37.1699362,61.598657 36.1609598,61.598657 35.7022841,60.133858 C35.2438836,58.6687844 34.2349072,58.0279863 34.876833,57.1125213 C35.519034,56.1967816 37.3531863,55.5559836 37.3531863,55.5559836" mask="url(#andre-b)"/>
    <path fill="#331D19" d="M40.10469,56.7461156 C40.10469,56.7461156 41.1136663,61.5071929 41.2971916,62.5141221 C41.4804418,63.5213259 43.3148692,67.4581276 43.3148692,67.4581276 C43.3148692,67.4581276 45.6076972,69.1061295 46.3415233,69.8386663 C47.0753493,70.5712031 50.5604038,72.3106691 50.5604038,72.3106691 C50.5604038,72.3106691 53.2202824,73.409337 53.4038076,73.7754681 C53.5870578,74.1418738 55.23796,76.2474708 55.5131103,76.8885436 C55.7882607,77.5293416 56.3385614,80.8253453 57.0723875,81.8325491 C57.8062135,82.8394782 59.1819653,84.121349 60.0990415,84.8538858 C61.0161176,85.586148 63.9511466,86.5018877 65.2352733,86.3186848 C66.5191249,86.135482 67.9867769,85.311481 67.9867769,85.311481 L69.2706285,84.2128131 L71.2885813,84.3045519 C71.2885813,84.3045519 72.1140324,85.6778868 73.8565597,85.2200169 C75.5990869,84.7621471 78.1673404,82.2901443 79.2679419,81.2832152 C80.3685433,80.2760114 81.8359202,76.7968048 82.477846,75.6981369 C83.120047,74.599469 84.4957988,70.8458701 84.8625742,70.0218692 C85.2293497,69.1978682 86.146701,64.1621239 86.146701,64.1621239 C86.146701,64.1621239 86.0548007,69.2893323 85.6880253,70.8458701 C85.3212499,72.4021332 84.4957988,75.6981369 84.1287482,76.4306737 C83.7619728,77.1632105 82.2945959,80.3674755 82.0194455,80.7338812 C81.7442951,81.1000123 79.451192,84.4874801 78.9927915,85.036814 C78.5341158,85.586148 76.3329129,88.3328178 75.5074618,88.9738905 C74.6820108,89.6146885 71.7469818,90.9880234 70.8299057,91.2626904 C69.9128295,91.5373574 66.7942753,92.6360253 64.6849726,92.4528224 C62.5753947,92.2698942 58.6316646,92.1781554 56.1553113,91.5373574 C53.678958,90.8965593 49.918478,89.4314857 48.9095016,88.6074847 C47.9008004,87.7834838 43.956795,83.846682 42.9480938,82.1072161 C41.9391174,80.3674755 40.1965902,74.2333379 39.4627642,71.395204 C38.7289381,68.5567955 38.9124634,62.788789 39.0040885,62.5141221 C39.0959887,62.2394551 39.0959887,54.7319826 39.0959887,54.7319826 L40.10469,56.7461156 Z" mask="url(#andre-b)"/>
    <path fill="#26120E" d="M39.8295396,56.2885204 C39.9214398,55.8306505 39.8295396,52.5346468 40.4717405,49.8794412 C41.1136663,47.2245102 40.930141,44.6607686 41.9391174,43.2874338 C42.9480938,41.9140989 43.86517,40.4492999 43.86517,40.4492999 C43.86517,40.4492999 42.3977931,36.4207594 42.4894182,35.2306274 C42.5810432,34.0404954 42.3977931,29.554085 43.0397189,28.5471559 C43.6816447,27.5399521 44.6906211,23.9692814 44.6906211,23.9692814 C44.6906211,23.9692814 48.3592009,23.1452804 49.184652,23.2367445 C50.0101031,23.3284833 54.7795595,24.2439483 56.4304617,24.3354124 C58.0813638,24.4271512 63.1256955,25.3426162 66.6110251,25.3426162 C70.0960796,25.3426162 74.2233351,24.7932823 75.5990869,24.7932823 C76.9748387,24.7932823 79.2679419,24.6100794 80.2766431,25.8004861 C81.2856195,26.9906181 82.7529964,27.5399521 82.9365217,28.9132869 C83.120047,30.2866218 84.6790489,33.5826255 85.3212499,34.4066264 C85.9631757,35.2306274 86.6051015,37.611166 86.6051015,37.611166 L86.3299511,44.5693045 L86.146701,48.4146422 C86.146701,48.4146422 87.0637771,47.7738441 87.2473024,46.1258423 C87.4305526,44.4778404 88.3479039,38.8012981 88.1643786,37.5194273 C87.9808533,36.2378312 87.7057029,34.0404954 87.7057029,34.0404954 C87.7057029,34.0404954 88.8063044,35.5052943 88.3479039,34.6812934 C87.8892282,33.8572925 86.6970017,30.9274199 86.4218513,30.0119548 C86.146701,29.0964898 84.3122735,24.6100794 84.3122735,24.6100794 L81.2856195,19.8492767 C81.2856195,19.8492767 82.2945959,20.4900748 82.0194455,20.0324796 C81.7442951,19.5746098 79.2679419,16.9194041 78.8092662,16.4618089 C78.3505906,16.0039391 75.4158368,14.6306042 74.3152353,13.8066033 C73.2146339,12.9826023 70.1879799,12.1586014 70.1879799,12.1586014 L71.838882,12.1586014 C71.838882,12.1586014 66.5191249,11.0599335 65.5104237,10.7852665 C64.5014473,10.5105996 60.6493422,10.4191355 60.6493422,10.4191355 L61.5664183,10.2359326 C61.5664183,10.2359326 59.2735904,9.96126562 56.5220867,10.6020637 C53.7705831,11.2431364 48.4511011,12.5247325 47.9924254,12.7993995 C47.5337498,13.0740665 41.1136663,16.187142 40.1965902,16.6447371 C39.2792389,17.102607 37.4450865,18.6591447 37.3531863,19.2999428 C37.2615612,19.9407408 37.2615612,21.0394087 37.2615612,21.0394087 C37.2615612,21.0394087 34.785208,21.4058145 34.1432822,22.1380766 C33.5010812,22.8706135 32.49238,26.1666172 32.4004798,27.2652851 C32.3088547,28.363953 31.850179,36.5124981 32.2172296,38.1605 C32.5840051,39.8085019 32.5840051,44.8439715 33.0426807,46.4919734 C33.5010812,48.1399752 33.6846065,49.0554403 33.6846065,49.0554403 L36.1609598,49.696513 C36.1609598,49.696513 36.9864109,49.9711799 37.3531863,51.3445148 C37.7202369,52.7178497 39.0959887,54.7319826 39.0959887,54.7319826 L39.8295396,56.2885204 Z" mask="url(#andre-b)"/>
    <polygon fill="#26232F" points="39.058 81.336 38.048 79.476 40.347 78.531" mask="url(#andre-b)"/>
  </g>
</svg>
