<svg xmlns="http://www.w3.org/2000/svg" width="135" height="40" viewBox="0 0 135 40">
  <g fill="none">
    <path fill="#A6A6A6" d="M130.197,40 L4.729,40 C2.122,40 0,37.872 0,35.267 L0,4.726 C0,2.12 2.122,0 4.729,0 L130.197,0 C132.803,0 135,2.12 135,4.726 L135,35.267 C135,37.872 132.803,40 130.197,40 L130.197,40 Z"/>
    <path fill="#000000" d="M134.032,35.268 C134.032,37.384 132.318,39.098 130.198,39.098 L4.729,39.098 C2.61,39.098 0.89,37.384 0.89,35.268 L0.89,4.725 C0.89,2.61 2.61,0.89 4.729,0.89 L130.197,0.89 C132.318,0.89 134.031,2.61 134.031,4.725 L134.032,35.268 L134.032,35.268 Z"/>
    <g fill="#FFFFFF" transform="translate(12 6)">
      <path d="M18.128 13.784C18.099 10.561 20.767 8.993 20.889 8.92 19.378 6.717 17.036 6.416 16.213 6.392 14.246 6.185 12.338 7.569 11.336 7.569 10.314 7.569 8.771 6.412 7.108 6.446 4.968 6.479 2.966 7.718 1.868 9.642-.398 13.565 1.292 19.33 3.463 22.501 4.549 24.054 5.818 25.788 7.479 25.727 9.104 25.66 9.711 24.691 11.672 24.691 13.615 24.691 14.185 25.727 15.879 25.688 17.623 25.66 18.721 24.128 19.769 22.561 21.024 20.781 21.528 19.028 21.548 18.938 21.507 18.924 18.161 17.647 18.128 13.784zM14.928 4.306C15.802 3.213 16.4 1.726 16.234.217 14.969.273 13.387 1.092 12.476 2.161 11.67 3.103 10.95 4.647 11.136 6.099 12.557 6.205 14.016 5.382 14.928 4.306z"/>
    </g>
    <g fill="#FFFFFF" transform="translate(42 18)">
      <path d="M11.645 13.504L9.374 13.504 8.13 9.595 3.806 9.595 2.621 13.504.41 13.504 4.694.196 7.34.196 11.645 13.504zM7.755 7.955L6.63 4.48C6.511 4.125 6.288 3.289 5.959 1.973L5.919 1.973C5.788 2.539 5.577 3.375 5.287 4.48L4.182 7.955 7.755 7.955 7.755 7.955zM22.662 8.588C22.662 10.22 22.221 11.51 21.339 12.457 20.549 13.3 19.568 13.721 18.397 13.721 17.133 13.721 16.225 13.267 15.672 12.359L15.632 12.359 15.632 17.414 13.5 17.414 13.5 7.067C13.5 6.041 13.473 4.988 13.421 3.908L15.296 3.908 15.415 5.429 15.455 5.429C16.166 4.283 17.245 3.711 18.693 3.711 19.825 3.711 20.77 4.158 21.526 5.053 22.284 5.949 22.662 7.127 22.662 8.588zM20.49 8.666C20.49 7.732 20.28 6.962 19.858 6.356 19.397 5.724 18.778 5.408 18.002 5.408 17.476 5.408 16.998 5.584 16.571 5.931 16.143 6.281 15.863 6.738 15.732 7.304 15.666 7.568 15.633 7.784 15.633 7.954L15.633 9.554C15.633 10.252 15.847 10.841 16.275 11.322 16.703 11.803 17.259 12.043 17.943 12.043 18.746 12.043 19.371 11.733 19.818 11.115 20.266 10.496 20.49 9.68 20.49 8.666zM33.699 8.588C33.699 10.22 33.258 11.51 32.375 12.457 31.586 13.3 30.605 13.721 29.434 13.721 28.17 13.721 27.262 13.267 26.71 12.359L26.67 12.359 26.67 17.414 24.538 17.414 24.538 7.067C24.538 6.041 24.511 4.988 24.459 3.908L26.334 3.908 26.453 5.429 26.493 5.429C27.203 4.283 28.282 3.711 29.731 3.711 30.862 3.711 31.807 4.158 32.565 5.053 33.32 5.949 33.699 7.127 33.699 8.588zM31.527 8.666C31.527 7.732 31.316 6.962 30.894 6.356 30.433 5.724 29.816 5.408 29.039 5.408 28.512 5.408 28.035 5.584 27.607 5.931 27.179 6.281 26.9 6.738 26.769 7.304 26.704 7.568 26.67 7.784 26.67 7.954L26.67 9.554C26.67 10.252 26.884 10.841 27.31 11.322 27.738 11.802 28.294 12.043 28.98 12.043 29.783 12.043 30.408 11.733 30.855 11.115 31.303 10.496 31.527 9.68 31.527 8.666zM46.039 9.772C46.039 10.904 45.646 11.825 44.857 12.536 43.99 13.313 42.783 13.701 41.232 13.701 39.8 13.701 38.652 13.425 37.783 12.872L38.277 11.095C39.213 11.661 40.24 11.945 41.359 11.945 42.162 11.945 42.787 11.763 43.236 11.401 43.683 11.039 43.906 10.553 43.906 9.947 43.906 9.407 43.722 8.952 43.353 8.583 42.986 8.214 42.373 7.871 41.517 7.554 39.187 6.685 38.023 5.412 38.023 3.738 38.023 2.644 38.431 1.747 39.248 1.049 40.062.35 41.148.001 42.506.001 43.717.001 44.723.212 45.526.633L44.993 2.371C44.243 1.963 43.395 1.759 42.446 1.759 41.696 1.759 41.11 1.944 40.69 2.312 40.335 2.641 40.157 3.042 40.157 3.517 40.157 4.043 40.36 4.478 40.768 4.82 41.123 5.136 41.768 5.478 42.704 5.847 43.849 6.308 44.69 6.847 45.231 7.465 45.77 8.081 46.039 8.852 46.039 9.772zM53.088 5.508L50.738 5.508 50.738 10.167C50.738 11.352 51.152 11.944 51.982 11.944 52.363 11.944 52.679 11.911 52.929 11.845L52.988 13.464C52.568 13.621 52.015 13.7 51.33 13.7 50.488 13.7 49.83 13.443 49.355 12.93 48.882 12.416 48.644 11.554 48.644 10.343L48.644 5.506 47.244 5.506 47.244 3.906 48.644 3.906 48.644 2.149 50.738 1.517 50.738 3.906 53.088 3.906 53.088 5.508zM63.691 8.627C63.691 10.102 63.269 11.313 62.427 12.26 61.544 13.235 60.372 13.721 58.911 13.721 57.503 13.721 56.382 13.254 55.546 12.32 54.71 11.386 54.292 10.207 54.292 8.786 54.292 7.299 54.722 6.081 55.585 5.134 56.446 4.186 57.608 3.712 59.069 3.712 60.477 3.712 61.61 4.179 62.465 5.114 63.283 6.021 63.691 7.192 63.691 8.627zM61.479 8.696C61.479 7.811 61.29 7.052 60.907 6.419 60.46 5.653 59.821 5.271 58.993 5.271 58.136 5.271 57.485 5.654 57.038 6.419 56.655 7.053 56.466 7.824 56.466 8.736 56.466 9.621 56.655 10.38 57.038 11.012 57.499 11.778 58.143 12.16 58.974 12.16 59.788 12.16 60.427 11.77 60.888 10.992 61.281 10.347 61.479 9.58 61.479 8.696zM70.621 5.783C70.41 5.744 70.185 5.724 69.949 5.724 69.199 5.724 68.619 6.007 68.211 6.574 67.856 7.074 67.678 7.706 67.678 8.469L67.678 13.504 65.547 13.504 65.567 6.93C65.567 5.824 65.54 4.817 65.487 3.909L67.344 3.909 67.422 5.745 67.481 5.745C67.706 5.114 68.061 4.606 68.547 4.225 69.022 3.882 69.535 3.711 70.088 3.711 70.285 3.711 70.463 3.725 70.621 3.75L70.621 5.783zM80.156 8.252C80.156 8.634 80.131 8.956 80.078 9.219L73.682 9.219C73.707 10.167 74.016 10.892 74.61 11.392 75.149 11.839 75.846 12.063 76.702 12.063 77.649 12.063 78.513 11.912 79.29 11.609L79.624 13.089C78.716 13.485 77.644 13.682 76.407 13.682 74.919 13.682 73.751 13.244 72.901 12.369 72.053 11.494 71.628 10.319 71.628 8.845 71.628 7.398 72.023 6.193 72.814 5.232 73.642 4.206 74.761 3.693 76.169 3.693 77.552 3.693 78.599 4.206 79.31 5.232 79.873 6.047 80.156 7.055 80.156 8.252zM78.123 7.699C78.137 7.067 77.998 6.521 77.709 6.06 77.34 5.467 76.773 5.171 76.01 5.171 75.313 5.171 74.746 5.46 74.313 6.04 73.958 6.501 73.747 7.054 73.682 7.698L78.123 7.698 78.123 7.699z"/>
    </g>
    <g fill="#FFFFFF" transform="translate(43 6)">
      <path d="M6.05 4.009C6.05 5.186 5.697 6.072 4.992 6.667 4.339 7.216 3.411 7.491 2.209 7.491 1.613 7.491 1.103 7.465.676 7.413L.676.982C1.233.892 1.833.846 2.481.846 3.626.846 4.489 1.095 5.071 1.593 5.723 2.156 6.05 2.961 6.05 4.009zM4.945 4.038C4.945 3.275 4.743 2.69 4.339 2.282 3.935 1.875 3.345 1.671 2.568 1.671 2.238 1.671 1.957 1.693 1.724 1.739L1.724 6.628C1.853 6.648 2.089 6.657 2.432 6.657 3.234 6.657 3.853 6.434 4.289 5.988 4.725 5.542 4.945 4.892 4.945 4.038zM11.909 5.037C11.909 5.762 11.702 6.356 11.288 6.822 10.854 7.301 10.279 7.54 9.561 7.54 8.869 7.54 8.318 7.311 7.907 6.851 7.497 6.392 7.292 5.813 7.292 5.115 7.292 4.385 7.503 3.786 7.927 3.321 8.351 2.856 8.921 2.623 9.639 2.623 10.331 2.623 10.887 2.852 11.308 3.311 11.708 3.757 11.909 4.333 11.909 5.037zM10.822 5.071C10.822 4.636 10.728 4.263 10.541 3.952 10.321 3.576 10.008 3.388 9.601 3.388 9.18 3.388 8.86 3.576 8.64 3.952 8.452 4.263 8.359 4.642 8.359 5.09 8.359 5.525 8.453 5.898 8.64 6.209 8.867 6.585 9.183 6.773 9.591 6.773 9.991 6.773 10.305 6.582 10.531 6.199 10.725 5.882 10.822 5.506 10.822 5.071zM19.765 2.719L18.29 7.433 17.33 7.433 16.719 5.386C16.564 4.875 16.438 4.367 16.34 3.863L16.321 3.863C16.23 4.381 16.104 4.888 15.942 5.386L15.293 7.433 14.322 7.433 12.935 2.719 14.012 2.719 14.545 4.96C14.674 5.49 14.78 5.995 14.865 6.473L14.884 6.473C14.962 6.079 15.091 5.577 15.273 4.97L15.942 2.72 16.796 2.72 17.437 4.922C17.592 5.459 17.718 5.976 17.815 6.474L17.844 6.474C17.915 5.989 18.022 5.472 18.164 4.922L18.736 2.72 19.765 2.72 19.765 2.719zM25.198 7.433L24.15 7.433 24.15 4.733C24.15 3.901 23.834 3.485 23.2 3.485 22.889 3.485 22.638 3.599 22.443 3.828 22.25 4.057 22.152 4.327 22.152 4.636L22.152 7.432 21.104 7.432 21.104 4.066C21.104 3.652 21.091 3.203 21.066 2.717L21.987 2.717 22.036 3.454 22.065 3.454C22.187 3.225 22.369 3.036 22.608 2.885 22.892 2.709 23.21 2.62 23.558 2.62 23.998 2.62 24.364 2.762 24.655 3.047 25.017 3.396 25.198 3.917 25.198 4.609L25.198 7.433 25.198 7.433z"/>
      <polygon points="28.088 7.433 27.041 7.433 27.041 .556 28.088 .556"/>
      <path d="M34.258 5.037C34.258 5.762 34.051 6.356 33.637 6.822 33.203 7.301 32.627 7.54 31.91 7.54 31.217 7.54 30.666 7.311 30.256 6.851 29.846 6.392 29.641 5.813 29.641 5.115 29.641 4.385 29.852 3.786 30.276 3.321 30.7 2.856 31.27 2.623 31.987 2.623 32.68 2.623 33.235 2.852 33.657 3.311 34.057 3.757 34.258 4.333 34.258 5.037zM33.17 5.071C33.17 4.636 33.076 4.263 32.889 3.952 32.67 3.576 32.356 3.388 31.95 3.388 31.528 3.388 31.208 3.576 30.989 3.952 30.801 4.263 30.708 4.642 30.708 5.09 30.708 5.525 30.802 5.898 30.989 6.209 31.216 6.585 31.532 6.773 31.94 6.773 32.34 6.773 32.653 6.582 32.879 6.199 33.074 5.882 33.17 5.506 33.17 5.071zM39.33 7.433L38.389 7.433 38.311 6.89 38.282 6.89C37.96 7.323 37.501 7.54 36.905 7.54 36.46 7.54 36.1 7.397 35.829 7.113 35.583 6.855 35.46 6.534 35.46 6.153 35.46 5.577 35.7 5.138 36.183 4.834 36.665 4.53 37.343 4.381 38.216 4.388L38.216 4.3C38.216 3.679 37.89 3.369 37.237 3.369 36.772 3.369 36.362 3.486 36.008 3.718L35.795 3.03C36.233 2.759 36.774 2.623 37.412 2.623 38.644 2.623 39.262 3.273 39.262 4.573L39.262 6.309C39.262 6.78 39.285 7.155 39.33 7.433zM38.242 5.813L38.242 5.086C37.086 5.066 36.508 5.383 36.508 6.036 36.508 6.282 36.574 6.466 36.709 6.589 36.844 6.712 37.016 6.773 37.221 6.773 37.451 6.773 37.666 6.7 37.862 6.555 38.059 6.409 38.18 6.224 38.225 5.997 38.236 5.946 38.242 5.884 38.242 5.813zM45.285 7.433L44.355 7.433 44.306 6.676 44.277 6.676C43.98 7.252 43.474 7.54 42.763 7.54 42.195 7.54 41.722 7.317 41.347 6.871 40.972 6.425 40.785 5.846 40.785 5.135 40.785 4.372 40.988 3.754 41.396 3.282 41.791 2.842 42.275 2.622 42.851 2.622 43.484 2.622 43.927 2.835 44.179 3.262L44.199 3.262 44.199.556 45.248.556 45.248 6.163C45.248 6.622 45.26 7.045 45.285 7.433zM44.199 5.445L44.199 4.659C44.199 4.523 44.189 4.413 44.17 4.329 44.111 4.077 43.984 3.865 43.791 3.694 43.596 3.523 43.361 3.437 43.09 3.437 42.699 3.437 42.393 3.592 42.168 3.903 41.945 4.214 41.832 4.611 41.832 5.096 41.832 5.562 41.939 5.94 42.154 6.231 42.381 6.541 42.687 6.696 43.07 6.696 43.414 6.696 43.689 6.567 43.898 6.308 44.1 6.069 44.199 5.781 44.199 5.445zM54.248 5.037C54.248 5.762 54.041 6.356 53.627 6.822 53.193 7.301 52.619 7.54 51.9 7.54 51.209 7.54 50.658 7.311 50.246 6.851 49.836 6.392 49.631 5.813 49.631 5.115 49.631 4.385 49.842 3.786 50.266 3.321 50.69 2.856 51.26 2.623 51.979 2.623 52.67 2.623 53.227 2.852 53.647 3.311 54.047 3.757 54.248 4.333 54.248 5.037zM53.162 5.071C53.162 4.636 53.068 4.263 52.881 3.952 52.66 3.576 52.348 3.388 51.94 3.388 51.52 3.388 51.2 3.576 50.979 3.952 50.791 4.263 50.698 4.642 50.698 5.09 50.698 5.525 50.792 5.898 50.979 6.209 51.206 6.585 51.522 6.773 51.93 6.773 52.33 6.773 52.645 6.582 52.871 6.199 53.064 5.882 53.162 5.506 53.162 5.071zM59.883 7.433L58.836 7.433 58.836 4.733C58.836 3.901 58.52 3.485 57.885 3.485 57.574 3.485 57.323 3.599 57.129 3.828 56.935 4.057 56.838 4.327 56.838 4.636L56.838 7.432 55.789 7.432 55.789 4.066C55.789 3.652 55.777 3.203 55.752 2.717L56.672 2.717 56.721 3.454 56.75 3.454C56.873 3.225 57.055 3.036 57.293 2.885 57.578 2.709 57.895 2.62 58.244 2.62 58.683 2.62 59.049 2.762 59.34 3.047 59.703 3.396 59.883 3.917 59.883 4.609L59.883 7.433 59.883 7.433zM66.936 3.504L65.782 3.504 65.782 5.794C65.782 6.376 65.987 6.667 66.393 6.667 66.581 6.667 66.737 6.651 66.86 6.618L66.887 7.413C66.68 7.491 66.408 7.53 66.073 7.53 65.659 7.53 65.337 7.404 65.104 7.152 64.87 6.9 64.754 6.476 64.754 5.881L64.754 3.504 64.065 3.504 64.065 2.719 64.754 2.719 64.754 1.855 65.781 1.545 65.781 2.718 66.935 2.718 66.935 3.504 66.936 3.504zM72.484 7.433L71.435 7.433 71.435 4.753C71.435 3.908 71.119 3.485 70.486 3.485 70 3.485 69.668 3.73 69.486 4.22 69.455 4.323 69.437 4.449 69.437 4.597L69.437 7.432 68.39 7.432 68.39.556 69.437.556 69.437 3.397 69.457 3.397C69.787 2.88 70.26 2.622 70.873 2.622 71.307 2.622 71.666 2.764 71.951 3.049 72.306 3.404 72.484 3.932 72.484 4.63L72.484 7.433 72.484 7.433zM78.207 4.853C78.207 5.041 78.193 5.199 78.168 5.328L75.025 5.328C75.039 5.794 75.189 6.149 75.48 6.395 75.746 6.615 76.089 6.725 76.509 6.725 76.974 6.725 77.398 6.651 77.78 6.502L77.944 7.23C77.497 7.424 76.971 7.521 76.362 7.521 75.632 7.521 75.057 7.306 74.641 6.876 74.223 6.446 74.016 5.869 74.016 5.145 74.016 4.434 74.209 3.842 74.598 3.37 75.004 2.866 75.553 2.614 76.246 2.614 76.924 2.614 77.439 2.866 77.787 3.37 78.068 3.77 78.207 4.265 78.207 4.853zM77.207 4.582C77.215 4.271 77.146 4.003 77.004 3.777 76.822 3.486 76.545 3.34 76.17 3.34 75.828 3.34 75.549 3.482 75.336 3.767 75.162 3.994 75.059 4.265 75.025 4.582L77.207 4.582z"/>
    </g>
  </g>
</svg>
