<svg xmlns="http://www.w3.org/2000/svg" width="120" height="120" viewBox="0 0 120 120">
  <g fill="none" fill-rule="evenodd">
    <path fill="#7BCAEC" d="M119.404175,59.9273377 C119.404175,93.0237046 92.7645767,119.854675 59.9063132,119.854675 C27.0497053,119.854675 0.410107421,93.0237046 0.410107421,59.9273377 C0.410107421,26.8309708 27.0497053,0 59.9063132,0 C92.7645767,0 119.404175,26.8309708 119.404175,59.9273377"/>
    <path fill="#FFF" d="M43.3796088,85.0373641 L46.4450315,75.7880435 L45.6989096,70.9341033 L36.2505621,60.1307745 L36.3551034,36.0640285 L67.1062837,20.6827446 L79.285353,50.845788 L72.5753147,76.1795177 L78.526585,84.7571332 C78.526585,84.7571332 66.0107071,110.80163 61.8893323,110.80163 C57.7679575,110.80163 43.3796088,85.0373641 43.3796088,85.0373641 Z"/>
    <path fill="#4E4B4A" d="M59.907141,119.854842 C79.8628324,119.854842 97.5154982,109.948946 108.307102,94.7615724 C108.81539,94.0444789 80.7005972,82.5526385 78.973742,81.903919 C77.3843067,81.5453722 76.7369429,81.5770578 76.1558057,82.4976057 C74.35279,86.3098749 64.8029329,106.730363 59.8723721,106.730363 C54.9401557,106.730363 46.9168188,88.4361406 45.1104918,84.5271471 C44.340609,82.6793806 43.8521888,82.4976057 41.7958569,82.971221 C34.7195585,84.5971888 11.2555199,94.4213699 11.9061949,95.3135676 C22.7309116,110.190756 40.194832,119.854842 59.907141,119.854842"/>
    <path fill="#4E4B49" d="M36.3154509,79.8546992 C39.3618685,79.5361763 43.8619572,77.8701846 45.4944397,77.2331388 C45.7908032,77.1264086 46.1384922,76.8612507 46.2527328,76.5644074 C46.9613561,74.4314711 47.2974554,71.9149732 47.436531,70.6525551 C47.4746112,70.1622633 47.3388469,69.7169982 47.0755967,69.4518404 C45.7692796,68.2844789 41.8387385,64.622299 40.7426905,62.0541036 C39.6035952,59.39919 39.0042456,46.7149732 38.855236,43.2128886 C38.855236,43.137844 38.855236,43.0744729 38.8436464,43.0111018 C38.855236,42.745944 38.9396748,42.3090173 39.4479629,42.1839428 L39.4545856,42.1839428 C41.1648842,41.7787016 45.9381571,40.3245027 48.6567537,36.2270637 L48.6567537,36.2487433 C48.8786124,35.8985348 49.3935232,35.1130673 49.340542,35.633377 C49.1633862,37.5011554 48.6882113,42.4491007 48.6368858,42.9577367 C48.572315,43.5947826 48.9084143,43.573103 49.2792825,43.1161644 C49.6170375,42.6925789 60.638778,28.9143776 62.6090155,26.4512448 C62.7878269,26.2294461 62.9351808,26.0893627 63.1884971,26.259464 C64.7067389,27.3434425 72.7582221,33.5738177 74.506601,45.1974032 C76.077824,55.5685765 73.8956618,61.3636927 72.91551,63.3265277 C70.3989041,66.1715545 62.7762373,74.4398094 58.837418,74.6649434 C56.1817365,74.8233711 54.2959377,74.1546397 53.1137952,73.5909708 C52.8935922,73.4859083 52.830677,73.6126504 53.0293565,73.7727457 C55.0641648,75.4070518 59.1735173,78.230399 62.3772228,77.6567242 C63.883875,77.3815605 68.279657,76.1608338 71.0081876,74.1012746 C71.2300463,73.9528529 71.4303814,73.9945444 71.451905,74.3030613 L71.5678013,76.2342108 L71.5678013,76.267564 L71.5777353,76.3192615 C71.5893249,76.4576772 71.6406504,76.7345086 71.9039007,76.8295652 L79.6076949,79.5144967 C79.6076949,79.5144967 80.4404928,79.6962716 80.9471253,79.1109232 C82.6756361,77.2431447 87.1856588,70.8860274 87.0068473,55.5252174 C86.7220735,31.3024658 78.8808594,23.8713758 73.2731329,18.0862656 C67.6786518,12.3128291 54.2297112,13.4168195 46.1070346,15.8899583 C37.9810466,18.3630971 35.1780112,29.9216438 33.7756657,37.3644074 C32.3749759,44.7938297 34.577006,62.0541036 29.8451247,67.7758428 C26.6927447,71.5747707 22.9426707,72.4352829 21.6363536,72.6270637 C21.2754193,72.6904348 21.267141,72.8388565 21.4889997,73.1557117 C22.7737932,74.8667302 27.8450852,80.746897 36.3154509,79.8546992"/>
  </g>
</svg>
