<svg xmlns="http://www.w3.org/2000/svg" width="51" height="34" viewBox="0 0 51 34">
  <path fill="#FFFFFF" fill-rule="evenodd" d="M0.382685902,19.2320508 C-0.721883597,19.2320508 -1.6173141,18.3366203 -1.6173141,17.2320508 C-1.6173141,16.1274813 -0.721883597,15.2320508 0.382685902,15.2320508 C1.4872554,15.2320508 2.3826859,16.1274813 2.3826859,17.2320508 C2.3826859,18.3366203 1.4872554,19.2320508 0.382685902,19.2320508 Z M10.3826859,19.2320508 C9.2781164,19.2320508 8.3826859,18.3366203 8.3826859,17.2320508 C8.3826859,16.1274813 9.2781164,15.2320508 10.3826859,15.2320508 C11.4872554,15.2320508 12.3826859,16.1274813 12.3826859,17.2320508 C12.3826859,18.3366203 11.4872554,19.2320508 10.3826859,19.2320508 Z M20.3826859,19.2320508 C19.2781164,19.2320508 18.3826859,18.3366203 18.3826859,17.2320508 C18.3826859,16.1274813 19.2781164,15.2320508 20.3826859,15.2320508 C21.4872554,15.2320508 22.3826859,16.1274813 22.3826859,17.2320508 C22.3826859,18.3366203 21.4872554,19.2320508 20.3826859,19.2320508 Z M30.3826859,19.2320508 C29.2781164,19.2320508 28.3826859,18.3366203 28.3826859,17.2320508 C28.3826859,16.1274813 29.2781164,15.2320508 30.3826859,15.2320508 C31.4872554,15.2320508 32.3826859,16.1274813 32.3826859,17.2320508 C32.3826859,18.3366203 31.4872554,19.2320508 30.3826859,19.2320508 Z M40.3826859,19.2320508 C39.2781164,19.2320508 38.3826859,18.3366203 38.3826859,17.2320508 C38.3826859,16.1274813 39.2781164,15.2320508 40.3826859,15.2320508 C41.4872554,15.2320508 42.3826859,16.1274813 42.3826859,17.2320508 C42.3826859,18.3366203 41.4872554,19.2320508 40.3826859,19.2320508 Z M50.3826859,19.2320508 C49.2781164,19.2320508 48.3826859,18.3366203 48.3826859,17.2320508 C48.3826859,16.1274813 49.2781164,15.2320508 50.3826859,15.2320508 C51.4872554,15.2320508 52.3826859,16.1274813 52.3826859,17.2320508 C52.3826859,18.3366203 51.4872554,19.2320508 50.3826859,19.2320508 Z" transform="scale(-1 1) rotate(-30 0 111.962)"/>
</svg>
