<svg xmlns="http://www.w3.org/2000/svg" width="320" height="170" viewBox="0 0 320 170" xmlns:xlink="http://www.w3.org/1999/xlink">
  <defs>
    <radialGradient id="b" r="65.048%" fx="50%" fy="50%">
      <stop stop-color="#E0E0E0" stop-opacity="0" offset="0%"/>
      <stop stop-color="#FFFFFF" offset="100%"/>
    </radialGradient>
    <rect id="a" width="117" height="168" rx="4"/>
    <mask id="c" width="117" height="168" x="0" y="0" fill="white">
      <use xlink:href="#a"/>
    </mask>
  </defs>
  <g fill="none" fill-rule="evenodd">
    <g transform="translate(176.674 84.61)">
      <path fill="#2C2E33" d="M58.4301906 78.8634898C58.4301906 78.8634898 58.6020441 79.6634399 59.8624177 80.2922905 61.1224476 80.9207982 62.5546747 80.9207982 62.5546747 80.9207982L64.3306088 79.892144 61.2943011 77.0348855 58.3157362 77.8920973 58.4301906 78.8634898M92.7434919 82.063633C92.7434919 82.063633 92.9727445 83.3782531 94.5768251 83.6638761 96.180562 83.9494991 97.6127891 82.6924837 97.6127891 82.6924837L96.2953601 81.263683 92.7434919 82.063633"/>
      <polyline fill="#E85740" points="96.066 56.347 108.44 36.289 103.628 39.032 94.348 54.804 94.863 55.833 96.066 56.347"/>
      <path fill="#FFFFFF" d="M28.4132269,35.0884239 L17.1853502,25.9450595 L16.3834817,25.25929 L16.9560976,21.7159191 L10.6549171,0.342884738 C10.6549171,0.342884738 10.9986241,3.37507799e-14 13.1753206,1.02865421 C15.3523607,2.05730843 19.4768448,3.88591274 19.4768448,3.88591274 C19.4768448,3.88591274 25.8924797,15.4298132 26.9236007,17.0300563 C27.9547217,18.6299565 28.8359865,21.9082775 30.1317619,23.3161622 C31.4271936,24.7240469 41.474093,30.8596264 43.4215369,32.0024613 C45.3693245,33.145639 54.763868,36.9173711 54.763868,36.9173711 L62.2109677,39.8888102 C62.2109677,39.8888102 93.0301436,54.1185269 93.9464665,54.9757387 C94.863133,55.8329506 98.1857486,57.4904554 99.5605767,59.0903556 C100.935405,60.6905987 103.685061,63.2049724 104.830636,65.0339196 C105.976212,66.8625239 106.663626,67.9624982 105.861757,68.9911524 C105.059889,70.0198066 103.226556,72.8057451 102.539142,73.2631534 C101.851728,73.7202187 101.966526,76.2345925 101.279112,76.349116 C100.591698,76.4632966 99.2168697,77.1490661 99.2168697,77.1490661 L96.8109206,75.6633465 C96.8109206,75.6633465 93.0301436,76.0062313 91.8842244,76.0062313 C90.738649,76.0062313 85.8122965,75.0917577 83.6352563,74.1772841 C81.4585599,73.2631534 69.1995622,66.8625239 69.1995622,66.8625239 L47.3171121,51.2040066 L28.4132269,35.0884239 Z"/>
      <path fill="#EC6D54" d="M0 36.688667L15.0086537 25.3734706C15.0086537 25.3734706 17.3496421 25.9454024 17.8727642 26.1734207 18.3958863 26.4014391 22.6846622 27.2020749 22.6846622 27.2020749L30.9336303 33.8314085C30.9336303 33.8314085 31.0480848 34.8600627 30.7043778 34.8600627 30.3606708 34.8600627 11.6860381 42.0606422 11.6860381 42.0606422 11.6860381 42.0606422 8.9363821 42.2890034 7.67600851 41.7177574 6.41597864 41.1461686 0 36.688667 0 36.688667M28.0695199 18.6299565L39.6407599 14.1724549C39.6407599 14.1724549 46.6142313 17.8584658 47.4315665 18.6299565 48.2489018 19.40179 48.8063945 20.6872649 48.0045261 21.2588538 47.2023139 21.8304426 38.4951844 29.1452027 38.4951844 29.1452027L30.1317619 25.9450595 27.2673077 20.3443802 28.0695199 18.6299565"/>
      <path fill="#E85740" d="M22.6846622,27.2020749 L25.7780253,27.8878444 C25.7780253,27.8878444 55.7045941,42.403184 56.5972012,41.4890533 C57.4898083,40.5749226 44.1089509,32.5740501 44.1089509,32.5740501 L30.1317619,23.3161622 C30.1317619,23.3161622 28.4132269,18.9728412 28.0695199,18.6299565 C27.7258129,18.2870717 19.4768448,3.88591274 19.4768448,3.88591274 L12.2589977,0.685769476 L10.6549171,0.342884738 L16.6123906,21.0301496 L16.3834817,25.25929 L17.8727642,26.1734207 L22.6846622,27.2020749"/>
      <polyline fill="#145E7D" points="56.368 46.518 54.649 44.346 58.201 41.718 62.211 39.889 64.846 41.146 58.258 45.889 56.368 46.518"/>
      <polyline fill="#145E7D" points="70.804 58.062 76.074 60.005 74.814 56.233 70.804 58.062"/>
      <path fill="#145E7D" d="M76.4174093,55.5473276 L77.9070354,61.0334834 C77.9070354,61.0334834 80.2813634,62.5579489 81.9167213,62.4050224 C83.552423,62.2520958 84.4374685,61.8334335 84.4374685,61.8334335 C84.4374685,61.8334335 90.8531034,57.7188166 91.6553156,57.1475707 C92.457184,56.5759818 94.863133,55.8329506 94.863133,55.8329506 L90.6241946,47.2039133 L87.1871245,45.4894896 L75.8447934,51.3185301 L76.4174093,55.5473276"/>
      <path fill="#FFFFFF" d="M63.7576492 80.2922905L65.7054368 79.0349322C65.7054368 79.0349322 65.9917447 76.8634431 65.2469316 75.8917078 64.5024623 74.9203153 64.2732097 74.5774306 64.2732097 74.5774306L68.9706533 67.0339663 70.1162288 66.5196392C70.1162288 66.5196392 69.4288148 65.0908385 67.8821332 64.6910349 66.3354517 64.2908884 66.3354517 64.6910349 66.3354517 64.6910349L66.8510122 66.0053121 62.8983817 73.6060381C62.8983817 73.6060381 60.7787406 72.1772374 59.4039126 71.720172 58.0290846 71.2627638 54.7068127 71.6629103 54.7068127 71.6629103L54.1338531 72.5201221C54.1338531 72.5201221 54.0193987 74.9203153 55.6805346 76.4632966 57.3416706 78.0062779 62.2109677 79.892144 62.2109677 79.892144L63.7576492 80.2922905M89.8219824 76.5774772C89.8219824 76.5774772 89.764927 78.0635397 89.9938359 78.4064244 90.2230885 78.7493092 91.5979165 80.4637329 92.0560779 81.0349788 92.5145831 81.6065677 93.832012 82.7494025 95.149441 82.7494025 96.4672136 82.7494025 97.6127891 82.6924837 97.6127891 82.6924837L98.7013091 81.7780101C98.7013091 81.7780101 99.3313241 80.4064711 98.1283496 79.1491128 96.9253751 77.8920973 95.894254 77.4919508 95.894254 77.4919508L96.6390671 75.3773807 93.8894111 75.4919042 94.11832 76.8634431 92.9727445 76.634739 89.8219824 76.5774772"/>
      <path fill="#E85740" d="M18.9038852,84.806711 C18.9038852,84.806711 20.2787132,84.2923838 24.0594903,82.4065178 C27.8402673,80.5206517 79.3963179,53.7756421 79.3963179,53.7756421 C79.3963179,53.7756421 80.2555854,50.5182371 83.0052414,48.9752558 C85.7548974,47.4322745 87.645286,48.118044 89.707528,47.4322745 C91.76977,46.746505 142.982114,14.8582244 142.982114,13.4866854 C142.982114,12.1151465 140.576165,10.9150499 140.576165,10.9150499 C140.576165,10.9150499 131.711961,6.26964744 130.436808,6.11466354 C129.161655,5.96002252 96.5816681,22.0588039 95.0349865,23.0874581 C93.488305,24.1161123 71.4910568,38.3458289 71.4910568,38.3458289 C71.4910568,38.3458289 65.7343082,40.6037249 64.1013562,41.6032339 C62.4684042,42.6030858 58.2583371,45.8892932 58.2583371,45.8892932 C58.2583371,45.8892932 38.3233309,55.8329506 35.5736749,57.5473743 C32.8240189,59.261798 8.42082159,75.8917078 7.56155408,76.7489196 C6.70228657,77.6061314 6.53043307,78.2919009 7.38970058,78.9776704 C8.24896809,79.6634399 18.3498295,84.2330648 18.9038852,84.806711"/>
      <polyline fill="#EC6D54" points="39.87 58.405 61.867 46.232 58.258 45.889 34.714 57.89 39.87 58.405"/>
      <polyline fill="#EC6D54" points="75.272 38.689 97.785 25.145 93.316 24.116 71.491 38.346 75.272 38.689"/>
      <path fill="#E85740" d="M80.2555854,72.8057451 L54.4775601,66.9767046 L56.0242416,65.9480504 L75.9592478,70.0626672 C75.9592478,70.0626672 78.8817885,70.8687892 79.5681714,71.2627638 C80.2545543,71.6570812 80.2555854,72.8057451 80.2555854,72.8057451"/>
      <path fill="#EC6D54" d="M93.2590524,76.0062313 C93.2590524,76.0062313 92.9153454,74.8630535 92.5716384,73.377334 C92.2279314,71.8916144 92.3427296,70.5200754 93.832012,68.9198324 C95.3212945,67.3195893 98.4146575,65.0339196 100.018738,64.119446 C101.622819,63.2049724 103.226556,62.9766112 103.226556,62.9766112 C103.226556,62.9766112 104.385192,64.2792303 105.288798,65.7196891 C106.043922,66.9232145 107.035517,67.5359496 105.64694,69.5912007 C104.876005,70.732664 103.083573,72.9202686 101.8232,73.8343993 C100.562826,74.7488729 99.3313241,75.8059866 97.9564961,75.7775271 C96.2383048,75.7418671 93.2590524,76.0062313 93.2590524,76.0062313"/>
      <path fill="url(#b)" d="M102.847589,55.2189144 C109.506174,51.3182001 114.981381,54.3879392 115.079797,62.0789142 C115.178611,69.7754317 109.85579,79.1885327 103.188871,83.100332 C96.5187777,87.0137148 91.0368243,83.9352662 90.9467415,76.2276637 C90.8570556,68.5256037 96.1862254,59.1212123 102.847589,55.2189144"/>
      <path fill="#FFFFFF" d="M102.768394,67.4341128 C102.768394,67.4341128 104.672187,67.7838552 106.09101,69.3768977 C107.509489,70.9702831 108.382161,72.291418 107.923999,72.8057451 C107.465838,73.3200722 104.601384,73.2631534 102.997647,72.6915645 C101.393566,72.1199756 100.362445,71.0913214 100.362445,71.0913214 C100.362445,71.0913214 100.445622,69.8761379 100.820607,69.034013 C101.279112,68.0053588 102.768394,67.4341128 102.768394,67.4341128"/>
    </g>
    <g transform="translate(0 .61)">
      <use fill="#171615" stroke="#4E4B49" stroke-width="2" mask="url(#c)" xlink:href="#a"/>
      <polygon fill="#FFFFFF" points="7 12 111 12 111 156 7 156"/>
      <g transform="translate(7 15.39)">
        <rect width="104" height="57.368" y="14.632" fill="#D8D8D8"/>
        <rect width="104" height="63" y="72" fill="#7BCAEC"/>
        <polygon fill="#777675" points="0 97.286 104 112.045 103.973 141.286 0 141.286"/>
        <g stroke="#FFFFFF" transform="rotate(8 -570.278 259.71)">
          <ellipse cx="23.5" cy="19.488" rx="14.43" ry="14.512"/>
          <path d="M.412280702 19.4878049L46.5877193 19.4878049M23.9122807.594012005L23.9122807 2.90243902M33.4744388 3.31707317L32.1578947 5.20802588" stroke-linecap="square"/>
          <path d="M13.6849651,4.14634146 L12.3684211,6.03729418" stroke-linecap="square" transform="matrix(-1 0 0 1 26.053 0)"/>
          <path d="M40.010095,12.4390244 L37.9298246,13.4146078" stroke-linecap="square"/>
          <path d="M7.85220029,12.4390244 L5.77192982,13.4146078" stroke-linecap="square" transform="matrix(-1 0 0 1 13.624 0)"/>
        </g>
        <rect width="22" height="10" x="3" y="129" fill="#DBD9DB"/>
        <rect width="22" height="10" x="28" y="129" fill="#DBD9DB"/>
        <rect width="22" height="10" x="54" y="129" fill="#DBD9DB"/>
        <rect width="22" height="10" x="79" y="129" fill="#DBD9DB"/>
        <rect width="46" height="4" x="3" fill="#777675"/>
        <rect width="21" height="4" x="3" y="7" fill="#D8D8D8"/>
        <rect width="40" height="4" x="28" y="7" fill="#D8D8D8"/>
        <rect width="11" height="4" x="90" y="7" fill="#D8D8D8"/>
        <polygon fill="#BEBEBE" points="9.835 37.834 56.256 25 57.075 35.451 69.121 44.67 67.796 52.717 96.675 57.322 93.7 63.611 104 72.094 0 72.094 8.435 51.355"/>
        <polygon fill="#BDBDBD" points="58.668 15.055 70.594 29.736 91.289 35.207 103.721 54.16 103.721 14.071"/>
        <g fill="#E85740" transform="rotate(-28 98.04 -58.628)">
          <rect width="3.235" height="13.714" x="5.824" y=".286" rx="1"/>
          <path d="M1.59872116e-13,8.03956988 C1.59872116e-13,7.12252627 0.738821581,6.33306053 1.64681114,6.27646031 L9.35318886,5.7960774 C10.2626975,5.73938248 11,6.4373484 11,7.34740059 L11,7.46791055 C11,8.38137761 10.2611784,9.07583396 9.35318886,9.01923374 L1.64681114,8.53885083 C0.737302463,8.48215592 1.59872116e-13,7.69354249 1.59872116e-13,6.77574126 L1.59872116e-13,8.03956988 Z"/>
        </g>
        <polyline stroke="#979797" points="41.004 45.988 16.877 53.18 .508 48.283"/>
        <rect width="104" height="2" y="72" fill="#FFFFFF" transform="matrix(1 0 0 -1 0 146)"/>
      </g>
    </g>
    <path fill="#FFFFFF" d="M126.382686,92.2320508 C125.278116,92.2320508 124.382686,91.3366203 124.382686,90.2320508 C124.382686,89.1274813 125.278116,88.2320508 126.382686,88.2320508 C127.487255,88.2320508 128.382686,89.1274813 128.382686,90.2320508 C128.382686,91.3366203 127.487255,92.2320508 126.382686,92.2320508 Z M136.382686,92.2320508 C135.278116,92.2320508 134.382686,91.3366203 134.382686,90.2320508 C134.382686,89.1274813 135.278116,88.2320508 136.382686,88.2320508 C137.487255,88.2320508 138.382686,89.1274813 138.382686,90.2320508 C138.382686,91.3366203 137.487255,92.2320508 136.382686,92.2320508 Z M146.382686,92.2320508 C145.278116,92.2320508 144.382686,91.3366203 144.382686,90.2320508 C144.382686,89.1274813 145.278116,88.2320508 146.382686,88.2320508 C147.487255,88.2320508 148.382686,89.1274813 148.382686,90.2320508 C148.382686,91.3366203 147.487255,92.2320508 146.382686,92.2320508 Z M156.382686,92.2320508 C155.278116,92.2320508 154.382686,91.3366203 154.382686,90.2320508 C154.382686,89.1274813 155.278116,88.2320508 156.382686,88.2320508 C157.487255,88.2320508 158.382686,89.1274813 158.382686,90.2320508 C158.382686,91.3366203 157.487255,92.2320508 156.382686,92.2320508 Z M166.382686,92.2320508 C165.278116,92.2320508 164.382686,91.3366203 164.382686,90.2320508 C164.382686,89.1274813 165.278116,88.2320508 166.382686,88.2320508 C167.487255,88.2320508 168.382686,89.1274813 168.382686,90.2320508 C168.382686,91.3366203 167.487255,92.2320508 166.382686,92.2320508 Z M176.382686,92.2320508 C175.278116,92.2320508 174.382686,91.3366203 174.382686,90.2320508 C174.382686,89.1274813 175.278116,88.2320508 176.382686,88.2320508 C177.487255,88.2320508 178.382686,89.1274813 178.382686,90.2320508 C178.382686,91.3366203 177.487255,92.2320508 176.382686,92.2320508 Z" transform="scale(-1 1) rotate(-30 0 655.2)"/>
  </g>
</svg>
