<svg xmlns="http://www.w3.org/2000/svg" width="117" height="169" viewBox="0 0 117 169" xmlns:xlink="http://www.w3.org/1999/xlink">
  <defs>
    <rect id="a" width="117" height="168" rx="4"/>
    <mask id="b" width="117" height="168" x="0" y="0" fill="white">
      <use xlink:href="#a"/>
    </mask>
  </defs>
  <g fill="none" fill-rule="evenodd">
    <use fill="#171615" stroke="#4E4B49" stroke-width="2" mask="url(#b)" xlink:href="#a"/>
    <polygon fill="#FFFFFF" points="7 12 111 12 111 156 7 156"/>
    <g transform="translate(7 15.39)">
      <rect width="104" height="57.368" y="14.632" fill="#D8D8D8"/>
      <rect width="104" height="63" y="72" fill="#7BCAEC"/>
      <polygon fill="#777675" points="0 97.286 104 112.045 103.973 141.286 0 141.286"/>
      <g stroke="#FFFFFF" transform="rotate(8 -570.278 259.71)">
        <ellipse cx="23.5" cy="19.488" rx="14.43" ry="14.512"/>
        <path d="M.412280702 19.4878049L46.5877193 19.4878049M23.9122807.594012005L23.9122807 2.90243902M33.4744388 3.31707317L32.1578947 5.20802588" stroke-linecap="square"/>
        <path d="M13.6849651,4.14634146 L12.3684211,6.03729418" stroke-linecap="square" transform="matrix(-1 0 0 1 26.053 0)"/>
        <path d="M40.010095,12.4390244 L37.9298246,13.4146078" stroke-linecap="square"/>
        <path d="M7.85220029,12.4390244 L5.77192982,13.4146078" stroke-linecap="square" transform="matrix(-1 0 0 1 13.624 0)"/>
      </g>
      <rect width="22" height="10" x="3" y="129" fill="#DBD9DB"/>
      <rect width="22" height="10" x="28" y="129" fill="#DBD9DB"/>
      <rect width="22" height="10" x="54" y="129" fill="#DBD9DB"/>
      <rect width="22" height="10" x="79" y="129" fill="#DBD9DB"/>
      <rect width="46" height="4" x="3" fill="#777675"/>
      <rect width="21" height="4" x="3" y="7" fill="#D8D8D8"/>
      <rect width="40" height="4" x="28" y="7" fill="#D8D8D8"/>
      <rect width="11" height="4" x="90" y="7" fill="#D8D8D8"/>
      <polygon fill="#BEBEBE" points="9.835 37.834 56.256 25 57.075 35.451 69.121 44.67 67.796 52.717 96.675 57.322 93.7 63.611 104 72.094 0 72.094 8.435 51.355"/>
      <polygon fill="#BDBDBD" points="58.668 15.055 70.594 29.736 91.289 35.207 103.721 54.16 103.721 14.071"/>
      <g fill="#E85740" transform="rotate(-28 98.04 -58.628)">
        <rect width="3.235" height="13.714" x="5.824" y=".286" rx="1"/>
        <path d="M0,8.03956988 C0,7.12252627 0.738821581,6.33306053 1.64681114,6.27646031 L9.35318886,5.7960774 C10.2626975,5.73938248 11,6.4373484 11,7.34740059 L11,7.46791055 C11,8.38137761 10.2611784,9.07583396 9.35318886,9.01923374 L1.64681114,8.53885083 C0.737302463,8.48215592 0,7.69354249 0,6.77574126 L0,8.03956988 Z"/>
      </g>
      <polyline stroke="#979797" points="41.004 45.988 16.877 53.18 .508 48.283"/>
      <rect width="104" height="2" y="72" fill="#FFFFFF" transform="matrix(1 0 0 -1 0 146)"/>
    </g>
  </g>
</svg>
