<svg xmlns="http://www.w3.org/2000/svg" xmlns:xlink="http://www.w3.org/1999/xlink" width="120" height="120" viewBox="0 0 120 120">
  <defs>
    <path id="cesar-a" d="M120,59.9999233 C120,93.1369885 93.1369885,120 59.9999233,120 C26.8628581,120 0,93.1369885 0,59.9999233 C0,26.8628581 26.8628581,0 59.9999233,0 C93.1369885,0 120,26.8628581 120,59.9999233"/>
  </defs>
  <g fill="none" fill-rule="evenodd">
    <mask id="cesar-b" fill="#fff">
      <use xlink:href="#cesar-a"/>
    </mask>
    <use fill="#7BCAEC" xlink:href="#cesar-a"/>
    <g mask="url(#cesar-b)">
      <g transform="translate(-.2 8.6)">
        <path fill="#2D373F" d="M27.8230472,87.8111028 C28.7055236,87.4596734 31.5286119,85.3519298 31.5286119,85.3519298 C31.5286119,85.3519298 32.0578189,84.1222045 32.5873048,83.9464898 C33.1167907,83.7704975 34.1754836,83.4193457 35.4103931,82.5410498 C36.6455813,81.6624763 37.3512836,77.0952821 37.3512836,77.0952821 C37.3512836,77.0952821 37.3512836,75.6901197 39.8216601,74.8118238 C42.2920366,73.9332503 45.6443319,72.703525 45.6443319,72.703525 L75.7034601,83.5945053 L77.2286248,85.1762151 C77.2286248,85.1762151 82.3455942,88.3379693 84.992466,89.5676947 C87.6393378,90.79742 93.3140625,93.6664062 95.66875,96.3429687 C98.0234375,99.0195312 99.5817304,105.729283 99.5817304,105.729283 L100.110937,114.337083 L0.120814235,114.337083 C0.120814235,114.337083 4.00259541,104.148128 7.17867424,102.040107 C10.3550319,99.932086 16.0012084,95.1891771 16.0012084,95.1891771 C16.0012084,95.1891771 26.9408495,88.1625322 27.8230472,87.8111028 Z"/>
        <path fill="#DBA47E" d="M43.6676404,79.5299717 L45.8982286,75.0885259 C45.8982286,75.0885259 45.3297074,72.0405837 45.1955933,71.4826271 C45.061758,70.9246705 40.8794051,63.9849114 40.8794051,63.9849114 C40.8794051,63.9849114 40.7399933,64.8176825 39.3458756,64.9564777 C37.951758,65.0952729 35.7211698,62.7357548 34.3270521,60.2374415 C32.9329345,57.7391283 31.8176404,54.9632247 31.3528415,52.9276546 C30.8883215,50.8918068 30.3306745,47.3758473 30.2375474,45.9878955 C30.1446992,44.5999437 30.8883215,43.4895823 32.2824392,43.5820199 C33.6765568,43.6744574 36.1859686,44.2296382 36.1859686,44.2296382 C36.1859686,44.2296382 40.3683215,38.5853933 41.7624392,33.0335861 C43.1565568,27.4817789 45.0151945,20.6344574 52.9153804,18.8764777 C60.8152874,17.1184979 75.5929345,14.8050599 78.2883215,17.0257827 C80.9834298,19.2465056 82.6563709,25.9086743 82.9351945,26.9265982 C83.214018,27.944522 83.5502792,35.5063611 83.5502792,35.5063611 L84.1433368,38.4002406 L84.5122204,40.2328921 C84.5122204,40.2328921 85.6305815,43.9520478 85.7234298,45.0624093 C85.816278,46.1727707 86.8387239,50.984522 86.6527486,52.557349 C86.4670521,54.1304536 86.0951015,57.7391283 85.816278,59.9598512 C85.5374545,62.1805741 85.0729345,67.4547909 83.3999933,71.0634656 C81.7270521,74.6721403 80.3329345,78.0032247 79.7752874,78.8359958 C79.2176404,79.6687668 78.1023462,82.2595177 75.7789098,83.3698791 L75.3141109,88.8292488 L75.5000862,92.7155138 C75.5000862,92.7155138 75.5000862,99.1000921 75.4069592,98.8225018 C75.3141109,98.5449114 72.9906745,94.1959032 72.9906745,94.1959032 L68.529498,95.3062647 C68.529498,95.3062647 59.3283215,91.5127148 55.4247921,89.0144015 C51.5212627,86.5160883 43.6676404,79.5299717 43.6676404,79.5299717"/>
        <path fill="#B9866B" d="M63.0374831,58.8908229 C62.7009431,60.1644075 62.5922019,61.4668615 62.5922019,61.4668615 C62.5922019,61.4668615 62.1881866,62.8073453 63.1980854,62.4051169 C64.2082631,62.0031661 65.4203089,62.6735468 66.5648795,62.5391931 C67.7094501,62.4051169 68.584956,61.4668615 69.3255113,61.1984316 C70.0660666,60.9302793 71.8842748,60.7293039 73.0288454,60.9974562 C74.173416,61.2656085 75.1161184,60.86338 75.5873301,60.4611516 C76.0588207,60.0592008 77.2309948,58.7883921 77.2309948,58.7883921 C77.2309948,58.7883921 75.1847089,59.9004191 74.1748101,59.4981907 C73.1646325,59.0962398 71.4612995,58.1599275 72.2676572,57.1442244 C73.2471642,55.90978 72.1427442,53.0450475 71.3037642,51.8991545 C68.9028148,48.619702 68.561256,46.159141 68.224716,45.220608 C67.888176,44.2823526 66.5464772,45.4487873 66.5464772,45.4487873 L64.2609607,50.4481897 C64.2609607,50.4481897 65.8212572,50.1375661 65.8212572,53.554981 C65.8212572,55.5036653 65.6310995,56.688421 65.6310995,56.688421 C65.6310995,56.688421 63.3743019,57.6172384 63.0374831,58.8908229 Z"/>
        <path fill="#B9866B" d="M64.6343891 42.484955C64.6343891 42.484955 65.7538655 42.1848798 66.9594985 43.1708808 68.1651314 44.1566041 68.4665396 46.1286061 68.2512879 47.0288316 68.0360361 47.9290572 66.1564867 51.1596538 64.8396032 50.4493 63.7390867 49.8560894 62.9937914 51.8494658 61.7128761 52.1559256 60.4322396 52.4623853 63.0423067 49.7927988 62.3101161 49.1926485 61.5782044 48.5924981 58.2680114 49.3417145 58.0527596 49.5132653 57.8375079 49.6848162 57.5299655 46.5144567 57.9172514 45.2283805 58.3048161 43.9423044 57.658782 43.2994051 57.8313738 43.1708808 58.0034079 43.0423564 64.6343891 42.484955 64.6343891 42.484955M80.3285156 61.2503906C80.1057356 59.9745853 80.1457045 60.5171138 79.0964915 59.0095206 78.8341186 58.276682 78.8265904 57.2856844 78.5112409 56.579217 77.9477386 55.3170136 76.9484351 54.8137423 76.9484351 54.8137423 76.9484351 54.8137423 77.8774751 56.5092642 78.0182809 57.5610541 78.1590868 58.612844 77.5253209 59.3140372 77.5253209 59.3140372 77.5253209 59.3140372 77.7363904 59.4542203 78.2998927 59.5244507 78.4911656 59.5480459 80.3285156 61.2503906 80.3285156 61.2503906z"/>
        <path fill="#96908B" d="M52.5755502,48.7098633 C52.5755502,48.7098633 54.5521302,49.5240359 55.7984714,49.5240359 C57.0450914,49.5240359 58.6614314,48.9741293 59.2687091,48.6876561 C59.8759867,48.4014604 60.1955185,48.2421236 60.1955185,48.2421236 C60.1955185,48.2421236 61.1223279,48.0194961 61.3141585,47.9875732 C61.5057102,47.9559279 61.7296055,47.4468272 61.6336902,47.2239221 C61.5377749,47.0012947 60.7707314,46.2695665 59.9077726,45.8240339 C59.0450926,45.3785014 58.0862185,45.4739925 57.8305373,45.5694836 C57.5748561,45.6646971 53.388042,47.4468272 53.2921267,47.5103954 C53.1962114,47.5739636 52.3653173,48.4331057 52.3653173,48.4331057 L52.5755502,48.7098633 Z"/>
        <path fill="#D6CBBF" d="M53.3879305,48.7513353 C53.3879305,48.7513353 55.6572752,47.1923879 57.1272328,46.8420688 C58.5974693,46.4920274 59.1729611,46.6513642 59.6843234,46.8104235 C60.1956858,46.9694828 61.3140469,47.9876842 61.3140469,47.9876842 C61.3140469,47.9876842 60.6429187,48.0831753 60.1956858,48.2422346 C59.748174,48.4012939 59.0449811,48.8784717 57.7027246,49.164945 C56.3601893,49.4511406 55.3285422,49.3603686 54.8261022,49.260436 C54.1870387,49.1330221 53.3879305,48.7513353 53.3879305,48.7513353"/>
        <path fill="#5C3A2E" d="M62.7291879,47.3297673 L59.8090691,45.5107177 C59.8090691,45.5107177 59.9158585,45.3755312 60.2618785,45.4443736 C60.6081773,45.513216 62.4079832,46.1733259 62.4079832,46.1733259 L62.1132667,44.7204179 C62.1132667,44.7204179 60.3310267,44.7256921 59.9850067,44.7256921 C59.6389867,44.7256921 57.9292408,45.2506155 57.6311785,45.3461066 C57.6311785,45.3461066 59.5706749,45.6955929 60.3784267,46.1897037 C61.1861785,46.6832594 61.9214361,47.2817442 61.9214361,47.4469105 C61.9214361,47.6537153 61.6657549,48.1147929 61.6657549,48.1147929 C61.8734785,48.1147929 62.7983361,47.8122194 62.7983361,47.8122194 L62.7291879,47.3297673 Z"/>
        <path fill="#B9866B" d="M73.2613285,46.0399437 C73.2613285,46.0399437 73.7074461,46.8857615 74.2433449,47.5722425 C74.7795226,48.2581683 75.5139438,49.844042 75.5139438,49.844042 C75.5139438,49.844042 75.7333779,49.2794232 75.9310638,48.3159071 C76.1181544,47.4043003 76.5046038,46.8560594 77.9558802,46.4610483 C79.2298249,46.1140603 80.6760826,45.7853933 81.1737826,45.1755273 C81.6714826,44.5653837 83.0260073,44.3624652 83.0260073,44.3624652 C83.0260073,44.3624652 82.9384567,43.1871476 82.3258814,42.7294011 C81.7130273,42.2722097 80.1159261,42.0368131 79.1969238,41.9987832 C78.2779214,41.9607533 76.1571896,40.9775283 75.0851132,41.0918955 C74.0127579,41.2062627 72.7909532,41.7039823 72.5230038,42.5806126 C72.2550544,43.4575206 72.4954002,45.2393731 72.7633496,45.5061374 C73.0315779,45.7731794 73.2613285,46.0399437 73.2613285,46.0399437"/>
        <path fill="#96908B" d="M74.2777796,45.8686149 C74.2777796,45.8686149 76.0070432,46.2689002 77.3342432,46.1889542 C78.6614432,46.1087306 79.9482138,45.7084453 80.4308573,45.2279364 C80.9135008,44.7474275 81.1951126,43.6265176 81.1951126,43.6265176 C81.1951126,43.6265176 78.9480738,42.7937465 77.6158549,42.8656424 C76.2833573,42.9375383 74.5259326,43.5793272 74.5259326,43.5793272 L73.6342549,45.2679094 C73.6342549,45.2679094 73.7549855,45.7886689 74.2777796,45.8686149"/>
        <path fill="#D6CBBF" d="M73.9936306,45.7271271 C73.9936306,45.7271271 75.5218624,44.6861633 77.1303953,44.205932 C78.7392071,43.7251454 80.7500824,44.5259936 80.7500824,44.5259936 C80.7500824,44.5259936 80.6293518,45.2066452 79.9456765,45.4870115 C79.2620012,45.7673777 78.0153812,46.4077787 76.8089118,46.2878597 C75.6024424,46.167663 73.9936306,45.7271271 73.9936306,45.7271271"/>
        <path fill="#D59E7D" d="M38.9088476,57.9288891 C38.3542676,56.0515454 38.3517582,52.7368389 38.3517582,52.7368389 C38.3517582,52.7368389 38.1323241,46.8871773 37.7996876,46.6662153 C37.4670512,46.445531 34.4724865,44.0163377 34.4724865,44.0163377 C34.4724865,44.0163377 31.92153,42.9120833 31.2562571,43.5746915 C30.5907053,44.2372997 30.1470971,44.568465 30.2580688,45.5622385 C30.3690406,46.5557344 30.5907053,51.4141209 31.6998653,54.5059223 C32.8090253,57.5977238 35.24901,61.6830211 36.1362265,63.0082375 C37.0234429,64.3331763 38.5628276,64.9172264 39.3457641,64.9563667 C40.1287006,64.9957845 40.8792935,63.9848004 40.8792935,63.9848004 C40.8792935,63.9848004 39.4634276,59.8062327 38.9088476,57.9288891"/>
        <path fill="#634131" d="M65.0675972,57.7434865 C65.0675972,57.7434865 64.3883831,58.9115867 64.6970407,59.7104918 C65.0059772,60.5096744 65.2530148,61.1858845 65.8703301,61.3702045 C66.4876454,61.5545245 67.1668595,61.9847896 67.2903784,61.6161496 C67.4138972,61.247232 67.9079725,60.5712995 67.9079725,60.5712995 C67.9079725,60.5712995 69.2661219,59.8950893 69.7601972,59.9564368 C70.2539936,60.0177843 72.0445984,60.3253544 72.0445984,60.3253544 C72.0445984,60.3253544 69.0809831,60.4483269 68.5252878,60.878592 C67.9695925,61.3088571 67.9079725,61.7391221 67.4138972,62.0464147 C66.9201007,62.3537072 65.0675972,61.9237197 64.6970407,61.1245371 C64.3267631,60.3253544 63.8326878,59.0959067 65.0675972,57.7434865"/>
        <path fill="#996E5E" d="M77.7866065,55.8550947 C77.7670888,55.7965232 77.7316782,55.7251825 77.6848359,55.6466244 C77.4380771,55.2310716 76.8731806,54.6062157 76.6133171,54.5029521 C76.3049382,54.3799796 76.9222535,55.4864547 76.9222535,55.4864547 L77.7866065,55.8550947 Z"/>
        <path fill="#331A0C" d="M78.5908172,43.2054963 C79.0720666,44.1803936 78.6686089,45.3590423 77.6893807,45.8378857 C76.7101525,46.3172842 75.5262678,45.9153334 75.0450184,44.940436 C74.5637689,43.9655387 74.9672266,42.7871676 75.9464548,42.3080467 C76.9254042,41.8289257 78.1095678,42.2305989 78.5908172,43.2054963"/>
        <path stroke="#1D0500" stroke-width=".5" d="M78.5908172,43.2054963 C79.0720666,44.1803936 78.6686089,45.3590423 77.6893807,45.8378857 C76.7101525,46.3172842 75.5262678,45.9153334 75.0450184,44.940436 C74.5637689,43.9655387 74.9672266,42.7871676 75.9464548,42.3080467 C76.9254042,41.8289257 78.1095678,42.2305989 78.5908172,43.2054963 Z"/>
        <path fill="#1D0500" d="M78.8028067,43.641674 C78.8028067,43.641674 77.8598255,43.7096837 76.8267844,43.8912278 C75.8729291,44.0591699 74.8195338,44.5774311 74.8510408,44.6770861 C74.632722,43.5883767 75.3322902,42.2803709 76.4266726,42.0630176 C77.5207761,41.8456644 78.5844879,42.5524094 78.8028067,43.641674"/>
        <path fill="#000" d="M77.5472644,43.716207 C77.7452291,44.1170475 77.5793291,44.6017203 77.1764291,44.799087 C76.7735291,44.9961762 76.2867032,44.8310099 76.0887385,44.4298919 C75.8904949,44.0287738 76.0566738,43.544101 76.4592949,43.3470119 C76.8621949,43.1496451 77.3492996,43.315089 77.5472644,43.716207"/>
        <path fill="#331A0C" d="M57.7950431,46.1394321 C58.4274148,47.0246678 58.2191336,48.2527275 57.3299654,48.8823025 C56.4407972,49.5115998 55.2072819,49.3042398 54.5751889,48.4190041 C53.9428172,47.5334909 54.1510984,46.3059863 55.0402666,45.6764114 C55.9294348,45.0468364 57.1626713,45.254474 57.7950431,46.1394321"/>
        <path stroke="#1D0500" stroke-width=".5" d="M57.7950431,46.1394321 C58.4274148,47.0246678 58.2191336,48.2527275 57.3299654,48.8823025 C56.4407972,49.5115998 55.2072819,49.3042398 54.5751889,48.4190041 C53.9428172,47.5334909 54.1510984,46.3059863 55.0402666,45.6764114 C55.9294348,45.0468364 57.1626713,45.254474 57.7950431,46.1394321 Z"/>
        <path fill="#1D0500" d="M58.0934679,46.6127514 C58.0934679,46.6127514 57.1736291,46.8306599 56.1832479,47.1748719 C55.2689855,47.4929905 54.3128996,48.1730868 54.3600208,48.2666348 C53.9691102,47.2265037 54.4484079,45.823562 55.4934385,45.4343803 C56.5384691,45.0449211 57.7025573,45.5726203 58.0934679,46.6127514"/>
        <path fill="#000" d="M56.8473498,46.810368 C57.1074921,47.1745666 57.0216145,47.679781 56.6560768,47.9384952 C56.2902604,48.197487 55.7828015,48.1122668 55.522938,47.7480682 C55.2625168,47.3838697 55.3483945,46.8786552 55.7142109,46.6196634 C56.0800274,46.3609492 56.5872074,46.4461694 56.8473498,46.810368"/>
        <path fill="#131213" d="M39.7752639,52.3117648 L40.3446215,45.2259933 C40.3446215,45.2259933 40.2024215,42.1080983 40.4871004,41.6831075 C40.7717792,41.2581166 41.056458,39.5573205 42.3373733,38.7070612 C43.6185674,37.8568019 43.8087251,35.7312925 44.3780827,34.8807557 C44.9474404,34.0304964 45.0899192,29.2120829 44.8052404,28.787092 C44.5205615,28.3621012 45.895998,25.527626 47.4618709,24.2520983 C49.0277439,22.9765706 53.0132474,21.4179007 55.8600356,20.8510612 C58.7071027,20.2842217 61.9810486,20.4260704 62.8350851,20.7092125 C63.6891215,20.9929099 65.5396733,22.2684376 66.6783886,21.5597494 C67.8171039,20.8510612 68.8136192,19.5755335 70.9485709,19.008694 C73.0838015,18.4418545 76.0730686,18.016586 77.6386627,18.8671229 C79.2045356,19.7173822 79.9163721,20.9929099 80.6282086,22.4097311 C81.3397662,23.8271075 82.4784815,30.0626198 82.6209604,30.7710304 C82.7631604,31.4797186 83.4749968,36.298132 83.4749968,35.7312925 C83.4749968,35.164453 83.9021545,30.2041908 83.7596756,28.787092 C83.6171968,27.3697157 81.7669239,19.8589533 81.7669239,19.8589533 C81.7669239,19.8589533 81.9091239,15.4660858 81.1975662,13.7652896 C80.4857298,12.0647711 78.7776568,11.4979316 78.7776568,11.4979316 C78.7776568,11.4979316 78.492978,9.51371566 77.2117839,8.23846554 C75.9305898,6.96293783 73.5109592,6.11267855 73.5109592,6.11267855 C73.5109592,6.11267855 70.2367345,3.13690988 69.3829768,2.85321253 C68.5289404,2.57007036 67.6749039,2.42822169 67.6749039,2.42822169 C67.6749039,2.42822169 65.8243521,1.71953349 65.1125156,1.86138217 C64.4006792,2.00323084 63.4044427,1.57768482 63.4044427,1.57768482 C63.4044427,1.57768482 61.5538909,0.160863614 60.4151756,0.160863614 C59.2764604,0.160863614 57.4259086,0.727703133 57.4259086,0.727703133 C57.4259086,0.727703133 56.1447145,0.444005783 53.7250839,0.585854458 C51.3051745,0.727703133 47.3196709,1.71953349 47.3196709,1.71953349 C47.3196709,1.71953349 43.9032462,2.42822169 42.9067309,3.27820337 C41.9104945,4.12874024 40.6293004,5.54583904 39.7752639,6.25452723 C38.9212274,6.96293783 37.7825121,7.10478651 37.3553545,7.53005494 C36.9284756,7.95504578 33.9392086,10.931092 33.2276509,12.0647711 C32.5158145,13.1984501 30.0959051,19.4339624 29.9534262,21.9847402 C29.8112262,24.5355181 30.8074627,28.2202525 31.0921415,28.9289407 C31.3770992,29.6373513 34.2238874,41.8249561 34.2238874,41.8249561 L35.2204027,45.0841446 C35.2204027,45.0841446 36.9284756,46.643092 37.3553545,47.6349224 C37.7825121,48.627308 38.3518698,51.8864964 38.3518698,51.8864964 L38.3518698,52.7367557 L39.7752639,52.3117648 Z"/>
        <path fill="#56392C" d="M62.9737161 43.0856605C62.9737161 43.0856605 65.456082 42.9360393 66.1333444 42.5612923 66.8103279 42.1871005 67.1864608 42.0372017 67.1864608 41.5877829 67.1864608 41.1383641 66.2086267 39.8650572 65.6066467 39.6404866 65.0049455 39.4156384 63.4251314 39.4905878 63.0489985 39.7151584 62.6725867 39.9400066 58.0837091 40.7638947 57.2561608 40.6142735 56.4286126 40.4643747 53.7203996 40.4643747 52.9681338 40.6889453 52.2158679 40.9137935 49.0562396 42.9360393 48.6048244 43.2355593 48.1534091 43.5350793 45.8213291 46.4561627 46.5735949 46.5308345 47.3258608 46.6060615 48.9809573 46.0816933 49.7332232 45.7818957 50.4854891 45.4823757 53.6451173 44.5088663 54.7735161 44.2840181 55.9021938 44.0594475 62.9737161 43.0856605 62.9737161 43.0856605M72.4349234 41.3653775C72.4349234 41.3653775 72.3515552 39.2906672 73.0185011 38.7929477 73.6851681 38.2949506 74.7686764 37.797231 75.4356222 37.797231L77.6860069 37.797231C77.6860069 37.797231 78.5194105 37.5482325 79.9361128 37.1335125 81.353094 36.7185149 82.8411752 36.5999838 83.0079116 36.8487048 83.1749269 37.0977033 83.9768234 37.4088821 84.1432811 38.3215992 84.3102964 39.2343163 84.5358646 40.2838855 84.5358646 40.2838855 84.5358646 40.2838855 82.8534434 39.9546633 82.1867764 39.9546633 81.5198305 39.9546633 79.6029187 40.631151 78.4360422 40.9634267 77.2691658 41.2951472 72.934854 41.697098 72.934854 41.697098L72.4349234 41.3653775z"/>
        <path fill="#432619" d="M67.78437 60.4038847C67.78437 60.4038847 68.0314076 59.9122722 68.8338618 59.7892997 69.6365947 59.6663271 70.3158088 59.7276746 70.6244665 59.7892997 70.9331241 59.8509247 72.0445147 60.4038847 72.0445147 60.4038847 72.0445147 60.4038847 70.6863653 60.0968698 69.8836324 60.3425373 69.0808994 60.5884823 68.5252041 60.8954973 68.2165465 60.8954973 67.9078888 60.8954973 67.78437 60.4038847 67.78437 60.4038847M75.9343818 60.2022153C75.9343818 60.2022153 76.5516971 59.7719503 76.6752159 59.4646577 76.7987347 59.1573652 77.2309112 58.7884476 77.2309112 58.7884476 77.2309112 58.7884476 77.6014676 59.3416852 77.2309112 59.5876303 76.8603547 59.8335753 75.9343818 60.2022153 75.9343818 60.2022153"/>
        <path fill="#996E50" d="M33.2219629 46.1928405C33.2219629 46.1928405 32.4083559 45.4841523 31.5947488 45.7878361 30.7811418 46.0917976 30.7811418 47.2052125 30.7811418 47.2052125 30.7811418 47.2052125 31.2897159 52.0652646 31.3914865 51.5589398 31.4929782 51.0528925 30.9846829 48.4202255 31.6965194 47.6102169 32.4083559 46.8002082 33.2219629 46.1928405 33.2219629 46.1928405M34.950864 47.8128301C35.2558969 47.9141506 35.6627005 48.5215183 35.7644711 49.0278431 35.8662416 49.5338903 36.4763075 50.343899 36.069504 50.1415356 35.6627005 49.9388947 34.5440605 49.4328474 34.5440605 49.4328474L34.950864 47.8128301zM36.1711073 50.7489588L37.2897473 52.2679333C37.2897473 52.2679333 36.3743696 52.3689762 36.0696155 52.9763439 35.7645826 53.5839892 35.9678449 54.5963613 36.0696155 55.1026861 36.1711073 55.6090109 36.8829438 56.1150581 36.8829438 56.1150581L37.1879767 55.4063699C37.1879767 55.4063699 37.900092 56.5200625 38.4083873 57.1277078 38.9169614 57.7350755 38.8151908 58.8490456 38.8151908 58.8490456 38.8151908 58.8490456 37.900092 59.051409 37.2897473 58.4440413 36.6796814 57.836396 36.8829438 57.1277078 36.8829438 57.1277078 36.8829438 57.1277078 35.8660744 57.5324345 34.9509755 56.7227034 34.0355979 55.9126947 32.7134167 53.8876731 33.2219908 52.7739805 33.7305649 51.660288 36.1711073 50.7489588 36.1711073 50.7489588M45.3880931 71.660396C45.3880931 71.660396 53.689506 79.313007 58.1267036 81.6270003 60.1509625 82.6826764 64.6464342 84.6668923 67.6973213 84.8695333 70.7482084 85.0718967 73.6914695 84.2915902 73.6914695 84.2915902 73.6914695 84.2915902 71.3585531 85.7805849 69.6295684 86.0845463 67.9008625 86.3882302 59.5107836 87.9607796 57.0699625 86.7457666 54.6294201 85.5307535 49.4658872 81.3416374 45.3880931 71.660396"/>
        <path fill="#B9866B" d="M74.1063589,43.7850772 C74.1063589,43.7850772 74.0915813,43.6701548 75.3407107,43.1849268 C76.5895613,42.6996989 78.4688319,42.5856093 78.4688319,42.5856093 C78.4688319,42.5856093 78.4992236,42.039589 77.2807648,41.8577673 C76.0620272,41.675668 74.9043519,42.2214107 74.7217225,42.6158666 C74.5388142,43.0100449 74.1063589,43.7850772 74.1063589,43.7850772"/>
        <path fill="#5C3A2E" d="M73.7360534 45.2993326C73.7360534 44.8587967 74.0441534 44.4618425 74.0441534 44.4618425L74.6517099 43.67071 77.1407675 42.4135032C77.1407675 42.4135032 75.9527005 42.4079514 75.1884452 42.6083717 74.4244687 42.8082367 73.8888487 43.7326126 73.8888487 43.7326126 73.8888487 43.7326126 73.5129946 44.5317953 73.4469134 44.6728112 73.3139146 44.9562309 73.1731087 45.4595023 73.2534099 45.5796989 73.3339899 45.6996179 74.5003087 45.9400112 74.5003087 45.9400112 74.5003087 45.9400112 73.7360534 45.7395909 73.7360534 45.2993326M79.5675081 42.3765282C79.8086905 42.3765282 80.4025846 42.3634814 80.9655293 42.6035971 81.528474 42.8439904 81.8505152 42.9639094 81.9709669 43.1643296 82.0916975 43.3644723 82.2852011 43.9349205 82.2852011 43.9349205 82.2852011 43.9349205 81.2674952 43.3675258 80.5514764 43.11936 79.8357364 42.870639 79.5675081 42.3765282 79.5675081 42.3765282"/>
        <path fill="#201208" d="M74.6318855,43.7164846 C74.6318855,43.7164846 74.1550973,43.0105723 75.0294879,42.6477617 C75.9038785,42.2852287 78.0533291,42.1747478 78.6363491,42.1747478 C79.2193691,42.1747478 80.5309549,42.4648297 80.8223255,42.6100094 C81.1139749,42.7549116 81.6239432,43.3353531 81.8425408,43.5529839 C82.0608596,43.7706147 83.1538479,44.2058764 83.1538479,44.2058764 C83.1538479,44.2058764 81.4050667,43.9157945 80.8223255,43.8430658 C80.2393055,43.7706147 79.2907479,43.0108499 78.562182,42.9383988 C77.8333373,42.8659478 76.8147949,42.8276403 76.0859502,43.1177222 C75.3573844,43.4080817 74.6318855,43.7164846 74.6318855,43.7164846"/>
        <path fill="#DBA47E" d="M53.3962394,46.943195 L57.63129,45.34594 C57.63129,45.34594 57.1422335,44.628369 56.0227571,44.7568933 C54.9032806,44.8854176 53.6114912,46.0002205 53.6114912,46.0002205 L53.3962394,46.943195 Z"/>
        <path fill="#C8CCDD" d="M14.6505035 114.933041C14.6505035 114.933041 20.1332894 110.423864 22.8746824 108.999825 25.6160753 107.575786 30.6220729 104.371838 31.5756494 104.727709 32.5292259 105.083858 33.3634659 104.846518 34.6744941 104.25303 35.9858012 103.660097 42.3028271 100.81202 42.3028271 100.81202L34.7938306 92.0307262C34.7938306 92.0307262 33.8402541 92.2683435 32.5292259 92.1495348 31.2179188 92.0307262 30.2646212 94.2853151 27.9997376 94.7599946 25.7351329 95.2346741 16.9151082 99.1509189 16.1999259 99.6250433 15.4850224 100.099723 8.81026588 104.609178 7.26084353 106.032939 5.71114235 107.456978 1.65872118 114.221022 1.65872118 114.221022L14.6505035 114.933041zM57.559242 114.576837C58.0360302 114.339775 69.3593326 108.76243 70.4319667 108.05041 71.5046008 107.338391 72.3388408 107.21986 72.3388408 107.21986 72.3388408 107.21986 75.0802338 111.729038 76.0338102 113.153076 76.9873867 114.576837 76.5766796 114.542139 76.5766796 114.542139L57.559242 114.576837zM78.8071564 114.542139C78.8071564 114.542139 78.1795246 111.135827 78.2985822 109.118578 78.4179187 107.101051 79.3712164 104.490592 79.3712164 104.490592 79.3712164 104.490592 86.6418187 104.846462 87.5953952 104.490592 88.5489716 104.134721 89.6218846 104.253252 89.6218846 104.253252L93.9124211 104.965271 94.3892093 113.153076C94.3892093 113.153076 92.6013928 112.441057 89.9793364 113.034268 87.3572799 113.627756 85.5691846 114.814177 84.7346658 114.814177 83.9004258 114.814177 78.8071564 114.542139 78.8071564 114.542139M80.0865102 91.200148C80.0865102 91.200148 81.6359326 90.4884064 82.2317785 90.8442772 82.8279032 91.200148 84.6157196 91.4374878 84.6157196 91.4374878L87.9529585 91.6748276C87.9529585 91.6748276 85.8076902 90.1319803 83.5428067 88.7082194 81.278202 87.2844584 76.8683291 85.0295919 76.8683291 85.0295919L80.0865102 91.200148zM72.3389524 107.219888C72.3389524 107.219888 73.8886535 106.389337 74.3651629 105.914658 74.8419512 105.439978 74.7228935 104.727682 74.7228935 104.727682L75.67647 103.660069 76.0339218 105.08383 78.8946512 105.439978C78.8946512 105.439978 79.3711606 101.998413 79.9672853 100.099973 80.56341 98.2015321 81.6357653 95.1158377 81.6357653 95.1158377 81.6357653 95.1158377 78.0601324 94.5229047 77.5833441 94.2852873 77.1065559 94.0482252 76.0339218 94.1670338 76.0339218 94.1670338L75.4642853 99.5806011 72.9350771 94.9975842C72.9350771 94.9975842 72.5773465 96.5398762 70.4320782 97.4892353 68.2865312 98.4385943 63.6379853 99.7438242 63.6379853 99.7438242 63.6379853 99.7438242 67.3329547 101.879882 69.3591653 103.897131 71.3856547 105.914658 72.3389524 107.219888 72.3389524 107.219888"/>
        <path fill="#A6A9AB" d="M33.6460535 90.2703314C33.6460535 90.2703314 38.2338159 96.7701097 41.2331206 99.4049974 44.2329829 102.039885 50.5848618 105.904776 50.5848618 105.904776 50.5848618 105.904776 57.29001 103.797032 58.8781888 102.918459 60.4660888 102.039885 54.1139312 106.256205 52.8790218 106.958786 51.6438335 107.661368 49.1734571 107.661368 49.1734571 107.661368 49.1734571 107.661368 43.17429 103.797032 39.8217159 100.107579 36.4691418 96.4186803 33.6460535 90.2703314 33.6460535 90.2703314M43.5923301 79.7547088L45.8229184 75.313263 45.1149854 73.7576467C45.1149854 73.7576467 41.0567089 74.987372 41.4096995 76.392812 41.7626901 77.7979744 43.5923301 79.7547088 43.5923301 79.7547088M63.495144 99.7834919C63.495144 99.7834919 68.6491969 102.884176 70.5237275 105.026619 72.0689675 106.792648 74.0904381 110.262528 74.0904381 110.262528 74.0904381 110.262528 69.2885393 104.675189 66.9946581 103.796893 64.7007769 102.918597 61.1719864 101.337443 61.1719864 101.337443L63.495144 99.7834919z" style="mix-blend-mode:multiply"/>
        <polygon fill="#A6A9AB" points="75.386 87.808 78.817 92.73 75.464 99.581" style="mix-blend-mode:multiply"/>
        <path fill="#FEFEFE" d="M78.3600628 43.615636C78.3653605 43.8071734 78.2134016 43.967343 78.0207346 43.9723397 77.8280675 43.9778915 77.667744 43.8266047 77.6624464 43.6345122 77.6571487 43.4429748 77.8088287 43.2830828 78.0014958 43.2778086 78.1941628 43.272812 78.3547652 43.4238211 78.3600628 43.615636M57.6542651 46.4661004C57.7055686 46.6509756 57.5965486 46.8422354 57.4108521 46.893312 57.2248768 46.9443886 57.0327674 46.8358508 56.9814639 46.6509756 56.9301604 46.4661004 57.0391804 46.2748407 57.2248768 46.2234865 57.4105733 46.1724098 57.6029615 46.2809477 57.6542651 46.4661004"/>
        <path fill="#996E5E" d="M77.2212081 46.2503017C77.4423152 46.1767402 78.3632693 46.092908 79.2842234 45.762853 80.2051775 45.4327981 80.5001728 45.1024655 80.6473916 44.7726882 80.7946105 44.4423557 80.9758458 43.9438034 80.9758458 43.9438034L81.9514493 44.1303441C81.9514493 44.1303441 81.4947364 44.8823364 80.9421081 45.3592366 80.3894799 45.8361369 79.9807246 46.1903422 78.5843764 46.3130371 76.5863269 46.4884742 75.5716881 46.2961041 75.5716881 46.2961041L77.2212081 46.2503017zM52.0086462 48.6537346C52.0086462 48.6537346 52.1949004 48.5482502 52.4639651 48.5865577 52.7327509 48.6248652 53.8081733 49.083722 54.3072674 49.2366743 54.8066404 49.389349 55.541898 49.418496 56.1179474 49.418496 56.6939968 49.418496 57.9230509 49.074284 58.0766827 49.074284 58.2303145 49.074284 59.7281545 48.5390897 59.7281545 48.5390897 59.7281545 48.5390897 59.1236651 49.0473577 58.3555062 49.3915697 57.5873474 49.7355042 55.3740462 49.9056671 54.3371015 49.6377924 53.3001568 49.3701953 52.8883345 49.2536073 52.1201756 49.3302223 51.3520168 49.4065596 50.3186968 49.6477856 50.4723286 49.2652661 50.6259604 48.8830242 50.8565474 48.3475524 51.2020098 48.0802329 51.5477509 47.8126358 52.5846956 47.355722 52.5846956 47.355722L52.0086462 48.6537346z"/>
        <path fill="#201208" d="M60.7481467,46.0995979 C60.7994502,46.1193068 59.2416632,45.0222697 58.5231349,45.0208817 C57.8043279,45.0197714 54.6803891,46.1995304 54.1704208,46.4896123 C53.6604526,46.7796943 52.5674644,47.3601357 52.5674644,47.3601357 C52.5674644,47.3601357 51.620022,49.1736335 51.8386196,48.9560027 C52.0574961,48.7386494 52.786062,48.3031102 53.5146279,47.7953974 C54.2431938,47.2876846 54.8685949,46.9612384 56.3418985,46.2739246 C58.6182138,45.2126967 60.6968432,46.0801666 60.7481467,46.0995979"/>
        <path fill="#C67063" d="M62.5674424,69.3770487 C62.5674424,69.3770487 64.3652965,69.0189571 65.7318106,68.4460106 C67.0980459,67.8733417 70.5972812,65.8316646 71.1005576,65.8316646 C71.6041129,65.8316646 72.4196718,65.8685841 73.0668212,65.7972434 C73.7142494,65.7256251 74.6488659,65.2242969 74.6488659,65.2242969 C74.6488659,65.2242969 75.8715071,65.1526786 76.3750624,65.3678111 C76.8783388,65.5823884 77.86398,65.8721928 78.4394718,66.3019027 C79.0146847,66.7316125 79.3952788,66.6563855 79.3952788,66.6563855 C79.3952788,66.6563855 79.2514059,67.4439094 78.96366,68.2314333 C78.6761929,69.0189571 78.2445741,70.1645725 77.5974247,70.8088598 C76.9499965,71.453147 74.9366118,72.4555258 73.6420341,72.6703807 C72.3477353,72.8852357 70.8376271,72.956854 69.6149859,72.8136173 C68.3926235,72.6703807 67.2419188,72.5987624 65.5879376,71.7396202 C63.9336776,70.8804781 62.5674424,69.7348627 62.5674424,69.7348627 L62.5674424,69.3770487 Z"/>
        <path fill="#D78471" d="M66.6052253,68.0031985 C66.6052253,68.0031985 67.7556512,67.4269209 68.6506747,66.8539744 C69.4673488,66.3315493 70.5726053,65.7474992 70.9950229,65.768596 C71.79441,65.8082915 73.16901,65.805238 73.7958053,65.4879522 C74.4465794,65.15873 74.9637971,64.8755879 75.7701547,65.1165363 C76.5762335,65.3572071 77.9840135,65.8924013 78.48729,66.1586105 C79.0223524,66.4417527 79.4252524,66.7149016 79.4252524,66.7149016 C79.4252524,66.7149016 77.9617076,68.0267936 76.8904676,67.8843898 C75.8189488,67.7425411 73.48659,67.55489 72.6802324,67.7958385 C71.8738747,68.0365093 71.2334171,68.6402683 70.1047394,68.9611628 C68.9757829,69.2823348 66.6052253,68.0031985 66.6052253,68.0031985"/>
        <path fill="#D78471" d="M67.7043198,70.3719325 C67.7043198,70.3719325 69.3295821,69.7748357 70.3776798,69.8550593 C71.4260562,69.9352829 73.2211221,69.2496347 74.1632668,69.1943942 C75.490188,69.1169465 77.2991951,67.8833349 77.2991951,67.8833349 L79.1003951,67.2840173 C79.1003951,67.2840173 79.3181562,68.3979875 78.4278727,69.6490872 C77.4804304,70.981521 76.7543739,71.459254 75.0217645,71.8700877 C73.1703762,72.3095133 70.9732468,72.2728713 69.4411115,71.8711981 C67.9092551,71.47008 67.7043198,70.3719325 67.7043198,70.3719325"/>
        <path fill="#713028" d="M62.2605971,69.3499559 C62.7251171,69.427126 64.1083606,69.8040937 64.8363688,69.7771674 C65.8900429,69.7383048 68.5497406,69.3666113 69.4021041,69.2333679 C71.9918171,68.8286412 72.3581912,68.2898383 73.3580524,68.2187751 C74.3581924,68.147712 74.6439865,68.1954575 75.8582629,68.0530537 C77.0722606,67.9109274 78.0007429,67.4129303 78.0007429,67.4129303 C78.0007429,67.4129303 78.7864676,66.5598951 79.0719829,66.488832 C79.3577771,66.4177689 80.0779782,66.829713 79.8638418,66.9718392 C79.6497053,67.1139655 79.2364888,67.1350624 79.0220735,67.2064031 C78.8079371,67.2774662 77.7866065,68.0530537 76.9295029,68.1954575 C76.0723994,68.3375838 73.4589865,68.8117081 72.5221394,69.0057438 C71.7693159,69.1620272 69.7160594,69.4751491 68.4304041,69.7596792 C67.1450276,70.0439318 65.60871,70.0103433 64.6802276,70.0103433 C63.7517453,70.0103433 62.3445229,69.9587115 61.9876288,69.8876484 C61.6304559,69.8165853 61.7960771,69.2725081 62.2605971,69.3499559"/>
        <path fill="#B9866B" d="M61.1063513,53.2524075 C61.1063513,53.2524075 63.0480784,50.8359834 64.1806595,50.3526986 C65.3135195,49.8691362 66.1226654,48.9028441 66.1226654,48.9028441 C66.1226654,48.9028441 66.2843831,44.8752856 65.6372336,44.3920008 C64.9898054,43.908716 61.7100042,44.6546013 61.7100042,44.6546013 C61.7100042,44.6546013 63.2786654,46.0450514 62.9549513,47.4949058 C62.631516,48.9447603 62.2389325,49.8691362 61.5917831,51.1582658 C60.9443548,52.4471179 61.1063513,53.2524075 61.1063513,53.2524075"/>
      </g>
    </g>
  </g>
</svg>
