<svg xmlns="http://www.w3.org/2000/svg" xmlns:xlink="http://www.w3.org/1999/xlink" width="120" height="120" viewBox="0 0 120 120">
  <defs>
    <path id="chad-a" d="M120,59.9999233 C120,93.1369885 93.1369885,120 59.9999233,120 C26.8628581,120 0,93.1369885 0,59.9999233 C0,26.8628581 26.8628581,0 59.9999233,0 C93.1369885,0 120,26.8628581 120,59.9999233"/>
  </defs>
  <g fill="none" fill-rule="evenodd">
    <mask id="chad-b" fill="#fff">
      <use xlink:href="#chad-a"/>
    </mask>
    <use fill="#7BCAEC" xlink:href="#chad-a"/>
    <path fill="#2F384A" d="M-11.2119233,106.78158 C-9.88968579,105.899966 -8.2190507,105.348424 -6.78068063,104.687624 C-3.9962888,103.408349 -1.20500776,102.143511 1.58988192,100.887039 C6.49073959,98.6839888 11.4273556,96.5942985 16.4074392,94.5759707 C18.755842,93.6241429 21.1063772,92.6774006 23.4585527,91.7345956 C23.9704871,91.529367 24.0652959,91.5510218 24.2785336,91.05657 C24.8505026,89.7300482 25.4861149,88.42797 26.1840581,87.1631315 C28.0262675,83.8253361 30.6005383,80.6699661 34.1281454,79.0202624 C35.1935135,78.5220374 36.4225826,78.4341057 37.5735739,78.260539 C38.0033299,78.1955746 38.2897244,78.1309382 38.6870026,78.2124719 C39.889499,78.4588775 41.0847781,78.9114961 42.2618501,79.2563327 C44.4294929,79.8915408 46.5961517,80.5298659 48.7616622,81.1718001 C53.9451418,82.7084722 59.1263249,84.2564639 64.2848721,85.875818 C66.1820312,86.4714897 68.0803385,87.069294 69.956994,87.7273053 C71.264797,88.1859938 72.1864758,88.5948105 73.2039476,89.5838781 C74.3413245,90.6897505 75.36913,91.913412 76.3669183,93.1447839 C76.7469734,93.6139717 77.0402572,93.9576599 77.2493941,94.5090376 C77.6962091,95.6875849 78.1643477,96.8613747 78.6926851,98.0059632 C79.0323891,98.7423912 79.3712729,99.7267013 80.0980853,100.137979 C82.5754149,101.540129 85.1132712,102.865994 87.597654,104.266503 C88.8523116,104.97373 90.1747132,105.603525 91.339811,106.455117 C92.8746301,107.577066 94.2567382,108.916712 95.5712664,110.285067 C97.7866418,112.591142 99.9587134,115.038301 101.285708,117.974498 C102.545942,120.763212 103.503708,123.696948 104.404227,126.618545 C104.583018,127.199124 104.758857,127.780523 104.926823,128.364383 C103.78633,128.346829 102.645836,128.329276 101.505179,128.311722 C98.4193015,128.264311 95.3335885,128.2169 92.2475474,128.169325 C87.6645778,128.098783 83.0812803,128.028241 78.4981467,127.957863 C72.9313314,127.872228 67.3643521,127.786429 61.7975368,127.700794 C55.6726949,127.606464 49.547853,127.512298 43.4230112,127.417969 C37.2676599,127.323311 31.1121446,127.228653 24.9569574,127.133995 C19.191503,127.045243 13.4258846,126.956491 7.66059422,126.867739 L-6.89353256,126.643809 C-10.3986677,126.59 -13.9038028,126.536027 -17.4087739,126.482054 C-18.4984184,126.465321 -19.5877348,126.448587 -20.6773793,126.431854 C-21.1537194,126.424472 -21.9177664,126.561455 -22.3732748,126.40577 C-22.4319972,126.385591 -22.5263139,126.403309 -22.5904492,126.402325 C-20.6117677,121.085246 -18.5349969,115.594272 -14.9004429,111.18161 C-13.6836759,109.704324 -12.4562471,108.235734 -11.2119233,106.78158" mask="url(#chad-b)"/>
    <path fill="#E9BC9C" d="M35.5939575,71.059082 C36.1362373,73.2671084 36.5773112,72.5130134 36.887982,74.7643123 C37.2691854,77.5273503 36.7684049,80.4163597 36.3722749,83.1592038 C36.2907525,83.7238315 36.231046,84.3253212 36.0512702,84.8707167 C35.8995434,85.3319709 35.568697,85.6767096 35.2819744,86.0692084 C34.8797753,86.6200531 33.9054432,87.5053792 34.0068131,88.1805925 C34.0671758,88.582387 34.3424164,89.0372305 34.5046411,89.40633 C34.8338472,90.1560685 35.1983196,90.8912225 35.5939575,91.6095483 C36.5904335,93.4189856 37.7909615,95.1133497 39.2222784,96.6205196 C43.007739,100.60625 46.9232746,104.474022 50.7267785,108.443726 C51.0669746,108.798882 51.6738818,109.729885 52.1464492,109.877012 C52.5598023,110.005868 53.3107269,109.812103 53.7667274,109.861465 C54.8335719,109.97718 55.9230523,110.318392 56.8234074,110.895682 C57.7749394,111.505665 58.5051964,112.456542 59.1873929,113.329206 C60.0915206,114.485387 60.9223274,115.69654 61.7275456,116.919713 C62.6574259,118.332324 63.6730933,119.768495 64.4343517,121.27855 C65.2489196,122.894222 65.9175017,124.59083 66.6936868,126.225734 C67.2074256,127.30755 67.7282175,128.388404 68.3003506,129.442173 C68.4125464,129.64908 69.004855,131.004636 69.3360295,130.999988 C69.6818026,130.99534 70.0382376,127.605009 70.0992564,127.246808 C70.9994474,121.954725 71.8865161,116.659757 72.8331273,111.375367 C73.2865033,108.843597 73.2661637,106.364235 73.0870441,103.800251 C73.0002728,102.558647 72.8874208,101.318485 72.7481603,100.081369 C72.6668019,99.3580748 71.9787003,99.0835339 71.4114881,98.6333383 C71.2326966,98.4913399 70.9315394,98.3331544 70.8637954,98.1328181 C70.7870298,97.9058772 70.9266185,97.4414175 70.9476142,97.2074248 C71.0521007,96.0563726 71.1564231,94.9053205 71.2609095,93.7542684 C71.3683485,92.5682776 71.3975641,92.5985813 71.505003,91.4127508 C71.5250146,91.1943041 71.4794145,90.8211979 71.5765197,90.6255094 C71.6890436,90.3980876 72.0025029,90.2919895 72.2365723,90.1347656 C73.6944618,89.1566438 74.3763118,86.6500234 75.0429256,85.111601 C75.7241379,83.540003 76.3563056,81.9424413 77.1382317,80.4149173 C78.5116463,77.7318536 80.3655018,75.010165 80.9958651,72.0402197 C81.7185768,68.6354646 82.0354807,65.1542611 82.6715851,61.7334791 C83.236993,58.6922141 83.0824777,55.5560699 82.84644,52.4885208 C82.5867821,49.1121332 82.5195302,45.7121862 82.3620624,42.330029 C82.2503587,39.9242307 82.1383269,37.5185926 82.0262951,35.1127943 C81.9836476,34.1928501 82.0741916,33.1470947 81.8360215,32.2532744 C81.2738942,30.1433327 80.3469665,28.0702529 79.613921,26.0112767 C79.5140273,25.7303251 79.370502,24.8570192 79.1201938,24.6815247 C78.9464871,24.5598805 78.3107108,24.6374507 78.1063307,24.6267126 C73.5717497,24.3866297 69.0340522,24.1912617 64.4948784,24.0564755 C59.5259487,23.909028 54.4417067,23.6405773 49.484095,24.1277952 C47.8689017,24.2866218 46.8146875,24.7563703 45.6048097,25.8564569 C43.5808562,27.6971466 41.8813521,29.8997238 40.239094,32.0625543 C38.7239583,34.0575831 37.2736142,36.1000515 35.86887,38.170567 C35.6098683,38.5524881 35.1338562,39.0350581 34.9952517,39.4751569 C34.9275078,39.6899174 34.9931193,39.9755168 35.0068978,40.2040604 C35.2791859,44.7262111 35.551474,49.2483619 35.8237621,53.7705127 C35.9177507,55.3326548 36.0678372,56.9023297 36.106384,58.4670361 C36.140338,59.8421444 35.9566255,61.2469024 35.8729708,62.619286 L35.5939575,71.059082 Z" mask="url(#chad-b)"/>
    <path fill="#B18B70" d="M60.1057583 65.6311715C60.1057583 65.6311715 63.0599202 67.3194273 63.9038492 68.3042295 64.7479423 69.2890318 65.4512986 70.696103 65.4512986 70.696103 65.4512986 70.696103 67.5612032 71.6807412 68.686606 71.6807412 69.8120088 71.6807412 71.500031 70.696103 71.500031 70.696103 71.500031 70.696103 70.5153651 69.7111367 71.500031 68.7263345 72.4848609 67.7415323 73.6100997 65.4905792 73.6100997 65.4905792 73.6100997 65.4905792 61.371898 65.4905792 60.8091146 64.7869615 60.2463312 64.0835079 59.6837118 63.239462 59.6837118 63.239462L60.1057583 65.6311715zM71.1450231 50.8835817C72.1052487 50.8150081 73.0658024 50.7462704 74.026192 50.6775328 74.728072 50.627333 75.4296239 50.5771331 76.1313398 50.5269333 76.4976165 50.5008491 76.9851107 50.379943 77.3510593 50.4396578 77.6707518 50.4918263 78.0120961 50.7359352 78.3037396 50.8789882 78.7602322 51.1029188 79.4040459 51.2919063 79.800668 51.6132836 80.1421763 51.8902028 80.2381333 52.4930927 80.5655351 52.7539349 80.8611153 52.9896771 81.4855736 52.5870943 81.8872806 52.4364949 81.2538007 52.0004455 80.6204848 51.5643962 79.9870049 51.1283468 80.3739492 50.7046013 80.9034348 50.0546285 80.8292937 49.4422236 80.7797569 49.0345552 80.3760816 48.6057241 80.1475893 48.2769645 79.9832322 48.0407301 79.7030707 47.4514565 79.4466935 47.2941309 79.0958355 47.0788951 78.2855324 47.2216201 77.8677506 47.2290024 77.1351972 47.2417984 76.4131416 47.3003649 75.684853 47.3789457 74.5315653 47.5031328 73.3772934 47.7510149 72.299623 48.1869002 71.63711 48.4546325 70.4616784 48.9077433 70.2454882 49.6843639 70.0660405 50.3279386 70.3837646 51.2604084 70.5195806 51.8954524 70.6555606 52.531973 70.9170228 53.0351195 71.3694147 53.5321961 71.2946175 52.6492699 71.2198203 51.7665078 71.1450231 50.8835817M63.3190531 47.8084165C62.1583841 47.1451556 60.4357518 47.1116891 59.1432035 46.9505903 58.3335565 46.8495345 57.5222692 46.7625871 56.7101618 46.6849906 56.3653729 46.6520163 54.5850024 46.9883222 54.1621357 47.1689431 53.7953669 47.3254484 53.3395304 47.4461904 53.0313199 47.6950568 52.607305 48.0371046 51.1162817 48.0697509 50.5472652 48.6470487 50.0901164 49.1104947 49.5981935 51.4438018 48.9279711 51.3876961 48.1986983 51.3268329 47.4715579 51.1729524 46.7573757 51.0169393 47.2305993 51.4310057 47.7038229 51.8449081 48.1768825 52.2589746L46.9348551 52.8800742 49.215678 52.9189545C48.9579884 53.2313089 50.2036245 52.6280908 50.5029773 52.2087747 50.7511532 51.8613133 51.0913493 51.6101502 51.514544 51.4738232 52.2026456 51.2520254 53.0528077 51.2584234 53.7664978 51.1642577 55.1889571 50.9762545 56.6135487 50.7966179 58.041913 50.6594707 58.9809789 50.5694063 59.9177483 50.4332434 60.8318818 50.6663609 61.4230422 50.8171243 62.8619044 50.6451982 63.2460602 51.1701636 63.6700751 51.74943 63.3498906 53.2600179 63.3019941 53.927052 63.49358 53.5298829 63.8834768 52.1349515 64.229742 52.0248728 64.6617943 51.8873975 65.4479852 52.6923991 65.4548744 51.8025828 65.4597953 51.1672106 65.0354523 50.3407183 64.7808793 49.7827785 64.456102 49.0704661 64.0266741 48.2128039 63.3190531 47.8084165" mask="url(#chad-b)"/>
    <path fill="#E9BC9C" d="M30.0190883,45.5274748 C29.4766445,46.289987 28.9484712,47.1128702 28.6143442,47.9898905 C28.2861222,48.8509978 28.358459,49.810372 28.3648561,50.7172497 C28.3796188,52.8054635 28.3917569,54.8214946 29.0339303,56.8173473 C29.7221959,58.9560891 30.3650255,61.1279693 31.166471,63.2273386 C31.4966613,64.092055 31.8088085,65.0583194 32.5744957,65.634633 C33.397101,66.2540921 34.4296634,66.5603766 35.4368013,66.7034297 C35.8581917,66.7631445 37.4819146,67.1348856 37.7263177,66.6794781 C37.8911668,66.3723734 37.6326572,65.3946254 37.6060845,65.0596318 C37.4386109,62.9578017 37.2622798,60.8566278 37.0893932,58.7552898 C36.9458679,57.0145375 36.8718908,55.3113529 36.9212635,53.5622339 C36.9552175,52.3546495 37.2850798,51.0702889 36.7308259,49.9762283 C35.7899557,48.1191632 34.800861,46.2005788 33.4937141,44.5710535 C33.0519841,44.0206601 32.5079,43.3113007 31.7202328,43.5007804 C30.8172533,43.7179848 30.2690685,44.7016386 30.0190883,45.5274748" mask="url(#chad-b)"/>
    <path fill="#B18B70" d="M54.2924895,67.0429182 C55.3327613,65.9148989 56.3822186,64.7940978 57.4534919,63.6954437 C58.6832171,62.4343784 60.0292388,61.4418658 61.4247973,60.369624 C60.8941636,61.1977569 59.9954489,62.4030445 60.3517198,63.3991663 C60.5610208,63.9836825 60.7565433,64.5332556 61.4436607,64.6443186 C62.5293684,64.8198539 63.8279858,64.3035833 64.9156619,64.1902235 C65.7282615,64.1055729 66.0956864,64.3262224 66.7851002,64.7109236 C67.7430294,65.2452399 68.8382508,65.7739785 69.960209,65.7603622 C70.9064921,65.7490426 71.5217648,65.2539346 72.241852,64.7251961 C72.7185202,64.3751098 73.4751859,64.3491896 73.7965186,63.8489961 C74.5220188,62.7203205 73.2544029,60.744154 72.7037576,59.8028254 C74.5024993,62.8784663 76.3133792,65.8656833 77.7917723,69.1153831 C76.6785077,67.7617927 75.6280661,66.3107556 74.4321309,65.0308244 C74.3261682,64.9173006 74.2715465,64.7785129 74.1399953,64.7612874 C73.730415,64.7073144 72.8791046,65.4217595 72.5956625,65.6520881 C71.5033936,66.5397717 70.741643,68.2011231 69.0493561,67.7954233 C68.199686,67.5918351 67.5612853,66.9218481 66.9155032,66.3793292 C66.5006739,66.0305553 66.0461496,65.6442136 65.5466814,65.4217595 C64.9658548,65.1632141 64.6530516,65.4619522 64.0595947,65.5697341 C62.5575814,65.842388 61.3785412,65.648807 60.2985744,64.5709875 C60.0335036,64.3062081 59.6439348,63.582084 59.310956,63.4528112 C59.1200262,63.3786599 59.2072896,63.4387028 58.9651829,63.5650226 C58.0028249,64.0673488 57.1096871,64.9460096 56.2393494,65.5938497 C55.5904508,66.0768179 54.9413881,66.5599501 54.2924895,67.0429182" mask="url(#chad-b)"/>
    <path fill="#D18B7F" d="M57.7436755,74.2913776 C58.8060912,75.3391757 60.0000581,76.3459608 61.318687,77.0525314 C62.7810053,77.8360423 64.5638362,78.0232252 66.1900194,78.1802227 C67.6498773,78.3211431 68.984417,78.498647 70.297469,77.7128394 C71.9075774,76.7493639 73.1615789,75.203505 74.5395863,73.9462129 L59.8571888,74.2479039 C59.1526844,74.2625045 58.44818,74.2769411 57.7436755,74.2913776" mask="url(#chad-b)"/>
    <path fill="#AE6A62" d="M56.0180087,73.0282289 C59.0679634,72.733264 62.1430146,72.4066371 65.207896,72.3382275 C66.2242195,72.3155884 67.1132565,72.7232568 68.1028433,72.7726364 C68.8047233,72.8077434 69.4785543,72.3828496 70.2212775,72.4717656 C71.0443749,72.5701966 71.9096277,73.0218309 72.7259999,73.2239425 C73.3657129,73.3822524 74.0091986,73.5257976 74.6544886,73.6581873 C73.4006511,74.0396075 72.1632165,74.5027254 70.8798538,74.7753793 C68.672844,75.2445671 66.4664903,75.1538465 64.2353682,74.9620701 C62.5050265,74.8134393 60.7513928,74.6575902 59.0395864,74.3568834 C57.9778269,74.1703567 56.9726573,73.5066036 56.0180087,73.0282289" mask="url(#chad-b)"/>
    <path fill="#D8CECD" d="M52.5097656 51.9405518C53.8039551 52.1177261 55.1022677 52.009616 56.3964563 52.1177261 57.0298195 52.170635 57.2497084 52.2004071 57.871582 52.1177261 58.4934557 52.0350451 59.5517966 51.8337223 60.1943832 51.7753502 60.4356698 51.7535313 60.6918831 51.7994658 60.8362286 51.5814411 61.0471698 51.2630168 60.7814429 50.739692 60.5434369 50.539877 60.0539744 50.1290916 59.2522008 49.9353466 58.664649 49.7194546 58.1847002 49.543099 57.5994448 49.2437047 57.0804572 49.2041682 56.5229227 49.1616789 55.8354773 49.3862656 55.2945097 49.4887979 54.5407966 49.6315229 53.7885597 49.7501322 53.1347402 50.1678078 52.5006042 50.5728514 51.7366341 51.1051991 51.1551514 51.5814411 51.5355346 51.6132672 52.5097656 51.9405518 52.5097656 51.9405518zM71.467041 51.7274799C71.659283 51.6589063 72.2344163 51.8842472 72.407959 51.9449463 72.8172113 52.0883275 73.177867 52.029335 73.6110675 52.0828159 74.3482137 52.1738645 74.8351359 52.1907619 75.6054958 52.1907619 77.3265381 52.1907619 77.9973634 51.8188383 79.0012207 51.4840088 77.9688223 50.0223083 75.9670156 49.7355644 74.3370597 49.7191593 73.0945402 49.7066913 72.2314198 50.1742386 71.1048688 50.6780413 71.2682416 50.9524998 71.467041 51.7274799 71.467041 51.7274799z" mask="url(#chad-b)"/>
    <path fill="#969192" d="M51.1417236 51.473774C51.8613187 50.9781739 52.9786994 50.410391 53.7860501 50.0676871 54.527625 49.7528719 55.3923858 49.6268802 56.1898947 49.5327145 57.20507 49.4129568 58.246982 49.365874 59.1660364 49.8649192 59.6420484 50.1233006 60.1259339 50.4215465 60.5527373 50.756376 60.8652125 51.0017973 60.8425765 51.016726 60.8773506 51.4344016 59.1953975 51.1504281 57.5759395 50.1188712 55.8715144 50.3031012 55.0940171 50.3870957 54.205806 50.7577967 53.3330078 51.0803223 53.0261096 51.193846 52.027832 51.802002 52.027832 51.802002M71.0144043 50.360749C71.0144043 50.360749 72.3647425 49.9146925 73.1071377 49.7399774 73.635639 49.6156263 74.1600396 49.6253053 74.6987108 49.5890499 74.9905183 49.5695277 75.3955059 49.4548556 75.6822285 49.5124377 76.2902839 49.6346562 77.0315308 50.0767755 77.5823401 50.360749 78.0483465 50.6010847 78.7287391 51.1317919 79.0576172 51.5476629 78.7172571 51.6405161 78.2349256 51.887847 77.8901367 51.8634033 77.5453478 51.8389596 76.2747012 50.7677612 75.4734196 50.608303 74.5489523 50.424401 73.4517625 50.6376682 72.5176175 50.7741592 72.1645545 50.8256819 71.5228113 51.2523659 71.2813721 51.3178711 71.0399328 51.3833763 71.2977533 51.1127442 71.1450231 50.8835817" mask="url(#chad-b)"/>
    <path fill="#442C2B" d="M58.6209204,50.7548024 C58.5267546,51.8723224 57.5444967,52.702017 56.4273019,52.6076676 C55.3099366,52.5134888 54.4805274,51.5310949 54.5745226,50.4135749 C54.6688589,49.2958843 55.6511169,48.4663603 56.7684822,48.5605391 C57.8856769,48.6548885 58.7152567,49.6372824 58.6209204,50.7548024" mask="url(#chad-b)"/>
    <path fill="#200A02" d="M58.4831518,50.6758253 C57.7468848,49.9259779 55.3553818,50.1122881 54.7630929,50.3624078 C54.8187053,49.3329245 55.7526862,48.5723285 56.77998,48.6590002 C57.8071031,48.745672 58.6276416,49.6550433 58.4831518,50.6758253" mask="url(#chad-b)"/>
    <path fill="#000" d="M57.4839372,50.6591734 C57.4428249,51.1484936 57.0125967,51.5115596 56.5235148,51.4701005 C56.0342623,51.428812 55.6710759,50.9986947 55.7121881,50.5093745 C55.7534709,50.0200543 56.1835286,49.6569883 56.6726105,49.6984474 C57.161863,49.7397359 57.5250494,50.1698532 57.4839372,50.6591734" mask="url(#chad-b)"/>
    <path fill="#FEFEFE" d="M56.1442233,50.3428708 C56.1309782,50.5007302 55.9922725,50.6178675 55.834435,50.6044979 C55.6765975,50.5912509 55.5594764,50.452526 55.5728441,50.2946667 C55.5860892,50.1368073 55.7247949,50.01967 55.8826324,50.0330396 C56.0403473,50.0462866 56.1574684,50.1850115 56.1442233,50.3428708" mask="url(#chad-b)"/>
    <path fill="#442C2B" d="M76.4987939,50.8478551 C76.4044575,51.9653751 75.4223702,52.7950697 74.3050048,52.7007203 C73.1876395,52.6065415 72.3582303,51.6241476 72.4523961,50.5066276 C72.5465618,49.388937 73.5288198,48.559413 74.6461851,48.6537624 C75.7635504,48.7479412 76.5929596,49.7303351 76.4987939,50.8478551" mask="url(#chad-b)"/>
    <path fill="#200A02" d="M76.3610253,50.7689633 C75.6247583,50.0191159 73.2332553,50.2054261 72.6407958,50.4555459 C72.6965788,49.4258919 73.6303891,48.6654665 74.6578535,48.7521383 C75.6849766,48.8386394 76.5055151,49.7481813 76.3610253,50.7689633" mask="url(#chad-b)"/>
    <path fill="#000" d="M75.3618107,50.7522261 C75.3205279,51.2415463 74.8904702,51.6046123 74.4012177,51.5633238 C73.9121358,51.5218647 73.5487788,51.0917474 73.5900616,50.6025979 C73.6311738,50.113107 74.0612316,49.750041 74.550484,49.7915001 C75.0397365,49.8327887 75.4029229,50.2629059 75.3618107,50.7522261" mask="url(#chad-b)"/>
    <path fill="#FEFEFE" d="M74.0432468,50.3428049 C74.0300045,50.5006308 73.8913283,50.6177432 73.7335242,50.6043764 C73.5757202,50.5911323 73.4585013,50.4524368 73.4718662,50.294611 C73.4851085,50.1367851 73.6239074,50.0196726 73.7815888,50.0330394 C73.9393929,50.0462835 74.0564891,50.184979 74.0432468,50.3428049" mask="url(#chad-b)"/>
    <path fill="#6E5850" d="M48.3663031 48.5903853C50.4593128 47.4735214 52.6233471 46.618156 55.0002909 46.4047248 57.5717732 46.173904 60.2070626 46.373719 62.7106369 47.0241839 63.198459 47.1508318 64.7680523 47.5834361 63.6954668 48.1554843 63.1786115 48.4310911 62.4403171 48.437161 61.8640833 48.4120611 60.0479545 48.332496 58.2249365 47.906946 56.4124164 47.8923454 55.023255 47.8811899 53.5574921 48.1818966 52.2239365 48.5487162 50.9433623 48.9007711 50.6969908 49.2262496 49.3608108 49.402113 49.3330899 49.0395588 48.3941881 48.9527754 48.3663031 48.5903853M72.4354718 47.5169951C72.4354718 47.0894765 74.457621 46.4452455 74.7686199 46.322863 75.9911279 45.8423556 77.0888098 45.599231 78.4108833 45.7060287 79.2484152 45.773782 80.0877515 45.843668 80.826702 46.2770925 81.7329621 46.80862 81.7621593 47.8834866 81.8200615 48.8413844 80.764207 48.1561405 79.1350712 46.9487201 77.8170984 47.1872513 76.7705936 47.376731 75.7777262 47.8564181 74.7345019 48.0780519 73.8771225 48.2603133 73.1850842 47.9307335 72.4354718 47.5169951" mask="url(#chad-b)"/>
    <path fill="#BA9479" d="M55.1728658,49.0691701 C55.5934361,49.0286493 56.0141704,48.9882926 56.4345767,48.9477719 C56.6223899,48.9297262 57.4049721,48.9773012 57.5539104,48.8337559 C57.9670994,48.4349463 56.3950457,48.424447 56.210021,48.4390476 C56.0225359,48.4538123 55.3203279,48.4536482 55.2010788,48.6075287 C55.1364514,48.6905388 55.1728658,48.9448189 55.1728658,49.0691701" mask="url(#chad-b)"/>
    <path fill="#E9BC9C" d="M54.9333999 52.1030763C55.437789 52.1358866 55.9423421 52.1662361 56.4472233 52.1929766 56.7783978 52.2106942 57.7953774 52.061079 58.0696339 52.2412078 58.0770152 52.2461293 56.813664 52.8060377 56.5559745 52.7701104 56.009266 52.6943185 55.4279473 52.3389826 54.9333999 52.1030763M72.7476846 51.9530346C73.3978954 52.2358597 75.5036994 52.3134561 76.011205 52.1833631 76.6189324 52.0278421 75.0288355 52.9568668 74.7462136 52.9465316 73.9345982 52.9170023 73.293901 52.6010387 72.7476846 51.9530346" mask="url(#chad-b)"/>
    <path fill="#3C3738" d="M40.1270622,56.4877675 C39.7474991,55.4306185 39.356126,54.2501026 39.344808,53.1186382 C39.3329979,51.937302 40.1905414,50.6660656 40.8317307,49.711941 C41.1925944,49.1748358 42.1998963,48.2891208 42.147079,47.6957459 C42.1154214,47.3397537 41.5875762,46.9468499 41.6458064,46.6016852 C41.7142065,46.1959854 42.3739311,45.5802994 42.6084925,45.2546569 C43.4665281,44.0629855 44.4303623,43.1260863 44.3714759,41.5739934 C44.3340773,40.5962454 44.1825145,40.2581349 43.6502405,39.5089108 C42.962303,38.5400216 42.1793927,37.5138784 41.7352022,36.4021001 C41.4040277,35.5734751 42.1593812,34.5909696 42.9562339,34.3818037 C43.5403411,34.2282513 44.2369721,34.265327 44.8399426,34.2103697 C45.1186279,34.1851057 45.7424301,34.004977 46.002744,34.1139073 C46.3431042,34.2561401 46.749732,34.9730459 46.9900344,35.249309 C47.321537,35.6307291 47.6532036,36.0119852 47.9847061,36.3934054 C48.2166431,35.697006 48.4487441,35.0006066 48.6808451,34.3043713 C49.3161293,36.0956516 51.0564767,37.9569819 53.1568677,37.5870454 C52.6925017,36.5924001 52.2284637,35.5975907 51.7642617,34.6027813 C52.5112497,35.5067061 53.3140075,36.3878276 54.2045208,37.1518163 C55.4885396,38.2532593 56.8729441,38.2834448 58.5278324,38.1838654 C57.8436676,37.6231368 57.2354481,36.9162381 56.8184865,36.1353521 C56.0703503,34.7346789 56.3583852,33.2959456 56.8955801,31.868532 C57.0991401,31.3269974 57.5643262,29.751445 58.1262895,29.5381779 C58.3834869,29.4407312 58.9910502,29.6124933 59.2636664,29.6333278 C59.8845161,29.6809028 60.506842,29.7273294 61.1293319,29.7429143 C62.8367095,29.7855678 64.5360497,28.7057796 66.0800544,28.075165 C66.264423,27.9998653 67.5144878,27.3597356 67.6785168,27.5398643 C67.7723413,27.6430528 67.60618,28.4908719 67.5842001,28.6258865 C67.4629827,29.3637909 67.1357449,30.0344342 66.5867399,30.5493924 C65.6256942,31.4505283 64.2552321,31.9974766 63.071763,32.5322851 C62.2299664,32.9127209 61.3779999,33.2724862 60.5171758,33.6079719 C62.7394403,33.8232077 65.2810693,33.7109964 67.3156847,32.7240615 C68.7924375,32.0078118 70.0862981,30.8095784 71.2896146,29.7142053 C71.4380608,29.5793548 73.4908834,27.8208849 73.448892,27.7231101 C73.5254936,27.9015983 73.2113781,28.6006225 73.1606931,28.7907584 C72.96189,29.5380138 72.7653833,30.2857614 72.5695327,31.033837 C72.3766346,31.7709212 72.1843927,32.5080054 71.9946111,33.2457458 C71.9196499,33.5375937 71.8935693,33.9500197 71.7529965,34.2143069 C72.5921687,32.63695 73.6634419,31.1572039 74.6372819,29.6607245 C74.9077657,29.2450175 75.1551214,28.7390821 75.5020427,28.3853867 C76.0771283,27.799066 76.8703724,27.3426742 77.5253401,26.843465 C77.5232077,27.3543219 77.5338696,27.8927395 77.4413572,28.3963782 C77.4179011,28.5241744 77.2755239,28.8378412 77.3353945,28.9490683 C77.4415213,29.1464224 78.0075853,29.1638119 78.1934301,29.1884197 C78.6436896,29.2479704 78.5580665,29.1759517 78.7211113,29.5444118 C78.9382857,30.0355825 79.0601592,30.598936 79.2217277,31.109957 C79.5720936,32.2186182 80.0113632,33.3545121 80.2108224,34.5032019 C80.3476226,35.2914703 80.3935507,36.1053306 80.4793379,36.899997 C80.7204604,39.1337246 80.8096922,41.4396351 81.1948322,43.6535125 C81.5100959,45.4662835 82.3699358,47.1848889 82.6082699,49.0180024 C82.7647535,50.2211574 82.7362125,51.473856 82.7813205,52.6842293 C82.818063,53.6698518 82.6820829,54.8420011 82.8956487,55.8082655 C82.8533292,55.6171453 83.0942878,55.2504897 83.163836,55.0946407 C83.4330076,54.4915867 83.7084122,53.8924699 83.9455981,53.2756356 C84.5157628,51.7921163 84.8710496,50.2669278 84.912713,48.6751344 C84.9784886,46.1641594 84.7923157,43.6387478 84.6168047,41.1354832 C84.5569341,40.2814302 84.4007785,39.3878407 84.4178375,38.5321471 C84.4193138,38.452418 84.3540303,38.2499782 84.3940533,38.1810765 C84.516583,37.9710904 85.2327335,37.7154979 85.4372776,37.5804833 C86.447368,36.9144335 87.1784452,36.1720997 87.3800368,34.9536878 C87.6198471,33.5044553 87.5752313,31.9777904 87.4351505,30.5211755 C87.1554811,27.6125392 85.7569701,25.3912795 83.9949708,23.1221167 C83.3775658,22.3267941 82.7906701,21.5647741 81.9526461,20.989937 C81.6550975,20.7858567 80.8554563,20.5063126 80.6674791,20.2101994 C80.5606962,20.0420464 80.6886388,19.6798203 80.7096345,19.4486715 C80.859393,17.8024128 80.5687336,16.1251485 79.6997081,14.7049531 C79.3298228,14.1004226 78.8789072,13.5467482 78.3832116,13.041141 C78.085335,12.7374813 77.5806178,12.4554765 77.3452363,12.1104758 C77.032269,11.6516232 77.2563326,10.7289966 76.9904416,10.127255 C76.4673532,8.94362215 75.0818005,8.65882844 73.9316293,8.42439859 C72.9635303,8.22720847 71.784162,7.93896967 70.7865378,8.04757188 C69.8576417,8.14879176 68.8733038,8.73215954 68.0372481,9.11981366 C67.4324733,9.40034203 67.2556501,9.2018395 66.6205299,8.94148948 C65.5297372,8.49444865 64.4379604,8.0498686 63.3424109,7.61480355 C62.6121539,7.32476018 61.8607371,6.93940278 61.0733981,6.84441686 C60.1190775,6.72925258 59.1293267,6.7899517 58.1725457,6.83457376 C55.8433342,6.94317597 53.486894,7.14364712 51.1904884,7.55919003 C49.637298,7.84037461 48.2297654,8.56187389 46.8059939,9.22037734 C44.5386214,10.2686676 42.2843712,11.3581348 40.0850708,12.5437363 C38.6804907,13.3008348 37.4970216,13.9677048 36.559432,15.2751967 C35.246052,17.1068337 34.141973,19.0992414 33.0482278,21.0663851 C32.0002467,22.9508467 30.9834311,24.8538462 30.009263,26.7776802 C29.3022981,28.17376 29.1195699,29.4399109 29.0505137,31.0151351 C28.859912,35.3584033 28.9701395,39.788783 29.6211705,44.0903821 C29.7350066,44.8415747 29.8547477,45.5919471 29.9817061,46.3410071 C30.5002017,45.9484314 31.2388242,45.5143507 31.9141315,45.6270542 C32.7291914,45.763053 33.264418,46.7636042 33.649394,47.4057025 C34.1911817,48.3092991 34.5067734,49.2225748 34.8691134,50.2093457 C35.347914,51.5133925 35.738303,52.8456562 36.5948623,53.956286 C37.074811,54.5785341 37.5800203,55.2299833 38.2709103,55.6214106 C38.8615787,55.956076 39.5058845,56.2147855 40.1270622,56.4877675" mask="url(#chad-b)"/>
    <path fill="#573B3E" d="M55.0977405,72.5655539 C56.5525135,72.8406686 57.98219,73.216347 59.4389314,73.4794859 C61.7945514,73.9052 64.1455787,74.730708 66.5456507,74.8050234 C69.6310357,74.9005015 72.8676554,74.1788382 75.8049222,73.2558834 C74.0507963,74.2493804 72.4175599,74.7868137 70.4167344,75.0102521 C67.9928783,75.2809373 65.7017216,75.1764364 63.2965648,74.8293031 C62.3319104,74.6900232 61.3664358,74.5162925 60.3950562,74.4283608 C59.5732711,74.3540454 58.7172039,74.5510714 57.9095252,74.3209069 C56.9302722,74.0420191 55.955284,73.1248061 55.0977405,72.5655539" mask="url(#chad-b)"/>
    <path fill="#6F5245" d="M61.6550612 65.5471442C63.046683 66.1039356 64.6246417 64.5849811 66.0443125 64.9440902 66.8119681 65.1381634 67.1811973 65.4465805 67.4667718 66.1144349 67.6453993 66.5326026 67.9363867 66.9141868 68.2122835 67.2729679 67.2102305 66.5724672 66.024465 65.8972305 64.7725959 66.2337005 63.5486117 66.56246 62.4246852 66.8249427 61.6550612 65.5471442M71.8935693 66.3525723C72.3001971 65.3774491 73.0499736 63.1998272 74.1942397 64.7417489 73.4275683 65.27869 72.6605688 65.8156312 71.8935693 66.3525723" mask="url(#chad-b)"/>
    <path fill="#B18B70" d="M63.035529,83.2657591 C65.3361994,83.3423713 67.6371979,83.4191474 69.9378683,83.4959236 C68.9984743,82.8259366 67.6744324,81.7748575 66.460126,81.8977322 C65.283054,82.0166696 64.0644828,82.7155298 63.035529,83.2657591" mask="url(#chad-b)"/>
    <path fill="#96735F" d="M42.6248626,78.261297 C44.908802,80.7637413 47.4076194,83.1252653 49.8613288,85.4589004 C51.0124841,86.5536173 52.172005,87.6709733 53.4425734,88.628707 C53.8980818,88.9722312 54.3506378,89.2055127 54.8643765,89.4512621 C55.9894513,89.9893516 57.069418,90.6171774 58.1982654,91.1482127 C59.8707048,91.9353326 61.3159641,92.1569664 63.1307807,92.1074228 C64.9408404,92.0582073 66.7479476,91.9184353 68.5537426,91.7903109 C69.1503159,91.7481496 70.5403743,91.1496891 71.138916,91.1482127 C71.4984675,91.1473924 70.7184329,91.6026358 70.7169567,91.9071157 C70.7151523,92.3382435 70.0444379,93.0658127 69.8115167,93.3947364 C69.2797348,94.1462571 68.6992363,94.8674283 68.0688729,95.5387278 C67.4870622,96.1586791 66.8537463,96.7730526 66.1175843,97.2082817 C65.4527748,97.6013495 64.6831509,97.7458791 63.9993141,98.1148313 C62.3122761,99.0246619 60.6467259,100.315913 58.6155551,99.7269671 C57.3218586,99.352109 56.3155409,98.3764937 55.3818879,97.4543592 C54.2869945,96.3729305 53.2559084,95.2265374 52.2443417,94.0676763 C49.8068712,91.2751887 47.4832367,88.3773798 45.2639247,85.4088646 C44.3579927,84.1970149 43.4661672,82.972205 42.6307676,81.7104836 C42.1478663,80.9811098 41.6159204,80.2249956 41.308202,79.3998157 C40.1754179,76.3602662 39.3784011,73.1540401 38.4360547,70.0501824 C38.353056,69.7765441 38.2698933,69.5027419 38.1868947,69.2289396 C39.4866603,72.2620911 40.3461721,75.7647586 42.6248626,78.261297 Z" mask="url(#chad-b)"/>
    <path fill="#AB896F" d="M36.1161929,59.4491956 C35.533562,58.8436809 35.3923331,58.3118253 35.6683938,57.532908 C35.8535825,57.0099112 36.0484489,56.3865148 35.9501956,55.8382541 C35.8417724,55.2340518 35.5593146,54.6168894 35.3723215,54.0320451 C35.2714437,53.7165737 35.2287962,53.2214658 34.9607728,53.1456739 C34.5036241,53.0164012 33.4562991,53.6712955 33.1518613,53.9605186 C32.5967873,54.4877807 32.4499813,55.4932534 32.2684013,56.206222 C32.1414428,56.7049391 31.7302222,57.8915249 32.1399666,58.3594003 C32.7096392,59.0100293 33.7308836,58.4556987 34.1936093,59.4175337 C34.4711463,59.9943394 34.6197566,61.5324879 35.6201693,61.1464743 C36.2659514,60.8971157 36.2344578,60.0135334 36.1161929,59.4491956" mask="url(#chad-b)"/>
    <path fill="#A6856C" d="M33.2402401,50.7049458 C32.7957216,49.8545019 31.6850814,46.7923133 30.2304725,47.5846829 C29.2909145,48.0965241 29.5287565,50.5248171 29.497427,51.4220157 C29.4628169,52.4097709 29.4452658,53.3983463 29.4437895,54.3867577 C29.6635884,53.1945941 29.8697728,51.9456687 30.2980524,50.8079703 C30.5380268,50.1699733 30.7968645,50.1005794 31.484802,50.2106581 C32.0821956,50.3063002 32.6718797,50.4997172 33.2402401,50.7049458" mask="url(#chad-b)"/>
    <path fill="#BA9479" d="M30.5943051 58.9889979C31.1078799 59.5026437 32.0454695 59.687694 32.2956137 60.4472532 32.3920627 60.7399214 32.099107 62.179803 31.5145077 61.865316 31.3224298 61.7621274 31.1169015 60.6224604 31.0544064 60.4272389 30.9010393 59.9477159 30.7476722 59.4683569 30.5943051 58.9889979M33.4702579 63.8213205C33.5470235 63.1309911 33.6237891 62.4406616 33.7002266 61.7503321 33.9080513 62.6071741 34.7810135 63.0501136 35.5736015 62.6091427 36.0204164 62.3604403 36.3581521 61.9156962 36.6538963 61.5101605 36.788236 61.3262585 37.0213212 60.7650377 37.2455488 60.6808792 37.1883027 60.70237 37.5155405 62.5653409 37.5368643 62.7161044 37.5744269 62.98154 37.9968015 64.6927631 37.7556789 64.8751885 37.9026489 64.7639615 36.2930326 63.3604994 35.9741602 63.3406491 35.5406317 63.3137446 34.9927749 63.5609705 34.5617067 63.6411918 34.1992027 63.708617 33.8352224 63.7680037 33.4702579 63.8213205" mask="url(#chad-b)"/>
    <path fill="#131C39" d="M26.028411 106.609165C27.5376416 109.250889 29.5615951 111.678198 31.355416 114.127489 32.4015928 115.556051 33.4523624 116.981496 34.5059205 118.404645 34.9693023 119.03083 35.4248108 119.923107 36.0154791 120.439542 36.6989879 121.037018 38.035988 120.977959 38.8541645 120.92415 41.506513 120.749927 44.1483637 119.793342 46.1837992 118.07244 47.5485203 116.918829 48.4406739 115.544568 49.4325571 114.09714 49.7135387 113.687339 49.6520278 113.806932 50.1989004 114.041362 50.6872147 114.250692 51.1200871 114.538603 51.6359583 114.499394 53.6223491 114.348139 56.0056901 113.682089 57.675177 115.186771 59.1625917 116.527401 60.1223253 118.615779 60.867837 120.444463 59.6118671 119.907686 58.349008 119.38633 57.0810641 118.878262 55.2759252 118.154958 53.3621992 117.229871 51.4396156 116.869121 49.4779931 116.500989 47.2416221 118.278981 45.746826 119.31546 43.7528898 120.698087 41.9060876 122.393069 39.7166289 123.465311 38.5694102 124.027024 37.3633052 124.469471 36.1442419 124.847774 35.8749063 124.931277 34.7542603 125.448039 34.4816442 125.311548 34.395857 125.268567 34.2944871 124.89699 34.2575806 124.81562 34.0538566 124.364806 33.8501326 123.914156 33.6462446 123.463342 32.2098429 120.285005 30.7731131 117.106504 29.3365474 113.928166 28.2337806 111.488554 27.1311778 109.048941 26.028411 106.609165M75.4698602 128.130694C77.0387973 123.9459 78.6080625 119.760942 80.1769997 115.576148 80.4010632 114.978507 80.6252908 114.380703 80.8493544 113.783063 81.9014363 115.505605 83.2659933 117.405816 85.0393105 118.432451 86.9655027 119.547839 89.4443086 120.003738 91.6086709 120.444381 90.2178692 120.607284 88.8173899 120.718347 87.4178947 120.766251 86.4125611 120.800537 85.3863958 120.82088 84.3874594 120.68078 83.4920252 120.55528 82.777515 120.046228 81.9253845 119.807697 81.5612402 119.705656 81.7536461 119.659886 81.520725 119.809501 81.1900426 120.022112 80.8857688 120.682912 80.6569484 120.997235 79.6462019 122.387245 78.6354554 123.777255 77.6247088 125.167429L75.4698602 128.130694z" mask="url(#chad-b)"/>
    <path fill="#CFA586" d="M65.4756241,51.9927679 C65.5691206,53.2523567 65.6726229,54.5116174 65.7984331,55.7684173 C65.888321,56.6666003 66.6835334,59.6577545 64.7442189,59.0351784 C64.2775564,58.8853992 64.0183907,58.4506623 63.6775384,58.1333863 C63.3847467,57.8610605 63.0461909,57.6446764 62.740933,57.3876074 C62.0252746,56.7848815 61.7871045,56.1619773 62.2960864,55.3064478 C62.9499059,54.2081218 63.6670406,53.3283126 63.8919243,52.0262344 C63.991818,51.447132 64.0241317,50.8347271 63.9275186,50.2521796 C64.4435538,50.8324304 64.9595889,51.4125171 65.4756241,51.9927679" mask="url(#chad-b)"/>
    <path fill="#372E31" d="M33.7089365,66.6331827 C34.4040913,68.3714743 35.0994101,70.1096019 35.7944009,71.8478935 C35.7284612,70.5277696 35.6623576,69.2076457 35.5964179,67.8875219 C35.5850999,67.6604743 35.6717072,66.7883756 35.5155516,66.6331827 C35.3182248,66.4368129 34.0212477,66.6331827 33.7089365,66.6331827" mask="url(#chad-b)"/>
    <path fill="#BA9479" d="M73.5578893,49.064511 C74.1405202,48.8665007 74.5092573,48.7168855 75.113048,48.7790611 C75.3231691,48.8007159 75.8057423,48.7544534 75.9853541,48.8687974 C76.1726751,48.988063 76.3339156,49.4208313 76.455133,49.6127718 C75.8638086,49.6153966 75.2721561,49.6180214 74.6808316,49.6208103 C73.9545113,49.6240913 73.9094034,49.7174367 73.5578893,49.064511" mask="url(#chad-b)"/>
    <path fill="#56413B" d="M77.4506905,49.8600961 C76.9267819,49.7290188 76.4310864,49.507385 75.8993045,49.3920566 C75.6450595,49.3370993 73.9429309,49.3182334 74.022977,48.8930114 C75.2773066,48.9750373 76.5073599,49.050337 77.7572606,49.2437539 C77.7323282,49.2280049 77.7072318,49.212256 77.6822994,49.196343 C78.9090721,49.8023499 79.3439129,50.6221161 80.0669526,51.7266761 C79.6165291,51.4554987 79.1336278,51.2425596 78.6815639,50.9792566 C78.2887145,50.7502405 77.8507572,49.9601676 77.4506905,49.8600961 M79.9870705,51.1283796 C79.8364919,50.0966586 79.4346209,49.3479267 78.3943492,49.0833114 C77.6849239,48.9026905 76.5682146,48.7223977 75.8154857,48.6877828 C74.7547103,48.5822975 73.6765478,48.6019837 72.6510387,48.9248374 C71.9294752,49.1522131 70.7287832,49.4127271 70.5942794,50.2554606 C70.3290445,51.9192727 70.9310309,53.0579555 71.5733683,54.5285147 C71.5695957,53.583577 71.6588274,52.6017277 71.582718,51.6617116 C71.5589338,51.3703558 71.2784442,50.9626874 71.4149164,50.6879008 C71.6639123,50.1865589 72.9438304,49.8983201 73.4067202,49.8085838 C74.430589,49.6100813 75.5960149,49.6010585 76.5867499,49.9713231 C77.3727767,50.2651397 77.6939455,50.8355474 78.2588612,51.3760976 C78.7863784,51.8808847 79.8327192,52.015407 80.5465733,52.2475402 C80.3599084,51.8744866 80.1735714,51.5014331 79.9870705,51.1283796" mask="url(#chad-b)"/>
    <path fill="#CFA586" d="M72.1069382,57.2183061 C72.0029438,56.2367849 71.8312055,55.2759342 71.6761981,54.307373 C71.5982843,53.8211239 71.6807909,53.2620357 71.5531764,52.7912074 C71.4335993,52.3504006 71.0989801,51.936006 70.9155958,51.5161978 C70.7515668,51.1406835 70.6708645,50.6918381 70.4397477,50.3496263 C70.0304954,49.7437834 70.1420351,50.574213 70.1546653,50.9362751 C70.197969,52.1829038 70.3583893,53.3530844 70.7545193,54.5308114 C71.1595068,55.7342946 71.579093,56.9328561 71.9996632,58.1307615 C72.0352575,57.8266097 72.0711799,57.5224579 72.1069382,57.2183061" mask="url(#chad-b)"/>
    <path fill="#56413B" d="M47.9101057,51.7252324 C48.4753496,51.9514597 49.0896381,52.1903189 49.6555381,51.8909246 C50.1851876,51.6107243 50.6415162,51.1533483 51.1250736,50.8021136 C51.9284875,50.2179256 52.9702356,49.8283029 53.8873215,49.4623036 C55.078992,48.9870458 56.5081765,48.692409 57.7885866,48.7814891 C59.1523235,48.8761469 60.5231137,49.6706492 61.7106834,50.3076619 C61.2008814,50.2207145 60.6910793,50.133603 60.1814413,50.0466556 C60.4702963,50.301756 60.7588233,50.5576766 61.046038,50.8149097 C61.1565936,50.9138328 61.7402086,51.5946473 61.8771728,51.5854604 C61.6962489,51.5976002 61.2348354,51.1955095 61.0793359,51.1054452 C60.5391885,50.7925986 59.9906756,50.4912357 59.4274001,50.2221909 C58.2060404,49.6391513 57.1900449,49.5592581 55.8418908,49.7110059 C54.4246805,49.8706282 53.3940864,50.3097945 52.2181627,51.0957661 C51.7326369,51.4204244 51.2649903,51.7701826 50.782089,52.0982859 C50.4069548,52.3532223 49.6944129,52.9190365 49.2156123,52.9190365 C49.1736209,52.9190365 49.4049018,52.5694424 49.3973565,52.5295778 C49.3709478,52.3894777 49.1603346,52.3581438 49.0227143,52.2902264 C48.6495484,52.1063245 48.2780227,51.9196337 47.9101057,51.7252324" mask="url(#chad-b)"/>
    <path fill="#AE6A62" d="M62.319,77.4005 C62.319,77.4005 65.539,77.956 66.7695,77.956 C68,77.956 70.453,77.693 70.453,77.693 C70.453,77.693 68.7155,78.928 66.7695,78.928 C64.8235,78.928 62.319,77.4005 62.319,77.4005 Z" mask="url(#chad-b)"/>
  </g>
</svg>
