<svg xmlns="http://www.w3.org/2000/svg" xmlns:xlink="http://www.w3.org/1999/xlink" width="120" height="120" viewBox="0 0 120 120">
  <defs>
    <path id="chad-a" d="M120,59.9999233 C120,93.1369885 93.1369885,120 59.9999233,120 C26.8628581,120 0,93.1369885 0,59.9999233 C0,26.8628581 26.8628581,0 59.9999233,0 C93.1369885,0 120,26.8628581 120,59.9999233"/>
  </defs>
  <g fill="none" fill-rule="evenodd">
    <mask id="chad-b" fill="#fff">
      <use xlink:href="#chad-a"/>
    </mask>
    <use fill="#7BCAEC" xlink:href="#chad-a"/>
    <path fill="#2F384A" d="M-6.48820639,108.349199 C-5.19695878,107.488248 -3.5654792,106.949633 -2.16082093,106.30432 C0.558311714,105.055028 3.28417211,103.819835 6.01355656,102.592811 C10.7995504,100.441395 15.6204644,98.4006822 20.4838274,96.4296589 C22.7771895,95.5001395 25.072634,94.5755866 27.3696804,93.6548786 C27.8696164,93.4544599 27.962203,93.4756072 28.1704429,92.9927442 C28.7290064,91.6973127 29.3497215,90.4257519 30.0313068,89.1905581 C31.8303394,85.9309922 34.3442756,82.8495762 37.7892044,81.2385375 C38.8296031,80.7519897 40.0298659,80.6661189 41.1538808,80.4966202 C41.5735643,80.4331783 41.8532465,80.3700568 42.2412135,80.4496796 C43.4155264,80.6903101 44.5827912,81.1323204 45.7322755,81.4690749 C47.8491142,82.0893953 49.9649919,82.7127597 52.0797482,83.3396486 C57.14174,84.8403049 62.2014892,86.3520155 67.2391329,87.933416 C69.0918274,88.5151266 70.9456431,89.0989199 72.7783145,89.741509 C74.0554659,90.189447 74.9555428,90.5886822 75.9491675,91.5545685 C77.0598872,92.634522 78.0636035,93.8295039 79.0380061,95.0320155 C79.4091537,95.4902067 79.6955637,95.8258398 79.899799,96.3642946 C80.3361417,97.5152196 80.7933083,98.6614987 81.3092628,99.779261 C81.641005,100.498429 81.9719462,101.459669 82.6817239,101.861307 C85.1009911,103.230594 87.5793664,104.525385 90.0055215,105.89307 C91.2307731,106.583721 92.5221809,107.198755 93.6599717,108.030388 C95.1588185,109.126041 96.5085334,110.434289 97.7922524,111.770574 C99.9557048,114.022599 102.076869,116.412403 103.372762,119.279783 C104.603459,122.003137 105.538777,124.868114 106.41819,127.721235 C106.592791,128.288207 106.764509,128.855979 106.928538,129.426155 C105.814775,129.409013 104.701012,129.391871 103.587088,129.374729 C100.573537,129.328429 97.560145,129.282129 94.546433,129.235669 C90.0708768,129.16678 85.5950002,129.097891 81.1192839,129.029163 C75.6829408,128.945535 70.2464376,128.861747 64.8100945,128.778119 C58.8288036,128.686 52.8475127,128.594041 46.8662218,128.501922 C40.8551366,128.409483 34.8438912,128.317044 28.8329662,128.224605 C23.2026396,128.137933 17.5721529,128.051261 11.9419865,127.964589 L-2.27102789,127.745907 C-5.69401142,127.693359 -9.11699495,127.640651 -12.5398183,127.587943 C-13.6039242,127.571602 -14.6677098,127.555261 -15.7318157,127.53892 C-16.1969916,127.531711 -16.9431312,127.665483 -17.3879637,127.513447 C-17.4453098,127.493742 -17.5374159,127.511044 -17.6000481,127.510083 C-15.6677419,122.317623 -13.6396454,116.955344 -10.0902762,112.646103 C-8.90202729,111.203442 -7.70336635,109.769271 -6.48820639,108.349199" mask="url(#chad-b)"/>
    <path fill="#E9BC9C" d="M39.168922,68.6346744 C39.6984921,70.8418424 40.1809679,73.0757649 40.4843575,75.3261886 C40.8566263,78.0881525 40.3675829,80.9760388 39.9807373,83.7178165 C39.9011255,84.2822248 39.8428184,84.8834806 39.6672561,85.4286641 C39.5190854,85.889739 39.1959932,86.2343437 38.9159906,86.6266899 C38.5232181,87.1773204 37.5717219,88.0623023 37.6707159,88.7372532 C37.7296639,89.1388915 37.9984535,89.5935581 38.156876,89.9625142 C38.4783664,90.7119612 38.8342965,91.4468295 39.2206616,92.164876 C40.1937827,93.9736098 41.3661734,95.6673152 42.7639437,97.1738992 C46.4606826,101.15808 50.2844479,105.024349 53.9988071,108.992509 C54.3310299,109.347527 54.9237127,110.278168 55.3852043,110.425238 C55.7888694,110.554044 56.5221942,110.360354 56.9675073,110.409698 C58.0093475,110.525367 59.0732933,110.866447 59.9525463,111.443512 C60.8817768,112.053258 61.5949184,113.003765 62.2611259,113.87609 C63.1440631,115.031822 63.9553978,116.242504 64.7417438,117.465202 C65.6498299,118.877264 66.6416926,120.312876 67.3851091,121.822344 C68.1805856,123.437388 68.8334978,125.133336 69.591491,126.767605 C70.093189,127.849 70.6017749,128.929434 71.1604986,129.982793 C71.2700649,130.18962 71.8484913,131.544649 72.1719039,131.540003 C72.5095729,131.535357 72.8576539,128.146344 72.9172425,127.788282 C73.7963353,122.498256 74.6626133,117.205346 75.5870383,111.92301 C76.0297884,109.392225 76.0099255,106.913827 75.835004,104.35084 C75.7502664,103.109718 75.6400594,101.870039 75.5040627,100.633403 C75.4246112,99.9103902 74.752637,99.6359561 74.1987189,99.1859354 C74.0241177,99.0439922 73.7300189,98.8858682 73.6638627,98.6856098 C73.5888963,98.4587571 73.7252134,97.994478 73.745717,97.7605762 C73.8477546,96.6099716 73.9496319,95.4593669 74.0516695,94.3087623 C74.1565904,93.1232326 74.2616714,91.937863 74.3665923,90.7524935 C74.3861348,90.5341318 74.3416035,90.1611705 74.4364328,89.9655581 C74.5463194,89.7382248 74.852432,89.632168 75.0810154,89.4750052 C76.5047356,88.4972636 77.0940545,87.2072791 77.7450445,85.6694548 C78.4102909,84.0984677 79.0276422,82.5015271 79.7912419,80.9745969 C81.1324671,78.2925762 82.9428728,75.5719457 83.558462,72.603155 C84.2642351,69.1997235 84.5737116,65.7198734 85.1949073,62.3004212 C85.7470634,59.2603385 85.5961696,56.1254134 85.365664,53.0590568 C85.1120919,49.6839819 85.0464162,46.2853566 84.8926391,42.9045142 C84.7835534,40.4996512 84.6741474,38.0949483 84.5647413,35.6900853 C84.5230933,34.7704987 84.6115152,33.7251499 84.3789272,32.831677 C83.8299748,30.7225556 82.9247719,28.6502817 82.2089072,26.5921059 C82.1113548,26.3112636 81.9711934,25.4382972 81.7267517,25.2628708 C81.5571163,25.1412739 80.936241,25.218814 80.7366511,25.2080801 C76.3083493,24.9680904 71.8770041,24.7727984 67.4442172,24.6380646 C62.5917468,24.4906744 57.6266667,24.2223282 52.785249,24.7093566 C51.2079118,24.8681214 50.1784057,25.3376873 48.9968845,26.4373463 C47.0203674,28.2773204 45.3606954,30.4790413 43.7569277,32.641031 C42.2773031,34.6352842 40.8609513,36.6769587 39.4891309,38.7466693 C39.2361995,39.1284419 38.7713439,39.6108243 38.635988,40.0507519 C38.5698318,40.2654289 38.6339056,40.5509173 38.6473611,40.7793721 C38.9132675,45.2997649 39.1791738,49.8201576 39.4450801,54.3405504 C39.5368659,55.9020853 39.6834347,57.4711499 39.7210781,59.0352481 C39.7542363,60.4098217 39.5748296,61.8140336 39.4931355,63.1858837 L39.168922,68.6346744 Z" mask="url(#chad-b)"/>
    <path fill="#BF987C" d="M63.1579671,65.2335659 C63.1579671,65.2335659 66.0428908,66.8822532 66.8670403,67.8439742 C67.6913499,68.8056951 68.3782213,70.1797881 68.3782213,70.1797881 C68.3782213,70.1797881 70.438675,71.1413488 71.5377012,71.1413488 C72.6367274,71.1413488 74.2851865,70.1797881 74.2851865,70.1797881 C74.2851865,70.1797881 73.3235987,69.217907 74.2851865,68.256186 C75.2469345,67.2944651 76.3458005,65.0962687 76.3458005,65.0962687 C76.3458005,65.0962687 64.3944316,65.0962687 63.8448385,64.4091421 C63.2952453,63.7221757 62.7458123,62.8979121 62.7458123,62.8979121 L63.1579671,65.2335659 Z" mask="url(#chad-b)"/>
    <path fill="#BA9479" d="M73.9384991 50.8316227C74.8762194 50.7646563 75.8142601 50.6975297 76.7521406 50.6304031 77.4375703 50.5813798 78.1226796 50.5323566 78.8079491 50.4833333 79.1656412 50.4578605 79.6417096 50.3397881 79.9990813 50.3981034 80.311281 50.4490491 80.6446251 50.6874367 80.9294332 50.827137 81.3752268 51.0458191 82.0039511 51.2303773 82.3912773 51.5442222 82.7247815 51.8146512 82.8184895 52.4034109 83.1382179 52.6581395 83.4268704 52.8883566 84.036693 52.4952093 84.4289849 52.3481395 83.8103522 51.9223101 83.1918797 51.4964806 82.573247 51.0706512 82.9511223 50.6568372 83.468198 50.0220982 83.3957946 49.4240465 83.3474189 49.0259328 82.9532047 48.6071525 82.7300676 48.2860982 82.5695627 48.0554005 82.2959675 47.479938 82.0455991 47.3262997 81.7029643 47.1161085 80.9116527 47.2554884 80.5036627 47.2626977 79.7882785 47.2751938 79.0831461 47.3323876 78.3719267 47.4091266 77.2456692 47.5304031 76.1184506 47.7724755 75.0660381 48.1981447 74.4190527 48.4596021 73.2711703 48.902093 73.0600471 49.6605116 72.8848052 50.2890026 73.1950826 51.1996176 73.3277154 51.8197778 73.4605084 52.4413798 73.7158426 52.9327339 74.1576316 53.4181602 74.0845874 52.5559276 74.0115433 51.6938553 73.9384991 50.8316227M66.2959503 47.8285318C65.1624845 47.180816 63.4802264 47.1481339 62.2179722 46.9908109 61.4273013 46.8921235 60.6350285 46.807214 59.8419548 46.7314362 59.5052469 46.6992346 57.7666039 47.0276584 57.3536481 47.204046 56.9954755 47.3568832 56.5503226 47.4747953 56.2493359 47.7178289 55.8352588 48.0518599 54.3791813 48.0837411 53.8235011 48.6475085 53.3770668 49.1000925 52.8966734 51.3787127 52.2421593 51.323922 51.5299788 51.2644853 50.8198807 51.1142114 50.1224372 50.9618548 50.5845697 51.3662165 51.0467021 51.7704181 51.5086743 52.1747798L50.2957569 52.7813225 52.523123 52.8192915C52.2714731 53.1243251 53.4879145 52.535245 53.7802513 52.1257566 54.0226105 51.7864388 54.3548333 51.5411623 54.7681094 51.4080305 55.4400836 51.191431 56.2703201 51.1976791 56.967283 51.1057204 58.3564034 50.9221235 59.7476061 50.7466972 61.1424932 50.6127643 62.0595497 50.5248109 62.9743636 50.3918393 63.8670721 50.619493 64.4443772 50.766723 65.849516 50.5988264 66.2246682 51.1114879 66.6387452 51.6771778 66.326065 53.1523612 66.2792911 53.8037618 66.4663867 53.4159013 66.8471453 52.0536636 67.1852949 51.9461649 67.607221 51.8119116 68.3749855 52.598046 68.3817133 51.7290848 68.3865188 51.1086041 67.9721214 50.3014827 67.723515 49.7566196 67.4063496 49.0610021 66.9869864 48.2234413 66.2959503 47.8285318" mask="url(#chad-b)"/>
    <path fill="#E9BC9C" d="M33.7764535,45.6010496 C33.2467232,46.3456904 32.7309289,47.1492873 32.404633,48.0057525 C32.0841038,48.8466775 32.1547451,49.7835664 32.1609923,50.6691891 C32.1754089,52.7084605 32.1872626,54.6772408 32.8143851,56.6263158 C33.4865194,58.7149307 34.1142827,60.8359075 34.8969444,62.8860729 C35.2193958,63.7305225 35.524227,64.6741401 36.2719685,65.2369463 C37.075294,65.8418868 38.0836557,66.1409928 39.0671888,66.280693 C39.4787029,66.3390083 41.0643697,66.7020367 41.3030447,66.2573028 C41.4640301,65.9573959 41.2115793,65.0025638 41.1856294,64.6754217 C41.022081,62.6228532 40.8498826,60.5709256 40.6810481,58.5188377 C40.5408866,56.8188842 40.4686434,55.1556181 40.5168589,53.4474941 C40.5500171,52.2682124 40.8721482,51.013954 40.3308847,49.9455354 C39.4120661,48.1319953 38.4461533,46.2583778 37.1696427,44.6670444 C36.7382657,44.1295509 36.2069336,43.4368171 35.4377274,43.6218558 C34.5559115,43.8339695 34.0205747,44.794569 33.7764535,45.6010496" mask="url(#chad-b)"/>
    <path fill="#BF987C" d="M57.4809468,66.6122248 C58.4968372,65.5106434 59.5216979,64.4161111 60.5678631,63.3432067 C61.7687667,62.1116977 63.083241,61.142447 64.4460911,60.0953359 C63.9278941,60.9040594 63.050243,62.0810982 63.3981639,63.0538734 C63.6025593,63.6246899 63.7934993,64.1613824 64.4645124,64.2698424 C65.5247739,64.4412636 66.7929549,63.937093 67.8551386,63.8263902 C68.6486929,63.7437235 69.0075062,63.9592016 69.6807619,64.3348863 C70.6162396,64.8566796 71.6857918,65.3730258 72.7814541,65.3597287 C73.7055587,65.3486744 74.306411,64.8651705 75.0096211,64.3488243 C75.4751174,64.0069432 76.2140487,63.9816305 76.5278502,63.4931602 C77.2363465,62.390938 75.9984403,60.4610879 75.4607008,59.5418217 C77.2172845,62.5453773 78.9857219,65.4625814 80.4294652,68.6361163 C79.3422927,67.3142506 78.3164708,65.8972222 77.1485653,64.6472894 C77.0450861,64.5364264 76.9917447,64.4008915 76.8632767,64.3840698 C76.4632959,64.3313618 75.6319381,65.029062 75.3551392,65.2539922 C74.2884703,66.1208708 73.5445733,67.7432842 71.8919493,67.347093 C71.0621934,67.1482765 70.4387551,66.4939922 69.8081086,65.9641886 C69.4030019,65.6235891 68.9591305,65.2463023 68.4713686,65.029062 C67.9041551,64.7765762 67.5986832,65.0683127 67.0191355,65.1735685 C65.5523256,65.439832 64.4009191,65.2507881 63.3462641,64.19823 C63.0874058,63.9396563 62.7069675,63.2325039 62.3817929,63.106261 C62.1953381,63.0338475 62.2805563,63.0924832 62.0441239,63.2158424 C61.1043212,63.7063953 60.2321163,64.5644625 59.3821771,65.1971189 C58.7484871,65.6687674 58.1146368,66.1405762 57.4809468,66.6122248" mask="url(#chad-b)"/>
    <path fill="#D18A85" d="M60.8512456,73.6907984 C61.8887609,74.7140388 63.0547442,75.6972274 64.3424678,76.3872377 C65.770513,77.152385 67.5115588,77.3351809 69.0996284,77.4884987 C70.5252708,77.6261163 71.8285323,77.7994599 73.1108095,77.0320698 C74.683181,76.0911757 75.9077919,74.5815478 77.2535022,73.3537235 L62.9152235,73.6483437 C62.2272309,73.6626021 61.5392382,73.6767003 60.8512456,73.6907984" mask="url(#chad-b)"/>
    <path fill="#AE6A62" d="M59.1660241,72.4572548 C62.1444955,72.1692031 65.1474752,71.8502315 68.1405234,71.7834253 C69.1330268,71.7613168 70.0012271,72.1594305 70.9676204,72.2076527 C71.6530501,72.241937 72.3110882,71.8270016 73.0364038,71.9138336 C73.8402099,72.0099576 74.6851833,72.4510067 75.4824218,72.6483814 C76.1071415,72.8029809 76.7355455,72.9431618 77.3657115,73.0724486 C76.1412608,73.4449292 74.9328286,73.8971928 73.6795448,74.1634563 C71.5242617,74.6216475 69.3696194,74.5330532 67.1907892,74.3457716 C65.5010025,74.2006243 63.7884695,74.0484279 62.1167836,73.754769 C61.0799091,73.572614 60.0982982,72.9244176 59.1660241,72.4572548" mask="url(#chad-b)"/>
    <path fill="#D8CECD" d="M55.7003034 51.559586C56.9652807 51.559586 58.2717458 51.9312656 59.5356019 52.0368419 60.7898469 52.1416171 62.0064485 51.8149556 63.2445148 51.7024904 63.4801463 51.6811829 63.7303546 51.7260408 63.871317 51.5131261 64.0773143 51.2021649 63.8178153 50.6911054 63.5853876 50.4959736 63.1073969 50.094816 62.3244148 49.9056119 61.7506338 49.6947798 61.2819338 49.5225576 60.7103953 49.2301804 60.2035715 49.1915705 59.6591042 49.150077 58.9877708 49.3694 58.4594821 49.4695292 57.7234341 49.608909 56.9888278 49.7247385 56.3503322 50.1326248 55.7310588 50.5281752 55.1539139 51.001586 54.5860597 51.4666661 54.9575276 51.4977463 55.3289956 51.5286661 55.7003034 51.559586M74.3777572 51.4349773C74.5654934 51.3680109 74.943529 51.5964656 75.1130042 51.6557421 75.5126647 51.7957628 75.9236982 51.9505225 76.3467456 52.0027499 77.0666149 52.0916646 77.5782444 52.1829824 78.2944295 52.1081659 79.3223337 52.0008274 80.4399412 51.5150806 81.4202707 51.1880987 80.4120691 49.7606568 78.6474762 49.7105121 77.0557224 49.6944915 75.8423244 49.6823158 74.9994334 50.1389049 73.8992859 50.6308997 74.0588297 50.8989256 74.2182134 51.1669514 74.3777572 51.4349773" mask="url(#chad-b)"/>
    <path fill="#969192" d="M54.7681414 51.4079824C55.470871 50.9239979 56.1979487 50.3695225 56.986377 50.0348506 57.7105713 49.727414 58.5550642 49.6043752 59.3338815 49.5124165 60.3252636 49.3954656 61.3427559 49.3494863 62.2402699 49.8368351 62.7051254 50.0891607 63.1776698 50.3804165 63.59447 50.7073984 63.8996216 50.9470677 63.8775161 50.9616465 63.9114752 51.3695328 62.2689429 51.092215 60.6874409 50.0848351 59.0229633 50.2647473 58.2636886 50.3467731 57.2723064 50.6050264 56.4199645 50.9199928 56.1202592 51.0308558 55.5878057 51.4687008 55.2688783 51.4868041 54.9757406 51.5034656 55.0577551 51.4550832 54.7681414 51.4079824M73.9384991 50.8316227C74.2104925 50.0150491 75.1296314 49.8854419 75.8546266 49.7148217 76.3707412 49.593385 76.8828512 49.6028372 77.4088973 49.5674315 77.6938656 49.5483669 78.0893612 49.4363824 78.3693638 49.492615 78.9631679 49.611969 79.6870418 50.0437261 80.2249415 50.3210439 80.6800258 50.5557468 80.9164582 50.9634729 81.2376282 51.3695969 80.9052453 51.4602739 80.8760917 51.5040103 80.5393838 51.4801395 79.7432666 51.4237468 78.9479504 50.7185168 78.1654489 50.5627959 77.2626488 50.3832041 76.1911743 50.5914729 75.2789234 50.7247649 74.6718239 50.8133592 74.2836968 51.3495711 73.9384991 50.8316227" mask="url(#chad-b)"/>
    <path fill="#442C2B" d="M61.526856,50.6017902 C61.4384341,51.6511442 60.5160915,52.4302295 59.4670429,52.3416351 C58.4178341,52.253201 57.6390169,51.3307307 57.7272786,50.2813767 C57.8158606,49.2318625 58.7382032,48.4529375 59.787412,48.5413716 C60.8364606,48.6299659 61.615438,49.5524362 61.526856,50.6017902" mask="url(#chad-b)"/>
    <path fill="#200A02" d="M61.3974909,50.5276305 C60.7061344,49.823522 58.4605073,49.9984677 57.9043466,50.2333307 C57.9565667,49.2666434 58.8335771,48.5524419 59.7982084,48.6338269 C60.7626796,48.7152119 61.5331672,49.5691137 61.3974909,50.5276305" mask="url(#chad-b)"/>
    <path fill="#000" d="M60.459226,50.5119943 C60.4206215,50.9714672 60.0166361,51.3123871 59.557387,51.2734568 C59.0979777,51.2346868 58.7569448,50.8308057 58.7955493,50.3713328 C58.834314,49.9118599 59.2381392,49.5709401 59.6973883,49.6098703 C60.1567976,49.6486403 60.4978305,50.0525214 60.459226,50.5119943" mask="url(#chad-b)"/>
    <path fill="#FEFEFE" d="M59.2892805,50.4255757 C59.2763459,50.5797353 59.1408911,50.6941271 58.9867529,50.6810709 C58.8326147,50.6681344 58.7182386,50.5326609 58.7312931,50.3785014 C58.7442278,50.2243418 58.8796825,50.10995 59.0338207,50.1230062 C59.1878392,50.1359427 59.3022152,50.2714162 59.2892805,50.4255757" mask="url(#chad-b)"/>
    <path fill="#442C2B" d="M79.0065298,50.6891669 C78.9179478,51.7385209 77.9957654,52.5176062 76.9465566,52.4290119 C75.8973478,52.3405778 75.1185306,51.4181075 75.2069525,50.3687535 C75.2953743,49.3192393 76.2177169,48.5403142 77.2669257,48.6289085 C78.3161345,48.7173426 79.0949517,49.6398129 79.0065298,50.6891669" mask="url(#chad-b)"/>
    <path fill="#200A02" d="M78.8771648,50.6150873 C78.1858083,49.9109788 75.9401812,50.0859245 75.3838603,50.3207876 C75.4362406,49.3539401 76.3130908,48.6398987 77.2778823,48.7212837 C78.2423535,48.8025085 79.0128411,49.6565705 78.8771648,50.6150873" mask="url(#chad-b)"/>
    <path fill="#000" d="M77.9388999,50.5993711 C77.9001352,51.0588439 77.49631,51.3997638 77.0369007,51.3609938 C76.5776516,51.3220636 76.2364585,50.9181824 76.2752232,50.4588698 C76.3138277,49.9992367 76.7176529,49.6583168 77.1770622,49.697247 C77.6364714,49.7360171 77.9775043,50.1398982 77.9388999,50.5993711" mask="url(#chad-b)"/>
    <path fill="#FEFEFE" d="M76.7687957,50.5129682 C76.7558638,50.667095 76.6204377,50.7814626 76.4663322,50.7684092 C76.3122267,50.7554754 76.1977552,50.6200307 76.2108069,50.4659038 C76.2237388,50.311777 76.3592846,50.1974094 76.5132704,50.2104628 C76.6673759,50.2233966 76.7817277,50.3588414 76.7687957,50.5129682" mask="url(#chad-b)"/>
    <path fill="#81685F" d="M51.6936554 48.5921731C53.7376102 47.5014858 55.8509249 46.666168 58.1721591 46.457739 60.6833722 46.2323282 63.2568971 46.4274599 65.7017938 47.0626796 66.1781826 47.1863592 67.7109885 47.6088243 66.6635418 48.1674651 66.1588003 48.4366124 65.4378097 48.4425401 64.8750814 48.4180284 63.1015181 48.3403282 61.3212271 47.9247519 59.5511879 47.9104935 58.194585 47.8995995 56.7631759 48.1932584 55.4608755 48.5514806 54.2103148 48.8952842 53.9697176 49.2131344 52.6648543 49.384876 52.6377831 49.0308191 51.7208868 48.9460698 51.6936554 48.5921731M75.1987029 47.5439406C75.1987029 47.1264419 77.173458 46.4973101 77.4771679 46.3777959 78.6710233 45.9085504 79.7429783 45.671124 81.0340657 45.7754186 81.851968 45.841584 82.6716323 45.909832 83.3932637 46.3330982 84.2782833 46.852168 84.3067961 47.9018424 84.3633413 48.8372894 83.3322334 48.1681059 81.7412805 46.9889845 80.4541977 47.2219251 79.4322203 47.4069638 78.4626232 47.8754083 77.4438495 48.0918475 76.6065649 48.2698372 75.9307463 47.9479819 75.1987029 47.5439406" mask="url(#chad-b)"/>
    <path fill="#BA9479" d="M58.3406893,49.0597364 C58.7514024,49.0201654 59.1622758,48.9807545 59.5728288,48.9411835 C59.7562401,48.9235607 60.5204806,48.9700207 60.6659281,48.8298398 C61.069433,48.4403773 59.5342243,48.430124 59.3535361,48.4443824 C59.1704452,48.458801 58.4846952,48.4586408 58.368241,48.6089147 C58.3051283,48.6899793 58.3406893,48.9382997 58.3406893,49.0597364" mask="url(#chad-b)"/>
    <path fill="#E9BC9C" d="M58.1068359 52.0225354C58.5994033 52.0545767 59.092131 52.084215 59.585179 52.1103287 59.9085916 52.127631 60.9017358 51.9815225 61.1695643 52.1574295 61.1767727 52.1622357 59.9430313 52.7090212 59.6913814 52.6739359 59.1574863 52.5999204 58.5897923 52.2529127 58.1068359 52.0225354M75.5035982 51.8760103C76.1385697 52.1522067 78.1950189 52.2279845 78.6906299 52.1009406 79.2841136 51.9490646 77.7312847 52.8563152 77.4552867 52.8462222 76.6626936 52.817385 76.0370127 52.5088269 75.5035982 51.8760103" mask="url(#chad-b)"/>
    <path fill="#3C3738" d="M43.6475217,56.3044605 C43.2768546,55.2720884 42.8946543,54.1192408 42.8836016,53.0142951 C42.8720683,51.8606465 43.7095131,50.6192047 44.3356745,49.6874424 C44.6880805,49.1629256 45.6717737,48.2979695 45.6201943,47.7185018 C45.5892787,47.3708532 45.0738048,46.9871581 45.1306704,46.6500832 C45.1974673,46.253892 45.8417296,45.6526362 46.0707934,45.3346258 C46.9087188,44.1708842 47.8499632,43.2559437 47.7924569,41.7402279 C47.7559349,40.7853959 47.6079243,40.4552098 47.0881255,39.7235457 C46.4163115,38.7773649 45.6517507,37.7752718 45.2179709,36.6895509 C44.8945583,35.8803468 45.6322082,34.9208687 46.4103847,34.7166052 C46.9808018,34.5666517 47.6611056,34.6028584 48.249944,34.5491891 C48.5220975,34.5245173 49.1312794,34.3486103 49.3854922,34.4549876 C49.7178752,34.5938868 50.1149726,35.2939902 50.349643,35.5637783 C50.673376,35.9362589 50.9972691,36.3085793 51.3210021,36.6810599 C51.547503,36.0009824 51.7741642,35.3209049 52.0008253,34.6409876 C52.62122,36.3902848 54.320778,38.2079902 56.3719411,37.846724 C55.9184587,36.8753907 55.4652966,35.9038972 55.0119743,34.9324036 C55.7414548,35.8151426 56.5253979,36.6756129 57.3950398,37.4216956 C58.6489644,38.4973235 60.000922,38.5268016 61.6170239,38.4295561 C60.9488941,37.8819695 60.3549298,37.1916388 59.9477407,36.4290548 C59.217139,35.0612098 59.4984231,33.6561969 60.0230275,32.2622382 C60.2218165,31.7333959 60.6760998,30.1947705 61.2248921,29.9865018 C61.4760615,29.891339 62.069385,30.0590755 62.3356117,30.0794217 C62.9419102,30.1258817 63.5496504,30.1712202 64.1575507,30.1864398 C65.8249116,30.2280935 67.4844235,29.1736129 68.9922406,28.5577783 C69.1722881,28.4842434 70.3930545,27.8591168 70.553239,28.0350238 C70.6448646,28.1357938 70.4825976,28.9637421 70.4611329,29.0955922 C70.3427565,29.8162021 70.0231884,30.4711271 69.4870507,30.974016 C68.5485295,31.8540315 67.2101876,32.3881607 66.0544561,32.9104346 C65.232389,33.281954 64.4003905,33.6332873 63.559742,33.9609101 C65.7299222,34.1711013 68.2119817,34.0615199 70.1989108,33.0977163 C71.6410523,32.3982537 72.904588,31.2281039 74.0797018,30.1584036 C74.2246688,30.0267137 76.2293784,28.3094579 76.1883711,28.2139747 C76.2631773,28.3882796 75.9564239,29.0709204 75.9069269,29.2566 C75.7127832,29.9863416 75.5208821,30.7165638 75.3296218,31.4471065 C75.1412448,32.1669152 74.9535085,32.886724 74.7681749,33.6071736 C74.6949706,33.8921814 74.6695013,34.2949411 74.5322231,34.5530341 C75.3517272,33.0126465 76.3978925,31.5675819 77.3489081,30.1061762 C77.6130525,29.7002124 77.8546107,29.2061349 78.1934011,28.8607292 C78.7550081,28.2881504 79.5296605,27.8424553 80.1692774,27.3549463 C80.167195,27.85383 80.177607,28.3796284 80.0872629,28.871463 C80.0643565,28.9962641 79.9253164,29.3025793 79.9837837,29.4111995 C80.0874231,29.6039282 80.64022,29.6209101 80.8217091,29.6449411 C81.2614156,29.7030961 81.1777993,29.6327654 81.3370227,29.9925897 C81.5491071,30.4722486 81.6681242,31.0223984 81.825906,31.5214424 C82.1680602,32.6041194 82.5970344,33.7133907 82.7918188,34.8351581 C82.9254127,35.6049514 82.9702644,36.399737 83.0540409,37.1757783 C83.2895122,39.357153 83.3766525,41.6090186 83.7527659,43.7710083 C84.0606406,45.5412925 84.9003279,47.2196181 85.1330761,49.009768 C85.2858921,50.184724 85.25802,51.4080625 85.3020708,52.5900677 C85.3379521,53.5525897 85.2051591,54.6972667 85.4137194,55.6408842 C85.3723918,55.4542434 85.6077029,55.0961814 85.6756211,54.943985 C85.938484,54.3550651 86.2074338,53.7699902 86.4390607,53.1676129 C86.9958621,51.7188636 87.3428219,50.2294217 87.3835087,48.6749359 C87.4477427,46.2228119 87.2659333,43.7565897 87.0945358,41.3119953 C87.0360685,40.4779592 86.8835728,39.6053132 86.900232,38.7696749 C86.9016736,38.6918145 86.8379202,38.4941194 86.8770052,38.4268326 C86.9966631,38.221768 87.6960288,37.9721659 87.8957789,37.8403158 C88.8821953,37.1898765 89.5961379,36.4649411 89.7930047,35.2750858 C90.0271945,33.8598196 89.9836243,32.3689359 89.8468267,30.9464605 C89.573712,28.1059953 88.2079786,25.9367964 86.4872762,23.7208171 C85.8843416,22.9441349 85.3112013,22.1999747 84.4928185,21.6386103 C84.2022437,21.4393132 83.421344,21.1663209 83.2377725,20.8771478 C83.1334924,20.7129359 83.2584364,20.3591995 83.27894,20.1334682 C83.4251885,18.5257938 83.1413415,16.8878403 82.2926837,15.5009307 C81.9314676,14.910569 81.4911203,14.3698713 81.0070426,13.8761142 C80.7161475,13.5795716 80.2232596,13.3041762 79.9933948,12.9672615 C79.6877627,12.5191633 79.9065748,11.6181607 79.6469156,11.0305225 C79.1360871,9.87463101 77.7830083,9.59651214 76.6597942,9.36757674 C75.7143851,9.17500827 74.5626582,8.89352506 73.5884158,8.99958191 C72.6812907,9.09842946 71.7200233,9.66812455 70.9035626,10.046693 C70.3129622,10.3206465 70.1402833,10.1267964 69.5200487,9.87254832 C68.4548215,9.43598501 67.3886332,9.00182481 66.3187606,8.57695659 C65.605619,8.29371111 64.8718136,7.91738553 64.1029278,7.82462584 C63.1709741,7.71216072 62.2044206,7.77143721 61.2700641,7.81501344 C58.9954436,7.92107028 56.6942324,8.11684289 54.4516488,8.52264651 C52.9348614,8.79724083 51.5603178,9.50182997 50.1699159,10.1448997 C47.955685,11.1686207 45.7542688,12.2325535 43.6065144,13.3903674 C42.2348542,14.1297214 41.0791227,14.7809618 40.1635078,16.0578093 C38.8809102,17.8465173 37.802708,19.7922279 36.7345975,21.7132667 C35.7111784,23.5535612 34.7181944,25.4119592 33.7668584,27.2907034 C33.076463,28.6540625 32.8980174,29.890538 32.8305797,31.4288429 C32.6444453,35.6703158 32.7520893,39.9968584 33.3878618,44.1976388 C33.4990299,44.9312253 33.6159646,45.6640109 33.7399474,46.3955147 C34.2462907,46.0121401 34.9676018,45.5882331 35.6270815,45.6982951 C36.4230385,45.8311065 36.9457207,46.8082072 37.3216738,47.4352563 C37.8507634,48.3176749 38.1589584,49.2095457 38.5128061,50.1731891 C38.9803848,51.4466724 39.361624,52.7477111 40.1981077,53.8323106 C40.6668077,54.4399747 41.1601761,55.0761556 41.8348734,55.4584088 C42.4116979,55.7852305 43.0409028,56.0378765 43.6475217,56.3044605" mask="url(#chad-b)"/>
    <path fill="#573B3E" d="M58.2673248,72.0054238 C59.6880015,72.2740904 61.08417,72.6409638 62.5067689,72.8979354 C64.8071791,73.3136718 67.1031042,74.119832 69.4469245,74.1924057 C72.4599958,74.285646 75.6207572,73.5808966 78.4891818,72.6795736 C76.7761683,73.6497855 75.1812108,74.1746227 73.2272797,74.3928243 C70.8602327,74.6571654 68.622775,74.5551137 66.273989,74.2161163 C65.3319437,74.0801008 64.3890975,73.9104419 63.4404846,73.8245711 C62.63796,73.7519974 61.8019569,73.9444057 61.0132082,73.7196357 C60.0569065,73.4472842 59.1047696,72.5515685 58.2673248,72.0054238" mask="url(#chad-b)"/>
    <path fill="#6F5245" d="M64.6709582 65.151508C66.0299639 65.6952496 67.5709392 64.2118956 68.9573364 64.5625881 69.7070001 64.7521127 70.0675755 65.0533013 70.3464568 65.7055028 70.5208978 66.1138698 70.8050652 66.4865106 71.0744956 66.8368827 70.0959282 66.1528 68.9379541 65.4933891 67.7154257 65.8219731 66.5201286 66.1430274 65.4225441 66.3993581 64.6709582 65.151508M74.6695013 65.9380589C75.0665988 64.9857902 75.7988023 62.8592062 76.9162497 64.3649891 76.1675471 64.8893457 75.4185242 65.4137023 74.6695013 65.9380589" mask="url(#chad-b)"/>
    <path fill="#BA9479" d="M66.0190713 82.4548429C68.2658198 82.5296594 70.5128885 82.6046362 72.759637 82.6796129 71.8422601 82.0253287 70.5492504 80.9988842 69.3634043 81.1188791 68.21392 81.2350289 67.023909 81.9175096 66.0190713 82.4548429M41.7528268 68.7470114C43.0221292 71.7090734 43.8614962 75.129647 46.0867799 77.5676729 48.3171895 80.0114661 50.7574408 82.3176419 53.1536414 84.5965824 54.2778165 85.6656419 55.4101611 86.7568098 56.6509506 87.6920966 57.095783 88.0275695 57.5377322 88.2553835 58.0394302 88.4953731 59.138136 89.0208512 60.192791 89.6339623 61.2951811 90.1525514 62.9284227 90.9212233 64.3398087 91.1376625 66.1120905 91.0892801 67.8797269 91.0412181 69.6444801 90.904722 71.4079517 90.7796005 71.9905429 90.7384274 72.5811433 90.6701793 73.1656567 90.6687375 73.5167813 90.6679364 73.5219072 90.596324 73.5204655 90.8936677 73.5187035 91.314691 72.8637089 92.0252078 72.6362468 92.3464222 72.1169285 93.0803292 71.5500354 93.7845979 70.9344462 94.4401638 70.3662716 95.045585 69.7477991 95.6455592 69.0288909 96.0705876 68.3796629 96.4544429 67.628077 96.595585 66.9602677 96.9558899 65.3127696 97.8443964 63.6862558 99.1053835 61.7026905 98.5302413 60.439315 98.164169 59.4565829 97.2114196 58.5448124 96.3108977 57.4755806 95.254815 56.4686606 94.1352904 55.4808025 93.0035902 53.1004601 90.2765514 50.8312859 87.4466599 48.663989 84.5477194 47.7792898 83.3642724 46.9083664 82.168169 46.0925465 80.9360191 45.6209632 80.2237401 45.1014847 79.4853473 44.8009785 78.6795075 43.6947441 75.7111974 42.9164074 72.5801173 41.9961472 69.5490062 41.9150938 69.2817814 41.8338802 69.0143964 41.7528268 68.7470114" mask="url(#chad-b)"/>
    <path fill="#AB896F" d="M39.7306571,59.1964801 C39.1616816,58.6051571 39.0237627,58.0857669 39.2933533,57.3251054 C39.4742017,56.8143664 39.6645009,56.2055809 39.5685504,55.67017 C39.4626684,55.0801287 39.1868306,54.477431 39.0042202,53.9062941 C38.9057067,53.5982165 38.8640588,53.1147127 38.6023172,53.0406972 C38.1558829,52.9144543 37.1331046,53.5539995 36.8358021,53.8364439 C36.2937376,54.3513483 36.1503724,55.3332553 35.9730481,56.0295137 C35.8490653,56.5165421 35.4474826,57.6753173 35.8476236,58.1322269 C36.4039445,58.7676067 37.4012535,58.2262682 37.8531341,59.1655602 C38.1241663,59.728847 38.2692935,61.2309452 39.2462591,60.8539788 C39.8769056,60.6104646 39.8461502,59.7475912 39.7306571,59.1964801" mask="url(#chad-b)"/>
    <path fill="#A6856C" d="M36.9221095,50.6571736 C36.4880094,49.826662 35.4033998,46.8362434 33.9828833,47.6100419 C33.0653462,48.1098868 33.2976138,50.4812667 33.2670186,51.3574372 C33.2332196,52.3220419 33.2160799,53.2874475 33.2146382,54.252693 C33.4292855,53.0884708 33.6306375,51.8688171 34.0488793,50.7577835 C34.2832293,50.1347395 34.5360005,50.0669721 35.2078145,50.1744708 C35.7912066,50.2678713 36.36707,50.456755 36.9221095,50.6571736" mask="url(#chad-b)"/>
    <path fill="#BA9479" d="M34.3381886 58.7470682C34.8397264 59.2486755 35.7553413 59.4293886 35.9996227 60.1711457 36.0938112 60.4569545 35.8077216 61.8630889 35.2368239 61.5559726 35.0492478 61.4552026 34.8485366 60.3422465 34.7875063 60.1516005 34.6377337 59.6833163 34.4879612 59.2151922 34.3381886 58.7470682M37.1467363 63.4661333C37.2217026 62.7919835 37.296669 62.1178336 37.371315 61.4436837 37.5742688 62.2804434 38.426771 62.7130016 39.2007827 62.2823659 39.6371254 62.0394925 39.9669454 61.6051721 40.2557581 61.2091411 40.3869492 61.0295494 40.6145715 60.4814822 40.8335438 60.3992961 40.7776393 60.4202832 41.0972075 62.2395907 41.1180315 62.3868207 41.1547138 62.6460351 41.567189 64.3171514 41.3317177 64.4953013 41.475243 64.3866811 39.9033521 63.0161127 39.5919533 62.9967276 39.1685856 62.9704537 38.6335692 63.2118853 38.2126042 63.2902264 37.8585964 63.3560713 37.5031469 63.4140661 37.1467363 63.4661333" mask="url(#chad-b)"/>
    <path fill="#131C39" d="M29.8793077 105.251137C31.3531657 107.830946 33.3296827 110.201365 35.0814609 112.593251 36.103118 113.988331 37.1292601 115.380367 38.1581255 116.770161 38.6106468 117.38167 39.0554793 118.253034 39.6323038 118.757365 40.2997928 119.340838 41.6054571 119.283163 42.4044576 119.230616 44.9946416 119.060476 47.5745739 118.126311 49.5623039 116.445742 50.8950393 115.319168 51.7662831 113.977117 52.734919 112.563613 53.0093151 112.163417 52.9492459 112.280207 53.4833012 112.509143 53.9601706 112.713566 54.3828976 112.994729 54.886678 112.95644 56.8265128 112.808729 59.1539943 112.15829 60.7843526 113.627706 62.236906 114.936915 63.1741458 116.976347 63.9021845 118.762171 62.6756515 118.237975 61.4423907 117.728838 60.2041641 117.232678 58.4413332 116.526326 56.5724601 115.62292 54.6949371 115.270626 52.7792901 114.911122 50.5953341 116.647442 49.1355723 117.659628 47.188369 119.009851 45.3848512 120.665106 43.2467079 121.712218 42.1263772 122.260765 40.9485402 122.692843 39.7580487 123.06228 39.4950257 123.143825 38.4006449 123.648476 38.1344182 123.515184 38.0506416 123.47321 37.9516476 123.110342 37.9156061 123.030879 37.7166569 122.590631 37.5177077 122.150543 37.3185983 121.710295 35.9158622 118.60645 34.5128058 115.502445 33.1099096 112.3986 32.0329889 110.016166 30.9562284 107.633732 29.8793077 105.251137M78.1619729 126.268256C79.694138 122.181543 81.2266236 118.09467 82.7587887 114.007957 82.9776008 113.424324 83.1965731 112.84053 83.4153852 112.256897 84.4428088 113.939068 85.7753841 115.794742 87.5071392 116.797316 89.3881863 117.886561 91.8088951 118.331776 93.9225302 118.762091 92.5643254 118.921176 91.1966698 119.029636 89.8299753 119.076417 88.8482042 119.1099 87.8460897 119.129765 86.8705658 118.992949 85.9961184 118.870391 85.2983545 118.373269 84.4661958 118.140329 84.1105861 118.04068 84.2984826 117.995982 84.0710205 118.142091 83.7480885 118.349719 83.4509461 118.995032 83.2274887 119.301988 82.2404315 120.659419 81.2533744 122.016851 80.2663172 123.374442L78.1619729 126.268256z" mask="url(#chad-b)"/>
    <path fill="#CFA586" d="M68.4019766,51.9148124 C68.4932818,53.1448796 68.5943583,54.3746264 68.7172198,55.60197 C68.8050009,56.4791018 69.5815756,59.4001509 67.6877137,58.7921664 C67.2319887,58.6458977 66.9788971,58.2213499 66.6460336,57.9115101 C66.3601042,57.6455669 66.0294833,57.4342543 65.7313799,57.1832103 C65.0324947,56.5946109 64.7999068,55.9863059 65.2969594,55.1508279 C65.935455,54.0782439 66.6357818,53.2190553 66.8553948,51.9474946 C66.9529472,51.3819649 66.9845036,50.7839132 66.8901549,50.2150191 C67.3940955,50.7816703 67.898036,51.3481612 68.4019766,51.9148124" mask="url(#chad-b)"/>
    <path fill="#372E31" d="M37.3798208,66.2120925 C38.0586829,67.9096429 38.7377052,69.6070331 39.4164071,71.3045835 C39.3520129,70.0154 39.2874585,68.7262165 39.2230644,67.4370331 C39.2120116,67.215307 39.2965891,66.3636481 39.1440934,66.2120925 C38.9513914,66.0203251 37.6848122,66.2120925 37.3798208,66.2120925" mask="url(#chad-b)"/>
    <path fill="#BA9479" d="M76.2948137,49.0551866 C76.8637893,48.8618171 77.2238841,48.7157085 77.8135234,48.7764269 C78.0187198,48.7975742 78.4899827,48.7523959 78.6653848,48.8640599 C78.8483156,48.9805302 79.005777,49.4031556 79.1241534,49.5905974 C78.5466881,49.5931607 77.9689024,49.595724 77.3914371,49.5984475 C76.68214,49.6016517 76.6380892,49.6928093 76.2948137,49.0551866" mask="url(#chad-b)"/>
    <path fill="#56413B" d="M80.0963774,49.8321251 C79.584748,49.7041199 79.1006703,49.4876806 78.581352,49.3750553 C78.333066,49.321386 76.6708309,49.3029623 76.749001,48.8877065 C77.9739322,48.9678098 79.1751561,49.0413447 80.3957623,49.2302284 C80.3714143,49.2148486 80.3469061,49.1994687 80.322558,49.1839287 C81.5205782,49.7757323 81.9452274,50.5762853 82.6513209,51.6549571 C82.2114542,51.3901354 81.7398709,51.1821871 81.2984023,50.9250553 C80.9147603,50.7014067 80.4870675,49.9298512 80.0963774,49.8321251 M82.573311,51.0706832 C82.4262616,50.0631432 82.0338095,49.3319597 81.0179191,49.0735463 C80.325121,48.8971587 79.2345846,48.7210915 78.4994977,48.6872879 C77.4635843,48.5842749 76.4106912,48.6034997 75.4092175,48.9187866 C74.7045657,49.1408331 73.5320148,49.3952413 73.4006635,50.2182233 C73.1416451,51.8430398 73.7295223,52.9550346 74.356805,54.3911276 C74.3531208,53.468337 74.4402612,52.5094997 74.3659355,51.5915152 C74.3427088,51.3069881 74.0687932,50.9088744 74.2020667,50.6405282 C74.4452269,50.1509364 75.6951469,49.8694532 76.1471877,49.7818202 C77.1470596,49.58797 78.2851708,49.5791587 79.2526854,49.9407452 C80.0202898,50.2276755 80.3339311,50.7847142 80.8856067,51.3125953 C81.4007602,51.8055514 82.4225774,51.9369209 83.1197005,52.1636134 C82.9374105,51.7993034 82.7554409,51.4349933 82.573311,51.0706832" mask="url(#chad-b)"/>
    <path fill="#CFA586" d="M74.8778693,57.017877 C74.7763123,56.0593602 74.6085991,55.1210295 74.4572247,54.175169 C74.3811371,53.7003163 74.4617099,53.1543318 74.3370863,52.6945385 C74.2203118,52.264063 73.8935353,51.8593809 73.714449,51.4494119 C73.5542644,51.0826987 73.4754536,50.6443731 73.2497536,50.3101819 C72.8500932,49.7185385 72.9590187,50.5295049 72.9713529,50.8830811 C73.0136416,52.100492 73.1703021,53.2432465 73.5571478,54.3933705 C73.9526434,55.568647 74.3623955,56.7391173 74.7731086,57.9089468 C74.8078687,57.6119235 74.8429491,57.3149003 74.8778693,57.017877" mask="url(#chad-b)"/>
    <path fill="#56413B" d="M51.2481501,51.6535473 C51.8001461,51.8744724 52.4000372,52.1077333 52.9526739,51.8153561 C53.4699098,51.541723 53.9155432,51.0950667 54.3877672,50.7520641 C55.1723511,50.181568 56.1896832,49.801077 57.0852749,49.4436558 C58.2490157,48.979537 59.6447036,48.6918057 60.8951041,48.7787979 C62.2268784,48.8712372 63.5655407,49.6471183 64.7252768,50.269201 C64.2274232,50.1842915 63.7295697,50.0992217 63.2318763,50.0143121 C63.5139613,50.2634336 63.7957259,50.5133561 64.076209,50.7645602 C64.1841734,50.8611649 64.75411,51.5260227 64.8878641,51.5170512 C64.7111805,51.5289065 64.2605814,51.1362398 64.1087265,51.0482863 C63.5812388,50.7427721 63.0455817,50.4484724 62.4955079,50.1857333 C61.3027738,49.6163587 60.3105907,49.538338 58.994034,49.6865292 C57.6100395,49.8424103 56.6036,50.2712837 55.455237,51.0388341 C54.9810908,51.3558832 54.5244046,51.6974439 54.0528213,52.0178574 C53.6864793,52.2668186 52.9906376,52.8193716 52.5230589,52.8193716 C52.4820517,52.8193716 52.7079119,52.4779711 52.7005434,52.4390408 C52.6747537,52.3022243 52.4690767,52.2716248 52.3346819,52.2052992 C51.9702621,52.0257075 51.6074441,51.8433922 51.2481501,51.6535473" mask="url(#chad-b)"/>
    <path fill="#AE6A62" d="M65.3193359,76.7270508 C65.3193359,76.7270508 68.4638672,77.2695312 69.6655273,77.2695312 C70.8671875,77.2695312 73.2626953,77.0126953 73.2626953,77.0126953 C73.2626953,77.0126953 71.565918,78.21875 69.6655273,78.21875 C67.7651367,78.21875 65.3193359,76.7270508 65.3193359,76.7270508 Z" mask="url(#chad-b)"/>
  </g>
</svg>
