<svg xmlns="http://www.w3.org/2000/svg" width="120" height="120" viewBox="0 0 120 120">
  <g fill="none" fill-rule="evenodd">
    <path fill="#7BCAEC" d="M119.783667,59.8916667 C119.783667,92.9683333 92.9686667,119.783333 59.892,119.783333 C26.8153333,119.783333 0.000333333333,92.9683333 0.000333333333,59.8916667 C0.000333333333,26.815 26.8153333,0 59.892,0 C92.9686667,0 119.783667,26.815 119.783667,59.8916667"/>
    <path fill="#FFFFFF" d="M41.546317,85.1316964 C41.546317,85.1316964 41.5597098,86.9882812 43.6623884,82.1283482 C45.765067,77.2684152 46.1484375,73.7829241 46.1484375,73.7829241 C46.1484375,73.7829241 41.203125,68.4107143 39.0904018,51.7399554 C36.9776786,35.0691964 40.2271205,28.1802455 40.2271205,28.1802455 L55.1350446,21.6294643 L80.0340402,33.6261161 L75.9977679,66.3080357 L73.4799107,73.7829241 C73.4799107,73.7829241 76.890067,82.9453125 78.4620536,84.0385045 C80.0340402,85.1316964 81.2611607,95.2064732 81.2611607,95.2064732 C81.2611607,95.2064732 67.6389509,100.973772 59.968192,100.973772 C52.297433,100.973772 41.546317,85.1316964 41.546317,85.1316964 Z"/>
    <path fill="#4E4B49" d="M40.2753333,35.2595 C41.202,32.5628333 49.1486667,27.6961667 52.3503333,25.8461667 C52.9553333,25.4861667 53.7903333,25.1195 54.2586667,25.5611667 C56.7503333,27.6161667 66.3036667,35.1995 70.317,34.8311667 C73.107,34.5711667 75.027,34.4745 76.1236667,34.4361667 C76.502,34.4361667 76.8786667,34.6028333 76.8336667,34.9478333 L76.067,40.1711667 L76.067,53.9011667 C76.067,61.2261667 74.877,65.1145 74.1686667,66.5645 C71.5503333,71.8245 65.7915737,77.2566964 59.1339126,77.2566964 C56.1809642,77.2566964 49.5253333,74.6518308 49.5253333,75.5995 C49.5253333,77.4517299 55.7829187,82.0086496 59.1339126,82.0086496 C64.0337612,82.0086496 71.1386667,77.3061905 74.1686667,72.6428571 C77.667,67.2495238 79.4053333,52.3445 79.4053333,52.3445 C82.0703333,47.3678333 83.3953333,41.5695 83.007,36.5178333 C82.6286667,31.4561667 77.9986667,15.8528333 68.772,13.7478333 C59.5236667,11.6178333 56.4436667,13.3195 56.4436667,13.3195 C56.4436667,13.3195 54.1453333,11.2145 49.5253333,12.8978333 C44.8953333,14.5795 34.1253333,24.7045 35.2803333,33.9795 C36.447,43.2645 38.367,55.0778333 39.122,52.9695 C39.9003333,50.8561667 39.122,38.6195 40.2753333,35.2595 Z"/>
    <path fill="#9012FE" d="M59.8918333,119.7835 C80.9285,119.7835 99.4185,108.9285 110.101833,92.5251667 L110.101833,91.6601667 C102.695167,88.1035 86.6435,84.6651667 84.5618333,83.8851667 C83.1318333,83.3885 80.8235,82.5035 79.0851667,81.8551667 C77.4851667,81.4968333 76.8335,81.5285 76.2485,82.4485 C74.4335,86.2585 68.7718333,96.3201667 59.8568333,96.3201667 C51.5251667,96.3201667 46.8151667,88.3835 44.9968333,84.4768333 C44.2218333,82.6301667 43.7301667,82.4485 41.6601667,82.9218333 C34.5368333,84.5468333 14.1068333,89.2468333 11.5451667,89.9835 C11.0085,90.1335 10.3801667,90.8918333 9.68183333,92.0168333 L9.68183333,92.5251667 C20.3651667,108.9285 38.8551667,119.7835 59.8918333,119.7835"/>
  </g>
</svg>
