<svg xmlns="http://www.w3.org/2000/svg" width="100" height="40" viewBox="0 0 100 40">
  <g fill="#191919" fill-rule="evenodd" transform="translate(9 7)">
    <path d="M40.2472938,7.23010705 C42.6885231,5.23099911 46.6142837,2.83206958 46.6142837,2.83206958 C46.6142837,2.83206958 42.1606897,4.23144514 39.0926583,5.76409456 C37.3442103,6.63037467 34.9689602,7.89647636 33.7153559,8.56284567 C34.4411268,9.36248885 35.4638039,10.0288582 36.6844186,10.4953167 C37.4431791,9.72899197 38.6967833,8.46289028 40.2472938,7.23010705 L40.2472938,7.23010705 L40.2472938,7.23010705 Z"/>
    <path d="M43.3483148,10.3953613 C43.810169,8.56284567 45.5256274,5.23099911 45.5256274,5.23099911 C45.5256274,5.23099911 43.645221,7.49665477 42.9194502,9.02930419 C42.6555335,9.59571811 42.2266689,10.5619536 41.8637835,11.3615968 C42.2926481,11.3615968 42.6885231,11.3282783 43.0843981,11.2949599 C43.0843981,11.2949599 46.2184087,11.1283675 48.8575755,8.89603033 C52.6183882,5.76409456 49.2864401,-0.099955397 41.4349188,0.0333184657 C32.4617517,0.199910794 32.4947413,5.46422837 32.4947413,5.69745763 C32.4947413,5.93068689 32.59371,6.73033006 32.7916476,7.19678858 C33.6163872,6.86360393 35.9916373,5.89736842 38.004002,5.13104371 C40.5112105,4.13148974 45.0637732,2.83206958 45.0637732,2.83206958 C45.0637732,2.83206958 41.6988355,3.13193577 38.3338978,3.96489741 C36.6184394,4.39803747 35.4308144,4.69790366 34.6060747,4.96445138 C34.6060747,4.96445138 35.3648352,1.0661909 42.4246064,1.03287244 C46.6142837,0.99955397 49.7153047,3.69834969 49.5173672,5.79741302 C49.1874713,9.7956289 43.3483148,10.3953613 43.3483148,10.3953613 L43.3483148,10.3953613 L43.3483148,10.3953613 Z"/>
    <path d="M46.1524295 3.69834969C46.1524295 3.69834969 42.8204814 6.16391615 40.4782209 8.49620874 39.5545125 9.42912578 38.8287416 10.3620428 38.3009083 11.0284121 38.9936896 11.1950045 39.75245 11.2949599 40.5112105 11.3615968 41.0060542 10.4953167 41.6658459 9.32917038 42.3256376 8.39625335 43.5462523 6.66369313 46.1524295 3.69834969 46.1524295 3.69834969L46.1524295 3.69834969 46.1524295 3.69834969zM29.8885641 19.6578947L24.3463138 19.6578947 24.3463138 15.7596343 23.4885846 15.7596343 23.4885846 24.8888938 24.3463138 24.8888938 24.3463138 20.4575379 29.8885641 20.4575379 29.8885641 24.8888938 30.7462933 24.8888938 30.7462933 15.7596343 29.8885641 15.7596343 29.8885641 19.6578947 29.8885641 19.6578947zM11.8762506 20.324264C11.8762506 23.0896967 13.9875841 25.0221677 16.69273 25.0221677 17.7813864 25.0221677 19.0349906 24.6556646 20.0576677 24.1225691L20.0576677 20.1576717 19.1999385 20.9239964 19.1999385 23.6561106C18.4741676 23.9892953 17.6164384 24.2225245 16.69273 24.2225245 14.3504695 24.2225245 12.7339798 22.4233274 12.7339798 20.324264 12.7339798 18.5250669 14.2185112 16.4260036 16.7916988 16.4260036 18.1112822 16.4260036 19.1669489 16.7925067 20.0576677 17.3256021L20.0576677 16.4260036C18.9030322 15.8595897 17.9793239 15.6263604 16.7916988 15.6263604 14.0535632 15.6263604 11.8762506 17.6587868 11.8762506 20.324264L11.8762506 20.324264 11.8762506 20.324264zM33.154533 16.5592774L36.1235956 16.5592774 36.1235956 24.8888938 37.0143144 24.8888938 37.0143144 16.5592774 39.9833771 16.5592774 39.9833771 15.7596343 33.154533 15.7596343 33.154533 16.5592774 33.154533 16.5592774zM1.08865631 15.7596343L.230927095 15.7596343.230927095 24.8888938 5.44328154 24.8888938 5.44328154 24.0892507 1.08865631 24.0892507 1.08865631 15.7596343 1.08865631 15.7596343zM7.91750042 24.8888938L8.77522963 24.8888938 8.77522963 15.7596343 7.91750042 15.7596343 7.91750042 24.8888938 7.91750042 24.8888938zM67.5296806 20.4575379L71.158535 20.4575379 71.158535 19.6578947 67.5296806 19.6578947 67.5296806 16.5592774 72.115233 16.5592774 72.115233 15.7596343 66.6719514 15.7596343 66.6719514 24.8888938 72.2471913 24.8888938 72.2471913 24.0892507 67.5296806 24.0892507 67.5296806 20.4575379 67.5296806 20.4575379zM59.0513573 20.4575379L62.6802116 20.4575379 62.6802116 19.6578947 59.0513573 19.6578947 59.0513573 16.5592774 63.6369096 16.5592774 63.6369096 15.7596343 58.1936281 15.7596343 58.1936281 24.8888938 63.7688679 24.8888938 63.7688679 24.0892507 59.0513573 24.0892507 59.0513573 20.4575379 59.0513573 20.4575379zM42.7215127 17.6254683C42.7215127 16.9257806 43.249346 16.3926851 44.0740857 16.3926851 44.7008878 16.3926851 45.2617107 16.7591882 45.558617 17.2589652L46.1854191 16.7591882C45.558617 15.8929081 44.7338774 15.6263604 44.1070752 15.6263604 42.6885231 15.6263604 41.8307939 16.5592774 41.8307939 17.6587868 41.8307939 19.9244425 45.8555232 20.4575379 45.8555232 22.4233274 45.8555232 23.2896075 45.2617107 24.255843 44.0410961 24.255843 43.0514085 24.255843 42.457596 23.6894291 42.061721 22.8564674L41.3359501 23.256289C41.7978043 24.1892061 42.5235752 25.0221677 44.0081065 25.0221677 45.5256274 25.0221677 46.746242 23.9226583 46.746242 22.3900089 46.746242 19.9910794 42.7215127 19.2913916 42.7215127 17.6254683L42.7215127 17.6254683 42.7215127 17.6254683zM77.8224312 15.7596343L75.1502748 15.7596343 75.1502748 24.8555754 77.8224312 24.8555754C80.5275772 24.8555754 82.7048898 22.9897413 82.7048898 20.324264 82.7048898 17.6921053 80.5275772 15.7596343 77.8224312 15.7596343L77.8224312 15.7596343 77.8224312 15.7596343zM80.857473 22.823149C80.0987125 23.6227921 78.9110875 24.0892507 77.5585145 24.0892507L76.008004 24.0892507 76.008004 24.0559322 76.0409936 24.0559322 76.0409936 16.5592774 76.008004 16.5592774 76.008004 16.5592774 76.0409936 16.5592774 76.0409936 16.525959 77.6904728 16.525959C80.0987125 16.525959 81.814171 18.2252007 81.814171 20.324264 81.814171 21.323818 81.4512855 22.1900981 80.857473 22.823149L80.857473 22.823149 80.857473 22.823149zM52.4534403 15.7596343L49.7153047 15.7596343 49.7153047 24.8888938 50.5730339 24.8888938 50.5730339 21.2571811 52.5194194 21.2571811C54.4658049 21.2571811 55.4554925 19.8578055 55.4554925 18.45843 55.4554925 17.1590098 54.5977633 15.7596343 52.4534403 15.7596343L52.4534403 15.7596343 52.4534403 15.7596343zM52.5194194 20.4908564L50.5730339 20.4908564 50.5730339 16.5592774 52.5194194 16.5592774C54.2018883 16.5592774 54.5647737 17.6921053 54.5647737 18.5250669 54.5647737 19.4579839 53.9379716 20.4908564 52.5194194 20.4908564L52.5194194 20.4908564 52.5194194 20.4908564z"/>
  </g>
</svg>
