<svg xmlns="http://www.w3.org/2000/svg" width="100" height="40" viewBox="0 0 100 40">
  <g fill="#191919" fill-rule="evenodd" transform="translate(24 6)">
    <path d="M51.6894695,0.333701222 L51.6894695,0.333701222 C51.0250804,0.333701222 50.4603497,0.867623177 50.4603497,1.53502562 C50.4603497,2.23579819 51.0250804,2.76972014 51.6894695,2.76972014 C52.3538585,2.76972014 52.8853698,2.23579819 52.8853698,1.53502562 C52.8853698,0.867623177 52.3538585,0.333701222 51.6894695,0.333701222 L51.6894695,0.333701222 L51.6894695,0.333701222 Z M51.6894695,2.53612929 C51.1579582,2.53612929 50.7593248,2.1023177 50.7593248,1.53502562 C50.7593248,1.00110367 51.1579582,0.567292077 51.65625,0.567292077 L51.6894695,0.567292077 C52.1877613,0.567292077 52.5863947,1.00110367 52.5863947,1.53502562 C52.5863947,2.1023177 52.1877613,2.53612929 51.6894695,2.53612929 L51.6894695,2.53612929 L51.6894695,2.53612929 Z"/>
    <path d="M51.9220056 1.60176587L51.9220056 1.56839574C52.0881029 1.53502562 52.1877613 1.43491525 52.1877613 1.26806464 52.1877613 1.13458415 52.1545418 1.03447379 52.0548834.967733544 51.9884445.900993299 51.8223473.867623177 51.6230305.867623177 51.3904944.867623177 51.290836.867623177 51.1911777.900993299L51.1911777 2.23579819 51.4569333 2.23579819 51.4569333 1.70187623 51.5898111 1.70187623C51.7226889 1.70187623 51.8223473 1.76861648 51.8555667 1.90209696 51.8555667 2.06894758 51.8887862 2.20242806 51.9220056 2.23579819L52.2209807 2.23579819C52.1877613 2.20242806 52.1877613 2.13568782 52.1545418 1.90209696 52.1213223 1.70187623 52.0548834 1.60176587 51.9220056 1.60176587L51.9220056 1.60176587 51.9220056 1.60176587zM51.5898111 1.46828538L51.4569333 1.46828538 51.4569333 1.06784391 51.6230305 1.06784391C51.8223473 1.06784391 51.8887862 1.16795428 51.8887862 1.26806464 51.8887862 1.43491525 51.7559084 1.46828538 51.5898111 1.46828538L51.5898111 1.46828538 51.5898111 1.46828538zM51.6894695 23.1588648C52.3538585 23.1588648 52.8853698 23.6927868 52.8853698 24.3601892 52.8853698 25.0609618 52.3538585 25.5948837 51.6894695 25.5948837 51.0250804 25.5948837 50.4603497 25.0609618 50.4603497 24.3601892 50.4603497 23.6927868 51.0250804 23.1588648 51.6894695 23.1588648L51.6894695 23.1588648 51.6894695 23.1588648zM51.65625 23.3924557C51.1579582 23.3924557 50.7593248 23.8262672 50.7593248 24.3601892 50.7593248 24.9274813 51.1579582 25.3612929 51.6894695 25.3612929 52.1877613 25.3612929 52.5863947 24.9274813 52.5863947 24.3601892 52.5863947 23.8262672 52.1877613 23.3924557 51.6894695 23.3924557L51.65625 23.3924557 51.65625 23.3924557zM51.4569333 25.0609618L51.1911777 25.0609618 51.1911777 23.7261569C51.290836 23.6927868 51.3904944 23.6927868 51.6230305 23.6927868 51.8223473 23.6927868 51.9884445 23.7261569 52.0548834 23.7928971 52.1545418 23.8596374 52.1877613 23.9597477 52.1877613 24.0932282 52.1877613 24.2600788 52.0881029 24.3601892 51.9220056 24.3935593L51.9220056 24.3935593C52.0548834 24.4269294 52.1213223 24.5270398 52.1545418 24.7272605 52.1545418 24.9608514 52.1877613 25.0275916 52.2209807 25.0609618L51.9220056 25.0609618C51.8887862 25.0275916 51.8887862 24.8941112 51.8555667 24.7272605 51.8223473 24.5937801 51.7226889 24.5270398 51.5898111 24.5270398L51.4569333 24.5270398 51.4569333 25.0609618 51.4569333 25.0609618zM51.4569333 24.293449L51.5898111 24.293449C51.7559084 24.293449 51.8887862 24.2267087 51.8887862 24.0932282 51.8887862 23.9931179 51.8223473 23.8930075 51.6230305 23.8930075L51.4569333 23.8930075 51.4569333 24.293449 51.4569333 24.293449zM38.5677854 13.6817501L48.9654743 13.6817501 48.9654743 11.6461726 38.5677854 11.6461726 38.5677854 13.6817501 38.5677854 13.6817501zM38.9664188 12.0466141L48.5668408 12.0466141 48.5668408 13.2813086 38.9664188 13.2813086 38.9664188 12.0466141 38.9664188 12.0466141zM38.5677854 16.7184312L48.9654743 16.7184312 48.9654743 14.6494836 38.5677854 14.6494836 38.5677854 16.7184312 38.5677854 16.7184312zM38.9664188 15.0832952L48.5668408 15.0832952 48.5668408 16.3179898 38.9664188 16.3179898 38.9664188 15.0832952 38.9664188 15.0832952zM38.5677854 19.7217422L48.9654743 19.7217422 48.9654743 17.6861648 38.5677854 17.6861648 38.5677854 19.7217422 38.5677854 19.7217422zM38.9664188 18.0866062L48.5668408 18.0866062 48.5668408 19.3213007 38.9664188 19.3213007 38.9664188 18.0866062 38.9664188 18.0866062z"/>
    <path d="M38.5677854,0.233590855 L29.6981913,9.1767836 L29.6981913,0.233590855 L19.3005024,0.233590855 L0.0664389068,19.7217422 L10.4641278,19.7217422 L19.3005024,10.6784391 L29.2995579,10.6784391 L29.2995579,11.6461726 L19.3005024,11.6461726 L19.3005024,13.6817501 L29.2995579,13.6817501 L29.2995579,14.6494836 L19.3005024,14.6494836 L19.3005024,16.7184312 L29.2995579,16.7184312 L29.2995579,17.6861648 L19.3005024,17.6861648 L19.3005024,19.7217422 L19.3005024,19.7217422 L19.3005024,19.7217422 L29.6981913,19.7217422 L29.6981913,19.7217422 L29.6981913,19.7217422 L38.5345659,10.6784391 L48.9654743,10.6784391 L48.9654743,0.233590855 L38.5677854,0.233590855 L38.5677854,0.233590855 Z M29.2995579,19.3213007 L19.6991359,19.3213007 L19.6991359,18.0866062 L29.2995579,18.0866062 L29.2995579,19.3213007 L29.2995579,19.3213007 Z M29.2995579,16.3179898 L19.6991359,16.3179898 L19.6991359,15.0832952 L29.2995579,15.0832952 L29.2995579,16.3179898 L29.2995579,16.3179898 Z M29.2995579,13.2813086 L19.6991359,13.2813086 L19.6991359,12.0466141 L29.2995579,12.0466141 L29.2995579,13.2813086 L29.2995579,13.2813086 Z M29.2995579,10.2779976 L19.6991359,10.2779976 L19.6991359,0.634032322 L29.2995579,0.634032322 L29.2995579,10.2779976 L29.2995579,10.2779976 Z M48.5668408,10.2779976 L38.9664188,10.2779976 L38.9664188,0.634032322 L48.5668408,0.634032322 L48.5668408,10.2779976 L48.5668408,10.2779976 Z"/>
    <polygon points=".066 23.726 1.661 23.726 2.757 26.896 2.757 26.896 3.887 23.726 5.481 23.726 5.481 28.598 4.418 28.598 4.418 24.861 4.418 24.861 3.156 28.598 2.325 28.598 1.129 24.861 1.096 24.861 1.096 28.598 .066 28.598"/>
    <path d="M11.8261254 26.6627276L10.6634445 26.6627276 11.2613947 25.1610721 11.8261254 26.6627276 11.8261254 26.6627276zM8.76993569 28.5981947L9.93261656 28.5981947 10.33125 27.5637209 12.1915394 27.5637209 12.6233923 28.5981947 13.8192926 28.5981947 11.726467 23.7261569 10.8627613 23.7261569 8.76993569 28.5981947 8.76993569 28.5981947zM18.0049437 24.6271502L18.7025523 24.6271502C19.1011857 24.6271502 19.5330386 24.7272605 19.5330386 25.1944423 19.5330386 25.7283642 19.0347468 25.7283642 18.6361133 25.7283642L18.0049437 25.7283642 18.0049437 24.6271502 18.0049437 24.6271502zM16.9419212 28.5981947L18.0049437 28.5981947 18.0049437 26.6627276 18.536455 26.6627276 19.5330386 28.5981947 20.7953778 28.5981947 19.566258 26.5292471C20.2638666 26.4291368 20.6292805 25.8952148 20.6292805 25.1944423 20.6292805 24.0598581 19.7987942 23.7261569 18.8022106 23.7261569L16.9419212 23.7261569 16.9419212 28.5981947 16.9419212 28.5981947z"/>
    <polygon points="23.652 23.726 24.848 23.726 26.044 26.93 26.077 26.93 27.273 23.726 28.403 23.726 26.409 28.598 25.579 28.598"/>
    <polygon points="31.758 23.726 35.013 23.726 35.013 24.727 32.821 24.727 32.821 25.628 34.914 25.628 34.914 26.629 32.821 26.629 32.821 27.597 35.146 27.597 35.146 28.598 31.758 28.598"/>
    <polygon points="39.265 23.726 40.328 23.726 40.328 27.597 42.288 27.597 42.288 28.598 39.265 28.598"/>
    <polygon points="45.943 23.726 47.006 23.726 47.006 27.597 48.965 27.597 48.965 28.598 45.943 28.598"/>
  </g>
</svg>
