<svg xmlns="http://www.w3.org/2000/svg" width="100" height="40" viewBox="0 0 100 40">
  <path fill="#191919" fill-rule="evenodd" d="M18.9292605,9.70826048 L17.9175241,16.5496521 L15.8287781,16.5496521 L17.0689711,8.56802855 L20.5937299,8.56802855 L21.9644695,16.5496521 L19.7125402,16.5496521 C19.5493569,14.4972346 19.1250804,11.8258341 18.9292605,9.70826048 L18.9292605,9.70826048 Z M31.2659164,8.56802855 L31.2659164,16.5496521 L29.5361736,16.5496521 L29.5361736,10.2946655 L28.2959807,16.5496521 L26.7620579,16.5496521 L25.423955,10.4249777 L25.423955,16.5496521 L23.7594855,16.5496521 L23.7594855,8.56802855 L26.4030547,8.56802855 L27.5453376,13.7153613 L28.6549839,8.56802855 L31.2659164,8.56802855 L31.2659164,8.56802855 Z M38.7397106,10.5552899 L36.4877814,10.5552899 L36.4877814,10.1969313 C36.4877814,9.90372881 36.4551447,9.93630687 36.3898714,9.8385727 C36.3245981,9.77341659 36.2266881,9.74083854 36.0961415,9.74083854 C35.9329582,9.74083854 35.8350482,9.77341659 35.7697749,9.90372881 C35.7045016,10.001463 35.6392283,10.1317752 35.6392283,10.3598216 C35.6392283,10.620446 35.7045016,10.8159144 35.7697749,10.9462266 C35.8676849,11.1091169 36.0961415,11.2720071 36.4877814,11.4674755 C37.564791,11.9887244 38.2501608,12.4448171 38.511254,12.8031757 C38.8049839,13.1615343 38.9355305,13.7153613 38.9355305,14.5298127 C38.9355305,15.0836396 38.8702572,15.5071543 38.707074,15.7677788 C38.5438907,16.0284032 38.2501608,16.2564496 37.7932476,16.4519179 C37.3363344,16.6148082 36.8467846,16.7125424 36.2593248,16.7125424 C35.6065916,16.7125424 35.0191318,16.6148082 34.5622186,16.4193399 C34.1053055,16.1912935 33.8115756,15.930669 33.6810289,15.6048885 C33.5178457,15.2791079 33.4525723,15.311686 33.4525723,14.725281 L33.4525723,14.2040321 L35.7045016,14.2040321 L35.7045016,14.6601249 C35.7045016,14.9533274 35.7371383,15.1487957 35.8024116,15.2465299 C35.8676849,15.311686 35.9655949,15.3768421 36.1614148,15.3768421 C36.2919614,15.3768421 36.422508,15.311686 36.520418,15.2139518 C36.5856913,15.1162177 36.618328,14.9207493 36.618328,14.725281 C36.618328,14.2366102 36.5530547,13.9434077 36.3898714,13.8130955 C36.2593248,13.6502052 35.8676849,13.4221588 35.2475884,13.0638002 C34.6601286,12.7380196 34.2358521,12.4773952 34.0726688,12.3145049 C33.8768489,12.1516146 33.7136656,11.9561463 33.5504823,11.6955219 C33.4525723,11.4023194 33.387299,11.0765388 33.387299,10.620446 C33.387299,10.034041 33.485209,9.57794826 33.6483923,9.28474576 C33.8442122,9.02412132 34.1379421,8.76349688 34.529582,8.63318466 C34.9538585,8.47029438 35.4434084,8.40513827 36.0308682,8.40513827 C36.6509646,8.40513827 37.2057878,8.47029438 37.6300643,8.66576271 C38.0869775,8.82865299 38.3807074,9.05669938 38.511254,9.31732382 C38.6418006,9.57794826 38.7397106,9.61052632 38.7397106,10.2295094 L38.7397106,10.5552899 L38.7397106,10.5552899 Z M46.572508,8.56802855 L46.572508,13.9108296 C46.572508,14.5298127 46.5398714,14.9207493 46.5072347,15.1813738 C46.4419614,15.4419982 46.3114148,15.6700446 46.0829582,15.930669 C45.8545016,16.1912935 45.5607717,16.3867618 45.1691318,16.517074 C44.8101286,16.6473863 44.3858521,16.7125424 43.8636656,16.7125424 C43.3414791,16.7125424 42.8192926,16.6473863 42.4276527,16.484496 C41.9707395,16.3216057 41.6770096,16.1261374 41.4485531,15.8655129 C41.2527331,15.6048885 41.1221865,15.344264 41.0569132,15.0510616 C41.0569132,14.7904371 41.0242765,14.2040321 41.0242765,13.2918466 L41.0242765,8.56802855 L43.0477492,8.56802855 L43.0477492,14.4646566 C43.0477492,15.0184835 43.1456592,15.3768421 43.7983923,15.3768421 C44.3858521,15.3768421 44.6143087,15.0510616 44.6143087,14.4646566 L44.6143087,8.56802855 L46.572508,8.56802855 L46.572508,8.56802855 Z M54.6011254,8.56802855 L54.6011254,16.5496521 L53.0672026,16.5496521 L50.1299035,11.8258341 L50.1299035,16.5496521 L48.5959807,16.5496521 L48.5959807,8.56802855 L50.0646302,8.56802855 L53.1651125,13.519893 L53.1651125,8.56802855 L54.6011254,8.56802855 L54.6011254,8.56802855 Z M38.6744373,22.6091704 C46.4419614,21.1105798 53.3935691,18.9930062 58.7786174,16.6148082 C58.4196141,16.6148082 58.0606109,16.5822302 57.766881,16.484496 C57.4078778,16.2890277 57.1467846,16.0935593 56.9509646,15.8329349 C56.7877814,15.5723104 56.6572347,15.311686 56.6245981,15.0510616 C56.5593248,14.7904371 56.5266881,14.3669224 56.5266881,13.8130955 L56.5266881,11.4348974 C56.5266881,10.6856021 56.5919614,10.1317752 56.6898714,9.77341659 C56.7877814,9.41505798 57.0815113,9.08927743 57.5057878,8.82865299 C57.962701,8.53545049 58.5501608,8.40513827 59.3008039,8.40513827 C60.0514469,8.40513827 61.1284566,8.95896521 61.3895498,9.64310437 C61.6180064,10.1643533 61.6180064,10.4249777 61.6180064,10.9136485 L59.757717,10.9136485 C59.757717,10.587868 59.8229904,10.2295094 59.6924437,9.90372881 C59.4966238,9.41505798 58.7786174,9.44763604 58.5175241,9.87115076 C58.4848875,10.001463 58.4522508,10.2295094 58.4522508,10.6530241 L58.4522508,14.4972346 C58.4522508,14.8555932 58.4848875,15.0836396 58.5175241,15.2139518 C58.6807074,15.5397324 59.5618971,15.5071543 59.757717,15.1813738 C59.8229904,15.0510616 59.855627,14.7904371 59.855627,14.4320785 L59.855627,13.0963782 L59.3334405,13.0963782 L59.3334405,11.8909902 L61.6180064,11.8909902 L61.6506431,14.2691882 C61.6180064,14.7578591 61.4548232,15.1487957 61.1610932,15.5071543 C67.6884244,12.2493488 71.2784566,8.66576271 70.3319936,5.66858162 C68.5043408,0.0651561106 51.3374598,-1.49859054 32.1144695,2.21530776 C24.1837621,3.74647636 17.1016077,5.96178412 11.6512862,8.40513827 C12.140836,8.40513827 12.5977492,8.50287244 12.9893891,8.66576271 C13.4136656,8.82865299 13.7073955,9.05669938 13.8705788,9.31732382 C14.0011254,9.57794826 14.0663987,9.77341659 14.0663987,10.4249777 L14.0663987,10.5552899 L11.8144695,10.5552899 L11.8144695,10.3923996 C11.8144695,10.0991971 11.7818328,9.93630687 11.7165595,9.8385727 C11.6512862,9.77341659 11.5860129,9.74083854 11.4228296,9.74083854 C11.292283,9.74083854 11.194373,9.77341659 11.096463,9.90372881 C11.0311897,10.001463 10.9985531,10.1317752 10.9985531,10.3598216 C10.9985531,10.620446 11.0311897,10.8159144 11.1290997,10.9462266 C11.194373,11.1091169 11.4228296,11.2720071 11.8144695,11.4674755 C12.8914791,11.9887244 13.5768489,12.4448171 13.8379421,12.8031757 C14.131672,13.1615343 14.2622186,13.7153613 14.2622186,14.5298127 C14.2622186,15.0836396 14.1969453,15.5071543 14.0337621,15.7677788 C13.8705788,16.0284032 13.5768489,16.2564496 13.1199357,16.4519179 C12.6956592,16.6148082 12.1734727,16.7125424 11.5860129,16.7125424 C10.9006431,16.7125424 10.3784566,16.6148082 9.88890675,16.4193399 C9.46463023,16.1912935 9.13826367,15.930669 9.00771704,15.6048885 C8.84453376,15.2791079 8.77926045,15.0184835 8.77926045,14.4320785 L8.77926045,14.138876 L11.0311897,14.138876 L11.0311897,14.6601249 C11.0311897,14.9533274 11.0638264,15.1487957 11.1290997,15.2465299 C11.2270096,15.311686 11.3249196,15.3768421 11.4881029,15.3768421 C11.6512862,15.3768421 11.7491961,15.311686 11.8471061,15.2139518 C11.9450161,15.1162177 11.9450161,14.9207493 11.9450161,14.725281 C11.9450161,14.2366102 11.8797428,13.9434077 11.7491961,13.8130955 C11.5860129,13.6502052 11.194373,13.4221588 10.6069132,13.0638002 C9.98681672,12.7380196 9.59517685,12.4773952 9.39935691,12.3145049 C9.20353698,12.1516146 9.0403537,11.9561463 8.90980707,11.6955219 C8.77926045,11.4023194 8.71398714,11.0765388 8.71398714,10.620446 C8.71398714,10.2946655 8.74662379,10.001463 8.81189711,9.77341659 C2.80675241,12.9009099 -0.456913183,16.2890277 0.456913183,19.1558965 C2.28456592,24.759322 19.4514469,26.3230687 38.6744373,22.6091704 L38.6744373,22.6091704 Z" transform="translate(15 8)"/>
</svg>
