<svg xmlns="http://www.w3.org/2000/svg" width="100" height="40" viewBox="0 0 100 40">
  <g fill="#191919" fill-rule="evenodd" transform="translate(8 9)">
    <polygon points="23.465 1.605 14.703 1.605 14.703 .468 24.975 .468"/>
    <path d="M14.7032797 1.6049521C14.7032797 1.6049521 7.51948553 1.6049521 8.32514469 6.68730042 8.32514469 6.68730042 8.45942122 7.02166544 8.2244373 7.05510194 7.11665595 7.18884795 5.67318328 5.21609433 6.88167203 3.31021371 8.79511254.300928519 14.7032797.468111029 14.7032797.468111029L14.7032797.468111029M24.9754341.468111029C24.9754341.468111029 25.713955.468111029 26.2510611.200619013 26.5867524.0668730042 26.5196141.334365021 26.486045.434674527 26.4524759.501547531 25.9489389 1.6049521 23.4648232 1.6049521L23.4648232 1.6049521M18.7651447 1.27058708C17.9259164 1.6718251 15.7439228 2.90897568 14.501865 5.68420535 13.2933762 8.49287153 10.8428296 16.25014 9.19794212 17.5541636 9.19794212 17.5541636 8.9629582 17.7213461 9.36578778 17.7882191 9.73504823 17.8885286 12.3534405 18.1894571 13.6626367 14.5783149 14.9718328 10.9671727 16.9859807 5.51702284 17.4559486 4.51392778 17.8923473 3.51083272 18.8994212 1.6718251 20.4100322 1.20371408L20.4100322 1.20371408M22.0884887 12.9399263C20.5443087 14.0098944 19.3022508 13.8761484 19.2015434 12.8396168 19.0672669 11.8365217 19.5372347 10.4321887 19.5372347 10.4321887L19.3358199 11.3015377C21.0478457 10.9671727 25.9153698 7.22228445 24.6061736 5.41671334 23.4983923 3.84519774 19.9736334 5.61733235 18.0937621 8.55974453 16.3817363 11.2346647 16.1131833 14.7120609 18.832283 14.8458069 21.5849518 14.9795529 23.8676527 12.2711963 23.8676527 12.2711963L24.9754341 9.5962761C24.9754341 9.5962761 24.2033441 11.4352837 22.0884887 12.9399263L22.0884887 12.9399263zM22.9948553 5.95169737C24.2033441 6.65386392 21.2492605 9.79689511 19.5708039 10.4321887 19.9736334 8.32568902 21.8535048 5.45014984 22.9948553 5.95169737L22.9948553 5.95169737zM33.4348553 12.9399263C32.09209 13.8761484 30.3800643 14.0767674 30.3800643 12.6055613 30.3800643 12.1374503 30.4136334 11.6693392 30.5143408 11.3015377 32.2263666 10.9671727 37.0938907 7.22228445 35.7846945 5.41671334 34.6769132 3.84519774 31.1521543 5.61733235 29.2387138 8.55974453 27.5602572 11.2346647 27.258135 14.6451879 30.0108039 14.8458069 33.0655949 15.0464259 35.5832797 12.2711963 35.5832797 12.2711963L36.5232154 9.86376812C36.5232154 9.86376812 35.5832797 11.5021567 33.4348553 12.9399263L33.4348553 12.9399263zM34.1398071 5.95169737C35.381865 6.65386392 32.4277814 9.79689511 30.7157556 10.4321887 31.1185852 8.32568902 33.0320257 5.45014984 34.1398071 5.95169737L34.1398071 5.95169737zM30.6821865 10.4321887L30.5143408 11.1677917C30.6150482 10.7331172 30.6821865 10.4321887 30.6821865 10.4321887L30.6821865 10.4321887z"/>
    <path d="M25.5796785 14.8458069C25.5796785 15.4811005 25.7475241 15.5479735 25.6468167 15.7485925 25.5125402 16.049521 25.0425723 15.782029 25.0425723 15.782029 22.927717 14.6786244 23.8676527 12.2711963 23.8676527 12.2711963 24.4047588 10.4321887 27.6945338 3.37708671 28.0973633 2.64148366 28.4666238 1.83900761 28.8023151 1.83900761 28.9701608 1.77213461 29.1380064 1.70526161 30.1115113 1.6049521 30.4807717 1.50464259 30.7493248 1.47120609 30.9171704 1.43776959 30.7157556 1.90588062 30.5143408 2.37399165 27.1909968 9.69658561 27.1909968 9.69658561 27.1909968 9.69658561 25.5796785 13.3746008 25.5796785 14.8458069L25.5796785 14.8458069zM47.3324759 4.11268976C47.4667524 4.04581675 49.6151768 2.84210268 49.145209 1.5715156 48.7088103.267492017 45.9561415.300928519 45.2511897.367801523 44.5462379.401238025 40.5179421.434674527 38.2688103 5.34984033 36.5567846 9.19503807 34.4419293 16.2835765 33.1327331 17.3869811 33.1327331 17.3869811 32.9313183 17.5541636 32.8977492 17.6544731 32.8977492 17.6544731 32.8977492 17.8216556 33.2670096 17.8216556 33.6362701 17.7882191 35.6168489 17.8550921 36.6910611 15.247045 37.7988424 12.6055613 40.2493891 5.81795136 40.484373 5.24953083 40.6857878 4.68111029 42.4313826.936222058 45.4861736 1.00309506 48.6081029 1.10340457 47.7353055 3.07615819 47.1981994 3.77832474 46.9296463 4.14612626 47.2317685 4.14612626 47.3324759 4.11268976L47.3324759 4.11268976z"/>
    <path d="M44.5798071 5.95169737C42.4985209 6.3863719 38.0338264 6.21918939 37.429582 6.25262589 36.7581994 6.25262589 36.6910611 6.48668141 36.5903537 6.3529354 36.5232154 6.21918939 36.6910611 6.05200688 36.6910611 6.05200688 37.4967203 5.14922132 39.2758842 5.31640383 39.2758842 5.31640383 41.4243087 5.34984033 46.3589711 5.21609433 46.3589711 5.21609433L46.1239871 5.75107836C46.1239871 5.75107836 44.6469453 5.78451486 43.035627 8.99441906 41.6257235 11.7362122 41.76 13.4749103 42.53209 13.6755294 43.035627 13.8092754 44.3783923 13.7424024 45.8554341 9.99751412 45.8554341 9.99751412 46.4596785 8.52630803 46.4596785 6.65386392 46.4596785 6.65386392 46.2582637 6.31949889 46.9296463 6.21918939 46.9296463 6.21918939 49.7158842 5.58389585 50.6893891 5.31640383 51.6628939 5.04891182 52.97209 4.94860231 52.4014148 6.65386392 51.7971704 8.35912552 51.4950482 8.89410956 51.4950482 8.89410956 51.4950482 8.89410956 53.1063666 6.52011791 54.751254 5.55045935 55.3219293 5.18265782 56.6646945 4.7479833 57.4703537 5.58389585 58.2760129 6.4532449 56.8325402 8.59318104 56.6646945 9.02785556 56.530418 9.49596659 54.1470096 13.6755294 54.5834084 15.313918 54.5834084 15.313918 54.7176849 15.648283 54.6505466 15.848902 54.5834084 16.049521 52.0321543 15.447664 52.7371061 12.6389978 53.475627 9.83033161 55.7918971 6.98822894 55.0869453 6.55355441 54.3819936 6.15231638 51.3272026 9.5962761 49.2459164 14.6786244L47.1981994 14.6786244 50.0515756 7.59008597C50.0515756 7.59008597 50.6893891 6.11887988 49.7494534 6.31949889 48.9102251 6.48668141 48.2388424 6.58699091 48.2388424 6.58699091 48.2388424 6.58699091 48.1045659 8.82723655 46.4261093 11.6024662 44.5462379 14.7789339 41.1893248 15.8154655 40.0144051 13.9430214 38.8394855 12.0371408 40.7864952 7.45633997 43.7070096 6.08544338L43.7070096 6.08544338M62.6064309 5.18265782L60.7265595 5.48358634C60.7265595 5.48358634 60.088746 5.55045935 59.7866238 6.15231638 59.4509325 6.78760992 57.3360772 11.1343552 56.9668167 12.6055613 56.6311254 14.0767674 57.302508 15.2136085 59.2159486 14.8458069 61.0958199 14.4780054 62.2371704 12.7058708 62.2371704 12.7058708L61.9350482 12.1040138C61.9350482 12.1040138 60.4915756 13.7424024 59.6187781 13.5752198 58.7124116 13.4080373 59.5516399 11.6693392 59.5516399 11.6693392L62.6064309 5.18265782 62.6064309 5.18265782zM62.0021865 2.00619013C61.632926 2.57461066 61.7000643 3.2767772 62.136463 3.54426922 62.6064309 3.84519774 63.2778135 3.64457873 63.647074 3.07615819 64.0499035 2.50773766 63.9827653 1.80557111 63.5127974 1.50464259 63.0763987 1.20371408 62.4050161 1.43776959 62.0021865 2.00619013L62.0021865 2.00619013z"/>
    <path d="M68.5817363,11.0674822 C68.5817363,11.0674822 66.9032797,13.6420929 64.9898392,13.6086563 C63.0763987,13.6086563 65.3590997,8.69349054 65.3590997,8.69349054 C65.3590997,8.69349054 67.1382637,5.28296733 68.6824437,5.98513387 C68.6824437,5.98513387 69.4209646,6.3863719 68.1789068,7.72383198 C68.1789068,7.72383198 68.0781994,7.82414149 68.1453376,7.9578875 C68.2124759,8.09163351 69.6895177,7.82414149 70.3273312,6.58699091 C70.9315756,5.38327684 68.7160129,3.94550725 65.3926688,6.11887988 C64.419164,6.75417342 61.9350482,9.19503807 61.7672026,12.6055613 C61.5993569,16.0160845 66.1647588,15.380791 68.2124759,12.6389978 L68.2124759,12.6389978"/>
    <path d="M78.2496463 5.61733235C77.1082958 4.94860231 73.8856592 4.58080079 71.3679743 6.88791943 68.8502894 9.19503807 67.2725402 13.1071088 68.4810289 14.3442594 69.6559486 15.5479735 72.1736334 14.5783149 73.583537 12.4049423 73.583537 12.4049423 72.8114469 14.8458069 74.2549196 15.6148465 75.3962701 16.2167035 75.1612862 15.782029 75.1612862 15.2136085 75.127717 14.2105134 75.2284244 12.5721248 76.5376206 9.5294031 77.9475241 6.31949889 78.2496463 5.61733235 78.2496463 5.61733235L78.2496463 5.61733235zM73.9863666 10.1646966C72.4757556 13.4414738 68.8838585 15.2804815 71.032283 10.6328077 73.1471383 5.95169737 75.0270096 5.98513387 75.9669453 5.98513387 75.9669453 5.98513387 75.4634084 6.88791943 73.9863666 10.1646966L73.9863666 10.1646966zM0 22.2352739C0 22.2352739 39.6115756 21.0984328 83.9228296 22.2352739 83.9228296 22.2352739 51.3272026 23.7399165 0 22.2352739L0 22.2352739z"/>
  </g>
</svg>
