<svg xmlns="http://www.w3.org/2000/svg" width="100" height="40" viewBox="0 0 100 40">
  <g fill="#3D3D3D" fill-rule="evenodd" transform="translate(33 4)">
    <path d="M12.7648352.140659341C16.9142857-.0351648352 20.2901099 1.68791209 22.3296703 3.72747253 24.4747253 5.87252747 25.9164835 8.96703297 26.0571429 13.1516484 26.1626374 17.3714286 24.5802198 20.5714286 22.5054945 22.7868132 20.3252747 25.1076923 17.2659341 26.6549451 13.3978022 26.8307692 9.31868132 27.0065934 5.97802198 25.2131868 3.93846154 23.1384615 1.65274725 20.8879121.281318681 17.8285714.105494505 13.8197802-.0703296703 9.45934066 1.51208791 6.22417582 3.44615385 4.11428571 5.62637363 1.75824176 8.36923077.351648352 12.7648352.140659341L12.7648352.140659341zM6.96263736 7.20879121C5.83736264 8.82637363 5.02857143 11.1472527 5.0989011 13.9604396 5.2043956 18.8483516 8.01758242 22.9978022 13.1164835 22.9978022 18.2153846 22.9978022 20.9230769 18.7076923 21.0637363 13.7494505 21.1340659 11.2527473 20.2197802 8.61538462 19.1296703 7.13846154 17.7582418 5.23956044 15.6131868 3.65714286 12.3428571 3.97362637 9.70549451 4.21978022 8.01758242 5.66153846 6.96263736 7.20879121L6.96263736 7.20879121zM28.5186813 30.0307692L33.0549451 30.0307692 33.0549451 31.789011 25.5648352 31.789011 25.5648352 29.9604396C25.5648352 29.9604396 26.5494505 29.0461538 26.9714286 28.6241758 27.4285714 28.167033 27.956044 27.6043956 28.3076923 27.2175824 29.1516484 26.3736264 30.3120879 25.178022 30.4527473 23.9472527 30.7692308 21.3450549 27.0769231 22.0131868 25.9868132 22.9626374 25.9868132 22.3296703 25.8813187 21.8021978 25.8461538 21.2043956 27.1824176 20.2197802 30.4175824 19.9384615 31.7538462 21.0989011 32.3868132 21.6615385 32.7384615 22.5054945 32.7384615 23.5604396 32.7384615 26.5142857 29.8901099 28.3076923 28.5186813 30.0307692L28.5186813 30.0307692z"/>
  </g>
</svg>
