<svg xmlns="http://www.w3.org/2000/svg" width="100" height="40" viewBox="0 0 100 40">
  <g fill="#191919" fill-rule="evenodd" transform="translate(14 13)">
    <polygon points="60.024 10.534 64.892 10.534 65.709 12.497 59.113 12.497 58.045 14.741 55.124 14.741 62.348 0 64.39 0 71.614 14.741 68.693 14.741 63.353 3.366"/>
    <polygon points="4.869 10.534 9.768 10.534 10.554 12.497 3.958 12.497 2.89 14.741 0 14.741 7.224 0 9.234 0 16.459 14.741 13.538 14.741 8.229 3.366"/>
    <polygon points="32.352 10.534 37.221 10.534 38.006 12.497 31.41 12.497 30.373 14.741 27.452 14.741 34.676 0 36.687 0 43.911 14.741 41.021 14.741 35.681 3.366"/>
    <polygon points="13.726 0 20.95 14.741 21.076 14.741 22.835 14.741 22.961 14.741 30.185 0 27.295 0 21.955 11.594 16.647 0"/>
    <polygon points="47.963 20.258 57.92 0 55.03 0 49.47 11.812 44.382 0 41.461 0 48.025 14.741 45.167 20.258"/>
  </g>
</svg>
