<svg xmlns="http://www.w3.org/2000/svg" width="100" height="40" viewBox="0 0 100 40">
  <g fill="#191919" fill-rule="evenodd" transform="translate(12 12)">
    <polygon points=".151 .121 7.772 .121 7.772 7.706 .151 7.706"/>
    <polygon points="8.585 8.552 16.207 8.552 16.207 16.137 8.585 16.137"/>
    <polygon points="8.585 .121 16.207 .121 16.207 7.706 8.585 7.706"/>
    <g transform="translate(20.786 2.418)">
      <polygon points=".241 .907 .241 10.516 1.868 10.516 1.868 3.082 4.88 10.516 5.422 10.516 5.513 10.516 6.055 10.516 9.097 3.082 9.097 10.516 10.694 10.516 10.694 .907 9.971 .907 9.097 .907 8.284 .907 5.483 7.918 2.681 .907 1.868 .907 .964 .907"/>
      <polygon points="12.261 3.626 13.857 3.626 13.857 10.516 12.261 10.516"/>
      <path d="M13.0437331.664833647L13.0437331.664833647C13.6160909.664833647 14.0378283 1.11812932 14.0378283 1.63186441L14.0378283 1.63186441C14.0378283 2.1455995 13.6160909 2.56867546 13.0437331 2.56867546L13.0437331 2.56867546C12.5014994 2.56867546 12.049638 2.1455995 12.049638 1.63186441L12.049638 1.63186441C12.049638 1.11812932 12.5014994.664833647 13.0437331.664833647L13.0437331.664833647zM28.858883 3.47526679C27.1116855 3.47526679 25.7259771 4.92581293 25.7259771 6.76921532L25.7259771 7.37360954C25.7259771 9.21701193 27.1116855 10.6675581 28.858883 10.6675581L29.7023577 10.6675581C31.4495552 10.6675581 32.8352636 9.21701193 32.8352636 7.37360954L32.8352636 6.76921532C32.8352636 4.92581293 31.4495552 3.47526679 29.7023577 3.47526679L28.858883 3.47526679 28.858883 3.47526679zM29.0998758 4.80493409L29.4312408 4.80493409C30.3650878 4.80493409 31.1483142 5.651086 31.1483142 6.70877589L31.1483142 7.43404896C31.1483142 8.49173886 30.3650878 9.33789077 29.4312408 9.33789077L29.0998758 9.33789077C28.1660288 9.33789077 27.4129265 8.49173886 27.4129265 7.43404896L27.4129265 6.70877589C27.4129265 5.651086 28.1660288 4.80493409 29.0998758 4.80493409L29.0998758 4.80493409zM42.0231125 3.47526679C40.3060391 3.47526679 38.8902067 4.92581293 38.8902067 6.76921532L38.8902067 7.37360954C38.8902067 9.21701193 40.3060391 10.6675581 42.0231125 10.6675581L42.8967113 10.6675581C44.6137847 10.6675581 46.0296172 9.21701193 46.0296172 7.37360954L46.0296172 6.76921532C46.0296172 4.92581293 44.6137847 3.47526679 42.8967113 3.47526679L42.0231125 3.47526679 42.0231125 3.47526679zM42.2942294 4.80493409L42.6255944 4.80493409C43.5594414 4.80493409 44.3125438 5.651086 44.3125438 6.70877589L44.3125438 7.43404896C44.3125438 8.49173886 43.5594414 9.33789077 42.6255944 9.33789077L42.2942294 9.33789077C41.3603825 9.33789077 40.6072801 8.49173886 40.6072801 7.43404896L40.6072801 6.70877589C40.6072801 5.651086 41.3603825 4.80493409 42.2942294 4.80493409L42.2942294 4.80493409zM18.4660702 3.47526679C16.5381282 3.47526679 15.0017993 4.92581293 15.0017993 6.76921532L15.0017993 7.37360954C15.0017993 9.21701193 16.5381282 10.6675581 18.4660702 10.6675581 19.1288003 10.6675581 19.7915304 10.4862398 20.3940123 10.2142624L20.3940123 8.70327684C19.9421509 9.09613308 19.339669 9.33789077 18.7371871 9.33789077 17.7129679 9.33789077 16.7188727 8.49173886 16.7188727 7.43404896L16.7188727 6.70877589C16.7188727 5.651086 17.7129679 4.80493409 18.7371871 4.80493409 19.3999172 4.77471438 19.972275 5.04669178 20.3940123 5.40932831L20.3940123 3.80768362C19.7915304 3.56592593 19.1589244 3.47526679 18.4660702 3.47526679L18.4660702 3.47526679zM25.033123 3.5054865C24.2800206 3.5054865 23.4365459 3.98900188 23.2256773 4.8351538L23.2256773 3.62636535 21.6291002 3.62636535 21.6291002 10.5164595 23.2256773 10.5164595 23.2256773 6.70877589C23.46667 4.86537351 24.6113856 4.74449466 25.6356049 5.22801004L25.6356049 3.62636535C25.4548603 3.53570621 25.2439916 3.5054865 25.033123 3.5054865L25.033123 3.5054865zM49.7951291.211537979C48.6504135.181318267 47.3249533 1.05768989 47.3249533 2.38735719L47.3249533 3.62636535 46.1501136 3.62636535 46.1501136 4.92581293 47.3249533 4.92581293 47.3249533 10.5164595 48.9215303 10.5164595 48.9215303 4.92581293 51.3917061 4.92581293 51.3917061 8.00822348 51.3917061 8.73349655C51.3917061 10.6071186 53.1389036 10.9697552 54.6752325 10.4258004L54.6752325 9.12635279C53.5003928 9.60986817 52.9882831 9.18679222 53.0184072 8.00822348L53.0184072 4.92581293 54.6752325 4.92581293 54.6752325 3.62636535 53.0184072 3.62636535 53.0184072 1.57142498 51.3917061 2.05494036 51.3917061 3.62636535 48.9215303 3.62636535C48.9215303 2.56867546 48.831158 1.02747018 50.7591001 1.72252354L50.7591001.362636535C50.4578592.24175769 50.1264941.211537979 49.7951291.211537979L49.7951291.211537979zM33.61849 8.70327684L33.61849 10.3049215C34.9439502 10.8488763 38.1973525 11.0301946 38.1973525 8.46151915 38.1973525 6.34613936 35.2451912 6.70877589 35.2451912 5.43954802 35.2451912 5.1071312 35.9681695 4.14010044 37.8057392 5.25822976L37.8057392 3.7774639C35.1548189 2.87087257 33.5883659 4.17032015 33.5883659 5.56042687 33.5883659 8.03844319 36.5405273 7.49448839 36.5405273 8.73349655 36.5405273 9.21701193 35.6669285 9.97250471 33.61849 8.70327684L33.61849 8.70327684z"/>
    </g>
    <polygon points=".151 8.552 7.772 8.552 7.772 16.137 .151 16.137"/>
  </g>
</svg>
