<svg xmlns="http://www.w3.org/2000/svg" width="100" height="40" viewBox="0 0 100 40">
  <g fill="#221F20" fill-rule="evenodd" transform="translate(4 13)">
    <g transform="translate(24.451 3.41)">
      <path d="M5.31360436 1.03177483L4.92026171 1.03177483 2.6337903 5.13991248 7.57866937 5.13991248 5.31360436 1.03177483zM8.03623123 6.00682979L2.16619418 6.00682979 1.30592437 7.57150981.206170418 7.57150981 4.32355823.166221674 5.86816399.166221674 9.97551755 7.57150981 8.89650105 7.57150981 8.03623123 6.00682979zM13.1946392.166494504L13.1946392 3.80741079C13.1946392 5.91706872 13.2060113 6.00642054 13.4020137 6.29357411 13.6093882 6.60596446 14.3064342 6.70418326 16.265789 6.70418326 18.6305276 6.70418326 19.3369389 6.61687766 19.5984984 6.30516939 19.805204 6.06235069 19.8159072 5.94025927 19.8266104 3.80741079L19.8266104.166494504 20.7945812.166494504 20.7945812 3.80741079C20.7858848 5.34003328 20.7858848 5.39528136 20.743072 5.85090745 20.6648048 6.74920021 20.2192841 7.28258285 19.4239024 7.43809594 18.9456031 7.52608362 17.6926596 7.59292696 16.5166453 7.59292696 15.0248866 7.59292696 14.0335026 7.53767889 13.532459 7.43809594 12.8574883 7.29417812 12.3892233 6.73828701 12.3015908 5.98391207 12.2480748 5.52896805 12.2367026 5.38436816 12.2259994 3.80741079L12.2259994.166494504 13.1946392.166494504zM28.8957005 6.70418326C30.2911304 6.70418326 30.3453154 6.70418326 30.7460165 6.60596446 31.530695 6.41634761 31.8471083 5.61695573 31.8471083 3.81832399 31.8471083 2.67448423 31.6952567 1.88668762 31.4109529 1.5190492 31.1841788 1.24212676 30.8563933 1.10980421 30.2349386 1.05319199 30.0081645 1.03136559 29.7352329 1.03136559 28.8415156 1.03136559L24.8244703 1.03136559 24.8244703 6.70418326 28.8957005 6.70418326zM23.8544927.166494504L28.8635909.166494504C31.1059116.166494504 31.6624781.287221777 32.2070035.875170416 32.6866407 1.39832193 32.8378234 2.11859312 32.8378234 3.86265886 32.8378234 5.5057775 32.6090425 6.43885609 32.065855 6.96132553 31.5427361 7.45924027 30.9875075 7.57110056 28.9391823 7.57110056L23.8544927 7.57110056 23.8544927.166494504z"/>
      <polygon points="36.066 .166 43.177 .166 43.177 1.031 37.036 1.031 37.036 3.298 42.917 3.298 42.917 4.163 37.036 4.163 37.036 6.704 43.189 6.704 43.189 7.571 36.066 7.571"/>
      <polygon points="54.313 .166 54.313 .932 47.703 6.704 54.4 6.704 54.4 7.571 46.036 7.571 46.036 6.916 52.778 1.031 46.297 1.031 46.297 .166"/>
      <polygon points="57.287 .166 64.399 .166 64.399 1.031 58.256 1.031 58.256 3.298 64.137 3.298 64.137 4.163 58.256 4.163 58.256 6.704 64.41 6.704 64.41 7.571 57.287 7.571"/>
    </g>
    <g transform="translate(89.64 3.41)">
      <polygon points=".926 .166 .926 .261 .527 .261 .527 .979 .419 .979 .419 .261 .019 .261 .019 .166"/>
      <polygon points="1.451 .166 1.884 .856 2.31 .166 2.524 .166 2.524 .979 2.416 .979 2.416 .266 2.371 .266 1.928 .979 1.84 .979 1.39 .266 1.346 .266 1.346 .979 1.239 .979 1.239 .166"/>
    </g>
    <path d="M1.06008521,14.4945027 L0.0272262687,12.9639265 L2.32440088,12.9639265 L3.33117077,11.1905315 L4.25432189,12.8179624 L3.30106801,14.4945027 L1.06008521,14.4945027 Z M15.3628402,14.2020972 L9.41520495,3.72883575 L7.01300517,7.96179312 L5.16603397,7.96179312 L9.4131981,0.478748433 L16.3749617,12.7322256 L15.3628402,14.2020972 Z M14.738576,14.5337902 L12.9009701,14.5337902 L11.6366544,12.3081796 L4.73242052,12.3040871 L3.90693611,10.8519495 L10.810501,10.8519495 L8.49794058,6.77791556 L9.41640906,5.16003369 L14.738576,14.5337902 Z M3.97891514,8.65757781 L8.78799734,8.65757781 L9.61281281,10.11449 L3.15142388,10.11449 L1.92992101,12.2664366 L0,12.2664366 L6.9751426,0 L8.89436041,0 L3.97891514,8.65757781 Z"/>
  </g>
</svg>
