<svg xmlns="http://www.w3.org/2000/svg" width="100" height="40" viewBox="0 0 100 40">
  <g fill="#3D3D3D" fill-rule="evenodd" transform="translate(34 4)">
    <path d="M11.7458824,0.602352941 L3.57647059,23.04 L6.96470588,23.04 L11.2941176,11.1435294 L13.8164706,11.1435294 L9.52470588,23.04 L12.9129412,23.04 L16.9411765,11.9341176 C17.5435294,10.3529412 16.6023529,8.99764706 14.9082353,8.99764706 L12.0470588,8.99764706 L15.3223529,0.0376470588 L16.0752941,0 C24.8847059,0 32.0752941,7.19058824 32.0752941,16 C32.0752941,24.8094118 24.8847059,32 16.0376471,32 L15.5482353,32 L18.8611765,23.04 L23.3411765,23.04 C24.0941176,23.04 24.9976471,22.4 25.2611765,21.6847059 L28.8376471,11.8964706 C29.44,10.3529412 28.5364706,8.99764706 26.7670588,8.99764706 L20.5176471,8.99764706 L12.3482353,31.5858824 C5.27058824,29.9294118 0.0752941176,23.5670588 0.0752941176,16 C0.0752941176,8.65882353 5.04470588,2.52235294 11.7458824,0.602352941 L11.7458824,0.602352941 Z"/>
    <polygon points="23.191 11.144 25.751 11.144 22.174 20.894 19.614 20.894"/>
  </g>
</svg>
