<svg xmlns="http://www.w3.org/2000/svg" width="100" height="40" viewBox="0 0 100 40" xmlns:xlink="http://www.w3.org/1999/xlink">
  <defs>
    <polyline id="a" points="0 .221 69.153 .221 69.153 22.495 0 22.495"/>
  </defs>
  <g fill="none" fill-rule="evenodd" transform="translate(15 9)">
    <mask id="b" fill="white">
      <use xlink:href="#a"/>
    </mask>
    <path fill="#1A1918" d="M0.279066345,3.9982628 L16.060034,4.04862829 L16.060034,8.71300822 C16.1113411,9.0167612 15.7144914,8.96416714 15.6547074,8.66241987 C15.5019013,7.90158886 14.1841995,6.07706528 13.9294483,5.92418594 L7.33268572,5.92418594 L7.33268572,11.6018929 L12.8624824,11.6018929 C13.2693705,11.449905 13.9158407,10.3378527 14.3358902,9.21911462 C14.4871348,8.81396207 14.7974316,9.06734956 14.7916317,9.16964054 C14.6905789,10.9937184 14.7153402,14.3365612 14.7407707,15.7086867 C14.7512552,16.2183588 14.4871348,16.3676724 14.3358902,15.9110401 C14.1841995,15.4552992 13.4221766,13.884386 12.9142357,13.4778963 L7.33268572,13.4778963 L7.33268572,19.9672455 L14.4871348,19.9672455 C14.8926845,19.6634925 15.940466,17.3720852 16.060034,16.7732707 C16.1113411,16.5194375 16.5173369,16.5194375 16.5173369,16.7217909 L16.5173369,22.0957449 L5.30226056,21.9442027 C3.02020724,21.9442027 2.46118225,21.9442027 0.279066345,22.1470018 C-0.0785222651,22.1802074 -0.069822355,21.6547125 0.176675096,21.5394959 C2.66328785,20.3719523 2.96912315,21.0309381 2.96912315,17.4830676 L2.96912315,7.79974358 C2.96912315,5.16424635 2.21156175,5.26787448 0.176675096,4.5048149 C-0.0359150133,4.42570096 0.0765145935,4.04862829 0.279066345,3.9982628" mask="url(#b)"/>
    <path fill="#191919" d="M19.916771,3.89641752 L27.2751103,4.04862829 L32.9072982,15.6068414 L38.7438225,4.20106192 L43.7168249,4.20106192 C44.1221515,4.20106192 45.6966122,4.04862829 45.9484634,3.9982628 C46.2029915,3.94722873 46.2542987,4.45489512 46.0504085,4.55584897 C45.8474106,4.65724853 43.4118819,5.67124417 43.1591384,6.02603121 L44.6292001,20.1196791 C44.832198,20.5747515 47.3121185,21.6221755 47.7243604,21.6908152 C48.0293034,21.7418493 47.9360582,22.1066649 47.7756676,22.0957449 C46.2029915,21.9943454 39.1063188,21.9943454 37.57625,22.0957449 C37.4236669,22.1057735 36.7823274,21.857066 37.4751972,21.6395583 C38.2862965,21.3866165 39.9107258,20.8285847 40.2651914,20.2201873 L39.2510942,7.95217721 L32.2476666,22.0957449 L31.0814325,22.0957449 L24.6867755,8.25593019 L23.5709563,20.1196791 C24.0269208,21.0309381 26.1592911,21.4376506 26.4124808,21.5394959 C26.6656705,21.6395583 26.6656705,22.015071 26.4628956,21.9943454 C24.9397421,21.8428032 19.2562471,21.9442027 18.6488149,22.046048 C18.344318,22.0957449 17.7922084,21.7108723 18.4969011,21.4871247 C20.4836036,20.859116 21.1354276,21.4376506 21.5920614,16.8240819 L22.8096026,6.68457124 C22.9612934,5.01225843 20.8338308,4.80945931 19.8670254,4.45489512 C19.7231422,4.40118678 19.5616362,3.89641752 19.916771,3.89641752" mask="url(#b)"/>
    <path fill="#1A1918" d="M62.3549322 8.56057459L62.506623 3.89641752C60.4248906 3.64347575 55.289713 2.79996509 51.0381338 5.92418594 46.6272795 9.16518342 45.4231227 17.4527592 51.1400789 21.1833717 54.9455088 23.6677724 61.8974062 21.9442027 62.4046779 21.6908152 62.6076758 21.5898614 62.8619808 21.4376506 62.8619808 21.2341829 62.8619808 21.0309381 62.9126188 16.8742245 62.9126188 16.6718711 62.9126188 16.4695177 62.6076758 16.5194375 62.4550927 16.7217909 62.3042943 16.9252586 61.5244254 19.8963772 60.7802485 20.2709985 59.1437731 21.0966807 55.2531287 21.619947 53.2202497 17.4830676 51.881802 14.7588736 51.8425409 11.0685981 53.7779363 7.69878973 55.7898463 4.1966048 59.5629303 5.20034905 60.0204564 5.46889075 60.8821936 5.97522 61.4111035 7.09863803 61.7963534 8.51065481 61.9480441 9.06734956 62.3042943 8.96594999 62.3549322 8.56057459M63.7752483 1.51408491C65.905834-.462872294 67.7845684.246701796 68.4424154.905687531 69.1029394 1.56422755 69.5368195 3.0074442 67.9875663 4.55584897 67.2250973 5.31623427 65.6521981 6.53280618 65.6521981 6.53280618L68.0877268 6.53280618C68.3422549 6.48221782 68.7875119 5.61218728 68.9512486 5.36659977 69.0531937 5.21528042 69.1533542 5.26564591 69.1533542 5.46889075L69.1533542 8.05357677C68.4424154 8.00254271 64.2327744 8.00254271 63.5722504 8.00254271L63.5722504 7.14120356C64.6885158 6.27941869 65.7541432 5.06284679 66.5663579 4.04862829 67.3776803 3.0344098 67.2460663.331610002 64.3844651 1.91990602 63.9269391 2.17351636 63.6219961 1.91990602 63.7752483 1.51408491" mask="url(#b)"/>
    <path fill="#1A1918" d="M65.3146862,19.4805276 L65.4982767,19.4805276 C65.7048437,19.4805276 65.8812958,19.4052022 65.8812958,19.2104259 C65.8812958,19.0718094 65.7806891,18.9336385 65.4982767,18.9336385 C65.415739,18.9336385 65.3599704,18.9398785 65.3146862,18.9461185 L65.3146862,19.4805276 L65.3146862,19.4805276 Z M65.3146862,20.3541238 L65.0637273,20.3541238 L65.0637273,18.7760792 C65.1953413,18.7573593 65.3216016,18.7384165 65.5100996,18.7384165 C65.7492356,18.7384165 65.9067263,18.788782 66.0010868,18.8580903 C66.0950013,18.9273986 66.1456392,19.0341467 66.1456392,19.1847974 C66.1456392,19.3922766 66.007556,19.5184132 65.8375731,19.5681101 L65.8375731,19.5810357 C65.9758794,19.6059956 66.070463,19.7316865 66.1012473,19.9643484 C66.13917,20.2094902 66.1773158,20.3039812 66.2025232,20.3541238 L65.9379567,20.3541238 C65.900034,20.3039812 65.8623344,20.1589018 65.8313271,19.9516456 C65.7934044,19.7504064 65.6923516,19.6755268 65.4915844,19.6755268 L65.3146862,19.6755268 L65.3146862,20.3541238 L65.3146862,20.3541238 Z M65.5794758,18.336384 C64.9568746,18.336384 64.446926,18.8705702 64.446926,19.5306702 C64.446926,20.2030274 64.9568746,20.7314194 65.585945,20.7314194 C66.2147923,20.7374365 66.7178256,20.2030274 66.7178256,19.5371331 C66.7178256,18.8705702 66.2147923,18.336384 65.585945,18.336384 L65.5794758,18.336384 L65.5794758,18.336384 Z M65.585945,18.1166478 C66.3600139,18.1166478 66.9763691,18.7451022 66.9763691,19.5306702 C66.9763691,20.329164 66.3600139,20.9509327 65.5794758,20.9509327 C64.8054069,20.9509327 64.1763365,20.329164 64.1763365,19.5306702 C64.1763365,18.7451022 64.8054069,18.1166478 65.5794758,18.1166478 L65.585945,18.1166478 L65.585945,18.1166478 Z"/>
  </g>
</svg>
