<svg xmlns="http://www.w3.org/2000/svg" width="100" height="40" viewBox="0 0 100 40">
  <g fill="#191919" fill-rule="evenodd" transform="translate(11 9)">
    <path d="M39.8208811.126808307C31.680701.126808307 25.080555 2.78978276 25.080555 6.08679876 25.080555 7.95722129 27.2491744 9.63743137 30.6121059 10.715302 32.2778571 10.5250895 34.4779057 10.1763667 36.0493691 9.82764383 39.4437299 9.13019814 40.6694713 7.51339222 38.5637104 6.8476486 36.269374 6.08679876 32.5292912 5.29424684 32.5292912 5.29424684 32.5292912 5.29424684 34.2579009 5.19914061 34.5721935 5.13573645 35.9550813 5.00892815 38.280847 4.72360945 40.3866079 4.37488661 43.1209541 3.89935545 44.283837 2.50446407 42.3037932 1.93382669 40.166603 1.33148723 37.4008276.824253999 37.4008276.824253999 37.4008276.824253999 40.5751835.760849845 44.3781248 1.42659346 46.4210271 1.80701838 47.7410564 2.1874433 48.5896466 2.50446407 49.469666 2.82148484 49.3753782 3.26531392 48.5896466 3.58233469 47.112471 4.15297207 44.283837 5.0723323 40.7009006 5.32594891 39.1922958 5.45275722 39.223725 5.70637384 41.6123493 6.21360707 43.9381151 6.7208403 45.3838613 7.22807353 46.2638808 7.64020053 47.1439003 8.02062545 47.0181832 8.4961566 46.2010223 8.81317737 44.3152663 9.54232514 40.4808957 10.8104082 36.0179398 11.1908331 34.9179155 11.2859394 33.7236033 11.2859394 32.5921497 11.2859394 34.7293399 11.7614705 37.212252 12.0467892 39.8208811 12.0467892 47.9610612 12.0467892 54.5612073 9.38381475 54.5612073 6.08679876 54.5612073 2.78978276 47.9610612.126808307 39.8208811.126808307L39.8208811.126808307 39.8208811.126808307zM4.40009736 17.6263547L5.37440463 17.6263547C6.31728264 17.6580568 6.69443384 17.341036 6.82015091 16.8655049 6.91443871 16.3582717 6.75729237 16.072953 5.72012657 16.0412509 5.4058339 16.0412509 5.09154123 16.0412509 4.77724856 16.0095488 4.65153149 16.5484841 4.52581443 17.0874194 4.40009736 17.6263547L4.40009736 17.6263547 4.40009736 17.6263547zM3.70865349 20.7648603C4.02294616 20.7331583 4.36866809 20.7331583 4.68296076 20.7331583 5.81441437 20.7014562 6.28585337 20.4161375 6.41157044 19.813798 6.56871677 19.2114586 6.22299484 18.9261399 5.09154123 18.957842L4.11723396 18.957842C3.99151689 19.5601814 3.83437056 20.1625209 3.70865349 20.7648603L3.70865349 20.7648603 3.70865349 20.7648603zM1.79146821 14.5195512C3.58293642 14.6146574 5.34297537 14.6780616 7.10301431 14.7414657 9.46020932 14.836572 10.3087995 15.5023156 10.0259361 16.6752924 9.80593126 17.5946527 8.89448252 18.0384817 7.82588745 18.2920984L7.82588745 18.2920984C8.89448252 18.3555025 9.83736053 18.8310337 9.55449712 20.0357126 9.42878006 20.60635 9.11448739 21.050179 8.70590692 21.3354977 8.10875085 21.7476247 7.54302405 21.9378372 5.8772729 22.0012413 3.96008762 22.0646455 2.04290235 22.1597517.157146334 22.2231559.691443871 19.6235856 1.25717067 17.0557174 1.79146821 14.5195512L1.79146821 14.5195512 1.79146821 14.5195512zM16.846087 16.3582717C15.7460627 16.3582717 14.8031847 16.9606111 14.4574628 18.3555025 14.1431701 19.7186918 14.7717554 20.3527333 15.8403505 20.3210313 16.9089456 20.3210313 17.8518236 19.6869897 18.1975455 18.3555025 18.5432674 16.9923132 17.9146821 16.3899737 16.846087 16.3582717L16.846087 16.3582717 16.846087 16.3582717zM19.9575845 20.60635C18.9204186 21.3037957 17.4746724 21.8110289 15.4631993 21.842731 11.660258 21.9695393 10.6230922 20.4161375 11.1259605 18.3555025 11.4402531 16.9923132 12.2888433 16.0412509 13.3260091 15.5340177 14.1745994 15.0901886 15.2117652 14.836572 17.191809 14.8682741 21.0261795 14.9950824 22.0319161 16.4216758 21.5290478 18.3555025 21.2776137 19.3382669 20.7118869 20.0991167 19.9575845 20.60635L19.9575845 20.60635 19.9575845 20.60635zM23.1005111 15.1852948C24.1691062 15.1852948 25.206272 15.2169969 26.2748671 15.2169969L26.2748671 19.1163524 26.3062964 19.1163524C27.1234573 17.8165672 27.9720475 16.5484841 28.7892084 15.2804011 30.0149498 15.2804011 31.2406913 15.2804011 32.4664327 15.3121031 32.5921497 16.5801862 32.7178668 17.8482693 32.8435839 19.0846503L32.8750131 19.0846503C33.566457 17.8482693 34.2579009 16.5801862 34.9493447 15.3121031L37.8722666 15.3121031C36.7093837 17.341036 35.5465008 19.3382669 34.3836179 21.3671998 33.0007302 21.3671998 31.6492717 21.3989019 30.266384 21.3989019 30.1406669 20.1625209 30.0149498 18.9261399 29.8892328 17.6897589L29.8263742 17.6897589C29.0406426 18.9261399 28.2234816 20.1625209 27.43775 21.430604 26.0548622 21.462306 24.6719745 21.462306 23.2890867 21.4940081 23.2262282 19.401671 23.1633697 17.2776319 23.1005111 15.1852948L23.1005111 15.1852948 23.1005111 15.1852948zM39.4751592 15.3438052C41.8637835 15.3438052 44.2524077 15.3121031 46.641032 15.3121031 46.5153149 15.7242301 46.4210271 16.1680592 46.2953101 16.5801862L42.398081 16.5801862C42.3037932 17.0240153 42.1780761 17.4361423 42.0523591 17.8482693L45.7610125 17.8482693C45.6352955 18.2603963 45.5095784 18.7042254 45.4152906 19.1163524L41.7066371 19.1163524C41.5180615 19.8772022 41.2980566 20.60635 41.109481 21.3671998L37.8408373 21.3671998C38.3751348 19.3382669 38.9408616 17.341036 39.4751592 15.3438052L39.4751592 15.3438052 39.4751592 15.3438052zM48.4325002 15.2804011C49.5325246 15.2804011 50.6325489 15.248699 51.701144 15.248699 51.2925635 16.8021007 50.883983 18.3555025 50.4754026 19.9089043 51.6697147 19.9406063 52.8640269 19.9406063 54.058339 19.9406063 53.9326219 20.4478396 53.7754756 20.9550728 53.6497585 21.462306 51.355422 21.430604 49.0610856 21.3989019 46.7981783 21.3989019 47.3324759 19.369969 47.8982027 17.341036 48.4325002 15.2804011L48.4325002 15.2804011 48.4325002 15.2804011zM57.0755486 15.1535927C59.5584607 15.0901886 62.0413728 15.0267844 64.5242849 14.9633803 64.4299971 15.4389114 64.30428 15.9144426 64.1785629 16.3899737 62.7642459 16.4216758 61.3184996 16.4216758 59.9041826 16.4533779 59.8098948 16.8655049 59.6841778 17.2459298 59.58989 17.6580568 60.9413484 17.6580568 62.2613776 17.6580568 63.6128361 17.6263547 63.487119 18.1018859 63.3928312 18.577417 63.2671142 19.0529482 61.9156557 19.0529482 60.5956265 19.0212461 59.244168 19.0212461 59.1498802 19.4333731 59.0555924 19.813798 58.9298754 20.225925 60.3756216 20.225925 61.8213679 20.2576271 63.2671142 20.2893292 63.1413971 20.7331583 63.0471093 21.2086894 62.9213922 21.6842206 60.4384802 21.6208164 57.9241388 21.5574123 55.4097975 21.4940081 55.9755243 19.401671 56.5098218 17.2776319 57.0755486 15.1535927L57.0755486 15.1535927 57.0755486 15.1535927zM69.0815285 18.2603963C68.2015091 17.1191215 67.3529189 16.0095488 66.4728994 14.8999761 67.8872164 14.8682741 69.3329627 14.8048699 70.7472797 14.7731678 71.1558602 15.5023156 71.5644406 16.2314634 72.0044504 16.9606111 72.790182 16.1997613 73.5444844 15.4389114 74.3302161 14.6146574 75.6816746 14.5829554 77.0331331 14.5195512 78.3531623 14.4561471 76.9388453 15.7876343 75.5245283 17.0557174 74.1102112 18.2603963 74.9902307 19.5284794 75.9016795 20.8282645 76.8131282 22.1597517 75.3988112 22.0963476 73.9844942 22.0329434 72.5387479 22.0012413 72.0987382 21.1452853 71.6587284 20.3210313 71.1872894 19.4967773 70.3386992 20.3210313 69.490109 21.0818811 68.6729481 21.842731 67.3529189 21.8110289 66.0328897 21.7793268 64.7128605 21.7159227 66.1586067 20.60635 67.6357823 19.4650752 69.0815285 18.2603963L69.0815285 18.2603963 69.0815285 18.2603963zM77.9445818 21.6208164L78.1017281 21.6208164C78.1645867 21.6208164 78.2274452 21.6208164 78.2274452 21.5257102 78.2274452 21.430604 78.1645867 21.430604 78.1017281 21.430604L77.9445818 21.430604 77.9445818 21.6208164 77.9445818 21.6208164zM77.850294 21.3354977L78.1017281 21.3354977C78.1645867 21.3354977 78.321733 21.3354977 78.321733 21.5257102 78.321733 21.5257102 78.321733 21.6525185 78.1960159 21.6842206 78.2903037 21.6842206 78.2903037 21.7159227 78.321733 21.8110289 78.321733 21.874433 78.321733 21.9378372 78.3531623 22.0012413L78.2588745 22.0012413C78.2274452 21.9695393 78.2274452 21.9378372 78.2274452 21.842731 78.1960159 21.7476247 78.1960159 21.7159227 78.0702989 21.7159227L77.9445818 21.7159227 77.9445818 22.0012413 77.850294 22.0012413 77.850294 21.3354977 77.850294 21.3354977zM77.5360013 21.6842206C77.5360013 22.0012413 77.7874355 22.254858 78.1017281 22.254858 78.3845915 22.254858 78.6360257 22.0012413 78.6360257 21.6842206 78.6360257 21.3989019 78.4160208 21.1452853 78.1017281 21.1452853 77.7874355 21.1452853 77.5360013 21.3671998 77.5360013 21.6842206L77.5360013 21.6842206 77.5360013 21.6842206zM78.7303135 21.6842206C78.7303135 22.0329434 78.4474501 22.3182621 78.1017281 22.3182621 77.7560062 22.3182621 77.4731428 22.0329434 77.4731428 21.6842206 77.4731428 21.3354977 77.7560062 21.050179 78.1017281 21.050179 78.4474501 21.050179 78.7303135 21.3354977 78.7303135 21.6842206L78.7303135 21.6842206 78.7303135 21.6842206z"/>
  </g>
</svg>
