<svg xmlns="http://www.w3.org/2000/svg" width="100" height="40" viewBox="0 0 100 40">
  <path fill="#191919" fill-rule="evenodd" d="M1.09176867,6.46360007 L0,8.34771399 C0,8.34771399 3.40291533,9.51192166 9.03412856,8.73769913 C9.03412856,8.73769913 12.4848626,8.2982833 12.8443373,6.16155558 C13.2674776,3.64518867 8.52869555,3.35406491 6.8536494,3.11438354 C6.19586364,3.02040776 6.01181708,2.22693025 7.40551108,2.0432895 C8.13307884,1.94758939 9.95964368,1.72141525 12.4503887,2.32665379 L13.6831114,0.464093957 C13.6831114,0.464093957 8.72275068,-0.452672881 5.34402275,0.29079916 C1.96501679,1.03369642 1.19046433,2.13123014 1.0784239,2.99080682 C0.790955401,5.19535805 5.44021627,5.69225142 6.42494879,5.72587579 C7.70549029,5.76984611 7.57065255,6.59752275 7.03463779,6.73604364 C5.50110176,7.13235131 2.33783619,6.93434117 1.09176867,6.46360007 L1.09176867,6.46360007 Z M25.9280463,0.363508254 C18.9787594,-0.751268726 15.3603817,1.99845701 14.809076,2.32033126 C13.745109,2.9422383 11.4303481,6.06068249 15.0729132,7.86892604 C18.7152003,9.67745699 24.0350356,8.46353124 24.0350356,8.46353124 L23.4359112,6.605857 C21.4230757,7.24989289 18.8761715,6.68804989 18.1641726,6.03625453 C17.3253985,5.26835453 17.2775797,3.73255454 19.4102401,2.71663893 C21.7655913,1.59496465 24.7058881,2.24618523 24.7058881,2.24618523 L25.9280463,0.363508254 Z M26.5749894,0.198260313 L24.2985947,8.66987563 L28.3242658,8.66987563 L29.1152212,5.74714248 L33.8117448,5.74714248 L33.0449768,8.66987563 L37.0470165,8.66987563 L39.3475985,0.198260313 L35.2974621,0.198260313 L34.5306941,3.12128085 L29.8099831,3.12128085 L30.6009385,0.198260313 L26.5749894,0.198260313 Z M39.5630609,0.198260313 L41.2164218,8.66987563 L45.1703648,8.66987563 L48.2855336,3.69088332 L49.1245857,8.66987563 L53.0782507,8.66987563 L58.3263579,0.198260313 L55.1630924,0.198260313 L52.335392,4.85509099 L51.5925334,0.198260313 L47.2073877,0.198260313 L44.4275061,4.73122688 L43.4449977,0.198260313 L39.5630609,0.198260313 Z M56.3610631,8.66987563 L60.3872902,8.66987563 L62.6634069,0.198260313 L58.6377358,0.198260313 L56.3610631,8.66987563 Z M63.6222839,0.198260313 L61.3456112,8.66987563 L65.3473729,8.66987563 L66.6654466,3.79003208 L70.3558304,8.66987563 L74.093755,8.66987563 L76.3704277,0.198260313 L72.3444786,0.198260313 L71.1465078,4.75594222 L67.7435925,0.198260313 L63.6222839,0.198260313 Z M77.3290267,0.198260313 L81.4506133,0.198260313 L84.8532506,4.75594222 L86.0514993,0.198260313 L90.0771704,0.198260313 L87.8007758,8.66987563 L84.0625732,8.66987563 L80.3719113,3.79003208 L79.0541157,8.66987563 L75.052632,8.66987563 L77.3290267,0.198260313 Z" transform="translate(5 15)"/>
</svg>
