<svg xmlns="http://www.w3.org/2000/svg" width="100" height="40" viewBox="0 0 100 40">
  <g fill="#191919" fill-rule="evenodd" transform="translate(26 4)">
    <path d="M23.3072688,28.479404 C13.7498674,29.3605737 3.80164292,27.985949 2.380468,20.5488769 C1.70540991,16.883211 3.37529045,13.0060644 5.61364095,10.6092829 L5.61364095,9.3051518 C1.59882179,12.7945837 -0.56846997,17.2356789 0.675058089,22.4522034 C2.27387988,29.1490929 10.8364588,32.9557459 23.8757387,31.6868616 C29.0274978,31.1934066 35.7780787,29.5368076 40.467956,26.9637921 L40.467956,23.3333731 C36.2044312,25.8711417 29.1696153,27.9507022 23.3072688,28.479404 L23.3072688,28.479404 Z M48.4265355,9.23465822 C46.188185,-1.79758614 24.6929143,-2.4672751 10.8719882,5.92146023 L10.8719882,6.8378767 C24.6929143,-0.24672751 44.3051283,-0.211480723 46.0815969,9.93959397 C46.6855963,13.2880387 44.8025395,16.7774707 41.3917197,18.7865375 L41.3917197,21.4300466 C45.4775976,19.9496815 49.6700636,15.1208717 48.4265355,9.23465822 L48.4265355,9.23465822 Z"/>
    <path d="M39.6863098 7.61330602L37.1992536 7.61330602 37.1992536 18.716044C37.1992536 20.0201751 37.8387824 21.1480723 39.6863098 21.3243062L39.6863098 7.61330602 39.6863098 7.61330602zM9.87716572 11.6666865L7.39010961 11.6666865 7.39010961 18.9275247C7.39010961 20.2316558 7.99410895 21.359553 9.87716572 21.5357869L9.87716572 11.6666865 9.87716572 11.6666865z"/>
    <polygon points="7.39 7.966 7.39 10.327 9.877 10.327 9.877 7.966"/>
    <path d="M24.8705612 21.4300466C22.8453869 21.4300466 21.992682 20.0201751 21.992682 18.6455504L21.992682 9.0231775 24.4797381 9.0231775 24.4797381 11.6666865 26.3627948 11.6666865 26.3627948 13.6757534 24.4797381 13.6757534 24.4797381 18.5045632C24.4797381 19.033265 24.7284437 19.3504861 25.332443 19.3504861L26.3627948 19.3504861 26.3627948 21.4300466 24.8705612 21.4300466 24.8705612 21.4300466 24.8705612 21.4300466zM29.4538503 17.3061725C29.4538503 18.5750568 30.2354965 19.5267201 31.6566714 19.5267201 32.758082 19.5267201 33.2910226 19.209499 33.9305513 18.5750568L35.4583144 20.0554219C34.4634919 21.0070851 33.4331401 21.6062805 31.6211421 21.6062805 29.2406741 21.6062805 26.9667942 20.3021494 26.9667942 16.5307432 26.9667942 13.3232855 28.9564391 11.5256994 31.5856127 11.5256994 34.2147863 11.5256994 35.7425493 13.6405066 35.7425493 16.4250028L35.7425493 17.3061725 29.4538503 17.3061725 29.4538503 17.3061725 29.4538503 17.3061725zM31.4790246 13.5347663C30.6263196 13.5347663 29.9512615 13.9929745 29.7025559 14.5921699 29.5249091 14.9446377 29.4538503 15.1913652 29.4538503 15.6495735L33.2554932 15.6495735C33.2199639 14.5921699 32.7225526 13.5347663 31.4790246 13.5347663L31.4790246 13.5347663zM16.6277466 13.6757534C17.3383341 13.6757534 17.6580984 14.0282213 17.6580984 14.5921699L17.6580984 21.4300466 20.1451546 21.4300466 20.1451546 14.5921699C20.1451546 13.2175452 19.3990377 11.6666865 17.231746 11.6666865L12.0799869 11.6666865 12.0799869 21.4300466 14.567043 21.4300466 14.567043 13.6757534 16.6277466 13.6757534 16.6277466 13.6757534zM42.3865421 9.62237288C41.8536015 9.62237288 41.3917197 9.16416465 41.3917197 8.60021606 41.3917197 8.07151425 41.8536015 7.61330602 42.3865421 7.61330602 42.9550121 7.61330602 43.3813646 8.07151425 43.3813646 8.60021606 43.3813646 9.16416465 42.9550121 9.62237288 42.3865421 9.62237288L42.3865421 9.62237288zM42.3865421 7.78953995C41.9246603 7.78953995 41.5693665 8.17725461 41.5693665 8.60021606 41.5693665 9.05842429 41.9246603 9.44613895 42.3865421 9.44613895 42.848424 9.44613895 43.2392471 9.05842429 43.2392471 8.60021606 43.2392471 8.17725461 42.848424 7.78953995 42.3865421 7.78953995L42.3865421 7.78953995zM42.848424 9.19941144L42.6352477 9.19941144 42.5997184 9.19941144 42.3510127 8.7412032 42.3154834 8.7412032 42.2444246 8.7412032 42.2088953 8.7412032 42.2088953 9.16416465C42.2088953 9.19941144 42.1733659 9.19941144 42.1733659 9.19941144L41.995719 9.19941144C41.9601896 9.19941144 41.9601896 9.19941144 41.9601896 9.16416465L41.9601896 8.10676104C41.9601896 8.03626746 41.9601896 8.00102067 42.0312484 8.00102067 42.1023071 8.00102067 42.2444246 7.96577389 42.3510127 7.96577389 42.6352477 7.96577389 42.8128946 8.07151425 42.8128946 8.35348855L42.8128946 8.38873533C42.8128946 8.56496927 42.7418358 8.63546284 42.5997184 8.70595642L42.848424 9.12891786C42.8839533 9.12891786 42.8839533 9.16416465 42.8839533 9.16416465 42.8839533 9.19941144 42.848424 9.19941144 42.848424 9.19941144L42.848424 9.19941144zM42.5997184 8.35348855C42.5997184 8.24774818 42.5286596 8.2125014 42.3510127 8.2125014L42.2444246 8.2125014 42.2088953 8.2125014 42.2088953 8.52972248 42.3510127 8.52972248C42.5286596 8.52972248 42.5997184 8.49447569 42.5997184 8.38873533L42.5997184 8.35348855 42.5997184 8.35348855z"/>
  </g>
</svg>
