<svg xmlns="http://www.w3.org/2000/svg" width="100" height="40" viewBox="0 0 100 40">
  <g fill="#191919" fill-rule="evenodd" transform="translate(15 3)">
    <path d="M30.7197839,8.53192854 C33.772337,6.02253779 37.2966482,5.26972057 38.2956656,6.38500534 C40.1271974,8.36463582 35.7703717,12.4075431 33.6058341,13.8574133 C28.8327511,17.035975 23.8654148,17.9003207 22.2558868,15.9206902 C20.6186084,13.9131776 22.1171344,9.70297755 27.9169852,5.21395633 C33.3005788,1.03163842 42.9299961,-1.56139869 46.0658006,1.1431669 C49.2293556,3.8756146 46.315555,11.2643762 36.9913929,16.2831577 C31.2470431,19.378073 23.2826547,20.6048862 23.1716527,20.5770041 C23.58791,20.549122 30.9972887,18.8204306 36.020126,15.3909299 C40.5989556,12.2402504 44.761528,6.94264773 42.1529826,4.04290731 C40.2659498,1.95174836 34.4105981,2.8718583 29.2212579,6.4686517 C25.8634495,8.78286761 23.3936566,12.0729577 24.6424283,13.9131776 C25.5859447,15.2794014 28.7772502,15.3909299 32.5513158,12.7421286 C34.2995961,11.4874332 35.8813736,9.70297755 35.2986135,8.78286761 C34.7991048,7.94640403 33.023074,8.30887158 31.5800489,9.00592457 C29.5542637,10.0096809 27.7782328,11.7941365 27.7782328,11.7941365 C27.7782328,11.7941365 28.5274958,10.3442663 30.7197839,8.53192854 L30.7197839,8.53192854 Z"/>
    <polygon points="38.934 16.98 38.934 16.478 38.74 16.478 38.74 16.395 39.184 16.395 39.184 16.478 39.017 16.478 39.017 16.98"/>
    <polygon points="39.267 16.395 39.406 16.395 39.572 16.869 39.739 16.395 39.877 16.395 39.877 16.98 39.794 16.98 39.794 16.478 39.6 16.98 39.517 16.98 39.35 16.478 39.35 16.98 39.267 16.98"/>
    <path d="M68.8766971 30.2799817L68.987699 30.2799817C69.0154495 30.2799817 69.0709505 30.2799817 69.0709505 30.1963353 69.0709505 30.1405711 69.0154495 30.1405711 68.987699 30.1405711L68.8766971 30.1405711 68.8766971 30.2799817 68.8766971 30.2799817zM68.8211961 30.0848068L68.987699 30.0848068C69.0154495 30.0848068 69.1264514 30.0848068 69.1264514 30.1963353 69.1264514 30.1963353 69.1264514 30.2799817 69.0432 30.3078638 69.098701 30.3078638 69.098701 30.3357459 69.098701 30.3915102 69.1264514 30.4193923 69.1264514 30.4751565 69.1264514 30.5030386L69.0709505 30.5030386C69.0709505 30.4751565 69.0709505 30.4751565 69.0432 30.3915102 69.0432 30.3357459 69.0432 30.3078638 68.9599486 30.3078638L68.8766971 30.3078638 68.8766971 30.5030386 68.8211961 30.5030386 68.8211961 30.0848068 68.8211961 30.0848068zM68.6269428 30.3078638C68.6269428 30.5030386 68.7656952 30.6703313 68.9599486 30.6703313 69.1819524 30.6703313 69.3207048 30.5030386 69.3207048 30.3078638 69.3207048 30.112689 69.1819524 29.9453962 68.9599486 29.9453962 68.7656952 29.9453962 68.6269428 30.112689 68.6269428 30.3078638L68.6269428 30.3078638zM69.3762058 30.3078638C69.3762058 30.5309208 69.1819524 30.6982135 68.9599486 30.6982135 68.7656952 30.6982135 68.5714418 30.5309208 68.5714418 30.3078638 68.5714418 30.0848068 68.7656952 29.889632 68.9599486 29.889632 69.1819524 29.889632 69.3762058 30.0848068 69.3762058 30.3078638L69.3762058 30.3078638zM22.6998945 23.3373339L25.6414457 23.3373339 24.7811807 27.2687128C24.5036759 28.6349366 24.8921826 29.0810505 25.8079486 29.0810505 26.7237145 29.0810505 27.2787241 28.6349366 27.5839794 27.2687128L28.4164939 23.3373339 31.3025441 23.3373339 30.3867781 27.547534C30.1647743 28.6628188 29.8317685 29.1368148 29.2490084 29.6386929 28.3609929 30.3915102 27.0567203 30.6982135 25.4194418 30.6982135 23.8099138 30.6982135 22.6166431 30.3915102 22.033883 29.6386929 21.6731267 29.1368148 21.5621248 28.6628188 21.8118791 27.547534L22.6998945 23.3373339 22.6998945 23.3373339z"/>
    <polygon points="40.044 23.337 43.069 23.337 41.542 30.531 38.49 30.531"/>
    <polygon points="33.772 25.094 31.663 25.094 32.024 23.337 39.211 23.337 38.851 25.094 36.797 25.094 35.632 30.531 32.607 30.531"/>
    <polygon points="44.762 23.337 47.786 23.337 46.649 28.774 49.34 28.774 48.952 30.503 43.235 30.503"/>
    <path d="M51.1441389 23.3373339L54.0579395 23.3373339 53.2254251 27.2687128C52.9479203 28.6349366 53.336427 29.0810505 54.2521929 29.0810505 55.1679588 29.0810505 55.7229685 28.6349366 56.0282238 27.2687128L56.8607383 23.3373339 59.7467884 23.3373339 58.8310225 27.5196519C58.6090186 28.6628188 58.2760129 29.1368148 57.6932527 29.6386929 56.8052373 30.3915102 55.5009646 30.6982135 53.8636862 30.6982135 52.2541582 30.6982135 51.0608875 30.3915102 50.4781273 29.6386929 50.1173711 29.1368148 50.0063691 28.6628188 50.2561235 27.5196519L51.1441389 23.3373339 51.1441389 23.3373339zM62.9380939 28.2167048C62.8825929 28.6070545 62.8825929 28.8858757 63.0490958 29.0810505 63.1878482 29.2762254 63.4376026 29.3598717 63.8538598 29.3598717 64.4643704 29.3598717 65.185883 29.2204611 65.2968849 28.6349366 65.3246354 28.5234082 65.2968849 28.4118797 65.2413839 28.3282333 64.9361286 27.8542373 61.5783203 27.5196519 60.7735563 26.6831883 60.468301 26.3486028 60.4405505 25.8188426 60.5515524 25.4284929 60.8845582 23.8392121 62.4663357 23.1421591 65.3523859 23.1421591 68.4049389 23.1421591 69.1542019 23.9786227 68.8766971 25.4842571L65.9073955 25.4842571C65.9906469 25.0660253 65.9073955 24.8150863 65.7131421 24.6756757 65.5466392 24.5362651 65.2413839 24.4805008 64.8806277 24.4805008 64.2423666 24.4805008 63.8538598 24.7035578 63.7706084 25.0939075 63.7428579 25.2054359 63.7428579 25.3448465 63.8261093 25.4006108 64.1868656 25.8467247 67.4614225 26.1813101 68.238436 27.0456558 68.4604399 27.2687128 68.6546932 27.6590625 68.5159408 28.3561154 68.2106855 29.7781035 66.7676605 30.6982135 63.4931035 30.6982135 59.5802855 30.6982135 59.6357865 29.5271645 59.8577904 28.2167048L62.9380939 28.2167048 62.9380939 28.2167048zM3.77406559 25.2054359L3.74631511 25.2054359 2.63629582 30.5030386 0 30.5030386 1.52627653 23.3094518 5.91085273 23.3094518 7.13187395 27.547534C7.2151254 27.7705909 7.27062637 28.0494121 7.29837685 28.4397618L7.32612733 28.4397618 8.40839614 23.3094518 11.044692 23.3094518 9.51841543 30.5030386 5.21709068 30.5030386C5.21709068 30.5030386 3.91281801 26.0140174 3.88506752 25.930371 3.82956656 25.7351962 3.77406559 25.3727287 3.77406559 25.2054359L3.77406559 25.2054359zM16.7612913 25.1217896L16.7057904 25.1217896C16.6502894 25.3169644 16.3450341 25.7909605 16.2340322 25.9024889L15.0130109 27.7427088 17.2885505 27.7427088 16.8167923 25.7351962C16.7890418 25.5957856 16.7335408 25.3169644 16.7612913 25.1217896L16.7612913 25.1217896zM15.3460167 23.3094518L19.1478328 23.3094518 21.2846199 30.5030386 17.9268116 30.5030386 17.6493068 29.3041075 13.9307421 29.3041075 13.1259781 30.5030386 10.1566765 30.5030386 15.3460167 23.3094518 15.3460167 23.3094518z"/>
  </g>
</svg>
