<svg xmlns="http://www.w3.org/2000/svg" width="100" height="40" viewBox="0 0 100 40">
  <g fill="#191919" fill-rule="evenodd" transform="translate(15 8)">
    <polygon points=".23 4.327 .23 19.406 12.895 19.406 12.895 16.61 3.191 16.61 3.191 4.327"/>
    <path d="M18.0597267,5.19280019 C16.7110039,6.05826689 16.0530904,7.22331821 16.0530904,8.68795417 C16.0530904,10.1193029 16.6452126,11.1512055 17.8623526,11.783662 C18.8492229,12.2829697 20.4940068,12.6158415 22.8953912,12.7822774 C25.5270454,12.9487133 27.1389335,13.1151492 27.6981601,13.2482979 C28.717926,13.5145954 29.2113612,14.0139031 29.2113612,14.8127954 C29.2113612,15.478539 28.8495088,15.9778467 28.0600125,16.3772929 C27.2047249,16.8100263 25.9217935,17.0430365 24.342801,17.0430365 C21.8427295,17.0430365 19.4742408,16.3440057 17.3031261,15.0125185 L17.0728564,14.8460826 L15.4280725,17.0763237 L15.6583423,17.2427596 C17.7307699,18.9071186 20.6255895,19.7725853 24.3099053,19.7725853 C26.8757681,19.7725853 28.8495088,19.3065648 30.2311272,18.4410981 C31.6456413,17.5423442 32.3693462,16.2774314 32.3693462,14.6463595 C32.3693462,13.3481595 31.9088067,12.3162569 30.9877278,11.6172261 C30.0995445,10.9181953 28.717926,10.4521747 26.8757681,10.2191645 C26.2507503,10.1193029 25.0007145,10.0194414 22.9940782,9.88629267 C21.6782512,9.81971831 20.7571722,9.65328241 20.16505,9.45355932 C19.145284,9.08740033 19.145284,8.55480544 19.145284,8.35508236 C19.145284,7.88906183 19.4742408,7.48961566 20.1321543,7.19003103 C20.8558592,6.89044641 21.9414166,6.7240105 23.323035,6.7240105 C25.461254,6.7240105 27.599473,7.2566054 29.639005,8.32179518 L29.8363791,8.42165672 L31.678537,6.35785152 L31.3824759,6.15812843 C29.2771526,4.72677966 26.6126027,3.99446169 23.5204091,3.99446169 C21.184816,3.99446169 19.3426581,4.39390785 18.0597267,5.19280019 L18.0597267,5.19280019 L18.0597267,5.19280019 Z"/>
    <polygon points="36.613 19.406 39.573 19.406 39.573 4.327 36.613 4.327"/>
    <path d="M57.3700607.233010265C56.5147731.233010265 55.7252769.699030795 55.2976331 1.43134877L55.2976331 1.43134877 55.2976331 1.43134877 56.1529207 7.92234901 56.2845034 7.92234901 57.3042694.898753879 57.4358521.898753879 58.4556181 7.92234901 58.6200965 7.92234901 59.4424884 1.43134877 59.4424884 1.43134877C59.0477403.699030795 58.258244.233010265 57.3700607.233010265L57.3700607.233010265 57.3700607.233010265zM47.4355663 5.42581046C46.9092354 6.15812843 46.8763398 7.09016949 47.2052965 7.85577465L47.2052965 7.85577465 47.2052965 7.85577465 52.8962487 10.8849081 52.9949357 10.7517594 47.9290014 5.85854381 47.9947928 5.79196944 54.2449714 8.95425161 54.3436584 8.82110289 49.5737853 4.39390785 49.5737853 4.39390785C48.7513934 4.32733349 47.9290014 4.69349248 47.4355663 5.42581046L47.4355663 5.42581046 47.4355663 5.42581046zM67.2058682 5.42581046C67.732199 6.15812843 67.7650947 7.09016949 67.4361379 7.85577465L67.4361379 7.85577465 67.4361379 7.85577465 67.4361379 7.85577465 67.4361379 7.85577465 61.7451858 10.8849081 61.6464987 10.7517594 66.712433 5.85854381 66.6466417 5.79196944 60.396463 8.95425161 60.297776 8.82110289 65.0676492 4.39390785 65.0676492 4.39390785C65.8900411 4.32733349 66.712433 4.69349248 67.2058682 5.42581046L67.2058682 5.42581046 67.2058682 5.42581046zM57.3700607 23.5340368C56.5147731 23.5340368 55.7252769 23.0347291 55.2976331 22.3356983L55.2976331 22.3356983 55.2976331 22.3356983 56.1529207 15.844698 56.2845034 15.844698 57.3042694 22.8682931 57.4358521 22.8682931 58.4556181 15.844698 58.6200965 15.844698 59.4424884 22.3356983 59.4424884 22.3356983C59.0477403 23.0347291 58.258244 23.5340368 57.3700607 23.5340368L57.3700607 23.5340368 57.3700607 23.5340368zM47.4355663 18.3079494C46.9092354 17.5756314 46.8763398 16.6768775 47.2052965 15.9112724L47.2052965 15.9112724 47.2052965 15.9112724 47.2052965 15.9112724 47.2052965 15.9112724 52.8962487 12.8821389 52.9949357 13.0152877 47.9290014 17.875216 47.9947928 17.9750776 54.2449714 14.8127954 54.3436584 14.9459441 49.5737853 19.339852 49.5737853 19.3731392C48.7513934 19.4064264 47.9290014 19.0402674 47.4355663 18.3079494L47.4355663 18.3079494 47.4355663 18.3079494zM67.2058682 18.3079494C67.732199 17.5756314 67.7650947 16.6768775 67.4361379 15.9112724L67.4361379 15.9112724 67.4361379 15.9112724 67.4361379 15.9112724 67.4361379 15.9112724 61.7451858 12.8821389 61.6464987 13.0152877 66.712433 17.875216 66.6466417 17.9750776 60.396463 14.8127954 60.297776 14.9459441 65.0676492 19.339852 65.0676492 19.3731392C65.8900411 19.4064264 66.712433 19.0402674 67.2058682 18.3079494L67.2058682 18.3079494 67.2058682 18.3079494zM69.8375223 5.32594891C70.4625402 5.32594891 70.9559753 5.82525662 70.9559753 6.45771306 70.9559753 7.12345667 70.4625402 7.62276438 69.8375223 7.62276438 69.2125045 7.62276438 68.7190693 7.12345667 68.7190693 6.45771306 68.7190693 5.82525662 69.2125045 5.32594891 69.8375223 5.32594891L69.8375223 5.32594891 69.8375223 5.32594891 69.8375223 5.32594891zM69.8375223 5.49238482C69.3440872 5.49238482 68.9164434 5.92511817 68.9164434 6.45771306 68.9164434 7.02359513 69.3440872 7.45632848 69.8375223 7.45632848 70.3309575 7.45632848 70.7586013 7.02359513 70.7586013 6.45771306 70.7586013 5.92511817 70.3309575 5.49238482 69.8375223 5.49238482L69.8375223 5.49238482 69.8375223 5.49238482zM69.6072526 7.12345667L69.4098785 7.12345667 69.4098785 5.85854381C69.5085656 5.82525662 69.6401483 5.82525662 69.771731 5.82525662 69.969105 5.82525662 70.1006877 5.85854381 70.1664791 5.92511817 70.2322705 5.99169253 70.2980618 6.05826689 70.2980618 6.19141561 70.2980618 6.35785152 70.1664791 6.45771306 70.0348964 6.49100024L70.0348964 6.49100024C70.1335834 6.52428742 70.2322705 6.62414896 70.2651661 6.82387205 70.2651661 7.02359513 70.2980618 7.09016949 70.3309575 7.12345667L70.1335834 7.12345667C70.1006877 7.09016949 70.0677921 6.99030795 70.0348964 6.82387205 70.0020007 6.65743614 69.9362094 6.59086178 69.771731 6.59086178L69.6072526 6.59086178 69.6072526 7.12345667 69.6072526 7.12345667zM69.6072526 6.42442588L69.771731 6.42442588C69.9362094 6.42442588 70.0677921 6.35785152 70.0677921 6.19141561 70.0677921 6.09155407 70.0020007 5.99169253 69.771731 5.99169253L69.6072526 5.99169253 69.6072526 6.42442588 69.6072526 6.42442588z"/>
  </g>
</svg>
