<svg xmlns="http://www.w3.org/2000/svg" width="100" height="40" viewBox="0 0 100 40">
  <g fill="#191919" fill-rule="evenodd" transform="translate(14 8)">
    <path d="M9.56435652 4.38628727L9.56435652 5.71753633 6.8057907 5.71753633 6.8057907 5.10516179C6.80578384 4.48392655 6.65252995 3.95142801 6.34603042 3.50766346 6.05754678 3.04618022 5.56172587 2.81543049 4.85856906 2.81541428 4.10131101 2.81543049 3.59647598 3.07280555 3.34406258 3.58753811 3.10967194 4.08455332 2.99247731 4.6436772 2.99248143 5.26491108 2.99247731 5.95717378 3.06459719 6.47192255 3.20883969 6.80915874 3.35307396 7.14642061 3.73170024 7.44817078 4.34471852 7.71440788 4.38077366 7.73216982 4.41683291 7.74991959 4.45289766 7.76765855 4.48895279 7.76766936 4.52501205 7.77655033 4.56107679 7.79428253L6.67056781 8.61965703C7.89658792 9.06341617 8.68088423 9.69354048 9.02346086 10.51003 9.3840479 11.326537 9.56434554 12.4270336 9.56435652 13.8115252 9.56434554 15.4090276 9.21276439 16.7313984 8.50961032 17.7786457 7.82446804 18.8258944 6.58942557 19.3495174 4.80448018 19.3495174 3.47026722 19.3495174 2.35241939 18.9235188 1.45092982 18.0715203.549437504 17.2195232.0986913476 16.1545248.0986927203 14.8765237L.0986927203 13.8647746 2.85725717 13.8647746 2.85725717 14.7167744C2.85725442 15.2137774 3.00149281 15.6664013 3.2899737 16.0746474 3.59647598 16.4651491 4.10131101 16.6603993 4.80448018 16.6603966 5.74202488 16.6603993 6.3099643 16.4118998 6.50829843 15.9148981 6.7066202 15.4001521 6.80578384 14.7079042 6.8057907 13.8381506 6.80578384 12.9329082 6.73366396 12.3116594 6.58943381 11.974403 6.44518719 11.63716 6.12065116 11.353161 5.61582162 11.1224031 5.56172587 11.1046615 5.49862149 11.0869117 5.42650848 11.0691538 5.35438311 11.0336624 5.2822646 10.9981615 5.21015021 10.9626539L3.23588345 10.1639047C2.04591162 9.68466492 1.24358568 9.05454196.828901522 8.27353311.432242872 7.47479476.233915606 6.48079811.233915606 5.29153641.233915606 3.85380359.621556011 2.62905587 1.39684094 1.61729053 2.19015.605561681 3.38011909.099687121 4.96674819.0996682023 6.3009488.099687121 7.38273738.525685684 8.21211805 1.37766659 9.04148088 2.21193287 9.49222703 3.14380464 9.56435652 4.17328731 9.56434554 4.20880307 9.56434554 4.24430262 9.56435652 4.27978729 9.56434554 4.31530305 9.56434554 4.35080259 9.56435652 4.38628727L9.56435652 4.38628727M13.8073474 24.6745109L13.8073474 5.71753633 16.5659119 5.71753633 16.5659119 6.94228405C16.6199966 6.87129713 16.6740869 6.80917226 16.7281799 6.75590943 16.782266 6.70267228 16.8363549 6.6405474 16.8904493 6.5695348 17.1789219 6.28554792 17.4854283 6.04592399 17.8099698 5.85066029 18.1525314 5.65542497 18.6122916 5.5577992 19.1892521 5.55778568 19.7481705 5.5577992 20.2259604 5.66429918 20.6226245 5.87728562 21.0373018 6.07254797 21.3618392 6.3920479 21.5962354 6.83578408 21.7584951 7.11979663 21.8756884 7.49254588 21.9478179 7.95403317 22.0199281 8.39779367 22.0559874 8.99241709 22.055997 9.73790613L22.055997 14.8765237C22.0559874 15.852776 22.0289423 16.5716491 21.974863 17.0331459 21.9207631 17.4946467 21.8035699 17.8673959 21.6232805 18.151395 21.3888843 18.5063944 21.0823766 18.7992691 20.7037585 19.0300188 20.343155 19.2430187 19.8293045 19.3495174 19.1622083 19.3495174 18.6213071 19.3495174 18.1345017 19.2341432 17.7017907 19.0033934 17.287101 18.7726437 16.9265044 18.4353954 16.6200007 17.9916443L16.5659119 17.9916443 16.5659119 24.6745109 13.8073474 24.6745109 13.8073474 24.6745109M19.2974312 15.0628983L19.2974312 10.1106554C19.2974257 9.56041517 19.1892466 9.11666684 18.9728952 8.77940632 18.75653 8.44216742 18.4139644 8.27354392 17.9451941 8.27353311 17.5305031 8.27354392 17.1969515 8.43329321 16.9445381 8.75278234 16.6921165 9.05454196 16.5659077 9.45391519 16.5659119 9.95090473L16.5659119 15.1960236C16.5659077 15.6220262 16.6921165 15.9770257 16.9445381 16.261022 17.2149812 16.527274 17.5485327 16.6603993 17.9451941 16.6603966 18.4680533 16.6603993 18.8196344 16.50065 18.9999389 16.1811474 19.1982607 15.8616515 19.2974257 15.4889023 19.2974312 15.0628983L19.2974312 15.0628983M26.418575 14.690149L26.418575 14.2649626C26.418575 13.7147238 26.4546329 13.2088492 26.5267542 12.7473403 26.6169023 12.2681019 26.7521252 11.8598531 26.9324242 11.5225912 27.2569602 10.9368542 27.725736 10.4664805 28.3387516 10.1114689 28.9697926 9.75648291 29.7 9.5789825 30.5293766 9.57896899 31.3767732 9.5789825 32.1069806 9.75648291 32.7200016 10.1114689 33.3330089 10.4664805 33.8017833 10.9368542 34.126329 11.5225912 34.324648 11.8598531 34.4598723 12.2681019 34.5320004 12.7473403 34.6041106 13.2088492 34.6401699 13.7147238 34.6401795 14.2649626L34.6401795 14.690149C34.6401699 15.2404028 34.6041106 15.746276 34.5320004 16.2077727 34.4598723 16.6692735 34.324648 17.0775237 34.126329 17.4325205 33.8017833 18.018271 33.3330089 18.4886447 32.7200016 18.8436442 32.1069806 19.1808939 31.3767732 19.3495174 30.5293766 19.3495174 29.7 19.3495174 28.9697926 19.1808939 28.3387516 18.8436442 27.725736 18.4886447 27.2569602 18.018271 26.9324242 17.4325205 26.7521252 17.0775237 26.6169023 16.6692735 26.5267542 16.2077727 26.4546329 15.746276 26.4185737 15.2404028 26.418575 14.690149L26.418575 14.690149M29.1771395 13.8389641L29.1771395 15.116149C29.1771395 15.613152 29.29433 15.9947755 29.5287206 16.261022 29.781134 16.527274 30.1146856 16.6603993 30.5293766 16.6603966 30.944058 16.6603993 31.268594 16.527274 31.5029888 16.261022 31.7553994 15.9947755 31.8816151 15.613152 31.8816151 15.116149L31.8816151 13.8389641C31.8816082 13.3242248 31.7553994 12.9426 31.5029888 12.6940896 31.268594 12.4278512 30.944058 12.2947272 30.5293766 12.2947164 30.1146856 12.2947272 29.781134 12.4278512 29.5287206 12.6940896 29.29433 12.9426 29.1771354 13.3242248 29.1771395 13.8389641L29.1771395 13.8389641"/>
    <polyline points="38.988 19.216 38.988 .259 41.747 .259 41.747 11.602 41.801 11.602 45.128 5.718 47.886 5.718 44.614 11.202 48.562 19.216 45.56 19.216 43.072 13.386 41.747 15.436 41.747 19.216 38.988 19.216 38.988 19.216"/>
    <path d="M59.5042961 13.4920253L54.0412561 13.4920253 54.0412561 15.3291489C54.041252 15.7551515 54.1584466 16.0835257 54.3928372 16.3142714 54.6452506 16.5450238 54.9788022 16.6603993 55.3934932 16.6603966 55.8262042 16.6603993 56.1327106 16.5538993 56.3130151 16.3408967 56.4933073 16.1279008 56.619516 15.8971511 56.6916414 15.6486475 56.7096655 15.5954009 56.7186797 15.5421516 56.7186865 15.4888982 56.7367093 15.4179018 56.7457248 15.355777 56.7457317 15.3025236L59.5042961 15.3025236C59.5042865 15.852776 59.4051229 16.3852745 59.2068038 16.9000206 59.0264966 17.3970223 58.7560494 17.8230208 58.395461 18.178019 58.0348561 18.5507696 57.602141 18.8436442 57.0973128 19.0566428 56.5924709 19.2518929 56.0245315 19.3495174 55.3934932 19.3495174 54.5641166 19.3495174 53.8339092 19.1808939 53.2028682 18.8436442 52.5898512 18.4886447 52.1210768 18.018271 51.7965408 17.4325205 51.6162418 17.0775237 51.4810175 16.6692735 51.3908694 16.2077727 51.3187495 15.746276 51.2826903 15.2404028 51.2826916 14.690149L51.2826916 10.2437793C51.2826903 9.69354048 51.3187495 9.18766592 51.3908694 8.72615701 51.4810175 8.24691859 51.6162418 7.8386698 51.7965408 7.50140793 52.1210768 6.91567088 52.5898512 6.44529722 53.2028682 6.09028558 53.8339092 5.73529961 54.5641166 5.5577992 55.3934932 5.55778568 56.6736049 5.5577992 57.6742609 5.96604934 58.395461 6.78253476 59.1346757 7.58129474 59.5042865 8.57529273 59.5042961 9.76453011L59.5042961 13.4920253 59.5042961 13.4920253M54.0412561 9.81778077L54.0412561 11.3620284 56.7457317 11.3620284 56.7457317 9.81778077C56.7457248 9.30304146 56.619516 8.92141665 56.367104 8.67290634 56.1327106 8.40666788 55.8081746 8.27354392 55.3934932 8.27353311 54.9788022 8.27354392 54.6452506 8.40666788 54.3928372 8.67290634 54.1584466 8.92141665 54.041252 9.30304146 54.0412561 9.81778077L54.0412561 9.81778077M63.852504 19.2163934L63.852504 5.71753633 66.6110684 5.71753633 66.6110684 7.0221587 66.6651587 7.0221587C66.9536313 6.5961723 67.2961984 6.25004838 67.6928598 5.9837856 68.1075398 5.69979872 68.6304045 5.5577992 69.2614551 5.55778568 69.2975075 5.5577992 69.3335681 5.5577992 69.3696343 5.55778568 69.4056866 5.5577992 69.4417459 5.5577992 69.4778134 5.55778568 70.1268799 5.61104986 70.7218631 5.88617334 71.262767 6.38316018 71.8216827 6.88017134 72.101144 7.70554449 72.1011536 8.85928232L72.1011536 19.2163934 69.3425891 19.2163934 69.3425891 9.87103009C69.3425823 9.37404055 69.225389 8.98354153 68.9910066 8.69953167 68.7566132 8.41554344 68.4230617 8.27354392 67.990352 8.27353311 67.4855115 8.27354392 67.1249148 8.43329321 66.9085607 8.75278234 66.7102293 9.07229173 66.6110657 9.53379119 66.6110684 10.1372807L66.6110684 19.2163934 63.852504 19.2163934 63.852504 19.2163934"/>
    <rect width="8.239" height="2.518" x="26.416" y="5.732"/>
  </g>
</svg>
