<svg xmlns="http://www.w3.org/2000/svg" width="100" height="40" viewBox="0 0 100 40" xmlns:xlink="http://www.w3.org/1999/xlink">
  <defs>
    <polygon id="a" points="0 21.893 72.154 21.893 72.154 0 0 0"/>
  </defs>
  <g fill="none" fill-rule="evenodd" transform="translate(14 9)">
    <mask id="b" fill="white">
      <use xlink:href="#a"/>
    </mask>
    <path fill="#000000" d="M71.5256331,4.13941662 L71.5256331,3.95133458 L71.64196,3.95133458 C71.7351914,3.95133458 71.7701743,3.98665354 71.7701743,4.04546132 C71.7701743,4.10409766 71.7351914,4.13941662 71.6421298,4.13941662 L71.5256331,4.13941662 Z M71.8399705,4.04546132 C71.8399705,3.92784575 71.7584567,3.8808681 71.64196,3.8808681 L71.4558369,3.8808681 L71.4558369,4.42162541 L71.5256331,4.42162541 L71.5256331,4.20988309 L71.64196,4.20988309 L71.7701743,4.42162541 L71.8515183,4.42162541 L71.711926,4.19822441 C71.7934397,4.18639427 71.8399705,4.13941662 71.8399705,4.04546132 L71.8399705,4.04546132 Z M71.64196,4.60970746 C71.3860408,4.60970746 71.1880303,4.40979528 71.1880303,4.15124676 C71.1880303,3.90435693 71.3860408,3.7046162 71.64196,3.7046162 C71.8865013,3.7046162 72.0845117,3.90435693 72.0845117,4.15124676 C72.0845117,4.40979528 71.8865013,4.60970746 71.64196,4.60970746 L71.64196,4.60970746 Z M71.64196,3.63397827 C71.3510578,3.63397827 71.1182342,3.86920942 71.1182342,4.15124676 C71.1182342,4.44511424 71.3510578,4.68017393 71.64196,4.68017393 C71.9214842,4.68017393 72.1543079,4.44511424 72.1543079,4.15124676 C72.1543079,3.86920942 71.9214842,3.63397827 71.64196,3.63397827 L71.64196,3.63397827 Z M29.7933098,-0.000102870763 C28.823466,-0.000102870763 28.0601237,0.770742044 28.0601237,1.77064586 C28.0601237,2.74963262 28.823466,3.52030608 29.7933098,3.52030608 C30.80442,3.52030608 31.5677623,2.74963262 31.5677623,1.77064586 C31.5677623,0.770742044 30.80442,-0.000102870763 29.7933098,-0.000102870763 L29.7933098,-0.000102870763 Z M36.3337694,1.5206699 L33.6928937,1.5206699 L33.6928937,4.81184851 L32.2691202,4.81184851 L32.2691202,7.18644861 L33.6928937,7.18644861 L33.6928937,15.4978919 L36.3337694,15.4978919 L36.3337694,7.18644861 L37.7780912,7.18644861 L37.7780912,4.81184851 L36.3337694,4.81184851 L36.3337694,1.5206699 Z M55.7077199,7.06146064 C56.8217412,7.06146064 57.7296006,7.64473786 58.4309585,8.45741689 L60.2672256,6.62425989 C59.235737,5.31180041 57.6058016,4.47871869 55.7489863,4.47871869 C52.5507603,4.47871869 50.0336836,6.93664411 50.0336836,10.1444974 C50.0336836,13.3523507 52.5507603,15.810619 55.7489863,15.810619 C57.6058016,15.810619 59.235737,14.9771944 60.2672256,13.6650778 L58.4309585,11.8319208 C57.7503187,12.6233399 56.8217412,13.2275342 55.6870019,13.2275342 C53.9949123,13.2275342 52.6952774,11.8943291 52.6952774,10.1444974 C52.6952774,8.39483717 53.9949123,7.06146064 55.7077199,7.06146064 L55.7077199,7.06146064 Z M67.0965495,4.47871869 C65.7969146,4.47871869 64.6825537,4.97849914 63.8986631,5.83249792 L63.8986631,0.291707193 L61.2576176,0.291707193 L61.2576176,15.4978919 L63.8986631,15.4978919 L63.8986631,9.68620815 C63.8986631,8.14468977 64.8683371,7.08237769 66.4777243,7.08237769 C67.9840304,7.08237769 68.8090175,8.01970179 68.8090175,9.68620815 L68.8090175,15.4978919 L71.450063,15.4978919 L71.450063,9.20717329 C71.450063,6.24929596 69.6139658,4.47871869 67.0965495,4.47871869 L67.0965495,4.47871869 Z M43.720104,4.47871869 C40.5427659,4.47871869 38.1287701,6.93664411 38.1287701,10.2069057 C38.1287701,13.4358474 40.3364342,15.810619 43.7612005,15.810619 C45.659452,15.810619 47.3513718,15.1021824 48.5893618,13.7689773 L46.8150792,11.9985714 C45.9483163,12.8316532 45.0200785,13.4358474 43.8231849,13.4358474 C42.379033,13.4358474 41.2853901,12.6025943 40.9141629,11.2068095 L49.1463725,11.2068095 L49.1463725,10.561124 C49.1463725,6.91572706 46.9181601,4.47871869 43.720104,4.47871869 L43.720104,4.47871869 Z M40.8523483,9.04052266 C41.2028575,7.62399226 42.2757822,6.83240174 43.6582894,6.83240174 C45.0406267,6.83240174 46.0721153,7.6030752 46.402246,9.04052266 L40.8523483,9.04052266 Z M21.7259958,19.2891938 C20.034076,19.2891938 18.693005,17.9561602 18.693005,16.2272456 L16.010863,16.2272456 C16.010863,19.4349274 18.5279397,21.8930243 21.7259958,21.8930243 C24.9238822,21.8930243 27.4412985,19.4349274 27.4412985,16.2272456 L24.7589866,16.2272456 C24.7589866,17.9561602 23.4179156,19.2891938 21.7259958,19.2891938 L21.7259958,19.2891938 Z M28.4935052,15.4978919 L31.1345507,15.4978919 L31.1345507,4.81184851 L28.4935052,4.81184851 L28.4935052,15.4978919 Z M3.39640628e-05,15.4978919 L2.64107949,15.4978919 L2.64107949,0.291707193 L3.39640628e-05,0.291707193 L3.39640628e-05,15.4978919 Z M9.38770092,4.47871869 C6.18981459,4.47871869 3.67273789,6.93664411 3.67273789,10.1444974 C3.67273789,13.3523507 6.18981459,15.810619 9.38770092,15.810619 C12.5859269,15.810619 15.1028338,13.3523507 15.1028338,10.1444974 C15.1028338,6.93664411 12.5859269,4.47871869 9.38770092,4.47871869 L9.38770092,4.47871869 Z M9.38770092,13.2275342 C7.69595095,13.2275342 6.35471011,11.8735835 6.35471011,10.1235803 C6.35471011,8.39483717 7.69595095,7.06146064 9.38770092,7.06146064 C11.1003388,7.06146064 12.4414098,8.39483717 12.4414098,10.1444974 C12.4414098,11.8943291 11.1003388,13.2275342 9.38770092,13.2275342 L9.38770092,13.2275342 Z M27.3380477,6.93664411 L27.3380477,4.81184851 L23.6240775,4.81184851 C23.0258005,4.60370666 22.3860874,4.47871869 21.7259958,4.47871869 C18.5279397,4.47871869 16.010863,6.93664411 16.010863,10.1444974 C16.010863,13.3523507 18.5279397,15.810619 21.7259958,15.810619 C24.9238822,15.810619 27.4412985,13.3523507 27.4412985,10.1444974 C27.4412985,9.06126826 27.1522643,7.99895619 26.5747054,7.20736567 L27.3380477,6.93664411 Z M21.7259958,13.2275342 C20.034076,13.2275342 18.693005,11.8735835 18.693005,10.1235803 C18.693005,8.39483717 20.034076,7.06146064 21.7259958,7.06146064 C23.4384639,7.06146064 24.7797047,8.39483717 24.7797047,10.1444974 C24.7797047,11.8943291 23.4384639,13.2275342 21.7259958,13.2275342 L21.7259958,13.2275342 Z" mask="url(#b)"/>
  </g>
</svg>
