<svg xmlns="http://www.w3.org/2000/svg" width="17" height="12" viewBox="0 0 17 12">
  <path fill="#FFFFFF" fill-rule="evenodd" d="M1.51323176,11.9528809 L15.4867682,11.9528809 C15.8949924,11.9528809 16.2517152,11.8038457 16.557694,11.5220069 C16.8470106,11.2239365 17,10.8764336 17,10.4787605 L17,3.14283546 C16.7273456,3.44090583 16.4047046,3.7057753 16.0479818,3.93744386 C13.9735365,5.31196145 12.4095607,6.37143932 11.3219727,7.13358461 C10.9652499,7.39845407 10.6759334,7.59692172 10.4547804,7.74595691 C10.2169652,7.87876054 9.92764858,8.02779573 9.55350619,8.17683092 C9.18012118,8.3258661 8.84006059,8.40849947 8.51666221,8.40849947 C8.15993941,8.40849947 7.81987882,8.3258661 7.44573643,8.17683092 C7.07159405,8.02779573 6.78303484,7.87876054 6.54521964,7.74595691 C6.32406665,7.59692172 6.03475007,7.39845407 5.67802727,7.13358461 C4.81083489,6.5204745 3.24685913,5.46099664 0.952018177,3.93744386 C0.595295376,3.7057753 0.271896997,3.44090583 0,3.14283546 L0,10.4787605 C0,10.8764336 0.152989397,11.2239365 0.442305979,11.5220069 C0.748284772,11.8038457 1.10500757,11.9528809 1.51323176,11.9528809 Z M1.63213936,2.96059936 C1.85329235,3.10963455 2.49857436,3.53977076 3.57025751,4.26871514 C4.6578455,5.01389108 5.49095607,5.56059936 6.06883186,5.95753466 C6.11957587,6.00770492 6.25590306,6.10656985 6.45963646,6.23937348 C6.66412724,6.38840867 6.83377885,6.50424295 6.97010603,6.58687632 C7.10567584,6.68647904 7.27608483,6.78608177 7.46315602,6.90191605 C7.66688942,7.00078097 7.83654103,7.08415214 8.02361222,7.15055396 C8.19402121,7.19998642 8.3470106,7.23318733 8.48258042,7.23318733 C8.6529894,7.23318733 8.80597879,7.19998642 8.9756304,7.15055396 C9.16270159,7.08415214 9.33311058,7.00078097 9.53684398,6.90191605 C9.72391517,6.78608177 9.89356678,6.68647904 10.029894,6.58687632 C10.1654638,6.50424295 10.3358728,6.38840867 10.5396062,6.23937348 C10.7440969,6.10656985 10.8796668,6.00770492 10.9311681,5.95753466 C11.5257061,5.56059936 13.0048561,4.56678551 15.3845229,2.96059936 C15.843491,2.64555963 16.2176334,2.26485589 16.5410318,1.81775033 C16.8470106,1.37064476 17,0.906569849 17,0.426263379 C17,0.0123587254 16.955247,0 16.5470228,0 L0.573486328,0 C0.097098553,0 0,0.145162358 0,0.625468828 C0,1.02240413 0.169651608,1.43704658 0.527131783,1.88415214 C0.867192373,2.34748926 1.24133476,2.6949921 1.63213936,2.96059936 Z"/>
</svg>
