<svg xmlns="http://www.w3.org/2000/svg" width="17" height="17" viewBox="0 0 17 17">
  <path fill="#FFFFFF" fill-rule="evenodd" d="M0.0433599728,4.73614103 C0.0655217367,4.93079016 0.130079918,5.16880172 0.1946381,5.4280127 C0.260159837,5.68818728 0.324718018,5.88283641 0.368077991,5.99076068 C0.411437964,6.12084798 0.49815791,6.33669652 0.606076064,6.66143294 C0.735192428,6.98616937 0.800714164,7.1808185 0.844074137,7.26657975 C1.12543218,8.04517628 1.44918665,8.75921097 1.83846285,9.36532139 C2.46573712,10.4031289 3.33100947,11.4630994 4.43427988,12.5664324 C5.53658675,13.6688017 6.59649719,14.5341231 7.63520943,15.1614329 C8.24032194,15.5507312 8.95431616,15.8754676 9.73286856,16.1568416 C9.81958851,16.1992404 10.0142266,16.2647659 10.3379811,16.3938896 C10.6626991,16.5027775 10.879499,16.5885387 11.0086153,16.6319011 C11.1165335,16.6752636 11.3111716,16.740789 11.5713314,16.8053509 C11.8305277,16.8699127 12.0685258,16.9354382 12.2631639,16.9566376 C12.4790002,16.9788006 12.6746018,17 12.9116363,17 C13.6477923,17 14.3829848,16.8053509 15.1393754,16.3938896 C15.9612878,15.9400295 16.4584821,15.5073688 16.6107238,15.0968711 C16.718642,14.902222 16.7832001,14.620848 16.8699201,14.2749121 C16.95664,13.9289763 17,13.6476023 17,13.4307902 C17,13.3228659 16.9778382,13.236141 16.95664,13.1715792 C16.9132801,13.0202925 16.6107238,12.8256434 16.0480077,12.5442694 C15.8967296,12.4363451 15.6799297,12.3284208 15.3995352,12.1771341 C15.0960154,12.0248838 14.8580173,11.8735971 14.6209828,11.7444734 C14.3829848,11.6143861 14.1883467,11.5064619 13.9715468,11.3763746 C13.9503486,11.3551752 13.8424304,11.2896497 13.6689905,11.160526 C13.4955506,11.0516381 13.3664343,10.9658769 13.2363544,10.9003514 C13.1284362,10.856989 13.0205181,10.8136266 12.9116363,10.8136266 C12.73916,10.8136266 12.5445219,10.9437139 12.3065238,11.160526 C12.0473276,11.397574 11.8305277,11.6355855 11.6358896,11.9169595 C11.4412515,12.1771341 11.2254152,12.4363451 10.9874171,12.6521936 C10.7706172,12.8902052 10.5759791,12.9990931 10.4468628,12.9990931 C10.3601428,12.9990931 10.2734229,12.9769301 10.1655047,12.9335676 C10.0575866,12.9123682 9.97086663,12.8690058 9.92750666,12.8468428 C9.86294848,12.8034803 9.77622853,12.7610815 9.62495041,12.6743566 C9.49487049,12.5876318 9.40815054,12.5442694 9.40815054,12.5442694 C8.30488012,11.9169595 7.35385139,11.2250879 6.57529899,10.4243283 C5.77458482,9.64573178 5.08275237,8.69464913 4.45547809,7.59131618 C4.45547809,7.59131618 4.41211812,7.50459132 4.32539817,7.37546763 C4.23964178,7.22321732 4.19628181,7.13745607 4.15292184,7.07193062 C4.13076007,7.0295318 4.08836366,6.94280694 4.06620189,6.83391906 C4.02284192,6.72599479 4.00164371,6.63926992 4.00164371,6.55350867 C4.00164371,6.42342138 4.10956187,6.22877225 4.34755994,6.0129237 C4.56339625,5.77491214 4.82355608,5.55809999 5.08275237,5.36345086 C5.36411041,5.16880172 5.60210848,4.95295318 5.84010656,4.6927786 C6.05594287,4.45476703 6.18602279,4.2601179 6.18602279,4.08763179 C6.18602279,3.97970752 6.14266281,3.87081963 6.09930284,3.76289536 C6.03474466,3.63377168 5.94802471,3.50368439 5.84010656,3.33023467 C5.71002664,3.15774855 5.64546846,3.04886067 5.62330669,3.02766126 C5.49322678,2.81181272 5.38530862,2.61716359 5.25619226,2.37915202 C5.12611234,2.14114046 4.97483421,1.9031289 4.82355608,1.60055549 C4.67227796,1.3191815 4.56339625,1.10236935 4.45547809,0.951082644 C4.17412005,0.389298266 3.97948195,0.0857612516 3.82820382,0.0433624306 C3.76364564,0.0211994105 3.67692569,0 3.56900754,0 C3.35220767,0 3.07181318,0.0433624306 2.7249334,0.129123682 C2.37901717,0.215848543 2.09862268,0.280410384 1.90398458,0.389298266 C1.49254662,0.540584968 1.05991045,1.0378075 0.606076064,1.85976647 C0.1946381,2.61716359 0,3.35239769 0,4.08763179 C0,4.32564335 0.0221617639,4.52029248 0.0433599728,4.73614103"/>
</svg>
