<svg xmlns="http://www.w3.org/2000/svg" xmlns:xlink="http://www.w3.org/1999/xlink" width="120" height="120" viewBox="0 0 120 120">
  <defs>
    <path id="daniel-a" d="M120,59.9999233 C120,93.1369885 93.1369885,120 59.9999233,120 C26.8628581,120 0,93.1369885 0,59.9999233 C0,26.8628581 26.8628581,0 59.9999233,0 C93.1369885,0 120,26.8628581 120,59.9999233"/>
  </defs>
  <g fill="none" fill-rule="evenodd">
    <mask id="daniel-b" fill="#fff">
      <use xlink:href="#daniel-a"/>
    </mask>
    <use fill="#7BCAEC" xlink:href="#daniel-a"/>
    <g mask="url(#daniel-b)">
      <g transform="translate(-10 7)">
        <path fill="#E9E9E9" d="M14.1091908,100.83873 C14.8248433,100.206847 44.7768942,88.9813559 44.7768942,88.9813559 L47.3806005,87.3430086 C47.3806005,87.3430086 48.2489017,81.6551671 49.406038,80.7875252 C50.5631743,79.9198833 51.2384199,79.1488787 51.2384199,79.1488787 C51.2384199,79.1488787 85.8815719,80.0240003 87.2209885,80.5987383 C88.5601059,81.1734762 89.4281078,82.2334953 90.1030541,83.3904509 C90.7782997,84.5471073 91.3568678,86.7643812 91.3568678,86.7643812 C91.3568678,86.7643812 107.558572,92.258948 112.187716,94.1872074 C116.81656,96.1151675 121.726158,97.8109587 125.038932,100.491673 C128.352006,103.172387 135.766238,122.252731 135.766238,122.252731 C135.766238,122.252731 90.175188,134.394631 70.7714551,134.394631 C51.3671236,134.394631 0.254683631,126.825503 0.412420523,125.56443 C0.570456726,124.302759 8.71740258,105.601186 14.1091908,100.83873"/>
        <path fill="#E0A885" d="M87.2209287,80.5986186 L87.2209287,76.4444089 L89.6534291,66.3127449 C89.6534291,66.3127449 90.7683625,65.7050964 91.883296,65.7050964 C92.9982294,65.7050964 94.3160957,64.5903261 94.6198964,64.1852271 C94.9239963,63.7798289 94.7213628,59.7270436 95.0254628,58.8154212 C95.3295627,57.9037988 95.9377627,56.7890285 96.0392291,55.6745575 C96.1403962,54.5600864 96.5456633,50.0007777 96.2415633,49.39283 C95.9377627,48.7848823 94.8225299,47.1638878 94.8225299,47.1638878 C94.8225299,47.1638878 95.2280963,28.1164552 92.2885631,24.1650942 C89.3493291,20.2137333 79.5172624,15.2490264 69.5843279,15.147602 C59.651094,15.0464769 50.6301601,20.4162828 49.211426,22.2398267 C47.7920932,24.0636699 44.9540264,44.3272972 45.1569593,46.1505419 C45.3595928,47.9743851 44.7513929,47.7718356 44.143193,47.9743851 C43.5352923,48.1772338 43.2308931,49.4942544 43.2308931,50.3047516 C43.2308931,51.1152488 43.1297259,54.7629351 43.5352923,56.0799557 C43.9405594,57.3969763 44.3461258,59.5247933 44.3461258,60.9432382 C44.3461258,62.3613839 44.3461258,64.2866514 45.6636928,64.6917504 C46.9812598,65.0971486 49.0084931,65.2996982 49.0084931,65.2996982 L52.0491935,75.5324874 C52.0491935,75.5324874 51.54246,84.0434562 51.4412928,84.6511047 C51.3398264,85.2590524 53.265294,90.6288583 54.3805268,92.3512771 C55.4954602,94.0736959 58.7390934,99.6460513 58.7390934,99.6460513 L62.8944279,104.914433 C62.8944279,104.914433 68.0641273,105.927779 68.5705615,107.04225 C69.0775943,108.156721 73.3346946,113.830501 73.5373281,113.121129 C73.740261,112.412056 78.8078953,105.927779 79.9228288,103.800261 C81.0380615,101.672743 85.2885923,99.8880217 85.1871258,98.8746758 C85.0856594,97.8616291 87.8288293,86.9814712 87.8288293,86.9814712 L87.2209287,80.5986186 Z"/>
        <path fill="#5D433A" d="M63.6264528 71.6852435C65.7817912 72.8451909 67.6482946 73.5339191 69.5378449 73.444163 71.4270958 73.3541078 76.3765024 71.0156632 76.9161601 71.6451524 77.4561171 72.2749408 76.3765024 73.7137304 75.3866809 74.3435188 74.3965602 74.9730079 73.407038 76.502152 74.5767454 76.7720186 75.7464527 77.0415859 77.2762312 75.9624189 78.6258245 74.6133853 79.975717 73.2640525 81.7751747 71.1057185 81.7751747 71.1057185 81.7751747 71.1057185 80.1556029 81.7187742 79.0756889 82.9780517 77.9960741 84.2373293 71.1574166 86.4860178 71.1574166 86.4860178 71.1574166 86.4860178 63.9589873 86.0363399 62.1595296 84.3273845 60.3597726 82.6184291 58.3801297 72.0948303 58.3801297 72.0948303 58.3801297 72.0948303 60.8997297 73.9838961 61.6195726 74.8829527 62.3391162 75.7823084 63.5989162 76.7720186 64.6788302 77.1316412 65.758445 77.4912638 67.2882235 76.3223407 66.8380597 75.512741 66.3884946 74.7031414 63.7135523 74.0230896 63.4435738 73.3936005 63.1735953 72.7638121 62.4570448 71.0557543 63.6264528 71.6852435M83.0994762 66.3629784C83.5969311 66.7181132 85.7298212 64.444293 86.5116215 63.9470444 87.2937211 63.4494967 88.2889301 63.7337242 89.7818934 61.8150388 91.2745573 59.8966526 92.6962845 54.780258 92.8387565 55.348713 92.9809292 55.9171681 91.8674924 63.6696982 91.5831469 64.5223808 91.2988015 65.3750633 90.2084115 70.4842774 89.2132025 72.1899418 88.2179934 73.8953069 85.5164124 77.1642226 85.0186583 77.0930161 84.5212034 77.0221089 83.0994762 75.4585583 83.2416489 73.3268519 83.3838216 71.1948463 83.0994762 66.3629784 83.0994762 66.3629784M46.8436964 54.4247342C47.1989786 55.5619435 49.3318687 61.0334729 49.8296229 61.6731345 50.3270777 62.3124968 53.1708315 63.5206134 53.8104591 64.4442032 54.450386 65.3680923 56.1564586 66.6474153 56.4405047 67.0734574 56.7251495 67.4997987 59.3554945 74.6769924 58.4312221 75.8139025 57.5072491 76.9508126 53.4551769 76.1693365 53.4551769 76.1693365 53.4551769 76.1693365 50.3270777 71.0529419 49.6162141 68.9921428 48.9053505 66.9316428 46.8436964 54.4247342 46.8436964 54.4247342"/>
        <path fill="#B9736B" d="M61.9895808,68.8485032 C61.9895808,68.8485032 64.5660499,71.0035462 65.0919393,71.3188891 C65.6178287,71.6345313 67.5109707,72.5279033 68.6678077,72.6329179 C69.8246447,72.7382316 72.1909973,72.4752464 72.7695655,72.1599034 C73.3478343,71.8445605 76.2400764,70.2675465 76.8186446,69.7418752 C77.3969134,69.2162038 78.2909553,68.2178173 78.2909553,68.2178173 C78.2909553,68.2178173 70.824044,67.7448028 69.1936971,68.0071897 C67.5636494,68.270175 62.9360022,68.4281456 61.9895808,68.8485032"/>
        <path fill="#954D4A" d="M78.6960428,68.3103258 C78.7882306,68.1092723 74.1737531,67.3113409 73.4377473,67.1013117 C72.7014423,66.8909833 71.1997991,66.5558941 71.1237741,67.0486548 C71.1091078,67.1446938 69.4754684,67.2341507 68.9373073,66.9828337 C68.4853477,66.7716078 67.3596391,66.8251622 66.623334,67.0351914 C65.8873283,67.2455198 61.4736884,68.2854933 61.2770411,68.5628396 C61.050762,68.8811744 62.1324719,68.6603745 62.0788952,68.6780265 L64.4715873,68.5233469 C64.4715873,68.5233469 68.3105501,68.9437044 69.0465558,68.9963613 C69.3105481,69.0149109 70.9666358,68.9227614 71.0381711,68.917376 C71.7744762,68.8650183 75.3964385,68.5233469 75.3964385,68.5233469 L77.9540509,68.429103 C77.9130453,68.4156396 78.603855,68.5110802 78.6960428,68.3103258"/>
        <path fill="#A67860" d="M64.577274 55.1116374C64.5051401 55.3126909 63.7026873 56.5414514 63.8888587 57.2783487 64.0747309 58.0152459 64.1803876 58.0774768 64.7164536 58.082563 65.2525196 58.0873499 67.0621539 57.3504527 67.3973822 57.4174706 67.7323112 57.4844884 67.7511678 57.7426867 69.3168636 58.082563 70.88226 58.4224392 71.686808 57.3504527 72.1558283 57.4844884 72.6251479 57.6185241 74.2979971 57.3405795 75.0702194 58.082563 75.8421425 58.8242472 76.6308269 58.7826602 76.7727003 58.3012686 76.9145737 57.8195777 76.9223558 56.5614969 76.9223558 56.5614969 76.9223558 56.5614969 78.2486028 58.692605 77.4808701 59.6963769 76.7134368 60.700448 75.5739598 61.3679339 74.3677365 60.9003049 73.1612139 60.4323766 71.2638815 60.1867442 71.2638815 60.1867442 71.2638815 60.1867442 70.2067151 60.8913293 69.717641 60.5891505 69.2285668 60.2866726 69.198935 59.7472387 67.8664025 59.6963769 66.53387 59.645216 65.8969362 61.3137811 65.1235166 60.9003049 64.3503963 60.4862302 62.7335183 59.5895672 62.7335183 58.436501 62.7335183 57.283734 62.69371 57.789659 63.0711411 56.9079553 63.4485723 56.0265508 64.577274 55.1116374 64.577274 55.1116374M64.2054699 40.6922366C62.4829352 40.0645425 58.7732747 40.4741293 58.354838 40.5579017 57.9364012 40.6413748 56.3344888 41.4228509 56.3344888 41.4228509 56.3344888 41.4228509 58.5137721 41.6212118 58.6122454 42.2599758 58.7104194 42.8987397 58.0501394 42.9878974 58.0501394 42.9878974 58.0501394 42.9878974 56.3329922 43.4160338 55.3072535 44.1002742 54.3937563 44.7097178 53.969932 46.255018 53.8882201 46.5862178 53.7232997 47.0062762 53.6460775 47.4296256 53.8927097 47.6055475 54.4563123 48.008253 58.0806691 49.698958 59.6996423 50.1205123 60.037265 50.2084732 59.1767459 51.7062027 59.4428334 51.6924401 60.8313371 51.786684 64.6595247 50.2650196 66.2752054 48.7693844 66.2752054 48.7693844 67.3242904 46.564078 67.366194 44.9942445 67.4077982 43.424411 65.9280047 41.3193322 64.2054699 40.6922366M80.7695197 42.7183899C80.8204026 42.3123933 81.5119111 42.8944828 81.5119111 42.8944828 81.5119111 42.8944828 83.9943921 41.6908436 83.384995 41.5382583 82.7749992 41.3859722 78.0149607 40.1851747 76.3388191 40.5406087 74.6623783 40.8957435 73.8617214 42.5155412 73.5570228 43.6324057 73.2520249 44.7492703 73.5061399 47.2881701 74.2681857 48.1004624 75.0296328 48.9124556 80.1601225 50.232468 79.6521918 49.217327 79.144261 48.2015876 80.3887961 48.0852039 80.3887961 48.0852039 80.3887961 48.0852039 78.5854474 44.1398267 79.5504261 44.292412 80.515704 44.4446981 80.7186368 43.1246856 80.7695197 42.7183899z"/>
        <path fill="#AAA3A4" d="M76.4900909 45.6980393C76.3386395 45.5730293 77.4649468 44.904834 78.4152592 44.5416875 79.3652723 44.1788659 80.5759852 44.014508 82.0893016 44.7537936 83.602618 45.4924296 84.4391922 46.4486936 84.4391922 46.4486936 84.4391922 46.4486936 82.0515884 47.2993917 81.2192045 47.4224977 80.38712 47.5452789 78.8624298 47.1623186 78.0414198 46.8884971 77.2198111 46.6150004 76.084395 46.5359474 76.084395 46.5359474L76.4900909 45.6980393zM55.5731015 46.2029296C55.762266 46.051541 56.6703756 44.8413301 57.9188017 44.6145465 59.1672279 44.3877628 60.5293922 44.2366735 61.777519 44.5014538 63.0262445 44.765935 64.3503963 45.9004516 64.3503963 45.9004516 64.3503963 45.9004516 64.3503963 46.3163214 64.1612317 46.4677099 63.9723665 46.6190985 63.215409 46.9212772 63.215409 46.9212772 63.215409 46.9212772 61.702392 47.4888347 60.264502 47.564529 58.8269113 47.6402233 57.4267344 47.1860576 56.972979 46.9212772 56.5189242 46.656796 55.5731015 46.2029296 55.5731015 46.2029296"/>
        <path fill="#D8CECD" d="M56.334848 46.4892813C56.334848 46.4892813 57.1950677 45.9743807 59.2615108 45.8286767 61.3285525 45.6826735 61.8328915 45.228807 62.5892504 45.7332361 63.3462079 46.2370668 63.8502476 46.5398439 63.6990956 46.5901073 63.5479435 46.6406699 62.9331587 47.379063 60.264502 47.5645589 57.5958452 47.7497556 56.334848 46.4892813 56.334848 46.4892813M76.9224157 46.6160767C76.9224157 46.6160767 78.3348643 45.6811177 79.7975971 45.6811177 81.2603299 45.6811177 82.723362 46.336337 82.723362 46.336337L83.3788531 46.6893775C83.3788531 46.6893775 82.5335988 47.2958293 80.6862514 47.3960569 78.8392033 47.4959853 76.9224157 46.6160767 76.9224157 46.6160767"/>
        <path fill="#4F392E" d="M61.8478272 44.361943C61.8478272 44.361943 63.5395329 44.9405704 63.9852069 45.1631654 64.4302824 45.3854613 65.0091498 45.9195098 65.1869406 46.2312625 65.3653299 46.5427161 65.409628 46.8987484 65.409628 46.8987484 65.409628 46.8987484 64.7418651 47.1659223 64.6083724 47.1659223 64.4745804 47.1659223 63.8514149 47.1213435 63.6287276 47.0767646 63.4060402 47.032485 62.0259172 47.4773758 62.0259172 47.4773758 62.0259172 47.4773758 62.2486046 47.1213435 62.7828747 46.8541696 63.3171448 46.5869957 63.7622203 46.9876069 64.1629977 46.8098899 64.5637751 46.6318738 64.7418651 46.4092787 64.6529698 46.2755422 64.5637751 46.1421049 63.2279501 45.2520239 63.2279501 45.2520239L61.8478272 44.361943zM56.4602293 45.5189585L55.8367645 46.275602C55.8367645 46.275602 56.415632 46.8096506 56.6826174 46.9876668 56.9499021 47.1659822 57.5284703 47.3439983 57.5284703 47.3439983 57.5284703 47.3439983 56.9944994 47.610873 56.4602293 47.2994195 55.9259592 46.9876668 54.946015 46.4536182 54.946015 46.4536182L56.4602293 45.5189585zM76.7299065 44.9720939C77.0414892 44.7918884 79.0031257 44.1617054 79.0031257 44.1617054L78.763535 44.381411C78.763535 44.381411 77.4285572 45.0052183 76.8942871 45.320805 76.360017 45.6360888 76.2491455 46.3477548 76.2491455 46.3477548L76.5526469 46.5328061 77.6741652 46.5730873 78.2530326 46.9786254 79.1880802 47.323893C79.1880802 47.323893 77.5849705 46.8883712 77.3622831 46.9786254 77.1398951 47.0688795 76.1659371 46.9780196 75.9432497 46.8429412 75.7208616 46.70756 75.7525886 46.0772951 75.8417833 45.8522654 75.8417833 45.8522654 76.4180244 45.1526022 76.7299065 44.9720939z"/>
        <path fill="#3E2B21" d="M83.1494611,47.0175256 C83.3278505,46.9283679 84.3517934,46.5723356 84.3517934,46.5723356 L84.307196,46.1271455 L85.5538263,46.7949306 C85.5538263,46.7949306 85.1530489,46.8840883 84.4406887,47.0175256 C83.7286279,47.150963 82.5705937,47.3732588 82.5705937,47.3732588 L83.1494611,47.0175256 Z"/>
        <path fill="#301A13" d="M61.7595604,44.8425568 C62.1456715,45.8197011 61.6661753,46.924299 60.6889249,47.3102501 C59.7110759,47.6959019 58.6060198,47.2169038 58.2199086,46.2397595 C57.8337974,45.2626151 58.3132936,44.1580172 59.2908433,43.7720662 C60.268393,43.3861151 61.3737485,43.8654125 61.7595604,44.8425568"/>
        <path stroke="#1D0500" stroke-width=".515" d="M61.7595604,44.8425568 C62.1456715,45.8197011 61.6661753,46.924299 60.6889249,47.3102501 C59.7110759,47.6959019 58.6060198,47.2169038 58.2199086,46.2397595 C57.8337974,45.2626151 58.3132936,44.1580172 59.2908433,43.7720662 C60.268393,43.3861151 61.3737485,43.8654125 61.7595604,44.8425568 Z"/>
        <path fill="#1D0500" d="M61.9290901,45.2793696 C61.9290901,45.2793696 61.0081102,45.0322413 60.0024252,45.1270835 C59.0733639,45.2147452 58.0410403,45.6315126 58.0634887,45.7302442 C57.9389753,44.6633439 58.7034155,43.6975686 59.7707585,43.5731069 C60.8381015,43.4486452 61.8045767,44.2127684 61.9290901,45.2793696"/>
        <path fill="#000" d="M60.7178084,45.2536695 C60.8764433,45.6557766 60.6794966,46.1102415 60.2772227,46.2691097 C59.875248,46.4276787 59.4205946,46.2305146 59.2616605,45.8287066 C59.1027263,45.4265995 59.3002716,44.9721346 59.7019469,44.8132664 C60.1042209,44.6546974 60.5591736,44.8518615 60.7178084,45.2536695"/>
        <path fill="#FEFEFE" d="M61.1205912,45.277036 C61.1256795,45.4625318 60.9793165,45.6172114 60.7937436,45.6219984 C60.6081708,45.6273838 60.453427,45.4810814 60.4486381,45.2955855 C60.4432505,45.1100897 60.5899129,44.9557093 60.7754857,44.9503239 C60.9610585,44.9455369 61.1152036,45.0915401 61.1205912,45.277036"/>
        <path fill="#301A13" d="M82.0410826,44.9699506 C82.4268945,45.9470949 81.9476976,47.051992 80.9701479,47.4376438 C79.9925982,47.8235949 78.8872427,47.3445967 78.5011315,46.3674524 C78.1153196,45.3903081 78.5945165,44.285411 79.5720662,43.8997591 C80.5496159,43.5138081 81.6549714,43.9928062 82.0410826,44.9699506"/>
        <path stroke="#1D0500" stroke-width=".515" d="M82.0410826,44.9699506 C82.4268945,45.9470949 81.9476976,47.051992 80.9701479,47.4376438 C79.9925982,47.8235949 78.8872427,47.3445967 78.5011315,46.3674524 C78.1153196,45.3903081 78.5945165,44.285411 79.5720662,43.8997591 C80.5496159,43.5138081 81.6549714,43.9928062 82.0410826,44.9699506 Z"/>
        <path fill="#1D0500" d="M82.2640992,45.6875503 C82.2640992,45.6875503 81.3874173,45.3126691 80.3778414,45.2645 C79.4460862,45.2202204 78.3649749,45.4867959 78.3730563,45.587921 C78.4008923,44.5141394 79.2940363,43.6662438 80.3685627,43.693769 C81.4430892,43.7212942 82.2916358,44.6137686 82.2640992,45.6875503"/>
        <path fill="#000" d="M80.9990613,45.3813325 C81.1579955,45.7834396 80.9607495,46.2376053 80.5584755,46.3964735 C80.1568002,46.5553418 79.7018475,46.3581776 79.5432127,45.9560705 C79.3839792,45.5539633 79.5815245,45.0997977 79.9834991,44.9409294 C80.3854738,44.7820612 80.8404265,44.9792253 80.9990613,45.3813325"/>
        <path fill="#FEFEFE" d="M81.4018441,45.4047289 C81.4072317,45.5902248 81.2605693,45.7449044 81.0749965,45.7496914 C80.8894237,45.7547775 80.7349792,45.6087744 80.7298909,45.4232785 C80.7248027,45.2374835 80.8711657,45.083103 81.0567385,45.0780169 C81.2423114,45.0732299 81.3967558,45.2192331 81.4018441,45.4047289"/>
        <path fill="#4F392E" d="M53.9222218,45.3854314 C53.9222218,45.2074152 54.4564919,44.4064919 55.3023448,43.916723 C56.1481976,43.4272533 57.6621126,42.8037479 59.4879097,42.759169 C61.3134074,42.7145902 62.1287305,42.832769 62.6938297,43.0266421 C64.6360587,43.6932304 65.5980442,45.5709272 65.5980442,45.5709272 C65.5980442,45.5709272 63.2200184,43.3940436 61.9290901,43.2157282 C60.6378625,43.037712 60.1113744,42.8040471 58.1520847,43.2046583 C56.1930943,43.6052695 55.7031222,44.0058807 55.1688521,44.4064919 C54.6345819,44.806804 53.9222218,45.3854314 53.9222218,45.3854314"/>
        <path fill="#A67860" d="M80.7380519,44.1274885 C80.2459846,44.0793194 78.1586299,44.5106688 78.1586299,44.5106688 C78.1586299,44.5106688 78.8186107,42.7493557 79.5815544,42.3556258 C80.3444981,41.9612975 81.877569,42.8959573 82.5504201,43.1742011 C84.351075,43.9188772 85.8613983,46.5424468 85.8613983,46.5424468 C85.8613983,46.5424468 81.2304185,44.1759567 80.7380519,44.1274885 Z"/>
        <path fill="#4F392E" d="M75.0701296,45.2899825 L76.7726105,43.5624776 L77.396674,42.9314925 L77.757643,42.5718699 C77.757643,42.5718699 79.22726,42.3938537 80.0731128,42.4830114 C80.9189657,42.5718699 82.521776,42.8390437 83.4125256,43.2842338 C84.3029758,43.7291247 85.8614881,45.197833 85.8614881,45.197833 C85.8614881,45.197833 83.9021983,43.862562 83.0563455,43.5065296 C82.4194117,43.2387574 80.4292929,42.8836226 79.8504255,42.8390437 C79.271558,42.7944649 78.0940686,43.164559 77.6040965,43.5205914 C77.1141244,43.8766238 75.0701296,45.2899825 75.0701296,45.2899825"/>
        <path fill="#1D0500" d="M76.6545455,44.9560937 C76.6545455,44.9560937 77.7000387,44.4962434 78.4534045,44.2452257 C79.2061717,43.9945071 80.670401,43.7853754 81.6326859,44.1198664 C82.5946714,44.4543573 84.2681191,45.4581292 84.3932311,45.5416023 C84.5189417,45.6250755 85.9511448,46.5034881 85.9511448,46.5034881 C85.9511448,46.5034881 85.2289074,46.5974328 84.6853586,46.3883012 C84.1415106,46.1794687 82.4273565,44.8726205 81.6742901,44.6634889 C80.9215229,44.4543573 79.3734865,44.2033395 78.5788158,44.4962434 C77.7838458,44.7888482 77.1980942,45.0817521 76.6545455,44.9560937"/>
        <path fill="#A67860" d="M78.3730563 47.1232882C78.3730563 47.1232882 79.0755392 47.3437889 80.1506643 47.4775254 81.2257894 47.6109628 83.3152794 46.9479647 83.3152794 46.9479647 83.3152794 46.9479647 81.0593725 48.194078 80.1506643 48.0773951 79.2419561 47.9610114 78.3730563 47.1232882 78.3730563 47.1232882M60.1471728 44.0963548C61.1312785 44.2704816 62.2676108 44.6450635 62.2676108 44.6450635 62.2676108 44.6450635 61.4913373 43.2299097 60.3283033 43.1512235 59.1649941 43.0725374 57.3003367 44.0963548 57.8883279 44.6450635"/>
        <path fill="#1D0500" d="M53.8722368,46.6525775 C53.8722368,46.6525775 54.9883675,45.9482916 55.4068043,45.6556869 C55.8249418,45.3627829 57.094619,44.7715897 57.7605859,44.471206 C58.6163161,44.085255 59.6474424,43.870738 60.9018548,43.9709656 C62.3044261,44.0831607 63.3304642,44.6923051 63.5812868,44.8176644 C63.8321094,44.9433229 64.1191486,45.5584511 64.1191486,45.5584511 C64.1191486,45.5584511 62.1948783,44.8891701 61.4418118,44.6800385 C60.6887454,44.471206 59.4337344,44.4293199 58.6390637,44.6384515 C57.844393,44.8475831 56.2789965,45.8564412 55.8189555,46.1909322 C55.3589145,46.5254231 55.4178788,46.6872832 54.87433,46.8548278 C54.3301827,47.0217741 53.8722368,46.6525775 53.8722368,46.6525775"/>
        <path fill="#2F1A16" d="M76.217688 40.7866001C76.217688 40.7866001 74.7112557 40.9631204 74.1401704 40.7866001 73.569085 40.6097807 73.1895587 39.2810918 73.5059304 38.584884 73.8226014 37.8886761 75.3416047 37.0659122 76.7348974 36.9396554 78.1275914 36.8130993 81.0659274 36.6231157 82.160807 36.6231157 83.2559859 36.6231157 84.424496 37.1293398 85.6444876 38.3317719 86.8644792 39.5339047 88.130864 40.1074459 88.4472357 40.8652863 88.7639068 41.6225282 88.8273607 43.4765892 88.130864 43.1824885 87.4343673 42.8880887 82.4245 41.2931235 80.8603007 40.9810716 79.2955029 40.6690197 78.7184313 40.4700604 77.4682093 40.6283303L76.217688 40.7866001zM65.9075318 40.6121742C65.9075318 40.6121742 66.7001073 38.8053847 66.3038195 38.2111996 65.9075318 37.6167153 64.2798786 37.2867121 63.4088836 37.1544715 62.5384873 37.0225301 57.5426875 37.2205918 56.4403251 37.4186535 55.3379628 37.6167153 54.2807964 38.4750824 53.1577815 39.5318104 52.0347667 40.5885384 51.440335 42.8740269 51.1760434 43.0188333 50.9117518 43.1636398 50.6477595 43.732394 52.4972022 43.0188333 54.3469441 42.3052726 56.6588222 41.2871397 58.0793521 40.8386586 59.4995828 40.3904767 63.4127747 40.6268343 64.0984962 40.8386586 64.7845169 41.0507821 65.9075318 40.6121742 65.9075318 40.6121742"/>
        <path fill="#4B2D20" d="M65.1235764 59.6964368C65.1235764 59.6964368 65.6228272 58.5400795 66.072093 58.2405935 66.5213588 57.9414066 67.170265 58.1409642 67.5198602 58.2405935 67.8691562 58.3405219 68.7180021 59.1887166 68.9176426 59.4382385 69.117283 59.6877603 68.3187213 59.0391232 67.5698452 59.1390516 66.8209691 59.2386808 66.3717033 60.2038577 65.1235764 59.6964368M71.5634619 59.6964368C71.5634619 59.6964368 71.6631325 58.6896729 72.1623832 58.4901153 72.6616339 58.2905577 73.2605552 58.1909284 74.0094313 58.4901153 74.7583074 58.7896014 75.4072137 59.6964368 75.4072137 59.6964368 75.4072137 59.6964368 74.558667 59.3885735 73.8597758 59.3885735 73.1608847 59.3885735 72.0127277 58.9562484 71.5634619 59.6964368"/>
        <path fill="#623F30" d="M63.6287874 56.2946522C63.6287874 56.2946522 62.9768881 56.9761998 63.1768278 58.0825929 63.3764683 59.1886867 64.1193581 60.1912619 64.3504262 60.4862602 64.5892764 60.790234 63.5315113 60.2950798 63.120258 59.6964068 62.7090047 59.0974347 62.3336688 56.9432893 63.6287874 56.2946522M69.3168636 60.1367501C69.3168636 60.1367501 69.6664588 60.8036376 70.4650205 60.4951759L71.2638815 60.1867143C71.2638815 60.1867143 70.6311381 60.9912278 70.2067151 60.8912993 69.7825915 60.7916701 69.3168636 60.1367501 69.3168636 60.1367501"/>
        <path fill="#46211C" d="M60.4120623,68.795936 C60.4620472,68.5158971 62.9541105,68.3755785 63.6287575,68.3229216 C64.3034045,68.2702647 67.1426685,68.3755785 67.9316523,68.5592792 C68.7203368,68.7432792 69.6517926,68.795936 70.2905222,68.795936 C70.9289526,68.795936 73.1375684,68.2956956 73.7158372,68.3094582 C74.2944053,68.3229216 75.1225988,68.2950972 76.3386994,68.309159 C77.5545006,68.3229216 78.4934392,67.8612763 78.6589582,68.2176078 C78.8244772,68.5742386 74.2417266,68.795936 73.7158372,68.7432792 C73.1899478,68.6906223 70.5081213,69.2689505 69.9825312,69.2162936 C69.4566418,69.1636367 66.827494,69.0062644 65.828394,68.795936 C64.8292939,68.5856077 60.3620773,69.0759749 60.4120623,68.795936"/>
        <path fill="#4E362D" d="M79.9003206,74.8191062 C79.5450385,75.529675 77.9811385,78.0168154 78.0520752,78.9404053 C78.1233112,79.8642943 77.7677298,82.6359615 77.0568662,83.488644 C76.3460026,84.3413266 69.0945952,85.1228027 67.8150407,85.1940092 C66.5357856,85.2649165 64.1182507,83.9146861 63.6207958,82.9907971 C63.1230416,82.0675064 60.2795872,75.9563155 59.781833,74.3215584 C59.2843782,72.6873998 59.0712688,70.9108282 59.1422055,70.0581456 C59.2134415,69.2051638 60.2795872,68.1394602 60.2795872,68.1394602 C60.6351687,67.7840262 63.9763773,67.2867776 65.8246226,66.7183226 C67.672868,66.1495684 68.9527218,66.0077538 69.8769941,66.0786611 C70.8009672,66.1495684 72.7204486,65.7947327 72.7204486,65.7947327 C72.7204486,65.7947327 75.9191851,66.5050024 77.4121483,67.0025501 C78.9051116,67.4997987 80.9667657,67.3579841 81.2511111,68.0685529 C81.5354565,68.7791217 80.2556027,74.1085374 79.9003206,74.8191062 M92.0568365,61.4598142 C91.772491,60.9625657 91.4172089,65.5814125 90.777282,67.1446639 C90.1373551,68.7079153 89.7817736,70.9108282 89.2130828,71.4792832 C88.6443919,72.0477383 85.6584654,75.9563155 85.2319473,76.0981301 C84.8057284,76.2402438 84.0948648,73.6821961 83.9526921,73.2558548 C83.8102201,72.8295135 84.0233295,66.5759097 84.0233295,65.86564 C84.0233295,65.154772 83.1705925,64.1599757 82.3172568,63.8048409 C81.4645198,63.4494069 78.9760483,62.525817 77.9811385,62.4546106 C76.9859295,62.3837033 74.7818033,61.1752875 74.7818033,61.1752875 C74.7818033,61.1752875 73.5022489,61.1043802 72.6492125,61.2467932 C71.7961762,61.3886078 70.8719039,62.3837033 70.231977,62.3837033 C69.5926487,62.3837033 68.5259043,61.3886078 68.0993862,61.2467932 C67.672868,61.1043802 66.1089681,61.814949 64.9715863,62.2415895 C63.8342046,62.6679308 58.7156873,63.6627271 58.0757604,63.9469547 C57.4358335,64.2311822 56.4406245,65.7947327 56.4406245,67.0734574 C56.4406245,68.3527805 57.3648968,75.1033337 57.3648968,75.1033337 C57.3648968,75.1033337 56.227515,75.8139025 54.8767245,75.8139025 C53.5262333,75.8139025 51.606752,71.976831 50.9671244,70.4132804 C50.3271975,68.8503282 49.047643,63.5203142 48.8342343,62.881251 C48.6208255,62.2415895 47.3415703,55.277716 47.3415703,55.277716 L46.346062,55.2065095 C46.346062,55.2065095 47.1990983,61.5307215 47.5546798,63.0942721 C47.9099619,64.6575235 49.8294433,72.4740795 50.3271975,73.6821961 C50.8246523,74.8900135 53.9527515,80.7172761 54.8767245,81.7829797 C55.8009969,82.8489825 62.0568959,87.7523561 64.3316594,88.6047395 C66.6067223,89.4577212 71.6540035,89.812856 74.000003,88.888967 C76.3460026,87.9650779 80.5402475,85.549144 82.2463201,84.3413266 C83.9526921,83.13321 87.2226647,77.0220191 88.004465,76.0981301 C88.7865646,75.174241 90.0661191,71.621397 90.63481,70.6978071 C91.2038002,69.7739181 92.3408826,61.957362 92.0568365,61.4598142"/>
        <path fill="#976D57" d="M45.2775816 51.6426554C45.2775816 51.6426554 44.1773144 49.2234304 43.9573208 49.2967312 43.7373273 49.370032 43.8839896 50.9096476 43.9573208 51.3494523 44.030652 51.789257 43.8109578 54.2817828 43.8839896 54.7948882 43.9573208 55.3082929 44.1773144 56.1876031 44.2506456 55.9679999 44.3239768 55.7480976 44.4709385 53.7683781 44.5442697 53.3288726 44.6176009 52.8887687 45.2775816 51.6426554 45.2775816 51.6426554M46.3459123 55.2065993L47.1112505 59.6333682C47.1112505 59.6333682 45.8643209 59.0469619 45.497665 58.6801588 45.1307097 58.3139541 45.3510026 56.92094 45.5706969 56.6277369 45.7909898 56.3345338 46.3459123 55.2065993 46.3459123 55.2065993M94.195623 51.8626475C94.4153173 51.7160459 95.0755973 50.2497311 95.3689221 49.8832272 95.6622469 49.5167233 95.8825398 50.616235 95.6622469 51.4958444 95.4422533 52.375753 95.2222597 54.5747765 95.2222597 55.1614819 95.2222597 55.7478882 95.2222597 57.4341053 95.1489285 57.214203 95.0755973 56.9940015 94.562279 54.5747765 94.195623 54.0619702 93.8286678 53.5488647 94.195623 51.8626475 94.195623 51.8626475M93.315529 56.3343842C93.315529 56.3343842 93.9755097 57.5074959 93.9021785 58.1672029 93.8288473 58.82691 92.655249 60.5131271 92.655249 60.5131271L93.315529 56.3343842z"/>
        <path fill="#2C1E18" d="M47.1111308,55.0882709 C47.1111308,55.0882709 46.524182,48.5636037 46.817806,46.9509865 C47.1111308,45.3380701 46.2311565,41.8190341 47.3308251,39.6197115 C48.4310923,37.4203888 49.9713466,34.927863 49.9713466,34.927863 L50.0446778,30.7491201 C50.0446778,30.7491201 49.3113659,27.8170888 50.118009,25.8373693 C50.9246521,23.8582482 53.1982184,21.8055271 55.1051287,20.6324154 C57.0120391,19.4596028 58.1853382,18.2864911 60.3855732,18.2864911 C62.5858083,18.2864911 64.7860434,18.1398896 66.5462914,18.5063935 C68.30624,18.8731966 69.4795391,20.0460091 71.3864494,19.3130013 C73.293659,18.5799935 75.7138877,17.6267841 77.0338492,17.8466864 C78.35411,18.066888 80.7010074,18.726595 84.3678664,20.6324154 C88.0350246,22.5385349 89.7216421,25.5444653 90.1616292,26.9371802 C90.6019157,28.3298951 90.6019157,33.9749529 90.6019157,35.5142693 C90.6019157,37.0541841 91.48189,38.6668013 91.7752148,39.6930123 C92.0685395,40.7195224 92.508826,43.0651474 92.6551891,44.8979662 C92.8018515,46.7307849 92.4354948,56.1877826 92.4354948,56.1877826 C92.4354948,56.1877826 92.8751827,56.2610834 93.1688067,55.0149701 C93.4618322,53.7685576 94.1957428,52.228942 94.0487811,51.4226334 C93.9021187,50.6163248 94.1310916,49.2409628 94.1310916,49.2409628 L95.3687425,48.2704006 C95.3687425,48.2704006 97.4226145,44.5317615 97.8626017,42.7722435 C98.3025889,41.0127255 98.0092641,39.4734091 97.3492834,37.4203888 C96.6893026,35.3679669 95.809029,33.3885466 95.7356978,31.2625247 C95.6623666,29.1365029 96.0290226,25.0310607 95.8823602,23.6383458 C95.7356978,22.2456309 94.6303423,20.5333845 94.6303423,20.5333845 C94.6303423,20.5333845 95.0757171,18.4330927 94.1221123,17.2602802 C93.1688067,16.0874677 91.3352276,14.914356 91.1885652,14.6944536 C91.0416035,14.4745513 90.7485781,11.8354239 90.0152662,10.9555153 C89.2819542,10.075906 87.5552291,8.34421237 87.5552291,8.34421237 C87.5552291,8.34421237 87.1098544,6.30615143 85.8632241,5.71974518 C84.6162945,5.13333892 83.1945673,4.79765125 82.9742744,4.57774891 C82.7542808,4.35754737 81.8009753,3.33133642 80.9943322,3.25803564 C80.1876891,3.18503404 78.0604859,2.59832859 78.0604859,2.59832859 C78.0604859,2.59832859 76.0072125,0.765509848 75.1272382,0.472306719 C74.2469645,0.179103589 72.3035383,-0.275660448 71.2766023,0.237445028 C70.2499656,0.750849692 68.3798705,0.765509848 68.3798705,0.765509848 C68.3798705,0.765509848 66.1787375,0.452560386 64.858776,1.11256661 C63.5385152,1.77227366 61.8830261,2.9785951 61.8830261,2.9785951 C61.8830261,2.9785951 59.5555839,2.96064389 58.3822848,3.62035093 C57.2086864,4.28005797 56.1320648,6.33726687 56.1320648,6.33726687 C56.1320648,6.33726687 53.418212,7.21687626 52.1712824,8.09678483 C50.9246521,8.97639422 51.4379705,12.5684317 50.3380026,13.1551372 C49.2377354,13.7415434 47.6244492,18.1398896 46.7441755,18.726595 C45.8642012,19.3130013 43.7375966,22.4652341 43.6639661,22.9786388 C43.5906349,23.4917442 43.0039854,25.8373693 43.0039854,25.8373693 C43.0039854,25.8373693 43.0770173,30.2363138 43.0770173,30.9693216 C43.0770173,31.7023294 43.0039854,33.3885466 42.7839918,33.5351482 C42.5639982,33.6817497 41.830387,38.6668013 42.0506799,39.4734091 C42.2703742,40.2797177 44.3239469,46.8043849 44.3239469,46.8043849 C44.3239469,46.8043849 46.524182,56.114781 46.6708443,55.8945795 C46.817806,55.6746771 47.1111308,55.0882709 47.1111308,55.0882709"/>
        <path fill="#92949C" d="M48.9666494 98.2839432L53.6586648 109.910345C53.6586648 109.910345 58.1593879 106.534919 58.3470559 105.972447 58.5344246 105.409677 58.7220926 103.909853 58.7220926 103.909853 58.7220926 103.909853 61.4669936 107.097689 61.8423295 107.847751 62.2176655 108.597812 65.4757457 109.910345 65.4757457 109.910345L69.227609 115.723845 68.2898677 130.163201C68.2898677 130.163201 69.978281 129.41314 69.790613 128.287898 69.602945 127.162656 71.4790263 115.911435 70.3533177 114.598603 69.227609 113.28607 65.2880778 107.847751 65.2880778 107.847751 65.2880778 107.847751 61.9112512 106.910099 60.5978745 105.222386 59.2850965 103.534673 57.5963839 102.597021 57.5963839 102.597021L53.6586648 107.847751 48.9666494 98.2839432zM53.81438 91.0336282C53.9107582 90.4550008 51.2971746 85.7239589 51.5001075 85.0567722 51.702741 84.3895855 51.7892419 80.1405336 51.7892419 80.1405336 51.7892419 80.1405336 50.6318063 80.6225236 50.3426719 82.0684937 50.0535374 83.5144639 51.1142956 87.274046 51.1142956 87.274046L53.81438 91.0336282zM73.9465461 112.644913C73.9465461 112.644913 80.0231578 102.225132 80.4089697 102.032156 80.7947816 101.83948 82.6271634 100.586186 82.6271634 100.586186 82.6271634 100.586186 83.3984879 99.8151816 83.5915435 99.5258679 83.7842997 99.2368534 87.7381979 86.9941268 87.7381979 86.9941268L88.6064991 97.7908833C88.6064991 97.7908833 87.5454416 100.104196 86.2916279 100.586186 85.0381135 101.068475 82.048296 102.128794 82.048296 102.128794L73.9465461 112.644913z"/>
        <path fill="#A67860" d="M66.1404855 52.9334672C66.7968745 51.4330451 67.366164 44.9942445 67.366164 44.9942445 67.366164 44.9942445 65.5774816 47.8703279 65.6714652 48.4327992 65.7651495 48.9955697 66.1404855 52.9334672 66.1404855 52.9334672M58.0336544 47.3640733C58.8510298 47.6096303 60.6862571 47.5766713 61.3845289 47.4703723 62.0828007 47.3640733 61.7038574 48.2533369 61.7038574 48.2533369 61.7038574 48.2533369 59.6758256 48.2264162 58.7058919 48.2264162 57.7359582 48.2264162 57.216279 47.1185163 58.0336544 47.3640733z"/>
      </g>
    </g>
  </g>
</svg>
