<svg xmlns="http://www.w3.org/2000/svg" xmlns:xlink="http://www.w3.org/1999/xlink" width="120" height="120" viewBox="0 0 120 120">
  <defs>
    <path id="danilo-a" d="M120,59.9999233 C120,93.1369885 93.1369885,120 59.9999233,120 C26.8628581,120 0,93.1369885 0,59.9999233 C0,26.8628581 26.8628581,0 59.9999233,0 C93.1369885,0 120,26.8628581 120,59.9999233"/>
  </defs>
  <g fill="none" fill-rule="evenodd">
    <mask id="danilo-b" fill="#fff">
      <use xlink:href="#danilo-a"/>
    </mask>
    <use fill="#7BCAEC" xlink:href="#danilo-a"/>
    <g mask="url(#danilo-b)">
      <g transform="translate(5 7)">
        <path fill="#811518" d="M7.12275438,97.6516703 C8.10907933,97.0640901 24.8639584,84.8717144 24.8639584,84.8717144 C24.8639584,84.8717144 27.8223416,81.1505692 29.2027232,80.9546112 C30.5834006,80.7586532 61.54791,84.4800922 65.0979698,85.4592946 C68.6480296,86.4387907 74.564796,87.613951 77.5231792,90.5518519 C80.4815624,93.4897528 88.8538836,113.096552 88.8538836,113.096552 C88.8538836,113.096552 72.9867944,124.631502 55.4338194,123.652006 C37.8808444,122.672803 0.407892013,107.004097 0.407892013,107.004097 L7.12275438,97.6516703 Z"/>
        <path fill="#E8B18E" d="M74.8054605,60.4613132 C74.8054605,60.4613132 75.6743376,53.460883 75.7482972,51.6981425 C75.8222568,49.935402 75.6719709,48.8636558 75.6719709,48.8636558 C75.6719709,48.8636558 75.6003781,47.7319763 75.6743376,45.9692358 C75.7482972,44.2064953 76.0503481,40.1275138 76.0503481,40.1275138 L76.2660143,36.3476105 C76.2660143,36.3476105 76.5023891,32.7234161 76.4139334,31.5000741 C76.3248861,30.2764384 76.487893,26.6525377 75.6743376,24.5960071 C74.8607823,22.5394765 74.2691056,15.7088571 70.3492479,12.4771661 C66.4293902,9.24547518 55.1135744,7.18894458 51.489555,7.2623921 C47.8655356,7.33583963 40.7654159,8.21720988 38.1768307,11.2285583 C35.5882454,14.2399066 29.3756407,38.734655 29.3756407,38.734655 C29.3756407,38.734655 28.1183278,37.5962184 27.3047724,37.6696659 C26.491217,37.7431135 25.6776617,37.816561 25.3818233,38.5510362 C25.085985,39.2855114 24.7901467,40.5341193 25.4557829,42.0765172 C26.1214191,43.6189152 27.0828937,45.4551032 26.8610149,46.6302635 C26.6391362,47.8054239 26.0474596,50.3760871 26.5651766,51.77159 C27.0828937,53.1670929 27.6006107,55.0767285 29.0058428,56.2518888 C30.4110748,57.4270492 31.8163068,57.8677343 32.2600643,57.6473917 C32.7038217,57.4270492 34.1090538,57.6473917 34.1090538,57.6473917 L33.9611346,61.5401104 C33.9611346,61.5401104 34.8486496,70.4272604 33.9611346,73.3651613 C33.0736196,76.3030621 28.8579236,82.3992064 28.8579236,82.3992064 L27.2308128,83.9416044 C27.2308128,83.9416044 29.4496002,85.0433172 30.7808727,85.998135 C32.1121451,86.9529527 42.0966884,94.2977049 43.4279608,95.4728652 C44.7592333,96.6480255 59.9949067,105.975861 60.2167854,105.975861 C60.4386642,105.975861 66.7991881,108.766867 66.7991881,108.766867 C66.7991881,108.766867 67.2429455,100.100059 66.5033497,98.0435285 C65.7637539,95.9869979 62.8793303,88.6422457 62.8793303,88.6422457 L64.2106028,82.9133391 C64.2106028,82.9133391 67.7606626,78.5064878 70.497167,72.2634485 C73.2336715,66.0204092 74.8054605,60.4613132 74.8054605,60.4613132"/>
        <path fill="#FEFEFE" fill-opacity=".15" d="M40.9622963 45.2100529L40.8637822 40.2402998C40.8637822 40.2402998 41.3628614 39.6677029 41.7134298 39.551362 42.0642941 39.4356088 47.4009215 39.5125818 47.4009215 39.5125818 47.4009215 39.5125818 54.666119 39.6967881 55.1625357 39.7014888 55.6592482 39.7061894 57.3292555 39.8613106 57.7020118 40.0934048 58.0744723 40.3252051 58.6197023 40.9439271 58.7756091 41.176315 58.93122 41.4084092 58.5418968 43.7681311 58.2300832 44.5804607 57.9182696 45.3927903 57.3342848 47.4431513 56.7887589 47.7912926 56.2432331 48.1394338 55.4500905 48.2775152 55.3598598 48.3439117 55.2693333 48.4103083 44.3623662 48.1006535 44.3623662 48.1006535 44.3623662 48.1006535 42.1027531 47.6752455 41.7524805 47.4431513 41.4016163 47.2110571 41.0513437 46.5532611 41.0513437 46.4375079 41.0513437 46.321167 40.9622963 45.2100529 40.9622963 45.2100529M65.1638234 40.7507013C65.1638234 40.7507013 65.7093493 40.3640736 66.2548751 40.3252933 66.7998093 40.286513 70.6176028 40.1319794 71.669308 40.0544188 72.7210133 39.9768582 76.8893752 40.1701721 77.8242243 40.286513 78.7590734 40.4022663 79.4400932 40.4234192 79.6448133 40.7224975 79.8498293 41.0215758 79.9276347 41.7951251 79.8885841 42.4141408 79.8498293 43.0331565 78.9927856 46.0116004 78.9146843 46.6309099 78.8368789 47.2496318 78.2916488 47.7913807 78.2916488 47.7913807 78.2916488 47.7913807 76.7529937 48.7373848 75.6720005 48.8637145 74.5907115 48.9906318 70.5785522 49.0294121 69.6824579 49.0678986 68.7866595 49.1063851 67.0796724 48.8925059 66.4885874 48.56493 65.8972066 48.2373541 65.1404522 46.6717467 65.1404522 46.6717467 65.1404522 46.6717467 64.8523057 41.4469838 64.8913563 41.2148896 64.9301111 40.9827955 65.1638234 40.7507013 65.1638234 40.7507013"/>
        <path fill="#1F0B04" d="M33.5879937,38.7647391 L33.3400812,35.3200503 C33.3400812,35.3200503 32.9685083,31.9987534 33.3400812,31.2604589 C33.71195,30.5224583 35.6937709,21.5421767 35.6937709,21.5421767 C35.6937709,21.5421767 36.8087855,16.8676827 37.3043147,15.7603878 C37.799548,14.6533868 40.0292815,11.8238945 41.515869,10.4704036 C43.0024566,9.11750022 46.5948213,9.24059826 46.96669,9.24059826 C47.338263,9.24059826 51.6737735,9.73269666 51.6737735,9.73269666 C51.6737735,9.73269666 54.7706091,11.4548941 55.2658424,11.3317961 C55.7616674,11.208698 57.9914009,10.5935016 57.9914009,10.5935016 C57.9914009,10.5935016 60.5927072,9.97859896 61.2121926,10.101697 C61.8316781,10.2245013 63.813499,11.0856 63.813499,11.0856 L66.9103345,11.4548941 C66.9103345,11.4548941 70.00717,13.6688962 70.8742721,15.1451914 C71.7416701,16.6214866 73.4755785,19.4509789 73.8474473,20.8038822 C74.2190202,22.1573732 74.962166,24.248571 75.2097827,24.8637674 C75.4576952,25.4786701 76.2008411,29.6613595 76.3247973,30.2762622 C76.4487536,30.8914586 76.2008411,34.4589516 76.2008411,34.4589516 C76.2008411,34.4589516 76.9442828,29.9075556 76.4487536,26.9549652 C75.9532244,24.0026687 75.4576952,20.4348819 75.4576952,20.4348819 C75.4576952,20.4348819 75.7053119,17.4828791 75.333739,14.7761911 C74.962166,12.0697968 72.6084764,6.90320435 71.6177138,5.30381112 C70.6266555,3.70471169 67.7774366,3.4585156 67.7774366,3.4585156 C67.7774366,3.4585156 65.6716595,2.4746126 65.1758344,2.4746126 C64.6806011,2.4746126 63.3179698,3.08951525 63.3179698,3.08951525 C63.3179698,3.08951525 61.5837656,0.383120984 57.6195321,0.137218683 C53.6555944,-0.108683619 51.7977298,0.383120984 50.3108464,1.24421972 C48.8245547,2.10561225 48.2050693,2.4746126 48.2050693,2.4746126 C48.2050693,2.4746126 42.1353545,3.95061399 40.6487669,4.93481077 C39.1624752,5.91900756 36.0653438,7.88710734 35.0742854,8.74820608 C34.0835229,9.60959861 31.9777458,11.7007964 31.9777458,12.562189 C31.9777458,13.4229939 31.1103478,14.6533868 31.1103478,14.6533868 C31.1103478,14.6533868 28.756954,17.236683 28.1374685,20.0661753 C27.5179831,22.8953738 27.3940268,25.7245724 27.3940268,26.0938665 C27.3940268,26.4628669 28.1374685,33.3516568 28.3850852,34.3361473 C28.6329977,35.3200503 29.3755519,38.7344787 29.3755519,38.7344787 L33.5879937,38.7647391 Z"/>
        <path fill="#9F554F" d="M51.2210226,65.3757162 C51.2210226,65.3757162 53.8625629,65.546702 55.0113031,65.4897067 C56.1597475,65.4327115 58.3995394,65.6036973 58.9737616,65.546702 C59.5479838,65.4897067 60.0074207,65.3187209 60.5242502,65.546702 C61.0410798,65.7746831 62.0173462,65.4327115 62.4196863,65.3187209 C62.8214348,65.2047304 63.510738,64.9194602 64.0846644,65.090446 C64.6591824,65.2614319 66.6117153,65.3187209 66.6117153,65.3187209 L66.9560711,65.1477351 L66.209671,66.8014795 C66.209671,66.8014795 65.1760119,69.0827595 64.3719234,69.5390155 C63.5678348,69.9952715 59.950028,70.4512337 59.3184132,70.5085228 C58.6865026,70.5655181 57.3081918,70.2802479 56.3896139,69.8812809 C55.4704442,69.4820202 54.0924293,68.5695082 53.0013776,67.7139915 C51.91003,66.8584748 50.7038972,66.002958 50.4743267,65.9459627 C50.2444603,65.8889675 50.3595414,65.1477351 50.3595414,65.1477351 L51.2210226,65.3757162 Z" opacity=".784"/>
        <path fill="#A67860" d="M54.3588021 55.2695135C54.5939936 54.8802417 56.1542449 53.3205101 56.014905 53.8243601 55.8669859 54.3587643 55.3528189 55.7977481 55.8764527 56.317169 56.5234511 56.9602755 57.1352448 56.4191141 58.1206822 56.6347561 58.8093938 56.7854704 59.6812293 57.7746616 60.8755286 57.8069785 62.2958484 57.8451712 63.9297634 57.6847618 64.3217492 57.2951962 64.7140308 56.9056305 65.4982982 56.4382105 65.4982982 56.4382105 65.4982982 56.4382105 66.2849323 57.2972527 66.675143 56.9834849 67.7286233 56.1361943 66.5186446 53.6616004 66.5186446 53.6616004 66.5186446 53.6616004 67.5768582 54.8229526 67.7735907 55.5815186 68.1561097 57.0554635 67.5381034 57.2951962 67.1461176 57.7626162 66.7535402 58.2300362 64.9495181 58.9313132 64.9495181 58.9313132 64.9495181 58.9313132 64.5572365 59.6325901 63.6942761 59.8661532 62.8313158 60.0997163 60.1640375 59.1648763 60.1640375 59.1648763 60.1640375 59.1648763 58.7520012 59.3987332 57.6535535 59.3987332 56.5554017 59.3987332 54.9078781 59.0870219 54.3588021 57.9186187 53.8097262 56.7499218 54.3588021 55.2695135 54.3588021 55.2695135M69.4994227 38.5977782C70.4407803 38.2860669 66.5185558 38.5199238 65.7336968 38.8316351 64.9494294 39.1430526 64.4787506 40.7013152 64.2432633 40.7791696 64.0080718 40.8570239 62.4392412 40.6234608 62.4392412 40.6234608 62.4392412 40.6234608 61.4975879 40.2338952 60.8701148 39.4547639 60.3068386 38.7555435 59.114906 38.6841525 58.8758687 38.6768077 57.9777035 38.1136121 56.4769157 37.5072294 56.4769157 37.5072294 56.4769157 37.5072294 50.9855649 36.4163868 51.2207563 36.7280981 51.4562436 37.0398094 52.8682799 38.6759264 52.4759983 38.9873438 52.0837167 39.2990551 48.6090956 39.8034927 48.6090956 39.8034927 48.6090956 39.8034927 47.4766266 42.5895041 48.2398894 43.1165635 49.0031523 43.6433291 52.1621139 43.9732554 52.0837167 44.5185298 52.0053195 45.064098 48.7105682 45.8429355 49.6519257 46.3106493 50.5932833 46.7780693 54.8897432 46.0903067 56.3985186 45.531518 57.9069982 44.9727292 57.4632407 50.3426244 57.4632407 50.3426244 57.4632407 50.3426244 59.1536609 45.1513536 59.3891482 43.593091 59.3891482 43.593091 60.3470726 41.9581492 60.9751374 41.5682897 61.6026105 41.1787241 62.2821511 41.324444 62.6744327 41.4025921 63.0667143 41.4804465 63.6157902 42.3374322 63.9296747 42.960561 64.0622103 43.2240907 64.166937 43.9756057 64.2432633 44.754737L64.2432633 46.466358C64.2432633 46.466358 65.3414151 50.4395752 65.3414151 50.6734321L65.1736748 45.6296439C65.4082746 45.4375052 65.8629781 44.204762 67.242768 44.4585966 68.5929741 44.7068492 67.6167077 44.1292579 68.1657836 43.895401 68.7151553 43.6615441 67.2244261 40.7013152 66.9691176 40.3781461 66.7144008 40.054977 68.5580652 38.9094895 69.4994227 38.5977782"/>
        <path fill="#AAA3A4" d="M65.5899785,43.6266418 C65.5899785,43.6266418 66.4310468,43.3316766 67.568841,43.6266418 C68.706931,43.9216071 70.2408527,44.1672156 71.2798369,43.97067 C72.3188211,43.7741245 73.4569111,42.6929769 73.4569111,42.6929769 C73.4569111,42.6929769 72.3188211,41.1209062 71.2798369,40.825941 C70.2408527,40.5312695 69.4965235,40.5450776 68.4596102,40.8750039 C67.4226969,41.205224 65.9364052,42.1033402 65.9364052,42.1033402 C65.9364052,42.1033402 65.4414677,42.8404596 65.3920627,42.9879422 C65.3426577,43.135131 65.5899785,43.6266418 65.5899785,43.6266418"/>
        <path fill="#D8CECD" d="M65.7878648,43.434415 C65.9834139,43.179699 66.7662021,42.6150344 67.8149489,42.3271202 C68.8633999,42.0394997 69.8748711,41.9293284 70.9623728,42.1000204 C72.0495786,42.2704187 72.7939078,43.1227037 72.7939078,43.1227037 C72.7939078,43.1227037 72.3359501,43.8618796 70.8478834,43.918581 C69.3598166,43.9755763 67.7575563,43.5774908 67.3569912,43.634486 C66.9561303,43.6911875 65.7878648,43.434415 65.7878648,43.434415"/>
        <path fill="#AAA3A4" d="M44.5617612,41.9559751 C44.5617612,41.9559751 45.8584205,40.6682932 46.7125058,40.3598136 C47.5662952,40.0516278 47.915976,39.8586077 48.7310106,39.8970942 C49.546341,39.9358745 51.2154608,40.128307 52.1858105,40.976479 C53.156456,41.824651 54.0102454,42.7113094 53.893981,42.7497959 C53.7774207,42.7885762 53.350526,43.1740288 53.1952109,43.2125153 C53.0398957,43.2510018 52.1470557,42.9425222 51.7589158,42.9810087 C51.3707759,43.019789 50.283866,43.3667551 49.5075862,43.2510018 C48.7310106,43.1355423 47.1394005,43.019789 46.3631207,42.7885762 C45.586841,42.5570697 44.5617612,41.9559751 44.5617612,41.9559751"/>
        <path fill="#D8CECD" d="M45.0820816,42.2486194 C45.353957,42.2101329 46.2852561,41.5164945 47.4499715,41.5164945 C48.6143911,41.5164945 49.8651956,41.3052595 50.5402986,41.6228466 C51.2154017,41.9404336 52.3798213,42.9425516 52.3798213,42.9425516 C52.3798213,42.9425516 51.137892,43.405271 50.0897368,43.2895177 C49.0415817,43.1737644 46.9455672,42.9810381 46.5183767,42.8655786 C46.091482,42.7498253 45.0820816,42.2486194 45.0820816,42.2486194"/>
        <path fill="#2F1E14" d="M50.4060176,41.1423235 C50.7139853,42.2175952 50.0859205,43.337523 49.0031523,43.6433585 C47.920384,43.949194 46.7926484,43.3254776 46.4846807,42.2502059 C46.176713,41.1746404 46.8047777,40.0550064 47.887546,39.7491709 C48.9703142,39.4433354 50.0977541,40.0670518 50.4060176,41.1423235"/>
        <path stroke="#1D0A00" stroke-width=".535" d="M50.4060176,41.1423235 C50.7139853,42.2175952 50.0859205,43.337523 49.0031523,43.6433585 C47.920384,43.949194 46.7926484,43.3254776 46.4846807,42.2502059 C46.176713,41.1746404 46.8047777,40.0550064 47.887546,39.7491709 C48.9703142,39.4433354 50.0977541,40.0670518 50.4060176,41.1423235 Z"/>
        <path fill="#2F1E14" d="M70.7665574,41.9227181 C71.0748209,42.9979898 70.4467562,44.1179176 69.3639879,44.4237531 C68.2812197,44.7295886 67.153484,44.1058722 66.8455163,43.0306005 C66.5372528,41.955035 67.1653176,40.835401 68.2480858,40.5295655 C69.3308541,40.22373 70.4585897,40.8474464 70.7665574,41.9227181"/>
        <path stroke="#1D0A00" stroke-width=".535" d="M70.7665574,41.9227181 C71.0748209,42.9979898 70.4467562,44.1179176 69.3639879,44.4237531 C68.2812197,44.7295886 67.153484,44.1058722 66.8455163,43.0306005 C66.5372528,41.955035 67.1653176,40.835401 68.2480858,40.5295655 C69.3308541,40.22373 70.4585897,40.8474464 70.7665574,41.9227181 Z"/>
        <path fill="#1D0A00" d="M70.9008976,42.4032705 C70.9008976,42.4032705 69.9456357,42.0445528 68.8631633,42.0395584 C67.8638214,42.034564 66.7189271,42.3674282 66.7325357,42.4743677 C66.7130103,41.3315243 67.6298133,40.3890457 68.781216,40.3693618 C69.9323229,40.3499716 70.8813723,41.2604271 70.9008976,42.4032705"/>
        <path fill="#000" d="M69.6409814,42.0498117 C69.8110884,42.4775701 69.5998598,42.9611485 69.1691192,43.1300778 C68.7383787,43.2990071 68.2514288,43.089241 68.0813217,42.6614826 C67.9109189,42.2337243 68.1221474,41.749852 68.552888,41.5809227 C68.9836286,41.4119934 69.4708743,41.6220533 69.6409814,42.0498117"/>
        <path fill="#FEFEFE" d="M70.5366023,42.0486659 C70.5422232,42.2460928 70.3854289,42.4106153 70.1866256,42.4159035 C69.988118,42.4214855 69.8224486,42.2657768 69.8168277,42.0683498 C69.8115026,41.8712167 69.968001,41.7066942 70.1668044,41.7011122 C70.3656077,41.695824 70.5309814,41.851239 70.5366023,42.0486659"/>
        <polygon fill="#4C3839" points="76.145 41.129 78.825 41.912 79.866 41.474 79.55 40.597 76.05 40.128"/>
        <path fill="#FEFEFE" d="M65.0144842 41.7244685C65.0144842 41.7244685 65.1088566 42.6011382 65.1405113 43.4781016 65.1718702 44.3547712 65.3925656 46.4838679 65.6449157 47.0790866 65.8972658 47.6740116 66.275643 48.1749237 66.5276972 48.3940911 66.7800473 48.6132585 66.8433567 48.7072713 66.8433567 48.7072713 66.8433567 48.7072713 66.2126294 48.5506812 65.8972658 48.2375009 65.5819021 47.9246145 65.2668343 47.3608313 65.1405113 46.6718936 65.0144842 45.9829558 64.7304794 42.2253806 64.7304794 41.943636 64.7304794 41.6618913 64.8568024 40.9729535 65.0458431 40.7852216 65.2351796 40.597196 65.3925656 40.7226444 65.3925656 40.7226444 65.3925656 40.7226444 65.1357779 41.0613843 65.0591558 41.2050477 64.9828295 41.348711 65.0144842 41.7244685 65.0144842 41.7244685M55.3598598 48.3439117C55.458374 48.3439117 56.0009415 48.1726321 56.3213344 48.0010587 56.6417273 47.8297791 57.2088493 47.2421989 57.4307281 46.7036817 57.6526068 46.1648707 57.9484451 45.1366054 58.2197289 44.3286826 58.4907168 43.5207599 58.6140813 42.7619001 58.6634863 42.2477674 58.7125955 41.7336348 58.5155672 41.1216701 58.3427976 40.9991596 58.1703239 40.8766491 57.8250806 40.4115794 57.7759714 40.3137473 57.7265664 40.2156214 57.7020118 40.0934048 57.7020118 40.0934048 57.7020118 40.0934048 58.1948785 40.2156214 58.4416076 40.435964 58.6880409 40.6563066 58.9099197 40.9257121 58.9593247 41.2438867 59.0084338 41.5623552 58.7865551 42.7862847 58.6634863 43.4719907 58.5401218 44.157403 57.8744856 46.2873811 57.5786472 46.9484088 57.2828089 47.6094365 56.863606 47.9766741 56.4938081 48.1970167 56.1240102 48.4173592 55.3598598 48.3439117 55.3598598 48.3439117"/>
        <path fill="#1D0A00" d="M50.5403578,41.6229053 C50.5403578,41.6229053 49.5848,41.2641876 48.5023276,41.2591932 C47.5029858,41.2541988 46.3583873,41.5870629 46.3717,41.6937087 C46.3521747,40.5511591 47.2689776,39.6086805 48.4203804,39.5889966 C49.5714873,39.5696064 50.5205366,40.4800619 50.5403578,41.6229053"/>
        <path fill="#000" d="M49.2801457,41.2691233 C49.4502527,41.6968817 49.2390242,42.1807539 48.8082836,42.3496832 C48.377543,42.5186125 47.8905931,42.3088464 47.7204861,41.881088 C47.5500832,41.4533297 47.7613118,40.9694574 48.1920524,40.8005281 C48.622793,40.6315988 49.1100387,40.8413649 49.2801457,41.2691233"/>
        <path fill="#FEFEFE" d="M50.1760329,41.2682713 C50.181358,41.4656982 50.0245637,41.6299269 49.8257603,41.6355089 C49.6272528,41.6410909 49.4615833,41.4853822 49.4559624,41.2879552 C49.4506373,41.0908221 49.6074316,40.9260059 49.806235,40.9207176 C50.0050383,40.9154294 50.170412,41.0708444 50.1760329,41.2682713"/>
        <path fill="#1C0D0E" d="M58.4046278,43.1506431 L58.1247648,43.3665789 L57.9691538,43.7373419 C57.9691538,43.7373419 57.8446059,43.5519604 57.6892908,43.7684837 C57.5339756,43.9844194 57.3783647,44.6328141 57.4718496,44.7873477 C57.5650387,44.9418813 57.9070278,44.9724355 57.9070278,44.9724355 C57.9070278,44.9724355 58.2179538,44.3551825 58.3114387,43.9844194 C58.4046278,43.6136563 58.5913018,43.3048829 58.4046278,43.1506431"/>
        <path fill="#FEFEFE" d="M40.9622963 45.2100529C40.9622963 45.2100529 41.1350659 46.2139336 41.3569447 46.5567866 41.5788234 46.8993459 42.1705 47.3156464 42.5154475 47.486926 42.8606908 47.6584994 44.4878016 48.0991846 44.4878016 48.0991846 44.4878016 48.0991846 42.8112858 47.878842 42.4414879 47.7563315 42.07169 47.6338211 41.2090255 47.5116044 41.0856609 46.8258983 40.9622963 46.1404861 40.9622963 45.2100529 40.9622963 45.2100529M68.7349765 48.9891629C68.7349765 48.9891629 69.8384534 49.1454592 70.7845444 49.1771885 71.7306353 49.2083303 73.6538802 49.2083303 74.5996754 49.0828819 75.5457663 48.9580211 75.6717934 48.8637145 75.6717934 48.8637145L75.577421 48.6134054C75.577421 48.6134054 74.9153348 48.8011372 74.095271 48.8951501 73.275503 48.9891629 71.1315627 49.0203046 70.2801401 48.9891629 69.4287174 48.9580211 68.7349765 48.9891629 68.7349765 48.9891629M78.0683501 47.9244676C78.5413955 47.7053002 78.6990774 47.4546973 78.6990774 47.4546973 78.6990774 47.4546973 79.2664953 45.8890899 79.3928182 45.4196133 79.5185495 44.949843 79.991595 42.6638623 80.0229538 42.4132594 80.0549044 42.1629503 80.0229538 42.0060663 80.0229538 42.0060663L79.707886 42.0060663C79.707886 42.0060663 79.8025543 42.8204525 79.4241771 44.2923408 79.0457999 45.7639353 78.7620909 47.2043881 78.5727544 47.39212 78.3834179 47.5798518 78.0683501 47.9244676 78.0683501 47.9244676"/>
        <path fill="#4C3839" d="M29.3754927,38.7346256 C29.3754927,38.7346256 29.5603917,38.1103217 29.8192502,37.9267029 C30.0781087,37.7430841 30.7067652,37.8532554 31.0026035,37.8899791 C31.2984418,37.9267029 37.4740667,39.6527196 37.4740667,39.6527196 L37.4740667,40.9380512 C37.4740667,40.9380512 33.7391079,39.7628909 32.9995121,39.5058246 C32.2599163,39.2487583 30.6328056,38.6611781 30.2630077,38.6979018 C29.8932098,38.7346256 29.7822704,39.138587 29.7822704,39.138587 L29.3754927,38.7346256 Z"/>
        <path fill="#4D2E24" d="M65.3470065 39.0140787C65.5499516 39.0140787 67.6450786 38.6782767 68.3210691 38.6782767 68.9967638 38.6782767 70.0106018 38.5440146 70.4161961 38.4097525 70.8217904 38.2754905 71.0241438 38.074538 71.2945401 38.074538 71.5652321 38.074538 73.1195667 38.2085063 73.9307553 38.7455546 74.7416482 39.2826029 75.3501876 39.8193574 75.6880349 39.8866353 76.0258823 39.9536194 76.4314766 39.6181112 76.2962785 39.2156187 76.1610804 38.8125387 76.4989278 38.0072601 76.2285316 37.4702118 75.9581353 36.9334574 75.2146936 35.7253925 74.5389989 35.3226063 73.8630084 34.9195263 71.8356284 35.3226063 71.159342 35.3895905 70.4836472 35.4568684 69.5375563 35.4568684 68.8615657 35.7253925 68.185871 35.9936229 67.2394842 36.4633932 66.9016369 36.6649332 66.5634937 36.8661794 65.2792595 37.4032277 65.2792595 37.940276 65.2792595 38.4770305 65.3470065 39.0140787 65.3470065 39.0140787M57.1689703 38.2755786C57.4053451 38.2171144 58.4532045 38.1416103 58.5884026 37.403022 58.7233049 36.6650214 57.7772139 35.9264331 57.3041684 35.6582027 56.8308271 35.3896786 55.8847362 35.3224007 54.4653039 34.9196145 53.0458717 34.517122 50.139556 34.2485979 48.99052 34.18132 47.8417798 34.1143358 45.9493021 33.9127958 45.0706623 34.38286 44.1920224 34.8526303 42.1643466 36.0606951 41.556103 36.5977434 40.9478594 37.1344979 40.0692196 38.8799048 40.0692196 38.8799048 40.0692196 38.8799048 41.2182557 39.5509214 41.7587523 39.3496752 42.2995447 39.1484289 44.6650679 38.1416103 45.6789058 37.604562 46.6927438 37.0675138 47.9769779 36.8662676 48.8556177 36.9335455 49.7342575 37.0002358 52.2349788 37.4703 52.9784205 37.604562 53.7221581 37.7388241 56.8985741 38.3428565 57.1689703 38.2755786"/>
        <path fill="#391E17" d="M59.6148432 58.4635993C59.6148432 58.4635993 58.9086771 58.6196019 57.9676155 58.4635993 57.0259621 58.3078906 56.0846046 57.8404706 56.5552833 57.6847618 57.0259621 57.5287593 59.0657673 57.7626162 59.6148432 58.4635993M64.949459 58.9312544C64.949459 58.9312544 66.2044051 57.7625574 66.5966867 57.5289943 66.9892642 57.2951374 67.4596471 57.4508462 67.1460585 57.7625574 66.832174 58.0742687 65.3414447 58.8531062 64.949459 58.9312544"/>
        <path fill="#63493C" d="M55.4569244,54.1009341 C55.4569244,54.1009341 54.4371697,55.2696311 54.4371697,55.9706142 C54.4371697,56.6718911 54.7510542,57.9184425 55.1430399,58.2301537 C55.5356174,58.5415712 56.6337692,59.0089913 56.6337692,59.0089913 C56.6337692,59.0089913 58.8303687,59.0871394 59.4578418,58.9311369 C60.0856107,58.7754281 60.791481,59.0871394 60.791481,59.0871394 C60.791481,59.0871394 61.1053654,59.4764113 61.8112357,59.5542657 C62.5174017,59.6324138 63.6155536,59.7102682 64.0865282,59.3985569 C64.5572069,59.0871394 64.9494885,58.9311369 64.9494885,58.9311369 C64.9494885,58.9311369 64.2433225,59.8659769 63.3019649,60.0216857 C62.3606074,60.1776882 61.418954,59.9441251 60.242405,59.7102682 C59.0655602,59.4764113 57.8106141,59.6324138 56.7908594,59.4764113 C55.7711047,59.3207025 54.3587725,58.7754281 53.8096966,57.4507286 C53.2603249,56.1266167 54.4371697,54.4904997 55.4569244,54.1009341"/>
        <path fill="#A67860" d="M45.9736496,40.5398188 C45.9736496,40.5398188 47.0256506,40.0057084 47.817314,39.9046446 C48.6089773,39.8035808 49.9618459,40.0168724 49.9618459,40.0168724 L51.9939594,39.08262 C51.9939594,39.08262 50.4511625,38.6716076 49.5103967,38.820853 C48.5696308,38.9703922 47.215283,39.0077035 46.6883949,39.3440931 C46.1618027,39.680189 45.1458939,40.5398188 45.9736496,40.5398188"/>
        <path fill="#391E17" d="M53.5010485,39.2952358 C53.5010485,39.2952358 53.2643779,39.0602038 52.9487184,38.9426877 C52.6330589,38.8248779 51.8837004,38.5901396 51.1736885,38.6292137 C50.4636765,38.6682878 49.1223455,38.6292137 47.8209528,38.9033199 C47.0068057,39.0748933 44.9412626,39.8434481 44.3889324,40.2353641 C43.8368981,40.6269863 43.0875397,41.7239985 43.0085508,41.9981046 C42.929562,42.2722108 43.6002275,41.1364183 43.915887,40.9404603 C44.2312506,40.7447961 44.9019161,39.961258 45.966934,39.686858 C47.031952,39.4124581 48.1363164,38.9033199 49.5563404,38.9820556 C50.9766601,39.0602038 52.2387064,39.2952358 52.6330589,39.3736778 C53.0274114,39.451826 53.4220597,39.451826 53.5010485,39.2952358"/>
        <path fill="#FEFEFE" d="M55.1625357,39.7014888 C55.1625357,39.7014888 42.9100958,39.5545937 42.5402979,39.5545937 C42.1705,39.5545937 41.4800134,39.6771042 41.3320942,39.8483838 C41.1841751,40.0199572 41.1350659,40.289069 41.1350659,40.289069 L40.8637822,40.2402998 C40.8637822,40.2402998 41.0117013,39.9218313 41.3569447,39.6771042 C41.7018921,39.4323771 42.1950546,39.3589295 42.7621767,39.3833141 C43.3290029,39.4076987 54.1765066,39.5792721 54.4477903,39.5792721 C54.7187782,39.5792721 55.1625357,39.7014888 55.1625357,39.7014888"/>
        <path fill="#A67860" d="M46.1461233,42.9340317 C46.1461233,42.9340317 49.1979914,43.4393507 50.0627268,43.4898826 C50.9274622,43.5401207 52.148387,43.742542 52.148387,43.742542 C52.148387,43.742542 52.7081131,44.5507585 51.6395451,44.1970353 C50.5715687,43.8436058 49.6050649,44.449401 48.0791309,44.0454396 C46.552901,43.6411844 46.1461233,42.9340317 46.1461233,42.9340317"/>
        <path fill="#63493C" d="M45.1060445,42.2698605 L46.837882,42.859791 C46.837882,42.859791 49.2622771,43.184429 50.4494762,43.0860093 C51.6369713,42.9878834 52.3792296,42.7913379 52.5771454,42.8894638 C52.7750613,42.9878834 53.1173462,43.0583931 53.1173462,43.0583931 L53.5832916,42.8268865 C53.5832916,42.8268865 53.4986818,42.3365508 53.3504668,42.2874879 C53.201956,42.2384249 52.4783354,41.4648756 52.4783354,41.4648756 L51.8348871,40.8749451 L52.1295421,40.7600732 C52.1295421,40.7600732 53.0871707,41.3814392 53.4333015,41.7742366 C53.7797282,42.1673277 54.5713915,42.3148103 54.4722857,42.7569644 C54.3734757,43.1994123 54.4228807,43.5925034 54.1755599,43.4450208 C53.928239,43.2975382 52.7256563,43.5775201 52.4289304,43.3809746 C52.1319088,43.184429 51.3896504,43.2334919 51.3896504,43.2334919 C51.3896504,43.2334919 50.7959029,43.5281634 49.5590029,43.4791005 C48.3221029,43.4300375 46.4420504,43.2035254 45.650387,42.859791 C44.8587237,42.5157628 44.561702,42.1226716 44.561702,42.1226716 L45.1060445,42.2698605 Z"/>
        <path fill="#2D1A0E" d="M43.1287795,43.1348666 C43.1287795,43.1348666 43.461006,42.2111906 43.859796,41.9473671 C44.2579944,41.6838374 44.7561861,41.4858229 45.0884126,41.2878083 C45.420639,41.0897938 45.6528721,40.6940586 46.2176274,40.4631396 C46.7823828,40.2322206 47.0480456,39.8035808 48.6088886,39.8035808 C50.1700274,39.8035808 50.701353,40.0344998 51.0667133,40.2322206 C51.4320736,40.4302351 52.1296604,40.7601614 52.1296604,40.7601614 L52.2624918,41.2549039 C52.2624918,41.2549039 51.2992422,40.5621468 50.701353,40.3973306 C50.1034637,40.2322206 49.0739464,39.7706763 48.044429,40.0676981 C47.0149117,40.3641323 46.0516621,40.8262641 45.6863018,41.2217056 C45.3209415,41.6177346 45.1549762,42.1124771 44.6899183,42.4424034 C44.2248605,42.7720359 43.1287795,43.1348666 43.1287795,43.1348666"/>
        <path fill="#A67860" d="M66.4139178,44.4058613 C66.4139178,44.4058613 67.3940302,44.4358279 68.2137981,44.7037644 C68.8377212,44.9076547 69.5711044,44.9467288 70.6133428,44.6044634 C70.8902474,44.5133884 71.4632862,44.1573149 71.4632862,44.1573149 C71.4632862,44.1573149 70.1580476,44.1916883 68.8634591,43.909356 C67.5688706,43.62673 66.4139178,43.5618024 66.4139178,43.5618024 L66.4139178,44.4058613 Z"/>
        <path fill="#63493C" d="M66.3321777,41.8085219 C66.035156,41.9560045 65.4908135,42.4965783 65.3425985,42.6931238 C65.1940877,42.8896694 65.1940877,43.7246208 65.1940877,43.7246208 C65.1940877,43.7246208 65.5899193,44.0239929 65.7384302,43.9746362 C65.8866452,43.9255732 66.3321777,43.7933677 66.6289035,43.8424307 C66.9259252,43.8914936 68.410146,43.8914936 68.8553827,44.1371021 C69.3006194,44.3830044 71.5273944,44.1670687 72.1208461,44.068649 C72.7145936,43.9705231 73.3716505,43.4428761 73.3716505,43.4428761 L72.6157836,42.4965783 C72.6157836,42.4965783 72.7642944,43.1352779 72.2693569,43.3811802 C71.7744194,43.6264949 69.8449619,43.8914936 69.1524044,43.744011 C68.459551,43.5968221 66.9259252,43.4302432 66.5794985,43.4302432 C66.2330718,43.4302432 65.8372402,43.5815451 65.7878352,43.4343562 C65.7384302,43.2868736 65.7384302,42.5456412 65.7384302,42.5456412 L66.3321777,41.8085219 Z"/>
        <path fill="#A67860" d="M66.7135133,40.2767298 C66.7856978,40.2053388 68.2776105,39.9421029 68.9272714,39.9183059 C69.5769324,39.8945089 70.7801068,40.2767298 71.0209192,40.4438963 C71.2611399,40.6113567 71.4353887,40.7791108 71.3575832,40.802614 C71.2800736,40.8258234 70.443147,40.3246176 68.999456,40.6830415 C67.555765,41.0417591 66.6895504,41.5673496 66.6895504,41.4236863 C66.6895504,41.2806105 66.7135133,40.2767298 66.7135133,40.2767298"/>
        <path fill="#2D1A0E" d="M66.5788773,40.2210859 C66.5788773,40.2210859 67.0350599,39.8688316 67.7953644,39.7680616 C68.5559647,39.6672916 71.3439451,39.9696016 71.3439451,39.9696016 C71.3439451,39.9696016 72.6619048,40.1203159 73.1686758,40.5733402 C73.6757427,41.0266583 73.9801603,41.5804526 74.0304528,41.932707 C74.081337,42.2849613 73.9801603,42.5872713 73.9801603,42.5872713 C73.9801603,42.5872713 73.6248585,41.6306908 73.21956,41.1274283 C72.8139657,40.6238721 71.9521886,40.3218559 70.9889391,40.2210859 C70.0256895,40.1203159 66.5788773,40.2210859 66.5788773,40.2210859"/>
        <path fill="#FEFEFE" d="M65.9288613,40.5659367 C66.0223462,40.5782759 66.2125702,40.4722177 66.9693247,40.3779111 C67.7260791,40.284192 69.5863104,40.2530503 70.8161103,40.1901792 C72.0459102,40.1276019 74.5682277,40.1276019 75.2303139,40.1901792 C75.8926959,40.2530503 77.5322319,40.3153338 78.0049815,40.3779111 C78.4783228,40.4404884 79.2034225,40.5970785 79.3294497,40.6910913 C79.4557726,40.7851041 79.5817997,40.8788232 79.6448133,40.9731298 C79.7078269,41.0668488 79.7394816,41.2860162 79.7394816,41.2860162 L79.9915358,41.3174518 C79.9915358,41.3174518 79.9601769,40.9731298 79.6448133,40.7225268 C79.3294497,40.4722177 78.8564042,40.3153338 78.0999456,40.221321 C77.3431912,40.1276019 75.0726321,39.876999 73.3387237,39.9395763 C71.6045195,40.0021536 67.9467745,40.0335891 67.0953518,40.1276019 C66.2439291,40.221321 65.4558158,40.5033594 65.9288613,40.5659367"/>
        <path fill="#2D1A0E" d="M66.2746667,41.479712 C66.2746667,41.479712 67.4911539,40.9259177 68.2011658,40.7246715 C68.9105861,40.5231315 69.6708906,40.2716472 70.3809026,40.4725996 C71.0903229,40.6741396 71.7494506,40.6741396 72.2565175,41.0769258 C72.7635844,41.479712 73.2700596,42.1342763 73.4730047,42.3355225 C73.6759498,42.5370625 74.0815441,42.838785 74.1321325,42.9900869 C74.1827208,43.1408012 74.4868426,43.8458974 74.3347817,43.8458974 C74.1827208,43.8458974 73.8277148,43.6945955 73.3715322,43.4431112 C72.9153495,43.1913331 72.5606393,42.2347525 72.1044566,41.7817282 C71.6479781,41.3284101 71.1412071,41.0266877 70.4823751,40.8251477 C69.8232474,40.6239015 68.4544034,41.0769258 68.4544034,41.0769258 C68.4544034,41.0769258 67.0855595,41.4291801 66.8832061,41.479712 C66.680261,41.5299501 66.2746667,41.479712 66.2746667,41.479712"/>
        <path fill="#CA8178" d="M55.9873625,68.398258 C55.9873625,68.398258 57.4233617,69.767026 58.1123691,70.1092914 C58.8016724,70.4512631 59.6628578,70.3945616 60.524339,70.4512631 C61.3858201,70.5085522 62.9939973,70.2802773 64.0847531,69.767026 C65.1761007,69.2537747 65.4630639,68.6262391 65.9225008,67.7710161 C66.3822335,66.9154994 66.496723,66.0599827 65.9798934,66.3452529 C65.4630639,66.6302292 64.4867974,67.543035 63.5679236,67.8280114 C62.6493456,68.1129878 60.5817316,68.3412627 59.6054651,68.0562863 C58.6291987,67.7710161 55.2409624,67.543035 55.9873625,68.398258"/>
        <path fill="#461416" d="M49.8426527,65.204701 C49.8426527,65.204701 50.4742675,64.9194308 50.703838,64.9764261 C50.9337044,65.0334214 51.6804003,65.7179523 52.5415857,65.9459334 C53.4030669,66.1742083 54.9535555,66.4021894 55.7002514,66.5161799 C56.4469473,66.6304643 57.0211695,66.7444548 58.0548286,67.029725 C59.0884877,67.3147014 60.5818795,67.485981 61.3282796,67.2007108 C62.0749755,66.9154407 63.1660272,66.5731752 64.1996863,66.4594784 C65.2333454,66.3451941 66.0951224,65.7179523 66.0951224,65.7179523 L67.1861742,65.0334214 C67.1861742,65.0334214 66.1525151,66.0599239 65.5779971,66.3451941 C65.0037749,66.6304643 64.1996863,66.5731752 63.1086346,66.9154407 C62.017287,67.2577061 61.3282796,67.6569668 60.2372279,67.6569668 C59.1458803,67.6569668 56.9637769,67.0864265 55.8727251,66.9154407 C54.7813776,66.7444548 52.3694078,66.0029286 51.8525782,66.0599239 C51.3357487,66.1169192 50.4168749,65.660957 49.8426527,65.204701"/>
        <path fill="#4D2E24" d="M49.534685,64.7327566 C49.534685,64.7327566 48.1365531,65.2665732 47.7064042,64.8394024 C47.2762553,64.4125254 46.738717,63.5581838 46.738717,63.5581838 L47.9217745,61.7425611 L48.3519234,61.1020987 C48.3519234,61.1020987 50.3949828,61.9564403 50.7174466,61.8495007 C51.0402062,61.7425611 51.900504,61.6359153 52.760506,61.8495007 C53.6210997,62.0630861 55.8792336,61.5292695 56.3090867,61.5292695 C56.7395314,61.5292695 57.3847548,60.7815737 57.8146079,60.6746341 C58.2447568,60.5679883 59.2127398,60.1408176 59.2127398,60.1408176 L60.3957972,61.3153903 L61.0410206,62.3833173 L61.5785588,61.9564403 L62.0087077,60.5679883 L63.9443779,60.354403 L64.4819161,60.7815737 L65.880048,61.5292695 C65.880048,61.5292695 67.0628096,61.8495007 67.3855692,61.8495007 L69.4286286,61.8495007 C69.4286286,61.8495007 69.9661668,61.3153903 70.1812413,61.7425611 C70.3966116,62.1697319 70.6113902,62.8104881 70.3966116,63.2376588 C70.1812413,63.6648296 69.6437031,64.5191712 69.6437031,64.5191712 L67.3855692,64.5191712 L63.7290076,64.4125254 L61.3634844,63.9853546 L60.6105758,63.3443046 L60.0730376,64.0920004 C60.0730376,64.0920004 58.3527378,64.8394024 57.4921441,64.7327566 C56.6318463,64.6261108 51.6854296,64.8394024 51.6854296,64.8394024 L49.534685,64.7327566 Z"/>
        <path fill="#36211A" d="M48.7817765,75.0914425 C48.7817765,75.0914425 47.3839404,72.3148324 47.0614766,71.780722 C46.738717,71.2469054 44.6953618,68.1500641 44.0504342,67.0821371 C43.4052109,66.014504 41.6846152,63.7717105 41.1467811,63.0243085 C40.6092429,62.2766127 35.98529,57.6846737 35.98529,57.6846737 C35.98529,57.6846737 35.2323814,60.2476984 35.6625304,61.5292107 C36.0926793,62.8104293 38.2434239,70.7130888 42.1147641,73.7029905 C45.9861044,76.693186 49.7494636,76.9070652 49.7494636,76.9070652 L48.7817765,75.0914425 Z"/>
        <path fill="#4D2E24" d="M58.4600975,71.567401 C58.4600975,71.567401 60.073008,71.4607552 60.8256207,71.567401 C61.5785292,71.6740468 62.1160675,72.1012176 62.1160675,72.1012176 C62.1160675,72.1012176 62.4388271,72.9558529 62.1160675,73.5963153 C61.7936037,74.2370715 60.8256207,74.4506569 59.8582294,74.5575965 C58.8902464,74.6642423 57.9225593,73.1691445 57.9225593,73.1691445 L58.4600975,71.567401 Z"/>
        <path fill="#29140E" d="M72.8697904,64.8397843 C72.8697904,64.8397843 70.6113606,68.5773818 70.396582,69.4317234 C70.1812117,70.2860649 67.6003182,75.5187601 67.6003182,75.9459309 C67.6003182,76.3731017 66.3101673,77.8681994 65.8800184,77.6543203 C65.4498695,77.4410287 64.3744972,78.9358326 63.9443483,79.5765888 C63.5141994,80.2176388 61.3634548,81.2855657 59.9656187,81.1783323 C58.5674868,81.0716865 57.0619656,79.8971138 56.5244274,79.2563576 C55.9868892,78.6156014 52.5456978,78.1884306 52.0078638,78.081491 C51.4703255,77.9748452 49.6420447,76.4797475 49.6420447,76.4797475 C49.6420447,76.4797475 48.3518938,75.7323455 46.7386875,75.3051747 C45.1257769,74.878004 42.3301048,71.8878085 41.6845856,71.3539919 C41.0393622,70.8198815 38.7812283,66.7617591 38.3510794,66.2279425 C37.9209305,65.6938321 35.7704818,56.830479 35.5551115,56.509954 C35.3403328,56.1897228 34.3723499,52.5587712 34.0495903,52.0249546 C33.7271265,51.4908442 33.512052,43.9090035 33.512052,43.9090035 L33.7271265,39.5306498 L30.2628598,38.6980487 L30.7160841,39.4237103 C30.7160841,39.4237103 32.0065308,44.1222951 32.0065308,44.6564055 C32.0065308,45.190222 32.5440691,53.4131127 32.7594393,55.3353813 C32.9745138,57.257356 34.4797392,64.3059677 35.2326477,65.9077113 C35.9852604,67.5094548 38.8889135,73.489552 41.0393622,75.7323455 C43.1901068,77.9748452 48.2442087,82.3531989 49.5346554,83.31448 C50.8251022,84.2754674 53.9435339,85.0228694 56.847187,85.2367486 C59.7502484,85.4500402 62.5462164,84.382407 64.0517376,83.7416508 C65.5572588,83.1006009 66.7400204,81.6055031 67.2781503,81.0716865 C67.8156885,80.5378699 68.9984501,77.1205037 69.428599,76.3731017 C69.858748,75.6254059 73.0848648,67.8299798 73.0848648,67.8299798 L74.8054605,60.4614307 L72.8697904,64.8397843 Z"/>
        <path fill="#A67860" d="M27.2916076 45.6980676C27.2916076 45.6980676 28.1054588 44.35104 28.17291 43.4755456 28.2409528 42.6000511 28.3767426 40.3102512 28.3767426 40.3102512 28.3767426 40.3102512 27.4271016 38.8959457 26.8170829 39.0307954 26.2064727 39.1653513 25.799695 39.5696064 25.799695 40.3102512 25.799695 41.0511898 26.2064727 42.3982174 26.5457992 43.1388622 26.8845341 43.8798008 27.2916076 45.6980676 27.2916076 45.6980676M30.207538 45.0918611L30.9533464 46.3713169C30.9533464 46.3713169 29.8685073 47.3140893 29.7330133 48.2568617 29.5972236 49.1999279 30.275285 50.749083 30.275285 50.749083 30.275285 50.749083 31.0891362 51.4897278 31.3604199 51.7591333 31.6317037 52.028245 32.1065242 52.7019057 31.7671976 53.0385891 31.4284627 53.3752726 30.6146115 53.3079947 30.207538 52.9713112 29.8007603 52.6346278 29.8685073 51.3548782 29.8685073 51.3548782 29.8685073 51.3548782 28.5123844 50.4796775 28.1730579 49.5366113 27.834323 48.5938389 28.1730579 47.1122555 28.7836682 46.3713169 29.3939826 45.6306721 30.207538 45.0918611 30.207538 45.0918611M62.8791824 88.6422163L62.6096737 90.028318C62.6096737 90.028318 65.6023741 97.4133193 65.783723 98.1342802 65.9653677 98.8546535 66.4185921 103.807954 66.3277697 104.258335 66.237539 104.709009 66.1467166 108.311169 66.1467166 108.311169L66.7990401 108.766837C66.7990401 108.766837 67.5069812 101.826634 66.8721122 99.3952273 66.237539 96.9632329 63.2392176 89.5976217 62.8791824 88.6422163"/>
        <path fill="#1C0D0E" d="M78.8564633 41.3173342C78.8564633 41.3173342 78.6990774 41.8496819 78.8251045 41.9122592 78.9511316 41.9748365 80.0229538 42.006272 80.0229538 42.006272L80.0229538 42.4131713C80.0229538 42.4131713 80.9376859 42.4757486 81.063713 42.1940039 81.190036 41.9122592 81.2844084 41.1610379 81.190036 41.0044478 81.0950719 40.8475639 80.5906676 40.7227031 80.5906676 40.7227031L79.5502042 40.5972547C79.5502042 40.5972547 79.6448725 40.7227031 79.834209 40.9418705 80.0229538 41.1610379 79.991595 41.3173342 79.991595 41.3173342L78.8564633 41.3173342zM39.5819147 40.1668523L43.0210352 40.4239186 42.9840554 41.0114988C42.9840554 41.0114988 41.467884 41.0482225 41.0241266 40.974775 40.5803691 40.9013275 39.4709754 40.7911562 39.360036 40.8646037 39.2490966 40.9380512 39.3230562 41.1216701 39.0272179 41.0849463 38.7313796 41.0482225 37.5850061 41.1583938 37.4740667 40.9380512 37.3631274 40.7177087 37.4740667 39.6527196 37.4740667 39.6527196L39.1011775 39.6894434 39.5819147 40.1668523zM56.7876347 41.6992026L59.0265391 41.7608985 58.7780349 42.7800563C58.7780349 42.7800563 59.2753392 41.8845841 59.6483913 41.6375067 60.0217392 41.3901354 61.0790654 41.0196661 61.7630436 41.0505141 62.4473176 41.0813621 63.5043479 41.143058 63.7534438 41.2978853 64.0022438 41.4521251 64.1889178 42.8726002 64.1889178 42.8726002L64.406359 45.0651556 64.593033 45.343081C64.593033 45.343081 64.935022 44.787524 64.903959 44.6946863 64.872896 44.6021424 64.8104741 43.3359072 64.8104741 43.3359072L64.468485 43.9534539C64.468485 43.9534539 64.468485 42.7492084 64.406359 42.4401412 64.3442329 42.1316616 64.1889178 41.4521251 64.1889178 41.4521251 64.1889178 41.4521251 64.717285 41.6992026 65.2770111 41.8225944 65.8367372 41.9462801 67.3295374 41.8845841 67.4537895 41.8534424 67.5783374 41.8225944 67.7647156 41.1741997 67.4227265 41.2050477 67.0807374 41.2358956 65.7432523 41.3901354 65.0592741 41.2050477 64.3750001 41.0196661 63.2247807 40.4946633 61.9807806 40.4638153 60.7370763 40.4329673 59.4620131 41.0813621 58.5600021 41.1125038 57.6582869 41.143058 56.9743087 41.143058 56.7565717 41.143058 56.5388347 41.143058 56.6009608 41.6066587 56.7876347 41.6992026"/>
      </g>
    </g>
  </g>
</svg>
