<svg xmlns="http://www.w3.org/2000/svg" xmlns:xlink="http://www.w3.org/1999/xlink" width="120" height="120" viewBox="0 0 120 120">
  <defs>
    <path id="daniel-a" d="M120,59.9999233 C120,93.1369885 93.1369885,120 59.9999233,120 C26.8628581,120 0,93.1369885 0,59.9999233 C0,26.8628581 26.8628581,0 59.9999233,0 C93.1369885,0 120,26.8628581 120,59.9999233"/>
  </defs>
  <g fill="none" fill-rule="evenodd">
    <mask id="daniel-b" fill="#fff">
      <use xlink:href="#daniel-a"/>
    </mask>
    <use fill="#7BCAEC" xlink:href="#daniel-a"/>
    <path fill="#E9E9E9" d="M5.69421457,106.850916 C6.38881854,106.237755 35.4599267,95.3448713 35.4599267,95.3448713 L37.9870534,93.7550676 C37.9870534,93.7550676 38.8298163,88.2357547 39.9529192,87.3938207 C41.0760221,86.5518867 41.7314075,85.8037267 41.7314075,85.8037267 C41.7314075,85.8037267 75.3556433,86.6529188 76.6556653,87.2106275 C77.9553969,87.7683362 78.7978693,88.7969473 79.4529642,89.9196227 C80.1083497,91.0420079 80.6699011,93.1935847 80.6699011,93.1935847 C80.6699011,93.1935847 96.3950843,98.5253496 100.888077,100.396475 C105.380779,102.267311 110.145977,103.912856 113.361317,106.514142 C116.576947,109.115428 123.773113,127.630427 123.773113,127.630427 C123.773113,127.630427 79.5229766,139.412568 60.6899417,139.412568 C41.8563258,139.412568 -7.75280706,132.06771 -7.59970949,130.844002 C-7.44632141,129.619714 0.461008389,111.472262 5.69421457,106.850916" mask="url(#daniel-b)"/>
    <path fill="#D79F7D" d="M76.6556072,87.2105114 L76.6556072,83.1793894 L79.0165635,73.3479228 C79.0165635,73.3479228 80.0987048,72.7582787 81.1808461,72.7582787 C82.2629874,72.7582787 83.5420929,71.6765387 83.8369582,71.2834426 C84.1321141,70.8900562 83.9354404,66.9573534 84.2305962,66.072742 C84.5257521,65.1881307 85.1160638,64.1063907 85.2145459,63.0249409 C85.3127375,61.9434912 85.7060849,57.5192732 85.4109291,56.9293387 C85.1160638,56.3394043 84.033632,54.7664393 84.033632,54.7664393 C84.033632,54.7664393 84.4272699,36.283375 81.5741936,32.4490914 C78.7214077,28.6148078 69.1785194,23.7972034 59.53773,23.6987842 C49.8966501,23.6006553 41.1410377,28.8113559 39.7640311,30.5808689 C38.3864434,32.3506722 35.6318492,52.0138958 35.8288134,53.7831185 C36.0254872,55.5529218 35.4351755,55.3563738 34.8448638,55.5529218 C34.2548426,55.7497602 33.9593962,57.0277579 33.9593962,57.8142404 C33.9593962,58.6007229 33.8612046,62.1403296 34.2548426,63.4183274 C34.64819,64.6963251 35.041828,66.7610957 35.041828,68.1375126 C35.041828,69.5136392 35.041828,71.3818618 36.320643,71.7749578 C37.599458,72.1683442 39.5670668,72.3648923 39.5670668,72.3648923 L42.5183348,82.2944877 C42.5183348,82.2944877 42.0265053,90.5532797 41.9283136,91.1429238 C41.8298315,91.7328583 43.6986677,96.9435588 44.7810995,98.614943 C45.8632408,100.286327 49.011473,105.693576 49.011473,105.693576 L53.0445918,110.805857 C53.0445918,110.805857 58.0622412,111.789178 58.5537803,112.870628 C59.0459004,113.952077 63.1777918,119.457745 63.3744655,118.769391 C63.5714298,118.081328 68.4900161,111.789178 69.5721574,109.724698 C70.6545891,107.660217 74.7801043,105.928377 74.6816221,104.945056 C74.58314,103.962025 77.2456284,93.4042424 77.2456284,93.4042424 L76.6556072,87.2105114 Z" mask="url(#daniel-b)"/>
    <path fill="#5D433A" d="M53.7550865 78.5612362C55.8470327 79.6868149 57.6586389 80.3551363 59.4926141 80.2680397 61.3262989 80.1806527 66.1301347 77.9114954 66.6539201 78.5223331 67.177996 79.133461 66.1301347 80.5296199 65.1694256 81.1407478 64.208426 81.7515855 63.2480075 83.2354216 64.3833117 83.4972921 65.5186159 83.7588723 67.0034009 82.7116806 68.3133002 81.4026183 69.6234901 80.0932658 71.3700225 77.9988824 71.3700225 77.9988824 71.3700225 77.9988824 69.7980852 88.2974772 68.7499333 89.5194428 67.702072 90.7414084 61.0645514 92.9234691 61.0645514 92.9234691 61.0645514 92.9234691 54.0778406 92.487115 52.3313082 90.8287953 50.5844852 89.1704757 48.6630671 78.9586872 48.6630671 78.9586872 48.6630671 78.9586872 51.1085611 80.7917807 51.8072322 81.6641985 52.5056128 82.5369067 53.7283598 83.4972921 54.7765117 83.8462592 55.8243731 84.1952263 57.3091581 83.060938 56.8722344 82.2753265 56.4358918 81.489715 53.8396243 80.8298129 53.5775863 80.2189753 53.3155483 79.6078473 52.6200728 77.9503986 53.7550865 78.5612362M72.655374 73.3966679C73.1381978 73.7412802 75.2083558 71.5348324 75.967162 71.0523172 76.7262587 70.5695116 77.6921969 70.8453175 79.1412494 68.9834821 80.5900115 67.121937 81.9699232 62.1571392 82.1082049 62.7087512 82.246196 63.2603631 81.1655073 70.7831886 80.8895249 71.6106065 80.6135426 72.4380244 79.555223 77.3958544 78.5892848 79.0509805 77.6233466 80.7058163 75.0012238 83.8778753 74.5181095 83.8087786 74.0352857 83.7399723 72.655374 82.2227492 72.7933651 80.1542044 72.9313563 78.0853693 72.655374 73.3966679 72.655374 73.3966679M37.4659407 61.8121495C37.8107733 62.9156637 39.8809314 68.2250737 40.3640457 68.8457823 40.8468696 69.4662006 43.6069835 70.6385211 44.2277985 71.5347454 44.848904 72.4312599 46.5047981 73.6726771 46.7804899 74.0860957 47.0567627 74.4998047 49.6097446 81.4643408 48.7126568 82.5675647 47.8158594 83.6707886 43.8829658 82.9124673 43.8829658 82.9124673 43.8829658 82.9124673 40.8468696 77.9476696 40.1569137 75.9479312 39.4669579 73.948483 37.4659407 61.8121495 37.4659407 61.8121495" mask="url(#daniel-b)"/>
    <path fill="#B9736B" d="M52.1663579,75.8085475 C52.1663579,75.8085475 54.6670484,77.8997374 55.1774705,78.2057369 C55.6878925,78.5120266 57.5253539,79.3789284 58.6481663,79.4808314 C59.7709786,79.5830248 62.0677327,79.3278317 62.6292842,79.0218322 C63.1905451,78.7158327 65.9977212,77.1855451 66.5592727,76.6754492 C67.1205336,76.1653533 67.9882802,75.1965486 67.9882802,75.1965486 C67.9882802,75.1965486 60.7409839,74.7375494 59.1585883,74.9921619 C57.5764833,75.247355 53.0849433,75.400645 52.1663579,75.8085475" mask="url(#daniel-b)"/>
    <path fill="#954D4A" d="M68.3814533,75.2863162 C68.4709297,75.0912198 63.9921721,74.3169308 63.2778136,74.1131247 C62.5631646,73.9090283 61.1056873,73.5838676 61.0318984,74.062028 C61.0176635,74.1552214 59.4320723,74.2420277 58.9097394,73.9981572 C58.4710728,73.7931898 57.3784732,73.8451574 56.6638242,74.0489635 C55.9494657,74.2530599 51.6656388,75.2622195 51.4747752,75.531348 C51.2551513,75.8402507 52.3050463,75.625993 52.2530454,75.643122 L54.5753642,75.4930255 C54.5753642,75.4930255 58.3014162,75.900928 59.0157747,75.9520247 C59.2720026,75.9700247 60.8793818,75.8806055 60.9488132,75.8753797 C61.6634622,75.8245733 65.1788962,75.4930255 65.1788962,75.4930255 L67.6612847,75.401574 C67.6214851,75.3885096 68.291977,75.4811223 68.3814533,75.2863162" mask="url(#daniel-b)"/>
    <path fill="#A67860" d="M54.6779424 62.4787C54.6079301 62.6737964 53.8290789 63.8661491 54.0097747 64.5812124 54.19018 65.2962757 54.2927292 65.3566627 54.8130285 65.3615981 55.3333279 65.3662433 57.0897376 64.65118 57.4151062 64.7162122 57.7401844 64.7812443 57.7584864 65.0317923 59.2781323 65.3615981 60.7974877 65.691404 61.5783725 64.65118 62.0335981 64.7812443 62.4891142 64.9113086 64.1127619 64.6415994 64.8622718 65.3615981 65.6114912 66.0813065 66.3769791 66.0409518 66.5146797 65.5738236 66.6523804 65.106405 66.6599336 63.8856007 66.6599336 63.8856007 66.6599336 63.8856007 67.9471733 65.9535648 67.202021 66.9275954 66.4571592 67.9019162 65.3511963 68.5496248 64.1804502 68.0958514 63.0094135 67.6417877 61.167885 67.4034333 61.167885 67.4034333 61.167885 67.4034333 60.1418117 68.0871417 59.6671221 67.7939164 59.1924325 67.5004008 59.1636722 66.9769501 57.8703318 66.9275954 56.5769914 66.8779503 55.958791 68.4970765 55.208119 68.0958514 54.4577376 67.6940456 52.8884148 66.8239504 52.8884148 65.7050491 52.8884148 64.5864382 52.8497773 65.0773728 53.2161075 64.2217937 53.5824378 63.3665049 54.6779424 62.4787 54.6779424 62.4787M54.3170737 48.4865407C52.6452018 47.877445 49.044649 48.2748959 48.6385192 48.3561861 48.2323894 48.4371859 46.6775921 49.1955072 46.6775921 49.1955072 46.6775921 49.1955072 48.7927788 49.3879907 48.8883558 50.0078283 48.9836424 50.6276659 48.3427823 50.7141819 48.3427823 50.7141819 48.3427823 50.7141819 46.6761395 51.1296328 45.6805695 51.7935994 44.79394 52.3849854 44.382581 53.8844989 44.3032724 54.2058855 44.1432026 54.6134977 44.0682517 55.0243034 44.30763 55.1950128 44.8546561 55.5857863 48.3724141 57.2263963 49.9437704 57.6354601 50.2714631 57.7208148 49.4362534 59.1741671 49.6945148 59.1608122 51.0421801 59.2522637 54.757774 57.7756856 56.3259347 56.3243656 56.3259347 56.3243656 57.3441642 54.1844016 57.3848353 52.6610817 57.4252159 51.1377618 55.9889457 49.0950557 54.3170737 48.4865407M70.3939456 50.4526598C70.4433319 50.0586928 71.114502 50.6235352 71.114502 50.6235352 71.114502 50.6235352 73.5239688 49.4555594 72.9324951 49.3074951 72.3404404 49.1597212 67.720403 47.9945028 66.0935597 48.3394054 64.466426 48.6840177 63.6893178 50.2558214 63.3935809 51.3395937 63.0975536 52.423366 63.3441946 54.8870391 64.0838273 55.6752635 64.8228789 56.4631976 69.8024719 57.7440986 69.3094803 56.7590358 68.8164887 55.7733924 70.0244198 55.6604571 70.0244198 55.6604571 70.0244198 55.6604571 68.2741107 51.83198 69.2107076 51.9800442 70.1475951 52.1278181 70.3445593 50.8469172 70.3939456 50.4526598z" mask="url(#daniel-b)"/>
    <path fill="#AAA3A4" d="M66.2403823 53.3440234C66.0933854 53.2227173 67.186566 52.5743204 68.108928 52.2219338 69.0309996 51.8698624 70.2061033 51.7103744 71.6749104 52.4277553 73.1437174 53.1445057 73.9556865 54.072436 73.9556865 54.072436 73.9556865 54.072436 71.6383064 54.8979283 70.8304044 55.0173867 70.0227929 55.1365299 68.5429466 54.7649165 67.7460839 54.4992082 66.9486402 54.2338152 65.8466187 54.1571045 65.8466187 54.1571045L66.2403823 53.3440234zM45.9385985 53.8339539C46.1221994 53.6870509 47.0035998 52.5126981 48.2153075 52.292634 49.4270153 52.0725699 50.7491159 51.9259572 51.9605332 52.1828922 53.1725314 52.439537 54.4577376 53.5404382 54.4577376 53.5404382 54.4577376 53.5404382 54.4577376 53.9439859 54.2741367 54.0908889 54.0908263 54.2377919 53.3561323 54.5310172 53.3561323 54.5310172 53.3561323 54.5310172 51.8876157 55.0817581 50.4920166 55.1552096 49.096708 55.2286611 47.7377128 54.7879522 47.2973031 54.5310172 46.8566029 54.2743724 45.9385985 53.8339539 45.9385985 53.8339539" mask="url(#daniel-b)"/>
    <path fill="#D8CECD" d="M46.6779407 54.1118211C46.6779407 54.1118211 47.5128599 53.6121768 49.5185252 53.47079 51.5247716 53.3291128 52.0142771 52.8886942 52.7483901 53.3781772 53.4830842 53.8670796 53.9722992 54.1608855 53.8255928 54.2096597 53.6788864 54.2587241 53.0821835 54.975239 50.4920166 55.1552386 47.9018497 55.334948 46.6779407 54.1118211 46.6779407 54.1118211M66.6599917 54.2348596C66.6599917 54.2348596 68.0308977 53.3276031 69.4506089 53.3276031 70.8703202 53.3276031 72.2903219 53.9634085 72.2903219 53.9634085L72.9265339 54.3059885C72.9265339 54.3059885 72.10614 54.8944714 70.3131264 54.9917292 68.5204032 55.0886968 66.6599917 54.2348596 66.6599917 54.2348596" mask="url(#daniel-b)"/>
    <path fill="#4F392E" d="M52.0287734 52.0475151C52.0287734 52.0475151 53.6707231 52.6089979 54.1032891 52.8249976 54.5352741 53.0407069 55.097116 53.5589318 55.2696776 53.8614474 55.4428202 54.1636726 55.4858154 54.5091559 55.4858154 54.5091559 55.4858154 54.5091559 54.8376926 54.7684135 54.7081262 54.7684135 54.5782692 54.7684135 53.9734321 54.7251555 53.7572944 54.6818975 53.5411566 54.6389299 52.2016255 55.0706388 52.2016255 55.0706388 52.2016255 55.0706388 52.4177633 54.7251555 52.9363196 54.4658979 53.4548758 54.2066403 53.8868608 54.5953816 54.2758507 54.4229302 54.6648405 54.2501886 54.8376926 54.034189 54.7514118 53.904415 54.6648405 53.7749314 53.3683045 52.9112232 53.3683045 52.9112232L52.0287734 52.0475151zM46.7996343 53.1702486L46.1945068 53.9044731C46.1945068 53.9044731 46.7563487 54.422698 47.0154816 54.5954396 47.274905 54.7684716 47.8364564 54.9412132 47.8364564 54.9412132 47.8364564 54.9412132 47.3181906 55.2001805 46.7996343 54.8979552 46.2810781 54.5954396 45.3299558 54.0772147 45.3299558 54.0772147L46.7996343 53.1702486zM66.4731445 52.6395874C66.7755631 52.4647214 68.6795044 51.8532104 68.6795044 51.8532104L68.4469604 52.0664062C68.4469604 52.0664062 67.1512467 52.6717303 66.6326904 52.9779663 66.1141341 53.2839084 66.0065236 53.974488 66.0065236 53.974488L66.3010985 54.1540563 67.3896309 54.193144 67.9514728 54.5866661 68.859019 54.9217036C68.859019 54.9217036 67.3030596 54.4990861 67.0869219 54.5866661 66.8710746 54.6742461 65.9257625 54.5860783 65.7096247 54.4550022 65.4937775 54.3236323 65.5245713 53.7120419 65.6111426 53.4936798 65.6111426 53.4936798 66.1704355 52.8147473 66.4731445 52.6395874z" mask="url(#daniel-b)"/>
    <path fill="#3E2B21" d="M72.7038887,54.6244138 C72.8770313,54.5378978 73.8708583,54.1924145 73.8708583,54.1924145 L73.8275726,53.7604153 L75.0375373,54.4084141 C75.0375373,54.4084141 74.6485475,54.4949301 73.9571391,54.6244138 C73.2660212,54.7538974 72.1420468,54.9696067 72.1420468,54.9696067 L72.7038887,54.6244138 Z" mask="url(#daniel-b)"/>
    <path fill="#301A13" d="M51.9431027,52.5138884 C52.3178577,53.4620803 51.8524643,54.5339494 50.9039566,54.9084649 C49.9548678,55.28269 48.8823133,54.8178844 48.5075583,53.8696925 C48.1328034,52.9215006 48.5981967,51.8496315 49.546995,51.4751161 C50.4957932,51.1006006 51.5686382,51.5656966 51.9431027,52.5138884" mask="url(#daniel-b)"/>
    <path stroke="#1D0500" stroke-width=".5" d="M51.9431027,52.5138884 C52.3178577,53.4620803 51.8524643,54.5339494 50.9039566,54.9084649 C49.9548678,55.28269 48.8823133,54.8178844 48.5075583,53.8696925 C48.1328034,52.9215006 48.5981967,51.8496315 49.546995,51.4751161 C50.4957932,51.1006006 51.5686382,51.5656966 51.9431027,52.5138884 Z" mask="url(#daniel-b)"/>
    <path fill="#1D0500" d="M52.1076463,52.9377587 C52.1076463,52.9377587 51.213754,52.6979526 50.237648,52.7899847 C49.3359121,52.8750491 48.3339509,53.2794677 48.355739,53.375274 C48.2348878,52.3399855 48.9768445,51.4028259 50.0127951,51.2820519 C51.0487456,51.1612779 51.9867951,51.9027605 52.1076463,52.9377587" mask="url(#daniel-b)"/>
    <path fill="#000" d="M50.9319906,52.91282 C51.0859596,53.3030129 50.8948056,53.7440121 50.5043632,53.8981731 C50.1142113,54.0520438 49.6729301,53.8607216 49.5186705,53.470819 C49.3644109,53.0806262 49.556146,52.6396269 49.9460073,52.4854659 C50.3364497,52.3315952 50.7780215,52.5229175 50.9319906,52.91282" mask="url(#daniel-b)"/>
    <path fill="#FEFEFE" d="M51.3229268,52.9354941 C51.3278654,53.1154938 51.1858072,53.2655903 51.0056924,53.2702355 C50.8255776,53.2754613 50.6753851,53.1334938 50.670737,52.9534941 C50.6655078,52.7734944 50.8078566,52.6236882 50.9879714,52.6184624 C51.1680862,52.6138173 51.3176977,52.7554945 51.3229268,52.9354941" mask="url(#daniel-b)"/>
    <path fill="#301A13" d="M71.6281096,52.6375076 C72.002574,53.5856995 71.5374712,54.6578589 70.5886729,55.032084 C69.6398747,55.4065995 68.5670297,54.9417939 68.1922747,53.993602 C67.8178102,53.0454101 68.2829131,51.9732507 69.2317113,51.5990255 C70.1805096,51.2245101 71.2533546,51.6893157 71.6281096,52.6375076" mask="url(#daniel-b)"/>
    <path stroke="#1D0500" stroke-width=".5" d="M71.6281096,52.6375076 C72.002574,53.5856995 71.5374712,54.6578589 70.5886729,55.032084 C69.6398747,55.4065995 68.5670297,54.9417939 68.1922747,53.993602 C67.8178102,53.0454101 68.2829131,51.9732507 69.2317113,51.5990255 C70.1805096,51.2245101 71.2533546,51.6893157 71.6281096,52.6375076 Z" mask="url(#daniel-b)"/>
    <path fill="#1D0500" d="M71.8445669,53.3338451 C71.8445669,53.3338451 70.9936698,52.9700715 70.0137872,52.9233297 C69.1094366,52.880362 68.0601227,53.139039 68.0679664,53.2371678 C68.0949837,52.1952019 68.9618587,51.3724292 70.0047815,51.3991388 C71.0477042,51.4258484 71.8712936,52.2918792 71.8445669,53.3338451" mask="url(#daniel-b)"/>
    <path fill="#000" d="M70.616736,53.0367004 C70.7709956,53.4268933 70.579551,53.8676022 70.1891086,54.0217632 C69.7992472,54.1759242 69.3576755,53.984602 69.2037064,53.5944091 C69.0491563,53.2042163 69.2408914,52.7635074 69.6310433,52.6093463 C70.0211951,52.4551853 70.4627669,52.6465076 70.616736,53.0367004" mask="url(#daniel-b)"/>
    <path fill="#FEFEFE" d="M71.0076722,53.0594036 C71.0129014,53.2394033 70.8705526,53.3894998 70.6904378,53.394145 C70.510323,53.3990804 70.360421,53.2574033 70.3554824,53.0774036 C70.3505438,52.8971136 70.492602,52.7473074 70.6727168,52.7423719 C70.8528316,52.7377268 71.0027336,52.8794039 71.0076722,53.0594036" mask="url(#daniel-b)"/>
    <path fill="#4F392E" d="M44.3362741,53.0406778 C44.3362741,52.8679362 44.8548304,52.090744 45.6758052,51.6154868 C46.49678,51.1405199 47.9661681,50.5354887 49.7382653,50.4922307 C51.5100719,50.4489727 52.3014149,50.5636499 52.8498935,50.7517786 C54.7349981,51.3986162 55.66869,53.2206775 55.66869,53.2206775 C55.66869,53.2206775 53.3606061,51.1082941 52.1076463,50.9352622 C50.8543959,50.7625205 50.3433928,50.535779 48.4417293,50.9245203 C46.5403562,51.3132615 46.0647951,51.7020028 45.5462388,52.090744 C45.0276825,52.479195 44.3362741,53.0406778 44.3362741,53.0406778" mask="url(#daniel-b)"/>
    <path fill="#A67860" d="M70.3634033,51.8200073 C69.8858086,51.7732655 67.8598467,52.1918342 67.8598467,52.1918342 C67.8598467,52.1918342 68.5004162,50.4827081 69.2409204,50.1006443 C69.9814246,49.7179998 71.4694052,50.6249659 72.1224666,50.8949655 C73.8701611,51.6175771 75.336063,54.1634113 75.336063,54.1634113 C75.336063,54.1634113 70.8412885,51.8670395 70.3634033,51.8200073 Z" mask="url(#daniel-b)"/>
    <path fill="#4F392E" d="M64.8621846,52.9480571 L66.5145926,51.2717375 L67.1203012,50.6594483 L67.4706535,50.3104811 C67.4706535,50.3104811 68.8970464,50.1377395 69.7180213,50.2242555 C70.5389961,50.3104811 72.094665,50.5697387 72.959216,51.001738 C73.8234765,51.4334469 75.3361502,52.8586379 75.3361502,52.8586379 C75.3361502,52.8586379 73.4344866,51.5629305 72.6135118,51.2174473 C71.9953113,50.957609 70.0637255,50.6129967 69.5018835,50.5697387 C68.9400416,50.5264807 67.7971842,50.8856091 67.321623,51.2310924 C66.8460619,51.5765757 64.8621846,52.9480571 64.8621846,52.9480571" mask="url(#daniel-b)"/>
    <path fill="#1D0500" d="M66.4,52.6240612 C66.4,52.6240612 67.4147435,52.1778362 68.1459514,51.934256 C68.8765784,51.6909661 70.2977422,51.488031 71.2317245,51.8126111 C72.1654163,52.1371911 73.789645,53.1112217 73.9110773,53.1922215 C74.0330905,53.2732214 75.42317,54.125607 75.42317,54.125607 C75.42317,54.125607 74.7221748,54.2167681 74.1946128,54.013833 C73.6667603,53.8111882 72.0030225,52.5430614 71.2721051,52.3401263 C70.5414781,52.1371911 69.0389722,51.8936109 68.2676742,52.1778362 C67.4960857,52.4617712 66.927562,52.7459965 66.4,52.6240612" mask="url(#daniel-b)"/>
    <path fill="#A67860" d="M68.0679664 54.7270426C68.0679664 54.7270426 68.7497881 54.94101 69.7932918 55.0707839 70.8367956 55.2002676 72.86483 54.5569139 72.86483 54.5569139 72.86483 54.5569139 70.6752733 55.7661053 69.7932918 55.6528797 68.9113104 55.5399444 68.0679664 54.7270426 68.0679664 54.7270426M50.3781383 51.7897962C51.3332997 51.9587636 52.4362105 52.3222468 52.4362105 52.3222468 52.4362105 52.3222468 51.6827685 50.9490234 50.5539415 50.8726687 49.4248472 50.796314 47.6150327 51.7897962 48.18573 52.3222468" mask="url(#daniel-b)"/>
    <path fill="#1D0500" d="M44.2877593,54.2702789 C44.2877593,54.2702789 45.3710626,53.5868607 45.7771924,53.3029258 C46.1830317,53.0187005 47.4153655,52.445024 48.0617452,52.1535407 C48.8923068,51.7790252 49.8931059,51.5708643 51.1106238,51.6681222 C52.471943,51.776993 53.4678034,52.3680887 53.7112489,52.4897336 C53.9546944,52.6116689 54.2332913,53.2085711 54.2332913,53.2085711 C54.2332913,53.2085711 52.3656171,52.5591206 51.6346997,52.3561855 C50.9037823,52.1535407 49.6856834,52.1128956 48.9143853,52.3158307 C48.1430873,52.5187658 46.6237319,53.4977319 46.1772215,53.8223119 C45.7307112,54.146892 45.7879412,54.3039563 45.2603792,54.4665366 C44.7322361,54.6285363 44.2877593,54.2702789 44.2877593,54.2702789" mask="url(#daniel-b)"/>
    <path fill="#2F1A16" d="M65.9759913 48.5781083C65.9759913 48.5781083 64.5138659 48.7493983 63.9595771 48.5781083 63.4052884 48.4065279 63.0369246 47.1172076 63.3439913 46.4416281 63.6513484 45.7660487 65.1256751 44.967663 66.4779886 44.8451471 67.8297211 44.7223408 70.6816354 44.5379863 71.7443127 44.5379863 72.8072804 44.5379863 73.9414226 45.0292113 75.1255321 46.1960157 76.3096416 47.3625297 77.5387798 47.9190772 77.8458464 48.654463 78.1532036 49.3892681 78.2147913 51.188394 77.5387798 50.9030074 76.8627683 50.6173305 72.00025 49.0696235 70.4820566 48.7668176 68.9632822 48.4640117 68.4031833 48.2709475 67.1897325 48.4245279L65.9759913 48.5781083zM55.969075 48.4088505C55.969075 48.4088505 56.7383394 46.6555955 56.3537072 46.0790159 55.969075 45.5021459 54.389294 45.1819207 53.5439165 45.0535983 52.69912 44.9255663 47.8502555 45.1177595 46.7803156 45.3099527 45.7103756 45.5021459 44.6843023 46.3350799 43.5943174 47.3604975 42.5043324 48.385915 41.927384 50.6036853 41.6708657 50.7442012 41.4143474 50.8847171 41.1581196 51.4366194 42.9531668 50.7442012 44.7485045 50.0517831 46.9923862 49.0638171 48.3711359 48.6286243 49.7495951 48.1937218 53.5476931 48.4230763 54.2132463 48.6286243 54.87909 48.8344626 55.969075 48.4088505 55.969075 48.4088505" mask="url(#daniel-b)"/>
    <path fill="#4B2D20" d="M55.2081771 66.9276534C55.2081771 66.9276534 55.692744 65.8055586 56.1287961 65.5149462 56.5648482 65.2246242 57.194669 65.418269 57.533982 65.5149462 57.8730045 65.6119138 58.6968844 66.4349769 58.8906531 66.6771055 59.0844217 66.9192341 58.3093471 66.2898159 57.5824968 66.3867834 56.8556464 66.4834607 56.4195943 67.4200397 55.2081771 66.9276534M61.4586542 66.9276534C61.4586542 66.9276534 61.5553933 65.9507197 62.0399602 65.7570749 62.5245271 65.56343 63.105833 65.4667528 63.8326834 65.7570749 64.5595337 66.0476872 65.1893544 66.9276534 65.1893544 66.9276534 65.1893544 66.9276534 64.365765 66.628912 63.6874295 66.628912 63.009094 66.628912 61.8947063 66.2093966 61.4586542 66.9276534" mask="url(#daniel-b)"/>
    <path fill="#623F30" d="M53.7573525 63.6266625C53.7573525 63.6266625 53.1246267 64.2880161 53.3186858 65.3616272 53.5124545 66.4349479 54.2334947 67.4078171 54.4577666 67.6940747 54.6895918 67.9890419 53.6629375 67.5085589 53.2637799 66.9276244 52.8646223 66.3463996 52.5003256 64.2560807 53.7573525 63.6266625M59.2781323 67.3549204C59.2781323 67.3549204 59.6174453 68.0020483 60.3925199 67.7027263L61.167885 67.4034042C61.167885 67.4034042 60.5537517 68.1840803 60.1418117 68.0871127 59.7301623 67.9904354 59.2781323 67.3549204 59.2781323 67.3549204" mask="url(#daniel-b)"/>
    <path fill="#46211C" d="M50.6352369,75.7575379 C50.6837517,75.4857965 53.102519,75.3496354 53.7573234,75.2985387 C54.4121279,75.2474421 57.1678842,75.3496354 57.9336625,75.5278932 C58.6991504,75.7064413 59.6032104,75.7575379 60.2231539,75.7575379 C60.8428069,75.7575379 62.9864634,75.2721194 63.5477243,75.2854742 C64.1092758,75.2985387 64.9131106,75.2715388 66.0934435,75.2851839 C67.2734859,75.2985387 68.1848087,74.8505718 68.3454594,75.1963454 C68.5061102,75.5424093 64.0581464,75.7575379 63.5477243,75.7064413 C63.0373023,75.6553446 60.434353,76.2165371 59.9242215,76.1654404 C59.4137994,76.1143438 56.8619795,75.9616344 55.8922647,75.7575379 C54.9225499,75.5534415 50.5867221,76.0292794 50.6352369,75.7575379" mask="url(#daniel-b)"/>
    <path fill="#4E362D" d="M69.5503112,81.6022438 C69.2054785,82.2917587 67.6875756,84.7052061 67.756426,85.6014303 C67.8255668,86.4979449 67.4804436,89.1874885 66.7904878,90.0149064 C66.1005319,90.8423243 59.0624012,91.6006456 57.8204807,91.6697422 C56.5788507,91.7385486 54.2324198,90.4283251 53.7495959,89.5318105 C53.2664816,88.6358766 50.5066582,82.705758 50.0235438,81.1194382 C49.54072,79.533699 49.3338785,77.8097666 49.4027288,76.9823487 C49.4718697,76.1546405 50.5066582,75.1205132 50.5066582,75.1205132 C50.8517814,74.7756106 54.0947191,74.2930953 55.8886043,73.7414834 C57.6824895,73.1895812 58.9247006,73.0519685 59.8217884,73.1207748 C60.7185858,73.1895812 62.5816118,72.8452592 62.5816118,72.8452592 C62.5816118,72.8452592 65.6862679,73.5344838 67.1353204,74.0172894 C68.584373,74.4998047 70.5853902,74.362192 70.8613725,75.0517069 C71.1373549,75.7412218 69.8951438,80.9127289 69.5503112,81.6022438 M81.3492825,68.6387827 C81.0733001,68.1562674 80.7284675,72.6382595 80.1073619,74.1551924 C79.4862564,75.6721252 79.1411332,77.8097666 78.5891686,78.3613785 C78.0372039,78.9129905 75.1390988,82.705758 74.7251253,82.8433707 C74.3114423,82.9812736 73.6214864,80.4990199 73.4834953,80.085311 C73.3452136,79.671602 73.5520551,73.6032901 73.5520551,72.9140655 C73.5520551,72.2242603 72.7243986,71.2589394 71.8961611,70.9143271 C71.0685045,70.5694245 68.6532233,69.6732002 67.6875756,69.6041036 C66.7216374,69.5352973 64.5823385,68.3626864 64.5823385,68.3626864 C64.5823385,68.3626864 63.340418,68.2938801 62.512471,68.4320734 C61.684524,68.569686 60.7874361,69.5352973 60.1663306,69.5352973 C59.5458061,69.5352973 58.5104366,68.569686 58.096463,68.4320734 C57.6824895,68.2938801 56.1645867,68.983395 55.0606573,69.3973943 C53.9567279,69.8111032 48.9887553,70.7764241 48.3676498,71.0522301 C47.7465443,71.328036 46.7806061,72.8452592 46.7806061,74.0860957 C46.7806061,75.3275129 47.677694,81.8780498 47.677694,81.8780498 C47.677694,81.8780498 46.5737646,82.5675647 45.2627032,82.5675647 C43.9519324,82.5675647 42.0889063,78.8441841 41.4680913,77.326961 C40.8469858,75.8103185 39.6050653,70.6382308 39.3979332,70.0181029 C39.1908012,69.3973943 37.9491712,62.6398577 37.9491712,62.6398577 L36.9829425,62.5707611 C36.9829425,62.5707611 37.8108895,68.707589 38.1560127,70.2248122 C38.5008454,71.741745 40.3638714,79.3266994 40.8469858,80.4990199 C41.3298096,81.6710501 44.3659059,87.3256531 45.2627032,88.3597803 C46.1597911,89.3941979 52.2316931,94.1522863 54.4395518,94.9794139 C56.647701,95.8071221 61.5465328,96.1517344 63.8235324,95.2552198 C66.1005319,94.3587053 70.1714167,92.0143545 71.8273107,90.8423243 C73.4834953,89.6700038 76.6572922,83.7398852 77.4160984,82.8433707 C78.1751951,81.9468561 79.4171156,78.4992815 79.9690803,77.6030573 C80.5213355,76.7065427 81.6249743,69.1215883 81.3492825,68.6387827" mask="url(#daniel-b)"/>
    <path fill="#976D57" d="M35.945888 59.1125027C35.945888 59.1125027 34.8779816 56.7649584 34.6644585 56.8360873 34.4509353 56.9072162 34.5932841 58.4012136 34.6644585 58.827987 34.7356328 59.2547605 34.5224002 61.6734336 34.5932841 62.171336 34.6644585 62.6695287 34.8779816 63.5227852 34.949156 63.3096888 35.0203304 63.0963021 35.1629697 61.175241 35.2341441 60.7487578 35.3053185 60.3216941 35.945888 59.1125027 35.945888 59.1125027M36.9827973 62.5708482L37.7256255 66.8664536C37.7256255 66.8664536 36.5153703 66.2974223 36.1594984 65.9414874 35.8033359 65.5861332 36.0171496 64.2343937 36.2303823 63.949878 36.4441959 63.6653624 36.9827973 62.5708482 36.9827973 62.5708482M83.4251635 59.3259765C83.6383962 59.1837187 84.2792562 57.7608502 84.5639538 57.4052057 84.8486514 57.0495611 85.0624651 58.1164947 84.8486514 58.9700416 84.6351282 59.8238788 84.421605 61.957746 84.421605 62.5270676 84.421605 63.0960989 84.421605 64.7323541 84.3504306 64.5189674 84.2792562 64.3052903 83.7810355 61.957746 83.4251635 61.460134 83.0690011 60.9622317 83.4251635 59.3259765 83.4251635 59.3259765M82.5709546 63.6652172C82.5709546 63.6652172 83.2115242 64.8035701 83.1403498 65.4437302 83.0691754 66.0838904 81.9300946 67.7201456 81.9300946 67.7201456L82.5709546 63.6652172z" mask="url(#daniel-b)"/>
    <path fill="#2C1E18" d="M37.7255093,62.4560258 C37.7255093,62.4560258 37.1558237,56.1246821 37.4408117,54.5598461 C37.7255093,52.9947199 36.8714166,49.5799517 37.938742,47.4457941 C39.0066484,45.3116366 40.5016011,42.8929634 40.5016011,42.8929634 L40.5727755,38.838035 C40.5727755,38.838035 39.8610316,35.9928787 40.6439499,34.0718176 C41.4268683,32.1513371 43.6335649,30.1594374 45.4843897,29.0210845 C47.3352144,27.883022 48.4740047,26.7446692 50.609527,26.7446692 C52.7450493,26.7446692 54.8805716,26.6024114 56.5890475,26.9580559 C58.2972329,27.3139908 59.4360232,28.4520533 61.2868479,27.7407642 C63.1379632,27.0294751 65.4870087,26.104509 66.7681477,26.3178957 C68.0495773,26.5315728 70.3274484,27.1717329 73.8864585,29.0210845 C77.4457592,30.8707265 79.0827702,33.7875923 79.5098166,35.1390415 C79.9371535,36.4904908 79.9371535,41.9682876 79.9371535,43.4619947 C79.9371535,44.9562824 80.7912462,46.5211183 81.0759438,47.516923 C81.3606413,48.513018 81.7879782,50.7891431 81.9300365,52.5676561 C82.0723853,54.3461691 81.7168038,63.5229594 81.7168038,63.5229594 C81.7168038,63.5229594 82.1435596,63.5940883 82.4285477,62.3848969 C82.7129548,61.1754152 83.4252797,59.6814178 83.2826404,58.8989998 C83.1402917,58.1165818 83.3625301,56.7819713 83.3625301,56.7819713 L84.5637795,55.8401665 C84.5637795,55.8401665 86.5572435,52.2123019 86.9842899,50.5049178 C87.4113362,48.7975337 87.1266387,47.3038266 86.4860691,45.3116366 C85.8454996,43.3200272 84.9911164,41.3992563 84.919942,39.3362277 C84.8487676,37.2731991 85.2046396,33.2893996 85.0622908,31.9379504 C84.919942,30.5865011 83.847097,28.9249879 83.847097,28.9249879 C83.847097,28.9249879 84.2793725,26.886927 83.3538148,25.7488645 C82.4285477,24.610802 80.6488974,23.4724491 80.5065486,23.2590624 C80.3639093,23.0456757 80.0795023,20.4847447 79.3677583,19.6309075 C78.6560144,18.7773606 76.9800753,17.0969764 76.9800753,17.0969764 C76.9800753,17.0969764 76.5477998,15.1193025 75.3378351,14.5502712 C74.12758,13.98124 72.7476683,13.6554986 72.5338546,13.4421119 C72.3203314,13.2284349 71.3950643,12.2326302 70.612146,12.1615012 C69.8292276,12.0906627 67.7645892,11.5213411 67.7645892,11.5213411 C67.7645892,11.5213411 65.7717062,9.74282808 64.9176135,9.45831245 C64.0632303,9.17379682 62.1769636,8.73250727 61.1802316,9.23040962 C60.1837901,9.72860229 58.3686978,9.74282808 58.3686978,9.74282808 C58.3686978,9.74282808 56.232304,9.43915119 54.9511649,10.0796017 C53.6697354,10.7197618 52.0629371,11.8903404 52.0629371,11.8903404 C52.0629371,11.8903404 49.8039491,11.8729211 48.6651588,12.5130813 C47.526078,13.1532414 46.4811217,15.149496 46.4811217,15.149496 C46.4811217,15.149496 43.8470881,16.0030429 42.6368329,16.8568801 C41.4268683,17.710427 41.925089,21.1960338 40.8574731,21.7653553 C39.7895667,22.3343866 38.2237301,26.6024114 37.3693468,27.1717329 C36.5152541,27.7407642 34.4511967,30.7995975 34.3797318,31.2977902 C34.3085574,31.7956926 33.7391623,34.0718176 33.7391623,34.0718176 C33.7391623,34.0718176 33.8100462,38.340423 33.8100462,39.0517121 C33.8100462,39.7630012 33.7391623,41.3992563 33.5256391,41.5415142 C33.3121159,41.683772 32.6000815,46.5211183 32.8138952,47.3038266 C33.0271279,48.0862446 35.0203014,54.4175883 35.0203014,54.4175883 C35.0203014,54.4175883 37.1558237,63.4521208 37.2981725,63.2384438 C37.4408117,63.0250571 37.7255093,62.4560258 37.7255093,62.4560258" mask="url(#daniel-b)"/>
    <path fill="#92949C" d="M39.5264539 104.371826L44.0804688 115.653742C44.0804688 115.653742 48.4488177 112.378328 48.630966 111.832523 48.8128238 111.286427 48.9949722 109.831043 48.9949722 109.831043 48.9949722 109.831043 51.6591408 112.924424 52.0234375 113.652262 52.3877342 114.380099 55.5499885 115.653742 55.5499885 115.653742L59.1915029 121.29499 58.2813422 135.306514C58.2813422 135.306514 59.9200962 134.578677 59.7379479 133.486775 59.5557996 132.394874 61.376702 121.477022 60.2841024 120.203089 59.1915029 118.929446 55.3678402 113.652262 55.3678402 113.652262 55.3678402 113.652262 52.090332 112.742392 50.8155841 111.104686 49.5414172 109.466979 47.9023726 108.557109 47.9023726 108.557109L44.0804688 113.652262 39.5264539 104.371826zM44.2316042 97.3363355C44.3251476 96.7748526 41.7884342 92.1839897 41.9853984 91.5365715 42.1820721 90.8891533 42.2660289 86.7659992 42.2660289 86.7659992 42.2660289 86.7659992 41.1426355 87.2337081 40.862005 88.6368347 40.5813746 90.0399612 41.610934 93.6881484 41.610934 93.6881484L44.2316042 97.3363355zM63.7716477 118.307286C63.7716477 118.307286 69.6695355 108.196239 70.044 108.008981 70.4184645 107.822014 72.1969528 106.605855 72.1969528 106.605855 72.1969528 106.605855 72.9455912 105.857695 73.1329687 105.576953 73.3200556 105.296502 77.1576627 93.416523 77.1576627 93.416523L78.0004256 103.893376C78.0004256 103.893376 76.9705757 106.138146 75.7536389 106.605855 74.5369925 107.073854 71.6351108 108.102755 71.6351108 108.102755L63.7716477 118.307286z" mask="url(#daniel-b)"/>
    <path fill="#A67860" d="M56.1951771 60.3650682C56.8322606 58.909103 57.3848063 52.6610817 57.3848063 52.6610817 57.3848063 52.6610817 55.6487321 55.4519478 55.7399515 55.9977533 55.8308804 56.5438491 56.1951771 60.3650682 56.1951771 60.3650682M48.3267822 54.9606934C49.1201172 55.1989746 50.9013672 55.1669922 51.5791016 55.0638428 52.2568359 54.9606934 51.8890381 55.8236084 51.8890381 55.8236084 51.8890381 55.8236084 49.9206543 55.7974854 48.979248 55.7974854 48.0378418 55.7974854 47.5334473 54.7224121 48.3267822 54.9606934z" mask="url(#daniel-b)"/>
  </g>
</svg>
