<svg xmlns="http://www.w3.org/2000/svg" xmlns:xlink="http://www.w3.org/1999/xlink" width="120" height="120" viewBox="0 0 120 120">
  <defs>
    <path id="daniel-a" d="M120,59.9999233 C120,93.1369885 93.1369885,120 59.9999233,120 C26.8628581,120 0,93.1369885 0,59.9999233 C0,26.8628581 26.8628581,0 59.9999233,0 C93.1369885,0 120,26.8628581 120,59.9999233"/>
  </defs>
  <g fill="none" fill-rule="evenodd">
    <mask id="daniel-b" fill="#fff">
      <use xlink:href="#daniel-a"/>
    </mask>
    <use fill="#7BCAEC" xlink:href="#daniel-a"/>
    <path fill="#E9E9E9" d="M4.10919077,107.83873 C4.82484335,107.206847 34.7768942,95.9813559 34.7768942,95.9813559 L37.3806005,94.3430086 C37.3806005,94.3430086 38.2489017,88.6551671 39.406038,87.7875252 C40.5631743,86.9198833 41.2384199,86.1488787 41.2384199,86.1488787 C41.2384199,86.1488787 75.8815719,87.0240003 77.2209885,87.5987383 C78.5601059,88.1734762 79.4281078,89.2334953 80.1030541,90.3904509 C80.7782997,91.5471073 81.3568678,93.7643812 81.3568678,93.7643812 C81.3568678,93.7643812 97.5585717,99.258948 102.187716,101.187207 C106.81656,103.115168 111.726158,104.810959 115.038932,107.491673 C118.352006,110.172387 125.766238,129.252731 125.766238,129.252731 C125.766238,129.252731 80.175188,141.394631 60.7714551,141.394631 C41.3671236,141.394631 -9.74531637,133.825503 -9.58757948,132.56443 C-9.42954327,131.302759 -1.28259742,112.601186 4.10919077,107.83873" mask="url(#daniel-b)"/>
    <path fill="#E0A885" d="M77.2209287,87.5986186 L77.2209287,83.4444089 L79.6534291,73.3127449 C79.6534291,73.3127449 80.7683625,72.7050964 81.883296,72.7050964 C82.9982294,72.7050964 84.3160957,71.5903261 84.6198964,71.1852271 C84.9239963,70.7798289 84.7213628,66.7270436 85.0254628,65.8154212 C85.3295627,64.9037988 85.9377627,63.7890285 86.0392291,62.6745575 C86.1403962,61.5600864 86.5456633,57.0007777 86.2415633,56.39283 C85.9377627,55.7848823 84.8225299,54.1638878 84.8225299,54.1638878 C84.8225299,54.1638878 85.2280963,35.1164552 82.2885631,31.1650942 C79.3493291,27.2137333 69.5172624,22.2490264 59.5843279,22.147602 C49.651094,22.0464769 40.6301601,27.4162828 39.211426,29.2398267 C37.7920932,31.0636699 34.9540264,51.3272972 35.1569593,53.1505419 C35.3595928,54.9743851 34.7513929,54.7718356 34.143193,54.9743851 C33.5352923,55.1772338 33.2308931,56.4942544 33.2308931,57.3047516 C33.2308931,58.1152488 33.1297259,61.7629351 33.5352923,63.0799557 C33.9405594,64.3969763 34.3461258,66.5247933 34.3461258,67.9432382 C34.3461258,69.3613839 34.3461258,71.2866514 35.6636928,71.6917504 C36.9812598,72.0971486 39.0084931,72.2996982 39.0084931,72.2996982 L42.0491935,82.5324874 C42.0491935,82.5324874 41.54246,91.0434562 41.4412928,91.6511047 C41.3398264,92.2590524 43.265294,97.6288583 44.3805268,99.3512771 C45.4954602,101.073696 48.7390934,106.646051 48.7390934,106.646051 L52.8944279,111.914433 C52.8944279,111.914433 58.0641273,112.927779 58.5705615,114.04225 C59.0775943,115.156721 63.3346946,120.830501 63.5373281,120.121129 C63.740261,119.412056 68.8078953,112.927779 69.9228288,110.800261 C71.0380615,108.672743 75.2885923,106.888022 75.1871258,105.874676 C75.0856594,104.861629 77.8288293,93.9814712 77.8288293,93.9814712 L77.2209287,87.5986186 Z" mask="url(#daniel-b)"/>
    <path fill="#5D433A" d="M53.6264528 78.6852435C55.7817912 79.8451909 57.6482946 80.5339191 59.5378449 80.444163 61.4270958 80.3541078 66.3765024 78.0156632 66.9161601 78.6451524 67.4561171 79.2749408 66.3765024 80.7137304 65.3866809 81.3435188 64.3965602 81.9730079 63.407038 83.502152 64.5767454 83.7720186 65.7464527 84.0415859 67.2762312 82.9624189 68.6258245 81.6133853 69.975717 80.2640525 71.7751747 78.1057185 71.7751747 78.1057185 71.7751747 78.1057185 70.1556029 88.7187742 69.0756889 89.9780517 67.9960741 91.2373293 61.1574166 93.4860178 61.1574166 93.4860178 61.1574166 93.4860178 53.9589873 93.0363399 52.1595296 91.3273845 50.3597726 89.6184291 48.3801297 79.0948303 48.3801297 79.0948303 48.3801297 79.0948303 50.8997297 80.9838961 51.6195726 81.8829527 52.3391162 82.7823084 53.5989162 83.7720186 54.6788302 84.1316412 55.758445 84.4912638 57.2882235 83.3223407 56.8380597 82.512741 56.3884946 81.7031414 53.7135523 81.0230896 53.4435738 80.3936005 53.1735953 79.7638121 52.4570448 78.0557543 53.6264528 78.6852435M73.0994762 73.3629784C73.5969311 73.7181132 75.7298212 71.444293 76.5116215 70.9470444 77.2937211 70.4494967 78.2889301 70.7337242 79.7818934 68.8150388 81.2745573 66.8966526 82.6962845 61.780258 82.8387565 62.348713 82.9809292 62.9171681 81.8674924 70.6696982 81.5831469 71.5223808 81.2988015 72.3750633 80.2084115 77.4842774 79.2132025 79.1899418 78.2179934 80.8953069 75.5164124 84.1642226 75.0186583 84.0930161 74.5212034 84.0221089 73.0994762 82.4585583 73.2416489 80.3268519 73.3838216 78.1948463 73.0994762 73.3629784 73.0994762 73.3629784M36.8436964 61.4247342C37.1989786 62.5619435 39.3318687 68.0334729 39.8296229 68.6731345 40.3270777 69.3124968 43.1708315 70.5206134 43.8104591 71.4442032 44.450386 72.3680923 46.1564586 73.6474153 46.4405047 74.0734574 46.7251495 74.4997987 49.3554945 81.6769924 48.4312221 82.8139025 47.5072491 83.9508126 43.4551769 83.1693365 43.4551769 83.1693365 43.4551769 83.1693365 40.3270777 78.0529419 39.6162141 75.9921428 38.9053505 73.9316428 36.8436964 61.4247342 36.8436964 61.4247342" mask="url(#daniel-b)"/>
    <path fill="#BF7971" d="M51.9895808,75.8485032 C51.9895808,75.8485032 54.5660499,78.0035462 55.0919393,78.3188891 C55.6178287,78.6345313 57.5109707,79.5279033 58.6678077,79.6329179 C59.8246447,79.7382316 62.1909973,79.4752464 62.7695655,79.1599034 C63.3478343,78.8445605 66.2400764,77.2675465 66.8186446,76.7418752 C67.3969134,76.2162038 68.2909553,75.2178173 68.2909553,75.2178173 C68.2909553,75.2178173 60.824044,74.7448028 59.1936971,75.0071897 C57.5636494,75.270175 52.9360022,75.4281456 51.9895808,75.8485032" mask="url(#daniel-b)"/>
    <path fill="#954D4A" d="M68.6960428,75.3103258 C68.7882306,75.1092723 64.1737531,74.3113409 63.4377473,74.1013117 C62.7014423,73.8909833 61.1997991,73.5558941 61.1237741,74.0486548 C61.1091078,74.1446938 59.4754684,74.2341507 58.9373073,73.9828337 C58.4853477,73.7716078 57.3596391,73.8251622 56.623334,74.0351914 C55.8873283,74.2455198 51.4736884,75.2854933 51.2770411,75.5628396 C51.050762,75.8811744 52.1324719,75.6603745 52.0788952,75.6780265 L54.4715873,75.5233469 C54.4715873,75.5233469 58.3105501,75.9437044 59.0465558,75.9963613 C59.3105481,76.0149109 60.9666358,75.9227614 61.0381711,75.917376 C61.7744762,75.8650183 65.3964385,75.5233469 65.3964385,75.5233469 L67.9540509,75.429103 C67.9130453,75.4156396 68.603855,75.5110802 68.6960428,75.3103258" mask="url(#daniel-b)"/>
    <path fill="#A67860" d="M54.577274 62.1116374C54.5051401 62.3126909 53.7026873 63.5414514 53.8888587 64.2783487 54.0747309 65.0152459 54.1803876 65.0774768 54.7164536 65.082563 55.2525196 65.0873499 57.0621539 64.3504527 57.3973822 64.4174706 57.7323112 64.4844884 57.7511678 64.7426867 59.3168636 65.082563 60.88226 65.4224392 61.686808 64.3504527 62.1558283 64.4844884 62.6251479 64.6185241 64.2979971 64.3405795 65.0702194 65.082563 65.8421425 65.8242472 66.6308269 65.7826602 66.7727003 65.3012686 66.9145737 64.8195777 66.9223558 63.5614969 66.9223558 63.5614969 66.9223558 63.5614969 68.2486028 65.692605 67.4808701 66.6963769 66.7134368 67.700448 65.5739598 68.3679339 64.3677365 67.9003049 63.1612139 67.4323766 61.2638815 67.1867442 61.2638815 67.1867442 61.2638815 67.1867442 60.2067151 67.8913293 59.717641 67.5891505 59.2285668 67.2866726 59.198935 66.7472387 57.8664025 66.6963769 56.53387 66.645216 55.8969362 68.3137811 55.1235166 67.9003049 54.3503963 67.4862302 52.7335183 66.5895672 52.7335183 65.436501 52.7335183 64.283734 52.69371 64.789659 53.0711411 63.9079553 53.4485723 63.0265508 54.577274 62.1116374 54.577274 62.1116374M54.2054699 47.6922366C52.4829352 47.0645425 48.7732747 47.4741293 48.354838 47.5579017 47.9364012 47.6413748 46.3344888 48.4228509 46.3344888 48.4228509 46.3344888 48.4228509 48.5137721 48.6212118 48.6122454 49.2599758 48.7104194 49.8987397 48.0501394 49.9878974 48.0501394 49.9878974 48.0501394 49.9878974 46.3329922 50.4160338 45.3072535 51.1002742 44.3937563 51.7097178 43.969932 53.255018 43.8882201 53.5862178 43.7232997 54.0062762 43.6460775 54.4296256 43.8927097 54.6055475 44.4563123 55.008253 48.0806691 56.698958 49.6996423 57.1205123 50.037265 57.2084732 49.1767459 58.7062027 49.4428334 58.6924401 50.8313371 58.786684 54.6595247 57.2650196 56.2752054 55.7693844 56.2752054 55.7693844 57.3242904 53.564078 57.366194 51.9942445 57.4077982 50.424411 55.9280047 48.3193322 54.2054699 47.6922366M70.7695197 49.7183899C70.8204026 49.3123933 71.5119111 49.8944828 71.5119111 49.8944828 71.5119111 49.8944828 73.9943921 48.6908436 73.384995 48.5382583 72.7749992 48.3859722 68.0149607 47.1851747 66.3388191 47.5406087 64.6623783 47.8957435 63.8617214 49.5155412 63.5570228 50.6324057 63.2520249 51.7492703 63.5061399 54.2881701 64.2681857 55.1004624 65.0296328 55.9124556 70.1601225 57.232468 69.6521918 56.217327 69.144261 55.2015876 70.3887961 55.0852039 70.3887961 55.0852039 70.3887961 55.0852039 68.5854474 51.1398267 69.5504261 51.292412 70.515704 51.4446981 70.7186368 50.1246856 70.7695197 49.7183899z" mask="url(#daniel-b)"/>
    <path fill="#AAA3A4" d="M66.4900909 52.6980393C66.3386395 52.5730293 67.4649468 51.904834 68.4152592 51.5416875 69.3652723 51.1788659 70.5759852 51.014508 72.0893016 51.7537936 73.602618 52.4924296 74.4391922 53.4486936 74.4391922 53.4486936 74.4391922 53.4486936 72.0515884 54.2993917 71.2192045 54.4224977 70.38712 54.5452789 68.8624298 54.1623186 68.0414198 53.8884971 67.2198111 53.6150004 66.084395 53.5359474 66.084395 53.5359474L66.4900909 52.6980393zM45.5731015 53.2029296C45.762266 53.051541 46.6703756 51.8413301 47.9188017 51.6145465 49.1672279 51.3877628 50.5293922 51.2366735 51.777519 51.5014538 53.0262445 51.765935 54.3503963 52.9004516 54.3503963 52.9004516 54.3503963 52.9004516 54.3503963 53.3163214 54.1612317 53.4677099 53.9723665 53.6190985 53.215409 53.9212772 53.215409 53.9212772 53.215409 53.9212772 51.702392 54.4888347 50.264502 54.564529 48.8269113 54.6402233 47.4267344 54.1860576 46.972979 53.9212772 46.5189242 53.656796 45.5731015 53.2029296 45.5731015 53.2029296" mask="url(#daniel-b)"/>
    <path fill="#D8CECD" d="M46.334848 53.4892813C46.334848 53.4892813 47.1950677 52.9743807 49.2615108 52.8286767 51.3285525 52.6826735 51.8328915 52.228807 52.5892504 52.7332361 53.3462079 53.2370668 53.8502476 53.5398439 53.6990956 53.5901073 53.5479435 53.6406699 52.9331587 54.379063 50.264502 54.5645589 47.5958452 54.7497556 46.334848 53.4892813 46.334848 53.4892813M66.9224157 53.6160767C66.9224157 53.6160767 68.3348643 52.6811177 69.7975971 52.6811177 71.2603299 52.6811177 72.723362 53.336337 72.723362 53.336337L73.3788531 53.6893775C73.3788531 53.6893775 72.5335988 54.2958293 70.6862514 54.3960569 68.8392033 54.4959853 66.9224157 53.6160767 66.9224157 53.6160767" mask="url(#daniel-b)"/>
    <path fill="#4F392E" d="M51.8478272 51.361943C51.8478272 51.361943 53.5395329 51.9405704 53.9852069 52.1631654 54.4302824 52.3854613 55.0091498 52.9195098 55.1869406 53.2312625 55.3653299 53.5427161 55.409628 53.8987484 55.409628 53.8987484 55.409628 53.8987484 54.7418651 54.1659223 54.6083724 54.1659223 54.4745804 54.1659223 53.8514149 54.1213435 53.6287276 54.0767646 53.4060402 54.032485 52.0259172 54.4773758 52.0259172 54.4773758 52.0259172 54.4773758 52.2486046 54.1213435 52.7828747 53.8541696 53.3171448 53.5869957 53.7622203 53.9876069 54.1629977 53.8098899 54.5637751 53.6318738 54.7418651 53.4092787 54.6529698 53.2755422 54.5637751 53.1421049 53.2279501 52.2520239 53.2279501 52.2520239L51.8478272 51.361943zM46.4602293 52.5189585L45.8367645 53.275602C45.8367645 53.275602 46.415632 53.8096506 46.6826174 53.9876668 46.9499021 54.1659822 47.5284703 54.3439983 47.5284703 54.3439983 47.5284703 54.3439983 46.9944994 54.610873 46.4602293 54.2994195 45.9259592 53.9876668 44.946015 53.4536182 44.946015 53.4536182L46.4602293 52.5189585zM66.7299065 51.9720939C67.0414892 51.7918884 69.0031257 51.1617054 69.0031257 51.1617054L68.763535 51.381411C68.763535 51.381411 67.4285572 52.0052183 66.8942871 52.320805 66.360017 52.6360888 66.2491455 53.3477548 66.2491455 53.3477548L66.5526469 53.5328061 67.6741652 53.5730873 68.2530326 53.9786254 69.1880802 54.323893C69.1880802 54.323893 67.5849705 53.8883712 67.3622831 53.9786254 67.1398951 54.0688795 66.1659371 53.9780196 65.9432497 53.8429412 65.7208616 53.70756 65.7525886 53.0772951 65.8417833 52.8522654 65.8417833 52.8522654 66.4180244 52.1526022 66.7299065 51.9720939z" mask="url(#daniel-b)"/>
    <path fill="#3E2B21" d="M73.1494611,54.0175256 C73.3278505,53.9283679 74.3517934,53.5723356 74.3517934,53.5723356 L74.307196,53.1271455 L75.5538263,53.7949306 C75.5538263,53.7949306 75.1530489,53.8840883 74.4406887,54.0175256 C73.7286279,54.150963 72.5705937,54.3732588 72.5705937,54.3732588 L73.1494611,54.0175256 Z" mask="url(#daniel-b)"/>
    <path fill="#301A13" d="M51.7595604,51.8425568 C52.1456715,52.8197011 51.6661753,53.924299 50.6889249,54.3102501 C49.7110759,54.6959019 48.6060198,54.2169038 48.2199086,53.2397595 C47.8337974,52.2626151 48.3132936,51.1580172 49.2908433,50.7720662 C50.268393,50.3861151 51.3737485,50.8654125 51.7595604,51.8425568" mask="url(#daniel-b)"/>
    <path stroke="#1D0500" stroke-width=".515" d="M51.7595604,51.8425568 C52.1456715,52.8197011 51.6661753,53.924299 50.6889249,54.3102501 C49.7110759,54.6959019 48.6060198,54.2169038 48.2199086,53.2397595 C47.8337974,52.2626151 48.3132936,51.1580172 49.2908433,50.7720662 C50.268393,50.3861151 51.3737485,50.8654125 51.7595604,51.8425568 Z" mask="url(#daniel-b)"/>
    <path fill="#1D0500" d="M51.9290901,52.2793696 C51.9290901,52.2793696 51.0081102,52.0322413 50.0024252,52.1270835 C49.0733639,52.2147452 48.0410403,52.6315126 48.0634887,52.7302442 C47.9389753,51.6633439 48.7034155,50.6975686 49.7707585,50.5731069 C50.8381015,50.4486452 51.8045767,51.2127684 51.9290901,52.2793696" mask="url(#daniel-b)"/>
    <path fill="#000" d="M50.7178084,52.2536695 C50.8764433,52.6557766 50.6794966,53.1102415 50.2772227,53.2691097 C49.875248,53.4276787 49.4205946,53.2305146 49.2616605,52.8287066 C49.1027263,52.4265995 49.3002716,51.9721346 49.7019469,51.8132664 C50.1042209,51.6546974 50.5591736,51.8518615 50.7178084,52.2536695" mask="url(#daniel-b)"/>
    <path fill="#FEFEFE" d="M51.1205912,52.277036 C51.1256795,52.4625318 50.9793165,52.6172114 50.7937436,52.6219984 C50.6081708,52.6273838 50.453427,52.4810814 50.4486381,52.2955855 C50.4432505,52.1100897 50.5899129,51.9557093 50.7754857,51.9503239 C50.9610585,51.9455369 51.1152036,52.0915401 51.1205912,52.277036" mask="url(#daniel-b)"/>
    <path fill="#301A13" d="M72.0410826,51.9699506 C72.4268945,52.9470949 71.9476976,54.051992 70.9701479,54.4376438 C69.9925982,54.8235949 68.8872427,54.3445967 68.5011315,53.3674524 C68.1153196,52.3903081 68.5945165,51.285411 69.5720662,50.8997591 C70.5496159,50.5138081 71.6549714,50.9928062 72.0410826,51.9699506" mask="url(#daniel-b)"/>
    <path stroke="#1D0500" stroke-width=".515" d="M72.0410826,51.9699506 C72.4268945,52.9470949 71.9476976,54.051992 70.9701479,54.4376438 C69.9925982,54.8235949 68.8872427,54.3445967 68.5011315,53.3674524 C68.1153196,52.3903081 68.5945165,51.285411 69.5720662,50.8997591 C70.5496159,50.5138081 71.6549714,50.9928062 72.0410826,51.9699506 Z" mask="url(#daniel-b)"/>
    <path fill="#1D0500" d="M72.2640992,52.6875503 C72.2640992,52.6875503 71.3874173,52.3126691 70.3778414,52.2645 C69.4460862,52.2202204 68.3649749,52.4867959 68.3730563,52.587921 C68.4008923,51.5141394 69.2940363,50.6662438 70.3685627,50.693769 C71.4430892,50.7212942 72.2916358,51.6137686 72.2640992,52.6875503" mask="url(#daniel-b)"/>
    <path fill="#000" d="M70.9990613,52.3813325 C71.1579955,52.7834396 70.9607495,53.2376053 70.5584755,53.3964735 C70.1568002,53.5553418 69.7018475,53.3581776 69.5432127,52.9560705 C69.3839792,52.5539633 69.5815245,52.0997977 69.9834991,51.9409294 C70.3854738,51.7820612 70.8404265,51.9792253 70.9990613,52.3813325" mask="url(#daniel-b)"/>
    <path fill="#FEFEFE" d="M71.4018441,52.4047289 C71.4072317,52.5902248 71.2605693,52.7449044 71.0749965,52.7496914 C70.8894237,52.7547775 70.7349792,52.6087744 70.7298909,52.4232785 C70.7248027,52.2374835 70.8711657,52.083103 71.0567385,52.0780169 C71.2423114,52.0732299 71.3967558,52.2192331 71.4018441,52.4047289" mask="url(#daniel-b)"/>
    <path fill="#4F392E" d="M43.9222218,52.3854314 C43.9222218,52.2074152 44.4564919,51.4064919 45.3023448,50.916723 C46.1481976,50.4272533 47.6621126,49.8037479 49.4879097,49.759169 C51.3134074,49.7145902 52.1287305,49.832769 52.6938297,50.0266421 C54.6360587,50.6932304 55.5980442,52.5709272 55.5980442,52.5709272 C55.5980442,52.5709272 53.2200184,50.3940436 51.9290901,50.2157282 C50.6378625,50.037712 50.1113744,49.8040471 48.1520847,50.2046583 C46.1930943,50.6052695 45.7031222,51.0058807 45.1688521,51.4064919 C44.6345819,51.806804 43.9222218,52.3854314 43.9222218,52.3854314" mask="url(#daniel-b)"/>
    <path fill="#A67860" d="M70.7380519,51.1274885 C70.2459846,51.0793194 68.1586299,51.5106688 68.1586299,51.5106688 C68.1586299,51.5106688 68.8186107,49.7493557 69.5815544,49.3556258 C70.3444981,48.9612975 71.877569,49.8959573 72.5504201,50.1742011 C74.351075,50.9188772 75.8613983,53.5424468 75.8613983,53.5424468 C75.8613983,53.5424468 71.2304185,51.1759567 70.7380519,51.1274885 Z" mask="url(#daniel-b)"/>
    <path fill="#4F392E" d="M65.0701296,52.2899825 L66.7726105,50.5624776 L67.396674,49.9314925 L67.757643,49.5718699 C67.757643,49.5718699 69.22726,49.3938537 70.0731128,49.4830114 C70.9189657,49.5718699 72.521776,49.8390437 73.4125256,50.2842338 C74.3029758,50.7291247 75.8614881,52.197833 75.8614881,52.197833 C75.8614881,52.197833 73.9021983,50.862562 73.0563455,50.5065296 C72.4194117,50.2387574 70.4292929,49.8836226 69.8504255,49.8390437 C69.271558,49.7944649 68.0940686,50.164559 67.6040965,50.5205914 C67.1141244,50.8766238 65.0701296,52.2899825 65.0701296,52.2899825" mask="url(#daniel-b)"/>
    <path fill="#1D0500" d="M66.6545455,51.9560937 C66.6545455,51.9560937 67.7000387,51.4962434 68.4534045,51.2452257 C69.2061717,50.9945071 70.670401,50.7853754 71.6326859,51.1198664 C72.5946714,51.4543573 74.2681191,52.4581292 74.3932311,52.5416023 C74.5189417,52.6250755 75.9511448,53.5034881 75.9511448,53.5034881 C75.9511448,53.5034881 75.2289074,53.5974328 74.6853586,53.3883012 C74.1415106,53.1794687 72.4273565,51.8726205 71.6742901,51.6634889 C70.9215229,51.4543573 69.3734865,51.2033395 68.5788158,51.4962434 C67.7838458,51.7888482 67.1980942,52.0817521 66.6545455,51.9560937" mask="url(#daniel-b)"/>
    <path fill="#A67860" d="M68.3730563 54.1232882C68.3730563 54.1232882 69.0755392 54.3437889 70.1506643 54.4775254 71.2257894 54.6109628 73.3152794 53.9479647 73.3152794 53.9479647 73.3152794 53.9479647 71.0593725 55.194078 70.1506643 55.0773951 69.2419561 54.9610114 68.3730563 54.1232882 68.3730563 54.1232882M50.1471728 51.0963548C51.1312785 51.2704816 52.2676108 51.6450635 52.2676108 51.6450635 52.2676108 51.6450635 51.4913373 50.2299097 50.3283033 50.1512235 49.1649941 50.0725374 47.3003367 51.0963548 47.8883279 51.6450635" mask="url(#daniel-b)"/>
    <path fill="#1D0500" d="M43.8722368,53.6525775 C43.8722368,53.6525775 44.9883675,52.9482916 45.4068043,52.6556869 C45.8249418,52.3627829 47.094619,51.7715897 47.7605859,51.471206 C48.6163161,51.085255 49.6474424,50.870738 50.9018548,50.9709656 C52.3044261,51.0831607 53.3304642,51.6923051 53.5812868,51.8176644 C53.8321094,51.9433229 54.1191486,52.5584511 54.1191486,52.5584511 C54.1191486,52.5584511 52.1948783,51.8891701 51.4418118,51.6800385 C50.6887454,51.471206 49.4337344,51.4293199 48.6390637,51.6384515 C47.844393,51.8475831 46.2789965,52.8564412 45.8189555,53.1909322 C45.3589145,53.5254231 45.4178788,53.6872832 44.87433,53.8548278 C44.3301827,54.0217741 43.8722368,53.6525775 43.8722368,53.6525775" mask="url(#daniel-b)"/>
    <path fill="#2F1A16" d="M66.217688 47.7866001C66.217688 47.7866001 64.7112557 47.9631204 64.1401704 47.7866001 63.569085 47.6097807 63.1895587 46.2810918 63.5059304 45.584884 63.8226014 44.8886761 65.3416047 44.0659122 66.7348974 43.9396554 68.1275914 43.8130993 71.0659274 43.6231157 72.160807 43.6231157 73.2559859 43.6231157 74.424496 44.1293398 75.6444876 45.3317719 76.8644792 46.5339047 78.130864 47.1074459 78.4472357 47.8652863 78.7639068 48.6225282 78.8273607 50.4765892 78.130864 50.1824885 77.4343673 49.8880887 72.4245 48.2931235 70.8603007 47.9810716 69.2955029 47.6690197 68.7184313 47.4700604 67.4682093 47.6283303L66.217688 47.7866001zM55.9075318 47.6121742C55.9075318 47.6121742 56.7001073 45.8053847 56.3038195 45.2111996 55.9075318 44.6167153 54.2798786 44.2867121 53.4088836 44.1544715 52.5384873 44.0225301 47.5426875 44.2205918 46.4403251 44.4186535 45.3379628 44.6167153 44.2807964 45.4750824 43.1577815 46.5318104 42.0347667 47.5885384 41.440335 49.8740269 41.1760434 50.0188333 40.9117518 50.1636398 40.6477595 50.732394 42.4972022 50.0188333 44.3469441 49.3052726 46.6588222 48.2871397 48.0793521 47.8386586 49.4995828 47.3904767 53.4127747 47.6268343 54.0984962 47.8386586 54.7845169 48.0507821 55.9075318 47.6121742 55.9075318 47.6121742" mask="url(#daniel-b)"/>
    <path fill="#4B2D20" d="M55.1235764 66.6964368C55.1235764 66.6964368 55.6228272 65.5400795 56.072093 65.2405935 56.5213588 64.9414066 57.170265 65.1409642 57.5198602 65.2405935 57.8691562 65.3405219 58.7180021 66.1887166 58.9176426 66.4382385 59.117283 66.6877603 58.3187213 66.0391232 57.5698452 66.1390516 56.8209691 66.2386808 56.3717033 67.2038577 55.1235764 66.6964368M61.5634619 66.6964368C61.5634619 66.6964368 61.6631325 65.6896729 62.1623832 65.4901153 62.6616339 65.2905577 63.2605552 65.1909284 64.0094313 65.4901153 64.7583074 65.7896014 65.4072137 66.6964368 65.4072137 66.6964368 65.4072137 66.6964368 64.558667 66.3885735 63.8597758 66.3885735 63.1608847 66.3885735 62.0127277 65.9562484 61.5634619 66.6964368" mask="url(#daniel-b)"/>
    <path fill="#623F30" d="M53.6287874 63.2946522C53.6287874 63.2946522 52.9768881 63.9761998 53.1768278 65.0825929 53.3764683 66.1886867 54.1193581 67.1912619 54.3504262 67.4862602 54.5892764 67.790234 53.5315113 67.2950798 53.120258 66.6964068 52.7090047 66.0974347 52.3336688 63.9432893 53.6287874 63.2946522M59.3168636 67.1367501C59.3168636 67.1367501 59.6664588 67.8036376 60.4650205 67.4951759L61.2638815 67.1867143C61.2638815 67.1867143 60.6311381 67.9912278 60.2067151 67.8912993 59.7825915 67.7916701 59.3168636 67.1367501 59.3168636 67.1367501" mask="url(#daniel-b)"/>
    <path fill="#46211C" d="M50.4120623,75.795936 C50.4620472,75.5158971 52.9541105,75.3755785 53.6287575,75.3229216 C54.3034045,75.2702647 57.1426685,75.3755785 57.9316523,75.5592792 C58.7203368,75.7432792 59.6517926,75.795936 60.2905222,75.795936 C60.9289526,75.795936 63.1375684,75.2956956 63.7158372,75.3094582 C64.2944053,75.3229216 65.1225988,75.2950972 66.3386994,75.309159 C67.5545006,75.3229216 68.4934392,74.8612763 68.6589582,75.2176078 C68.8244772,75.5742386 64.2417266,75.795936 63.7158372,75.7432792 C63.1899478,75.6906223 60.5081213,76.2689505 59.9825312,76.2162936 C59.4566418,76.1636367 56.827494,76.0062644 55.828394,75.795936 C54.8292939,75.5856077 50.3620773,76.0759749 50.4120623,75.795936" mask="url(#daniel-b)"/>
    <path fill="#4E362D" d="M69.9003206,81.8191062 C69.5450385,82.529675 67.9811385,85.0168154 68.0520752,85.9404053 C68.1233112,86.8642943 67.7677298,89.6359615 67.0568662,90.488644 C66.3460026,91.3413266 59.0945952,92.1228027 57.8150407,92.1940092 C56.5357856,92.2649165 54.1182507,90.9146861 53.6207958,89.9907971 C53.1230416,89.0675064 50.2795872,82.9563155 49.781833,81.3215584 C49.2843782,79.6873998 49.0712688,77.9108282 49.1422055,77.0581456 C49.2134415,76.2051638 50.2795872,75.1394602 50.2795872,75.1394602 C50.6351687,74.7840262 53.9763773,74.2867776 55.8246226,73.7183226 C57.672868,73.1495684 58.9527218,73.0077538 59.8769941,73.0786611 C60.8009672,73.1495684 62.7204486,72.7947327 62.7204486,72.7947327 C62.7204486,72.7947327 65.9191851,73.5050024 67.4121483,74.0025501 C68.9051116,74.4997987 70.9667657,74.3579841 71.2511111,75.0685529 C71.5354565,75.7791217 70.2556027,81.1085374 69.9003206,81.8191062 M82.0568365,68.4598142 C81.772491,67.9625657 81.4172089,72.5814125 80.777282,74.1446639 C80.1373551,75.7079153 79.7817736,77.9108282 79.2130828,78.4792832 C78.6443919,79.0477383 75.6584654,82.9563155 75.2319473,83.0981301 C74.8057284,83.2402438 74.0948648,80.6821961 73.9526921,80.2558548 C73.8102201,79.8295135 74.0233295,73.5759097 74.0233295,72.86564 C74.0233295,72.154772 73.1705925,71.1599757 72.3172568,70.8048409 C71.4645198,70.4494069 68.9760483,69.525817 67.9811385,69.4546106 C66.9859295,69.3837033 64.7818033,68.1752875 64.7818033,68.1752875 C64.7818033,68.1752875 63.5022489,68.1043802 62.6492125,68.2467932 C61.7961762,68.3886078 60.8719039,69.3837033 60.231977,69.3837033 C59.5926487,69.3837033 58.5259043,68.3886078 58.0993862,68.2467932 C57.672868,68.1043802 56.1089681,68.814949 54.9715863,69.2415895 C53.8342046,69.6679308 48.7156873,70.6627271 48.0757604,70.9469547 C47.4358335,71.2311822 46.4406245,72.7947327 46.4406245,74.0734574 C46.4406245,75.3527805 47.3648968,82.1033337 47.3648968,82.1033337 C47.3648968,82.1033337 46.227515,82.8139025 44.8767245,82.8139025 C43.5262333,82.8139025 41.606752,78.976831 40.9671244,77.4132804 C40.3271975,75.8503282 39.047643,70.5203142 38.8342343,69.881251 C38.6208255,69.2415895 37.3415703,62.277716 37.3415703,62.277716 L36.346062,62.2065095 C36.346062,62.2065095 37.1990983,68.5307215 37.5546798,70.0942721 C37.9099619,71.6575235 39.8294433,79.4740795 40.3271975,80.6821961 C40.8246523,81.8900135 43.9527515,87.7172761 44.8767245,88.7829797 C45.8009969,89.8489825 52.0568959,94.7523561 54.3316594,95.6047395 C56.6067223,96.4577212 61.6540035,96.812856 64.000003,95.888967 C66.3460026,94.9650779 70.5402475,92.549144 72.2463201,91.3413266 C73.9526921,90.13321 77.2226647,84.0220191 78.004465,83.0981301 C78.7865646,82.174241 80.0661191,78.621397 80.63481,77.6978071 C81.2038002,76.7739181 82.3408826,68.957362 82.0568365,68.4598142" mask="url(#daniel-b)"/>
    <path fill="#976D57" d="M35.2775816 58.6426554C35.2775816 58.6426554 34.1773144 56.2234304 33.9573208 56.2967312 33.7373273 56.370032 33.8839896 57.9096476 33.9573208 58.3494523 34.030652 58.789257 33.8109578 61.2817828 33.8839896 61.7948882 33.9573208 62.3082929 34.1773144 63.1876031 34.2506456 62.9679999 34.3239768 62.7480976 34.4709385 60.7683781 34.5442697 60.3288726 34.6176009 59.8887687 35.2775816 58.6426554 35.2775816 58.6426554M36.3459123 62.2065993L37.1112505 66.6333682C37.1112505 66.6333682 35.8643209 66.0469619 35.497665 65.6801588 35.1307097 65.3139541 35.3510026 63.92094 35.5706969 63.6277369 35.7909898 63.3345338 36.3459123 62.2065993 36.3459123 62.2065993M84.195623 58.8626475C84.4153173 58.7160459 85.0755973 57.2497311 85.3689221 56.8832272 85.6622469 56.5167233 85.8825398 57.616235 85.6622469 58.4958444 85.4422533 59.375753 85.2222597 61.5747765 85.2222597 62.1614819 85.2222597 62.7478882 85.2222597 64.4341053 85.1489285 64.214203 85.0755973 63.9940015 84.562279 61.5747765 84.195623 61.0619702 83.8286678 60.5488647 84.195623 58.8626475 84.195623 58.8626475M83.315529 63.3343842C83.315529 63.3343842 83.9755097 64.5074959 83.9021785 65.1672029 83.8288473 65.82691 82.655249 67.5131271 82.655249 67.5131271L83.315529 63.3343842z" mask="url(#daniel-b)"/>
    <path fill="#2C1E18" d="M37.1111308,62.0882709 C37.1111308,62.0882709 36.524182,55.5636037 36.817806,53.9509865 C37.1111308,52.3380701 36.2311565,48.8190341 37.3308251,46.6197115 C38.4310923,44.4203888 39.9713466,41.927863 39.9713466,41.927863 L40.0446778,37.7491201 C40.0446778,37.7491201 39.3113659,34.8170888 40.118009,32.8373693 C40.9246521,30.8582482 43.1982184,28.8055271 45.1051287,27.6324154 C47.0120391,26.4596028 48.1853382,25.2864911 50.3855732,25.2864911 C52.5858083,25.2864911 54.7860434,25.1398896 56.5462914,25.5063935 C58.30624,25.8731966 59.4795391,27.0460091 61.3864494,26.3130013 C63.293659,25.5799935 65.7138877,24.6267841 67.0338492,24.8466864 C68.35411,25.066888 70.7010074,25.726595 74.3678664,27.6324154 C78.0350246,29.5385349 79.7216421,32.5444653 80.1616292,33.9371802 C80.6019157,35.3298951 80.6019157,40.9749529 80.6019157,42.5142693 C80.6019157,44.0541841 81.48189,45.6668013 81.7752148,46.6930123 C82.0685395,47.7195224 82.508826,50.0651474 82.6551891,51.8979662 C82.8018515,53.7307849 82.4354948,63.1877826 82.4354948,63.1877826 C82.4354948,63.1877826 82.8751827,63.2610834 83.1688067,62.0149701 C83.4618322,60.7685576 84.1957428,59.228942 84.0487811,58.4226334 C83.9021187,57.6163248 84.1310916,56.2409628 84.1310916,56.2409628 L85.3687425,55.2704006 C85.3687425,55.2704006 87.4226145,51.5317615 87.8626017,49.7722435 C88.3025889,48.0127255 88.0092641,46.4734091 87.3492834,44.4203888 C86.6893026,42.3679669 85.809029,40.3885466 85.7356978,38.2625247 C85.6623666,36.1365029 86.0290226,32.0310607 85.8823602,30.6383458 C85.7356978,29.2456309 84.6303423,27.5333845 84.6303423,27.5333845 C84.6303423,27.5333845 85.0757171,25.4330927 84.1221123,24.2602802 C83.1688067,23.0874677 81.3352276,21.914356 81.1885652,21.6944536 C81.0416035,21.4745513 80.7485781,18.8354239 80.0152662,17.9555153 C79.2819542,17.075906 77.5552291,15.3442124 77.5552291,15.3442124 C77.5552291,15.3442124 77.1098544,13.3061514 75.8632241,12.7197452 C74.6162945,12.1333389 73.1945673,11.7976513 72.9742744,11.5777489 C72.7542808,11.3575474 71.8009753,10.3313364 70.9943322,10.2580356 C70.1876891,10.185034 68.0604859,9.59832859 68.0604859,9.59832859 C68.0604859,9.59832859 66.0072125,7.76550985 65.1272382,7.47230672 C64.2469645,7.17910359 62.3035383,6.72433955 61.2766023,7.23744503 C60.2499656,7.75084969 58.3798705,7.76550985 58.3798705,7.76550985 C58.3798705,7.76550985 56.1787375,7.45256039 54.858776,8.11256661 C53.5385152,8.77227366 51.8830261,9.9785951 51.8830261,9.9785951 C51.8830261,9.9785951 49.5555839,9.96064389 48.3822848,10.6203509 C47.2086864,11.280058 46.1320648,13.3372669 46.1320648,13.3372669 C46.1320648,13.3372669 43.418212,14.2168763 42.1712824,15.0967848 C40.9246521,15.9763942 41.4379705,19.5684317 40.3380026,20.1551372 C39.2377354,20.7415434 37.6244492,25.1398896 36.7441755,25.726595 C35.8642012,26.3130013 33.7375966,29.4652341 33.6639661,29.9786388 C33.5906349,30.4917442 33.0039854,32.8373693 33.0039854,32.8373693 C33.0039854,32.8373693 33.0770173,37.2363138 33.0770173,37.9693216 C33.0770173,38.7023294 33.0039854,40.3885466 32.7839918,40.5351482 C32.5639982,40.6817497 31.830387,45.6668013 32.0506799,46.4734091 C32.2703742,47.2797177 34.3239469,53.8043849 34.3239469,53.8043849 C34.3239469,53.8043849 36.524182,63.114781 36.6708443,62.8945795 C36.817806,62.6746771 37.1111308,62.0882709 37.1111308,62.0882709" mask="url(#daniel-b)"/>
    <path fill="#92949C" d="M38.9666494 105.283943L43.6586648 116.910345C43.6586648 116.910345 48.1593879 113.534919 48.3470559 112.972447 48.5344246 112.409677 48.7220926 110.909853 48.7220926 110.909853 48.7220926 110.909853 51.4669936 114.097689 51.8423295 114.847751 52.2176655 115.597812 55.4757457 116.910345 55.4757457 116.910345L59.227609 122.723845 58.2898677 137.163201C58.2898677 137.163201 59.978281 136.41314 59.790613 135.287898 59.602945 134.162656 61.4790263 122.911435 60.3533177 121.598603 59.227609 120.28607 55.2880778 114.847751 55.2880778 114.847751 55.2880778 114.847751 51.9112512 113.910099 50.5978745 112.222386 49.2850965 110.534673 47.5963839 109.597021 47.5963839 109.597021L43.6586648 114.847751 38.9666494 105.283943zM43.81438 98.0336282C43.9107582 97.4550008 41.2971746 92.7239589 41.5001075 92.0567722 41.702741 91.3895855 41.7892419 87.1405336 41.7892419 87.1405336 41.7892419 87.1405336 40.6318063 87.6225236 40.3426719 89.0684937 40.0535374 90.5144639 41.1142956 94.274046 41.1142956 94.274046L43.81438 98.0336282zM63.9465461 119.644913C63.9465461 119.644913 70.0231578 109.225132 70.4089697 109.032156 70.7947816 108.83948 72.6271634 107.586186 72.6271634 107.586186 72.6271634 107.586186 73.3984879 106.815182 73.5915435 106.525868 73.7842997 106.236853 77.7381979 93.9941268 77.7381979 93.9941268L78.6064991 104.790883C78.6064991 104.790883 77.5454416 107.104196 76.2916279 107.586186 75.0381135 108.068475 72.048296 109.128794 72.048296 109.128794L63.9465461 119.644913z" mask="url(#daniel-b)"/>
    <path fill="#A67860" d="M56.1404855 59.9334672C56.7968745 58.4330451 57.366164 51.9942445 57.366164 51.9942445 57.366164 51.9942445 55.5774816 54.8703279 55.6714652 55.4327992 55.7651495 55.9955697 56.1404855 59.9334672 56.1404855 59.9334672M48.0336544 54.3640733C48.8510298 54.6096303 50.6862571 54.5766713 51.3845289 54.4703723 52.0828007 54.3640733 51.7038574 55.2533369 51.7038574 55.2533369 51.7038574 55.2533369 49.6758256 55.2264162 48.7058919 55.2264162 47.7359582 55.2264162 47.216279 54.1185163 48.0336544 54.3640733z" mask="url(#daniel-b)"/>
  </g>
</svg>
