<svg xmlns="http://www.w3.org/2000/svg" xmlns:xlink="http://www.w3.org/1999/xlink" width="120" height="120" viewBox="0 0 120 120">
  <defs>
    <path id="danilo-a" d="M120,59.9999233 C120,93.1369885 93.1369885,120 59.9999233,120 C26.8628581,120 0,93.1369885 0,59.9999233 C0,26.8628581 26.8628581,0 59.9999233,0 C93.1369885,0 120,26.8628581 120,59.9999233"/>
  </defs>
  <g fill="none" fill-rule="evenodd">
    <mask id="danilo-b" fill="#fff">
      <use xlink:href="#danilo-a"/>
    </mask>
    <use fill="#7BCAEC" xlink:href="#danilo-a"/>
    <path fill="#811518" d="M12.1227544,104.65167 C13.1090793,104.06409 29.8639584,91.8717144 29.8639584,91.8717144 C29.8639584,91.8717144 32.8223416,88.1505692 34.2027232,87.9546112 C35.5834006,87.7586532 66.54791,91.4800922 70.0979698,92.4592946 C73.6480296,93.4387907 79.564796,94.613951 82.5231792,97.5518519 C85.4815624,100.489753 93.8538836,120.096552 93.8538836,120.096552 C93.8538836,120.096552 77.9867944,131.631502 60.4338194,130.652006 C42.8808444,129.672803 5.40789201,114.004097 5.40789201,114.004097 L12.1227544,104.65167 Z" mask="url(#danilo-b)"/>
    <path fill="#E8B18E" d="M79.8054605,67.4613132 C79.8054605,67.4613132 80.6743376,60.460883 80.7482972,58.6981425 C80.8222568,56.935402 80.6719709,55.8636558 80.6719709,55.8636558 C80.6719709,55.8636558 80.6003781,54.7319763 80.6743376,52.9692358 C80.7482972,51.2064953 81.0503481,47.1275138 81.0503481,47.1275138 L81.2660143,43.3476105 C81.2660143,43.3476105 81.5023891,39.7234161 81.4139334,38.5000741 C81.3248861,37.2764384 81.487893,33.6525377 80.6743376,31.5960071 C79.8607823,29.5394765 79.2691056,22.7088571 75.3492479,19.4771661 C71.4293902,16.2454752 60.1135744,14.1889446 56.489555,14.2623921 C52.8655356,14.3358396 45.7654159,15.2172099 43.1768307,18.2285583 C40.5882454,21.2399066 34.3756407,45.734655 34.3756407,45.734655 C34.3756407,45.734655 33.1183278,44.5962184 32.3047724,44.6696659 C31.491217,44.7431135 30.6776617,44.816561 30.3818233,45.5510362 C30.085985,46.2855114 29.7901467,47.5341193 30.4557829,49.0765172 C31.1214191,50.6189152 32.0828937,52.4551032 31.8610149,53.6302635 C31.6391362,54.8054239 31.0474596,57.3760871 31.5651766,58.77159 C32.0828937,60.1670929 32.6006107,62.0767285 34.0058428,63.2518888 C35.4110748,64.4270492 36.8163068,64.8677343 37.2600643,64.6473917 C37.7038217,64.4270492 39.1090538,64.6473917 39.1090538,64.6473917 L38.9611346,68.5401104 C38.9611346,68.5401104 39.8486496,77.4272604 38.9611346,80.3651613 C38.0736196,83.3030621 33.8579236,89.3992064 33.8579236,89.3992064 L32.2308128,90.9416044 C32.2308128,90.9416044 34.4496002,92.0433172 35.7808727,92.998135 C37.1121451,93.9529527 47.0966884,101.297705 48.4279608,102.472865 C49.7592333,103.648026 64.9949067,112.975861 65.2167854,112.975861 C65.4386642,112.975861 71.7991881,115.766867 71.7991881,115.766867 C71.7991881,115.766867 72.2429455,107.100059 71.5033497,105.043528 C70.7637539,102.986998 67.8793303,95.6422457 67.8793303,95.6422457 L69.2106028,89.9133391 C69.2106028,89.9133391 72.7606626,85.5064878 75.497167,79.2634485 C78.2336715,73.0204092 79.8054605,67.4613132 79.8054605,67.4613132" mask="url(#danilo-b)"/>
    <path fill="#FEFEFE" fill-opacity=".15" d="M45.9622963 52.2100529L45.8637822 47.2402998C45.8637822 47.2402998 46.3628614 46.6677029 46.7134298 46.551362 47.0642941 46.4356088 52.4009215 46.5125818 52.4009215 46.5125818 52.4009215 46.5125818 59.666119 46.6967881 60.1625357 46.7014888 60.6592482 46.7061894 62.3292555 46.8613106 62.7020118 47.0934048 63.0744723 47.3252051 63.6197023 47.9439271 63.7756091 48.176315 63.93122 48.4084092 63.5418968 50.7681311 63.2300832 51.5804607 62.9182696 52.3927903 62.3342848 54.4431513 61.7887589 54.7912926 61.2432331 55.1394338 60.4500905 55.2775152 60.3598598 55.3439117 60.2693333 55.4103083 49.3623662 55.1006535 49.3623662 55.1006535 49.3623662 55.1006535 47.1027531 54.6752455 46.7524805 54.4431513 46.4016163 54.2110571 46.0513437 53.5532611 46.0513437 53.4375079 46.0513437 53.321167 45.9622963 52.2100529 45.9622963 52.2100529M70.1638234 47.7507013C70.1638234 47.7507013 70.7093493 47.3640736 71.2548751 47.3252933 71.7998093 47.286513 75.6176028 47.1319794 76.669308 47.0544188 77.7210133 46.9768582 81.8893752 47.1701721 82.8242243 47.286513 83.7590734 47.4022663 84.4400932 47.4234192 84.6448133 47.7224975 84.8498293 48.0215758 84.9276347 48.7951251 84.8885841 49.4141408 84.8498293 50.0331565 83.9927856 53.0116004 83.9146843 53.6309099 83.8368789 54.2496318 83.2916488 54.7913807 83.2916488 54.7913807 83.2916488 54.7913807 81.7529937 55.7373848 80.6720005 55.8637145 79.5907115 55.9906318 75.5785522 56.0294121 74.6824579 56.0678986 73.7866595 56.1063851 72.0796724 55.8925059 71.4885874 55.56493 70.8972066 55.2373541 70.1404522 53.6717467 70.1404522 53.6717467 70.1404522 53.6717467 69.8523057 48.4469838 69.8913563 48.2148896 69.9301111 47.9827955 70.1638234 47.7507013 70.1638234 47.7507013" mask="url(#danilo-b)"/>
    <path fill="#1F0B04" d="M38.5879937,45.7647391 L38.3400812,42.3200503 C38.3400812,42.3200503 37.9685083,38.9987534 38.3400812,38.2604589 C38.71195,37.5224583 40.6937709,28.5421767 40.6937709,28.5421767 C40.6937709,28.5421767 41.8087855,23.8676827 42.3043147,22.7603878 C42.799548,21.6533868 45.0292815,18.8238945 46.515869,17.4704036 C48.0024566,16.1175002 51.5948213,16.2405983 51.96669,16.2405983 C52.338263,16.2405983 56.6737735,16.7326967 56.6737735,16.7326967 C56.6737735,16.7326967 59.7706091,18.4548941 60.2658424,18.3317961 C60.7616674,18.208698 62.9914009,17.5935016 62.9914009,17.5935016 C62.9914009,17.5935016 65.5927072,16.978599 66.2121926,17.101697 C66.8316781,17.2245013 68.813499,18.0856 68.813499,18.0856 L71.9103345,18.4548941 C71.9103345,18.4548941 75.00717,20.6688962 75.8742721,22.1451914 C76.7416701,23.6214866 78.4755785,26.4509789 78.8474473,27.8038822 C79.2190202,29.1573732 79.962166,31.248571 80.2097827,31.8637674 C80.4576952,32.4786701 81.2008411,36.6613595 81.3247973,37.2762622 C81.4487536,37.8914586 81.2008411,41.4589516 81.2008411,41.4589516 C81.2008411,41.4589516 81.9442828,36.9075556 81.4487536,33.9549652 C80.9532244,31.0026687 80.4576952,27.4348819 80.4576952,27.4348819 C80.4576952,27.4348819 80.7053119,24.4828791 80.333739,21.7761911 C79.962166,19.0697968 77.6084764,13.9032043 76.6177138,12.3038111 C75.6266555,10.7047117 72.7774366,10.4585156 72.7774366,10.4585156 C72.7774366,10.4585156 70.6716595,9.4746126 70.1758344,9.4746126 C69.6806011,9.4746126 68.3179698,10.0895152 68.3179698,10.0895152 C68.3179698,10.0895152 66.5837656,7.38312098 62.6195321,7.13721868 C58.6555944,6.89131638 56.7977298,7.38312098 55.3108464,8.24421972 C53.8245547,9.10561225 53.2050693,9.4746126 53.2050693,9.4746126 C53.2050693,9.4746126 47.1353545,10.950614 45.6487669,11.9348108 C44.1624752,12.9190076 41.0653438,14.8871073 40.0742854,15.7482061 C39.0835229,16.6095986 36.9777458,18.7007964 36.9777458,19.562189 C36.9777458,20.4229939 36.1103478,21.6533868 36.1103478,21.6533868 C36.1103478,21.6533868 33.756954,24.236683 33.1374685,27.0661753 C32.5179831,29.8953738 32.3940268,32.7245724 32.3940268,33.0938665 C32.3940268,33.4628669 33.1374685,40.3516568 33.3850852,41.3361473 C33.6329977,42.3200503 34.3755519,45.7344787 34.3755519,45.7344787 L38.5879937,45.7647391 Z" mask="url(#danilo-b)"/>
    <path fill="#B0625C" d="M56.2210226,72.3757162 C56.2210226,72.3757162 58.8625629,72.546702 60.0113031,72.4897067 C61.1597475,72.4327115 63.3995394,72.6036973 63.9737616,72.546702 C64.5479838,72.4897067 65.0074207,72.3187209 65.5242502,72.546702 C66.0410798,72.7746831 67.0173462,72.4327115 67.4196863,72.3187209 C67.8214348,72.2047304 68.510738,71.9194602 69.0846644,72.090446 C69.6591824,72.2614319 71.6117153,72.3187209 71.6117153,72.3187209 L71.9560711,72.1477351 L71.209671,73.8014795 C71.209671,73.8014795 70.1760119,76.0827595 69.3719234,76.5390155 C68.5678348,76.9952715 64.950028,77.4512337 64.3184132,77.5085228 C63.6865026,77.5655181 62.3081918,77.2802479 61.3896139,76.8812809 C60.4704442,76.4820202 59.0924293,75.5695082 58.0013776,74.7139915 C56.91003,73.8584748 55.7038972,73.002958 55.4743267,72.9459627 C55.2444603,72.8889675 55.3595414,72.1477351 55.3595414,72.1477351 L56.2210226,72.3757162 Z" mask="url(#danilo-b)" opacity=".784"/>
    <path fill="#A67860" d="M59.3588021 62.2695135C59.5939936 61.8802417 61.1542449 60.3205101 61.014905 60.8243601 60.8669859 61.3587643 60.3528189 62.7977481 60.8764527 63.317169 61.5234511 63.9602755 62.1352448 63.4191141 63.1206822 63.6347561 63.8093938 63.7854704 64.6812293 64.7746616 65.8755286 64.8069785 67.2958484 64.8451712 68.9297634 64.6847618 69.3217492 64.2951962 69.7140308 63.9056305 70.4982982 63.4382105 70.4982982 63.4382105 70.4982982 63.4382105 71.2849323 64.2972527 71.675143 63.9834849 72.7286233 63.1361943 71.5186446 60.6616004 71.5186446 60.6616004 71.5186446 60.6616004 72.5768582 61.8229526 72.7735907 62.5815186 73.1561097 64.0554635 72.5381034 64.2951962 72.1461176 64.7626162 71.7535402 65.2300362 69.9495181 65.9313132 69.9495181 65.9313132 69.9495181 65.9313132 69.5572365 66.6325901 68.6942761 66.8661532 67.8313158 67.0997163 65.1640375 66.1648763 65.1640375 66.1648763 65.1640375 66.1648763 63.7520012 66.3987332 62.6535535 66.3987332 61.5554017 66.3987332 59.9078781 66.0870219 59.3588021 64.9186187 58.8097262 63.7499218 59.3588021 62.2695135 59.3588021 62.2695135M74.4994227 45.5977782C75.4407803 45.2860669 71.5185558 45.5199238 70.7336968 45.8316351 69.9494294 46.1430526 69.4787506 47.7013152 69.2432633 47.7791696 69.0080718 47.8570239 67.4392412 47.6234608 67.4392412 47.6234608 67.4392412 47.6234608 66.4975879 47.2338952 65.8701148 46.4547639 65.3068386 45.7555435 64.114906 45.6841525 63.8758687 45.6768077 62.9777035 45.1136121 61.4769157 44.5072294 61.4769157 44.5072294 61.4769157 44.5072294 55.9855649 43.4163868 56.2207563 43.7280981 56.4562436 44.0398094 57.8682799 45.6759264 57.4759983 45.9873438 57.0837167 46.2990551 53.6090956 46.8034927 53.6090956 46.8034927 53.6090956 46.8034927 52.4766266 49.5895041 53.2398894 50.1165635 54.0031523 50.6433291 57.1621139 50.9732554 57.0837167 51.5185298 57.0053195 52.064098 53.7105682 52.8429355 54.6519257 53.3106493 55.5932833 53.7780693 59.8897432 53.0903067 61.3985186 52.531518 62.9069982 51.9727292 62.4632407 57.3426244 62.4632407 57.3426244 62.4632407 57.3426244 64.1536609 52.1513536 64.3891482 50.593091 64.3891482 50.593091 65.3470726 48.9581492 65.9751374 48.5682897 66.6026105 48.1787241 67.2821511 48.324444 67.6744327 48.4025921 68.0667143 48.4804465 68.6157902 49.3374322 68.9296747 49.960561 69.0622103 50.2240907 69.166937 50.9756057 69.2432633 51.754737L69.2432633 53.466358C69.2432633 53.466358 70.3414151 57.4395752 70.3414151 57.6734321L70.1736748 52.6296439C70.4082746 52.4375052 70.8629781 51.204762 72.242768 51.4585966 73.5929741 51.7068492 72.6167077 51.1292579 73.1657836 50.895401 73.7151553 50.6615441 72.2244261 47.7013152 71.9691176 47.3781461 71.7144008 47.054977 73.5580652 45.9094895 74.4994227 45.5977782" mask="url(#danilo-b)"/>
    <path fill="#AAA3A4" d="M70.5899785,50.6266418 C70.5899785,50.6266418 71.4310468,50.3316766 72.568841,50.6266418 C73.706931,50.9216071 75.2408527,51.1672156 76.2798369,50.97067 C77.3188211,50.7741245 78.4569111,49.6929769 78.4569111,49.6929769 C78.4569111,49.6929769 77.3188211,48.1209062 76.2798369,47.825941 C75.2408527,47.5312695 74.4965235,47.5450776 73.4596102,47.8750039 C72.4226969,48.205224 70.9364052,49.1033402 70.9364052,49.1033402 C70.9364052,49.1033402 70.4414677,49.8404596 70.3920627,49.9879422 C70.3426577,50.135131 70.5899785,50.6266418 70.5899785,50.6266418" mask="url(#danilo-b)"/>
    <path fill="#D8CECD" d="M70.7878648,50.434415 C70.9834139,50.179699 71.7662021,49.6150344 72.8149489,49.3271202 C73.8633999,49.0394997 74.8748711,48.9293284 75.9623728,49.1000204 C77.0495786,49.2704187 77.7939078,50.1227037 77.7939078,50.1227037 C77.7939078,50.1227037 77.3359501,50.8618796 75.8478834,50.918581 C74.3598166,50.9755763 72.7575563,50.5774908 72.3569912,50.634486 C71.9561303,50.6911875 70.7878648,50.434415 70.7878648,50.434415" mask="url(#danilo-b)"/>
    <path fill="#AAA3A4" d="M49.5617612,48.9559751 C49.5617612,48.9559751 50.8584205,47.6682932 51.7125058,47.3598136 C52.5662952,47.0516278 52.915976,46.8586077 53.7310106,46.8970942 C54.546341,46.9358745 56.2154608,47.128307 57.1858105,47.976479 C58.156456,48.824651 59.0102454,49.7113094 58.893981,49.7497959 C58.7774207,49.7885762 58.350526,50.1740288 58.1952109,50.2125153 C58.0398957,50.2510018 57.1470557,49.9425222 56.7589158,49.9810087 C56.3707759,50.019789 55.283866,50.3667551 54.5075862,50.2510018 C53.7310106,50.1355423 52.1394005,50.019789 51.3631207,49.7885762 C50.586841,49.5570697 49.5617612,48.9559751 49.5617612,48.9559751" mask="url(#danilo-b)"/>
    <path fill="#D8CECD" d="M50.0820816,49.2486194 C50.353957,49.2101329 51.2852561,48.5164945 52.4499715,48.5164945 C53.6143911,48.5164945 54.8651956,48.3052595 55.5402986,48.6228466 C56.2154017,48.9404336 57.3798213,49.9425516 57.3798213,49.9425516 C57.3798213,49.9425516 56.137892,50.405271 55.0897368,50.2895177 C54.0415817,50.1737644 51.9455672,49.9810381 51.5183767,49.8655786 C51.091482,49.7498253 50.0820816,49.2486194 50.0820816,49.2486194" mask="url(#danilo-b)"/>
    <path fill="#2F1E14" d="M55.4060176,48.1423235 C55.7139853,49.2175952 55.0859205,50.337523 54.0031523,50.6433585 C52.920384,50.949194 51.7926484,50.3254776 51.4846807,49.2502059 C51.176713,48.1746404 51.8047777,47.0550064 52.887546,46.7491709 C53.9703142,46.4433354 55.0977541,47.0670518 55.4060176,48.1423235" mask="url(#danilo-b)"/>
    <path stroke="#1D0A00" stroke-width=".535" d="M55.4060176,48.1423235 C55.7139853,49.2175952 55.0859205,50.337523 54.0031523,50.6433585 C52.920384,50.949194 51.7926484,50.3254776 51.4846807,49.2502059 C51.176713,48.1746404 51.8047777,47.0550064 52.887546,46.7491709 C53.9703142,46.4433354 55.0977541,47.0670518 55.4060176,48.1423235 Z" mask="url(#danilo-b)"/>
    <path fill="#2F1E14" d="M75.7665574,48.9227181 C76.0748209,49.9979898 75.4467562,51.1179176 74.3639879,51.4237531 C73.2812197,51.7295886 72.153484,51.1058722 71.8455163,50.0306005 C71.5372528,48.955035 72.1653176,47.835401 73.2480858,47.5295655 C74.3308541,47.22373 75.4585897,47.8474464 75.7665574,48.9227181" mask="url(#danilo-b)"/>
    <path stroke="#1D0A00" stroke-width=".535" d="M75.7665574,48.9227181 C76.0748209,49.9979898 75.4467562,51.1179176 74.3639879,51.4237531 C73.2812197,51.7295886 72.153484,51.1058722 71.8455163,50.0306005 C71.5372528,48.955035 72.1653176,47.835401 73.2480858,47.5295655 C74.3308541,47.22373 75.4585897,47.8474464 75.7665574,48.9227181 Z" mask="url(#danilo-b)"/>
    <path fill="#1D0A00" d="M75.9008976,49.4032705 C75.9008976,49.4032705 74.9456357,49.0445528 73.8631633,49.0395584 C72.8638214,49.034564 71.7189271,49.3674282 71.7325357,49.4743677 C71.7130103,48.3315243 72.6298133,47.3890457 73.781216,47.3693618 C74.9323229,47.3499716 75.8813723,48.2604271 75.9008976,49.4032705" mask="url(#danilo-b)"/>
    <path fill="#000" d="M74.6409814,49.0498117 C74.8110884,49.4775701 74.5998598,49.9611485 74.1691192,50.1300778 C73.7383787,50.2990071 73.2514288,50.089241 73.0813217,49.6614826 C72.9109189,49.2337243 73.1221474,48.749852 73.552888,48.5809227 C73.9836286,48.4119934 74.4708743,48.6220533 74.6409814,49.0498117" mask="url(#danilo-b)"/>
    <path fill="#FEFEFE" d="M75.5366023,49.0486659 C75.5422232,49.2460928 75.3854289,49.4106153 75.1866256,49.4159035 C74.988118,49.4214855 74.8224486,49.2657768 74.8168277,49.0683498 C74.8115026,48.8712167 74.968001,48.7066942 75.1668044,48.7011122 C75.3656077,48.695824 75.5309814,48.851239 75.5366023,49.0486659" mask="url(#danilo-b)"/>
    <polygon fill="#4C3839" points="81.145 48.129 83.825 48.912 84.866 48.474 84.55 47.597 81.05 47.128" mask="url(#danilo-b)"/>
    <path fill="#FEFEFE" d="M70.0144842 48.7244685C70.0144842 48.7244685 70.1088566 49.6011382 70.1405113 50.4781016 70.1718702 51.3547712 70.3925656 53.4838679 70.6449157 54.0790866 70.8972658 54.6740116 71.275643 55.1749237 71.5276972 55.3940911 71.7800473 55.6132585 71.8433567 55.7072713 71.8433567 55.7072713 71.8433567 55.7072713 71.2126294 55.5506812 70.8972658 55.2375009 70.5819021 54.9246145 70.2668343 54.3608313 70.1405113 53.6718936 70.0144842 52.9829558 69.7304794 49.2253806 69.7304794 48.943636 69.7304794 48.6618913 69.8568024 47.9729535 70.0458431 47.7852216 70.2351796 47.597196 70.3925656 47.7226444 70.3925656 47.7226444 70.3925656 47.7226444 70.1357779 48.0613843 70.0591558 48.2050477 69.9828295 48.348711 70.0144842 48.7244685 70.0144842 48.7244685M60.3598598 55.3439117C60.458374 55.3439117 61.0009415 55.1726321 61.3213344 55.0010587 61.6417273 54.8297791 62.2088493 54.2421989 62.4307281 53.7036817 62.6526068 53.1648707 62.9484451 52.1366054 63.2197289 51.3286826 63.4907168 50.5207599 63.6140813 49.7619001 63.6634863 49.2477674 63.7125955 48.7336348 63.5155672 48.1216701 63.3427976 47.9991596 63.1703239 47.8766491 62.8250806 47.4115794 62.7759714 47.3137473 62.7265664 47.2156214 62.7020118 47.0934048 62.7020118 47.0934048 62.7020118 47.0934048 63.1948785 47.2156214 63.4416076 47.435964 63.6880409 47.6563066 63.9099197 47.9257121 63.9593247 48.2438867 64.0084338 48.5623552 63.7865551 49.7862847 63.6634863 50.4719907 63.5401218 51.157403 62.8744856 53.2873811 62.5786472 53.9484088 62.2828089 54.6094365 61.863606 54.9766741 61.4938081 55.1970167 61.1240102 55.4173592 60.3598598 55.3439117 60.3598598 55.3439117" mask="url(#danilo-b)"/>
    <path fill="#1D0A00" d="M55.5403578,48.6229053 C55.5403578,48.6229053 54.5848,48.2641876 53.5023276,48.2591932 C52.5029858,48.2541988 51.3583873,48.5870629 51.3717,48.6937087 C51.3521747,47.5511591 52.2689776,46.6086805 53.4203804,46.5889966 C54.5714873,46.5696064 55.5205366,47.4800619 55.5403578,48.6229053" mask="url(#danilo-b)"/>
    <path fill="#000" d="M54.2801457,48.2691233 C54.4502527,48.6968817 54.2390242,49.1807539 53.8082836,49.3496832 C53.377543,49.5186125 52.8905931,49.3088464 52.7204861,48.881088 C52.5500832,48.4533297 52.7613118,47.9694574 53.1920524,47.8005281 C53.622793,47.6315988 54.1100387,47.8413649 54.2801457,48.2691233" mask="url(#danilo-b)"/>
    <path fill="#FEFEFE" d="M55.1760329,48.2682713 C55.181358,48.4656982 55.0245637,48.6299269 54.8257603,48.6355089 C54.6272528,48.6410909 54.4615833,48.4853822 54.4559624,48.2879552 C54.4506373,48.0908221 54.6074316,47.9260059 54.806235,47.9207176 C55.0050383,47.9154294 55.170412,48.0708444 55.1760329,48.2682713" mask="url(#danilo-b)"/>
    <path fill="#1C0D0E" d="M63.4046278,50.1506431 L63.1247648,50.3665789 L62.9691538,50.7373419 C62.9691538,50.7373419 62.8446059,50.5519604 62.6892908,50.7684837 C62.5339756,50.9844194 62.3783647,51.6328141 62.4718496,51.7873477 C62.5650387,51.9418813 62.9070278,51.9724355 62.9070278,51.9724355 C62.9070278,51.9724355 63.2179538,51.3551825 63.3114387,50.9844194 C63.4046278,50.6136563 63.5913018,50.3048829 63.4046278,50.1506431" mask="url(#danilo-b)"/>
    <path fill="#FEFEFE" d="M45.9622963 52.2100529C45.9622963 52.2100529 46.1350659 53.2139336 46.3569447 53.5567866 46.5788234 53.8993459 47.1705 54.3156464 47.5154475 54.486926 47.8606908 54.6584994 49.4878016 55.0991846 49.4878016 55.0991846 49.4878016 55.0991846 47.8112858 54.878842 47.4414879 54.7563315 47.07169 54.6338211 46.2090255 54.5116044 46.0856609 53.8258983 45.9622963 53.1404861 45.9622963 52.2100529 45.9622963 52.2100529M73.7349765 55.9891629C73.7349765 55.9891629 74.8384534 56.1454592 75.7845444 56.1771885 76.7306353 56.2083303 78.6538802 56.2083303 79.5996754 56.0828819 80.5457663 55.9580211 80.6717934 55.8637145 80.6717934 55.8637145L80.577421 55.6134054C80.577421 55.6134054 79.9153348 55.8011372 79.095271 55.8951501 78.275503 55.9891629 76.1315627 56.0203046 75.2801401 55.9891629 74.4287174 55.9580211 73.7349765 55.9891629 73.7349765 55.9891629M83.0683501 54.9244676C83.5413955 54.7053002 83.6990774 54.4546973 83.6990774 54.4546973 83.6990774 54.4546973 84.2664953 52.8890899 84.3928182 52.4196133 84.5185495 51.949843 84.991595 49.6638623 85.0229538 49.4132594 85.0549044 49.1629503 85.0229538 49.0060663 85.0229538 49.0060663L84.707886 49.0060663C84.707886 49.0060663 84.8025543 49.8204525 84.4241771 51.2923408 84.0457999 52.7639353 83.7620909 54.2043881 83.5727544 54.39212 83.3834179 54.5798518 83.0683501 54.9244676 83.0683501 54.9244676" mask="url(#danilo-b)"/>
    <path fill="#4C3839" d="M34.3754927,45.7346256 C34.3754927,45.7346256 34.5603917,45.1103217 34.8192502,44.9267029 C35.0781087,44.7430841 35.7067652,44.8532554 36.0026035,44.8899791 C36.2984418,44.9267029 42.4740667,46.6527196 42.4740667,46.6527196 L42.4740667,47.9380512 C42.4740667,47.9380512 38.7391079,46.7628909 37.9995121,46.5058246 C37.2599163,46.2487583 35.6328056,45.6611781 35.2630077,45.6979018 C34.8932098,45.7346256 34.7822704,46.138587 34.7822704,46.138587 L34.3754927,45.7346256 Z" mask="url(#danilo-b)"/>
    <path fill="#4D2E24" d="M70.3470065 46.0140787C70.5499516 46.0140787 72.6450786 45.6782767 73.3210691 45.6782767 73.9967638 45.6782767 75.0106018 45.5440146 75.4161961 45.4097525 75.8217904 45.2754905 76.0241438 45.074538 76.2945401 45.074538 76.5652321 45.074538 78.1195667 45.2085063 78.9307553 45.7455546 79.7416482 46.2826029 80.3501876 46.8193574 80.6880349 46.8866353 81.0258823 46.9536194 81.4314766 46.6181112 81.2962785 46.2156187 81.1610804 45.8125387 81.4989278 45.0072601 81.2285316 44.4702118 80.9581353 43.9334574 80.2146936 42.7253925 79.5389989 42.3226063 78.8630084 41.9195263 76.8356284 42.3226063 76.159342 42.3895905 75.4836472 42.4568684 74.5375563 42.4568684 73.8615657 42.7253925 73.185871 42.9936229 72.2394842 43.4633932 71.9016369 43.6649332 71.5634937 43.8661794 70.2792595 44.4032277 70.2792595 44.940276 70.2792595 45.4770305 70.3470065 46.0140787 70.3470065 46.0140787M62.1689703 45.2755786C62.4053451 45.2171144 63.4532045 45.1416103 63.5884026 44.403022 63.7233049 43.6650214 62.7772139 42.9264331 62.3041684 42.6582027 61.8308271 42.3896786 60.8847362 42.3224007 59.4653039 41.9196145 58.0458717 41.517122 55.139556 41.2485979 53.99052 41.18132 52.8417798 41.1143358 50.9493021 40.9127958 50.0706623 41.38286 49.1920224 41.8526303 47.1643466 43.0606951 46.556103 43.5977434 45.9478594 44.1344979 45.0692196 45.8799048 45.0692196 45.8799048 45.0692196 45.8799048 46.2182557 46.5509214 46.7587523 46.3496752 47.2995447 46.1484289 49.6650679 45.1416103 50.6789058 44.604562 51.6927438 44.0675138 52.9769779 43.8662676 53.8556177 43.9335455 54.7342575 44.0002358 57.2349788 44.4703 57.9784205 44.604562 58.7221581 44.7388241 61.8985741 45.3428565 62.1689703 45.2755786" mask="url(#danilo-b)"/>
    <path fill="#391E17" d="M64.6148432 65.4635993C64.6148432 65.4635993 63.9086771 65.6196019 62.9676155 65.4635993 62.0259621 65.3078906 61.0846046 64.8404706 61.5552833 64.6847618 62.0259621 64.5287593 64.0657673 64.7626162 64.6148432 65.4635993M69.949459 65.9312544C69.949459 65.9312544 71.2044051 64.7625574 71.5966867 64.5289943 71.9892642 64.2951374 72.4596471 64.4508462 72.1460585 64.7625574 71.832174 65.0742687 70.3414447 65.8531062 69.949459 65.9312544" mask="url(#danilo-b)"/>
    <path fill="#63493C" d="M60.4569244,61.1009341 C60.4569244,61.1009341 59.4371697,62.2696311 59.4371697,62.9706142 C59.4371697,63.6718911 59.7510542,64.9184425 60.1430399,65.2301537 C60.5356174,65.5415712 61.6337692,66.0089913 61.6337692,66.0089913 C61.6337692,66.0089913 63.8303687,66.0871394 64.4578418,65.9311369 C65.0856107,65.7754281 65.791481,66.0871394 65.791481,66.0871394 C65.791481,66.0871394 66.1053654,66.4764113 66.8112357,66.5542657 C67.5174017,66.6324138 68.6155536,66.7102682 69.0865282,66.3985569 C69.5572069,66.0871394 69.9494885,65.9311369 69.9494885,65.9311369 C69.9494885,65.9311369 69.2433225,66.8659769 68.3019649,67.0216857 C67.3606074,67.1776882 66.418954,66.9441251 65.242405,66.7102682 C64.0655602,66.4764113 62.8106141,66.6324138 61.7908594,66.4764113 C60.7711047,66.3207025 59.3587725,65.7754281 58.8096966,64.4507286 C58.2603249,63.1266167 59.4371697,61.4904997 60.4569244,61.1009341" mask="url(#danilo-b)"/>
    <path fill="#A67860" d="M50.9736496,47.5398188 C50.9736496,47.5398188 52.0256506,47.0057084 52.817314,46.9046446 C53.6089773,46.8035808 54.9618459,47.0168724 54.9618459,47.0168724 L56.9939594,46.08262 C56.9939594,46.08262 55.4511625,45.6716076 54.5103967,45.820853 C53.5696308,45.9703922 52.215283,46.0077035 51.6883949,46.3440931 C51.1618027,46.680189 50.1458939,47.5398188 50.9736496,47.5398188" mask="url(#danilo-b)"/>
    <path fill="#391E17" d="M58.5010485,46.2952358 C58.5010485,46.2952358 58.2643779,46.0602038 57.9487184,45.9426877 C57.6330589,45.8248779 56.8837004,45.5901396 56.1736885,45.6292137 C55.4636765,45.6682878 54.1223455,45.6292137 52.8209528,45.9033199 C52.0068057,46.0748933 49.9412626,46.8434481 49.3889324,47.2353641 C48.8368981,47.6269863 48.0875397,48.7239985 48.0085508,48.9981046 C47.929562,49.2722108 48.6002275,48.1364183 48.915887,47.9404603 C49.2312506,47.7447961 49.9019161,46.961258 50.966934,46.686858 C52.031952,46.4124581 53.1363164,45.9033199 54.5563404,45.9820556 C55.9766601,46.0602038 57.2387064,46.2952358 57.6330589,46.3736778 C58.0274114,46.451826 58.4220597,46.451826 58.5010485,46.2952358" mask="url(#danilo-b)"/>
    <path fill="#FEFEFE" d="M60.1625357,46.7014888 C60.1625357,46.7014888 47.9100958,46.5545937 47.5402979,46.5545937 C47.1705,46.5545937 46.4800134,46.6771042 46.3320942,46.8483838 C46.1841751,47.0199572 46.1350659,47.289069 46.1350659,47.289069 L45.8637822,47.2402998 C45.8637822,47.2402998 46.0117013,46.9218313 46.3569447,46.6771042 C46.7018921,46.4323771 47.1950546,46.3589295 47.7621767,46.3833141 C48.3290029,46.4076987 59.1765066,46.5792721 59.4477903,46.5792721 C59.7187782,46.5792721 60.1625357,46.7014888 60.1625357,46.7014888" mask="url(#danilo-b)"/>
    <path fill="#A67860" d="M51.1461233,49.9340317 C51.1461233,49.9340317 54.1979914,50.4393507 55.0627268,50.4898826 C55.9274622,50.5401207 57.148387,50.742542 57.148387,50.742542 C57.148387,50.742542 57.7081131,51.5507585 56.6395451,51.1970353 C55.5715687,50.8436058 54.6050649,51.449401 53.0791309,51.0454396 C51.552901,50.6411844 51.1461233,49.9340317 51.1461233,49.9340317" mask="url(#danilo-b)"/>
    <path fill="#63493C" d="M50.1060445,49.2698605 L51.837882,49.859791 C51.837882,49.859791 54.2622771,50.184429 55.4494762,50.0860093 C56.6369713,49.9878834 57.3792296,49.7913379 57.5771454,49.8894638 C57.7750613,49.9878834 58.1173462,50.0583931 58.1173462,50.0583931 L58.5832916,49.8268865 C58.5832916,49.8268865 58.4986818,49.3365508 58.3504668,49.2874879 C58.201956,49.2384249 57.4783354,48.4648756 57.4783354,48.4648756 L56.8348871,47.8749451 L57.1295421,47.7600732 C57.1295421,47.7600732 58.0871707,48.3814392 58.4333015,48.7742366 C58.7797282,49.1673277 59.5713915,49.3148103 59.4722857,49.7569644 C59.3734757,50.1994123 59.4228807,50.5925034 59.1755599,50.4450208 C58.928239,50.2975382 57.7256563,50.5775201 57.4289304,50.3809746 C57.1319088,50.184429 56.3896504,50.2334919 56.3896504,50.2334919 C56.3896504,50.2334919 55.7959029,50.5281634 54.5590029,50.4791005 C53.3221029,50.4300375 51.4420504,50.2035254 50.650387,49.859791 C49.8587237,49.5157628 49.561702,49.1226716 49.561702,49.1226716 L50.1060445,49.2698605 Z" mask="url(#danilo-b)"/>
    <path fill="#2D1A0E" d="M48.1287795,50.1348666 C48.1287795,50.1348666 48.461006,49.2111906 48.859796,48.9473671 C49.2579944,48.6838374 49.7561861,48.4858229 50.0884126,48.2878083 C50.420639,48.0897938 50.6528721,47.6940586 51.2176274,47.4631396 C51.7823828,47.2322206 52.0480456,46.8035808 53.6088886,46.8035808 C55.1700274,46.8035808 55.701353,47.0344998 56.0667133,47.2322206 C56.4320736,47.4302351 57.1296604,47.7601614 57.1296604,47.7601614 L57.2624918,48.2549039 C57.2624918,48.2549039 56.2992422,47.5621468 55.701353,47.3973306 C55.1034637,47.2322206 54.0739464,46.7706763 53.044429,47.0676981 C52.0149117,47.3641323 51.0516621,47.8262641 50.6863018,48.2217056 C50.3209415,48.6177346 50.1549762,49.1124771 49.6899183,49.4424034 C49.2248605,49.7720359 48.1287795,50.1348666 48.1287795,50.1348666" mask="url(#danilo-b)"/>
    <path fill="#A67860" d="M71.4139178,51.4058613 C71.4139178,51.4058613 72.3940302,51.4358279 73.2137981,51.7037644 C73.8377212,51.9076547 74.5711044,51.9467288 75.6133428,51.6044634 C75.8902474,51.5133884 76.4632862,51.1573149 76.4632862,51.1573149 C76.4632862,51.1573149 75.1580476,51.1916883 73.8634591,50.909356 C72.5688706,50.62673 71.4139178,50.5618024 71.4139178,50.5618024 L71.4139178,51.4058613 Z" mask="url(#danilo-b)"/>
    <path fill="#63493C" d="M71.3321777,48.8085219 C71.035156,48.9560045 70.4908135,49.4965783 70.3425985,49.6931238 C70.1940877,49.8896694 70.1940877,50.7246208 70.1940877,50.7246208 C70.1940877,50.7246208 70.5899193,51.0239929 70.7384302,50.9746362 C70.8866452,50.9255732 71.3321777,50.7933677 71.6289035,50.8424307 C71.9259252,50.8914936 73.410146,50.8914936 73.8553827,51.1371021 C74.3006194,51.3830044 76.5273944,51.1670687 77.1208461,51.068649 C77.7145936,50.9705231 78.3716505,50.4428761 78.3716505,50.4428761 L77.6157836,49.4965783 C77.6157836,49.4965783 77.7642944,50.1352779 77.2693569,50.3811802 C76.7744194,50.6264949 74.8449619,50.8914936 74.1524044,50.744011 C73.459551,50.5968221 71.9259252,50.4302432 71.5794985,50.4302432 C71.2330718,50.4302432 70.8372402,50.5815451 70.7878352,50.4343562 C70.7384302,50.2868736 70.7384302,49.5456412 70.7384302,49.5456412 L71.3321777,48.8085219 Z" mask="url(#danilo-b)"/>
    <path fill="#A67860" d="M71.7135133,47.2767298 C71.7856978,47.2053388 73.2776105,46.9421029 73.9272714,46.9183059 C74.5769324,46.8945089 75.7801068,47.2767298 76.0209192,47.4438963 C76.2611399,47.6113567 76.4353887,47.7791108 76.3575832,47.802614 C76.2800736,47.8258234 75.443147,47.3246176 73.999456,47.6830415 C72.555765,48.0417591 71.6895504,48.5673496 71.6895504,48.4236863 C71.6895504,48.2806105 71.7135133,47.2767298 71.7135133,47.2767298" mask="url(#danilo-b)"/>
    <path fill="#2D1A0E" d="M71.5788773,47.2210859 C71.5788773,47.2210859 72.0350599,46.8688316 72.7953644,46.7680616 C73.5559647,46.6672916 76.3439451,46.9696016 76.3439451,46.9696016 C76.3439451,46.9696016 77.6619048,47.1203159 78.1686758,47.5733402 C78.6757427,48.0266583 78.9801603,48.5804526 79.0304528,48.932707 C79.081337,49.2849613 78.9801603,49.5872713 78.9801603,49.5872713 C78.9801603,49.5872713 78.6248585,48.6306908 78.21956,48.1274283 C77.8139657,47.6238721 76.9521886,47.3218559 75.9889391,47.2210859 C75.0256895,47.1203159 71.5788773,47.2210859 71.5788773,47.2210859" mask="url(#danilo-b)"/>
    <path fill="#FEFEFE" d="M70.9288613,47.5659367 C71.0223462,47.5782759 71.2125702,47.4722177 71.9693247,47.3779111 C72.7260791,47.284192 74.5863104,47.2530503 75.8161103,47.1901792 C77.0459102,47.1276019 79.5682277,47.1276019 80.2303139,47.1901792 C80.8926959,47.2530503 82.5322319,47.3153338 83.0049815,47.3779111 C83.4783228,47.4404884 84.2034225,47.5970785 84.3294497,47.6910913 C84.4557726,47.7851041 84.5817997,47.8788232 84.6448133,47.9731298 C84.7078269,48.0668488 84.7394816,48.2860162 84.7394816,48.2860162 L84.9915358,48.3174518 C84.9915358,48.3174518 84.9601769,47.9731298 84.6448133,47.7225268 C84.3294497,47.4722177 83.8564042,47.3153338 83.0999456,47.221321 C82.3431912,47.1276019 80.0726321,46.876999 78.3387237,46.9395763 C76.6045195,47.0021536 72.9467745,47.0335891 72.0953518,47.1276019 C71.2439291,47.221321 70.4558158,47.5033594 70.9288613,47.5659367" mask="url(#danilo-b)"/>
    <path fill="#2D1A0E" d="M71.2746667,48.479712 C71.2746667,48.479712 72.4911539,47.9259177 73.2011658,47.7246715 C73.9105861,47.5231315 74.6708906,47.2716472 75.3809026,47.4725996 C76.0903229,47.6741396 76.7494506,47.6741396 77.2565175,48.0769258 C77.7635844,48.479712 78.2700596,49.1342763 78.4730047,49.3355225 C78.6759498,49.5370625 79.0815441,49.838785 79.1321325,49.9900869 C79.1827208,50.1408012 79.4868426,50.8458974 79.3347817,50.8458974 C79.1827208,50.8458974 78.8277148,50.6945955 78.3715322,50.4431112 C77.9153495,50.1913331 77.5606393,49.2347525 77.1044566,48.7817282 C76.6479781,48.3284101 76.1412071,48.0266877 75.4823751,47.8251477 C74.8232474,47.6239015 73.4544034,48.0769258 73.4544034,48.0769258 C73.4544034,48.0769258 72.0855595,48.4291801 71.8832061,48.479712 C71.680261,48.5299501 71.2746667,48.479712 71.2746667,48.479712" mask="url(#danilo-b)"/>
    <path fill="#CF8980" d="M60.9873625,75.398258 C60.9873625,75.398258 62.4233617,76.767026 63.1123691,77.1092914 C63.8016724,77.4512631 64.6628578,77.3945616 65.524339,77.4512631 C66.3858201,77.5085522 67.9939973,77.2802773 69.0847531,76.767026 C70.1761007,76.2537747 70.4630639,75.6262391 70.9225008,74.7710161 C71.3822335,73.9154994 71.496723,73.0599827 70.9798934,73.3452529 C70.4630639,73.6302292 69.4867974,74.543035 68.5679236,74.8280114 C67.6493456,75.1129878 65.5817316,75.3412627 64.6054651,75.0562863 C63.6291987,74.7710161 60.2409624,74.543035 60.9873625,75.398258" mask="url(#danilo-b)"/>
    <path fill="#461416" d="M54.8426527,72.204701 C54.8426527,72.204701 55.4742675,71.9194308 55.703838,71.9764261 C55.9337044,72.0334214 56.6804003,72.7179523 57.5415857,72.9459334 C58.4030669,73.1742083 59.9535555,73.4021894 60.7002514,73.5161799 C61.4469473,73.6304643 62.0211695,73.7444548 63.0548286,74.029725 C64.0884877,74.3147014 65.5818795,74.485981 66.3282796,74.2007108 C67.0749755,73.9154407 68.1660272,73.5731752 69.1996863,73.4594784 C70.2333454,73.3451941 71.0951224,72.7179523 71.0951224,72.7179523 L72.1861742,72.0334214 C72.1861742,72.0334214 71.1525151,73.0599239 70.5779971,73.3451941 C70.0037749,73.6304643 69.1996863,73.5731752 68.1086346,73.9154407 C67.017287,74.2577061 66.3282796,74.6569668 65.2372279,74.6569668 C64.1458803,74.6569668 61.9637769,74.0864265 60.8727251,73.9154407 C59.7813776,73.7444548 57.3694078,73.0029286 56.8525782,73.0599239 C56.3357487,73.1169192 55.4168749,72.660957 54.8426527,72.204701" mask="url(#danilo-b)"/>
    <path fill="#4D2E24" d="M54.534685,71.7327566 C54.534685,71.7327566 53.1365531,72.2665732 52.7064042,71.8394024 C52.2762553,71.4125254 51.738717,70.5581838 51.738717,70.5581838 L52.9217745,68.7425611 L53.3519234,68.1020987 C53.3519234,68.1020987 55.3949828,68.9564403 55.7174466,68.8495007 C56.0402062,68.7425611 56.900504,68.6359153 57.760506,68.8495007 C58.6210997,69.0630861 60.8792336,68.5292695 61.3090867,68.5292695 C61.7395314,68.5292695 62.3847548,67.7815737 62.8146079,67.6746341 C63.2447568,67.5679883 64.2127398,67.1408176 64.2127398,67.1408176 L65.3957972,68.3153903 L66.0410206,69.3833173 L66.5785588,68.9564403 L67.0087077,67.5679883 L68.9443779,67.354403 L69.4819161,67.7815737 L70.880048,68.5292695 C70.880048,68.5292695 72.0628096,68.8495007 72.3855692,68.8495007 L74.4286286,68.8495007 C74.4286286,68.8495007 74.9661668,68.3153903 75.1812413,68.7425611 C75.3966116,69.1697319 75.6113902,69.8104881 75.3966116,70.2376588 C75.1812413,70.6648296 74.6437031,71.5191712 74.6437031,71.5191712 L72.3855692,71.5191712 L68.7290076,71.4125254 L66.3634844,70.9853546 L65.6105758,70.3443046 L65.0730376,71.0920004 C65.0730376,71.0920004 63.3527378,71.8394024 62.4921441,71.7327566 C61.6318463,71.6261108 56.6854296,71.8394024 56.6854296,71.8394024 L54.534685,71.7327566 Z" mask="url(#danilo-b)"/>
    <path fill="#36211A" d="M53.7817765,82.0914425 C53.7817765,82.0914425 52.3839404,79.3148324 52.0614766,78.780722 C51.738717,78.2469054 49.6953618,75.1500641 49.0504342,74.0821371 C48.4052109,73.014504 46.6846152,70.7717105 46.1467811,70.0243085 C45.6092429,69.2766127 40.98529,64.6846737 40.98529,64.6846737 C40.98529,64.6846737 40.2323814,67.2476984 40.6625304,68.5292107 C41.0926793,69.8104293 43.2434239,77.7130888 47.1147641,80.7029905 C50.9861044,83.693186 54.7494636,83.9070652 54.7494636,83.9070652 L53.7817765,82.0914425 Z" mask="url(#danilo-b)"/>
    <path fill="#4D2E24" d="M63.4600975,78.567401 C63.4600975,78.567401 65.073008,78.4607552 65.8256207,78.567401 C66.5785292,78.6740468 67.1160675,79.1012176 67.1160675,79.1012176 C67.1160675,79.1012176 67.4388271,79.9558529 67.1160675,80.5963153 C66.7936037,81.2370715 65.8256207,81.4506569 64.8582294,81.5575965 C63.8902464,81.6642423 62.9225593,80.1691445 62.9225593,80.1691445 L63.4600975,78.567401 Z" mask="url(#danilo-b)"/>
    <path fill="#29140E" d="M77.8697904,71.8397843 C77.8697904,71.8397843 75.6113606,75.5773818 75.396582,76.4317234 C75.1812117,77.2860649 72.6003182,82.5187601 72.6003182,82.9459309 C72.6003182,83.3731017 71.3101673,84.8681994 70.8800184,84.6543203 C70.4498695,84.4410287 69.3744972,85.9358326 68.9443483,86.5765888 C68.5141994,87.2176388 66.3634548,88.2855657 64.9656187,88.1783323 C63.5674868,88.0716865 62.0619656,86.8971138 61.5244274,86.2563576 C60.9868892,85.6156014 57.5456978,85.1884306 57.0078638,85.081491 C56.4703255,84.9748452 54.6420447,83.4797475 54.6420447,83.4797475 C54.6420447,83.4797475 53.3518938,82.7323455 51.7386875,82.3051747 C50.1257769,81.878004 47.3301048,78.8878085 46.6845856,78.3539919 C46.0393622,77.8198815 43.7812283,73.7617591 43.3510794,73.2279425 C42.9209305,72.6938321 40.7704818,63.830479 40.5551115,63.509954 C40.3403328,63.1897228 39.3723499,59.5587712 39.0495903,59.0249546 C38.7271265,58.4908442 38.512052,50.9090035 38.512052,50.9090035 L38.7271265,46.5306498 L35.2628598,45.6980487 L35.7160841,46.4237103 C35.7160841,46.4237103 37.0065308,51.1222951 37.0065308,51.6564055 C37.0065308,52.190222 37.5440691,60.4131127 37.7594393,62.3353813 C37.9745138,64.257356 39.4797392,71.3059677 40.2326477,72.9077113 C40.9852604,74.5094548 43.8889135,80.489552 46.0393622,82.7323455 C48.1901068,84.9748452 53.2442087,89.3531989 54.5346554,90.31448 C55.8251022,91.2754674 58.9435339,92.0228694 61.847187,92.2367486 C64.7502484,92.4500402 67.5462164,91.382407 69.0517376,90.7416508 C70.5572588,90.1006009 71.7400204,88.6055031 72.2781503,88.0716865 C72.8156885,87.5378699 73.9984501,84.1205037 74.428599,83.3731017 C74.858748,82.6254059 78.0848648,74.8299798 78.0848648,74.8299798 L79.8054605,67.4614307 L77.8697904,71.8397843 Z" mask="url(#danilo-b)"/>
    <path fill="#A67860" d="M32.2916076 52.6980676C32.2916076 52.6980676 33.1054588 51.35104 33.17291 50.4755456 33.2409528 49.6000511 33.3767426 47.3102512 33.3767426 47.3102512 33.3767426 47.3102512 32.4271016 45.8959457 31.8170829 46.0307954 31.2064727 46.1653513 30.799695 46.5696064 30.799695 47.3102512 30.799695 48.0511898 31.2064727 49.3982174 31.5457992 50.1388622 31.8845341 50.8798008 32.2916076 52.6980676 32.2916076 52.6980676M35.207538 52.0918611L35.9533464 53.3713169C35.9533464 53.3713169 34.8685073 54.3140893 34.7330133 55.2568617 34.5972236 56.1999279 35.275285 57.749083 35.275285 57.749083 35.275285 57.749083 36.0891362 58.4897278 36.3604199 58.7591333 36.6317037 59.028245 37.1065242 59.7019057 36.7671976 60.0385891 36.4284627 60.3752726 35.6146115 60.3079947 35.207538 59.9713112 34.8007603 59.6346278 34.8685073 58.3548782 34.8685073 58.3548782 34.8685073 58.3548782 33.5123844 57.4796775 33.1730579 56.5366113 32.834323 55.5938389 33.1730579 54.1122555 33.7836682 53.3713169 34.3939826 52.6306721 35.207538 52.0918611 35.207538 52.0918611M67.8791824 95.6422163L67.6096737 97.028318C67.6096737 97.028318 70.6023741 104.413319 70.783723 105.13428 70.9653677 105.854653 71.4185921 110.807954 71.3277697 111.258335 71.237539 111.709009 71.1467166 115.311169 71.1467166 115.311169L71.7990401 115.766837C71.7990401 115.766837 72.5069812 108.826634 71.8721122 106.395227 71.237539 103.963233 68.2392176 96.5976217 67.8791824 95.6422163" mask="url(#danilo-b)"/>
    <path fill="#1C0D0E" d="M83.8564633 48.3173342C83.8564633 48.3173342 83.6990774 48.8496819 83.8251045 48.9122592 83.9511316 48.9748365 85.0229538 49.006272 85.0229538 49.006272L85.0229538 49.4131713C85.0229538 49.4131713 85.9376859 49.4757486 86.063713 49.1940039 86.190036 48.9122592 86.2844084 48.1610379 86.190036 48.0044478 86.0950719 47.8475639 85.5906676 47.7227031 85.5906676 47.7227031L84.5502042 47.5972547C84.5502042 47.5972547 84.6448725 47.7227031 84.834209 47.9418705 85.0229538 48.1610379 84.991595 48.3173342 84.991595 48.3173342L83.8564633 48.3173342zM44.5819147 47.1668523L48.0210352 47.4239186 47.9840554 48.0114988C47.9840554 48.0114988 46.467884 48.0482225 46.0241266 47.974775 45.5803691 47.9013275 44.4709754 47.7911562 44.360036 47.8646037 44.2490966 47.9380512 44.3230562 48.1216701 44.0272179 48.0849463 43.7313796 48.0482225 42.5850061 48.1583938 42.4740667 47.9380512 42.3631274 47.7177087 42.4740667 46.6527196 42.4740667 46.6527196L44.1011775 46.6894434 44.5819147 47.1668523zM61.7876347 48.6992026L64.0265391 48.7608985 63.7780349 49.7800563C63.7780349 49.7800563 64.2753392 48.8845841 64.6483913 48.6375067 65.0217392 48.3901354 66.0790654 48.0196661 66.7630436 48.0505141 67.4473176 48.0813621 68.5043479 48.143058 68.7534438 48.2978853 69.0022438 48.4521251 69.1889178 49.8726002 69.1889178 49.8726002L69.406359 52.0651556 69.593033 52.343081C69.593033 52.343081 69.935022 51.787524 69.903959 51.6946863 69.872896 51.6021424 69.8104741 50.3359072 69.8104741 50.3359072L69.468485 50.9534539C69.468485 50.9534539 69.468485 49.7492084 69.406359 49.4401412 69.3442329 49.1316616 69.1889178 48.4521251 69.1889178 48.4521251 69.1889178 48.4521251 69.717285 48.6992026 70.2770111 48.8225944 70.8367372 48.9462801 72.3295374 48.8845841 72.4537895 48.8534424 72.5783374 48.8225944 72.7647156 48.1741997 72.4227265 48.2050477 72.0807374 48.2358956 70.7432523 48.3901354 70.0592741 48.2050477 69.3750001 48.0196661 68.2247807 47.4946633 66.9807806 47.4638153 65.7370763 47.4329673 64.4620131 48.0813621 63.5600021 48.1125038 62.6582869 48.143058 61.9743087 48.143058 61.7565717 48.143058 61.5388347 48.143058 61.6009608 48.6066587 61.7876347 48.6992026" mask="url(#danilo-b)"/>
  </g>
</svg>
