<svg xmlns="http://www.w3.org/2000/svg" xmlns:xlink="http://www.w3.org/1999/xlink" width="120" height="120" viewBox="0 0 120 120">
  <defs>
    <path id="danilo-a" d="M120,59.9999233 C120,93.1369885 93.1369885,120 59.9999233,120 C26.8628581,120 0,93.1369885 0,59.9999233 C0,26.8628581 26.8628581,0 59.9999233,0 C93.1369885,0 120,26.8628581 120,59.9999233"/>
  </defs>
  <g fill="none" fill-rule="evenodd">
    <mask id="danilo-b" fill="#fff">
      <use xlink:href="#danilo-a"/>
    </mask>
    <use fill="#7BCAEC" xlink:href="#danilo-a"/>
    <path fill="#811518" d="M12.9626925,104.076643 C13.9268528,103.49854 30.3052177,91.5028158 30.3052177,91.5028158 C30.3052177,91.5028158 33.1971204,87.841689 34.5464822,87.6488916 C35.8961332,87.4560943 66.1648109,91.1175101 69.6350941,92.0809188 C73.1053773,93.0446167 78.8891826,94.2008228 81.7810853,97.0913382 C84.672988,99.9818535 92.8571671,119.272414 92.8571671,119.272414 C92.8571671,119.272414 77.3466417,130.621316 60.1881156,129.657618 C43.0295895,128.69421 6.3987259,113.278224 6.3987259,113.278224 L12.9626925,104.076643 Z" mask="url(#danilo-b)"/>
    <path fill="#E8B18E" d="M79.1244389,67.4861307 C79.1244389,67.4861307 79.9737907,60.5986107 80.0460883,58.8643015 C80.1183859,57.1299923 79.9714772,56.0755323 79.9714772,56.0755323 C79.9714772,56.0755323 79.9014932,54.9621058 79.9737907,53.2277966 C80.0460883,51.4934873 80.3413515,47.4802958 80.3413515,47.4802958 L80.5521713,43.7613588 C80.5521713,43.7613588 80.7832343,40.195619 80.6967664,38.9920084 C80.6097201,37.7881088 80.769064,34.2226581 79.9737907,32.1992973 C79.1785175,30.1759366 78.6001369,23.4554884 74.7683659,20.2759215 C70.9365949,17.0963546 59.8750671,15.0729939 56.3324864,15.1452567 C52.7899056,15.2175196 45.8493392,16.0846742 43.3189243,19.0474525 C40.7885095,22.0102307 34.7155139,46.1099025 34.7155139,46.1099025 C34.7155139,46.1099025 33.4864553,44.9898278 32.691182,45.0620907 C31.8959088,45.1343536 31.1006356,45.2066164 30.8114453,45.9292453 C30.522255,46.6518741 30.2330648,47.8803431 30.8837429,49.3978637 C31.534421,50.9153843 32.4742893,52.7219564 32.2573966,53.8781625 C32.0405039,55.0343686 31.4621234,57.5635696 31.9682064,58.9365644 C32.4742893,60.3095592 32.9803723,62.1883942 34.3540261,63.3446003 C35.7276798,64.5008064 37.1013336,64.9343837 37.535119,64.7175951 C37.9689044,64.5008064 39.3425582,64.7175951 39.3425582,64.7175951 L39.197963,68.5475279 C39.197963,68.5475279 40.0655338,77.2913369 39.197963,80.1818522 C38.3303922,83.0723676 34.2094309,89.070187 34.2094309,89.070187 L32.6188845,90.5877075 C32.6188845,90.5877075 34.7878115,91.6716508 36.0891677,92.6110683 C37.3905239,93.5504858 47.1506954,100.776774 48.4520516,101.93298 C49.7534078,103.089186 64.6467066,112.266573 64.8635993,112.266573 C65.080492,112.266573 71.2980827,115.012562 71.2980827,115.012562 C71.2980827,115.012562 71.7318681,106.485542 71.0088924,104.462181 C70.2859168,102.43882 67.4663117,95.2125321 67.4663117,95.2125321 L68.7676679,89.5760271 C68.7676679,89.5760271 72.2379511,85.2402541 74.912961,79.097909 C77.587971,72.9555638 79.1244389,67.4861307 79.1244389,67.4861307" mask="url(#danilo-b)"/>
    <path fill="#FEFEFE" fill-opacity=".15" d="M46.0417953 52.4808585L45.9454949 47.5912627C45.9454949 47.5912627 46.4333589 47.0279013 46.7760494 46.9134369 47.1190291 46.7995505 52.3357323 46.875282 52.3357323 46.875282 52.3357323 46.875282 59.4376669 47.0565174 59.9229281 47.0611422 60.4084786 47.065767 62.0409577 47.2183862 62.4053374 47.4467369 62.7694279 47.6747986 63.3024056 48.2835411 63.4548089 48.5121809 63.6069229 48.7405316 63.2263486 51.0621935 62.921542 51.861421 62.6167355 52.6606485 62.0458739 54.6779392 61.512607 55.0204653 60.9793402 55.3629913 60.2040211 55.4988456 60.115818 55.5641712 60.0273258 55.6294969 49.365459 55.3248365 49.365459 55.3248365 49.365459 55.3248365 47.1566238 54.9062899 46.8142225 54.6779392 46.4712429 54.4495885 46.1288416 53.8024021 46.1288416 53.6885158 46.1288416 53.5740514 46.0417953 52.4808585 46.0417953 52.4808585M69.6994678 48.0934319C69.6994678 48.0934319 70.2327347 47.7130401 70.7660015 47.6748853 71.29869 47.6367305 75.0306904 47.4846894 76.0587618 47.4083798 77.0868332 47.3320702 81.1615241 47.5222661 82.0753653 47.6367305 82.9892066 47.7506168 83.6549226 47.7714285 83.8550422 48.065683 84.0554511 48.3599375 84.1315081 49.1210101 84.093335 49.7300417 84.0554511 50.3390733 83.2176669 53.2694778 83.1413206 53.8787984 83.0652636 54.487541 82.5322859 55.020552 82.5322859 55.020552 82.5322859 55.020552 81.0282074 55.9512979 79.9715061 56.0755901 78.9145157 56.2004604 74.9925173 56.2386152 74.11656 56.2764809 73.2408918 56.3143467 71.572264 56.1039171 70.9944618 55.7816247 70.4163705 55.4593322 69.6766218 53.9189766 69.6766218 53.9189766 69.6766218 53.9189766 69.3949505 48.7784841 69.4331236 48.5501334 69.4710075 48.3217826 69.6994678 48.0934319 69.6994678 48.0934319" mask="url(#danilo-b)"/>
    <path fill="#1F0B04" d="M38.8332074,46.1395014 L38.5908659,42.7503721 C38.5908659,42.7503721 38.2276429,39.4826445 38.5908659,38.756258 C38.9543781,38.0301605 40.8916637,29.1947223 40.8916637,29.1947223 C40.8916637,29.1947223 41.9816218,24.5956233 42.4660155,23.506188 C42.95012,22.4170418 45.129747,19.6331865 46.5829281,18.3015261 C48.0361092,16.9704438 51.5477466,17.0915564 51.9112588,17.0915564 C52.2744818,17.0915564 56.5125652,17.5757177 56.5125652,17.5757177 C56.5125652,17.5757177 59.5398089,19.2701378 60.0239134,19.1490252 C60.5085963,19.0279126 62.6882233,18.4226387 62.6882233,18.4226387 C62.6882233,18.4226387 65.2310733,17.8176538 65.8366377,17.9387664 C66.4422022,18.0595899 68.3794878,18.9068 68.3794878,18.9068 L71.4067315,19.2701378 C71.4067315,19.2701378 74.4339752,21.4484302 75.2815919,22.9009141 C76.1294977,24.3533981 77.8244419,27.1372534 78.1879541,28.4683357 C78.551177,29.7999962 79.277623,31.857465 79.5196752,32.4627389 C79.7620167,33.0677238 80.4884626,37.1829505 80.6096334,37.7879354 C80.7308041,38.3932093 80.4884626,41.9031621 80.4884626,41.9031621 C80.4884626,41.9031621 81.2151978,37.4251757 80.7308041,34.5202077 C80.2464104,31.6155289 79.7620167,28.105287 79.7620167,28.105287 C79.7620167,28.105287 80.0040689,25.2008972 79.640846,22.5378654 C79.277623,19.8751226 76.9768252,14.7918623 76.008327,13.2182658 C75.0395396,11.6449583 72.2543482,11.4027331 72.2543482,11.4027331 C72.2543482,11.4027331 70.1958918,10.4346995 69.7112089,10.4346995 C69.2271044,10.4346995 67.8950941,11.0396844 67.8950941,11.0396844 C67.8950941,11.0396844 66.1998607,8.37694161 62.3247111,8.13500548 C58.4498508,7.89306934 56.6337359,8.37694161 55.1802656,9.22415166 C53.7273737,10.0716508 53.1218093,10.4346995 53.1218093,10.4346995 C53.1218093,10.4346995 47.1884926,11.8868944 45.7353115,12.8552171 C44.2824196,13.8235397 41.2548867,15.7598959 40.2860993,16.607106 C39.3176011,17.4546051 37.2591447,19.5120739 37.2591447,20.359573 C37.2591447,21.206494 36.4112389,22.4170418 36.4112389,22.4170418 C36.4112389,22.4170418 34.1107303,24.958672 33.5051659,27.7425273 C32.8996014,30.5260936 32.7784307,33.3096599 32.7784307,33.6729977 C32.7784307,34.0360464 33.5051659,40.8137268 33.7472181,41.7823385 C33.9895596,42.7503721 34.7154271,46.1097291 34.7154271,46.1097291 L38.8332074,46.1395014 Z" mask="url(#danilo-b)"/>
    <path fill="#9F554F" d="M56.0699884,72.3212692 C56.0699884,72.3212692 58.6521683,72.4894972 59.7750941,72.4334212 C60.8977307,72.3773452 63.0871902,72.5455732 63.6485085,72.4894972 C64.2098268,72.4334212 64.6589393,72.2651932 65.1641547,72.4894972 C65.6693701,72.7138011 66.623698,72.3773452 67.0169967,72.2651932 C67.4097171,72.1530412 68.0835304,71.8723721 68.6445596,72.0406001 C69.2061671,72.2088281 71.1148228,72.2651932 71.1148228,72.2651932 L71.4514403,72.0969652 L70.7218133,73.7240363 C70.7218133,73.7240363 69.7113825,75.9685214 68.9253633,76.4174185 C68.1393442,76.8663155 64.6028364,77.3149235 63.9854152,77.3712885 C63.3677048,77.4273645 62.0203673,77.1466955 61.1224315,76.7541635 C60.2239174,76.3613425 58.8768691,75.4635484 57.8103354,74.6218303 C56.7435125,73.7801123 55.5644838,72.9383942 55.3400721,72.8823182 C55.1153713,72.8262422 55.2278663,72.0969652 55.2278663,72.0969652 L56.0699884,72.3212692 Z" mask="url(#danilo-b)" opacity=".784"/>
    <path fill="#A67860" d="M59.137256 62.3780698C59.3671623 61.9950765 60.8923517 60.4605019 60.7561431 60.9562253 60.611548 61.48201 60.1089353 62.8977844 60.6208021 63.4088275 61.2532612 64.0415614 61.8513067 63.5091284 62.8145995 63.7212923 63.4878344 63.8695757 64.3400781 64.8428122 65.5075392 64.8746079 66.8959417 64.9121846 68.4931395 64.7543624 68.8763166 64.3710801 69.2597829 63.9877978 70.0264263 63.5279168 70.0264263 63.5279168 70.0264263 63.5279168 70.7953833 64.3731035 71.1768252 64.0643964 72.2066318 63.2307718 71.0238436 60.7960907 71.0238436 60.7960907 71.0238436 60.7960907 72.0582772 61.9387114 72.2505887 62.6850425 72.6245117 64.1352141 72.0203932 64.3710801 71.6372161 64.8309611 71.2534606 65.2908421 69.4899784 65.9808081 69.4899784 65.9808081 69.4899784 65.9808081 69.1065121 66.6707741 68.2629441 66.9005701 67.4193761 67.1303661 64.8120366 66.2106041 64.8120366 66.2106041 64.8120366 66.2106041 63.4317315 66.4406891 62.357968 66.4406891 61.2844938 66.4406891 59.6739932 66.1340054 59.137256 64.9844475 58.6005189 63.8346005 59.137256 62.3780698 59.137256 62.3780698M73.9376379 45.9752334C74.8578414 45.6685497 71.0237568 45.8986347 70.256535 46.2053184 69.4898916 46.511713 69.0297899 48.0448424 68.7995945 48.121441 68.5696882 48.1980397 67.0361122 47.9682437 67.0361122 47.9682437 67.0361122 47.9682437 66.1156196 47.5849614 65.502247 46.8183967 64.9516288 46.1304541 63.7864812 46.0602145 63.5528155 46.0529882 62.6748338 45.4988764 61.2077716 44.9022741 61.2077716 44.9022741 61.2077716 44.9022741 55.8398218 43.8290257 56.0697281 44.1357094 56.2999235 44.4423931 57.6802287 46.0521211 57.2967624 46.3585157 56.9132961 46.6651994 53.5167564 47.1615009 53.5167564 47.1615009 53.5167564 47.1615009 52.4097361 49.9025766 53.155847 50.421135 53.9019579 50.9394044 56.9899315 51.2640093 56.9132961 51.800489 56.8366607 52.3372577 53.6159487 53.1035333 54.5361521 53.5637033 55.4563555 54.0235843 59.6562658 53.3469147 61.1311362 52.7971387 62.6057173 52.2473626 62.1719319 57.5306466 62.1719319 57.5306466 62.1719319 57.5306466 63.8243651 52.423106 64.0545606 50.8899766 64.0545606 50.8899766 64.9909586 49.2814048 65.6049096 48.8978335 66.2182821 48.5145511 66.8825522 48.6579207 67.2660185 48.7348084 67.6494848 48.811407 68.1862219 49.6545704 68.4930528 50.2676487 68.62261 50.5269279 68.7249834 51.2663217 68.7995945 52.0328864L68.7995945 53.7169007C68.7995945 53.7169007 69.8730687 57.6260336 69.8730687 57.8561186L69.7090979 52.8936819C69.9384257 52.7046422 70.3829112 51.4917819 71.7316946 51.7415225 73.051559 51.985771 72.0972311 51.4174957 72.6339682 51.1874107 73.1709945 50.9573256 71.7137648 48.0448424 71.4641936 47.7268857 71.2152008 47.408929 73.0174345 46.2819171 73.9376379 45.9752334" mask="url(#danilo-b)"/>
    <path fill="#AAA3A4" d="M70.1160464,50.9229863 C70.1160464,50.9229863 70.9382143,50.6327786 72.0504401,50.9229863 C73.1629551,51.2131941 74.6624066,51.4548411 75.6780428,51.2614657 C76.693679,51.0680902 77.806194,50.0043805 77.806194,50.0043805 C77.806194,50.0043805 76.693679,48.4576658 75.6780428,48.167458 C74.6624066,47.8775393 73.9348039,47.8911248 72.921192,48.2157296 C71.9075801,48.5406236 70.4546882,49.4242541 70.4546882,49.4242541 C70.4546882,49.4242541 69.9708729,50.1494844 69.9225781,50.2945883 C69.8742833,50.4394031 70.1160464,50.9229863 70.1160464,50.9229863" mask="url(#danilo-b)"/>
    <path fill="#D8CECD" d="M70.3094858,50.7338599 C70.5006405,50.4832522 71.265838,49.9276952 72.2910175,49.6444247 C73.3159078,49.3614432 74.3046493,49.2530489 75.3677127,49.4209878 C76.430487,49.5886377 77.1580897,50.4271762 77.1580897,50.4271762 C77.1580897,50.4271762 76.7104231,51.1544299 75.2557961,51.2102168 C73.8011691,51.2662928 72.2349146,50.874628 71.843351,50.930704 C71.4514981,50.9864909 70.3094858,50.7338599 70.3094858,50.7338599" mask="url(#danilo-b)"/>
    <path fill="#AAA3A4" d="M49.5603733,49.2792659 C49.5603733,49.2792659 50.8278942,48.012353 51.6627865,47.7088489 C52.4973896,47.4056338 52.8392125,47.2157269 53.6359317,47.2535927 C54.4329401,47.2917475 56.0645516,47.4810763 57.0130957,48.315568 C57.9619289,49.1500598 58.796532,50.0224174 58.6828803,50.0602831 C58.5689393,50.0984379 58.1516377,50.4776735 57.9998129,50.5155393 C57.847988,50.553405 56.9752117,50.2499009 56.5957941,50.2877667 C56.2163765,50.3259215 55.1538914,50.6672913 54.3950562,50.553405 C53.6359317,50.4398078 52.0800881,50.3259215 51.3212528,50.0984379 C50.5624176,49.8706653 49.5603733,49.2792659 49.5603733,49.2792659" mask="url(#danilo-b)"/>
    <path fill="#D8CECD" d="M50.0690011,49.5671901 C50.334767,49.5293243 51.2451379,48.8468737 52.38368,48.8468737 C53.5219329,48.8468737 54.7446294,48.6390456 55.4045616,48.9515103 C56.0644938,49.263975 57.2027466,50.2499298 57.2027466,50.2499298 C57.2027466,50.2499298 55.9887259,50.705186 54.9641248,50.5912997 C53.9395237,50.4774134 51.8906106,50.2877956 51.4730199,50.1741983 C51.0557183,50.060312 50.0690011,49.5671901 50.0690011,49.5671901" mask="url(#danilo-b)"/>
    <path fill="#2F1E14" d="M55.2732981,48.4787376 C55.5743452,49.5366663 54.9603942,50.6385307 53.9019579,50.9394334 C52.8435215,51.240336 51.7411282,50.6266796 51.4400811,49.568751 C51.139034,48.5105333 51.752985,47.4089579 52.8114214,47.1080553 C53.8698577,46.8071526 54.9719618,47.420809 55.2732981,48.4787376" mask="url(#danilo-b)"/>
    <path stroke="#1D0A00" stroke-width=".525" d="M55.2732981,48.4787376 C55.5743452,49.5366663 54.9603942,50.6385307 53.9019579,50.9394334 C52.8435215,51.240336 51.7411282,50.6266796 51.4400811,49.568751 C51.139034,48.5105333 51.752985,47.4089579 52.8114214,47.1080553 C53.8698577,46.8071526 54.9719618,47.420809 55.2732981,48.4787376 Z" mask="url(#danilo-b)"/>
    <path fill="#2F1E14" d="M75.1762977,49.2465452 C75.477634,50.3044738 74.863683,51.4063383 73.8052466,51.7072409 C72.7468103,52.0081436 71.644417,51.3944872 71.3433699,50.3365586 C71.0420336,49.2783409 71.6559846,48.1767655 72.714421,47.8758628 C73.7728573,47.5749602 74.8752506,48.1886166 75.1762977,49.2465452" mask="url(#danilo-b)"/>
    <path stroke="#1D0A00" stroke-width=".525" d="M75.1762977,49.2465452 C75.477634,50.3044738 74.863683,51.4063383 73.8052466,51.7072409 C72.7468103,52.0081436 71.644417,51.3944872 71.3433699,50.3365586 C71.0420336,49.2783409 71.6559846,48.1767655 72.714421,47.8758628 C73.7728573,47.5749602 74.8752506,48.1886166 75.1762977,49.2465452 Z" mask="url(#danilo-b)"/>
    <path fill="#1D0A00" d="M75.307619,49.7193468 C75.307619,49.7193468 74.3738236,49.3664149 73.3156764,49.361501 C72.3387917,49.3565871 71.2196254,49.6840825 71.2329281,49.7892973 C71.2138416,48.6648868 72.1100422,47.7376095 73.2355707,47.718243 C74.3608101,47.6991656 75.2885324,48.5949363 75.307619,49.7193468" mask="url(#danilo-b)"/>
    <path fill="#000" d="M74.0760155,49.3715889 C74.2422999,49.792448 74.035818,50.2682268 73.614757,50.4344314 C73.193696,50.600636 72.7176888,50.3942533 72.5514044,49.9733942 C72.3848308,49.5525352 72.5913127,49.0764673 73.0123737,48.9102627 C73.4334347,48.744058 73.9097311,48.9507299 74.0760155,49.3715889" mask="url(#danilo-b)"/>
    <path fill="#FEFEFE" d="M74.9515101,49.3704616 C74.9570047,49.5647043 74.8037339,49.7265731 74.609398,49.731776 C74.4153513,49.737268 74.2534048,49.5840707 74.2479102,49.3898281 C74.2427048,49.1958745 74.3956864,49.0340056 74.5900223,49.0285137 C74.7843581,49.0233107 74.9460155,49.176219 74.9515101,49.3704616" mask="url(#danilo-b)"/>
    <polygon fill="#4C3839" points="80.434 48.466 83.054 49.236 84.071 48.805 83.763 47.942 80.341 47.48" mask="url(#danilo-b)"/>
    <path fill="#FEFEFE" d="M69.5534846 49.0514932C69.5534846 49.0514932 69.6457363 49.914023 69.6766796 50.7768419 69.7073338 51.6393716 69.9230697 53.7341281 70.169749 54.3197465 70.4164283 54.9050759 70.7863027 55.3979088 71.0326928 55.6135412 71.2793721 55.8291737 71.3412588 55.9216701 71.3412588 55.9216701 71.3412588 55.9216701 70.7247052 55.7676057 70.4164283 55.4594767 70.1081515 55.1516369 69.8001639 54.596947 69.6766796 53.9191211 69.5534846 53.2412953 69.2758619 49.5443261 69.2758619 49.2671257 69.2758619 48.9899253 69.3993462 48.3120994 69.5841387 48.1273955 69.7692205 47.9424025 69.9230697 48.0658275 69.9230697 48.0658275 69.9230697 48.0658275 69.6720526 48.3991039 69.5971523 48.5404501 69.5225412 48.6817963 69.5534846 49.0514932 69.5534846 49.0514932M60.115818 55.5641712C60.2121184 55.5641712 60.7424934 55.3956542 61.0556864 55.2268481 61.3688795 55.058331 61.9232572 54.4802279 62.1401499 53.9503965 62.3570426 53.420276 62.6462329 52.4085956 62.9114204 51.6137039 63.1763186 50.8188121 63.296911 50.072192 63.3452058 49.5663518 63.3932113 49.0605117 63.2006106 48.4584173 63.0317235 48.3378828 62.8631256 48.2173483 62.5256405 47.7597797 62.477635 47.6635256 62.4293402 47.5669824 62.4053374 47.4467369 62.4053374 47.4467369 62.4053374 47.4467369 62.8871284 47.5669824 63.1283131 47.783771 63.3692085 48.0005597 63.5861012 48.2656199 63.634396 48.5786627 63.6824016 48.8919946 63.4655089 50.0961833 63.3452058 50.7708296 63.2246134 51.4451868 62.5739353 53.5408105 62.284745 54.1911764 61.9955548 54.8415424 61.5857722 55.2028568 61.2242843 55.4196454 60.8627965 55.6364341 60.115818 55.5641712 60.115818 55.5641712" mask="url(#danilo-b)"/>
    <path fill="#1D0A00" d="M55.4046194,48.9515681 C55.4046194,48.9515681 54.4705348,48.5986362 53.4123876,48.5937223 C52.4355029,48.5888085 51.3166258,48.9163038 51.3296393,49.0212296 C51.3105528,47.8971081 52.2067534,46.9698308 53.3322819,46.9504644 C54.4575213,46.931387 55.3852437,47.8271577 55.4046194,48.9515681" mask="url(#danilo-b)"/>
    <path fill="#000" d="M54.1727267,48.6034923 C54.3390111,49.0243513 54.1325293,49.5004192 53.7114682,49.6666238 C53.2904072,49.8328285 52.8144,49.6264457 52.6481156,49.2055866 C52.481542,48.7847276 52.6880239,48.3086597 53.1090849,48.1424551 C53.5301459,47.9762504 54.0064423,48.1826332 54.1727267,48.6034923" mask="url(#danilo-b)"/>
    <path fill="#FEFEFE" d="M55.0484816,48.602654 C55.053687,48.7968967 54.9004162,48.9584765 54.7060803,48.9639684 C54.5120336,48.9694604 54.3500871,48.8162631 54.3445925,48.6220205 C54.339387,48.4280669 54.4926579,48.265909 54.6869938,48.2607061 C54.8813296,48.2555031 55.042987,48.4084114 55.0484816,48.602654" mask="url(#danilo-b)"/>
    <path fill="#1C0D0E" d="M63.0921643,50.454665 L62.8185903,50.6671179 L62.6664762,51.0319009 C62.6664762,51.0319009 62.5447271,50.8495094 62.3929022,51.0625404 C62.2410773,51.2749933 62.0889632,51.91293 62.1803474,52.0649711 C62.2714423,52.2170122 62.6057462,52.2470736 62.6057462,52.2470736 C62.6057462,52.2470736 62.9096852,51.6397763 63.0010693,51.2749933 C63.0921643,50.9102102 63.2746433,50.6064171 63.0921643,50.454665" mask="url(#danilo-b)"/>
    <path fill="#FEFEFE" d="M46.0417953 52.4808585C46.0417953 52.4808585 46.2106824 53.4685476 46.4275751 53.8058707 46.6444678 54.1429048 47.2228484 54.5524908 47.5600442 54.7210079 47.8975293 54.889814 49.4880757 55.3233913 49.4880757 55.3233913 49.4880757 55.3233913 47.8492345 55.1066026 47.4877466 54.9860681 47.1262588 54.8655336 46.28298 54.7452882 46.1623876 54.0706419 46.0417953 53.3962847 46.0417953 52.4808585 46.0417953 52.4808585M73.1903703 56.1990151C73.1903703 56.1990151 74.26905 56.3527905 75.1938805 56.3840081 76.1187109 56.4146475 77.9987369 56.4146475 78.9232782 56.2912225 79.8481086 56.1683756 79.9713037 56.0755901 79.9713037 56.0755901L79.879052 55.8293182C79.879052 55.8293182 79.2318442 56.0140221 78.4302087 56.1065186 77.6288625 56.1990151 75.5331007 56.2296546 74.7008111 56.1990151 73.8685215 56.1683756 73.1903703 56.1990151 73.1903703 56.1990151M82.3140051 55.1514923C82.7764204 54.9358599 82.9305588 54.6892989 82.9305588 54.6892989 82.9305588 54.6892989 83.4852257 53.1489433 83.6087099 52.6870389 83.7316158 52.2248455 84.194031 49.9757355 84.2246852 49.7291746 84.2559178 49.4829027 84.2246852 49.3285491 84.2246852 49.3285491L83.9166976 49.3285491C83.9166976 49.3285491 84.0092385 50.1298 83.6393641 51.5779482 83.2694898 53.0258073 82.9921563 54.443027 82.8070745 54.6277309 82.6219928 54.8124349 82.3140051 55.1514923 82.3140051 55.1514923" mask="url(#danilo-b)"/>
    <path fill="#4C3839" d="M34.7153693,46.1098736 C34.7153693,46.1098736 34.8961132,45.4956391 35.1491547,45.3149819 C35.4021962,45.1343247 36.0167255,45.242719 36.3059158,45.2788504 C36.595106,45.3149819 42.6319529,47.0131596 42.6319529,47.0131596 L42.6319529,48.2777601 C42.6319529,48.2777601 38.9809257,47.121554 38.2579501,46.8686339 C37.5349744,46.6157138 35.9444279,46.0376107 35.5829401,46.0737421 C35.2214523,46.1098736 35.1130059,46.5073194 35.1130059,46.5073194 L34.7153693,46.1098736 Z" mask="url(#danilo-b)"/>
    <path fill="#4D2E24" d="M69.8785344 46.3848194C70.076919 46.3848194 72.1249644 46.0544335 72.7857642 46.0544335 73.4462748 46.0544335 74.4373298 45.9223369 74.8338097 45.7902404 75.2302895 45.6581438 75.4280957 45.4604326 75.6924156 45.4604326 75.9570247 45.4604326 77.4764303 45.5922401 78.26939 46.1206263 79.0620606 46.6490125 79.6569249 47.1771097 79.9871802 47.2433025 80.3174355 47.3092062 80.7139154 46.9791094 80.5817554 46.5831088 80.4495955 46.1865301 80.7798508 45.3942398 80.5155308 44.8658536 80.2512109 44.3377564 79.5244758 43.1491765 78.8639652 42.7528869 78.2031655 42.3563082 76.2213446 42.7528869 75.5602556 42.8187906 74.899745 42.8849834 73.9749146 42.8849834 73.3141148 43.1491765 72.6536042 43.4130806 71.7284846 43.875274 71.3982293 44.0735633 71.0676848 44.2715636 69.8123099 44.7999498 69.8123099 45.328336 69.8123099 45.8564332 69.8785344 46.3848194 69.8785344 46.3848194M61.8842744 45.6582306C62.1153374 45.6007093 63.1396493 45.5264231 63.2718093 44.7997475 63.40368 44.07365 62.4788496 43.3469745 62.0164343 43.0830704 61.5537299 42.8188773 60.6288994 42.7526845 59.2413645 42.3563949 57.8538296 41.9603943 55.0128244 41.6962012 53.8896094 41.6300084 52.7666836 41.5641046 50.9167335 41.3658153 50.0578384 41.8282977 49.1989433 42.2904911 47.2168332 43.479071 46.622258 44.0074572 46.0276828 44.5355544 45.1687877 46.2528096 45.1687877 46.2528096 45.1687877 46.2528096 46.2920027 46.9130033 46.8203533 46.715003 47.3489932 46.5170027 49.6613585 45.5264231 50.6524136 44.9980369 51.6434686 44.4696506 52.8988436 44.2716503 53.7577387 44.3378431 54.6166338 44.4034578 57.0611591 44.8659403 57.7878942 44.9980369 58.5149186 45.1301334 61.6199545 45.7244234 61.8842744 45.6582306" mask="url(#danilo-b)"/>
    <path fill="#391E17" d="M64.2751838 65.5206381C64.2751838 65.5206381 63.5848867 65.6741244 62.6649724 65.5206381 61.7444798 65.3674407 60.8242764 64.9075598 61.2843781 64.7543624 61.7444798 64.6008761 63.7384467 64.8309611 64.2751838 65.5206381M69.4899206 65.9807503C69.4899206 65.9807503 70.7166657 64.8309033 71.100132 64.6011073 71.4838874 64.3710223 71.9437 64.5242196 71.6371583 64.8309033 71.3303274 65.137587 69.8730977 65.9038626 69.4899206 65.9807503" mask="url(#danilo-b)"/>
    <path fill="#63493C" d="M60.2107014,61.2283384 C60.2107014,61.2283384 59.2138625,62.3781854 59.2138625,63.0678624 C59.2138625,63.7578284 59.5206934,64.984274 59.9038705,65.2909577 C60.287626,65.5973523 61.3611003,66.0572333 61.3611003,66.0572333 C61.3611003,66.0572333 63.508338,66.134121 64.1217105,65.9806347 C64.7353723,65.8274374 65.4253803,66.134121 65.4253803,66.134121 C65.4253803,66.134121 65.7322111,66.5171143 66.4222191,66.593713 C67.1125163,66.6706007 68.1859906,66.7471993 68.6463815,66.4405157 C69.1064832,66.134121 69.4899495,65.9806347 69.4899495,65.9806347 C69.4899495,65.9806347 68.7996523,66.9003967 67.8794489,67.053594 C66.9592454,67.2070803 66.0387528,66.9772844 64.8886431,66.7471993 C63.7382442,66.5171143 62.5114991,66.6706007 61.5146603,66.5171143 C60.5178214,66.363917 59.1372271,65.8274374 58.60049,64.524104 C58.0634636,63.2213487 59.2138625,61.6116207 60.2107014,61.2283384" mask="url(#danilo-b)"/>
    <path fill="#A67860" d="M50.9405338,47.8859507 C50.9405338,47.8859507 51.9688944,47.3604551 52.7427676,47.2610213 C53.5166407,47.1615876 54.8391078,47.371439 54.8391078,47.371439 L56.8255558,46.4522551 C56.8255558,46.4522551 55.3174285,46.047872 54.3978035,46.1947102 C53.4781784,46.3418374 52.1542654,46.378547 51.6392175,46.709511 C51.1244588,47.040186 50.1313795,47.8859507 50.9405338,47.8859507" mask="url(#danilo-b)"/>
    <path fill="#391E17" d="M58.2987778,46.6614417 C58.2987778,46.6614417 58.0674255,46.4302005 57.7588595,46.3145799 C57.4502935,46.1986702 56.7177746,45.967718 56.0237179,46.0061619 C55.3296613,46.0446057 54.0184726,46.0061619 52.7463246,46.275847 C51.950473,46.4446531 49.9313466,47.2008119 49.3914283,47.5864066 C48.8517993,47.9717123 48.1192803,49.0510308 48.0420665,49.3207158 C47.9648527,49.5904009 48.6204471,48.4729277 48.9290131,48.2801303 C49.2372899,48.087622 49.8928843,47.3167216 50.9339692,47.0467474 C51.9750542,46.7767733 53.0546014,46.275847 54.4427147,46.3533128 C55.8311172,46.4302005 57.0648029,46.6614417 57.4502935,46.7386185 C57.8357841,46.8155062 58.221564,46.8155062 58.2987778,46.6614417" mask="url(#danilo-b)"/>
    <path fill="#FEFEFE" d="M59.9229281,47.0611422 C59.9229281,47.0611422 47.945824,46.9166164 47.5843362,46.9166164 C47.2228484,46.9166164 46.5478783,47.0371509 46.4032831,47.205668 C46.258688,47.3744741 46.2106824,47.6392453 46.2106824,47.6392453 L45.9454949,47.5912627 C45.9454949,47.5912627 46.0900901,47.2779308 46.4275751,47.0371509 C46.764771,46.796371 47.2468512,46.7241081 47.8012289,46.7480994 C48.3553174,46.7720907 58.959057,46.9408967 59.2242444,46.9408967 C59.4891427,46.9408967 59.9229281,47.0611422 59.9229281,47.0611422" mask="url(#danilo-b)"/>
    <path fill="#A67860" d="M51.1091318,50.2415473 C51.1091318,50.2415473 54.0924186,50.738716 54.9377217,50.7884328 C55.7830249,50.8378606 56.9765131,51.0370172 56.9765131,51.0370172 C56.9765131,51.0370172 57.5236611,51.8321979 56.4791058,51.4841799 C55.435129,51.1364509 54.4903444,51.7324751 52.998701,51.3350293 C51.5067684,50.9372944 51.1091318,50.2415473 51.1091318,50.2415473" mask="url(#danilo-b)"/>
    <path fill="#63493C" d="M50.0924255,49.5880885 L51.7853454,50.168504 C51.7853454,50.168504 54.1552596,50.487906 55.3157801,50.3910737 C56.4765899,50.2945305 57.2021683,50.101155 57.3956366,50.1976982 C57.5891048,50.2945305 57.923698,50.3639028 57.923698,50.3639028 L58.3791726,50.1361302 C58.3791726,50.1361302 58.2964642,49.6537032 58.1515799,49.6054316 C58.0064064,49.55716 57.299047,48.7960873 57.299047,48.7960873 L56.6700582,48.2156718 L56.9580917,48.1026527 C56.9580917,48.1026527 57.8942006,48.7139967 58.2325532,49.1004586 C58.571195,49.4872095 59.3450681,49.6323134 59.2481894,50.067336 C59.1515999,50.5026476 59.1998946,50.8893985 58.9581316,50.7442947 C58.7163685,50.5991908 57.5408101,50.8746569 57.2507522,50.6812814 C56.9604052,50.487906 56.2348268,50.5361776 56.2348268,50.5361776 C56.2348268,50.5361776 55.654422,50.8260962 54.4453174,50.7778246 C53.2362129,50.729553 51.3984088,50.5066943 50.6245356,50.168504 C49.8506625,49.8300247 49.5603155,49.4432737 49.5603155,49.4432737 L50.0924255,49.5880885 Z" mask="url(#danilo-b)"/>
    <path fill="#2D1A0E" d="M48.1595935,50.439143 C48.1595935,50.439143 48.4843541,49.5303649 48.8741826,49.2707966 C49.2634327,49.0115174 49.7504291,48.8166967 50.0751898,48.621876 C50.3999505,48.4270552 50.6269648,48.0377028 51.1790291,47.8105083 C51.7310933,47.5833138 51.9907861,47.1615876 53.516554,47.1615876 C55.042611,47.1615876 55.5619967,47.3887821 55.9191467,47.5833138 C56.2762967,47.7781345 56.9582074,48.1027394 56.9582074,48.1027394 L57.0880538,48.5895022 C57.0880538,48.5895022 56.1464503,47.9079187 55.5619967,47.7457607 C54.9775432,47.5833138 53.9711611,47.1292138 52.964779,47.4214449 C51.9583968,47.7130979 51.0167933,48.167776 50.6596433,48.5568394 C50.3024934,48.9464808 50.1402576,49.4332436 49.6856505,49.7578485 C49.2310434,50.0821643 48.1595935,50.439143 48.1595935,50.439143" mask="url(#danilo-b)"/>
    <path fill="#A67860" d="M70.9214702,51.6896377 C70.9214702,51.6896377 71.8795576,51.719121 72.6809038,51.982736 C73.2908061,52.1833377 74.0077087,52.2217816 75.0265261,51.8850365 C75.2972082,51.7954306 75.8573697,51.4451001 75.8573697,51.4451001 C75.8573697,51.4451001 74.5814622,51.4789191 73.3159656,51.2011406 C72.050469,50.923073 70.9214702,50.8591926 70.9214702,50.8591926 L70.9214702,51.6896377 Z" mask="url(#danilo-b)"/>
    <path fill="#63493C" d="M70.8415669,49.1341909 C70.5512199,49.2792948 70.0191098,49.8111496 69.8742255,50.0045251 C69.729052,50.1979005 69.729052,51.019385 69.729052,51.019385 C69.729052,51.019385 70.1159886,51.3139285 70.2611621,51.2653679 C70.4060464,51.2170963 70.8415669,51.0870231 71.1316248,51.1352947 C71.4219718,51.1835663 72.8728394,51.1835663 73.3080707,51.4252134 C73.7433021,51.6671495 75.9200372,51.4546966 76.5001529,51.3578644 C77.0805578,51.2613211 77.7228494,50.7421846 77.7228494,50.7421846 L76.9839682,49.8111496 C76.9839682,49.8111496 77.1291417,50.4395476 76.6453264,50.6814838 C76.1615111,50.9228418 74.2754122,51.1835663 73.5984178,51.0384624 C72.9211342,50.8936476 71.4219718,50.7297554 71.08333,50.7297554 C70.7446882,50.7297554 70.3577516,50.8786169 70.3094569,50.7338021 C70.2611621,50.5886982 70.2611621,49.8594212 70.2611621,49.8594212 L70.8415669,49.1341909 Z" mask="url(#danilo-b)"/>
    <path fill="#A67860" d="M71.2143332,47.6271051 C71.2848956,47.5568656 72.7432821,47.2978754 73.378344,47.2744622 C74.0134058,47.251049 75.1895426,47.6271051 75.4249435,47.7915754 C75.659766,47.9563348 75.8300991,48.1213832 75.754042,48.1445073 C75.6782742,48.1673424 74.8601549,47.6742205 73.4489064,48.0268634 C72.0376579,48.3797953 71.1909088,48.8969085 71.1909088,48.7555623 C71.1909088,48.6147942 71.2143332,47.6271051 71.2143332,47.6271051" mask="url(#danilo-b)"/>
    <path fill="#2D1A0E" d="M71.0827227,47.5723587 C71.0827227,47.5723587 71.5286541,47.2257859 72.2718731,47.1266413 C73.0153813,47.0274966 75.7407103,47.3249306 75.7407103,47.3249306 C75.7407103,47.3249306 77.029053,47.4732141 77.5244359,47.9189315 C78.020108,48.364938 78.3176848,48.9098002 78.3668472,49.256373 C78.4165879,49.6029458 78.3176848,49.9003798 78.3176848,49.9003798 C78.3176848,49.9003798 77.9703673,48.959228 77.5741766,48.4640827 C77.1776968,47.9686484 76.3352855,47.6715034 75.393682,47.5723587 C74.4520785,47.4732141 71.0827227,47.5723587 71.0827227,47.5723587" mask="url(#danilo-b)"/>
    <path fill="#FEFEFE" d="M70.4473139,47.9116474 C70.538698,47.9237876 70.7246473,47.81944 71.464396,47.7266544 C72.2041447,47.634447 74.0225731,47.6038075 75.2247371,47.5419505 C76.426901,47.4803825 78.8925372,47.4803825 79.539745,47.5419505 C80.1872421,47.6038075 81.7899345,47.6650865 82.2520606,47.7266544 C82.714765,47.7882224 83.4235703,47.9422869 83.5467654,48.0347834 C83.6702496,48.1272799 83.7934447,48.2194873 83.8550422,48.3122729 C83.9166397,48.4044803 83.9475831,48.6201127 83.9475831,48.6201127 L84.1939732,48.6510413 C84.1939732,48.6510413 84.163319,48.3122729 83.8550422,48.0657119 C83.5467654,47.81944 83.0843502,47.6650865 82.3448906,47.57259 C81.6051419,47.4803825 79.3856066,47.2338216 77.6906625,47.2953896 C75.9954291,47.3569575 72.4198807,47.387886 71.5875911,47.4803825 C70.7553015,47.57259 69.9848986,47.8500794 70.4473139,47.9116474" mask="url(#danilo-b)"/>
    <path fill="#2D1A0E" d="M70.7853484,48.8106844 C70.7853484,48.8106844 71.9744987,48.2658223 72.6685554,48.067822 C73.3620336,47.8695326 74.1052526,47.6221045 74.7993093,47.8198158 C75.4927875,48.0181051 76.1371034,48.0181051 76.6327756,48.4143948 C77.1284477,48.8106844 77.6235414,49.4546912 77.8219259,49.6526915 C78.0203105,49.8509809 78.4167903,50.1478368 78.4662419,50.2966984 C78.5156934,50.4449818 78.812981,51.1387055 78.6643372,51.1387055 C78.5156934,51.1387055 78.1686651,50.9898439 77.7227337,50.7424158 C77.2768023,50.4946987 76.9300632,49.5535469 76.4841318,49.1078294 C76.0379112,48.6618229 75.5425283,48.3649669 74.8985015,48.1666776 C74.2541856,47.9686773 72.9161022,48.4143948 72.9161022,48.4143948 C72.9161022,48.4143948 71.5780189,48.7609676 71.3802127,48.8106844 C71.1818282,48.8601122 70.7853484,48.8106844 70.7853484,48.8106844" mask="url(#danilo-b)"/>
    <path fill="#CA8178" d="M60.7292195,75.2950603 C60.7292195,75.2950603 62.1329491,76.6417514 62.8064732,76.9784964 C63.4802865,77.3149524 64.3221194,77.2591654 65.1642415,77.3149524 C66.0063635,77.3713174 67.5784018,77.1467244 68.6446463,76.6417514 C69.7114692,76.1367783 69.9919838,75.5193643 70.4410963,74.6779352 C70.8904979,73.8362172 71.0024146,72.9944991 70.4971992,73.2751681 C69.9919838,73.5555481 69.0376559,74.4536312 68.1394309,74.7340112 C67.2414951,75.0143912 65.2203444,75.2389843 64.2660165,74.9586043 C63.3116886,74.6779352 59.9995925,74.4536312 60.7292195,75.2950603" mask="url(#danilo-b)"/>
    <path fill="#461416" d="M54.7225931,72.1530123 C54.7225931,72.1530123 55.3400143,71.8723432 55.5644259,71.9284192 C55.7891268,71.9844952 56.519043,72.6579853 57.3608759,72.8822893 C58.2029979,73.1068823 59.7186441,73.3311863 60.4485604,73.4433383 C61.1784766,73.5557794 61.7397949,73.6679314 62.7502257,73.9486004 C63.7606565,74.2289804 65.220489,74.3974974 65.950116,74.1168284 C66.6800322,73.8361594 67.7465659,73.4994143 68.7569967,73.3875514 C69.7674275,73.2751103 70.6098388,72.6579853 70.6098388,72.6579853 L71.6763725,71.9844952 C71.6763725,71.9844952 70.6659417,72.9944413 70.1043342,73.2751103 C69.5430159,73.5557794 68.7569967,73.4994143 67.690463,73.8361594 C66.6236401,74.1729044 65.950116,74.5657254 64.8835823,74.5657254 C63.8167594,74.5657254 61.683692,74.0043873 60.6171583,73.8361594 C59.5503354,73.6679314 57.1925671,72.9383653 56.6873517,72.9944413 C56.1821364,73.0505173 55.2839114,72.6019093 54.7225931,72.1530123" mask="url(#danilo-b)"/>
    <path fill="#4D2E24" d="M54.421546,71.6886799 C54.421546,71.6886799 53.0548328,72.2138865 52.6343502,71.7936056 C52.2138675,71.3736137 51.6884088,70.5330518 51.6884088,70.5330518 L52.8448807,68.7467133 L53.2653633,68.116581 C53.2653633,68.116581 55.2625113,68.9571429 55.5777287,68.8519281 C55.8932353,68.7467133 56.7342006,68.6417876 57.5748767,68.8519281 C58.4161312,69.0620686 60.6235205,68.5368619 61.0437139,68.5368619 C61.4644858,68.5368619 62.0952097,67.8012258 62.5154032,67.696011 C62.9358859,67.5910853 63.8821164,67.1708044 63.8821164,67.1708044 L65.0385883,68.3264324 L65.6693123,69.3771347 L66.194771,68.9571429 L66.6152536,67.5910853 L68.5074255,67.3809448 L69.0328843,67.8012258 L70.3995975,68.5368619 C70.3995975,68.5368619 71.5557801,68.8519281 71.8712867,68.8519281 L73.8684347,68.8519281 C73.8684347,68.8519281 74.3938934,68.3264324 74.6041348,68.7467133 C74.8146653,69.1669943 75.0246174,69.7974157 74.8146653,70.2176966 C74.6041348,70.6379775 74.078676,71.4785394 74.078676,71.4785394 L71.8712867,71.4785394 L68.296895,71.3736137 L65.9845297,70.9533328 L65.2485404,70.3226223 L64.7230817,71.0582585 C64.7230817,71.0582585 63.0414403,71.7936056 62.2001858,71.6886799 C61.3592205,71.5837542 56.5239592,71.7936056 56.5239592,71.7936056 L54.421546,71.6886799 Z" mask="url(#danilo-b)"/>
    <path fill="#36211A" d="M53.6855568,81.8802902 C53.6855568,81.8802902 52.3191328,79.1484641 52.0039154,78.6229684 C51.6884088,78.0977618 49.6909716,75.0508695 49.0605368,74.0001672 C48.4298129,72.9497539 46.7478823,70.7431345 46.2221344,70.0077874 C45.6966756,69.2721512 41.1766318,64.7542757 41.1766318,64.7542757 C41.1766318,64.7542757 40.4406425,67.2759613 40.8611252,68.5368041 C41.2816078,69.7973579 43.3840211,77.5725551 47.1683649,80.5142326 C50.9527087,83.4561991 54.6314981,83.6666286 54.6314981,83.6666286 L53.6855568,81.8802902 Z" mask="url(#danilo-b)"/>
    <path fill="#4D2E24" d="M63.1463874,78.4130881 C63.1463874,78.4130881 64.7230528,78.3081624 65.4587528,78.4130881 C66.1947421,78.5180138 66.7202008,78.9382947 66.7202008,78.9382947 C66.7202008,78.9382947 67.0357074,79.7791456 66.7202008,80.409278 C66.4049834,81.0396994 65.4587528,81.2498398 64.5131007,81.3550546 C63.5668701,81.4599803 62.6209287,79.9889971 62.6209287,79.9889971 L63.1463874,78.4130881 Z" mask="url(#danilo-b)"/>
    <path fill="#29140E" d="M77.232267,71.7939813 C77.232267,71.7939813 75.0245885,75.471295 74.8146364,76.3118568 C74.6041058,77.1524187 72.0812099,82.3007156 72.0812099,82.7209965 C72.0812099,83.1412775 70.8200512,84.6122607 70.3995685,84.4018312 C69.9790859,84.1919798 68.9278793,85.662674 68.5073966,86.2930954 C68.086914,86.9238059 65.9845007,87.9745082 64.6180767,87.8690044 C63.2513635,87.7640787 61.7796742,86.6084506 61.2542155,85.9780292 C60.7287568,85.3476078 57.3648956,84.9273269 56.8391477,84.8221122 C56.313689,84.7171864 54.5264932,83.2462032 54.5264932,83.2462032 C54.5264932,83.2462032 53.2653344,82.5108561 51.6883799,82.0905751 C50.1117145,81.6702942 47.3788665,78.7283277 46.7478533,78.203121 C46.1171294,77.6776254 43.9097401,73.6849565 43.4892574,73.1597499 C43.0687748,72.6342542 40.9666507,63.9138584 40.7561202,63.5985032 C40.5461681,63.283437 39.5999375,59.7110491 39.2844309,59.1858424 C38.9692135,58.6603467 38.7589722,51.2007938 38.7589722,51.2007938 L38.9692135,46.8930587 L35.5827955,46.0738867 L36.025835,46.787844 C36.025835,46.787844 37.2872829,51.4106452 37.2872829,51.9361409 C37.2872829,52.4613475 37.8127417,60.5516109 38.0232722,62.4428751 C38.2335135,64.3338503 39.7049136,71.2687747 40.4409028,72.8446837 C41.1766028,74.4205927 44.0150053,80.3042367 46.1171294,82.5108561 C48.2195426,84.7171864 53.1600691,89.0249215 54.4215171,89.9706981 C55.682965,90.9161857 58.7313196,91.6515328 61.5697221,91.8619623 C64.4075462,92.0718137 67.1406834,91.0214004 68.6123727,90.390979 C70.084062,89.7602686 71.2402446,88.2892853 71.7662817,87.7640787 C72.2917405,87.238872 73.4479231,83.8766246 73.8684058,83.1412775 C74.2888884,82.4056413 77.4425083,74.7359479 77.4425083,74.7359479 L79.1244389,67.4862463 L77.232267,71.7939813 Z" mask="url(#danilo-b)"/>
    <path fill="#A67860" d="M32.6783131 52.961002C32.6783131 52.961002 33.4738755 51.6357007 33.5398109 50.7743271 33.6063246 49.9129535 33.739063 47.6600859 33.739063 47.6600859 33.739063 47.6600859 32.8107622 46.2685918 32.2144519 46.4012664 31.6175632 46.533652 31.2199265 46.931387 31.2199265 47.6600859 31.2199265 48.3890738 31.6175632 49.7143751 31.9492644 50.4430741 32.2803872 51.172062 32.6783131 52.961002 32.6783131 52.961002M35.5287169 52.364573L36.2577656 53.6233925C36.2577656 53.6233925 35.1973049 54.5509589 35.0648557 55.4785252 34.9321174 56.4063807 35.5949415 57.9305494 35.5949415 57.9305494 35.5949415 57.9305494 36.3905039 58.6592483 36.6556914 58.9243086 36.9208789 59.1890798 37.3850293 59.851875 37.053328 60.183128 36.7222052 60.5143811 35.9266427 60.4481883 35.5287169 60.1169352 35.1310803 59.7856822 35.1973049 58.5265737 35.1973049 58.5265737 35.1973049 58.5265737 33.8716567 57.6654892 33.5399555 56.7376337 33.2088326 55.8100673 33.5399555 54.3523805 34.1368442 53.6233925 34.7334437 52.8946936 35.5287169 52.364573 35.5287169 52.364573M67.4661671 95.2125032L67.2027147 96.5762483C67.2027147 96.5762483 70.1281635 103.842137 70.3054371 104.551469 70.4829999 105.260224 70.9260394 110.133632 70.837258 110.576748 70.749055 111.020154 70.6602736 114.564214 70.6602736 114.564214L71.2979381 115.012533C71.2979381 115.012533 71.9899704 108.184269 71.3693681 105.792078 70.749055 103.39931 67.8181116 96.1524988 67.4661671 95.2125032" mask="url(#danilo-b)"/>
    <path fill="#1C0D0E" d="M83.084408 48.6509256C83.084408 48.6509256 82.9305588 49.174687 83.0537538 49.236255 83.1769489 49.297823 84.2246852 49.3287515 84.2246852 49.3287515L84.2246852 49.7290879C84.2246852 49.7290879 85.1188615 49.7906558 85.2420566 49.5134554 85.3655408 49.236255 85.4577925 48.4971502 85.3655408 48.3430857 85.2727107 48.1887322 84.7796413 48.0658853 84.7796413 48.0658853L83.7625592 47.9424603C83.7625592 47.9424603 83.8551001 48.0658853 84.0401818 48.2815178 84.2246852 48.4971502 84.194031 48.6509256 84.194031 48.6509256L83.084408 48.6509256zM44.6924335 47.5189998L48.0542704 47.7719199 48.0181216 48.350023C48.0181216 48.350023 46.5360215 48.3861544 46.1022361 48.3138915 45.6684507 48.2416287 44.5839872 48.1332343 44.4755408 48.2054972 44.3670945 48.2777601 44.439392 48.4584173 44.1502018 48.4222859 43.8610115 48.3861544 42.7403992 48.4945488 42.6319529 48.2777601 42.5235065 48.0609714 42.6319529 47.0131596 42.6319529 47.0131596L44.2224993 47.0492911 44.6924335 47.5189998zM61.5115081 49.0266348L63.7001001 49.0873356 63.4571802 50.0900554C63.4571802 50.0900554 63.9433091 49.2090263 64.307978 48.965934 64.6729361 48.7225526 65.7065021 48.3580586 66.37511 48.388409 67.0440071 48.4187594 68.0772839 48.4794603 68.3207821 48.6317904 68.5639912 48.7835425 68.7464702 50.1811067 68.7464702 50.1811067L68.9590251 52.3382983 69.1415041 52.611741C69.1415041 52.611741 69.4758081 52.0651446 69.4454431 51.9738043 69.4150781 51.882753 69.354059 50.6369409 69.354059 50.6369409L69.019755 51.2445272C69.019755 51.2445272 69.019755 50.059705 68.9590251 49.7556228 68.8982951 49.4521187 68.7464702 48.7835425 68.7464702 48.7835425 68.7464702 48.7835425 69.262964 49.0266348 69.810112 49.1480365 70.35726 49.2697272 71.8165141 49.2090263 71.937974 49.1783869 72.0597231 49.1480365 72.241913 48.5100997 71.907609 48.5404501 71.5733051 48.5708005 70.2658759 48.7225526 69.597268 48.5404501 68.9283709 48.3580586 67.8039991 47.8415235 66.5879541 47.8111731 65.3721982 47.7808227 64.1257881 48.4187594 63.244047 48.4493989 62.3625951 48.4794603 61.6939872 48.4794603 61.4811431 48.4794603 61.2682991 48.4794603 61.3290291 48.9355836 61.5115081 49.0266348" mask="url(#danilo-b)"/>
  </g>
</svg>
