<svg xmlns="http://www.w3.org/2000/svg" width="540" height="230" viewBox="0 0 540 230">
  <g fill="none" fill-rule="evenodd">
    <rect width="540" height="183" y="48" fill="#2591BF"/>
    <polygon fill="#43464E" points="350.078 47.984 270.828 92.952 191.817 47.984 7.637 47.984 178.832 145.013 270.279 197.337 535.341 47.984"/>
    <path fill="#EDCBB4" d="M438.935716,68.1031408 C438.935716,68.1031408 438.351672,67.2429886 437.767023,64.6625321 C437.183582,62.0814832 438.351672,59.5010266 438.351672,59.5010266 C438.351672,59.5010266 441.271895,47.7450212 437.767023,43.7309777 C434.263359,39.7169342 432.291001,36.5624505 426.962197,36.8491679 C421.632789,37.1364777 417.47147,36.7401679 414.259225,40.7542114 C411.046375,44.7688473 412.668789,58.3215755 413.590711,60.8244288 C414.513236,63.3272821 415.400766,66.2880538 418.029571,66.2880538 C420.657772,66.2880538 423.314934,65.9942277 423.314934,65.9942277 L420.829124,71.6871082 C420.829124,71.6871082 429.829928,73.1834886 433.387292,72.404494 C436.944051,71.6249071 438.935716,68.1031408 438.935716,68.1031408 Z"/>
    <path fill="#B06A37" d="M426.800921,55.8034386 C426.800921,55.8034386 428.919893,52.2105853 430.816831,52.0050255 C434.45082,51.6116777 433.445636,55.7323516 432.569569,56.8792212 C431.692898,58.0260908 430.770977,58.7819821 430.770977,58.7819821 L435.119937,62.1894168 L437.676943,62.4198571 C437.676943,62.4198571 438.073949,60.014156 438.887267,56.8513788 C439.96606,52.6578408 442.911625,48.8226995 441.228273,43.6386832 C439.065256,36.9760582 433.825747,37.6940364 433.825747,37.6940364 L432.206351,35.7367755 L423.562731,32.4247158 L421.472116,35.3748245 L415.047625,35.6615418 L416.360518,38.0636886 C416.360518,38.0636886 408.30758,40.3888245 411.250731,41.1091723 C414.193882,41.8301125 414.718194,44.0219603 414.718194,44.0219603 C414.718194,44.0219603 416.457055,43.2719929 417.091178,43.116194 C418.25987,42.8294766 422.348183,45.6966505 422.348183,45.6966505 C422.348183,45.6966505 426.241613,43.350781 425.950194,44.4976505 C425.657569,45.6445201 427.173189,50.3321125 427.173189,50.3321125 L426.800921,55.8034386 Z"/>
    <path fill="#ECBC9A" d="M126.367607,34.898838 C126.367607,34.898838 128.930646,36.0095717 129.83688,38.0302185 C130.743718,40.0502728 131.644523,44.6460446 131.33259,49.9212891 C131.211316,51.963262 129.581059,61.1263707 128.148702,62.1944522 C126.739875,63.244762 123.586154,64.416512 121.893149,63.252463 L121.742914,70.2255011 L105.582735,63.2649033 C105.582735,63.2649033 108.076389,54.1681424 107.051294,40.3861587 C106.648858,34.9823652 115.614065,31.4694848 119.984746,32.6667076 C124.355428,33.8639304 126.367607,34.898838 126.367607,34.898838"/>
    <path fill="#1D1D1B" d="M116.76876,47.493788 C116.76876,47.493788 114.801832,46.2776087 113.666324,47.853962 C112.531419,49.4309076 112.233966,52.3822011 112.800514,53.1505326 C113.365855,53.9188641 113.767687,55.0497391 113.767687,55.0497391 L110.367799,59.3031087 L106.421877,58.791875 C106.421877,58.791875 102.094034,48.5440978 104.019933,42.4318043 C105.220603,38.6221359 106.187173,35.2697935 111.290927,32.8445435 C116.394078,30.4192935 119.907397,31.1799239 122.410101,32.4861467 C124.912201,33.7917772 128.003173,35.2265489 129.116961,35.7715489 C130.721877,36.5564674 131.835665,39.242962 130.511911,39.6440109 L129.130235,40.0717174 L126.401877,38.7554239 L127.346123,41.024875 L122.918726,39.7464946 C122.918726,39.7464946 119.147777,41.5236685 121.007911,44.979087 C121.514123,45.9198043 119.868782,51.7086522 119.868782,51.7086522 L118.491933,51.7572283 L116.76876,47.493788 Z"/>
    <path fill="#A6876F" d="M117.337902,57.0741772 C117.337902,57.0741772 119.00255,61.4371391 122.717388,62.6527261 C124.527444,63.244525 127.458527,62.6776065 127.458527,62.6776065 C127.458527,62.6776065 124.691555,64.6710033 122.120069,63.7575359 L121.627734,67.5891228 C121.627734,67.5891228 119.762773,64.5246826 118.846282,62.7018946 C117.929187,60.8785141 117.337902,57.0741772 117.337902,57.0741772"/>
    <path fill="#883523" d="M402.905468,194.468144 C402.905468,194.468144 404.043993,198.018345 403.359189,198.884421 C402.674384,199.750497 401.706608,201.708943 399.276909,202.25572 C394.275725,203.381264 376.613803,200.408644 374.313222,199.145666 C372.012641,197.88328 371.660887,194.856753 373.221155,192.792269 C374.78082,190.728378 378.300775,190.88003 378.300775,190.88003 L388.461826,191.414367 L402.905468,194.468144 Z"/>
    <path fill="#E85740" d="M402.973225,192.665853 C402.973225,192.665853 404.11175,196.216054 403.426945,197.08213 C402.742141,197.948206 401.774364,199.906652 399.344666,200.453429 C394.343482,201.578972 376.68156,198.60576 374.380979,197.343374 C372.080398,196.080989 371.638744,194.283673 373.199012,192.219782 C374.758677,190.155298 377.447817,190.678972 377.447817,190.678972 L390.218968,189.197994 L402.973225,192.665853 Z"/>
    <polygon fill="#ECF0F3" points="386.83 192.955 385.221 195.521 384.215 192.165 381.601 195.127 380.595 192.362 377.578 195.127 380.394 190.19 381.4 191.177 384.014 190.19 384.014 190.98 386.83 190.585"/>
    <path fill="#5EBBA3" d="M315.835989,95.8066755 C315.835989,95.8066755 310.326179,95.9156755 306.126849,92.7434201 C301.92752,89.5711647 302.300994,88.3301049 303.594581,83.6093386 C304.887564,78.8879799 307.33838,79.0313386 309.367453,78.5017408 C311.397128,77.9721429 319.215363,81.5975777 319.215363,81.5975777 L319.111587,82.6313005 C319.111587,82.6313005 311.001933,79.931181 309.874268,80.6302027 C308.746,81.3286321 306.204078,82.4980125 306.018849,84.4641592 C305.83362,86.430306 305.324994,88.8229745 306.48343,90.6736049 C307.642469,92.5236429 314.927341,94.7326701 314.927341,94.7326701 L315.835989,95.8066755 Z"/>
    <path fill="#1D1D1B" d="M314.116677 97.020663C314.116677 97.020663 315.557482 101.018712 320.419292 100.865283 325.281705 100.711853 329.610152 99.1420163 328.426375 94.9893533 327.242599 90.8360978 324.752565 90.6003261 320.206308 90.9107391 315.660655 91.2211522 314.236141 93.818788 314.116677 97.020663M317.489354 81.8331125C317.489354 81.8331125 317.631142 86.0716723 322.313153 87.3690092 326.994561 88.6669386 331.604773 88.4554549 331.755008 84.1452158 331.905846 79.8349766 329.604661 78.871156 325.176058 77.8172918 320.746851 76.7634277 318.589868 78.8172484 317.489354 81.8331125"/>
    <path stroke="#5EBBA3" stroke-width=".508" d="M318.889855 84.0834886C318.284089 82.776081 318.394503 82.5788147 319.429251 81.3063582 320.463397 80.0339016 323.039709 80.0167223 325.112223 80.4254723 327.185341 80.8348147 329.379732 81.3158364 329.939039 82.704994 330.49895 84.094744 330.155642 86.0093527 328.472291 86.7267386 326.788335 87.4435321 323.935084 87.2249397 322.52143 86.5531679 321.107173 85.8813962 319.495017 85.3914886 318.889855 84.0834886zM314.45196 94.5851647C315.09453 93.2137788 316.852094 92.5277897 319.296273 92.095344 321.740451 91.6628984 323.858217 91.5983277 325.647155 92.4347842 327.618306 93.3559527 328.257859 95.0341973 328.567379 96.4701538"/>
    <path fill="#1D1D1B" d="M305.421712,92.9369543 C305.573756,92.6135087 304.981265,92.0442207 305.422918,91.4299109 C305.863969,90.8156011 306.483611,90.6734272 306.483611,90.6734272 C306.483611,90.6734272 305.733645,88.344737 306.360527,85.7642804 C306.988013,83.1838239 307.310807,82.7567098 308.233332,81.968237 C309.155857,81.1791717 310.769823,80.5530141 310.769823,80.5530141 L310.896527,77.9269435 C310.896527,77.9269435 307.147902,77.4080087 305.375254,79.2888511 C303.602002,81.1708783 302.113533,83.6085685 302.380818,87.7031772 C302.648103,91.7971935 305.421712,92.9369543 305.421712,92.9369543"/>
    <polygon fill="#868C96" points="1.581 47.984 270.601 200.113 270.581 195.363 9.381 47.984"/>
    <polygon fill="#B8BEC6" points="540.617 47.984 270.56 200.113 270.58 195.362 534.981 47.984"/>
    <polygon fill="#ECF0F3" points="150.077 72.551 195.859 98.518 180.851 107.329 135.068 81.363"/>
    <path fill="#2C2E33" d="M112.63779 181.16653C112.63779 181.16653 113.448695 185.679367 114.423108 186.214297 115.397522 186.749818 118.383511 189.862835 120.791488 189.229568 127.758997 187.396117 136.317544 180.246547 137.901946 179.057617 139.996181 177.486596 138.919801 175.744373 137.298594 173.726096 135.247198 171.171112 132.428337 172.248672 132.428337 172.248672L124.601053 167.958574 112.63779 181.16653zM145.82625 192.404608C145.82625 192.404608 146.13758 196.114163 147.10415 196.662124 148.071926 197.210086 150.969826 200.156641 153.430295 199.762701 158.493021 198.951124 172.056373 190.558124 173.700507 188.535701 175.345848 186.513869 173.123099 184.932777 170.885267 183.599304 168.646831 182.266423 160.60958 184.478413 160.60958 184.478413L157.915613 188.684983 145.82625 192.404608z"/>
    <path fill="#135673" d="M135.135638 151.24994L132.300487 172.959304 131.700755 175.63869 131.710409 178.758223C131.710409 178.758223 127.327057 182.526424 124.563102 183.126516 121.799146 183.726609 117.213672 185.600342 116.071526 184.98781 114.930588 184.375277 113.004085 180.104136 113.004085 180.104136L114.002029 160.443853 113.549515 143.132995 135.135638 151.24994zM150.846923 131.888993L161.680711 137.907689 163.158923 183.100629 162.774588 186.063178 163.838901 190.171411C163.838901 190.171411 160.965135 192.388732 159.460375 192.388732 157.956219 192.388732 150.092733 198.989156 145.488554 194.085341 144.417001 192.94321 144.910543 188.71946 144.910543 188.71946L142.785537 185.133716 142.319146 142.688879 150.846923 131.888993z"/>
    <path fill="#2C2E33" d="M161.995962,149.703562 C161.995962,149.703562 160.633593,150.294176 159.089012,149.969546 C157.424364,149.620035 155.491225,149.348127 154.644118,149.726665 C153.252789,150.349268 124.731135,167.535133 120.519135,167.774459 C116.307135,168.014377 85.5325654,152.753785 85.9609453,149.802491 C86.3881184,146.851198 123.511761,127.88816 123.511761,127.88816 L161.995962,149.703562 Z"/>
    <path fill="#135673" d="M96.277781,139.015342 L128.826206,118.831978 C128.826206,118.831978 131.972686,121.001907 135.530653,123.34363 C136.360865,123.890407 136.53644,128.280027 136.53644,128.280027 C136.53644,128.280027 141.207591,126.990983 142.181401,126.869543 L161.68053,137.90757 C161.652775,138.521287 161.570116,138.893902 161.570116,138.893902 C161.570116,138.893902 131.809178,155.284184 128.221647,156.502733 C121.986608,158.620532 107.546585,154.019429 102.992485,151.526646 C98.4389877,149.033864 96.277781,139.015342 96.277781,139.015342"/>
    <path fill="#EC6D54" d="M140.024901,98.2167011 L132.062465,102.578478 L129.395649,103.330223 C129.395649,103.330223 126.840454,122.088886 132.417839,134.001283 C134.363649,138.158092 126.162889,147.429609 120.959582,148.27969 C110.644074,149.964451 93.6560961,145.291076 93.6560961,145.291076 L84.2226883,114.118853 C84.2226883,114.118853 83.9747106,92.6867283 84.0024648,92.4693207 C84.3602525,89.6921902 85.8004536,69.8684076 90.8668,65.9402609 C94.9496827,62.7745217 106.675828,65.004875 106.675828,65.004875 L119.240632,69.3707989 C119.240632,69.3707989 132.837169,72.160962 135.663269,78.0641413 C137.392476,81.6765435 142.806353,96.2416685 142.806353,96.2416685 L140.024901,98.2167011 Z"/>
    <path fill="#2C2E33" d="M105.695683,109.6431 C104.881158,106.496317 63.8429676,88.7299098 64.9308112,91.4365457 C66.0180514,94.1431815 86.6526883,150.536464 86.6526883,150.536464 L119.904018,163.170393 C119.904018,163.170393 106.510811,112.789883 105.695683,109.6431"/>
    <polygon fill="#2C2E33" points="127.951 182.409 157.604 203.322 158.244 207.223 125.525 185.959 106.942 212.422 104.658 212.422 120.441 184.867 89.223 192.162 90.511 189.524 122.626 179.6 142.677 179.6 142.721 183.036"/>
    <path fill="#2C2E33" d="M152.849689 206.851136C152.849689 208.772261 154.435902 210.329658 156.392572 210.329658 158.349242 210.329658 159.935455 208.772261 159.935455 206.851136 159.935455 204.930011 158.349242 203.372022 156.392572 203.372022 154.435902 203.372022 152.849689 204.930011 152.849689 206.851136M102.307741 214.500982C102.307741 216.422699 103.893953 217.980096 105.850623 217.980096 107.807294 217.980096 109.393506 216.422699 109.393506 214.500982 109.393506 212.579857 107.807294 211.02246 105.850623 211.02246 103.893953 211.02246 102.307741 212.579857 102.307741 214.500982M87.9845877 194.278993C87.9845877 196.200118 89.5708 197.758108 91.5274704 197.758108 93.4841408 197.758108 95.0709564 196.200118 95.0709564 194.278993 95.0709564 192.357868 93.4841408 190.799879 91.5274704 190.799879 89.5708 190.799879 87.9845877 192.357868 87.9845877 194.278993"/>
    <path fill="#EC6D54" d="M122.530047,73.6903386 C122.530047,73.6903386 123.188907,73.0280451 122.160192,71.9581864 C119.084304,68.7604582 126.147142,70.080306 125.721779,69.7615995 C125.296416,69.4428929 119.025779,65.5876103 116.755969,65.2600179 C110.277175,64.3234473 104.794516,61.5498712 102.825175,60.7151918 C101.709578,60.2424636 104.195388,62.4360886 100.1656,65.3784962 C98.8321922,66.3517951 98.8418458,68.3890288 98.8418458,68.3890288 L108.403164,73.5321701 L122.530047,73.6903386 Z"/>
    <path fill="#B8BEC6" d="M180.679298,67.7039283 L197.085041,77.1330207 C198.429913,77.9066837 198.405175,79.823662 197.03979,80.5623739 L189.671053,84.5799717 C188.103544,85.6338359 186.534829,85.6338359 185.049377,84.8234446 L168.955566,75.504537 C167.610695,74.7314663 167.758516,73.5691946 169.123298,72.8304826 L178.694874,67.6790478 C179.314516,67.343162 180.068706,67.3526402 180.679298,67.7039283"/>
    <polygon fill="#868C96" points="154.529 55.142 210.891 86.722 210.87 33.198 154.509 1.618"/>
    <polygon fill="#ECF0F3" points="157.546 46.453 207.472 74.282 207.451 35.568 157.526 7.739"/>
    <polygon fill="#3C3C3B" points="194.081 65.271 205.392 71.478 205.372 37.206 194.06 31"/>
    <polygon fill="#868C96" points="159.238 13.659 163.131 15.8 163.11 14.777 159.217 12.636"/>
    <polygon fill="#D470A8" points="194.735 40.447 204.34 45.694 204.325 44.914 194.72 39.666"/>
    <polygon fill="#ECF0F3" points="194.735 38.545 204.34 43.793 204.325 43.013 194.72 37.765"/>
    <polygon fill="#ECF0F3" points="194.733 45.42 204.338 50.668 204.323 49.887 194.718 44.639"/>
    <polygon fill="#F7BB40" points="194.733 47.378 204.338 52.625 204.323 51.845 194.718 46.597"/>
    <polygon fill="#F7BB40" points="194.733 49.095 204.338 54.343 204.323 53.563 194.718 48.315"/>
    <polygon fill="#4DC1EB" points="194.733 50.971 204.338 56.219 204.323 55.438 194.718 50.19"/>
    <polygon fill="#ECF0F3" points="194.729 56.497 204.334 61.745 204.319 60.964 194.714 55.716"/>
    <polygon fill="#EC6D54" points="194.729 58.546 204.334 63.794 204.319 63.013 194.714 57.765"/>
    <polygon fill="#868C96" points="159.238 15.806 191.817 33.713 191.797 32.69 159.217 14.783"/>
    <polygon fill="#868C96" points="159.238 17.954 191.817 35.86 191.797 34.837 159.217 16.931"/>
    <polygon fill="#868C96" points="159.238 20.101 191.817 38.007 191.797 36.984 159.217 19.078"/>
    <polygon fill="#868C96" points="159.238 22.249 191.817 40.155 191.797 39.132 159.217 21.226"/>
    <polygon fill="#868C96" points="159.238 24.396 163.947 26.936 163.927 25.913 159.217 23.373"/>
    <polygon fill="#868C96" points="159.238 26.543 191.817 44.45 191.797 43.427 159.217 25.52"/>
    <polygon fill="#868C96" points="159.238 28.691 191.817 46.597 191.797 45.574 159.217 27.668"/>
    <polygon fill="#868C96" points="159.238 30.838 191.817 48.745 191.797 47.721 159.217 29.815"/>
    <polygon fill="#868C96" points="159.238 32.986 191.817 50.892 191.797 49.869 159.217 31.963"/>
    <polygon fill="#868C96" points="159.238 35.133 181.796 47.448 181.775 46.425 159.217 34.11"/>
    <polygon fill="#868C96" points="159.238 37.281 191.817 55.187 191.797 54.164 159.217 36.257"/>
    <polygon fill="#868C96" points="159.238 39.428 191.817 57.334 191.797 56.311 159.217 38.405"/>
    <polygon fill="#868C96" points="159.238 41.575 161.081 42.561 161.061 41.537 159.217 40.552"/>
    <polygon fill="#868C96" points="159.238 43.723 191.817 61.629 191.797 60.606 159.217 42.7"/>
    <polygon fill="#B8BEC6" points="213.831 84.93 210.855 86.712 210.855 33.235 213.831 31.451"/>
    <polygon fill="#B8BEC6" points="157.572 0 213.812 31.495 210.87 33.199 154.63 1.703"/>
    <polygon fill="#ECF0F3" points="385.132 72.993 339.35 98.959 354.358 107.771 400.14 81.805"/>
    <polygon fill="#C6C6C5" points="328.384 102.166 302.84 118.227 340.094 138.387 365.638 122.326"/>
    <polygon fill="#ECF0F3" points="324.863 102.171 299.319 118.232 336.573 138.392 362.117 122.331"/>
    <polygon fill="#EC6D54" points="345.981 115.401 334.917 122.28 346.83 128.815 357.894 121.936"/>
    <polygon fill="#446FA3" points="334.517 123.102 325.465 128.698 337.378 135.233 346.43 129.637"/>
    <path fill="#B8BEC6" d="M356.508668,70.8113761 L340.103528,80.2404685 C338.758054,81.0141315 338.783394,82.9311098 340.148177,83.6698217 L347.516914,87.6874196 C349.085026,88.7412837 350.653137,88.7412837 352.13859,87.9308924 L368.2324,78.6119848 C369.577272,77.8389141 369.42945,76.6766424 368.064668,75.9379304 L358.493093,70.7864957 C357.87345,70.4506098 357.119864,70.460088 356.508668,70.8113761"/>
    <polygon fill="#868C96" points="382.658 58.249 326.297 89.83 326.317 36.306 382.679 4.725"/>
    <polygon fill="#ECF0F3" points="379.642 49.561 329.716 77.389 329.737 38.675 379.662 10.847"/>
    <polygon fill="#B8BEC6" points="323.357 88.037 326.333 89.82 326.333 36.342 323.357 34.559"/>
    <polygon fill="#B8BEC6" points="379.616 3.108 323.376 34.603 326.317 36.306 382.558 4.81"/>
    <polygon fill="#2C2E33" points="121.09 181.891 126.843 181.891 126.843 163.527 121.09 163.527"/>
    <path fill="#ECBC9A" d="M171.362096 93.8171886C171.340375 93.0405636 170.497493 90.8937375 169.041604 89.8511288 168.373694 89.3724766 165.717135 93.1839223 165.053448 92.792944 164.727035 92.6004168 167.780599 89.5561179 167.49099 89.4009114 166.768778 89.0164495 166.913582 88.817406 166.660174 88.8168136 163.686856 88.8073353 161.236644 93.9285582 161.029694 93.7686125 160.822744 93.6086668 161.421269 91.3937158 160.813091 91.0086614 159.871258 90.4133082 159.416331 91.9428625 158.870901 92.795906 158.324867 93.6495418 157.096442 98.191406 157.096442 98.191406 157.096442 98.191406 157.649113 99.5349495 155.795012 100.851835 153.940912 102.168129 144.763325 110.914194 144.763325 110.914194L141.700711 96.8916995 130.474744 103.205998C130.474744 103.205998 133.750945 116.53658 134.744063 118.165064 135.736577 119.792955 135.963437 122.438574 138.45347 122.733585 140.943504 123.028004 146.154051 122.57364 148.204241 120.914944 150.034208 119.434558 162.717269 103.864737 162.717269 103.864737L168.639772 99.3240582C168.639772 99.3240582 171.412174 95.561781 171.362096 93.8171886M138.580174 85.1216543L145.02518 85.3361C145.02518 85.3361 153.275415 80.6331054 154.550297 80.6935293 155.823973 80.7545457 159.478476 81.0862848 159.940644 81.4209859 160.403415 81.7568717 162.116331 82.6223554 161.266208 83.6785891 160.414878 84.7354152 155.751571 87.5942957 155.751571 87.5942957 155.751571 87.5942957 159.060353 87.3869587 159.355996 87.8709424 159.651035 88.3555185 158.367102 89.8909967 157.221336 90.4632467 156.075571 91.0349043 150.987504 90.6356326 150.031794 90.5900185 149.076688 90.5444043 143.220554 92.772388 143.220554 92.772388L141.723035 93.4566 138.580174 85.1216543z"/>
    <path fill="#C64A35" d="M126.368753 101.423967L123.113066 85.8482223 124.65101 97.0379016 125.468552 119.600902 127.588127 127.029489 129.39577 103.330282C129.39577 103.330282 142.501781 96.8560375 137.151859 99.1711027 131.802541 101.485576 126.368753 101.423967 126.368753 101.423967M103.291747 65.4248804C103.291747 65.4248804 108.054608 68.1469185 111.45872 69.0218804 114.863435 69.8968424 121.742854 70.2256196 121.742854 70.2256196L124.794608 70.9056848C124.794608 70.9056848 121.055636 72.5945924 118.016552 72.1858424 114.977468 71.7765 110.16815 70.4827174 106.942027 68.6279402 103.715301 66.773163 103.291747 65.4248804 103.291747 65.4248804"/>
    <path fill="#FCF18D" d="M370.745723,58.8513511 L378.287622,54.4084163 C378.287622,54.4084163 377.985946,57.8146663 378.890974,59.4437424 C379.796002,61.0728185 380.550192,62.8499924 380.550192,62.8499924 L374.214997,66.7005359 C374.214997,66.7005359 372.254103,63.7385793 371.650751,62.4056989 C371.047399,61.0728185 370.745723,58.8513511 370.745723,58.8513511"/>
    <path fill="#A0C86A" d="M361.695444,63.5904815 L368.604427,59.8880359 C368.604427,59.8880359 368.302751,63.2942859 369.207779,64.923362 C370.112807,66.552438 369.358617,68.7739054 369.358617,68.7739054 L363.023421,72.6244489 C363.023421,72.6244489 362.570907,69.2181989 361.967555,67.8853185 C361.364203,66.552438 361.695444,63.5904815 361.695444,63.5904815"/>
    <path fill="#883523" d="M422.622226,183.299198 C422.622226,183.299198 421.748572,188.665671 420.655902,188.893742 C419.563835,189.121812 415.605242,190.270459 413.496527,188.966014 C407.393622,185.190111 403.590092,178.911948 402.435276,177.315454 C400.908796,175.205948 399.710539,172.63734 401.867522,171.180057 C404.597086,169.335943 407.666941,170.322274 407.666941,170.322274 L414.65074,174.156823 L422.622226,183.299198 Z"/>
    <path fill="#E85740" d="M423.378165,181.655372 C423.378165,181.655372 422.504512,187.021845 421.411841,187.249915 C420.319774,187.477986 416.361182,188.626633 414.252467,187.322187 C408.149562,183.546285 404.346031,177.268122 403.191216,175.671627 C401.664735,173.562122 400.466478,170.993513 402.623461,169.53623 C405.353026,167.692116 408.42288,168.678448 408.42288,168.678448 L415.406679,172.512997 L423.378165,181.655372 Z"/>
    <path fill="#3A4352" d="M410.380215 149.93726L408.330628 169.39376 408.095924 172.127054 407.146248 175.10382C407.146248 175.10382 410.197399 179.977423 412.656661 181.354141 415.116527 182.730266 418.931522 185.852168 420.206404 185.599217 421.481287 185.345081 424.60846 181.825684 424.60846 181.825684L427.796572 168.41513 433.44636 148.456282 410.380215 149.93726zM380.289785 138.202581L367.970545 145.138298 383.750009 183.187592 384.797428 190.513695 386.649718 193.701945C386.649718 193.701945 389.169316 197.011043 390.561853 196.454195 391.954992 195.896162 401.554322 200.344429 403.932735 194.09707 404.486009 192.642157 401.749808 185.737836 401.749808 185.737836L401.214635 178.748804 387.563193 143.169782 380.289785 138.202581z"/>
    <path fill="#2C2E33" d="M378.741343,151.124946 C378.741343,151.124946 380.103712,151.71556 381.648293,151.390929 C383.313544,151.041418 385.24608,150.769511 386.093187,151.148641 C387.484516,151.770652 416.006773,168.956516 420.21817,169.195842 C424.430773,169.435761 455.20474,154.175168 454.776963,151.223875 C454.349187,148.273174 417.226147,129.309543 417.226147,129.309543 L378.741343,151.124946 Z"/>
    <path fill="#3A4352" d="M444.460127,140.436726 L404.892306,129.646318 C404.892306,129.646318 402.236351,128.751807 398.421356,127.952671 L378.922228,138.991291 C379.085133,139.943264 379.167792,140.315285 379.167792,140.315285 C379.167792,140.315285 408.928731,156.705568 412.515658,157.924117 C418.751301,160.042508 433.191323,155.441405 437.74482,152.94803 C442.298921,150.455247 444.460127,140.436726 444.460127,140.436726"/>
    <path fill="#EDCBB4" d="M376.524145,98.1845935 C376.524145,98.1845935 374.332771,95.5247565 373.65943,94.7647185 C372.986693,94.004088 372.394201,92.6860174 371.459609,93.2920337 C369.963899,94.2623707 371.438492,95.1859087 371.202581,95.2718054 C370.582335,95.4980989 368.953888,93.2310174 368.80486,93.3880011 C368.625665,93.5775663 371.311788,92.1250228 368.189441,90.9420174 C367.952927,90.8525663 365.470737,91.3869033 364.817307,91.8762185 C364.554849,92.0734848 364.095095,92.6735772 363.803073,92.9134957 C363.208771,93.3998489 363.673352,94.0716207 363.088101,94.6450554 C361.813218,95.8955935 362.352011,96.3623978 362.452168,97.1330989 C362.676615,98.8640663 365.295765,101.049398 365.295765,101.049398 L371.860838,104.639882 L376.524145,98.1845935 Z"/>
    <path fill="#00AAD6" d="M453.187553,72.47955 C449.686302,68.702463 438.662458,71.4280554 438.662458,71.4280554 L424.624872,71.3172783 C424.624872,71.3172783 415.703106,74.8171261 411.933363,80.188338 C410.088313,82.8173707 405.790034,88.6192511 401.164134,95.530088 L397.173564,101.545822 L378.438279,98.6899033 L376.225788,97.307262 C376.225788,97.307262 371.398369,97.7847293 369.245006,99.6495772 C367.092246,101.513833 369.18648,104.613816 369.18648,104.613816 L377.834927,110.142604 C379.081453,111.71955 396.289654,114.565398 396.289654,114.565398 C396.289654,114.565398 400.657318,116.013795 403.487039,115.3983 C406.317363,114.783398 412.627821,107.377914 412.627821,107.377914 C412.627821,107.377914 413.900894,122.998088 407.670682,132.415333 C405.13238,136.251659 408.071911,140.595664 412.959061,144.423104 C419.790816,149.774175 438.662458,147.863121 438.662458,147.863121 L451.734682,121.076963 C451.734682,121.076963 454.661542,99.6661641 454.847374,99.787012 C455.949698,100.502028 457.533497,77.1677348 453.187553,72.47955"/>
    <polygon fill="#2C2E33" points="412.786 181.462 383.134 202.374 382.494 206.275 415.212 185.011 433.795 211.475 436.08 211.475 420.296 183.919 451.514 191.214 450.226 188.576 418.111 178.652 401.214 178.749 401.306 181.867"/>
    <path fill="#2C2E33" d="M387.888219 205.902955C387.888219 207.82408 386.302007 209.382069 384.345336 209.382069 382.388666 209.382069 380.80185 207.82408 380.80185 205.902955 380.80185 203.98183 382.388666 202.423841 384.345336 202.423841 386.302007 202.423841 387.888219 203.98183 387.888219 205.902955M438.430168 213.5528C438.430168 215.474517 436.843955 217.031914 434.887285 217.031914 432.930011 217.031914 431.343799 215.474517 431.343799 213.5528 431.343799 211.631675 432.930011 210.074278 434.887285 210.074278 436.843955 210.074278 438.430168 211.631675 438.430168 213.5528M452.753321 193.330812C452.753321 195.251937 451.166505 196.809926 449.209835 196.809926 447.253164 196.809926 445.666952 195.251937 445.666952 193.330812 445.666952 191.409687 447.253164 189.851698 449.209835 189.851698 451.166505 189.851698 452.753321 191.409687 452.753321 193.330812"/>
    <path fill="#00AAD6" d="M419.901832,76.1741761 C419.901832,76.1741761 416.566503,74.684312 417.269408,73.3851978 C417.972313,72.0860837 417.601251,70.4724098 418.073676,70.225975 C418.546704,69.9795402 420.103352,68.2017739 422.246458,69.0080185 C429.165698,71.6139478 440.605855,72.4190076 438.132715,65.9601652 C437.825006,65.1568826 450.955151,66.6337141 451.057117,67.2640185 C451.316559,68.8753228 453.068089,79.7042359 453.068089,79.7042359 L432.302525,76.0219315 L419.901832,76.1741761 Z"/>
    <polygon fill="#2C2E33" points="413.21 180.154 418.963 180.154 418.963 164.752 413.21 164.752"/>
    <path fill="#287894" d="M440.350396,66.3094391 C440.350396,66.3094391 449.649256,66.8686565 448.442552,68.0534391 C447.235848,69.2382217 444.636608,74.3985424 439.005524,75.97845 C433.37444,77.5577652 420.50253,69.264287 420.50253,69.264287 C420.50253,69.264287 425.565256,70.0326185 429.587803,70.7192 C436.082284,71.8287489 440.350396,66.3094391 440.350396,66.3094391"/>
    <path fill="#287894" d="M419.883551,70.6208038 C419.883551,70.6208038 435.940556,87.1248255 440.068691,88.6543799 C450.728109,92.6038527 453.067908,79.7039397 453.067908,79.7039397 C453.067908,79.7039397 452.14116,86.5122929 450.989361,90.7704016 C449.004333,98.1071679 435.160422,97.3216571 431.591596,89.2189288 C428.531998,82.2713636 419.883551,70.6208038 419.883551,70.6208038"/>
    <path fill="#2C2E33" d="M431.403832,107.535016 C431.872034,104.320701 470.74781,87.3824565 469.960436,90.1874293 C469.173061,92.9929946 454.777084,151.223875 454.777084,151.223875 L423.086626,162.24413 C423.086626,162.24413 430.935631,110.748739 431.403832,107.535016"/>
    <polygon fill="#287894" points="411.019 107.773 419.064 98.295 412.673 110.665 403.846 115.303"/>
    <path fill="#E85740" d="M398.716154,69.83085 C398.716154,69.83085 393.38916,68.6194098 392.099797,68.9511489 C390.811037,69.2822957 389.737674,70.2236054 389.540981,70.7656435 C388.829629,72.7199424 390.962478,73.2785674 393.521897,74.534437 C396.081316,75.7914913 399.066702,75.093062 399.066702,75.093062 L398.716154,69.83085 Z"/>
    <path fill="#EDCBB4" d="M401.091853,77.4983484 C401.091853,77.4983484 398.599406,76.3680658 397.614735,76.0831255 C396.630065,75.7987777 393.129417,73.3202125 393.735182,72.9310114 C394.340947,72.5418103 397.441573,73.0494897 397.408992,72.7929842 C397.006556,69.6337614 392.410221,71.2622451 392.280501,70.2753212 C392.15078,69.2883973 393.302579,66.5355549 394.999204,66.0154353 C396.696434,65.4959082 399.07364,66.2820114 399.07364,66.2820114 L405.130691,70.6491201 L401.091853,77.4983484 Z"/>
    <path fill="#00AAD6" d="M423.516635,76.4350652 C421.130378,75.2443587 406.482802,70.3630543 406.482802,70.3630543 C406.482802,70.3630543 403.957774,69.8915109 402.588769,72.3694837 C401.220366,74.8474565 401.091853,77.4984076 401.091853,77.4984076 L410.960277,88.5115543 L426.196724,79.5267554 L423.516635,76.4350652 Z"/>
    <path fill="#1D1D1B" d="M349.469361,110.851638 L309.835774,101.139974 C309.835774,101.139974 296.449204,120.960203 296.510143,120.73154 L339.613607,132.647491 L349.469361,110.851638 Z"/>
    <path fill="#6F6F6E" d="M346.795486,111.564936 C346.795486,111.564936 313.99667,103.894653 311.938034,103.233545 L300.826704,120.348914 L337.924402,130.567072 L346.795486,111.564936 Z"/>
    <polygon fill="#FFF" points="302.082 115.556 316.812 109.677 318.806 109.353 317.679 110.612 302.561 116.713"/>
    <path stroke="#5EBBA3" stroke-width=".508" d="M328.991294,95.3088299 C332.909461,94.6571995 335.043517,92.5139277 337.712746,89.6615636 C339.24707,88.0218245 344.957193,83.9390636 345.147249,89.1722484 C345.294467,93.1993245 339.160188,91.9250908 340.478512,87.7635418 C341.985685,83.0036777 347.312076,86.4105201 350.097752,86.1214332 C356.824523,85.424781 357.9184,78.3984277 362.911137,75.8576614 C364.51183,75.0431234 367.896635,74.2487266 367.96602,76.5418734 C368.058936,79.6199386 363.936836,78.4949875 362.326489,78.2633625 C354.837685,77.1881723 349.512501,81.3005527 343.418646,84.7186505 C339.490221,86.9211614 336.411316,85.6795092 335.254087,90.5696995 C334.767182,92.6270745 334.4824,95.1382212 333.41326,96.9971451 C332.446087,98.6795364 330.967272,98.8987212 331.266534,101.185944 C331.909104,106.111678 338.03735,101.748123 340.365685,100.055069"/>
    <polygon fill="#6597D0" points="354.19 108.195 339.865 103.626 337.435 103.388 338.757 104.544 353.569 109.112"/>
    <polygon fill="#1D1D1B" points="351.043 105.515 336.718 100.947 334.287 100.709 335.61 101.865 350.421 106.433"/>
    <path fill="#7BCAEC" d="M389.366552,58.2898826 C387.608988,57.3313935 387.606574,55.7580022 389.361122,54.7746326 C391.116876,53.7906707 393.968921,53.7693446 395.729502,54.7278337 C397.491289,55.6875076 397.493099,57.2632685 395.733122,58.2472304 C393.974954,59.2300076 391.12472,59.2489641 389.366552,58.2898826"/>
    <polygon fill="#7BCAEC" points="397.029 56.851 388.033 56.851 387.16 45.747 397.923 45.711"/>
    <path fill="#C99D66" d="M388.935276,48.01995 C386.939388,46.9317272 386.936371,45.1444826 388.929846,44.027825 C390.923924,42.9099826 394.162114,42.8856946 396.162226,43.9751022 C398.162941,45.0645098 398.164147,46.8541239 396.165846,47.9713739 C394.169354,49.0874391 390.932371,49.1087652 388.935276,48.01995"/>
    <path stroke="#7BCAEC" stroke-width=".508" d="M388.935276,48.01995 C386.939388,46.9317272 386.936371,45.1444826 388.929846,44.027825 C390.923924,42.9099826 394.162114,42.8856946 396.162226,43.9751022 C398.162941,45.0645098 398.164147,46.8541239 396.165846,47.9713739 C394.169354,49.0874391 390.932371,49.1087652 388.935276,48.01995 Z"/>
    <path fill="#7BCAEC" d="M397.48236,48.390787 C397.48236,48.390787 398.611231,47.6040913 399.326203,47.9032489 C400.040572,48.2018141 400.663835,48.360575 400.63608,50.2248304 C400.607723,52.0890859 400.184773,53.1008902 399.174762,53.5771728 C398.163544,54.0540478 396.561645,53.2507652 396.561645,53.2507652 L396.825913,52.1809065 C396.825913,52.1809065 397.054583,52.9024391 398.199142,52.2632489 C399.344907,51.6240587 399.538583,49.8913141 399.116237,49.488488 C398.693891,49.0850696 397.016572,49.7047109 397.016572,49.7047109 L397.48236,48.390787 Z"/>
    <g transform="translate(139.711 42.744)">
      <path fill="#ECECEC" d="M2.56720223,19.299694 C0.962286034,18.4241397 0.959872626,16.9875908 2.56237542,16.0895255 C4.16608492,15.1902755 6.77015196,15.1707266 8.37868827,16.0468734 C9.98782793,16.9230201 9.98903464,18.3619386 8.38170503,19.2605962 C6.77618547,20.158069 4.17272179,20.1752484 2.56720223,19.299694"/>
      <polygon fill="#ECECEC" points="9.565 17.986 1.349 17.986 .085 2.737 10.849 2.702"/>
      <path fill="#D9D9D9" d="M2.9430905,17.7579364 C1.54693408,16.9961212 1.54512402,15.7461755 2.93886704,14.964219 C4.33502346,14.1816701 6.60061006,14.1650832 8.00098994,14.9274908 C9.40076648,15.689306 9.40197318,16.9422136 8.00340335,17.7235777 C6.60543687,18.5049418 4.34045363,18.520344 2.9430905,17.7579364"/>
      <polygon fill="#D9D9D9" points="9.033 16.615 1.883 16.615 1.357 8.789 9.576 8.757"/>
      <path fill="#D9D9D9" d="M1.86073743,5.01026793 C-0.135150838,3.92204511 -0.138167598,2.13480054 1.85470391,1.01814293 C3.84938547,-0.0991070652 7.08757542,-0.1239875 9.08768715,0.965420109 C11.0877989,2.05482772 11.0896089,3.84444185 9.09070391,4.96169185 C7.09421229,6.07775707 3.85722905,6.09908315 1.86073743,5.01026793"/>
      <path stroke="#ECECEC" stroke-width=".508" d="M1.86073743,5.01026793 C-0.135150838,3.92204511 -0.138167598,2.13480054 1.85470391,1.01814293 C3.84938547,-0.0991070652 7.08757542,-0.1239875 9.08768715,0.965420109 C11.0877989,2.05482772 11.0896089,3.84444185 9.09070391,4.96169185 C7.09421229,6.07775707 3.85722905,6.09908315 1.86073743,5.01026793 Z"/>
      <path fill="#F6F6F6" d="M2.60841117,10.5161897 C1.0270257,9.65366793 1.02461229,8.23785272 2.60358436,7.3534125 C4.18376313,6.4677875 6.74981899,6.44823859 8.33422123,7.31135272 C9.91983017,8.17446685 9.92103687,9.59265163 8.33723799,10.4776842 C6.75524916,11.3621245 4.1904,11.3793038 2.60841117,10.5161897"/>
    </g>
    <polygon fill="#ECF0F3" points="407.122 174.337 405.852 173.883 406.66 172.75 404.465 172.183 408.046 170.368 407.7 171.956 408.096 172.128"/>
    <path fill="#7BCAEC" d="M194.212845,104.150448 L209.29604,112.69747 C210.682543,113.48298 210.697627,115.442611 209.324398,116.248855 L193.946163,125.277491 C193.293336,125.660768 192.479415,125.666692 191.820554,125.293486 L176.737359,116.747057 C175.350856,115.960953 175.335772,114.001915 176.709604,113.195078 L192.088442,104.166442 C192.741269,103.783165 193.553984,103.777241 194.212845,104.150448"/>
    <path fill="#5B5E67" d="M185.77358,115.924817 C185.23177,114.790388 187.035189,113.082524 188.927301,111.54823 C190.649267,110.151964 193.318496,110.583817 194.546921,110.756203 C195.775345,110.928589 198.650317,111.45641 199.109468,112.478877 C199.568016,113.501937 199.285044,114.546323 197.529893,115.40766 C195.775345,116.269589 193.143524,118.508828 189.984373,118.336442 C186.826429,118.164649 186.314787,117.059247 185.77358,115.924817"/>
    <path fill="#868C96" d="M185.57206,115.332426 C185.030854,114.197997 186.834273,112.490133 188.725781,110.955839 C190.447747,109.559573 193.11758,109.991426 194.346004,110.163812 C195.573826,110.336198 198.449401,110.864018 198.908552,111.886486 C199.367099,112.909546 199.083524,113.953932 197.328373,114.815268 C195.573826,115.677198 192.942004,117.916437 189.783457,117.744051 C186.624909,117.572258 186.11387,116.466855 185.57206,115.332426"/>
    <path stroke="#ECECEC" stroke-width=".508" d="M197.138317,115.124437 C197.138317,115.124437 197.217356,112.80878 195.565982,111.41903 C193.914608,110.02928 191.241759,109.875258 191.241759,109.875258"/>
    <path fill="#2C2E33" d="M192.857113,110.241297 C192.857113,110.241297 191.851928,110.636422 191.399415,110.882857 C190.946901,111.129884 190.946901,111.376911 190.946901,111.376911 L191.751169,111.870373 L193.712063,110.537492 L192.857113,110.241297 Z"/>
    <path fill="#868C96" d="M160.54478,114.157181 L176.732713,110.488502 C177.40183,110.336849 178.093875,110.628898 178.442612,111.209442 L181.142612,115.709246 C181.677785,116.60198 181.184244,117.748849 180.159752,117.994692 L163.767283,121.919877 C163.060758,122.088708 162.328288,121.760523 161.995238,121.126072 L159.500378,116.370355 C159.029763,115.474659 159.545026,114.383474 160.54478,114.157181"/>
    <path fill="#1D1D1B" d="M160.54478,113.338318 L176.732713,109.669639 C177.40183,109.517987 178.093875,109.810036 178.442612,110.390579 L181.142612,114.890384 C181.677785,115.783117 181.184244,116.929987 180.159752,117.175829 L163.767283,121.101014 C163.060758,121.269846 162.328288,120.941661 161.995238,120.30721 L159.500378,115.551492 C159.029763,114.655797 159.545026,113.564612 160.54478,113.338318"/>
    <polygon fill="#F6F6F6" points="162.286 113.443 165.544 120.008 179.433 116.762 175.758 110.34"/>
    <polygon fill="#243985" points="171.036 111.773 174.17 117.62 177.635 116.812 174.427 111.012"/>
    <polygon fill="#C6C6C5" points="167.066 112.695 170.208 118.564 173.628 117.665 170.523 111.865"/>
    <polygon fill="#BD1622" points="163.09 113.558 166.245 119.463 169.65 118.648 166.491 112.798"/>
    <polygon fill="#9C9B9B" points="174.719 110.965 175.071 111.582 175.942 111.356 175.572 110.762"/>
    <polygon fill="#C6C6C5" points="177.546 116.083 177.898 116.699 178.768 116.474 178.398 115.88"/>
    <polygon fill="#C6C6C5" points="173.762 111.45 174.837 113.331 175.299 113.235 174.205 111.376"/>
    <polygon fill="#C6C6C5" points="173.02 114.323 174.562 117.182 175.913 116.856 174.354 114.02"/>
    <polygon fill="#C6C6C5" points="165.885 113.155 167.333 115.856 167.795 115.759 166.328 113.081"/>
    <polygon fill="#C6C6C5" points="164.952 115.57 166.401 118.27 166.862 118.174 165.394 115.496"/>
    <polygon fill="#C6C6C5" points="165.651 115.424 167.1 118.125 167.562 118.028 166.094 115.35"/>
    <polygon fill="#6F6F6E" points="169.864 112.303 170.939 114.183 171.4 114.087 170.307 112.229"/>
    <polygon fill="#243985" points="167.733 112.939 170.483 118.13 171.607 117.889 168.812 112.761"/>
    <polygon fill="#BD1622" points="175.167 111.721 176.238 113.544 177.109 113.318 176.019 111.518"/>
    <path fill="#5B5E67" d="M200.592809,87.2262429 L217.049837,96.9610092 C217.591044,97.2791234 217.604921,98.0433082 217.076384,98.3809712 L210.374351,102.656852 C210.102239,102.830422 209.753502,102.837531 209.474753,102.674623 L192.799312,92.8812103 C192.249658,92.5607266 192.241815,91.7823245 192.785435,91.4511777 L199.705278,87.2333516 C199.976787,87.0680745 200.318887,87.0657049 200.592809,87.2262429"/>
    <path fill="#1D1D1B" d="M200.592809,86.4707071 L217.049837,96.2054734 C217.591044,96.5235875 217.604921,97.2877723 217.076384,97.6248429 L210.374351,101.901316 C210.102239,102.074886 209.753502,102.081995 209.474753,101.919088 L192.799312,92.1256745 C192.249658,91.8051908 192.241815,91.0261962 192.785435,90.6956418 L199.705278,86.4778158 C199.976787,86.3125386 200.318887,86.3095766 200.592809,86.4707071"/>
    <polygon fill="#3C3C3B" points="202.312 88.121 215.121 95.687 208.414 100.13 195.057 92.556"/>
    <path stroke="#ECF0F3" stroke-width=".508" d="M196.533759,88.3077717 C194.772574,87.066712 194.262139,84.3340109 192.283144,82.8796902 C190.177446,81.3323641 187.513647,80.6167554 185.122563,79.6031739 C183.654608,78.9805707 175.221558,77.1838478 173.902027,78.1038315 C171.265982,79.9420217 177.696507,82.9164185 179.030518,83.2872554 C181.750429,84.0437391 184.271837,82.6972337 186.724463,81.7885054 C188.80663,81.017212 190.596775,81.4988261 192.745915,81.447288 C195.688463,81.3767935 199.71282,84.014712 201.502965,81.8027228"/>
    <path fill="#3A4352" d="M408.304382,131.12309 L403.616337,124.996579 L411.933544,120.147857 C411.933544,120.147857 411.024293,127.611987 408.304382,131.12309"/>
    <polygon fill="#6597D0" points="379.642 49.561 329.716 77.389 329.737 74.814 379.662 46.985"/>
    <polygon fill="#FFF" points="341.748 59.492 331.421 65.466 331.455 43.93 341.782 37.956"/>
    <polygon fill="#243985" points="341.018 46.504 332.516 51.491 332.55 45.847 341.052 40.86"/>
    <polygon fill="#B8BEC6" points="333.63 44.741 332.516 45.427 332.55 44.264 333.664 43.578"/>
    <polygon fill="#B8BEC6" points="335.903 45.222 333.01 46.937 333.044 46.133 335.937 44.417"/>
    <polygon fill="#B8BEC6" points="340.262 46.149 336.73 48.254 336.763 46.374 340.296 44.269"/>
    <polygon fill="#B8BEC6" points="340.932 40.66 339.819 41.346 339.852 40.183 340.966 39.497"/>
    <polygon fill="#BD1622" points="337.383 42.639 333.923 44.607 333.957 43.444 337.418 41.476"/>
    <polygon fill="#ECF0F3" points="341.018 52.837 332.516 57.824 332.55 52.18 341.052 47.193"/>
    <polygon fill="#BD1622" points="341.018 59.051 332.516 64.038 332.55 58.394 341.052 53.407"/>
    <polygon fill="#868C96" points="335.903 51.63 333.01 53.345 333.044 52.541 335.937 50.825"/>
    <polygon fill="#B8BEC6" points="335.903 57.948 333.01 59.663 333.044 58.859 335.937 57.143"/>
    <polygon fill="#FFF" points="339.844 57.675 336.878 59.425 336.915 58.772 339.881 57.023"/>
    <polygon fill="#FFF" points="339.212 59.024 336.862 60.418 336.9 59.765 339.25 58.372"/>
    <polygon fill="#243985" points="340.322 52.837 335.018 55.944 335.052 54.064 340.357 50.958"/>
    <polygon fill="#BD1622" points="334.783 56.045 333.335 56.941 333.368 55.061 334.817 54.165"/>
    <path fill="#ECF0F3" d="M334.405593,59.5493065 C335.042733,59.1405565 335.569459,59.4083174 335.58213,60.1470293 C335.595403,60.8863337 335.088588,61.8181652 334.449638,62.2281 C333.811895,62.6380348 333.284565,62.3696815 333.271895,61.6291924 C333.260431,60.8887033 333.767247,59.9580565 334.405593,59.5493065"/>
    <polygon fill="#FFF" points="354.139 52.622 343.812 58.435 343.846 36.9 354.174 31.086"/>
    <polygon fill="#243985" points="353.409 39.623 344.908 44.477 344.942 38.834 353.444 33.98"/>
    <polygon fill="#B8BEC6" points="346.021 37.744 344.907 38.413 344.942 37.251 346.055 36.582"/>
    <polygon fill="#B8BEC6" points="348.294 38.261 345.401 39.931 345.436 39.127 348.329 37.457"/>
    <polygon fill="#3AAED9" points="352.653 39.256 349.121 41.306 349.155 39.427 352.687 37.376"/>
    <polygon fill="#B8BEC6" points="353.323 33.777 352.21 34.446 352.244 33.284 353.357 32.615"/>
    <polygon fill="#BD1622" points="349.775 35.701 346.315 37.615 346.348 36.452 349.809 34.539"/>
    <polygon fill="#ECF0F3" points="353.409 45.956 344.908 50.81 344.942 45.167 353.444 40.312"/>
    <polygon fill="#BD1622" points="353.409 52.169 344.908 57.024 344.942 51.38 353.444 46.526"/>
    <polygon fill="#868C96" points="348.294 44.668 345.401 46.339 345.436 45.534 348.329 43.865"/>
    <polygon fill="#B8BEC6" points="348.294 50.987 345.401 52.657 345.436 51.853 348.329 50.183"/>
    <polygon fill="#FFF" points="352.236 50.775 349.27 52.479 349.307 51.827 352.273 50.124"/>
    <polygon fill="#FFF" points="351.603 52.114 349.253 53.472 349.291 52.82 351.641 51.463"/>
    <polygon fill="#3AAED9" points="352.714 45.945 347.409 48.969 347.444 47.09 352.748 44.065"/>
    <polygon fill="#BD1622" points="347.174 49.066 345.726 49.94 345.76 48.061 347.209 47.187"/>
    <path fill="#ECF0F3" d="M346.796693,52.5647168 C347.434436,52.1660375 347.961162,52.4420918 347.973832,53.1813962 C347.986503,53.9207005 347.479687,54.844831 346.841341,55.2441027 C346.202994,55.6439668 345.675665,55.3673201 345.663598,54.626831 C345.651531,53.8863418 346.15895,52.9633962 346.796693,52.5647168"/>
    <polygon fill="#FFF" points="366.175 45.608 355.848 51.679 355.881 30.143 366.209 24.071"/>
    <polygon fill="#243985" points="365.445 32.626 356.943 37.694 356.977 32.05 365.479 26.982"/>
    <polygon fill="#B8BEC6" points="358.056 30.933 356.943 31.629 356.977 30.466 358.09 29.769"/>
    <polygon fill="#B8BEC6" points="360.33 31.392 357.437 33.135 357.471 32.33 360.364 30.588"/>
    <polygon fill="#B8BEC6" points="364.688 32.278 361.156 34.417 361.19 32.537 364.722 30.398"/>
    <polygon fill="#B8BEC6" points="365.358 26.783 364.245 27.48 364.279 26.316 365.392 25.62"/>
    <polygon fill="#BD1622" points="361.81 28.796 358.35 30.796 358.383 29.633 361.844 27.633"/>
    <polygon fill="#ECF0F3" points="365.445 38.959 356.943 44.027 356.977 38.382 365.479 33.315"/>
    <polygon fill="#BD1622" points="365.445 45.173 356.943 50.241 356.977 44.596 365.479 39.528"/>
    <polygon fill="#868C96" points="360.33 37.8 357.437 39.543 357.471 38.738 360.364 36.995"/>
    <polygon fill="#B8BEC6" points="360.33 44.118 357.437 45.861 357.471 45.056 360.364 43.313"/>
    <polygon fill="#FFF" points="364.271 43.808 361.305 45.586 361.342 44.933 364.308 43.156"/>
    <polygon fill="#FFF" points="363.639 45.163 361.289 46.58 361.327 45.927 363.676 44.51"/>
    <polygon fill="#243985" points="364.749 38.966 359.445 42.123 359.479 40.243 364.783 37.086"/>
    <polygon fill="#BD1622" points="359.21 42.226 357.762 43.136 357.795 41.256 359.244 40.346"/>
    <path fill="#6597D0" d="M358.831875,45.7339712 C359.469618,45.3192973 359.996344,45.582319 360.009015,46.321031 C360.021685,47.0603353 359.514869,47.996906 358.876523,48.4121723 C358.238177,48.8286234 357.710847,48.5650092 357.69878,47.8245201 C357.687316,47.0846234 358.194132,46.1486451 358.831875,45.7339712"/>
    <polygon fill="#FFF" points="377.714 39.166 367.387 45.237 367.421 23.701 377.748 17.629"/>
    <polygon fill="#243985" points="376.908 38.809 368.406 43.877 368.516 25.607 377.018 20.54"/>
    <polygon fill="#B8BEC6" points="369.595 24.491 368.482 25.187 368.516 24.024 369.629 23.327"/>
    <polygon fill="#B8BEC6" points="371.869 24.95 368.976 26.693 369.01 25.888 371.903 24.146"/>
    <polygon fill="#B8BEC6" points="376.897 20.341 375.784 21.038 375.818 19.874 376.931 19.178"/>
    <polygon fill="#BD1622" points="373.349 22.354 369.889 24.354 369.922 23.191 373.383 21.191"/>
    <polygon fill="#FFF" points="373.202 34.09 370.236 35.793 370.273 35.141 373.24 33.438"/>
    <polygon fill="#FFF" points="372.57 35.429 370.22 36.786 370.258 36.134 372.607 34.777"/>
    <polygon fill="#FFF" points="373.202 37.249 370.236 38.952 370.273 38.3 373.24 36.597"/>
    <polygon fill="#FFF" points="372.57 38.588 370.22 39.946 370.258 39.293 372.607 37.936"/>
    <path stroke="#E5332A" stroke-width=".508" d="M372.823908,27.0108516 C373.96907,26.2940582 374.916333,26.7898897 374.93926,28.1186234 C374.962188,29.4479495 374.051126,31.1084223 372.904154,31.8269929 C371.755975,32.5455636 370.808109,32.0485473 370.786992,30.717444 C370.765272,29.3869332 371.67754,27.7276451 372.823908,27.0108516 Z"/>
    <path fill="#ECBC9A" d="M131.064159,46.2630359 C131.064159,46.2630359 132.572539,51.9896826 132.572539,52.4831446 C132.572539,52.9766065 132.632874,53.9439815 132.069343,54.3592478 C131.667511,54.6554435 129.052583,55.2478348 129.052583,55.2478348 L131.064159,46.2630359 Z"/>
    <path fill="#A59081" d="M418.881323,66.2704005 C418.881323,66.2704005 423.11263,65.8723136 424.807446,64.510406 C426.502261,63.1490908 427.997368,61.6562647 427.997368,61.6562647 C427.997368,61.6562647 426.533636,65.8166288 425.608697,66.5731125 C424.684362,67.3295962 421.823267,68.9302375 421.823267,68.9302375 L422.217859,66.7774875 L418.881323,66.2704005 Z"/>
    <polygon fill="#413329" points="420.675 54.742 420.762 53.496 429.047 53.077 428.27 53.827"/>
    <path fill="#ECECEC" d="M411.326451,48.9510707 C411.326451,48.9510707 412.544016,50.6257609 413.233044,51.0860489 C413.922675,51.5457446 418.261379,52.8875109 418.915412,53.1777826 C419.569446,53.4680543 420.527569,53.7968315 420.527569,53.7968315 C420.527569,53.7968315 420.571613,55.12675 419.697356,56.1723207 C418.723546,57.3363696 415.503457,55.6059946 414.961044,55.0195272 C414.741423,54.7819783 414.527234,52.8371576 414.224351,52.2293641 C413.921468,51.6209783 412.846295,51.3093804 412.846295,51.3093804 L411.900239,53.6457717 C411.900239,53.6457717 410.480552,53.066413 410.727323,51.3289293 C410.973491,49.5908533 410.754474,48.8722826 411.326451,48.9510707"/>
    <path stroke="#43342A" stroke-width=".779" d="M411.326451,48.9510707 C411.326451,48.9510707 412.544016,50.6257609 413.233044,51.0860489 C413.922675,51.5457446 418.261379,52.8875109 418.915412,53.1777826 C419.569446,53.4680543 420.527569,53.7968315 420.527569,53.7968315 C420.527569,53.7968315 420.011099,55.4638207 419.136239,56.5093913 C418.162429,57.6740326 415.116708,56.5093913 414.961044,55.0195272 C414.927859,54.7002283 414.527234,52.8371576 414.224351,52.2293641 C413.921468,51.6209783 413.111166,51.7708533 413.111166,51.7708533 L411.747591,54.0225326 C411.747591,54.0225326 410.480552,53.066413 410.727323,51.3289293 C410.973491,49.5908533 410.754474,48.8722826 411.326451,48.9510707 Z"/>
    <path fill="#EDCBB4" d="M413.376943,52.2074457 C413.376943,52.2074457 411.972943,54.7760543 411.100496,55.7268424 C410.320362,56.5763315 410.363803,57.2812772 411.6592,57.8606359 C412.9552,58.4394022 415.11701,59.1680435 415.11701,59.1680435 L413.376943,52.2074457 Z"/>
  </g>
</svg>
