<svg xmlns="http://www.w3.org/2000/svg" width="540" height="230" viewBox="0 0 540 230">
  <g fill="none" fill-rule="evenodd">
    <rect width="540" height="183" y="47" fill="#2591BF"/>
    <g transform="translate(5)">
      <polygon fill="#43464E" points="343.26 47.103 265.331 91.246 187.637 47.103 6.526 47.103 174.868 142.352 264.791 193.717 525.436 47.103"/>
      <path fill="#EDCBB4" d="M430.636788,66.8535418 C430.636788,66.8535418 430.062477,66.0091723 429.487573,63.4760636 C428.913856,60.9423734 430.062477,58.4092647 430.062477,58.4092647 C430.062477,58.4092647 432.93403,46.8689658 429.487573,42.9285745 C426.042303,38.9881832 424.102818,35.8915799 418.862827,36.1730364 C413.622242,36.4550745 409.530279,36.0660364 406.371571,40.0064277 C403.212269,43.9474005 404.807642,57.2514549 405.714199,59.7083842 C406.621348,62.1653136 407.494087,65.0717592 410.079078,65.0717592 C412.663476,65.0717592 415.276352,64.7833245 415.276352,64.7833245 L412.831972,70.3717484 C412.831972,70.3717484 421.682763,71.8406723 425.180837,71.0759712 C428.678317,70.3106886 430.636788,66.8535418 430.636788,66.8535418 Z"/>
      <path fill="#B06A37" d="M418.704239,54.7795223 C418.704239,54.7795223 420.787895,51.2525929 422.653217,51.0508049 C426.22664,50.6646745 425.238208,54.7097397 424.376743,55.8355658 C423.514683,56.9613918 422.608127,57.7034136 422.608127,57.7034136 L426.884605,61.0483266 L429.398994,61.2745386 C429.398994,61.2745386 429.789383,58.9129788 430.589146,55.8082342 C431.649959,51.6916418 434.546431,47.9268701 432.891135,42.8379734 C430.764168,36.2975984 425.611985,37.0024027 425.611985,37.0024027 L424.019578,35.0810549 L415.520019,31.8297668 L413.464248,34.7257451 L407.146831,35.0072016 L408.437843,37.3652723 C408.437843,37.3652723 400.51912,39.6477451 403.413219,40.3548755 C406.307317,41.0625875 406.822891,43.2142179 406.822891,43.2142179 C406.822891,43.2142179 408.532771,42.4780114 409.156325,42.3250712 C410.305539,42.0436147 414.325714,44.8581799 414.325714,44.8581799 C414.325714,44.8581799 418.154253,42.5553538 417.867691,43.6811799 C417.579943,44.807006 419.070302,49.4085875 419.070302,49.4085875 L418.704239,54.7795223 Z"/>
      <path fill="#ECBC9A" d="M123.278147,34.2584924 C123.278147,34.2584924 125.798468,35.3488457 126.689599,37.3324163 C127.581323,39.3154054 128.467114,43.8268511 128.16038,49.0053022 C128.041128,51.0098076 126.438042,60.0047859 125.029557,61.0532696 C123.64421,62.0843076 120.543052,63.2345576 118.878263,62.0918674 L118.730532,68.9369598 L102.83969,62.1040793 C102.83969,62.1040793 105.291782,53.1742315 104.283772,39.6451283 C103.888044,34.340487 112.70383,30.892063 117.001667,32.0673185 C121.299504,33.2425739 123.278147,34.2584924 123.278147,34.2584924"/>
      <path fill="#1D1D1B" d="M113.83928,46.6223424 C113.83928,46.6223424 111.905135,45.4284783 110.788552,46.9759076 C109.672562,48.5239185 109.380067,51.4210598 109.937172,52.1752935 C110.493091,52.9295272 110.888226,54.0396522 110.888226,54.0396522 L107.545002,58.2149783 L103.664846,57.713125 C103.664846,57.713125 99.409133,47.6533804 101.302934,41.6532391 C102.483593,37.9134728 103.434054,34.6226413 108.452745,32.2418913 C113.470844,29.8611413 116.925607,30.6078152 119.386599,31.8900707 C121.846998,33.1717446 124.886454,34.5801902 125.981678,35.1151902 C127.559846,35.8857065 128.65507,38.5229076 127.353379,38.9165978 L125.994731,39.3364565 L123.311846,38.0443152 L124.240354,40.272125 L119.886747,39.0172011 C119.886747,39.0172011 116.178647,40.7617663 118.007779,44.1537826 C118.505554,45.0772391 116.887636,50.7598696 116.887636,50.7598696 L115.533734,50.8075543 L113.83928,46.6223424 Z"/>
      <path fill="#A6876F" d="M114.398937,56.0269446 C114.398937,56.0269446 116.035841,60.3098522 119.688765,61.5031348 C121.468653,62.084075 124.350885,61.5275587 124.350885,61.5275587 C124.350885,61.5275587 121.630029,63.4843793 119.101401,62.5876728 L118.617272,66.3489554 C118.617272,66.3489554 116.783394,63.3407435 115.882177,61.5514011 C114.980367,59.7614772 114.398937,56.0269446 114.398937,56.0269446"/>
      <path fill="#883523" d="M395.207044,190.899921 C395.207044,190.899921 396.326593,194.384981 395.653202,195.235166 C394.979811,196.085351 394.028164,198.007861 391.638961,198.544606 C386.72113,199.649497 369.353573,196.731421 367.091335,195.491617 C364.829097,194.252394 364.483206,191.281399 366.017469,189.254796 C367.55114,187.228774 371.012429,187.377644 371.012429,187.377644 L381.004129,187.902177 L395.207044,190.899921 Z"/>
      <path fill="#E85740" d="M395.273671,189.130699 C395.273671,189.130699 396.393221,192.615759 395.719829,193.465944 C395.046438,194.316129 394.094792,196.23864 391.705588,196.775384 C386.787757,197.880276 369.4202,194.961618 367.157962,193.722395 C364.895724,192.483172 364.461432,190.718835 365.995695,188.692814 C367.529366,186.66621 370.173686,187.180276 370.173686,187.180276 L382.731985,185.726471 L395.273671,189.130699 Z"/>
      <polygon fill="#ECF0F3" points="379.399 189.414 377.817 191.934 376.828 188.639 374.257 191.547 373.268 188.833 370.302 191.547 373.071 186.7 374.06 187.67 376.631 186.7 376.631 187.476 379.399 187.088"/>
      <path fill="#5EBBA3" d="M309.588722,94.0487549 C309.588722,94.0487549 304.170742,94.1557549 300.041402,91.041706 C295.912061,87.9276571 296.279311,86.709369 297.551338,82.0752223 C298.822772,77.440494 301.23274,77.5812223 303.227995,77.0613418 C305.223843,76.5414614 312.911774,80.1003745 312.911774,80.1003745 L312.809727,81.1151299 C312.809727,81.1151299 304.835234,78.4645538 303.726364,79.1507495 C302.6169,79.8363636 300.117344,80.9842875 299.935202,82.9143582 C299.75306,84.8444288 299.252911,87.1931951 300.39204,89.009869 C301.531761,90.8259614 308.695218,92.994456 308.695218,92.994456 L309.588722,94.0487549 Z"/>
      <path fill="#1D1D1B" d="M307.898066 95.2404674C307.898066 95.2404674 309.314857 99.1651576 314.095637 99.0145435 318.87701 98.8639293 323.133316 97.3228967 321.969269 93.2464293 320.805222 89.1693804 318.356689 88.9379348 313.886203 89.2426522 309.416311 89.5473696 308.015538 92.0973424 307.898066 95.2404674M311.214532 80.3315875C311.214532 80.3315875 311.353956 84.4923755 315.957934 85.7659082 320.561318 87.0400223 325.094694 86.832419 325.242424 82.6012668 325.390748 78.3701147 323.127917 77.4239788 318.773124 76.3894516 314.417737 75.3549245 312.296704 77.3710603 311.214532 80.3315875"/>
      <path stroke="#5EBBA3" stroke-width=".5" d="M312.591691 82.5406723C311.996021 81.2572538 312.104594 81.0636071 313.122097 79.8144984 314.139007 78.5653897 316.672381 78.5485255 318.710353 78.9497755 320.748918 79.3516071 322.906736 79.8238027 323.456722 81.1874712 324.007301 82.5517212 323.669715 84.4311995 322.014419 85.1354223 320.35853 85.8390636 317.552832 85.6244821 316.16274 84.9650364 314.772054 84.3055908 313.186766 83.8246723 312.591691 82.5406723zM308.22776 92.8496571C308.859621 91.5034342 310.587892 90.8300321 312.991335 90.4055212 315.394777 89.9810103 317.477246 89.9176245 319.236369 90.7387332 321.174668 91.6429995 321.803562 93.2904505 322.107922 94.7000592"/>
      <path fill="#1D1D1B" d="M299.348017,91.2316891 C299.497527,90.9141783 298.91491,90.3553359 299.349203,89.7522978 C299.782903,89.1492598 300.392218,89.0096946 300.392218,89.0096946 C300.392218,89.0096946 299.654751,86.7237326 300.271185,84.1906239 C300.888213,81.6575152 301.205627,81.238238 302.112776,80.4642326 C303.019926,79.6896457 304.606993,79.0749772 304.606993,79.0749772 L304.731585,76.4970913 C304.731585,76.4970913 301.045437,75.9876783 299.302333,77.8340098 C297.558636,79.6815043 296.094974,82.0744663 296.357804,86.0939446 C296.620634,90.1128413 299.348017,91.2316891 299.348017,91.2316891"/>
      <polygon fill="#868C96" points=".571 47.103 265.108 196.441 265.088 191.778 8.241 47.103"/>
      <polygon fill="#B8BEC6" points="530.623 47.103 265.067 196.441 265.087 191.778 525.081 47.103"/>
      <polygon fill="#ECF0F3" points="146.592 71.22 191.612 96.71 176.853 105.36 131.834 79.87"/>
      <path fill="#2C2E33" d="M109.77716 177.842374C109.77716 177.842374 110.57455 182.272407 111.532723 182.797521 112.490896 183.323216 115.427119 186.379113 117.794963 185.757466 124.646347 183.957657 133.062252 176.939271 134.620247 175.772157 136.679578 174.229961 135.621138 172.519705 134.026951 170.538461 132.009744 168.030358 129.237865 169.088146 129.237865 169.088146L121.541035 164.876765 109.77716 177.842374zM142.412479 188.874248C142.412479 188.874248 142.71862 192.515738 143.669081 193.053645 144.620727 193.591553 147.470329 196.484042 149.88979 196.09733 154.868138 195.300645 168.205434 187.061645 169.822165 185.07633 171.440084 183.091596 169.254381 181.539515 167.053846 180.230509 164.852717 178.922085 156.94942 181.093488 156.94942 181.093488L154.300353 185.222873 142.412479 188.874248z"/>
      <path fill="#135673" d="M131.900044 148.474712L129.112146 169.785739 128.522409 172.415962 128.531902 175.478255C128.531902 175.478255 124.221606 179.177315 121.503717 179.766397 118.785827 180.355478 114.276777 182.194832 113.153667 181.593538 112.031745 180.992245 110.13735 176.799473 110.13735 176.799473L111.118662 157.499929 110.67369 140.506701 131.900044 148.474712zM147.349474 129.469011L158.002699 135.377272 159.456274 179.740984 159.078345 182.649174 160.124919 186.682028C160.124919 186.682028 157.29905 188.858664 155.819369 188.858664 154.340282 188.858664 146.607854 195.337979 142.080412 190.524142 141.026718 189.402968 141.512034 185.256718 141.512034 185.256718L139.422445 181.736767 138.963827 140.070734 147.349474 129.469011z"/>
      <path fill="#2C2E33" d="M158.312696,146.956708 C158.312696,146.956708 156.973033,147.536485 155.454195,147.217811 C153.817292,146.874713 151.916371,146.607795 151.083383,146.979387 C149.715242,147.590566 121.66895,164.461093 117.52715,164.696028 C113.38535,164.931545 83.1236893,149.950963 83.5449295,147.053822 C83.9649831,144.15668 120.469898,125.541588 120.469898,125.541588 L158.312696,146.956708 Z"/>
      <path fill="#135673" d="M93.689818,136.464602 L125.695769,116.651574 C125.695769,116.651574 128.789808,118.781689 132.288475,121.080444 C133.10485,121.617189 133.2775,125.926265 133.2775,125.926265 C133.2775,125.926265 137.870798,124.660873 138.828378,124.541661 L158.002521,135.377156 C157.975229,135.979613 157.893948,136.34539 157.893948,136.34539 C157.893948,136.34539 128.629025,152.434933 125.101286,153.631123 C118.970164,155.710064 104.770809,151.193384 100.29261,148.746341 C95.8150046,146.299297 93.689818,136.464602 93.689818,136.464602"/>
      <path fill="#EC6D54" d="M136.707819,96.4145598 L128.87809,100.696304 L126.255722,101.434255 C126.255722,101.434255 123.743113,119.848723 129.227542,131.542543 C131.140922,135.623082 123.076841,144.724478 117.960256,145.558962 C107.816673,147.21281 91.1118278,142.625185 91.1118278,142.625185 L81.8356435,112.024929 C81.8356435,112.024929 81.5917988,90.9860543 81.6190904,90.7726359 C81.970915,88.046462 83.3871127,68.5864185 88.36902,64.7303478 C92.3838546,61.6226957 103.914564,63.812125 103.914564,63.812125 L116.269955,68.0979402 C116.269955,68.0979402 129.639883,70.8369076 132.418881,76.6317717 C134.119268,80.1778913 139.442914,94.4757663 139.442914,94.4757663 L136.707819,96.4145598 Z"/>
      <path fill="#2C2E33" d="M102.950755,107.6313 C102.149805,104.542257 61.7955848,87.101838 62.8652977,89.7588109 C63.9344172,92.4157837 84.2251435,147.774327 84.2251435,147.774327 L116.922284,160.176441 C116.922284,160.176441 103.752298,110.720343 102.950755,107.6313"/>
      <polygon fill="#2C2E33" points="124.836 179.063 153.994 199.591 154.623 203.421 122.45 182.547 104.176 208.525 101.93 208.525 117.451 181.475 86.753 188.636 88.019 186.047 119.599 176.304 139.316 176.304 139.359 179.677"/>
      <path fill="#2C2E33" d="M149.318861 203.055703C149.318861 204.941578 150.878637 206.470398 152.802696 206.470398 154.726755 206.470398 156.286531 204.941578 156.286531 203.055703 156.286531 201.169828 154.726755 199.640426 152.802696 199.640426 150.878637 199.640426 149.318861 201.169828 149.318861 203.055703M99.6192784 210.565184C99.6192784 212.45164 101.179054 213.980461 103.103113 213.980461 105.027172 213.980461 106.586948 212.45164 106.586948 210.565184 106.586948 208.679309 105.027172 207.150488 103.103113 207.150488 101.179054 207.150488 99.6192784 208.679309 99.6192784 210.565184M85.5348446 190.714241C85.5348446 192.600116 87.09462 194.129518 89.0186792 194.129518 90.9427384 194.129518 92.5031072 192.600116 92.5031072 190.714241 92.5031072 188.828366 90.9427384 187.298964 89.0186792 187.298964 87.09462 187.298964 85.5348446 188.828366 85.5348446 190.714241"/>
      <path fill="#EC6D54" d="M119.504546,72.3382223 C119.504546,72.3382223 120.152425,71.688081 119.140856,70.6378527 C116.116232,67.4987984 123.061356,68.7944288 122.643082,68.4815701 C122.224809,68.1687114 116.058682,64.3841679 113.826703,64.0625864 C107.455889,63.1432005 102.064608,60.4205158 100.128089,59.6011516 C99.0310847,59.1370973 101.475465,61.2904723 97.51284,64.1788908 C96.2016556,65.134331 96.2111484,67.1341842 96.2111484,67.1341842 L105.613112,72.182956 L119.504546,72.3382223 Z"/>
      <path fill="#B8BEC6" d="M176.684643,66.4616543 L192.816957,75.7177359 C194.139414,76.4772033 194.115089,78.3590076 192.77246,79.0841652 L185.526535,83.0280457 C183.985152,84.0625728 182.442582,84.0625728 180.981887,83.2670511 L165.156307,74.1191326 C163.83385,73.3602467 163.979208,72.2193011 165.321243,71.4941435 L174.733293,66.4372304 C175.342608,66.1075076 176.084228,66.116812 176.684643,66.4616543"/>
      <polygon fill="#868C96" points="150.971 54.13 206.393 85.131 206.373 32.589 150.95 1.588"/>
      <polygon fill="#ECF0F3" points="153.937 45.601 203.031 72.919 203.01 34.915 153.917 7.597"/>
      <polygon fill="#3C3C3B" points="189.863 64.073 200.986 70.166 200.966 36.524 189.843 30.431"/>
      <polygon fill="#868C96" points="155.601 13.408 159.429 15.51 159.408 14.506 155.58 12.404"/>
      <polygon fill="#D470A8" points="190.507 39.705 199.951 44.856 199.936 44.09 190.491 38.938"/>
      <polygon fill="#ECF0F3" points="190.507 37.838 199.951 42.99 199.936 42.223 190.491 37.072"/>
      <polygon fill="#ECF0F3" points="190.504 44.586 199.95 49.738 199.935 48.972 190.489 43.82"/>
      <polygon fill="#F7BB40" points="190.504 46.508 199.95 51.66 199.935 50.894 190.489 45.742"/>
      <polygon fill="#F7BB40" points="190.504 48.195 199.95 53.346 199.935 52.58 190.489 47.428"/>
      <polygon fill="#4DC1EB" points="190.504 50.036 199.95 55.187 199.935 54.421 190.489 49.269"/>
      <polygon fill="#ECF0F3" points="190.5 55.46 199.945 60.612 199.931 59.845 190.485 54.693"/>
      <polygon fill="#EC6D54" points="190.5 57.472 199.945 62.623 199.931 61.857 190.485 56.705"/>
      <polygon fill="#868C96" points="155.601 15.516 187.637 33.094 187.617 32.09 155.58 14.512"/>
      <polygon fill="#868C96" points="155.601 17.624 187.637 35.202 187.617 34.198 155.58 16.62"/>
      <polygon fill="#868C96" points="155.601 19.732 187.637 37.31 187.617 36.306 155.58 18.728"/>
      <polygon fill="#868C96" points="155.601 21.84 187.637 39.418 187.617 38.414 155.58 20.836"/>
      <polygon fill="#868C96" points="155.601 23.948 160.231 26.442 160.211 25.438 155.58 22.944"/>
      <polygon fill="#868C96" points="155.601 26.056 187.637 43.634 187.617 42.63 155.58 25.052"/>
      <polygon fill="#868C96" points="155.601 28.164 187.637 45.742 187.617 44.738 155.58 27.16"/>
      <polygon fill="#868C96" points="155.601 30.272 187.637 47.85 187.617 46.846 155.58 29.268"/>
      <polygon fill="#868C96" points="155.601 32.38 187.637 49.958 187.617 48.954 155.58 31.376"/>
      <polygon fill="#868C96" points="155.601 34.488 177.783 46.577 177.763 45.573 155.58 33.484"/>
      <polygon fill="#868C96" points="155.601 36.597 187.637 54.174 187.617 53.17 155.58 35.592"/>
      <polygon fill="#868C96" points="155.601 38.705 187.637 56.282 187.617 55.278 155.58 37.7"/>
      <polygon fill="#868C96" points="155.601 40.813 157.413 41.78 157.393 40.775 155.58 39.808"/>
      <polygon fill="#868C96" points="155.601 42.921 187.637 60.498 187.617 59.494 155.58 41.916"/>
      <polygon fill="#B8BEC6" points="209.284 83.371 206.357 85.121 206.357 32.625 209.284 30.874"/>
      <polygon fill="#B8BEC6" points="153.962 0 209.265 30.918 206.373 32.589 151.07 1.672"/>
      <polygon fill="#ECF0F3" points="377.73 71.654 332.71 97.143 347.469 105.794 392.488 80.304"/>
      <polygon fill="#C6C6C5" points="321.927 100.291 296.81 116.058 333.443 135.848 358.561 120.081"/>
      <polygon fill="#ECF0F3" points="318.466 100.296 293.347 116.063 329.98 135.853 355.099 120.086"/>
      <polygon fill="#EC6D54" points="339.231 113.283 328.352 120.036 340.066 126.452 350.946 119.699"/>
      <polygon fill="#446FA3" points="327.958 120.843 319.057 126.336 330.772 132.751 339.673 127.258"/>
      <path fill="#B8BEC6" d="M349.583524,69.5120848 L333.451803,78.7681663 C332.128753,79.5276337 332.153671,81.409438 333.495707,82.1345957 L340.741632,86.0784761 C342.283609,87.1130033 343.825585,87.1130033 345.28628,86.3174815 L361.11186,77.169563 C362.434317,76.4106772 362.288959,75.2697315 360.946924,74.5445739 L351.534875,69.4876609 C350.925559,69.157938 350.184533,69.1672424 349.583524,69.5120848"/>
      <polygon fill="#868C96" points="375.297 57.18 319.875 88.181 319.895 35.64 375.318 4.639"/>
      <polygon fill="#ECF0F3" points="372.331 48.651 323.237 75.969 323.258 37.966 372.351 10.648"/>
      <polygon fill="#B8BEC6" points="316.985 86.422 319.911 88.172 319.911 35.675 316.985 33.925"/>
      <polygon fill="#B8BEC6" points="372.306 3.051 317.003 33.968 319.895 35.64 375.198 4.722"/>
      <polygon fill="#2C2E33" points="118.088 178.554 123.746 178.554 123.746 160.527 118.088 160.527"/>
      <path fill="#ECBC9A" d="M167.522728 92.0957723C167.501369 91.3333973 166.672535 89.2259625 165.240911 88.2024842 164.584132 87.7326147 161.97185 91.4741255 161.319224 91.0903212 160.998251 90.9013266 164.000922 87.9128864 163.71614 87.7605277 163.005965 87.3831201 163.148356 87.1877288 162.899171 87.1871473 159.975408 87.1778429 157.566033 92.2050984 157.362532 92.0480875 157.159032 91.8910766 157.747581 89.7167668 157.149539 89.3387777 156.223404 88.7543484 155.776059 90.2558375 155.239719 91.0932288 154.702786 91.9312016 153.494835 96.3897288 153.494835 96.3897288 153.494835 96.3897288 154.038294 97.7086201 152.215095 99.0013429 150.391897 100.293484 141.36727 108.879071 141.36727 108.879071L138.355699 95.1138701 127.316832 101.31231C127.316832 101.31231 130.538429 114.398294 131.514995 115.996897 132.490967 117.594919 132.714046 120.191995 135.162579 120.481593 137.611112 120.770609 142.734817 120.324582 144.750837 118.696321 146.550304 117.243098 159.021981 101.958962 159.021981 101.958962L164.845776 97.5015984C164.845776 97.5015984 167.571971 93.8083538 167.522728 92.0957723M135.287171 83.5597891L141.62476 83.7703C141.62476 83.7703 149.737491 79.1535989 150.991126 79.2129141 152.243574 79.2728109 155.837168 79.598463 156.291633 79.9270228 156.746691 80.2567457 158.431059 81.1063489 157.595104 82.1432022 156.757964 83.180637 152.172378 85.9870609 152.172378 85.9870609 152.172378 85.9870609 155.426014 85.7835283 155.716729 86.2586315 156.006851 86.7343163 154.744317 88.2416207 153.617647 88.8033707 152.490978 89.3645391 147.487712 88.9725935 146.547931 88.9278163 145.608743 88.8830391 139.850212 91.0701424 139.850212 91.0701424L138.377651 91.7418 135.287171 83.5597891z"/>
      <path fill="#C64A35" d="M123.279274 99.5629766L120.077848 84.2730255 121.59016 95.2573897 122.394076 117.40639 124.478325 124.698672 126.25584 101.434314C126.25584 101.434314 139.143418 95.0788625 133.882662 97.3514495 128.622498 99.6234549 123.279274 99.5629766 123.279274 99.5629766M100.586885 64.2244239C100.586885 64.2244239 105.270364 66.8965163 108.617741 67.7554239 111.965711 68.6143315 118.730473 68.9370761 118.730473 68.9370761L121.731364 69.604663C121.731364 69.604663 118.054708 71.2625815 115.066276 70.8613315 112.077844 70.4595 107.348681 69.1894565 104.176326 67.368712 101.003379 65.5479674 100.586885 64.2244239 100.586885 64.2244239"/>
      <path fill="#FCF18D" d="M363.583294,57.7715098 L370.999495,53.4100967 C370.999495,53.4100967 370.702847,56.7538467 371.592791,58.3530315 C372.482736,59.9522163 373.224356,61.6967815 373.224356,61.6967815 L366.994747,65.4766728 C366.994747,65.4766728 365.066534,62.5690641 364.473238,61.2606402 C363.879942,59.9522163 363.583294,57.7715098 363.583294,57.7715098"/>
      <path fill="#A0C86A" d="M354.683853,62.4236837 L361.477686,58.7891728 C361.477686,58.7891728 361.181038,62.1329228 362.070982,63.7321076 C362.960927,65.3312924 362.219306,67.5119989 362.219306,67.5119989 L355.989698,71.2918902 C355.989698,71.2918902 355.544725,67.9481402 354.951429,66.6397163 C354.358133,65.3312924 354.683853,62.4236837 354.683853,62.4236837"/>
      <path fill="#883523" d="M414.595189,179.93591 C414.595189,179.93591 413.736096,185.203916 412.661637,185.427802 C411.587771,185.651687 407.695155,186.779258 405.621585,185.498747 C399.620395,181.792128 395.880257,175.62916 394.744688,174.061959 C393.243649,171.99116 392.065363,169.469682 394.186396,168.039139 C396.870468,166.228861 399.889158,167.197095 399.889158,167.197095 L406.756561,170.961285 L414.595189,179.93591 Z"/>
      <path fill="#E85740" d="M415.338529,178.322246 C415.338529,178.322246 414.479437,183.590251 413.404977,183.814137 C412.331111,184.038023 408.438496,185.165593 406.364926,183.885083 C400.363736,180.178463 396.623597,174.015496 395.488029,172.448295 C393.98699,170.377496 392.808704,167.856017 394.929737,166.425474 C397.613809,164.615197 400.632499,165.58343 400.632499,165.58343 L407.499901,169.347621 L415.338529,178.322246 Z"/>
      <path fill="#3A4352" d="M402.557211 147.186118L400.541784 166.285618 400.310992 168.968759 399.377144 171.890906C399.377144 171.890906 402.377442 176.675085 404.795717 178.026542 407.214585 179.377417 410.965996 182.442036 412.219631 182.193727 413.473266 181.944254 416.548319 178.489433 416.548319 178.489433L419.683296 165.324944 425.23892 145.732314 402.557211 147.186118zM372.968289 135.666754L360.854369 142.47521 376.370842 179.826352 377.400804 187.018031 379.222223 190.147781C379.222223 190.147781 381.699828 193.396161 383.069155 192.849531 384.439076 192.301737 393.878416 196.668384 396.21719 190.535656 396.761242 189.107439 394.070644 182.329803 394.070644 182.329803L393.544391 175.469009 380.120473 140.542814 372.968289 135.666754z"/>
      <path fill="#2C2E33" d="M371.445654,148.352011 C371.445654,148.352011 372.785317,148.931788 374.304155,148.613114 C375.941652,148.270016 377.841979,148.003098 378.674967,148.375272 C380.043108,148.98587 408.089994,165.856397 412.2312,166.091332 C416.373594,166.326848 446.634661,151.346266 446.214014,148.449125 C445.793367,145.552565 409.289045,126.936891 409.289045,126.936891 L371.445654,148.352011 Z"/>
      <path fill="#3A4352" d="M436.069125,137.859905 L397.160768,127.267486 C397.160768,127.267486 394.549078,126.389389 390.797667,125.604916 L371.623524,136.440992 C371.783714,137.375497 371.864996,137.740693 371.864996,137.740693 C371.864996,137.740693 401.129919,153.830236 404.657064,155.026427 C410.788779,157.105948 424.988134,152.589269 429.46574,150.141644 C433.943939,147.694601 436.069125,137.859905 436.069125,137.859905"/>
      <path fill="#EDCBB4" d="M369.265409,96.3830413 C369.265409,96.3830413 367.110558,93.7720087 366.44844,93.0259163 C365.786915,92.2792424 365.204298,90.9853565 364.285282,91.5802533 C362.814501,92.5327859 364.264517,93.4393783 364.032538,93.5236989 C363.42263,93.7458402 361.821323,91.5203565 361.674779,91.6744598 C361.49857,91.8605467 364.139925,90.4346554 361.069617,89.2733565 C360.837045,89.1855467 358.396225,89.7100793 357.753685,90.1904163 C357.495602,90.384063 357.04351,90.9731446 356.756355,91.2086609 C356.171958,91.6860902 356.628796,92.3455359 356.053299,92.9084489 C354.799664,94.1360413 355.329478,94.5942804 355.427965,95.3508402 C355.648671,97.0500467 358.224169,99.1952804 358.224169,99.1952804 L364.679824,102.719884 L369.265409,96.3830413 Z"/>
      <path fill="#00AAD6" d="M444.651094,71.14965 C441.208197,67.4418674 430.368084,70.1174489 430.368084,70.1174489 L416.564457,70.0087043 C416.564457,70.0087043 407.791388,73.4443348 404.084474,78.7169924 C402.270174,81.2977859 398.043533,86.9932098 393.494732,93.7772424 L389.570672,99.6825957 L371.147641,96.8790793 L368.972025,95.5218076 C368.972025,95.5218076 364.225063,95.9905141 362.107589,97.8211446 C359.990708,99.6511935 362.050039,102.694297 362.050039,102.694297 L370.554345,108.121639 C371.780095,109.66965 388.701493,112.46328 388.701493,112.46328 C388.701493,112.46328 392.996363,113.885101 395.778922,113.2809 C398.562074,112.67728 404.767358,105.407677 404.767358,105.407677 C404.767358,105.407677 406.019212,120.741242 399.892837,129.985693 C397.39684,133.751628 400.287379,138.015927 405.093077,141.773139 C411.810969,147.026025 430.368084,145.150036 430.368084,145.150036 L443.222437,118.855367 C443.222437,118.855367 446.100516,97.8374272 446.283251,97.9560576 C447.367203,98.6579543 448.924606,75.751813 444.651094,71.14965"/>
      <polygon fill="#2C2E33" points="404.923 178.132 375.765 198.661 375.136 202.49 407.309 181.616 425.582 207.594 427.829 207.594 412.308 180.545 443.005 187.706 441.739 185.116 410.159 175.374 393.544 175.469 393.634 178.53"/>
      <path fill="#2C2E33" d="M380.440082 202.124919C380.440082 204.010794 378.880307 205.540196 376.956247 205.540196 375.032188 205.540196 373.471819 204.010794 373.471819 202.124919 373.471819 200.239044 375.032188 198.709642 376.956247 198.709642 378.880307 198.709642 380.440082 200.239044 380.440082 202.124919M430.139665 209.6344C430.139665 211.520857 428.579889 213.049677 426.65583 213.049677 424.731178 213.049677 423.171402 211.520857 423.171402 209.6344 423.171402 207.748525 424.731178 206.219704 426.65583 206.219704 428.579889 206.219704 430.139665 207.748525 430.139665 209.6344M444.224099 189.783458C444.224099 191.669333 442.66373 193.198735 440.739671 193.198735 438.815612 193.198735 437.255836 191.669333 437.255836 189.783458 437.255836 187.897583 438.815612 186.36818 440.739671 186.36818 442.66373 186.36818 444.224099 187.897583 444.224099 189.783458"/>
      <path fill="#00AAD6" d="M411.920135,74.7764848 C411.920135,74.7764848 408.640394,73.3139576 409.331584,72.0386804 C410.022774,70.7634033 409.657897,69.179338 410.122448,68.937425 C410.587592,68.695512 412.118296,66.9503652 414.225684,67.7418163 C421.029603,70.2999304 432.279091,71.0902185 429.84717,64.749887 C429.544589,63.9613435 442.455898,65.4110772 442.556165,66.0298163 C442.811283,67.6115554 444.533621,78.2417728 444.533621,78.2417728 L424.11415,74.6270337 L411.920135,74.7764848 Z"/>
      <polygon fill="#2C2E33" points="405.34 176.848 410.997 176.848 410.997 161.729 405.34 161.729"/>
      <path fill="#287894" d="M432.027889,65.0927522 C432.027889,65.0927522 441.171768,65.6417087 439.985176,66.8047522 C438.798584,67.9677957 436.242664,73.0334315 430.705432,74.58435 C425.1682,76.134687 412.510821,67.9933826 412.510821,67.9933826 C412.510821,67.9933826 417.489168,68.7476163 421.444673,69.4216 C427.830912,70.5107902 432.027889,65.0927522 432.027889,65.0927522"/>
      <path fill="#287894" d="M411.902158,69.3250092 C411.902158,69.3250092 427.691547,85.5262049 431.750879,87.027694 C442.232641,90.9046995 444.533443,78.2414821 444.533443,78.2414821 C444.533443,78.2414821 443.62214,84.9249114 442.489538,89.1048897 C440.537594,96.3070364 426.924415,95.5359386 423.415069,87.5818842 C420.406464,80.7617973 411.902158,69.3250092 411.902158,69.3250092"/>
      <path fill="#2C2E33" d="M423.230435,105.561897 C423.690833,102.40656 461.91868,85.7791087 461.144428,88.5326141 C460.370177,91.2867011 446.214132,148.449125 446.214132,148.449125 L415.051849,159.267174 C415.051849,159.267174 422.770037,108.716652 423.230435,105.561897"/>
      <polygon fill="#287894" points="403.186 105.795 411.096 96.491 404.811 108.635 396.132 113.188"/>
      <path fill="#E85740" d="M391.087552,68.54955 C391.087552,68.54955 385.84934,67.360338 384.581467,67.6859902 C383.314186,68.0110609 382.258713,68.9350989 382.065298,69.4671913 C381.365802,71.3856315 383.463104,71.9340065 385.979866,73.1668326 C388.496628,74.4008217 391.432257,73.7152076 391.432257,73.7152076 L391.087552,68.54955 Z"/>
      <path fill="#EDCBB4" d="M393.423655,76.0763603 C393.423655,76.0763603 390.972749,74.9668168 390.00449,74.6871049 C389.03623,74.4079745 385.593926,71.9748875 386.189596,71.5928277 C386.785265,71.2107679 389.834214,71.7091321 389.802176,71.4573332 C389.406447,68.3560777 384.886718,69.954681 384.759159,68.9858658 C384.6316,68.0170505 385.764202,65.314719 387.432551,64.8041429 C389.101493,64.2941484 391.43908,65.0658277 391.43908,65.0658277 L397.395179,69.352806 L393.423655,76.0763603 Z"/>
      <path fill="#00AAD6" d="M415.474691,75.032587 C413.128205,73.8637283 398.724756,69.0719891 398.724756,69.0719891 C398.724756,69.0719891 396.241811,68.6090978 394.895623,71.0416033 C393.550027,73.4741087 393.423655,76.0764185 393.423655,76.0764185 L403.127606,86.8874891 L418.110112,78.0675489 L415.474691,75.032587 Z"/>
      <path fill="#1D1D1B" d="M342.661538,108.817663 L303.688511,99.2841951 C303.688511,99.2841951 290.525051,118.740749 290.584974,118.516282 L332.970047,130.213592 L342.661538,108.817663 Z"/>
      <path fill="#6F6F6E" d="M340.032228,109.517873 C340.032228,109.517873 307.780059,101.988329 305.755733,101.339351 L294.829592,118.140677 L331.308996,128.171346 L340.032228,109.517873 Z"/>
      <polygon fill="#FFFFFF" points="296.064 113.436 310.548 107.665 312.509 107.347 311.401 108.583 296.535 114.572"/>
      <path stroke="#5EBBA3" stroke-width=".5" d="M322.524772,93.560044 C326.377637,92.9203701 328.476125,90.8164245 331.100867,88.0163973 C332.609619,86.4067451 338.224573,82.3988973 338.411462,87.5360603 C338.556226,91.4892451 332.524185,90.2383918 333.820537,86.1532016 C335.30259,81.4806745 340.540208,84.825006 343.279456,84.5412234 C349.894114,83.8573538 350.96976,76.9599245 355.879285,74.4657777 C357.4533,73.6661853 360.781691,72.8863647 360.84992,75.1374353 C360.941287,78.1590223 356.887888,77.0547125 355.304381,76.8273375 C347.94039,75.7718755 342.703959,79.8087995 336.711668,83.1641799 C332.848718,85.3262777 329.821128,84.1074082 328.683186,88.9078701 C328.204396,90.9274951 327.92436,93.3925658 326.873039,95.217381 C325.921986,96.8689027 324.467817,97.0840658 324.762092,99.3293212 C325.393952,104.164674 331.420061,99.8811853 333.70959,98.2191962"/>
      <polygon fill="#6597D0" points="347.304 106.209 333.217 101.725 330.828 101.491 332.128 102.625 346.693 107.11"/>
      <polygon fill="#1D1D1B" points="344.209 103.579 330.122 99.095 327.733 98.861 329.033 99.996 343.597 104.48"/>
      <path fill="#7BCAEC" d="M381.893776,57.2203435 C380.165505,56.2794413 380.163131,54.7349196 381.888436,53.7695935 C383.614928,52.8036859 386.419439,52.7827511 388.150677,53.7236533 C389.883101,54.6657185 389.884881,56.2125663 388.154236,57.1784739 C386.425372,58.1432185 383.622641,58.1618272 381.893776,57.2203435"/>
      <polygon fill="#7BCAEC" points="389.428 55.808 380.582 55.808 379.724 44.908 390.307 44.872"/>
      <path fill="#C99D66" d="M381.469688,47.13885 C379.507065,46.0705946 379.504098,44.3161435 381.464348,43.219975 C383.425192,42.1226435 386.609412,42.0988011 388.576189,43.1682196 C390.543558,44.237638 390.544745,45.9944152 388.579748,47.0911652 C386.616532,48.1867522 383.433498,48.207687 381.469688,47.13885"/>
      <path stroke="#7BCAEC" stroke-width=".5" d="M381.469688,47.13885 C379.507065,46.0705946 379.504098,44.3161435 381.464348,43.219975 C383.425192,42.1226435 386.609412,42.0988011 388.576189,43.1682196 C390.543558,44.237638 390.544745,45.9944152 388.579748,47.0911652 C386.616532,48.1867522 383.433498,48.207687 381.469688,47.13885 Z"/>
      <path fill="#7BCAEC" d="M389.87432,47.5028826 C389.87432,47.5028826 390.984377,46.7306217 391.687433,47.0242902 C392.389896,47.3173772 393.002771,47.473225 392.975479,49.3032739 C392.947594,51.1333228 392.531694,52.126562 391.538516,52.5941054 C390.544152,53.0622304 388.968951,52.273687 388.968951,52.273687 L389.228814,51.2234587 C389.228814,51.2234587 389.453674,51.9317522 390.579156,51.3042902 C391.705825,50.6768283 391.896274,48.9758772 391.480966,48.5804424 C391.065659,48.1844261 389.416296,48.7926978 389.416296,48.7926978 L389.87432,47.5028826 Z"/>
      <g transform="translate(136.4 41.96)">
        <path fill="#ECECEC" d="M2.52441553,18.9455712 C0.946247933,18.0860821 0.943874749,16.6758918 2.51966916,15.7943049 C4.09665017,14.9115549 6.65731609,14.8923647 8.23904346,15.7524353 C9.82136413,16.612506 9.82255073,18.0250223 8.24200994,18.9071908 C6.66324905,19.7881962 4.10317642,19.8050603 2.52441553,18.9455712"/>
        <polygon fill="#ECECEC" points="9.405 17.656 1.326 17.656 .083 2.687 10.668 2.652"/>
        <path fill="#D9D9D9" d="M2.89403899,17.4321027 C1.52115184,16.6842658 1.51937196,15.4572549 2.88988592,14.6896462 C4.26277307,13.921456 6.49059989,13.9051734 7.86764011,14.6535918 C9.24408704,15.4014288 9.24527363,16.6313473 7.8700133,17.3983745 C6.49534626,18.1654016 4.26811274,18.1805212 2.89403899,17.4321027"/>
        <polygon fill="#D9D9D9" points="8.883 16.31 1.851 16.31 1.335 8.627 9.416 8.597"/>
        <path fill="#D9D9D9" d="M1.82972514,4.91833641 C-0.132898324,3.85008098 -0.135864804,2.09562989 1.82379218,0.999461413 C3.78522905,-0.097288587 6.96944916,-0.1217125 8.9362257,0.947705978 C10.9030022,2.01712446 10.9047821,3.77390163 8.93919218,4.87065163 C6.97597542,5.96623859 3.7929419,5.98717337 1.82972514,4.91833641"/>
        <path stroke="#ECECEC" stroke-width=".5" d="M1.82972514,4.91833641 C-0.132898324,3.85008098 -0.135864804,2.09562989 1.82379218,0.999461413 C3.78522905,-0.097288587 6.96944916,-0.1217125 8.9362257,0.947705978 C10.9030022,2.01712446 10.9047821,3.77390163 8.93919218,4.87065163 C6.97597542,5.96623859 3.7929419,5.98717337 1.82972514,4.91833641 Z"/>
        <path fill="#F6F6F6" d="M2.56493765,10.3232321 C1.0099086,9.47653641 1.00753542,8.08669946 2.56019128,7.2184875 C4.11403374,6.3491125 6.63732201,6.32992228 8.19531754,7.17719946 C9.75449966,8.02447663 9.75568626,9.41663967 8.19828402,10.2854332 C6.64266168,11.1536451 4.12056,11.1705092 2.56493765,10.3232321"/>
      </g>
      <polygon fill="#ECF0F3" points="399.353 171.138 398.104 170.693 398.899 169.58 396.741 169.023 400.262 167.242 399.922 168.801 400.311 168.969"/>
      <path fill="#7BCAEC" d="M189.992631,102.23943 L204.82444,110.629626 C206.187834,111.400724 206.202666,113.324398 204.852324,114.115849 L189.730394,122.978822 C189.088447,123.355066 188.288091,123.360882 187.640212,122.994523 L172.808403,114.604909 C171.445008,113.833229 171.430176,111.910137 172.781111,111.118104 L187.903635,102.255132 C188.545581,101.878887 189.344751,101.873072 189.992631,102.23943"/>
      <path fill="#5B5E67" d="M181.69402,113.797757 C181.16124,112.684142 182.934602,111.007615 184.795179,109.501474 C186.488446,108.130827 189.113188,108.554757 190.321139,108.723979 C191.529089,108.893202 194.356145,109.411338 194.807644,110.415045 C195.258549,111.419333 194.980293,112.444555 193.254395,113.290088 C191.529089,114.136202 188.941132,116.334354 185.834634,116.165132 C182.729322,115.99649 182.226207,114.911371 181.69402,113.797757"/>
      <path fill="#868C96" d="M181.495859,113.216235 C180.963673,112.102621 182.737035,110.426093 184.597018,108.919952 C186.290285,107.549305 188.91562,107.973235 190.123571,108.142458 C191.330929,108.31168 194.158578,108.829816 194.610076,109.833523 C195.060981,110.837811 194.782132,111.863034 193.056234,112.708566 C191.330929,113.55468 188.742971,115.752833 185.637066,115.58361 C182.531161,115.414968 182.028639,114.329849 181.495859,113.216235"/>
      <path stroke="#ECECEC" stroke-width=".5" d="M192.869345,113.012062 C192.869345,113.012062 192.947067,110.738894 191.323216,109.374644 C189.699364,108.010394 187.071063,107.859198 187.071063,107.859198"/>
      <path fill="#2C2E33" d="M188.659494,108.218521 C188.659494,108.218521 187.671063,108.606396 187.226091,108.848309 C186.781119,109.090803 186.781119,109.333298 186.781119,109.333298 L187.571983,109.817705 L189.500195,108.509282 L188.659494,108.218521 Z"/>
      <path fill="#868C96" d="M156.8857,112.062554 L172.803834,108.46119 C173.4618,108.31232 174.14231,108.59901 174.485235,109.168902 L177.140235,113.586141 C177.666489,114.462494 177.181173,115.58832 176.173756,115.829652 L160.054495,119.682815 C159.359745,119.848548 158.639483,119.526385 158.311984,118.903576 L155.858705,114.235119 C155.395934,113.355858 155.902609,112.284695 156.8857,112.062554"/>
      <path fill="#1D1D1B" d="M156.8857,111.258716 L172.803834,107.657352 C173.4618,107.508483 174.14231,107.795173 174.485235,108.365064 L177.140235,112.782303 C177.666489,113.658657 177.181173,114.784483 176.173756,115.025814 L160.054495,118.878977 C159.359745,119.044711 158.639483,118.722548 158.311984,118.099738 L155.858705,113.431282 C155.395934,112.552021 155.902609,111.480858 156.8857,111.258716"/>
      <polygon fill="#F6F6F6" points="158.598 111.361 161.802 117.806 175.459 114.62 171.845 108.316"/>
      <polygon fill="#243985" points="167.202 109.723 170.284 115.462 173.691 114.668 170.537 108.975"/>
      <polygon fill="#C6C6C5" points="163.298 110.627 166.388 116.389 169.75 115.506 166.698 109.813"/>
      <polygon fill="#BD1622" points="159.389 111.474 162.491 117.271 165.84 116.471 162.732 110.728"/>
      <polygon fill="#9C9B9B" points="170.824 108.929 171.17 109.534 172.026 109.313 171.662 108.73"/>
      <polygon fill="#C6C6C5" points="173.603 113.953 173.949 114.558 174.805 114.337 174.442 113.753"/>
      <polygon fill="#C6C6C5" points="169.883 109.405 170.94 111.252 171.394 111.157 170.318 109.333"/>
      <polygon fill="#C6C6C5" points="169.153 112.225 170.669 115.032 171.998 114.712 170.464 111.928"/>
      <polygon fill="#C6C6C5" points="162.137 111.079 163.561 113.73 164.015 113.635 162.572 111.006"/>
      <polygon fill="#C6C6C5" points="161.22 113.449 162.644 116.1 163.097 116.005 161.654 113.376"/>
      <polygon fill="#C6C6C5" points="161.907 113.306 163.332 115.957 163.786 115.862 162.343 113.233"/>
      <polygon fill="#6F6F6E" points="166.05 110.242 167.107 112.088 167.56 111.993 166.485 110.17"/>
      <polygon fill="#243985" points="163.954 110.867 166.658 115.962 167.764 115.726 165.015 110.692"/>
      <polygon fill="#BD1622" points="171.264 109.671 172.318 111.46 173.174 111.239 172.102 109.471"/>
      <path fill="#5B5E67" d="M196.266262,85.6257614 L212.449006,95.1819082 C212.981193,95.4941853 212.994839,96.2443484 212.475111,96.5758158 L205.884778,100.77324 C205.617202,100.943626 205.274277,100.950604 205.000174,100.790685 L188.602657,91.1769679 C188.062164,90.8623647 188.054451,90.0982451 188.589011,89.7731745 L195.393524,85.6327397 C195.660507,85.4704951 195.996906,85.468169 196.266262,85.6257614"/>
      <path fill="#1D1D1B" d="M196.266262,84.8840886 L212.449006,94.4402353 C212.981193,94.7525125 212.994839,95.5026755 212.475111,95.8335614 L205.884778,100.031567 C205.617202,100.201953 205.274277,100.208931 205.000174,100.049013 L188.602657,90.4352951 C188.062164,90.1206918 188.054451,89.3559908 188.589011,89.0315016 L195.393524,84.8910668 C195.660507,84.7288223 195.996906,84.7259147 196.266262,84.8840886"/>
      <polygon fill="#3C3C3B" points="197.956 86.505 210.552 93.931 203.958 98.293 190.823 90.857"/>
      <path stroke="#ECF0F3" stroke-width=".5" d="M192.274863,86.6874457 C190.543031,85.4691576 190.041103,82.7865978 188.095092,81.358962 C186.024488,79.8400272 183.405086,79.1375489 181.053854,78.1425652 C179.610364,77.5313859 171.317865,75.7676304 170.020326,76.6707337 C167.428216,78.4751957 173.751565,81.3950163 175.063343,81.7590489 C177.737922,82.5016522 180.217306,81.1798533 182.629055,80.2877989 C184.67652,79.5306576 186.436829,80.0034348 188.55015,79.9528424 C191.443655,79.8836413 195.40094,82.4731576 197.161249,80.3017554"/>
      <path fill="#3A4352" d="M400.515976,128.717162 L395.906065,122.703064 L404.084652,117.943309 C404.084652,117.943309 403.190555,125.270483 400.515976,128.717162"/>
      <polygon fill="#6597D0" points="372.331 48.651 323.237 75.969 323.258 73.441 372.351 46.123"/>
      <polygon fill="#FFFFFF" points="335.069 58.401 324.914 64.265 324.947 43.124 335.102 37.259"/>
      <polygon fill="#243985" points="334.351 45.651 325.991 50.547 326.024 45.006 334.385 40.111"/>
      <polygon fill="#B8BEC6" points="327.086 43.92 325.991 44.594 326.024 43.452 327.12 42.778"/>
      <polygon fill="#B8BEC6" points="329.322 44.392 326.477 46.076 326.51 45.286 329.355 43.602"/>
      <polygon fill="#B8BEC6" points="333.607 45.302 330.134 47.369 330.167 45.523 333.641 43.456"/>
      <polygon fill="#B8BEC6" points="334.266 39.914 333.172 40.588 333.205 39.446 334.3 38.772"/>
      <polygon fill="#BD1622" points="330.777 41.857 327.374 43.788 327.408 42.647 330.811 40.715"/>
      <polygon fill="#ECF0F3" points="334.351 51.867 325.991 56.763 326.024 51.223 334.385 46.327"/>
      <polygon fill="#BD1622" points="334.351 57.967 325.991 62.863 326.024 57.322 334.385 52.427"/>
      <polygon fill="#868C96" points="329.322 50.682 326.477 52.366 326.51 51.577 329.355 49.892"/>
      <polygon fill="#B8BEC6" points="329.322 56.884 326.477 58.569 326.51 57.779 329.355 56.095"/>
      <polygon fill="#FFFFFF" points="333.197 56.617 330.28 58.334 330.317 57.694 333.233 55.976"/>
      <polygon fill="#FFFFFF" points="332.575 57.941 330.264 59.309 330.301 58.669 332.612 57.3"/>
      <polygon fill="#243985" points="333.667 51.868 328.451 54.918 328.485 53.072 333.701 50.023"/>
      <polygon fill="#BD1622" points="328.22 55.017 326.796 55.897 326.829 54.051 328.253 53.171"/>
      <path fill="#ECF0F3" d="M327.848833,58.4566587 C328.475354,58.0554087 328.993302,58.3182565 329.005761,59.0434141 C329.018813,59.7691533 328.520445,60.683887 327.892144,61.0863 C327.26503,61.488713 326.746489,61.2252837 326.73403,60.4983815 C326.722757,59.7714793 327.221126,58.8579087 327.848833,58.4566587"/>
      <polygon fill="#FFFFFF" points="347.254 51.657 337.099 57.363 337.132 36.223 347.288 30.516"/>
      <polygon fill="#243985" points="346.536 38.896 338.176 43.661 338.21 38.121 346.57 33.356"/>
      <polygon fill="#B8BEC6" points="339.27 37.052 338.176 37.708 338.21 36.567 339.304 35.911"/>
      <polygon fill="#B8BEC6" points="341.506 37.559 338.661 39.198 338.695 38.409 341.54 36.77"/>
      <polygon fill="#3AAED9" points="345.792 38.535 342.319 40.548 342.353 38.703 345.826 36.69"/>
      <polygon fill="#B8BEC6" points="346.451 33.158 345.357 33.814 345.39 32.673 346.485 32.017"/>
      <polygon fill="#BD1622" points="342.962 35.046 339.56 36.924 339.592 35.784 342.995 33.905"/>
      <polygon fill="#ECF0F3" points="346.536 45.112 338.176 49.878 338.21 44.338 346.57 39.573"/>
      <polygon fill="#BD1622" points="346.536 51.212 338.176 55.978 338.21 50.437 346.57 45.672"/>
      <polygon fill="#868C96" points="341.506 43.849 338.661 45.489 338.695 44.699 341.54 43.06"/>
      <polygon fill="#B8BEC6" points="341.506 50.051 338.661 51.691 338.695 50.901 341.54 49.262"/>
      <polygon fill="#FFFFFF" points="345.382 49.844 342.465 51.516 342.502 50.876 345.419 49.204"/>
      <polygon fill="#FFFFFF" points="344.76 51.158 342.449 52.491 342.487 51.851 344.797 50.518"/>
      <polygon fill="#3AAED9" points="345.852 45.102 340.636 48.071 340.67 46.226 345.885 43.257"/>
      <polygon fill="#BD1622" points="340.405 48.166 338.981 49.024 339.014 47.179 340.439 46.322"/>
      <path fill="#ECF0F3" d="M340.033415,51.6002266 C340.660528,51.2088625 341.178476,51.4798516 341.190935,52.2055908 C341.203394,52.9313299 340.705026,53.8385038 340.077318,54.2304495 C339.449611,54.6229766 338.93107,54.351406 338.919204,53.6245038 C338.907339,52.8976016 339.406301,51.9915908 340.033415,51.6002266"/>
      <polygon fill="#FFFFFF" points="359.088 44.771 348.934 50.731 348.967 29.59 359.122 23.63"/>
      <polygon fill="#243985" points="358.371 32.027 350.01 37.002 350.044 31.462 358.404 26.487"/>
      <polygon fill="#B8BEC6" points="351.105 30.365 350.01 31.049 350.044 29.907 351.139 29.223"/>
      <polygon fill="#B8BEC6" points="353.341 30.816 350.497 32.527 350.53 31.737 353.375 30.027"/>
      <polygon fill="#B8BEC6" points="357.627 31.686 354.153 33.785 354.187 31.94 357.66 29.84"/>
      <polygon fill="#B8BEC6" points="358.285 26.292 357.191 26.976 357.225 25.834 358.319 25.15"/>
      <polygon fill="#BD1622" points="354.796 28.267 351.394 30.231 351.427 29.089 354.83 27.126"/>
      <polygon fill="#ECF0F3" points="358.371 38.245 350.01 43.219 350.044 37.678 358.404 32.704"/>
      <polygon fill="#BD1622" points="358.371 44.344 350.01 49.319 350.044 43.778 358.404 38.803"/>
      <polygon fill="#868C96" points="353.341 37.107 350.497 38.818 350.53 38.027 353.375 36.316"/>
      <polygon fill="#B8BEC6" points="353.341 43.309 350.497 45.02 350.53 44.229 353.375 42.519"/>
      <polygon fill="#FFFFFF" points="357.216 43.005 354.3 44.749 354.337 44.108 357.253 42.364"/>
      <polygon fill="#FFFFFF" points="356.595 44.335 354.284 45.725 354.321 45.084 356.631 43.694"/>
      <polygon fill="#243985" points="357.687 38.251 352.471 41.35 352.504 39.505 357.72 36.406"/>
      <polygon fill="#BD1622" points="352.239 41.452 350.816 42.344 350.848 40.499 352.273 39.606"/>
      <path fill="#6597D0" d="M351.86801,44.8948158 C352.495124,44.4877505 353.013072,44.7459462 353.025531,45.4711038 C353.03799,46.1968429 352.539621,47.1162288 351.911914,47.5238755 C351.284207,47.9326853 350.765666,47.6739082 350.7538,46.947006 C350.742528,46.2206853 351.240896,45.301881 351.86801,44.8948158"/>
      <polygon fill="#FFFFFF" points="370.435 38.447 360.281 44.407 360.314 23.266 370.469 17.306"/>
      <polygon fill="#243985" points="369.643 38.097 361.283 43.072 361.391 25.137 369.751 20.163"/>
      <polygon fill="#B8BEC6" points="362.452 24.041 361.357 24.725 361.391 23.583 362.486 22.899"/>
      <polygon fill="#B8BEC6" points="364.688 24.492 361.843 26.203 361.877 25.413 364.721 23.703"/>
      <polygon fill="#B8BEC6" points="369.632 19.968 368.538 20.652 368.571 19.51 369.666 18.826"/>
      <polygon fill="#BD1622" points="366.143 21.943 362.741 23.907 362.774 22.765 366.177 20.802"/>
      <polygon fill="#FFFFFF" points="365.999 33.464 363.082 35.136 363.119 34.496 366.036 32.824"/>
      <polygon fill="#FFFFFF" points="365.377 34.779 363.066 36.111 363.104 35.471 365.414 34.138"/>
      <polygon fill="#FFFFFF" points="365.999 36.566 363.082 38.238 363.119 37.597 366.036 35.926"/>
      <polygon fill="#FFFFFF" points="365.377 37.88 363.066 39.213 363.104 38.573 365.414 37.24"/>
      <path stroke="#E5332A" stroke-width=".5" d="M365.626843,26.5152397 C366.752919,25.8115984 367.684394,26.2983321 367.706939,27.6026853 C367.729485,28.9076201 366.833607,30.5376255 365.705752,31.2430114 C364.576709,31.9483973 363.644641,31.4605005 363.623876,30.1538212 C363.602517,28.8477234 364.499581,27.218881 365.626843,26.5152397 Z"/>
      <path fill="#ECBC9A" d="M127.896423,45.4141728 C127.896423,45.4141728 129.379663,51.0357435 129.379663,51.5201511 C129.379663,52.0045587 129.438993,52.9541837 128.884854,53.3618304 C128.489719,53.6525913 125.918374,54.234113 125.918374,54.234113 L127.896423,45.4141728 Z"/>
      <path fill="#A59081" d="M410.916634,65.0544299 C410.916634,65.0544299 415.07742,64.6636473 416.743988,63.3267288 C418.410557,61.9903918 419.880745,60.5249571 419.880745,60.5249571 C419.880745,60.5249571 418.441408,64.6089842 417.531886,65.3515875 C416.622956,66.0941908 413.809546,67.6654625 413.809546,67.6654625 L414.197562,65.5522125 L410.916634,65.0544299 Z"/>
      <polygon fill="#413329" points="412.68 53.737 412.766 52.515 420.913 52.103 420.149 52.839"/>
      <path fill="#ECECEC" d="M403.487677,48.0528859 C403.487677,48.0528859 404.684949,49.6968478 405.362493,50.1486902 C406.04063,50.5999511 410.307022,51.9170978 410.950155,52.2020435 C411.593288,52.4869891 412.535443,52.8097337 412.535443,52.8097337 C412.535443,52.8097337 412.578753,54.11525 411.719067,55.1416359 C410.761487,56.2843261 407.595066,54.5857011 407.061693,54.0099946 C406.845733,53.7768043 406.635113,51.8676685 406.337278,51.2710272 C406.039444,50.6738043 404.98219,50.3679239 404.98219,50.3679239 L404.051902,52.6614457 C404.051902,52.6614457 402.655876,52.0927174 402.898534,50.3871141 C403.140599,48.6809293 402.925233,47.9755435 403.487677,48.0528859"/>
      <path stroke="#43342A" stroke-width=".766" d="M403.487677,48.0528859 C403.487677,48.0528859 404.684949,49.6968478 405.362493,50.1486902 C406.04063,50.5999511 410.307022,51.9170978 410.950155,52.2020435 C411.593288,52.4869891 412.535443,52.8097337 412.535443,52.8097337 C412.535443,52.8097337 412.027581,54.4461359 411.167302,55.4725217 C410.209722,56.6157935 407.214763,55.4725217 407.061693,54.0099946 C407.029062,53.6965543 406.635113,51.8676685 406.337278,51.2710272 C406.039444,50.6738043 405.242647,50.8209293 405.242647,50.8209293 L403.901798,53.0312935 C403.901798,53.0312935 402.655876,52.0927174 402.898534,50.3871141 C403.140599,48.6809293 402.925233,47.9755435 403.487677,48.0528859 Z"/>
      <path fill="#EDCBB4" d="M405.503994,51.2495109 C405.503994,51.2495109 404.123394,53.7709891 403.265488,54.7043315 C402.498356,55.5382337 402.541073,56.2302446 403.81488,56.7989728 C405.08928,57.3671196 407.21506,58.0823913 407.21506,58.0823913 L405.503994,51.2495109 Z"/>
    </g>
  </g>
</svg>
