<svg xmlns="http://www.w3.org/2000/svg" xmlns:xlink="http://www.w3.org/1999/xlink" width="120" height="120" viewBox="0 0 120 120">
  <defs>
    <path id="eduardo-a" d="M120,59.9999233 C120,93.1369885 93.1369885,120 59.9999233,120 C26.8628581,120 0,93.1369885 0,59.9999233 C0,26.8628581 26.8628581,0 59.9999233,0 C93.1369885,0 120,26.8628581 120,59.9999233"/>
  </defs>
  <g fill="none" fill-rule="evenodd">
    <mask id="eduardo-b" fill="#fff">
      <use xlink:href="#eduardo-a"/>
    </mask>
    <use fill="#7BCAEC" xlink:href="#eduardo-a"/>
    <g mask="url(#eduardo-b)">
      <g transform="translate(-4 7)">
        <path fill="#6A8DA4" d="M16.677285,94.6436566 C17.4343009,94.0696239 24.8142836,90.2425477 24.8142836,90.2425477 C24.8142836,90.2425477 23.4895767,86.7983514 25.7603406,84.8851003 C28.0311045,82.9715622 29.5451364,80.2928385 29.5451364,80.2928385 C29.5451364,80.2928385 29.7341775,79.3359259 31.6265753,78.1878605 C33.5189732,77.039795 34.4650302,77.039795 34.4650302,77.039795 C34.4650302,77.039795 34.0866642,75.5091367 36.5464692,74.5525112 C39.0065581,73.5955986 42.4127039,73.7870386 42.4127039,73.7870386 L48.4679798,75.1265439 C48.4679798,75.1265439 77.7988696,74.935104 78.3665605,75.3176968 C78.9342515,75.7005767 81.3940565,77.039795 82.1510724,78.3793004 C82.9080884,79.7188057 86.3142342,79.3359259 86.3142342,79.3359259 C86.3142342,79.3359259 87.8279822,79.9099586 88.0173072,82.0149366 C88.2063483,84.1196276 89.7203801,87.563824 89.7203801,87.563824 C89.7203801,87.563824 92.937201,89.2859222 95.3972899,90.6254275 C97.8570949,91.9646459 103.72333,92.3475257 106.37246,96.1743149 C109.021873,100.001104 112.049369,104.976246 113.752442,115.882868 C115.455515,126.789489 114.396204,119.715971 114.396204,119.715971 L0.207434284,119.715971 C0.207434284,119.715971 0.403571517,113.012704 5.70211527,105.358839 C11.0003752,97.7049732 16.677285,94.6436566 16.677285,94.6436566"/>
        <path fill="#496474" d="M45.3930816 76.2746094C45.3930816 76.2746094 42.4127039 75.8917295 41.4666469 76.0831695 40.5203061 76.2746094 41.4666469 77.9967076 40.8989559 78.3793004 40.331265 78.7618932 37.6818512 81.4409039 37.6818512 81.4409039L41.6321288 82.8042316 45.3930816 76.2746094zM29.7341775 91.5820531C29.7341775 91.5820531 37.4928101 93.4955912 40.709631 94.2607768 43.9264519 95.0262494 53.1988325 96.3657548 53.1988325 96.3657548 53.1988325 96.3657548 58.4973763 98.087853 60.7681402 99.2359184 63.0389041 100.383984 67.958798 102.297235 67.391107 102.297235 66.823416 102.297235 59.6327582 99.6185113 52.8204665 98.4704458 46.0081748 97.3223804 45.6295249 97.7049732 42.223379 96.5569077 38.8172331 95.4088423 29.7341775 91.5820531 29.7341775 91.5820531M86.5032753 98.6618857C86.6926003 97.7049732 88.9633642 95.4088423 88.5849981 92.7301185 88.2063483 90.0513948 87.8279822 86.7983514 87.8279822 86.7983514 87.8279822 86.7983514 90.2880711 90.2425477 90.4771122 93.1127114 90.6664371 95.982875 86.5032753 98.6618857 86.5032753 98.6618857"/>
        <path fill="#DBA47E" d="M41.7030902,79.8143822 C42.1288584,79.2403495 44.6834679,76.6572022 45.3930816,75.5091367 C46.1026953,74.3610713 46.8225275,73.4816531 46.8225275,73.4816531 L44.1157769,60.7995481 C44.1157769,60.7995481 43.76097,61.3018268 43.0513563,61.3735808 C42.3417426,61.4453349 41.277322,61.517089 40.9934765,60.8713022 C40.709631,60.2255154 40.4967469,59.149204 40.4967469,59.149204 C40.4967469,59.149204 39.3613649,57.7858763 39.0775194,56.4225486 C38.7936739,55.0592208 38.225983,53.1218604 38.225983,53.1218604 C38.225983,53.1218604 37.8002147,51.4715163 37.7292534,50.6104672 C37.658292,49.7494181 37.4454079,46.7357463 37.8002147,46.0899595 C38.1550216,45.4441727 38.5807898,44.7983859 39.4323263,45.0854022 C40.2838628,45.3724186 41.7030902,45.5876809 41.7030902,45.5876809 C41.7030902,45.5876809 41.7740516,34.8963213 41.7740516,34.4657968 C41.7740516,34.0352722 39.4323263,26.5728468 41.5611675,23.4156668 C43.6900086,20.2584868 50.0055708,14.1593891 57.2436308,13.5136023 C64.4816907,12.8678154 72.5712872,11.2174713 76.4741627,13.6571104 C80.3770381,16.0967495 83.9960681,21.7653227 84.8476046,23.9896995 C85.6991411,26.2140763 86.7635616,33.5329936 86.7635616,33.5329936 L86.7635616,44.4396154 C86.7635616,44.4396154 87.402214,44.152599 88.1118277,44.3678613 C88.8214414,44.5831236 89.2472097,44.8701399 89.3891324,45.5876809 C89.5310552,46.3052218 89.885862,48.3860904 89.6729779,49.8211722 C89.4600938,51.256254 89.1052869,54.413434 89.0343256,55.202729 C88.9633642,55.992024 89.4600938,58.4316631 88.9633642,59.149204 C88.4666346,59.8667449 87.969905,60.3690236 87.5441367,60.3690236 C87.1183685,60.3690236 86.1958707,60.6560399 86.1958707,60.6560399 C86.1958707,60.6560399 85.4152956,64.9612854 84.2799136,67.4726786 C83.1445317,69.9840717 80.3060768,75.9396613 80.3060768,75.9396613 C80.3060768,75.9396613 80.164154,79.8861363 80.3060768,81.4647263 C80.4479995,83.0433163 80.731845,86.9897913 80.731845,86.9897913 L82.0091497,96.1743149 C82.0091497,96.1743149 79.5255017,98.1116754 77.6095446,98.3986917 C75.6935876,98.6857081 72.5003258,99.1879867 70.3005233,98.9727244 C68.1007207,98.7574622 63.2753474,97.2506263 63.2753474,97.2506263 C63.2753474,97.2506263 56.1082488,91.0797744 54.5470986,90.2904794 C52.9859484,89.5011845 48.8701888,87.2050535 48.6573047,87.0615454 C48.4444206,86.9180372 44.8253906,83.5455949 43.9028928,83.1868245 C42.9803949,82.828054 41.6321288,82.038759 41.6321288,82.038759 L41.7030902,79.8143822 Z"/>
        <path fill="#BA756C" d="M59.5246699,64.2459832 C59.5246699,64.2459832 61.3753425,63.3103099 62.5064667,62.9983231 C63.6373072,62.6863363 65.2821918,62.4785364 65.6934839,62.5824364 C66.1050599,62.6863363 67.2359003,62.8944231 67.2359003,62.8944231 C67.2359003,62.8944231 68.3667407,62.2704496 69.292077,62.4785364 C70.2176971,62.6863363 71.3485376,62.5824364 72.1711218,62.8944231 C72.9934222,63.2064099 74.4328027,64.4540701 74.4328027,64.4540701 L73.1992102,66.3251297 C73.1992102,66.3251297 71.5543256,68.5087502 70.5259534,68.6126502 C69.497865,68.7162631 67.5444403,68.9243499 65.7965198,69.0282498 C64.0485993,69.1321498 62.1979267,68.0925765 61.6835987,67.6766898 C61.1698383,67.2610901 59.2161298,64.8696698 59.2161298,64.8696698 L59.5246699,64.2459832 Z"/>
        <path fill="#A67860" d="M60.8626607 54.413434C60.8626607 54.413434 61.85612 52.4760736 62.2109268 52.2608113 62.5657337 52.045549 61.5013131 53.8394013 61.7851586 54.6286963 62.0690041 55.4179913 62.3528496 55.2744831 62.7786178 55.3462372 63.204386 55.4179913 64.2688066 55.4897454 64.2688066 55.4897454 64.2688066 55.4897454 64.9784203 56.0637781 66.3976478 56.3507945 67.8168752 56.6378108 68.3136048 56.7095649 69.2361027 55.9202699 69.8679427 55.3798181 70.1586005 54.9874668 70.1586005 54.9874668 70.1586005 54.9874668 71.2230211 55.6332536 72.0745576 54.9874668 72.926094 54.3416799 72.8551327 53.4806308 72.8551327 53.4806308 72.8551327 53.4806308 73.2289572 53.8035243 73.4321905 54.5029831 73.6357078 55.202729 73.7716698 55.3803922 72.8874911 56.2245073 72.0035962 57.0683354 71.5332642 57.3714247 71.5332642 57.3714247 71.5332642 57.3714247 69.6990547 57.8039583 68.9042873 58.0513664 68.2644996 58.2502688 67.4166531 58.4632349 67.4166531 58.4632349L65.7589954 58.0011386C65.7589954 58.0011386 63.9599827 58.2166879 63.4834061 58.0100361 63.0068296 57.8036713 61.2174676 56.9248272 60.8626607 56.4225486 60.5078539 55.9202699 60.8626607 54.413434 60.8626607 54.413434M69.9169061 44.4527895C69.7491534 43.8592396 70.22573 42.3251372 70.6100568 40.2362321 70.9776367 38.2403203 72.3747242 37.1281319 73.5487091 36.7042087 74.7226941 36.2802855 77.5222621 37.078191 77.5222621 37.078191 77.5222621 37.078191 75.5350599 37.1608517 75.6190781 38.2629946 75.7028125 39.3651374 77.6358003 39.9793524 77.6358003 39.9793524 77.6358003 39.9793524 76.4575577 40.1286009 76.6253104 40.6371939 76.7930631 41.1460739 77.7076132 42.1443168 77.7076132 42.1443168L78.4521399 44.0968892C78.4521399 44.0968892 75.7868308 44.4527895 75.5350599 45.2156789 75.2835728 45.9788555 76.9653573 47.2021192 76.9653573 47.2021192 76.9653573 47.2021192 73.3548427 47.1659551 72.0133889 46.4877355 70.6713674 45.8095158 69.9169061 44.4527895 69.9169061 44.4527895M50.2348044 45.3853056C50.2348044 45.3853056 52.3914624 46.1484821 54.4039269 46.233152 56.4163915 46.3181088 59.4350882 45.0460523 59.9383463 45.5549323 60.4413205 46.0635253 59.35107 48.1834281 59.7705936 47.6748351 60.1898334 47.1659551 62.7890065 46.4877355 62.9567592 47.250912 63.1245119 48.0138015 63.3762829 50.2186612 63.4603011 49.7094941 63.5440355 49.2009012 64.2987807 44.7920428 63.3762829 42.4175564 62.453785 40.0436441 61.7830581 37.9237412 60.2735678 37.3304784 58.7643613 36.7366415 55.829399 37.7541145 56.0811699 37.8390714 56.3323732 37.9237412 58.1538097 40.4790479 57.1753943 40.4741686 55.9134173 40.4675672 52.9932149 41.2918782 52.9932149 41.2918782L54.4039269 42.4175564C54.4039269 42.4175564 51.497633 43.4743507 51.0219079 43.9209481 50.5467506 44.3678326 50.2348044 45.3853056 50.2348044 45.3853056"/>
        <path fill="#AAA3A4" d="M59.5471221 43.6693783C59.5471221 43.6693783 58.9709157 43.0086666 58.202546 42.7368621 57.4338924 42.4650576 55.9351882 42.0761505 54.7824917 42.2317133 53.6295113 42.3869892 52.2849352 43.3195053 52.1696939 43.3585396 52.0544527 43.3975738 51.0167136 44.2135613 51.0167136 44.2135613 51.0167136 44.2135613 51.4779625 44.5244 52.4384956 44.7571703 53.3993126 44.9905146 54.3598457 45.068009 55.6661027 44.9127332 56.9729273 44.7571703 58.3561064 43.980217 58.3561064 43.980217L59.5471221 43.6693783zM72.2272948 43.4751256C72.2272948 43.4751256 71.9968123 43.0477583 72.3811391 42.8144139 72.7654659 42.5813567 73.1111897 42.1152421 73.9181624 41.8818978 74.7251351 41.6491275 76.6462014 41.6100933 77.4531741 41.920932 78.2601469 42.2317707 79.0671196 42.9309426 79.0671196 42.9309426L79.6819289 43.7081829C79.6819289 43.7081829 79.1437579 43.902493 78.4523103 44.0968031 77.7605788 44.2911131 76.2235555 44.4076418 75.2630223 44.2911131 74.3024892 44.1745845 73.5721548 43.7859643 73.4569135 43.7081829 73.3419561 43.6304015 72.2272948 43.4751256 72.2272948 43.4751256"/>
        <path fill="#D8CECD" d="M51.5473343 44.3496358C51.5473343 44.3496358 53.4334876 43.7362818 54.8146797 43.4980582 56.1955881 43.2595476 58.3573553 43.8533845 58.3573553 43.8533845 58.3573553 43.8533845 56.7343268 44.9965707 55.0502715 45.0648806 53.3659324 45.1329034 51.8501975 44.5198365 51.5473343 44.3496358M72.8687289 43.327714C73.2056535 43.1913812 74.2161434 42.8509798 75.5970517 42.782957 76.9782439 42.7146471 79.0216475 43.8121976 79.0216475 43.8121976 79.0216475 43.8121976 77.8876848 44.6560257 75.6981007 44.3497793 73.5088004 44.0429588 72.8687289 43.327714 72.8687289 43.327714"/>
        <path fill="#251310" d="M56.7269468,42.9005476 C57.0743737,43.7897243 56.6426447,44.7951426 55.7632914,45.1461636 C54.8842219,45.4974716 53.8896273,45.0612067 53.5422004,44.17203 C53.1950574,43.2828534 53.6265025,42.277435 54.5058559,41.926127 C55.3849253,41.575106 56.3795199,42.0110838 56.7269468,42.9005476"/>
        <path stroke="#1D0500" stroke-width=".52" d="M56.7269468,42.9005476 C57.0743737,43.7897243 56.6426447,44.7951426 55.7632914,45.1461636 C54.8842219,45.4974716 53.8896273,45.0612067 53.5422004,44.17203 C53.1950574,43.2828534 53.6265025,42.277435 54.5058559,41.926127 C55.3849253,41.575106 56.3795199,42.0110838 56.7269468,42.9005476 Z"/>
        <path fill="#1D0500" d="M56.8791164,43.2979791 C56.8791164,43.2979791 56.0508552,43.0732453 55.1459558,43.1596372 C54.3100309,43.2391408 53.3812884,43.6182894 53.4014414,43.7084125 C53.2896063,42.7374362 53.9770801,41.858305 54.9376132,41.7452206 C55.8978625,41.6318491 56.7672813,42.3272898 56.8791164,43.2979791"/>
        <path fill="#221F20" d="M55.7897458,43.2747308 C55.9325201,43.6403896 55.7551166,44.0542672 55.3934975,44.1986365 C55.0315945,44.3430057 54.6225731,44.1636205 54.479515,43.7976746 C54.3367407,43.4320158 54.5141441,43.0181382 54.8757633,42.8740559 C55.2376663,42.7296867 55.6466876,42.9090719 55.7897458,43.2747308"/>
        <path fill="#FEFEFE" d="M56.2776194,43.122526 C56.2824448,43.2915787 56.1507405,43.4319297 55.9835555,43.4368089 C55.8166543,43.4411142 55.6778539,43.3079386 55.6730285,43.13946 C55.668487,42.9706944 55.7999074,42.8297693 55.9670924,42.8254641 C56.1339936,42.8205848 56.2730779,42.9537604 56.2776194,43.122526"/>
        <path fill="#251310" d="M76.9404073,42.2239352 C77.2875503,43.1131119 76.8561051,44.1185302 75.9767518,44.4695512 C75.0973985,44.8208592 74.1030877,44.3845944 73.7556609,43.4954177 C73.4085178,42.606241 73.8396791,41.6008227 74.7193163,41.2495146 C75.5983858,40.8984936 76.5929804,41.3344715 76.9404073,42.2239352"/>
        <path stroke="#1D0500" stroke-width=".52" d="M76.9404073,42.2239352 C77.2875503,43.1131119 76.8561051,44.1185302 75.9767518,44.4695512 C75.0973985,44.8208592 74.1030877,44.3845944 73.7556609,43.4954177 C73.4085178,42.606241 73.8396791,41.6008227 74.7193163,41.2495146 C75.5983858,40.8984936 76.5929804,41.3344715 76.9404073,42.2239352 Z"/>
        <path fill="#1D0500" d="M77.0925768,42.6213667 C77.0925768,42.6213667 76.2643157,42.3966329 75.3594163,42.4830249 C74.5234913,42.5625284 73.5947489,42.941677 73.6149019,43.0318001 C73.5030668,42.0608238 74.1905405,41.1816927 75.1510737,41.0686082 C76.111323,40.9552368 76.9804579,41.6506774 77.0925768,42.6213667"/>
        <path fill="#221F20" d="M76.0029224,42.5981184 C76.1459805,42.9637773 75.9685771,43.3776549 75.6066741,43.5220241 C75.2450549,43.6663933 74.8360336,43.4870081 74.6929754,43.1210622 C74.5502012,42.7554034 74.7276046,42.3415258 75.0892237,42.1974436 C75.4511267,42.0530743 75.8601481,42.2324596 76.0029224,42.5981184"/>
        <path fill="#FEFEFE" d="M76.4910798,42.4459136 C76.4956214,42.6149663 76.3642009,42.7553173 76.1970159,42.7601966 C76.0301148,42.7645018 75.8910305,42.6313262 75.886489,42.4628476 C75.8819474,42.294082 76.0133679,42.1531569 76.180269,42.1488517 C76.347454,42.1439724 76.4862545,42.277148 76.4910798,42.4459136"/>
        <path fill="#4F392E" d="M72.1335974 41.0508993C72.1335974 41.0508993 73.2746563 40.0205106 74.2530717 39.8144328 75.2312033 39.6086421 76.9427916 39.7320591 77.6359422 39.9794672 78.3288091 40.2268753 78.8584648 40.3916227 79.3886881 40.8448216 79.9183438 41.2983074 80.2850722 41.8752103 80.4891571 42.2049921 80.6926743 42.5347739 80.6112107 42.7408517 80.6112107 42.7408517 80.6112107 42.7408517 80.0403974 41.834167 79.5107417 41.3396378 78.9808022 40.8448216 78.5326101 40.5153268 77.3098038 40.185545 76.0869974 39.8557632 74.9865284 39.7733895 74.0901444 40.1031713 73.1931926 40.4329531 72.1335974 41.0508993 72.1335974 41.0508993M58.7241121 41.1333304C58.7241121 41.1333304 57.9906553 40.4740538 57.1754511 40.4740538 56.3602468 40.4740538 54.8115858 40.6801316 53.5887795 41.0509567 52.3662569 41.4220689 51.8769073 41.6281466 51.3472516 42.0813455 50.8173121 42.5348313 49.8388967 43.8123411 49.8388967 43.8123411 49.8388967 43.8123411 51.2246304 42.5758746 51.7545699 42.1637191 52.2845094 41.7515637 53.7925805 41.1749478 55.1783142 40.968583 56.5640479 40.7625053 57.3792521 40.7625053 57.8683179 40.9272527 58.3573837 41.092 58.7241121 41.1333304 58.7241121 41.1333304M56.5639627 42.2048773C56.5639627 42.2048773 57.9091065 42.4936158 58.6019733 42.7820672 59.2948402 43.0705186 59.6209786 43.5240045 59.783906 43.6474215 59.9471171 43.7711256 59.4577675 44.1832811 59.4577675 44.1832811 59.4577675 44.1832811 58.9281118 44.1006204 58.5610996 44.1419507 58.1943712 44.1832811 56.8495113 44.6778103 56.8495113 44.6778103 56.8495113 44.6778103 57.9905702 43.9772033 58.3572985 43.8534993 58.7240269 43.7297952 59.0910391 43.7711256 59.1319129 43.6063782 59.1725028 43.4416308 59.0703184 43.5142459 58.4895705 43.1069697 57.9091065 42.6996935 56.5639627 42.4522854 56.5639627 42.4522854L56.5639627 42.2048773zM51.3471949 44.2243531C51.3471949 44.2243531 51.7953869 44.5541349 52.0806516 44.677839 52.3662002 44.801543 53.0181933 44.9249601 53.0181933 44.9249601 53.0181933 44.9249601 52.2435789 44.9249601 51.6730495 44.7602127 51.1025201 44.5954653 50.898719 44.2656835 50.898719 44.2656835L51.3471949 44.2243531zM71.8891213 42.9880014C71.8891213 42.9880014 72.4596507 42.5758459 72.9487165 42.4110986 73.4377823 42.2460641 74.0900592 41.9165694 74.0900592 41.9165694 74.0900592 41.9165694 74.2938603 41.5457442 74.1715229 41.6281179 74.0491855 41.7104916 73.3154449 41.7928653 72.5411144 42.2876815 71.7667839 42.7819237 71.318308 43.400444 71.318308 43.400444L71.8076577 43.7712691 72.8263791 43.7299387 74.1715229 44.0183902C74.1715229 44.0183902 73.1525176 43.523861 72.9081266 43.4828177 72.6634518 43.4414873 71.4812353 43.523861 71.8891213 42.9880014M78.1248377 44.0595483C78.1248377 44.0595483 78.8177046 43.8948009 79.0215056 43.8124272 79.2253067 43.7300535 79.3550241 43.5512424 79.3550241 43.5512424L80.2849019 43.8124272 79.4699815 44.018218C79.143843 44.1008787 78.6141873 44.3066694 78.1248377 44.0595483"/>
        <path fill="#39292C" d="M57.3190201 38.0448047C57.3190201 38.0448047 55.1521437 37.9159344 53.7499469 38.1093834 52.3477502 38.3025454 49.9259805 39.5269572 49.416194 39.8492766 48.9061237 40.171596 47.6316574 42.4915492 47.3767642 42.8781603 47.1218709 43.2647713 46.3571912 44.1671508 46.3571912 44.1671508 46.3571912 44.1671508 46.6118006 40.558207 46.9944243 39.7846979 47.3767642 39.0114758 48.5240676 37.593902 49.416194 37.0781336 50.3086042 36.5626522 52.4116155 35.5314024 54.1322868 35.4025321 55.853242 35.2739488 58.8486635 35.4671108 59.9321017 35.8537218 61.0152561 36.2403328 62.9275231 37.1424253 62.1625595 37.400453 61.3978798 37.6581937 59.9959669 37.7227724 59.35845 37.787351 58.720933 37.8513557 57.3190201 38.0448047 57.3190201 38.0448047M70.5117611 37.5938159C70.5117611 37.5938159 73.2520054 37.5292372 73.825941 37.5292372 74.3993089 37.5292372 76.3112921 36.9494642 77.522177 37.0780475 78.7330618 37.2069179 80.0078119 37.2714965 80.5175984 37.5938159 81.0276688 37.9158483 82.0472418 39.0759684 82.4295816 39.6560285 82.8119215 40.2360886 83.959225 41.9759817 84.0230902 41.6539494 84.0866716 41.331343 84.1505368 40.2360886 83.3855732 38.8825194 82.6208935 37.5292372 81.9197951 36.1116634 80.9638035 35.6604737 80.0078119 35.209284 78.0958287 35.3384413 75.8015056 34.8226729 74.3485006 34.4960483 73.2534247 34.5574698 72.4027397 34.7443175 72.1566457 34.7985635 71.9307047 35.3513571 71.7226459 35.420241 71.5145872 35.4891249 71.3241269 35.0740993 71.1489942 35.1449923 70.3528076 35.4670247 70.0556214 35.9842281 70.1192028 36.3062605 70.183068 36.6285799 70.5117611 37.5938159 70.5117611 37.5938159"/>
        <path fill="#4F392E" d="M70.7027323,43.1359871 L71.9774824,41.7184133 C71.9774824,41.7184133 71.4041145,41.8472836 71.085356,42.1047373 C70.7665976,42.362765 70.7027323,43.1359871 70.7027323,43.1359871"/>
        <path fill="#A67860" d="M53.6828175,42.3377085 C53.6828175,42.3377085 54.4347242,42.1161318 55.0929619,42.1161318 C55.7509157,42.1161318 56.6912958,42.2427061 56.6912958,42.2427061 C56.6912958,42.2427061 56.3776466,41.3555385 55.2496446,41.4189691 C54.1213588,41.4823997 53.6828175,42.3377085 53.6828175,42.3377085"/>
        <path fill="#1D0500" d="M50.5829693,44.7725831 C50.5051956,44.8509386 50.7294335,44.1804683 51.0220782,43.9210055 C51.3150068,43.6621168 52.1202764,42.9589267 52.9621622,42.6257007 C53.8043317,42.2924747 54.9757621,41.9222236 55.9272121,42.070324 C56.8792299,42.2187115 57.6112674,42.5886756 57.7574479,42.6624388 C57.9039121,42.736489 58.5993336,43.1437652 58.4894854,43.1067401 C58.379921,43.069715 56.5860175,42.2924747 55.5247192,42.3665249 C54.4631371,42.4405751 53.5843515,42.736489 52.7790818,43.1807903 C51.9738122,43.6250917 50.6928175,44.6615078 50.5829693,44.7725831"/>
        <path fill="#A67860" d="M53.5259361 44.9993547C53.5259361 44.9993547 54.3408565 45.1262159 55.1869999 45.0946441 56.0328594 45.0630723 56.753827 44.7459193 56.753827 44.7459193 56.753827 44.7459193 56.2837788 45.5380844 55.4061286 45.5696562 54.5287622 45.601515 53.5259361 44.9993547 53.5259361 44.9993547M73.5500432 43.8142929C73.5500432 43.8142929 74.5156855 44.3401068 75.1696656 44.4724214 75.8239294 44.6047359 76.6961866 44.4724214 76.6961866 44.4724214 76.6961866 44.4724214 75.7322473 45.185083 74.7731334 45.096969 73.8137357 45.0085679 73.5500432 43.8142929 73.5500432 43.8142929M73.677575 41.7751851C73.677575 41.7751851 74.733764 41.5180184 75.4314563 41.562219 76.1291485 41.6061325 77.219399 41.7823605 77.219399 41.7823605 77.219399 41.7823605 76.8736752 40.7976074 75.7803024 40.7683317 73.8581007 40.7166688 73.677575 41.7751851 73.677575 41.7751851"/>
        <path fill="#1D0500" d="M72.9125262,42.1073204 C72.9125262,42.1073204 73.8276441,41.5152057 75.0720227,41.4411555 C76.3166852,41.3671052 76.5363816,41.4411555 77.4881155,41.7003312 C78.4401333,41.95922 78.9888066,42.5886469 79.3915834,42.8848478 C79.7943601,43.1807616 80.4897816,43.8101885 80.4897816,43.8101885 C80.4897816,43.8101885 79.5380476,43.6991132 79.3549673,43.5510127 C79.1721708,43.4031993 78.4401333,42.4035213 77.7078119,42.1443455 C76.9754906,41.8854568 75.767728,41.6633061 75.1452548,41.8114066 C74.5230655,41.95922 72.9125262,42.1073204 72.9125262,42.1073204"/>
        <path fill="#4B2D20" d="M65.3975466 57.6703809C65.3975466 57.6703809 64.5803554 57.1881934 63.6953252 56.9818287 62.810295 56.7751769 61.9249809 56.7751769 62.1290658 56.70658 62.3334345 56.637409 63.0143799 56.0866246 63.6953252 56.3621603 64.3762705 56.637409 65.3975466 57.6703809 65.3975466 57.6703809M69.7555683 57.3261909C69.7555683 57.3261909 70.597454 56.5848276 71.3033778 56.2963762 72.1759188 55.9396148 72.274697 56.3623899 72.206858 56.5684677 72.138735 56.7751195 69.7555683 57.3261909 69.7555683 57.3261909"/>
        <path fill="#4B2D20" d="M61.3801962 53.6768352C61.3801962 53.6768352 61.0398655 54.2965036 61.0398655 54.9161719 61.0398655 55.5361272 61.1077046 56.1557956 61.5161582 56.637409 61.9248957 57.1195965 63.0824176 57.7389778 63.0824176 57.7389778L63.559278 57.9456296C63.559278 57.9456296 62.0611416 57.6703809 61.5161582 57.1881934 60.9717426 56.70658 60.1545514 55.8802599 60.3586363 55.3980724 60.5630051 54.9161719 61.3801962 53.6768352 61.3801962 53.6768352M71.4578181 57.3948739C71.4578181 57.3948739 72.4109712 56.7752056 72.8875478 56.2244212 73.3644082 55.6736368 73.7728619 55.0539684 73.4322473 54.503184 73.0919166 53.9523996 72.6596199 52.9337786 72.6596199 52.9337786 72.6596199 52.9337786 74.0745897 53.9710557 73.8977539 55.115677 73.7365297 56.1586944 72.3428483 56.9129734 71.4578181 57.3948739M65.7589954 58.0011386C65.7589954 58.0011386 66.8943774 58.324032 67.3556263 58.324032 67.8168752 58.324032 69.1651413 57.8217533 69.1651413 57.8217533 69.1651413 57.8217533 68.0297593 58.7186795 67.4975491 58.6828024 66.9653388 58.6469254 65.7589954 58.0011386 65.7589954 58.0011386"/>
        <path fill="#D78C80" d="M62.7284623 67.418576C62.7284623 67.418576 61.5465297 65.8626603 62.1684351 65.5515345 62.7906245 65.2401218 64.3455301 65.3024043 64.6569086 65.4269694 64.9680032 65.5515345 68.1399766 65.7383822 68.9486524 65.6760996 69.757612 65.6138171 72.3076799 64.6801529 72.7430989 64.928996 73.1785178 65.1778392 72.9920313 66.2360686 72.4941664 66.6717594 71.9965852 67.1074502 71.3125176 67.7299887 70.5660039 67.9165494 69.8194903 68.103397 66.4604628 68.3522402 65.4031383 68.2276751 64.3455301 68.103397 62.7284623 67.418576 62.7284623 67.418576M63.3931717 62.7674471C63.5796582 62.7045905 65.4456584 62.5788774 65.8813612 62.7045905 66.3167802 62.8305907 67.0976391 63.0214566 67.2358719 62.8943083 67.3741047 62.7674471 69.0536184 62.2643074 69.4893212 62.4528772 69.9244564 62.642021 71.5562841 62.4551733 72.1710934 62.8943083 72.7859028 63.3337304 73.8432272 63.7108699 73.5942947 64.0254398 73.3456461 64.3400098 72.1018351 64.0885834 71.2307133 64.0254398 70.3598754 63.9625832 68.7428076 64.2771532 68.5557534 64.3400098 68.3692669 64.4028663 66.8765235 64.0254398 66.6278749 64.151153 66.3789424 64.2771532 65.2591719 64.5914361 64.388334 64.4657229 63.517496 64.3400098 61.6514957 64.0885834 62.211239 63.7108699 62.7712662 63.3337304 63.3931717 62.7674471 63.3931717 62.7674471"/>
        <path fill="#553F38" d="M76.4220486,73.7475164 C75.7643786,74.2796447 72.6071652,75.3439014 71.2256893,74.5457089 C69.8444971,73.7475164 68.0684759,73.2153881 68.0684759,72.6169589 C68.0684759,72.0182428 68.134328,71.5527023 68.5947254,71.2866381 C69.0551228,71.0205739 70.5680193,71.5527023 71.0284166,71.0205739 C71.488814,70.4887326 71.488814,69.4907767 71.488814,69.4907767 C71.488814,69.4907767 67.081829,69.6239523 66.7531359,69.6239523 C66.4238751,69.6239523 62.8062643,69.5573645 62.8062643,69.5573645 C62.8062643,69.5573645 62.0827422,70.1557936 62.4117191,70.355557 C62.740696,70.5550334 65.2399556,71.4198137 65.5692163,71.6855908 C65.8979094,71.951655 66.2266025,73.1488003 65.9634777,73.2819759 C65.7006368,73.4151515 62.8721165,74.2796447 61.8199013,73.9469928 C60.7674022,73.6146278 58.3992793,71.5527023 58.1361545,70.8210976 C57.8730297,70.0894929 57.2153597,67.5620268 57.2809281,66.9633106 C57.3470641,66.3645945 58.004734,65.5003882 58.004734,65.5003882 L58.1361545,64.3695437 C58.3334271,64.1031926 59.1886536,63.3052871 60.8329705,62.5736824 C62.4775713,61.8420777 64.7139899,61.1104729 65.1743873,61.2436485 C65.6347846,61.3762501 66.5555794,61.7754899 67.3449537,61.7091891 C68.134328,61.6423143 68.4633049,61.1767737 68.9237023,61.2436485 C69.3840997,61.3099493 70.6997236,61.1104729 72.0809157,61.5760135 C73.4621079,62.041554 74.6460274,62.7731587 75.1725608,63.5047634 C75.6985265,64.2363682 76.9482982,68.4931078 77.0797186,69.8234287 C77.2114229,71.1537495 77.0797186,73.2153881 76.4220486,73.7475164 M87.0778921,53.0625341 C87.0123238,53.4614869 86.4857904,56.0555407 86.2888017,56.7871455 C86.0912452,57.5187502 85.3677231,59.5140879 85.3677231,59.5140879 C85.3677231,59.5140879 84.1179514,60.3122804 83.5258497,60.445169 C82.933748,60.5783446 81.2238628,63.4381756 81.2238628,63.4381756 C81.2238628,63.4381756 79.3822732,66.1651181 78.8557398,65.7661654 C78.3297742,65.3672126 78.0666494,63.5047634 77.8032408,62.9726351 C77.540116,62.4405068 76.6193212,60.5783446 76.2906282,60.1793919 C75.9616512,59.7801521 73.0017105,58.5830068 72.8044379,58.4498313 C72.6071652,58.3169427 70.7652919,57.9179899 70.2390423,57.7848143 C69.7127928,57.6519258 68.7715612,58.0721177 68.7715612,58.0721177 C68.7715612,58.0721177 67.95806,58.7494763 67.4976626,58.6828885 C67.0372652,58.6163007 65.759109,58.0012247 65.759109,58.0012247 L63.0693891,58.0508785 C63.0693891,58.0508785 59.4517784,59.2480238 58.4651314,59.7801521 C57.4784845,60.3122804 55.7024633,62.1747296 55.7024633,62.1747296 C55.3076342,63.3052871 55.5051907,66.0322295 55.5710428,66.2982937 C55.6366111,66.5643579 54.7816685,67.0298984 54.3212711,66.8970098 C53.8608738,66.7638342 52.8742268,65.1674492 52.1504208,64.1700674 C51.4268987,63.1721115 48.3355375,62.1078548 46.9543453,61.4431249 C45.5728693,60.777821 43.9944045,56.6539699 43.7971319,55.656588 C43.5995755,54.6586321 42.5470764,51.3332605 42.5470764,51.3332605 L42.3498038,54.4594428 C42.3498038,54.4594428 43.4023029,61.6423143 43.7971319,63.3052871 C44.1916772,64.9679729 46.0991188,70.4887326 46.0991188,70.4887326 C46.0991188,70.4887326 46.2963915,72.6832597 46.822641,73.4814522 C47.3488905,74.2796447 51.9531482,79.001925 54.9133728,80.265658 C57.8730297,81.5293911 63.0693891,82.9926005 65.3058077,83.2586647 C67.5422263,83.5247288 71.9492114,82.7931241 73.4621079,82.194695 C74.9750043,81.5959789 79.2505689,77.6050163 79.7765346,77.0065872 C80.303068,76.4081581 82.7367592,73.1488003 83.657554,71.8853542 C84.5783488,70.6213342 86.4857904,63.4381756 86.8147674,61.9086654 C87.1434604,60.3788682 87.2751648,50.0029397 87.2751648,50.0029397 C87.2751648,50.0029397 87.1434604,52.6635814 87.0778921,53.0625341"/>
        <path fill="#A67860" d="M42.3134716 55.0586468C42.3134716 55.0586468 41.8269604 55.4099548 41.5490757 55.1286788 41.2709071 54.8479768 40.5760533 53.8637977 40.6455955 53.5124897 40.7148538 53.1611816 41.6186178 50.9824404 41.8965025 50.9124084 42.1746711 50.8420894 42.5470764 51.3334614 42.5470764 51.3334614L42.3134716 55.0586468zM40.4368839 47.2579152C40.4368839 47.2579152 39.6029458 51.3338346 39.4638615 51.9664186 39.3250611 52.5987157 39.8811144 54.2151918 39.9503727 54.6368189 40.0199148 55.0587329 40.2980834 55.972019 40.2980834 55.972019 40.2980834 55.972019 39.1167185 53.3719378 38.8385499 52.5987157 38.5606652 51.8257806 38.2129545 50.6312185 38.2824966 49.6473264 38.3520388 48.6631473 37.7959854 46.2037041 38.3520388 46.0630661 38.9078082 45.9227151 39.672488 46.4849801 39.672488 46.4849801L40.4368839 47.2579152z"/>
        <path fill="#2B1F1A" d="M42.6965494,50.730153 C42.6965494,50.730153 42.9803949,42.5978314 42.9803949,41.8326458 C42.9803949,41.0671731 42.6965494,38.0055696 42.6965494,38.0055696 C42.6965494,38.0055696 44.0212563,35.135406 44.2102974,33.3177313 C44.3996224,31.5000567 42.8858744,28.5340296 42.8858744,27.768844 C42.8858744,27.0033713 42.79107,25.9508823 42.79107,25.9508823 C42.79107,25.9508823 43.6426064,27.3859641 43.7374108,26.5249151 C43.8319314,25.663866 43.7374108,24.0376312 44.9673133,22.506686 C46.1972158,20.9760277 49.6033617,18.8713367 49.6033617,18.8713367 C49.6033617,18.8713367 56.7943033,16.2881894 58.5918968,16.4793423 C60.3894903,16.6707822 64.741977,17.8188477 68.0533185,17.0533751 C71.3649438,16.2881894 72.7841713,15.3312769 72.7841713,15.3312769 C72.7841713,15.3312769 75.8119511,15.8097332 76.2848377,16.192326 C76.7580081,16.5752058 80.5425201,20.401995 81.3940565,20.9760277 C82.245593,21.5500604 83.4757793,23.2721586 84.1379909,25.3768496 C84.8002024,27.4818276 86.0303887,34.3702203 85.7465433,34.8483896 C85.4626978,35.3268459 86.1249093,42.5978314 86.1249093,42.5978314 L87.1657707,49.677664 C87.1657707,49.677664 86.7871208,42.9807112 86.8819252,41.6412059 C86.9764458,40.3017005 87.3548118,35.996455 87.3548118,35.996455 C87.3548118,35.996455 87.4496162,28.821046 87.3548118,27.0033713 C87.2602913,25.1856967 85.9355844,24.5158005 85.8410638,23.7506149 C85.7465433,22.9851422 84.4218364,18.8713367 83.8541454,17.1492385 C83.2864544,15.4271403 81.3313267,12.2053817 80.5743107,11.439909 C79.8172948,10.6744364 78.5632655,9.85873588 78.5632655,9.85873588 L80.276273,9.40639809 C80.276273,9.40639809 80.276273,8.2015034 78.0421251,7.67454135 C77.1025966,7.45296472 76.0009922,7.48625862 76.0009922,7.48625862 C76.0009922,7.48625862 77.7040652,6.29083547 76.8525287,4.85575365 C76.0009922,3.42067183 73.7302283,2.55962274 73.7302283,2.55962274 L71.9326348,2.27260638 L71.8381143,3.32509538 C71.8381143,3.32509538 70.8917734,1.98559002 70.2295619,1.6029972 C69.5673504,1.22011738 67.958798,1.6029972 67.958798,1.6029972 C67.958798,1.6029972 68.904855,2.84663911 68.526489,3.22923192 C68.1481229,3.61211175 67.012741,2.94221556 67.012741,2.94221556 C67.012741,2.94221556 66.7288955,0.646084649 65.877359,0.167915388 C65.0258225,-0.31054089 62.9440997,0.5505082 62.9440997,0.5505082 L64.0794817,2.84663911 C64.0794817,2.84663911 60.6733358,1.07632218 59.8217993,1.07632218 C58.9702629,1.07632218 57.9296853,1.41155729 57.0781488,1.6029972 C56.2266124,1.7941501 53.5771986,2.84663911 54.3342145,2.84663911 C55.0912304,2.84663911 56.8888239,3.42067183 56.7943033,3.89912811 C56.699499,4.37729737 55.6589214,4.28172092 55.2802715,4.37729737 C54.9019055,4.47316084 53.0095076,4.37729737 51.5902801,4.7601772 C50.1710527,5.14277001 49.3195162,6.48227538 49.3195162,6.86486819 C49.3195162,7.24746101 50.9280686,7.15188456 50.8335481,7.43890092 C50.7387437,7.72591728 50.1710527,7.15188456 48.9411502,7.63034083 C47.7112477,8.1085101 46.1026953,8.34730771 46.0081748,9.11278035 C45.9133704,9.87796598 46.1972158,10.6434386 46.1972158,10.6434386 C46.1972158,10.6434386 47.0487523,9.87796598 47.6164433,10.1649823 C48.1841343,10.4519987 47.7112477,10.930455 47.7112477,10.930455 C47.7112477,10.930455 45.4404838,12.6525532 44.2102974,13.7050422 C42.9803949,14.7572442 39.9526151,20.401995 39.0065581,23.3677351 C38.060501,26.3337622 38.3443465,29.5865186 38.3443465,29.5865186 L40.4257855,40.7801568 L42.6965494,50.730153 Z"/>
        <path fill="#A67860" d="M87.9391361,55.5051582 C87.9391361,55.5051582 88.6652129,54.4957216 88.6652129,53.2113234 C88.6652129,51.9263511 88.3930051,50.7335111 88.3930051,50.7335111 C88.3930051,50.7335111 88.6652129,50.7335111 88.9374207,48.6227928 C89.2099124,46.5126485 88.3930051,44.9524275 88.3930051,44.9524275 C88.3930051,44.9524275 87.4852672,45.7784606 87.3947205,46.6960519 C87.3038899,47.6136433 87.5763816,49.3572677 87.5763816,49.3572677 L88.0299667,51.467699 C88.0299667,51.467699 88.2113439,52.7523842 88.1207972,53.3947269 C88.0299667,54.0370695 87.9391361,55.5051582 87.9391361,55.5051582"/>
        <path fill="#FEFEFE" d="M51.1173936 90.0513948C51.1173936 90.0513948 53.3881575 90.6254275 54.3342145 91.5820531 55.2802715 92.5386786 58.3080513 99.8099512 59.2541084 102.680115 60.2004492 105.550278 64.741977 125.641424 64.741977 125.641424 64.741977 125.641424 65.877359 130.042246 66.255725 130.616279 66.6340911 131.190311 68.526489 132.720969 67.391107 133.677882 66.255725 134.634508 65.1203431 135.782573 64.3633272 134.443068 63.6065951 133.103849 63.7956362 131.381751 63.6065951 130.616279 63.4172701 129.850806 58.8757423 105.741431 56.9833444 100.575137 55.0912304 95.4088423 51.1173936 90.0513948 51.1173936 90.0513948M81.2050154 87.9464168C81.3940565 87.1812312 81.7727064 84.8851003 81.7727064 84.8851003 81.7727064 84.8851003 82.9080884 84.8851003 83.2864544 86.6071985 83.6648204 88.3292966 86.5032753 101.14917 87.6386573 104.593366 88.7740392 108.037562 91.0448032 118.370151 91.0448032 118.370151 91.0448032 118.370151 92.1801851 121.240315 92.558835 122.38838 92.937201 123.536446 92.3695101 125.067391 90.8557621 124.684511 89.3417302 124.301919 89.3417302 119.135624 89.3417302 119.135624 89.3417302 119.135624 85.9355844 101.914642 84.6111613 97.3223804 83.2864544 92.7301185 81.2050154 87.9464168 81.2050154 87.9464168"/>
        <path fill="#DBA47E" d="M77.3098889 40.1856598C77.3098889 40.1856598 76.4430248 40.0966847 75.5358546 40.1581062 74.6284006 40.2192407 74.2650784 40.8004488 74.5372862 40.9838523 74.809494 41.1675428 76.292019 41.3512332 76.685145 41.4732152 77.0785549 41.5957712 77.7138011 41.6264819 77.7138011 41.6264819L77.3098889 40.1856598zM53.0045119 41.54451C53.0045119 41.54451 55.1441392 40.9882723 55.4498408 41.297389 55.7555424 41.6065056 53.6829026 42.3378233 53.6829026 42.3378233L53.0045119 41.54451z"/>
        <path fill="#6B322B" d="M59.0367962,64.0814654 C59.0367962,64.0814654 60.1980081,64.6965415 60.9167049,64.8081909 C61.6354017,64.9201272 63.0730791,64.7525097 63.2941947,64.8081909 C63.5153104,64.8644461 65.340153,65.3113305 65.7270344,65.2556494 C66.1141997,65.1996812 67.2200617,64.9760954 67.2200617,64.9760954 C67.2200617,64.9760954 68.8235049,65.1996812 69.0999704,65.143713 C69.3764359,65.0877448 71.1456448,64.7525097 71.1456448,64.7525097 C71.1456448,64.7525097 72.5833222,64.7525097 72.9702036,64.8081909 C73.3573689,64.8644461 74.6292805,64.1934018 74.8501123,64.3050512 C75.0712279,64.4169876 74.6843465,65.0877448 74.5185808,65.143713 C74.3525312,65.1996812 71.643226,65.0877448 71.4774602,65.0877448 C71.3114106,65.0877448 69.2103863,65.3672987 68.9339208,65.3672987 L67.1647118,65.3672987 C67.1647118,65.3672987 65.5059188,65.3672987 64.842288,65.4232669 C64.1789411,65.4792351 62.9623794,65.1996812 62.9623794,65.1996812 L60.4741898,65.1996812 C59.9768925,65.1996812 58.9260965,65.143713 58.8710305,64.9201272 C58.8156806,64.6965415 59.0367962,64.0814654 59.0367962,64.0814654"/>
      </g>
    </g>
  </g>
</svg>
