<svg xmlns="http://www.w3.org/2000/svg" xmlns:xlink="http://www.w3.org/1999/xlink" width="120" height="120" viewBox="0 0 120 120">
  <defs>
    <path id="eduardo-a" d="M120,59.9999233 C120,93.1369885 93.1369885,120 59.9999233,120 C26.8628581,120 0,93.1369885 0,59.9999233 C0,26.8628581 26.8628581,0 59.9999233,0 C93.1369885,0 120,26.8628581 120,59.9999233"/>
  </defs>
  <g fill="none" fill-rule="evenodd">
    <mask id="eduardo-b" fill="#fff">
      <use xlink:href="#eduardo-a"/>
    </mask>
    <use fill="#7BCAEC" xlink:href="#eduardo-a"/>
    <path fill="#628AA4" d="M12.677285,101.643657 C13.4343009,101.069624 20.8142836,97.2425477 20.8142836,97.2425477 C20.8142836,97.2425477 19.4895767,93.7983514 21.7603406,91.8851003 C24.0311045,89.9715622 25.5451364,87.2928385 25.5451364,87.2928385 C25.5451364,87.2928385 25.7341775,86.3359259 27.6265753,85.1878605 C29.5189732,84.039795 30.4650302,84.039795 30.4650302,84.039795 C30.4650302,84.039795 30.0866642,82.5091367 32.5464692,81.5525112 C35.0065581,80.5955986 38.4127039,80.7870386 38.4127039,80.7870386 L44.4679798,82.1265439 C44.4679798,82.1265439 73.7988696,81.935104 74.3665605,82.3176968 C74.9342515,82.7005767 77.3940565,84.039795 78.1510724,85.3793004 C78.9080884,86.7188057 82.3142342,86.3359259 82.3142342,86.3359259 C82.3142342,86.3359259 83.8279822,86.9099586 84.0173072,89.0149366 C84.2063483,91.1196276 85.7203801,94.563824 85.7203801,94.563824 C85.7203801,94.563824 88.937201,96.2859222 91.3972899,97.6254275 C93.8570949,98.9646459 99.7233296,99.3475257 102.37246,103.174315 C105.021873,107.001104 108.049369,111.976246 109.752442,122.882868 C111.455515,133.789489 110.396204,126.715971 110.396204,126.715971 L-3.79256572,126.715971 C-3.79256572,126.715971 -3.59642848,120.012704 1.70211527,112.358839 C7.00037517,104.704973 12.677285,101.643657 12.677285,101.643657" mask="url(#eduardo-b)"/>
    <path fill="#496474" d="M41.3930816 83.2746094C41.3930816 83.2746094 38.4127039 82.8917295 37.4666469 83.0831695 36.5203061 83.2746094 37.4666469 84.9967076 36.8989559 85.3793004 36.331265 85.7618932 33.6818512 88.4409039 33.6818512 88.4409039L37.6321288 89.8042316 41.3930816 83.2746094zM25.7341775 98.5820531C25.7341775 98.5820531 33.4928101 100.495591 36.709631 101.260777 39.9264519 102.026249 49.1988325 103.365755 49.1988325 103.365755 49.1988325 103.365755 54.4973763 105.087853 56.7681402 106.235918 59.0389041 107.383984 63.958798 109.297235 63.391107 109.297235 62.823416 109.297235 55.6327582 106.618511 48.8204665 105.470446 42.0081748 104.32238 41.6295249 104.704973 38.223379 103.556908 34.8172331 102.408842 25.7341775 98.5820531 25.7341775 98.5820531M82.5032753 105.661886C82.6926003 104.704973 84.9633642 102.408842 84.5849981 99.7301185 84.2063483 97.0513948 83.8279822 93.7983514 83.8279822 93.7983514 83.8279822 93.7983514 86.2880711 97.2425477 86.4771122 100.112711 86.6664371 102.982875 82.5032753 105.661886 82.5032753 105.661886" mask="url(#eduardo-b)"/>
    <path fill="#DBA47E" d="M37.7030902,86.8143822 C38.1288584,86.2403495 40.6834679,83.6572022 41.3930816,82.5091367 C42.1026953,81.3610713 42.8225275,80.4816531 42.8225275,80.4816531 L40.1157769,67.7995481 C40.1157769,67.7995481 39.76097,68.3018268 39.0513563,68.3735808 C38.3417426,68.4453349 37.277322,68.517089 36.9934765,67.8713022 C36.709631,67.2255154 36.4967469,66.149204 36.4967469,66.149204 C36.4967469,66.149204 35.3613649,64.7858763 35.0775194,63.4225486 C34.7936739,62.0592208 34.225983,60.1218604 34.225983,60.1218604 C34.225983,60.1218604 33.8002147,58.4715163 33.7292534,57.6104672 C33.658292,56.7494181 33.4454079,53.7357463 33.8002147,53.0899595 C34.1550216,52.4441727 34.5807898,51.7983859 35.4323263,52.0854022 C36.2838628,52.3724186 37.7030902,52.5876809 37.7030902,52.5876809 C37.7030902,52.5876809 37.7740516,41.8963213 37.7740516,41.4657968 C37.7740516,41.0352722 35.4323263,33.5728468 37.5611675,30.4156668 C39.6900086,27.2584868 46.0055708,21.1593891 53.2436308,20.5136023 C60.4816907,19.8678154 68.5712872,18.2174713 72.4741627,20.6571104 C76.3770381,23.0967495 79.9960681,28.7653227 80.8476046,30.9896995 C81.6991411,33.2140763 82.7635616,40.5329936 82.7635616,40.5329936 L82.7635616,51.4396154 C82.7635616,51.4396154 83.402214,51.152599 84.1118277,51.3678613 C84.8214414,51.5831236 85.2472097,51.8701399 85.3891324,52.5876809 C85.5310552,53.3052218 85.885862,55.3860904 85.6729779,56.8211722 C85.4600938,58.256254 85.1052869,61.413434 85.0343256,62.202729 C84.9633642,62.992024 85.4600938,65.4316631 84.9633642,66.149204 C84.4666346,66.8667449 83.969905,67.3690236 83.5441367,67.3690236 C83.1183685,67.3690236 82.1958707,67.6560399 82.1958707,67.6560399 C82.1958707,67.6560399 81.4152956,71.9612854 80.2799136,74.4726786 C79.1445317,76.9840717 76.3060768,82.9396613 76.3060768,82.9396613 C76.3060768,82.9396613 76.164154,86.8861363 76.3060768,88.4647263 C76.4479995,90.0433163 76.731845,93.9897913 76.731845,93.9897913 L78.0091497,103.174315 C78.0091497,103.174315 75.5255017,105.111675 73.6095446,105.398692 C71.6935876,105.685708 68.5003258,106.187987 66.3005233,105.972724 C64.1007207,105.757462 59.2753474,104.250626 59.2753474,104.250626 C59.2753474,104.250626 52.1082488,98.0797744 50.5470986,97.2904794 C48.9859484,96.5011845 44.8701888,94.2050535 44.6573047,94.0615454 C44.4444206,93.9180372 40.8253906,90.5455949 39.9028928,90.1868245 C38.9803949,89.828054 37.6321288,89.038759 37.6321288,89.038759 L37.7030902,86.8143822 Z" mask="url(#eduardo-b)"/>
    <path fill="#BA756C" d="M55.5246699,71.2459832 C55.5246699,71.2459832 57.3753425,70.3103099 58.5064667,69.9983231 C59.6373072,69.6863363 61.2821918,69.4785364 61.6934839,69.5824364 C62.1050599,69.6863363 63.2359003,69.8944231 63.2359003,69.8944231 C63.2359003,69.8944231 64.3667407,69.2704496 65.292077,69.4785364 C66.2176971,69.6863363 67.3485376,69.5824364 68.1711218,69.8944231 C68.9934222,70.2064099 70.4328027,71.4540701 70.4328027,71.4540701 L69.1992102,73.3251297 C69.1992102,73.3251297 67.5543256,75.5087502 66.5259534,75.6126502 C65.497865,75.7162631 63.5444403,75.9243499 61.7965198,76.0282498 C60.0485993,76.1321498 58.1979267,75.0925765 57.6835987,74.6766898 C57.1698383,74.2610901 55.2161298,71.8696698 55.2161298,71.8696698 L55.5246699,71.2459832 Z" mask="url(#eduardo-b)"/>
    <path fill="#A67860" d="M56.8626607 61.413434C56.8626607 61.413434 57.85612 59.4760736 58.2109268 59.2608113 58.5657337 59.045549 57.5013131 60.8394013 57.7851586 61.6286963 58.0690041 62.4179913 58.3528496 62.2744831 58.7786178 62.3462372 59.204386 62.4179913 60.2688066 62.4897454 60.2688066 62.4897454 60.2688066 62.4897454 60.9784203 63.0637781 62.3976478 63.3507945 63.8168752 63.6378108 64.3136048 63.7095649 65.2361027 62.9202699 65.8679427 62.3798181 66.1586005 61.9874668 66.1586005 61.9874668 66.1586005 61.9874668 67.2230211 62.6332536 68.0745576 61.9874668 68.926094 61.3416799 68.8551327 60.4806308 68.8551327 60.4806308 68.8551327 60.4806308 69.2289572 60.8035243 69.4321905 61.5029831 69.6357078 62.202729 69.7716698 62.3803922 68.8874911 63.2245073 68.0035962 64.0683354 67.5332642 64.3714247 67.5332642 64.3714247 67.5332642 64.3714247 65.6990547 64.8039583 64.9042873 65.0513664 64.2644996 65.2502688 63.4166531 65.4632349 63.4166531 65.4632349L61.7589954 65.0011386C61.7589954 65.0011386 59.9599827 65.2166879 59.4834061 65.0100361 59.0068296 64.8036713 57.2174676 63.9248272 56.8626607 63.4225486 56.5078539 62.9202699 56.8626607 61.413434 56.8626607 61.413434M65.9169061 51.4527895C65.7491534 50.8592396 66.22573 49.3251372 66.6100568 47.2362321 66.9776367 45.2403203 68.3747242 44.1281319 69.5487091 43.7042087 70.7226941 43.2802855 73.5222621 44.078191 73.5222621 44.078191 73.5222621 44.078191 71.5350599 44.1608517 71.6190781 45.2629946 71.7028125 46.3651374 73.6358003 46.9793524 73.6358003 46.9793524 73.6358003 46.9793524 72.4575577 47.1286009 72.6253104 47.6371939 72.7930631 48.1460739 73.7076132 49.1443168 73.7076132 49.1443168L74.4521399 51.0968892C74.4521399 51.0968892 71.7868308 51.4527895 71.5350599 52.2156789 71.2835728 52.9788555 72.9653573 54.2021192 72.9653573 54.2021192 72.9653573 54.2021192 69.3548427 54.1659551 68.0133889 53.4877355 66.6713674 52.8095158 65.9169061 51.4527895 65.9169061 51.4527895M46.2348044 52.3853056C46.2348044 52.3853056 48.3914624 53.1484821 50.4039269 53.233152 52.4163915 53.3181088 55.4350882 52.0460523 55.9383463 52.5549323 56.4413205 53.0635253 55.35107 55.1834281 55.7705936 54.6748351 56.1898334 54.1659551 58.7890065 53.4877355 58.9567592 54.250912 59.1245119 55.0138015 59.3762829 57.2186612 59.4603011 56.7094941 59.5440355 56.2009012 60.2987807 51.7920428 59.3762829 49.4175564 58.453785 47.0436441 57.7830581 44.9237412 56.2735678 44.3304784 54.7643613 43.7366415 51.829399 44.7541145 52.0811699 44.8390714 52.3323732 44.9237412 54.1538097 47.4790479 53.1753943 47.4741686 51.9134173 47.4675672 48.9932149 48.2918782 48.9932149 48.2918782L50.4039269 49.4175564C50.4039269 49.4175564 47.497633 50.4743507 47.0219079 50.9209481 46.5467506 51.3678326 46.2348044 52.3853056 46.2348044 52.3853056" mask="url(#eduardo-b)"/>
    <path fill="#AAA3A4" d="M55.5471221 50.6693783C55.5471221 50.6693783 54.9709157 50.0086666 54.202546 49.7368621 53.4338924 49.4650576 51.9351882 49.0761505 50.7824917 49.2317133 49.6295113 49.3869892 48.2849352 50.3195053 48.1696939 50.3585396 48.0544527 50.3975738 47.0167136 51.2135613 47.0167136 51.2135613 47.0167136 51.2135613 47.4779625 51.5244 48.4384956 51.7571703 49.3993126 51.9905146 50.3598457 52.068009 51.6661027 51.9127332 52.9729273 51.7571703 54.3561064 50.980217 54.3561064 50.980217L55.5471221 50.6693783zM68.2272948 50.4751256C68.2272948 50.4751256 67.9968123 50.0477583 68.3811391 49.8144139 68.7654659 49.5813567 69.1111897 49.1152421 69.9181624 48.8818978 70.7251351 48.6491275 72.6462014 48.6100933 73.4531741 48.920932 74.2601469 49.2317707 75.0671196 49.9309426 75.0671196 49.9309426L75.6819289 50.7081829C75.6819289 50.7081829 75.1437579 50.902493 74.4523103 51.0968031 73.7605788 51.2911131 72.2235555 51.4076418 71.2630223 51.2911131 70.3024892 51.1745845 69.5721548 50.7859643 69.4569135 50.7081829 69.3419561 50.6304015 68.2272948 50.4751256 68.2272948 50.4751256" mask="url(#eduardo-b)"/>
    <path fill="#D8CECD" d="M47.5473343 51.3496358C47.5473343 51.3496358 49.4334876 50.7362818 50.8146797 50.4980582 52.1955881 50.2595476 54.3573553 50.8533845 54.3573553 50.8533845 54.3573553 50.8533845 52.7343268 51.9965707 51.0502715 52.0648806 49.3659324 52.1329034 47.8501975 51.5198365 47.5473343 51.3496358M68.8687289 50.327714C69.2056535 50.1913812 70.2161434 49.8509798 71.5970517 49.782957 72.9782439 49.7146471 75.0216475 50.8121976 75.0216475 50.8121976 75.0216475 50.8121976 73.8876848 51.6560257 71.6981007 51.3497793 69.5088004 51.0429588 68.8687289 50.327714 68.8687289 50.327714" mask="url(#eduardo-b)"/>
    <path fill="#251310" d="M52.7269468,49.9005476 C53.0743737,50.7897243 52.6426447,51.7951426 51.7632914,52.1461636 C50.8842219,52.4974716 49.8896273,52.0612067 49.5422004,51.17203 C49.1950574,50.2828534 49.6265025,49.277435 50.5058559,48.926127 C51.3849253,48.575106 52.3795199,49.0110838 52.7269468,49.9005476" mask="url(#eduardo-b)"/>
    <path stroke="#1D0500" stroke-width=".52" d="M52.7269468,49.9005476 C53.0743737,50.7897243 52.6426447,51.7951426 51.7632914,52.1461636 C50.8842219,52.4974716 49.8896273,52.0612067 49.5422004,51.17203 C49.1950574,50.2828534 49.6265025,49.277435 50.5058559,48.926127 C51.3849253,48.575106 52.3795199,49.0110838 52.7269468,49.9005476 Z" mask="url(#eduardo-b)"/>
    <path fill="#1D0500" d="M52.8791164,50.2979791 C52.8791164,50.2979791 52.0508552,50.0732453 51.1459558,50.1596372 C50.3100309,50.2391408 49.3812884,50.6182894 49.4014414,50.7084125 C49.2896063,49.7374362 49.9770801,48.858305 50.9376132,48.7452206 C51.8978625,48.6318491 52.7672813,49.3272898 52.8791164,50.2979791" mask="url(#eduardo-b)"/>
    <path fill="#000" d="M51.7897458,50.2747308 C51.9325201,50.6403896 51.7551166,51.0542672 51.3934975,51.1986365 C51.0315945,51.3430057 50.6225731,51.1636205 50.479515,50.7976746 C50.3367407,50.4320158 50.5141441,50.0181382 50.8757633,49.8740559 C51.2376663,49.7296867 51.6466876,49.9090719 51.7897458,50.2747308" mask="url(#eduardo-b)"/>
    <path fill="#FEFEFE" d="M52.2776194,50.122526 C52.2824448,50.2915787 52.1507405,50.4319297 51.9835555,50.4368089 C51.8166543,50.4411142 51.6778539,50.3079386 51.6730285,50.13946 C51.668487,49.9706944 51.7999074,49.8297693 51.9670924,49.8254641 C52.1339936,49.8205848 52.2730779,49.9537604 52.2776194,50.122526" mask="url(#eduardo-b)"/>
    <path fill="#251310" d="M72.9404073,49.2239352 C73.2875503,50.1131119 72.8561051,51.1185302 71.9767518,51.4695512 C71.0973985,51.8208592 70.1030877,51.3845944 69.7556609,50.4954177 C69.4085178,49.606241 69.8396791,48.6008227 70.7193163,48.2495146 C71.5983858,47.8984936 72.5929804,48.3344715 72.9404073,49.2239352" mask="url(#eduardo-b)"/>
    <path stroke="#1D0500" stroke-width=".52" d="M72.9404073,49.2239352 C73.2875503,50.1131119 72.8561051,51.1185302 71.9767518,51.4695512 C71.0973985,51.8208592 70.1030877,51.3845944 69.7556609,50.4954177 C69.4085178,49.606241 69.8396791,48.6008227 70.7193163,48.2495146 C71.5983858,47.8984936 72.5929804,48.3344715 72.9404073,49.2239352 Z" mask="url(#eduardo-b)"/>
    <path fill="#1D0500" d="M73.0925768,49.6213667 C73.0925768,49.6213667 72.2643157,49.3966329 71.3594163,49.4830249 C70.5234913,49.5625284 69.5947489,49.941677 69.6149019,50.0318001 C69.5030668,49.0608238 70.1905405,48.1816927 71.1510737,48.0686082 C72.111323,47.9552368 72.9804579,48.6506774 73.0925768,49.6213667" mask="url(#eduardo-b)"/>
    <path fill="#000" d="M72.0029224,49.5981184 C72.1459805,49.9637773 71.9685771,50.3776549 71.6066741,50.5220241 C71.2450549,50.6663933 70.8360336,50.4870081 70.6929754,50.1210622 C70.5502012,49.7554034 70.7276046,49.3415258 71.0892237,49.1974436 C71.4511267,49.0530743 71.8601481,49.2324596 72.0029224,49.5981184" mask="url(#eduardo-b)"/>
    <path fill="#FEFEFE" d="M72.4910798,49.4459136 C72.4956214,49.6149663 72.3642009,49.7553173 72.1970159,49.7601966 C72.0301148,49.7645018 71.8910305,49.6313262 71.886489,49.4628476 C71.8819474,49.294082 72.0133679,49.1531569 72.180269,49.1488517 C72.347454,49.1439724 72.4862545,49.277148 72.4910798,49.4459136" mask="url(#eduardo-b)"/>
    <path fill="#4F392E" d="M68.1335974 48.0508993C68.1335974 48.0508993 69.2746563 47.0205106 70.2530717 46.8144328 71.2312033 46.6086421 72.9427916 46.7320591 73.6359422 46.9794672 74.3288091 47.2268753 74.8584648 47.3916227 75.3886881 47.8448216 75.9183438 48.2983074 76.2850722 48.8752103 76.4891571 49.2049921 76.6926743 49.5347739 76.6112107 49.7408517 76.6112107 49.7408517 76.6112107 49.7408517 76.0403974 48.834167 75.5107417 48.3396378 74.9808022 47.8448216 74.5326101 47.5153268 73.3098038 47.185545 72.0869974 46.8557632 70.9865284 46.7733895 70.0901444 47.1031713 69.1931926 47.4329531 68.1335974 48.0508993 68.1335974 48.0508993M54.7241121 48.1333304C54.7241121 48.1333304 53.9906553 47.4740538 53.1754511 47.4740538 52.3602468 47.4740538 50.8115858 47.6801316 49.5887795 48.0509567 48.3662569 48.4220689 47.8769073 48.6281466 47.3472516 49.0813455 46.8173121 49.5348313 45.8388967 50.8123411 45.8388967 50.8123411 45.8388967 50.8123411 47.2246304 49.5758746 47.7545699 49.1637191 48.2845094 48.7515637 49.7925805 48.1749478 51.1783142 47.968583 52.5640479 47.7625053 53.3792521 47.7625053 53.8683179 47.9272527 54.3573837 48.092 54.7241121 48.1333304 54.7241121 48.1333304M52.5639627 49.2048773C52.5639627 49.2048773 53.9091065 49.4936158 54.6019733 49.7820672 55.2948402 50.0705186 55.6209786 50.5240045 55.783906 50.6474215 55.9471171 50.7711256 55.4577675 51.1832811 55.4577675 51.1832811 55.4577675 51.1832811 54.9281118 51.1006204 54.5610996 51.1419507 54.1943712 51.1832811 52.8495113 51.6778103 52.8495113 51.6778103 52.8495113 51.6778103 53.9905702 50.9772033 54.3572985 50.8534993 54.7240269 50.7297952 55.0910391 50.7711256 55.1319129 50.6063782 55.1725028 50.4416308 55.0703184 50.5142459 54.4895705 50.1069697 53.9091065 49.6996935 52.5639627 49.4522854 52.5639627 49.4522854L52.5639627 49.2048773zM47.3471949 51.2243531C47.3471949 51.2243531 47.7953869 51.5541349 48.0806516 51.677839 48.3662002 51.801543 49.0181933 51.9249601 49.0181933 51.9249601 49.0181933 51.9249601 48.2435789 51.9249601 47.6730495 51.7602127 47.1025201 51.5954653 46.898719 51.2656835 46.898719 51.2656835L47.3471949 51.2243531zM67.8891213 49.9880014C67.8891213 49.9880014 68.4596507 49.5758459 68.9487165 49.4110986 69.4377823 49.2460641 70.0900592 48.9165694 70.0900592 48.9165694 70.0900592 48.9165694 70.2938603 48.5457442 70.1715229 48.6281179 70.0491855 48.7104916 69.3154449 48.7928653 68.5411144 49.2876815 67.7667839 49.7819237 67.318308 50.400444 67.318308 50.400444L67.8076577 50.7712691 68.8263791 50.7299387 70.1715229 51.0183902C70.1715229 51.0183902 69.1525176 50.523861 68.9081266 50.4828177 68.6634518 50.4414873 67.4812353 50.523861 67.8891213 49.9880014M74.1248377 51.0595483C74.1248377 51.0595483 74.8177046 50.8948009 75.0215056 50.8124272 75.2253067 50.7300535 75.3550241 50.5512424 75.3550241 50.5512424L76.2849019 50.8124272 75.4699815 51.018218C75.143843 51.1008787 74.6141873 51.3066694 74.1248377 51.0595483" mask="url(#eduardo-b)"/>
    <path fill="#39292C" d="M53.3190201 45.0448047C53.3190201 45.0448047 51.1521437 44.9159344 49.7499469 45.1093834 48.3477502 45.3025454 45.9259805 46.5269572 45.416194 46.8492766 44.9061237 47.171596 43.6316574 49.4915492 43.3767642 49.8781603 43.1218709 50.2647713 42.3571912 51.1671508 42.3571912 51.1671508 42.3571912 51.1671508 42.6118006 47.558207 42.9944243 46.7846979 43.3767642 46.0114758 44.5240676 44.593902 45.416194 44.0781336 46.3086042 43.5626522 48.4116155 42.5314024 50.1322868 42.4025321 51.853242 42.2739488 54.8486635 42.4671108 55.9321017 42.8537218 57.0152561 43.2403328 58.9275231 44.1424253 58.1625595 44.400453 57.3978798 44.6581937 55.9959669 44.7227724 55.35845 44.787351 54.720933 44.8513557 53.3190201 45.0448047 53.3190201 45.0448047M66.5117611 44.5938159C66.5117611 44.5938159 69.2520054 44.5292372 69.825941 44.5292372 70.3993089 44.5292372 72.3112921 43.9494642 73.522177 44.0780475 74.7330618 44.2069179 76.0078119 44.2714965 76.5175984 44.5938159 77.0276688 44.9158483 78.0472418 46.0759684 78.4295816 46.6560285 78.8119215 47.2360886 79.959225 48.9759817 80.0230902 48.6539494 80.0866716 48.331343 80.1505368 47.2360886 79.3855732 45.8825194 78.6208935 44.5292372 77.9197951 43.1116634 76.9638035 42.6604737 76.0078119 42.209284 74.0958287 42.3384413 71.8015056 41.8226729 70.3485006 41.4960483 69.2534247 41.5574698 68.4027397 41.7443175 68.1566457 41.7985635 67.9307047 42.3513571 67.7226459 42.420241 67.5145872 42.4891249 67.3241269 42.0740993 67.1489942 42.1449923 66.3528076 42.4670247 66.0556214 42.9842281 66.1192028 43.3062605 66.183068 43.6285799 66.5117611 44.5938159 66.5117611 44.5938159" mask="url(#eduardo-b)"/>
    <path fill="#4F392E" d="M66.7027323,50.1359871 L67.9774824,48.7184133 C67.9774824,48.7184133 67.4041145,48.8472836 67.085356,49.1047373 C66.7665976,49.362765 66.7027323,50.1359871 66.7027323,50.1359871" mask="url(#eduardo-b)"/>
    <path fill="#A67860" d="M49.6828175,49.3377085 C49.6828175,49.3377085 50.4347242,49.1161318 51.0929619,49.1161318 C51.7509157,49.1161318 52.6912958,49.2427061 52.6912958,49.2427061 C52.6912958,49.2427061 52.3776466,48.3555385 51.2496446,48.4189691 C50.1213588,48.4823997 49.6828175,49.3377085 49.6828175,49.3377085" mask="url(#eduardo-b)"/>
    <path fill="#1D0500" d="M46.5829693,51.7725831 C46.5051956,51.8509386 46.7294335,51.1804683 47.0220782,50.9210055 C47.3150068,50.6621168 48.1202764,49.9589267 48.9621622,49.6257007 C49.8043317,49.2924747 50.9757621,48.9222236 51.9272121,49.070324 C52.8792299,49.2187115 53.6112674,49.5886756 53.7574479,49.6624388 C53.9039121,49.736489 54.5993336,50.1437652 54.4894854,50.1067401 C54.379921,50.069715 52.5860175,49.2924747 51.5247192,49.3665249 C50.4631371,49.4405751 49.5843515,49.736489 48.7790818,50.1807903 C47.9738122,50.6250917 46.6928175,51.6615078 46.5829693,51.7725831" mask="url(#eduardo-b)"/>
    <path fill="#A67860" d="M49.5259361 51.9993547C49.5259361 51.9993547 50.3408565 52.1262159 51.1869999 52.0946441 52.0328594 52.0630723 52.753827 51.7459193 52.753827 51.7459193 52.753827 51.7459193 52.2837788 52.5380844 51.4061286 52.5696562 50.5287622 52.601515 49.5259361 51.9993547 49.5259361 51.9993547M69.5500432 50.8142929C69.5500432 50.8142929 70.5156855 51.3401068 71.1696656 51.4724214 71.8239294 51.6047359 72.6961866 51.4724214 72.6961866 51.4724214 72.6961866 51.4724214 71.7322473 52.185083 70.7731334 52.096969 69.8137357 52.0085679 69.5500432 50.8142929 69.5500432 50.8142929M69.677575 48.7751851C69.677575 48.7751851 70.733764 48.5180184 71.4314563 48.562219 72.1291485 48.6061325 73.219399 48.7823605 73.219399 48.7823605 73.219399 48.7823605 72.8736752 47.7976074 71.7803024 47.7683317 69.8581007 47.7166688 69.677575 48.7751851 69.677575 48.7751851" mask="url(#eduardo-b)"/>
    <path fill="#1D0500" d="M68.9125262,49.1073204 C68.9125262,49.1073204 69.8276441,48.5152057 71.0720227,48.4411555 C72.3166852,48.3671052 72.5363816,48.4411555 73.4881155,48.7003312 C74.4401333,48.95922 74.9888066,49.5886469 75.3915834,49.8848478 C75.7943601,50.1807616 76.4897816,50.8101885 76.4897816,50.8101885 C76.4897816,50.8101885 75.5380476,50.6991132 75.3549673,50.5510127 C75.1721708,50.4031993 74.4401333,49.4035213 73.7078119,49.1443455 C72.9754906,48.8854568 71.767728,48.6633061 71.1452548,48.8114066 C70.5230655,48.95922 68.9125262,49.1073204 68.9125262,49.1073204" mask="url(#eduardo-b)"/>
    <path fill="#4B2D20" d="M61.3975466 64.6703809C61.3975466 64.6703809 60.5803554 64.1881934 59.6953252 63.9818287 58.810295 63.7751769 57.9249809 63.7751769 58.1290658 63.70658 58.3334345 63.637409 59.0143799 63.0866246 59.6953252 63.3621603 60.3762705 63.637409 61.3975466 64.6703809 61.3975466 64.6703809M65.7555683 64.3261909C65.7555683 64.3261909 66.597454 63.5848276 67.3033778 63.2963762 68.1759188 62.9396148 68.274697 63.3623899 68.206858 63.5684677 68.138735 63.7751195 65.7555683 64.3261909 65.7555683 64.3261909" mask="url(#eduardo-b)"/>
    <path fill="#4B2D20" d="M57.3801962 60.6768352C57.3801962 60.6768352 57.0398655 61.2965036 57.0398655 61.9161719 57.0398655 62.5361272 57.1077046 63.1557956 57.5161582 63.637409 57.9248957 64.1195965 59.0824176 64.7389778 59.0824176 64.7389778L59.559278 64.9456296C59.559278 64.9456296 58.0611416 64.6703809 57.5161582 64.1881934 56.9717426 63.70658 56.1545514 62.8802599 56.3586363 62.3980724 56.5630051 61.9161719 57.3801962 60.6768352 57.3801962 60.6768352M67.4578181 64.3948739C67.4578181 64.3948739 68.4109712 63.7752056 68.8875478 63.2244212 69.3644082 62.6736368 69.7728619 62.0539684 69.4322473 61.503184 69.0919166 60.9523996 68.6596199 59.9337786 68.6596199 59.9337786 68.6596199 59.9337786 70.0745897 60.9710557 69.8977539 62.115677 69.7365297 63.1586944 68.3428483 63.9129734 67.4578181 64.3948739M61.7589954 65.0011386C61.7589954 65.0011386 62.8943774 65.324032 63.3556263 65.324032 63.8168752 65.324032 65.1651413 64.8217533 65.1651413 64.8217533 65.1651413 64.8217533 64.0297593 65.7186795 63.4975491 65.6828024 62.9653388 65.6469254 61.7589954 65.0011386 61.7589954 65.0011386" mask="url(#eduardo-b)"/>
    <path fill="#C97F76" d="M58.7284623 74.418576C58.7284623 74.418576 57.5465297 72.8626603 58.1684351 72.5515345 58.7906245 72.2401218 60.3455301 72.3024043 60.6569086 72.4269694 60.9680032 72.5515345 64.1399766 72.7383822 64.9486524 72.6760996 65.757612 72.6138171 68.3076799 71.6801529 68.7430989 71.928996 69.1785178 72.1778392 68.9920313 73.2360686 68.4941664 73.6717594 67.9965852 74.1074502 67.3125176 74.7299887 66.5660039 74.9165494 65.8194903 75.103397 62.4604628 75.3522402 61.4031383 75.2276751 60.3455301 75.103397 58.7284623 74.418576 58.7284623 74.418576M59.3931717 69.7674471C59.5796582 69.7045905 61.4456584 69.5788774 61.8813612 69.7045905 62.3167802 69.8305907 63.0976391 70.0214566 63.2358719 69.8943083 63.3741047 69.7674471 65.0536184 69.2643074 65.4893212 69.4528772 65.9244564 69.642021 67.5562841 69.4551733 68.1710934 69.8943083 68.7859028 70.3337304 69.8432272 70.7108699 69.5942947 71.0254398 69.3456461 71.3400098 68.1018351 71.0885834 67.2307133 71.0254398 66.3598754 70.9625832 64.7428076 71.2771532 64.5557534 71.3400098 64.3692669 71.4028663 62.8765235 71.0254398 62.6278749 71.151153 62.3789424 71.2771532 61.2591719 71.5914361 60.388334 71.4657229 59.517496 71.3400098 57.6514957 71.0885834 58.211239 70.7108699 58.7712662 70.3337304 59.3931717 69.7674471 59.3931717 69.7674471" mask="url(#eduardo-b)"/>
    <path fill="#553F38" d="M72.4220486,80.7475164 C71.7643786,81.2796447 68.6071652,82.3439014 67.2256893,81.5457089 C65.8444971,80.7475164 64.0684759,80.2153881 64.0684759,79.6169589 C64.0684759,79.0182428 64.134328,78.5527023 64.5947254,78.2866381 C65.0551228,78.0205739 66.5680193,78.5527023 67.0284166,78.0205739 C67.488814,77.4887326 67.488814,76.4907767 67.488814,76.4907767 C67.488814,76.4907767 63.081829,76.6239523 62.7531359,76.6239523 C62.4238751,76.6239523 58.8062643,76.5573645 58.8062643,76.5573645 C58.8062643,76.5573645 58.0827422,77.1557936 58.4117191,77.355557 C58.740696,77.5550334 61.2399556,78.4198137 61.5692163,78.6855908 C61.8979094,78.951655 62.2266025,80.1488003 61.9634777,80.2819759 C61.7006368,80.4151515 58.8721165,81.2796447 57.8199013,80.9469928 C56.7674022,80.6146278 54.3992793,78.5527023 54.1361545,77.8210976 C53.8730297,77.0894929 53.2153597,74.5620268 53.2809281,73.9633106 C53.3470641,73.3645945 54.004734,72.5003882 54.004734,72.5003882 L54.1361545,71.3695437 C54.3334271,71.1031926 55.1886536,70.3052871 56.8329705,69.5736824 C58.4775713,68.8420777 60.7139899,68.1104729 61.1743873,68.2436485 C61.6347846,68.3762501 62.5555794,68.7754899 63.3449537,68.7091891 C64.134328,68.6423143 64.4633049,68.1767737 64.9237023,68.2436485 C65.3840997,68.3099493 66.6997236,68.1104729 68.0809157,68.5760135 C69.4621079,69.041554 70.6460274,69.7731587 71.1725608,70.5047634 C71.6985265,71.2363682 72.9482982,75.4931078 73.0797186,76.8234287 C73.2114229,78.1537495 73.0797186,80.2153881 72.4220486,80.7475164 M83.0778921,60.0625341 C83.0123238,60.4614869 82.4857904,63.0555407 82.2888017,63.7871455 C82.0912452,64.5187502 81.3677231,66.5140879 81.3677231,66.5140879 C81.3677231,66.5140879 80.1179514,67.3122804 79.5258497,67.445169 C78.933748,67.5783446 77.2238628,70.4381756 77.2238628,70.4381756 C77.2238628,70.4381756 75.3822732,73.1651181 74.8557398,72.7661654 C74.3297742,72.3672126 74.0666494,70.5047634 73.8032408,69.9726351 C73.540116,69.4405068 72.6193212,67.5783446 72.2906282,67.1793919 C71.9616512,66.7801521 69.0017105,65.5830068 68.8044379,65.4498313 C68.6071652,65.3169427 66.7652919,64.9179899 66.2390423,64.7848143 C65.7127928,64.6519258 64.7715612,65.0721177 64.7715612,65.0721177 C64.7715612,65.0721177 63.95806,65.7494763 63.4976626,65.6828885 C63.0372652,65.6163007 61.759109,65.0012247 61.759109,65.0012247 L59.0693891,65.0508785 C59.0693891,65.0508785 55.4517784,66.2480238 54.4651314,66.7801521 C53.4784845,67.3122804 51.7024633,69.1747296 51.7024633,69.1747296 C51.3076342,70.3052871 51.5051907,73.0322295 51.5710428,73.2982937 C51.6366111,73.5643579 50.7816685,74.0298984 50.3212711,73.8970098 C49.8608738,73.7638342 48.8742268,72.1674492 48.1504208,71.1700674 C47.4268987,70.1721115 44.3355375,69.1078548 42.9543453,68.4431249 C41.5728693,67.777821 39.9944045,63.6539699 39.7971319,62.656588 C39.5995755,61.6586321 38.5470764,58.3332605 38.5470764,58.3332605 L38.3498038,61.4594428 C38.3498038,61.4594428 39.4023029,68.6423143 39.7971319,70.3052871 C40.1916772,71.9679729 42.0991188,77.4887326 42.0991188,77.4887326 C42.0991188,77.4887326 42.2963915,79.6832597 42.822641,80.4814522 C43.3488905,81.2796447 47.9531482,86.001925 50.9133728,87.265658 C53.8730297,88.5293911 59.0693891,89.9926005 61.3058077,90.2586647 C63.5422263,90.5247288 67.9492114,89.7931241 69.4621079,89.194695 C70.9750043,88.5959789 75.2505689,84.6050163 75.7765346,84.0065872 C76.303068,83.4081581 78.7367592,80.1488003 79.657554,78.8853542 C80.5783488,77.6213342 82.4857904,70.4381756 82.8147674,68.9086654 C83.1434604,67.3788682 83.2751648,57.0029397 83.2751648,57.0029397 C83.2751648,57.0029397 83.1434604,59.6635814 83.0778921,60.0625341" mask="url(#eduardo-b)"/>
    <path fill="#A67860" d="M38.3134716 62.0586468C38.3134716 62.0586468 37.8269604 62.4099548 37.5490757 62.1286788 37.2709071 61.8479768 36.5760533 60.8637977 36.6455955 60.5124897 36.7148538 60.1611816 37.6186178 57.9824404 37.8965025 57.9124084 38.1746711 57.8420894 38.5470764 58.3334614 38.5470764 58.3334614L38.3134716 62.0586468zM36.4368839 54.2579152C36.4368839 54.2579152 35.6029458 58.3338346 35.4638615 58.9664186 35.3250611 59.5987157 35.8811144 61.2151918 35.9503727 61.6368189 36.0199148 62.0587329 36.2980834 62.972019 36.2980834 62.972019 36.2980834 62.972019 35.1167185 60.3719378 34.8385499 59.5987157 34.5606652 58.8257806 34.2129545 57.6312185 34.2824966 56.6473264 34.3520388 55.6631473 33.7959854 53.2037041 34.3520388 53.0630661 34.9078082 52.9227151 35.672488 53.4849801 35.672488 53.4849801L36.4368839 54.2579152z" mask="url(#eduardo-b)"/>
    <path fill="#2B1F1A" d="M38.6965494,57.730153 C38.6965494,57.730153 38.9803949,49.5978314 38.9803949,48.8326458 C38.9803949,48.0671731 38.6965494,45.0055696 38.6965494,45.0055696 C38.6965494,45.0055696 40.0212563,42.135406 40.2102974,40.3177313 C40.3996224,38.5000567 38.8858744,35.5340296 38.8858744,34.768844 C38.8858744,34.0033713 38.79107,32.9508823 38.79107,32.9508823 C38.79107,32.9508823 39.6426064,34.3859641 39.7374108,33.5249151 C39.8319314,32.663866 39.7374108,31.0376312 40.9673133,29.506686 C42.1972158,27.9760277 45.6033617,25.8713367 45.6033617,25.8713367 C45.6033617,25.8713367 52.7943033,23.2881894 54.5918968,23.4793423 C56.3894903,23.6707822 60.741977,24.8188477 64.0533185,24.0533751 C67.3649438,23.2881894 68.7841713,22.3312769 68.7841713,22.3312769 C68.7841713,22.3312769 71.8119511,22.8097332 72.2848377,23.192326 C72.7580081,23.5752058 76.5425201,27.401995 77.3940565,27.9760277 C78.245593,28.5500604 79.4757793,30.2721586 80.1379909,32.3768496 C80.8002024,34.4818276 82.0303887,41.3702203 81.7465433,41.8483896 C81.4626978,42.3268459 82.1249093,49.5978314 82.1249093,49.5978314 L83.1657707,56.677664 C83.1657707,56.677664 82.7871208,49.9807112 82.8819252,48.6412059 C82.9764458,47.3017005 83.3548118,42.996455 83.3548118,42.996455 C83.3548118,42.996455 83.4496162,35.821046 83.3548118,34.0033713 C83.2602913,32.1856967 81.9355844,31.5158005 81.8410638,30.7506149 C81.7465433,29.9851422 80.4218364,25.8713367 79.8541454,24.1492385 C79.2864544,22.4271403 77.3313267,19.2053817 76.5743107,18.439909 C75.8172948,17.6744364 74.5632655,16.8587359 74.5632655,16.8587359 L76.276273,16.4063981 C76.276273,16.4063981 76.276273,15.2015034 74.0421251,14.6745414 C73.1025966,14.4529647 72.0009922,14.4862586 72.0009922,14.4862586 C72.0009922,14.4862586 73.7040652,13.2908355 72.8525287,11.8557537 C72.0009922,10.4206718 69.7302283,9.55962274 69.7302283,9.55962274 L67.9326348,9.27260638 L67.8381143,10.3250954 C67.8381143,10.3250954 66.8917734,8.98559002 66.2295619,8.6029972 C65.5673504,8.22011738 63.958798,8.6029972 63.958798,8.6029972 C63.958798,8.6029972 64.904855,9.84663911 64.526489,10.2292319 C64.1481229,10.6121117 63.012741,9.94221556 63.012741,9.94221556 C63.012741,9.94221556 62.7288955,7.64608465 61.877359,7.16791539 C61.0258225,6.68945911 58.9440997,7.5505082 58.9440997,7.5505082 L60.0794817,9.84663911 C60.0794817,9.84663911 56.6733358,8.07632218 55.8217993,8.07632218 C54.9702629,8.07632218 53.9296853,8.41155729 53.0781488,8.6029972 C52.2266124,8.7941501 49.5771986,9.84663911 50.3342145,9.84663911 C51.0912304,9.84663911 52.8888239,10.4206718 52.7943033,10.8991281 C52.699499,11.3772974 51.6589214,11.2817209 51.2802715,11.3772974 C50.9019055,11.4731608 49.0095076,11.3772974 47.5902801,11.7601772 C46.1710527,12.14277 45.3195162,13.4822754 45.3195162,13.8648682 C45.3195162,14.247461 46.9280686,14.1518846 46.8335481,14.4389009 C46.7387437,14.7259173 46.1710527,14.1518846 44.9411502,14.6303408 C43.7112477,15.1085101 42.1026953,15.3473077 42.0081748,16.1127804 C41.9133704,16.877966 42.1972158,17.6434386 42.1972158,17.6434386 C42.1972158,17.6434386 43.0487523,16.877966 43.6164433,17.1649823 C44.1841343,17.4519987 43.7112477,17.930455 43.7112477,17.930455 C43.7112477,17.930455 41.4404838,19.6525532 40.2102974,20.7050422 C38.9803949,21.7572442 35.9526151,27.401995 35.0065581,30.3677351 C34.060501,33.3337622 34.3443465,36.5865186 34.3443465,36.5865186 L36.4257855,47.7801568 L38.6965494,57.730153 Z" mask="url(#eduardo-b)"/>
    <path fill="#A67860" d="M83.9391361,62.5051582 C83.9391361,62.5051582 84.6652129,61.4957216 84.6652129,60.2113234 C84.6652129,58.9263511 84.3930051,57.7335111 84.3930051,57.7335111 C84.3930051,57.7335111 84.6652129,57.7335111 84.9374207,55.6227928 C85.2099124,53.5126485 84.3930051,51.9524275 84.3930051,51.9524275 C84.3930051,51.9524275 83.4852672,52.7784606 83.3947205,53.6960519 C83.3038899,54.6136433 83.5763816,56.3572677 83.5763816,56.3572677 L84.0299667,58.467699 C84.0299667,58.467699 84.2113439,59.7523842 84.1207972,60.3947269 C84.0299667,61.0370695 83.9391361,62.5051582 83.9391361,62.5051582" mask="url(#eduardo-b)"/>
    <path fill="#FEFEFE" d="M47.1173936 97.0513948C47.1173936 97.0513948 49.3881575 97.6254275 50.3342145 98.5820531 51.2802715 99.5386786 54.3080513 106.809951 55.2541084 109.680115 56.2004492 112.550278 60.741977 132.641424 60.741977 132.641424 60.741977 132.641424 61.877359 137.042246 62.255725 137.616279 62.6340911 138.190311 64.526489 139.720969 63.391107 140.677882 62.255725 141.634508 61.1203431 142.782573 60.3633272 141.443068 59.6065951 140.103849 59.7956362 138.381751 59.6065951 137.616279 59.4172701 136.850806 54.8757423 112.741431 52.9833444 107.575137 51.0912304 102.408842 47.1173936 97.0513948 47.1173936 97.0513948M77.2050154 94.9464168C77.3940565 94.1812312 77.7727064 91.8851003 77.7727064 91.8851003 77.7727064 91.8851003 78.9080884 91.8851003 79.2864544 93.6071985 79.6648204 95.3292966 82.5032753 108.14917 83.6386573 111.593366 84.7740392 115.037562 87.0448032 125.370151 87.0448032 125.370151 87.0448032 125.370151 88.1801851 128.240315 88.558835 129.38838 88.937201 130.536446 88.3695101 132.067391 86.8557621 131.684511 85.3417302 131.301919 85.3417302 126.135624 85.3417302 126.135624 85.3417302 126.135624 81.9355844 108.914642 80.6111613 104.32238 79.2864544 99.7301185 77.2050154 94.9464168 77.2050154 94.9464168" mask="url(#eduardo-b)"/>
    <path fill="#DBA47E" d="M73.3098889 47.1856598C73.3098889 47.1856598 72.4430248 47.0966847 71.5358546 47.1581062 70.6284006 47.2192407 70.2650784 47.8004488 70.5372862 47.9838523 70.809494 48.1675428 72.292019 48.3512332 72.685145 48.4732152 73.0785549 48.5957712 73.7138011 48.6264819 73.7138011 48.6264819L73.3098889 47.1856598zM49.0045119 48.54451C49.0045119 48.54451 51.1441392 47.9882723 51.4498408 48.297389 51.7555424 48.6065056 49.6829026 49.3378233 49.6829026 49.3378233L49.0045119 48.54451z" mask="url(#eduardo-b)"/>
    <path fill="#5A2F29" d="M55.0367962,71.0814654 C55.0367962,71.0814654 56.1980081,71.6965415 56.9167049,71.8081909 C57.6354017,71.9201272 59.0730791,71.7525097 59.2941947,71.8081909 C59.5153104,71.8644461 61.340153,72.3113305 61.7270344,72.2556494 C62.1141997,72.1996812 63.2200617,71.9760954 63.2200617,71.9760954 C63.2200617,71.9760954 64.8235049,72.1996812 65.0999704,72.143713 C65.3764359,72.0877448 67.1456448,71.7525097 67.1456448,71.7525097 C67.1456448,71.7525097 68.5833222,71.7525097 68.9702036,71.8081909 C69.3573689,71.8644461 70.6292805,71.1934018 70.8501123,71.3050512 C71.0712279,71.4169876 70.6843465,72.0877448 70.5185808,72.143713 C70.3525312,72.1996812 67.643226,72.0877448 67.4774602,72.0877448 C67.3114106,72.0877448 65.2103863,72.3672987 64.9339208,72.3672987 L63.1647118,72.3672987 C63.1647118,72.3672987 61.5059188,72.3672987 60.842288,72.4232669 C60.1789411,72.4792351 58.9623794,72.1996812 58.9623794,72.1996812 L56.4741898,72.1996812 C55.9768925,72.1996812 54.9260965,72.143713 54.8710305,71.9201272 C54.8156806,71.6965415 55.0367962,71.0814654 55.0367962,71.0814654" mask="url(#eduardo-b)"/>
  </g>
</svg>
