<svg xmlns="http://www.w3.org/2000/svg" xmlns:xlink="http://www.w3.org/1999/xlink" width="120" height="120" viewBox="0 0 120 120">
  <defs>
    <path id="eduardo-a" d="M120,59.9999233 C120,93.1369885 93.1369885,120 59.9999233,120 C26.8628581,120 0,93.1369885 0,59.9999233 C0,26.8628581 26.8628581,0 59.9999233,0 C93.1369885,0 120,26.8628581 120,59.9999233"/>
  </defs>
  <g fill="none" fill-rule="evenodd">
    <mask id="eduardo-b" fill="#fff">
      <use xlink:href="#eduardo-a"/>
    </mask>
    <use fill="#7BCAEC" xlink:href="#eduardo-a"/>
    <path fill="#6A8DA4" d="M13.0972055,98.4682012 C13.8278904,97.9194934 20.9511781,94.2612588 20.9511781,94.2612588 C20.9511781,94.2612588 19.6725479,90.9690123 21.8643288,89.1401694 C24.0561096,87.3110521 25.5174795,84.7505074 25.5174795,84.7505074 C25.5174795,84.7505074 25.6999452,83.8358115 27.5265205,82.738396 C29.3530959,81.6409805 30.2662466,81.6409805 30.2662466,81.6409805 C30.2662466,81.6409805 29.9010411,80.1778513 32.2752877,79.2634298 C34.6498082,78.348734 37.9374795,78.531728 37.9374795,78.531728 L43.782137,79.8121376 C43.782137,79.8121376 72.0928219,79.6291435 72.6407671,79.9948573 C73.1887123,80.3608453 75.5629589,81.6409805 76.2936438,82.9213901 C77.0243288,84.2017996 80.312,83.8358115 80.312,83.8358115 C80.312,83.8358115 81.7730959,84.3845193 81.9558356,86.3966306 C82.1383014,88.4084676 83.5996712,91.7007141 83.5996712,91.7007141 C83.5996712,91.7007141 86.7046027,93.3468374 89.0791233,94.6272469 C91.4533699,95.9073821 97.1155616,96.2733702 99.6725479,99.9313304 C102.229808,103.589291 105.152,108.344941 106.795836,118.770388 C108.439671,129.195835 107.417205,122.434384 107.417205,122.434384 L-2.79978082,122.434384 C-2.79978082,122.434384 -2.61046575,116.026849 2.50378082,108.710654 C7.61775342,101.39446 13.0972055,98.4682012 13.0972055,98.4682012" mask="url(#eduardo-b)"/>
    <path fill="#496474" d="M40.8141918 80.9095531C40.8141918 80.9095531 37.9374795 80.543565 37.0243288 80.726559 36.1109041 80.9095531 37.0243288 82.5556763 36.4763836 82.9213901 35.9284384 83.2871038 33.3711781 85.8479229 33.3711781 85.8479229L37.1840548 87.1511038 40.8141918 80.9095531zM25.6999452 95.5416684C25.6999452 95.5416684 33.1887123 97.3707857 36.2936438 98.1022131 39.3985753 98.8339149 48.3484384 100.114324 48.3484384 100.114324 48.3484384 100.114324 53.4626849 101.760448 55.6544658 102.857863 57.8462466 103.955279 62.5950137 105.784122 62.0470685 105.784122 61.4991233 105.784122 54.5585753 103.223577 47.9832329 102.126161 41.4078904 101.028746 41.042411 101.39446 37.7547397 100.297044 34.4670685 99.1996286 25.6999452 95.5416684 25.6999452 95.5416684M80.4944658 102.309155C80.6772055 101.39446 82.8689863 99.1996286 82.5037808 96.6390839 82.1383014 94.0785392 81.7730959 90.9690123 81.7730959 90.9690123 81.7730959 90.9690123 84.1476164 94.2612588 84.3300822 97.0047976 84.5128219 99.7483364 80.4944658 102.309155 80.4944658 102.309155" mask="url(#eduardo-b)"/>
    <path fill="#DBA47E" d="M37.2525479,84.2931594 C37.6635068,83.7444517 40.1292603,81.2752668 40.8141918,80.1778513 C41.4991233,79.0804358 42.1939178,78.2398155 42.1939178,78.2398155 L39.5813151,66.1172151 C39.5813151,66.1172151 39.2388493,66.5973344 38.5539178,66.6659229 C37.8689863,66.7345113 36.841589,66.8030998 36.5676164,66.1858036 C36.2936438,65.5685074 36.0881644,64.5396803 36.0881644,64.5396803 C36.0881644,64.5396803 34.992274,63.2364994 34.7183014,61.9333185 C34.4443288,60.6301376 33.8963836,58.7782489 33.8963836,58.7782489 C33.8963836,58.7782489 33.4854247,57.2007141 33.4169315,56.3776525 C33.3484384,55.5545909 33.1429589,52.6738751 33.4854247,52.0565789 C33.8278904,51.4392827 34.2388493,50.8219865 35.0607671,51.0963404 C35.8826849,51.3706942 37.2525479,51.5764596 37.2525479,51.5764596 C37.2525479,51.5764596 37.3210411,41.3567777 37.3210411,40.9452469 C37.3210411,40.5337161 35.0607671,33.4005153 37.1155616,30.3826227 C39.1703562,27.36473 45.2662466,21.5347101 52.2525479,20.9174139 C59.2388493,20.3001177 67.0470685,18.7225829 70.8141918,21.0545909 C74.5813151,23.3865988 78.0744658,28.8050879 78.8963836,30.9313304 C79.7183014,33.057573 80.7456986,40.0535968 80.7456986,40.0535968 L80.7456986,50.4790441 C80.7456986,50.4790441 81.362137,50.2046903 82.0470685,50.4104557 C82.732,50.6162211 83.1429589,50.890575 83.2799452,51.5764596 C83.4169315,52.2623443 83.7593973,54.2514099 83.5539178,55.6231793 C83.3484384,56.9949487 83.0059726,60.0128414 82.9374795,60.7673145 C82.8689863,61.5217877 83.3484384,63.8537956 82.8689863,64.5396803 C82.3895342,65.225565 81.9100822,65.7056843 81.4991233,65.7056843 C81.0881644,65.7056843 80.1977534,65.9800382 80.1977534,65.9800382 C80.1977534,65.9800382 79.4443288,70.0953463 78.3484384,72.4959427 C77.2525479,74.8965392 74.5128219,80.5893821 74.5128219,80.5893821 C74.5128219,80.5893821 74.3758356,84.3617479 74.5128219,85.8706942 C74.6498082,87.3796406 74.9237808,91.1520064 74.9237808,91.1520064 L76.1566575,99.9313304 C76.1566575,99.9313304 73.7593973,101.783219 71.9100822,102.057573 C70.0607671,102.331927 66.9785753,102.812046 64.8552877,102.606281 C62.732,102.400515 58.0744658,100.960157 58.0744658,100.960157 C58.0744658,100.960157 51.1566575,95.0615491 49.6498082,94.3070759 C48.1429589,93.5526028 44.1703562,91.3577718 43.9648767,91.2205948 C43.7593973,91.0834179 40.2662466,87.8597598 39.3758356,87.5168175 C38.4854247,87.1738751 37.1840548,86.419402 37.1840548,86.419402 L37.2525479,84.2931594 Z" mask="url(#eduardo-b)"/>
    <path fill="#BA756C" d="M54.4542466,69.4116016 C54.4542466,69.4116016 56.2405479,68.517208 57.3323288,68.2189853 C58.4238356,67.9207626 60.0115068,67.7221304 60.4084932,67.8214465 C60.8057534,67.9207626 61.8972603,68.1196692 61.8972603,68.1196692 C61.8972603,68.1196692 62.9887671,67.5232239 63.8819178,67.7221304 C64.7753425,67.9207626 65.8668493,67.8214465 66.6608219,68.1196692 C67.4545205,68.4178918 68.8438356,69.6105082 68.8438356,69.6105082 L67.6531507,71.3990211 C67.6531507,71.3990211 66.0654795,73.4863054 65.0728767,73.5856215 C64.0805479,73.6846632 62.1950685,73.8835698 60.5079452,73.9828859 C58.8208219,74.082202 57.0345205,73.0884922 56.5380822,72.6909535 C56.0421918,72.2936891 54.1564384,70.0077726 54.1564384,70.0077726 L54.4542466,69.4116016 Z" mask="url(#eduardo-b)"/>
    <path fill="#A67860" d="M55.7456986 60.0128414C55.7456986 60.0128414 56.7046027 58.1609527 57.0470685 57.9551873 57.3895342 57.7494219 56.362137 59.4641336 56.6361096 60.2186068 56.9100822 60.9730799 57.1840548 60.835903 57.5950137 60.9044915 58.0059726 60.9730799 59.0333699 61.0416684 59.0333699 61.0416684 59.0333699 61.0416684 59.7183014 61.5903761 61.0881644 61.86473 62.4580274 62.1390839 62.9374795 62.2076724 63.8278904 61.4531992 64.4377534 60.9365909 64.7183014 60.5615491 64.7183014 60.5615491 64.7183014 60.5615491 65.7456986 61.1788453 66.5676164 60.5615491 67.3895342 59.9442529 67.3210411 59.1211913 67.3210411 59.1211913 67.3210411 59.1211913 67.681863 59.4298394 67.8780274 60.0984398 68.0744658 60.7673145 68.2056986 60.9371396 67.352274 61.7440143 66.4991233 62.5506147 66.0451507 62.8403324 66.0451507 62.8403324 66.0451507 62.8403324 64.2747397 63.2537837 63.5076164 63.4902767 62.8900822 63.680404 62.071726 63.8839746 62.071726 63.8839746L60.471726 63.4422648C60.471726 63.4422648 58.7352877 63.6483046 58.2752877 63.4507698 57.8152877 63.2535093 56.0881644 62.4134378 55.7456986 61.9333185 55.4032329 61.4531992 55.7456986 60.0128414 55.7456986 60.0128414M64.4850137 50.491637C64.3230959 49.9242732 64.7830959 48.4578517 65.1540548 46.4611042 65.5088493 44.5532473 66.8573425 43.490126 67.9904932 43.0849054 69.1236438 42.6796847 71.8258356 43.4423885 71.8258356 43.4423885 71.8258356 43.4423885 69.9077534 43.5214024 69.9888493 44.5749213 70.0696712 45.6284402 71.9354247 46.2155575 71.9354247 46.2155575 71.9354247 46.2155575 70.7981644 46.3582215 70.9600822 46.8443765 71.122 47.330806 72.0047397 48.2850087 72.0047397 48.2850087L72.7233699 50.1514382C72.7233699 50.1514382 70.1507671 50.491637 69.9077534 51.2208696 69.6650137 51.9503765 71.2883014 53.1196728 71.2883014 53.1196728 71.2883014 53.1196728 67.8033699 53.0851042 66.5085753 52.436806 65.2132329 51.7885078 64.4850137 50.491637 64.4850137 50.491637M45.4875068 51.3830127C45.4875068 51.3830127 47.5691507 52.1125197 49.5116164 52.1934541 51.4540822 52.2746628 54.3677808 51.0587264 54.8535342 51.5451559 55.3390137 52.0313109 54.2866849 54.0576887 54.6916164 53.5715336 55.096274 53.0851042 57.6050411 52.436806 57.7669589 53.1663129 57.9288767 53.8955455 58.1718904 56.003132 58.2529863 55.5164282 58.3338082 55.0302732 59.0623014 50.8159233 58.1718904 48.5461936 57.2814795 46.2770127 56.6340822 44.250635 55.1770959 43.6835455 53.7203836 43.1159074 50.8875068 44.0884918 51.1305205 44.1697006 51.3729863 44.250635 53.1310685 46.6932076 52.1866849 46.6885435 50.9686027 46.6822334 48.1499726 47.4701777 48.1499726 47.4701777L49.5116164 48.5461936C49.5116164 48.5461936 46.706411 49.5563646 46.2472329 49.9832592 45.7886027 50.4104282 45.4875068 51.3830127 45.4875068 51.3830127" mask="url(#eduardo-b)"/>
    <path fill="#AAA3A4" d="M54.4759178 49.7427881C54.4759178 49.7427881 53.9197534 49.1112254 53.1781096 48.8514123 52.4361918 48.5915992 50.9896164 48.2198497 49.8770137 48.3685495 48.764137 48.516975 47.4663288 49.4083507 47.3550959 49.4456628 47.243863 49.482975 46.2422192 50.262963 46.2422192 50.262963 46.2422192 50.262963 46.6874247 50.5600883 47.6145479 50.7825893 48.5419452 51.005639 49.4690685 51.0797145 50.7298904 50.9312891 51.9912603 50.7825893 53.3263288 50.0399133 53.3263288 50.0399133L54.4759178 49.7427881zM66.7150411 49.5571054C66.7150411 49.5571054 66.4925753 49.1485924 66.8635342 48.9255427 67.2344932 48.7027674 67.5681918 48.2572167 68.3470959 48.034167 69.126 47.811666 70.9802466 47.7743539 71.7591507 48.0714791 72.5380548 48.3686044 73.3169589 49.0369304 73.3169589 49.0369304L73.9103836 49.7798807C73.9103836 49.7798807 73.3909315 49.9656183 72.7235342 50.1513559 72.055863 50.3370934 70.5723014 50.4484811 69.6451781 50.3370934 68.7180548 50.2257058 68.0131233 49.8542306 67.9018904 49.7798807 67.7909315 49.7055308 66.7150411 49.5571054 66.7150411 49.5571054" mask="url(#eduardo-b)"/>
    <path fill="#D8CECD" d="M46.7543836 50.3930342C46.7543836 50.3930342 48.5749315 49.80674 49.9080822 49.5790262 51.2409589 49.3510382 53.3275342 49.9186763 53.3275342 49.9186763 53.3275342 49.9186763 51.7609589 51.0114278 50.1354795 51.0767241 48.509726 51.1417459 47.0467123 50.555726 46.7543836 50.3930342M67.3341644 49.4161972C67.6593699 49.2858791 68.6347123 48.9604954 69.967589 48.8954736 71.3007397 48.8301773 73.2730685 49.8793066 73.2730685 49.8793066 73.2730685 49.8793066 72.1785479 50.685907 70.0651233 50.3931714 67.9519726 50.0998871 67.3341644 49.4161972 67.3341644 49.4161972" mask="url(#eduardo-b)"/>
    <path fill="#251310" d="M51.7538356,49.0078763 C52.0891781,49.8578247 51.6724658,50.8188863 50.8236986,51.1544211 C49.9752055,51.4902302 49.0152055,51.0732123 48.679863,50.223264 C48.3447945,49.3733157 48.7612329,48.4122541 49.61,48.0764449 C50.4584932,47.7409101 51.4184932,48.1576537 51.7538356,49.0078763" mask="url(#eduardo-b)"/>
    <path stroke="#1D0500" stroke-width=".5" d="M51.7538356,49.0078763 C52.0891781,49.8578247 51.6724658,50.8188863 50.8236986,51.1544211 C49.9752055,51.4902302 49.0152055,51.0732123 48.679863,50.223264 C48.3447945,49.3733157 48.7612329,48.4122541 49.61,48.0764449 C50.4584932,47.7409101 51.4184932,48.1576537 51.7538356,49.0078763 Z" mask="url(#eduardo-b)"/>
    <path fill="#1D0500" d="M51.9007123,49.3877742 C51.9007123,49.3877742 51.1012603,49.1729551 50.2278356,49.2555356 C49.4209863,49.3315316 48.5245479,49.6939531 48.544,49.7801002 C48.4360548,48.851961 49.0996164,48.0116151 50.0267397,47.9035197 C50.953589,47.7951499 51.7927671,48.4599093 51.9007123,49.3877742" mask="url(#eduardo-b)"/>
    <path fill="#221F20" d="M50.8492329,49.3655515 C50.9870411,49.7150783 50.8158082,50.1106966 50.4667671,50.2486966 C50.1174521,50.3866966 49.7226575,50.2152254 49.5845753,49.8654243 C49.4467671,49.5158974 49.618,49.1202791 49.9670411,48.9825535 C50.3163562,48.8445535 50.7111507,49.0160247 50.8492329,49.3655515" mask="url(#eduardo-b)"/>
    <path fill="#FEFEFE" d="M51.320137,49.2200616 C51.3247945,49.3816561 51.1976712,49.5158151 51.0363014,49.5204791 C50.8752055,49.5245944 50.7412329,49.3972942 50.7365753,49.2362485 C50.7321918,49.0749284 50.8590411,48.9402207 51.020411,48.9361054 C51.1815068,48.9314414 51.3157534,49.0587416 51.320137,49.2200616" mask="url(#eduardo-b)"/>
    <path fill="#251310" d="M71.2642192,48.3611145 C71.5992877,49.2110628 71.1828493,50.1721245 70.3340822,50.5076592 C69.4853151,50.8434684 68.525589,50.4264505 68.1902466,49.5765022 C67.8551781,48.7265539 68.2713425,47.7654922 69.1203836,47.4296831 C69.9688767,47.0941483 70.9288767,47.5108918 71.2642192,48.3611145" mask="url(#eduardo-b)"/>
    <path stroke="#1D0500" stroke-width=".5" d="M71.2642192,48.3611145 C71.5992877,49.2110628 71.1828493,50.1721245 70.3340822,50.5076592 C69.4853151,50.8434684 68.525589,50.4264505 68.1902466,49.5765022 C67.8551781,48.7265539 68.2713425,47.7654922 69.1203836,47.4296831 C69.9688767,47.0941483 70.9288767,47.5108918 71.2642192,48.3611145 Z" mask="url(#eduardo-b)"/>
    <path fill="#1D0500" d="M71.4110959,48.7410123 C71.4110959,48.7410123 70.6116438,48.5261932 69.7382192,48.6087738 C68.9313699,48.6847698 68.0349315,49.0471913 68.0543836,49.1333384 C67.9464384,48.2051992 68.61,47.3648533 69.5371233,47.2567579 C70.4639726,47.1483881 71.3028767,47.8131475 71.4110959,48.7410123" mask="url(#eduardo-b)"/>
    <path fill="#221F20" d="M70.3593425,48.7187897 C70.4974247,49.0683165 70.3261918,49.4639348 69.9768767,49.6019348 C69.6278356,49.7399348 69.2330411,49.5684636 69.0949589,49.2186624 C68.9571507,48.8691356 69.1283836,48.4735173 69.4774247,48.3357917 C69.8267397,48.1977917 70.2215342,48.3692628 70.3593425,48.7187897" mask="url(#eduardo-b)"/>
    <path fill="#FEFEFE" d="M70.8305205,48.5732998 C70.8349041,48.7348942 70.7080548,48.8690533 70.5466849,48.8737173 C70.385589,48.8778326 70.2513425,48.7505324 70.2469589,48.5894867 C70.2425753,48.4281666 70.3694247,48.2934588 70.5305205,48.2893435 C70.6918904,48.2846795 70.825863,48.4119797 70.8305205,48.5732998" mask="url(#eduardo-b)"/>
    <path fill="#4F392E" d="M66.6246027 47.2398302C66.6246027 47.2398302 67.7259726 46.2548998 68.6703562 46.0579137 69.6144658 45.861202 71.2665205 45.9791742 71.9355616 46.2156672 72.6043288 46.4521602 73.1155616 46.6096394 73.6273425 47.0428441 74.1385753 47.4763233 74.4925479 48.0277746 74.6895342 48.3430072 74.8859726 48.6582398 74.8073425 48.8552258 74.8073425 48.8552258 74.8073425 48.8552258 74.2563836 47.9885419 73.7451507 47.5158302 73.2336438 47.0428441 72.8010411 46.7278859 71.6207671 46.4126533 70.4404932 46.0974207 69.3783014 46.0186811 68.5130959 46.3339137 67.6473425 46.6491463 66.6246027 47.2398302 66.6246027 47.2398302M53.6815342 47.3186247C53.6815342 47.3186247 52.973589 46.6884338 52.1867397 46.6884338 51.3998904 46.6884338 49.9050959 46.8854199 48.7248219 47.2398851 47.5448219 47.5946247 47.0724932 47.7916107 46.5612603 48.2248155 46.0497534 48.6582946 45.1053699 49.8794437 45.1053699 49.8794437 45.1053699 49.8794437 46.4429041 48.6975272 46.954411 48.3035551 47.4659178 47.9095829 48.9215342 47.358406 50.2590685 47.1611455 51.5966027 46.9641594 52.3834521 46.9641594 52.8555068 47.1216386 53.3275616 47.2791177 53.6815342 47.3186247 53.6815342 47.3186247M51.5965205 48.3428974C51.5965205 48.3428974 52.8948767 48.6188974 53.5636438 48.8946231 54.232411 49.1703487 54.5472055 49.6038278 54.7044658 49.7218 54.862 49.8400465 54.3896712 50.2340187 54.3896712 50.2340187 54.3896712 50.2340187 53.8784384 50.1550048 53.5241918 50.1945117 53.1702192 50.2340187 51.872137 50.7067304 51.872137 50.7067304 51.872137 50.7067304 52.9735068 50.0370326 53.3274795 49.9187861 53.6814521 49.8005396 54.0356986 49.8400465 54.0751507 49.6825674 54.1143288 49.5250883 54.0156986 49.5944998 53.4551507 49.2051917 52.8948767 48.8158835 51.5965205 48.5793905 51.5965205 48.5793905L51.5965205 48.3428974zM46.5612055 50.2732787C46.5612055 50.2732787 46.9938082 50.5885113 47.2691507 50.7067579 47.5447671 50.8250044 48.1740822 50.9429765 48.1740822 50.9429765 48.1740822 50.9429765 47.426411 50.9429765 46.875726 50.7854974 46.3250411 50.6280183 46.1283288 50.3127857 46.1283288 50.3127857L46.5612055 50.2732787zM66.3886301 49.091472C66.3886301 49.091472 66.9393151 48.6974998 67.4113699 48.5400207 67.8834247 48.3822672 68.5130137 48.0673089 68.5130137 48.0673089 68.5130137 48.0673089 68.709726 47.7128437 68.5916438 47.7915833 68.4735616 47.8703229 67.7653425 47.9490624 67.0179452 48.4220485 66.2705479 48.8944859 65.8376712 49.4857185 65.8376712 49.4857185L66.31 49.8401837 67.2932877 49.8006767 68.5916438 50.0764024C68.5916438 50.0764024 67.6080822 49.6036907 67.3721918 49.5644581 67.1360274 49.5249511 65.9949315 49.6036907 66.3886301 49.091472M72.4074521 50.1157447C72.4074521 50.1157447 73.0762192 49.9582656 73.2729315 49.879526 73.4696438 49.8007865 73.5948493 49.629864 73.5948493 49.629864L74.4923836 49.879526 73.7058082 50.0762378C73.3910137 50.1552517 72.8797808 50.3519634 72.4074521 50.1157447" mask="url(#eduardo-b)"/>
    <path fill="#39292C" d="M52.3253151 44.3663575C52.3253151 44.3663575 50.2338082 44.2431726 48.8803836 44.4280871 47.5269589 44.6127272 45.1894247 45.7831209 44.6973699 46.0912203 44.2050411 46.3993197 42.9749041 48.6169221 42.7288767 48.9864767 42.4828493 49.3560314 41.7447671 50.2186 41.7447671 50.2186 41.7447671 50.2186 41.9905205 46.7688744 42.3598356 46.0294907 42.7288767 45.2903813 43.836274 43.9353475 44.6973699 43.4423336 45.5587397 42.949594 47.5886027 41.9638406 49.2494247 41.8406557 50.9105205 41.7177451 53.8017534 41.9023853 54.8475068 42.27194 55.8929863 42.6414946 57.7387397 43.5037889 57.0003836 43.750433 56.2623014 43.9968028 54.9091507 44.0585324 54.2938082 44.120262 53.6784658 44.1814429 52.3253151 44.3663575 52.3253151 44.3663575M65.0591781 43.9352652C65.0591781 43.9352652 67.7041096 43.8735356 68.2580822 43.8735356 68.8115068 43.8735356 70.6569863 43.3193408 71.8257534 43.4422513 72.9945205 43.5654362 74.2249315 43.6271658 74.7169863 43.9352652 75.2093151 44.2430903 76.1934247 45.3520286 76.5624658 45.9064978 76.9315068 46.460967 78.0389041 48.1241002 78.1005479 47.8162751 78.1619178 47.5079014 78.2235616 46.460967 77.4852055 45.1671141 76.7471233 43.8735356 76.070411 42.5185018 75.1476712 42.0872175 74.2249315 41.6559332 72.3794521 41.7793924 70.1649315 41.2863785 68.7624658 40.9741638 67.7054795 41.0328755 66.8843836 41.2114799 66.6468493 41.2633328 66.4287671 41.7917384 66.2279452 41.8575833 66.0271233 41.9234282 65.8432877 41.5267125 65.6742466 41.5944779 64.9057534 41.902303 64.6189041 42.3966887 64.680274 42.7045137 64.7419178 43.0126131 65.0591781 43.9352652 65.0591781 43.9352652" mask="url(#eduardo-b)"/>
    <path fill="#4F392E" d="M65.2435068,49.2329288 L66.4739178,47.877895 C66.4739178,47.877895 65.9204932,48.0010799 65.6128219,48.2471753 C65.3051507,48.4938195 65.2435068,49.2329288 65.2435068,49.2329288" mask="url(#eduardo-b)"/>
    <path fill="#A67860" d="M48.815589,48.4698684 C48.815589,48.4698684 49.5413425,48.2580672 50.1766849,48.2580672 C50.8117534,48.2580672 51.7194247,48.3790573 51.7194247,48.3790573 C51.7194247,48.3790573 51.4166849,47.5310294 50.3279178,47.5916616 C49.2388767,47.6522938 48.815589,48.4698684 48.815589,48.4698684" mask="url(#eduardo-b)"/>
    <path fill="#1D0500" d="M45.8235616,50.7973221 C45.7484932,50.8722207 45.9649315,50.23133 46.2473973,49.9833141 C46.530137,49.7358469 47.3073973,49.0636799 48.12,48.7451551 C48.9328767,48.4266302 50.0635616,48.0727137 50.9819178,48.2142803 C51.9008219,48.3561213 52.6073973,48.7097634 52.7484932,48.7802724 C52.889863,48.8510557 53.5610959,49.2403638 53.4550685,49.2049722 C53.3493151,49.1695805 51.6178082,48.4266302 50.5934247,48.4974135 C49.5687671,48.5681968 48.7205479,48.8510557 47.9432877,49.2757555 C47.1660274,49.7004553 45.929589,50.6911471 45.8235616,50.7973221" mask="url(#eduardo-b)"/>
    <path fill="#A67860" d="M48.6641644 51.0140891C48.6641644 51.0140891 49.4507397 51.1353535 50.2674521 51.1051746 51.0838904 51.0749956 51.7797808 50.7718346 51.7797808 50.7718346 51.7797808 50.7718346 51.3260822 51.5290513 50.4789589 51.5592302 49.6321096 51.5896835 48.6641644 51.0140891 48.6641644 51.0140891M67.9917808 49.8813093C67.9917808 49.8813093 68.9238356 50.3839256 69.5550685 50.5104028 70.1865753 50.6368799 71.0284932 50.5104028 71.0284932 50.5104028 71.0284932 50.5104028 70.0980822 51.1916235 69.1723288 51.1073968 68.2463014 51.0228958 67.9917808 49.8813093 67.9917808 49.8813093M68.1148767 47.9321622C68.1148767 47.9321622 69.1343288 47.6863412 69.8077534 47.7285917 70.4811781 47.7705678 71.5335068 47.9390211 71.5335068 47.9390211 71.5335068 47.9390211 71.1998082 46.9977129 70.1444658 46.9697288 68.2891233 46.9203451 68.1148767 47.9321622 68.1148767 47.9321622" mask="url(#eduardo-b)"/>
    <path fill="#1D0500" d="M67.3764384,48.2496445 C67.3764384,48.2496445 68.259726,47.6836525 69.4608219,47.6128692 C70.6621918,47.5420859 70.8742466,47.6128692 71.7928767,47.8606107 C72.7117808,48.1080779 73.2413699,48.709736 73.630137,48.9928692 C74.0189041,49.275728 74.690137,49.8773861 74.690137,49.8773861 C74.690137,49.8773861 73.7715068,49.7712111 73.5947945,49.6296445 C73.4183562,49.4883523 72.7117808,48.5327777 72.0049315,48.2850362 C71.2980822,48.037569 70.1323288,47.8252191 69.5315068,47.9667857 C68.9309589,48.1080779 67.3764384,48.2496445 67.3764384,48.2496445" mask="url(#eduardo-b)"/>
    <path fill="#4B2D20" d="M60.1228493 63.1260994C60.1228493 63.1260994 59.3340822 62.6651849 58.4798356 62.4679245 57.625589 62.2703897 56.7710685 62.2703897 56.9680548 62.2048191 57.1653151 62.1386998 57.8225753 61.6122147 58.4798356 61.8755944 59.1370959 62.1386998 60.1228493 63.1260994 60.1228493 63.1260994M64.3292877 62.7970942C64.3292877 62.7970942 65.1418904 62.0884382 65.8232603 61.8127125 66.6654521 61.4716907 66.7607945 61.8758139 66.6953151 62.0728 66.6295616 62.2703348 64.3292877 62.7970942 64.3292877 62.7970942" mask="url(#eduardo-b)"/>
    <path fill="#4B2D20" d="M56.2452329 59.3087396C56.2452329 59.3087396 55.9167397 59.9010696 55.9167397 60.4933996 55.9167397 61.086004 55.9822192 61.678334 56.3764658 62.1386998 56.7709863 62.5996143 57.8882466 63.19167 57.8882466 63.19167L58.3485205 63.3892048C58.3485205 63.3892048 56.9024932 63.1260994 56.3764658 62.6651849 55.8509863 62.2048191 55.0622192 61.4149543 55.2592055 60.9540398 55.4564658 60.4933996 56.2452329 59.3087396 56.2452329 59.3087396M65.9723288 62.8627471C65.9723288 62.8627471 66.8923288 62.2704171 67.3523288 61.743932 67.8126027 61.2174469 68.2068493 60.6251169 67.8780822 60.0986318 67.549589 59.5721467 67.1323288 58.5984648 67.1323288 58.5984648 67.1323288 58.5984648 68.4980822 59.5899797 68.3273973 60.684103 68.1717808 61.681105 66.8265753 62.402107 65.9723288 62.8627471M60.471726 63.4422648C60.471726 63.4422648 61.5676164 63.7509129 62.0128219 63.7509129 62.4580274 63.7509129 63.7593973 63.2707936 63.7593973 63.2707936 63.7593973 63.2707936 62.6635068 64.1281495 62.1498082 64.0938553 61.6361096 64.059561 60.471726 63.4422648 60.471726 63.4422648" mask="url(#eduardo-b)"/>
    <path fill="#D78C80" d="M57.5466027 72.444227C57.5466027 72.444227 56.4057808 70.9569547 57.0060548 70.6595551 57.6066027 70.3618811 59.1074247 70.4214159 59.4079726 70.5404855 59.7082466 70.6595551 62.7698904 70.8381594 63.5504384 70.7786247 64.3312603 70.7190899 66.7926301 69.8266167 67.2129041 70.0644815 67.6331781 70.3023463 67.4531781 71.3138891 66.9726301 71.7303583 66.4923562 72.1468274 65.8320822 72.741901 65.1115342 72.920231 64.3909863 73.0988354 61.1487945 73.3367002 60.1282466 73.2176306 59.1074247 73.0988354 57.5466027 72.444227 57.5466027 72.444227M58.1881918 67.998295C58.3681918 67.9382115 60.1692877 67.8180445 60.5898356 67.9382115 61.0101096 68.0586529 61.7638082 68.2410982 61.8972329 68.1195594 62.0306575 67.998295 63.6517534 67.5173527 64.0723014 67.6976032 64.4923014 67.8784024 66.0673699 67.699798 66.6607945 68.1195594 67.2542192 68.5395952 68.2747671 68.9000962 68.0344932 69.2007881 67.7944932 69.5014799 66.5939452 69.2611459 65.7531233 69.2007881 64.9125753 69.1407046 63.3517534 69.4413964 63.1712055 69.5014799 62.9912055 69.5615634 61.5503836 69.2007881 61.3103836 69.3209551 61.0701096 69.4413964 59.9892877 69.7418139 59.1487397 69.6216469 58.3081918 69.5014799 56.5070959 69.2611459 57.0473699 68.9000962 57.5879178 68.5395952 58.1881918 67.998295 58.1881918 67.998295" mask="url(#eduardo-b)"/>
    <path fill="#553F38" d="M70.7638904,78.4939495 C70.1290959,79.0026016 67.0816986,80.0199058 65.748274,79.2569276 C64.4151233,78.4939495 62.7008767,77.9852974 62.7008767,77.4132696 C62.7008767,76.8409674 62.7644384,76.3959654 63.2088219,76.1416394 C63.6532055,75.8873133 65.1134795,76.3959654 65.557863,75.8873133 C66.0022466,75.3789356 66.0022466,74.4250072 66.0022466,74.4250072 C66.0022466,74.4250072 61.7485479,74.5523074 61.4312877,74.5523074 C61.1134795,74.5523074 57.6216986,74.4886573 57.6216986,74.4886573 C57.6216986,74.4886573 56.9233425,75.0606851 57.2408767,75.2516354 C57.558411,75.4423113 59.9707397,76.2689396 60.2885479,76.5229913 C60.6058082,76.7773173 60.9230685,77.9216473 60.6690959,78.0489475 C60.4153973,78.1762477 57.6852603,79.0026016 56.6696438,78.6846254 C55.6537534,78.3669237 53.368,76.3959654 53.1140274,75.6966374 C52.8600548,74.9973093 52.2252603,72.5813491 52.2885479,72.0090469 C52.3523836,71.4367447 52.9871781,70.6106652 52.9871781,70.6106652 L53.1140274,69.5297109 C53.3044384,69.2751105 54.1299178,68.5124068 55.7170411,67.8130787 C57.3044384,67.1137507 59.4630685,66.4144227 59.9074521,66.5417229 C60.3518356,66.6684744 61.2406027,67.0501006 62.0025205,66.9867249 C62.7644384,66.9228004 63.0819726,66.4777984 63.5263562,66.5417229 C63.9707397,66.6050986 65.2406027,66.4144227 66.5737534,66.8594247 C67.9069041,67.3044266 69.0496438,68.0037547 69.557863,68.7030827 C70.0655342,69.4024107 71.2718356,73.4713531 71.3986849,74.7429833 C71.5258082,76.0146135 71.3986849,77.9852974 70.7638904,78.4939495 M81.0490959,58.72154 C80.9858082,59.1028918 80.477589,61.5825022 80.2874521,62.2818302 C80.0967671,62.9811583 79.398411,64.8884664 79.398411,64.8884664 C79.398411,64.8884664 78.1921096,65.6514445 77.6206027,65.7784704 C77.0490959,65.9057706 75.3986849,68.6394326 75.3986849,68.6394326 C75.3986849,68.6394326 73.6211507,71.2460688 73.1129315,70.8647169 C72.6052603,70.483365 72.3512877,68.7030827 72.0970411,68.1944306 C71.8430685,67.6857785 70.9543014,65.9057706 70.6370411,65.5244187 C70.3195068,65.1427924 67.4625205,63.9984624 67.2721096,63.8711622 C67.0816986,63.7441364 65.3038904,63.3627845 64.7959452,63.2354843 C64.288,63.1084584 63.3795068,63.5101125 63.3795068,63.5101125 C63.3795068,63.5101125 62.5943014,64.1575877 62.1499178,64.0939376 C61.7055342,64.0302875 60.4718356,63.4423471 60.4718356,63.4423471 L57.8756712,63.4898103 C57.8756712,63.4898103 54.3838904,64.6341404 53.4315616,65.1427924 C52.4792329,65.6514445 50.7649863,67.4317268 50.7649863,67.4317268 C50.3838904,68.5124068 50.5745753,71.1190429 50.638137,71.373369 C50.7014247,71.627695 49.8762192,72.072697 49.4318356,71.9456712 C48.9874521,71.818371 48.0351233,70.2924147 47.3364932,69.339035 C46.638137,68.3851066 43.6543014,67.3678024 42.3211507,66.7323988 C40.987726,66.0964465 39.4641644,62.15453 39.2737534,61.2011503 C39.0830685,60.2472219 38.0671781,57.0685579 38.0671781,57.0685579 L37.8767671,60.0568203 C37.8767671,60.0568203 38.8926575,66.9228004 39.2737534,68.5124068 C39.6545753,70.1017388 41.4956712,75.3789356 41.4956712,75.3789356 C41.4956712,75.3789356 41.6860822,77.4766453 42.1940274,78.2396235 C42.7019726,79.0026016 47.1460822,83.5165459 50.0033425,84.724526 C52.8600548,85.9325062 57.8756712,87.3311622 60.0343014,87.5854883 C62.1929315,87.8398143 66.4466301,87.1404863 67.9069041,86.5684584 C69.3671781,85.9961563 73.4940274,82.1812656 74.0016986,81.6092378 C74.5099178,81.0372099 76.8589589,77.9216473 77.747726,76.7139416 C78.6364932,75.5056871 80.477589,68.6394326 80.7951233,67.1774008 C81.1123836,65.7150946 81.2395068,55.7969276 81.2395068,55.7969276 C81.2395068,55.7969276 81.1123836,58.3401881 81.0490959,58.72154" mask="url(#eduardo-b)"/>
    <path fill="#A67860" d="M37.8416986 60.6295889C37.8416986 60.6295889 37.3721096 60.965398 37.1038904 60.6965312 36.8353973 60.4282131 36.1647123 59.4874537 36.2318356 59.1516445 36.2986849 58.8158354 37.1710137 56.7332151 37.4392329 56.6662728 37.707726 56.5990561 38.0671781 57.0687499 38.0671781 57.0687499L37.8416986 60.6295889zM36.0303836 53.1730072C36.0303836 53.1730072 35.2254521 57.0691066 35.0912055 57.6737825 34.9572329 58.2781841 35.4939452 59.8233451 35.5607945 60.226371 35.6279178 60.6296712 35.896411 61.5026652 35.896411 61.5026652 35.896411 61.5026652 34.756137 59.0172934 34.4876438 58.2781841 34.2194247 57.5393491 33.8838082 56.3974883 33.9509315 55.4570032 34.0180548 54.5162437 33.4813425 52.1653054 34.0180548 52.030872 34.5544932 51.8967129 35.2925753 52.4341722 35.2925753 52.4341722L36.0303836 53.1730072z" mask="url(#eduardo-b)"/>
    <path fill="#2B1F1A" d="M38.2114521,56.4920581 C38.2114521,56.4920581 38.4854247,48.7185153 38.4854247,47.9870879 C38.4854247,47.2553861 38.2114521,44.3288533 38.2114521,44.3288533 C38.2114521,44.3288533 39.4900822,41.5853145 39.6725479,39.8478314 C39.8552877,38.1103483 38.3941918,35.2751753 38.3941918,34.5437479 C38.3941918,33.8120461 38.3026849,32.8059905 38.3026849,32.8059905 C38.3026849,32.8059905 39.1246027,34.1777598 39.2161096,33.3546982 C39.3073425,32.5316366 39.2161096,30.9771475 40.4032329,29.5137439 C41.5903562,28.0506147 44.8780274,26.0387777 44.8780274,26.0387777 C44.8780274,26.0387777 51.8188493,23.5695928 53.5539178,23.7523125 C55.2889863,23.9353066 59.4900822,25.0327221 62.6862466,24.3010203 C65.8826849,23.5695928 67.2525479,22.654897 67.2525479,22.654897 C67.2525479,22.654897 70.1750137,23.1122449 70.6314521,23.4779586 C71.0881644,23.8439467 74.7410411,27.501907 75.5629589,28.0506147 C76.3848767,28.5993225 77.572274,30.2454457 78.2114521,32.2572827 C78.8506301,34.269394 80.0380274,40.8538871 79.7640548,41.3109606 C79.4900822,41.7683085 80.1292603,48.7185153 80.1292603,48.7185153 L81.1339178,55.4860024 C81.1339178,55.4860024 80.7684384,49.0845034 80.8599452,47.8040938 C80.9511781,46.5236843 81.3163836,42.4083761 81.3163836,42.4083761 C81.3163836,42.4083761 81.4078904,35.5495292 81.3163836,33.8120461 C81.2251507,32.074563 79.9465205,31.4342211 79.8552877,30.7027936 C79.7640548,29.9710918 78.4854247,26.0387777 77.9374795,24.3926545 C77.3895342,22.7465312 75.502411,19.6669089 74.771726,18.9352072 C74.0410411,18.2035054 72.8306301,17.4237917 72.8306301,17.4237917 L74.4840548,16.9914099 C74.4840548,16.9914099 74.4840548,15.8396724 72.3276164,15.3359586 C71.4207671,15.1241575 70.3574795,15.1559825 70.3574795,15.1559825 C70.3574795,15.1559825 72.0013151,14.0132986 71.1793973,12.6415292 C70.3574795,11.2697598 68.1656986,10.4466982 68.1656986,10.4466982 L66.4306301,10.1723443 L66.3393973,11.1784 C66.3393973,11.1784 65.4259726,9.89799046 64.7867945,9.53227674 C64.1476164,9.16628867 62.5950137,9.53227674 62.5950137,9.53227674 C62.5950137,9.53227674 63.5081644,10.7210521 63.1429589,11.0867658 C62.7777534,11.4527539 61.681863,10.8124119 61.681863,10.8124119 C61.681863,10.8124119 61.4078904,8.61758091 60.5859726,8.16050736 C59.7640548,7.70315944 57.7547397,8.52622107 57.7547397,8.52622107 L58.8506301,10.7210521 C58.8506301,10.7210521 55.5629589,9.02883738 54.7410411,9.02883738 C53.9191233,9.02883738 52.9147397,9.3492827 52.0928219,9.53227674 C51.2709041,9.71499642 48.7136438,10.7210521 49.4443288,10.7210521 C50.1750137,10.7210521 51.9100822,11.2697598 51.8188493,11.7271078 C51.7273425,12.1841813 50.7229589,12.0928215 50.3574795,12.1841813 C49.992274,12.2758155 48.1656986,12.1841813 46.7958356,12.5501694 C45.4259726,12.9158831 44.6040548,14.1962926 44.6040548,14.5620064 C44.6040548,14.9277201 46.1566575,14.8363602 46.0654247,15.1107141 C45.9739178,15.385068 45.4259726,14.8363602 44.2388493,15.2937082 C43.051726,15.7507817 41.4991233,15.9790441 41.4078904,16.7107459 C41.3163836,17.4421734 41.5903562,18.1738751 41.5903562,18.1738751 C41.5903562,18.1738751 42.412274,17.4421734 42.9602192,17.7165272 C43.5081644,17.9908811 43.051726,18.448229 43.051726,18.448229 C43.051726,18.448229 40.8599452,20.0943523 39.6725479,21.100408 C38.4854247,22.1061893 35.5629589,27.501907 34.6498082,30.3368056 C33.7366575,33.1719785 34.0106301,36.281231 34.0106301,36.281231 L36.0196712,46.9810322 L38.2114521,56.4920581 Z" mask="url(#eduardo-b)"/>
    <path fill="#A67860" d="M81.8803836,61.0564012 C81.8803836,61.0564012 82.5812055,60.0914986 82.5812055,58.863765 C82.5812055,57.6354827 82.3184658,56.495268 82.3184658,56.495268 C82.3184658,56.495268 82.5812055,56.495268 82.8439452,54.4776696 C83.1069589,52.4606199 82.3184658,50.9692322 82.3184658,50.9692322 C82.3184658,50.9692322 81.4423014,51.7588227 81.3549041,52.635932 C81.2672329,53.5130414 81.5302466,55.1797412 81.5302466,55.1797412 L81.9680548,57.1970652 C81.9680548,57.1970652 82.1431233,58.4250732 82.055726,59.0390771 C81.9680548,59.6530811 81.8803836,61.0564012 81.8803836,61.0564012" mask="url(#eduardo-b)"/>
    <path fill="#FEFEFE" d="M46.3393973 94.0785392C46.3393973 94.0785392 48.5311781 94.6272469 49.4443288 95.5416684 50.3574795 96.4560899 53.2799452 103.406571 54.1930959 106.15011 55.1065205 108.893649 59.4900822 128.09842 59.4900822 128.09842 59.4900822 128.09842 60.5859726 132.305088 60.9511781 132.853796 61.3163836 133.402503 63.1429589 134.865633 62.0470685 135.780328 60.9511781 136.69475 59.8552877 137.792165 59.1246027 136.511756 58.3941918 135.231621 58.5766575 133.585497 58.3941918 132.853796 58.2114521 132.122094 53.8278904 109.076368 52.0013151 104.137998 50.1750137 99.1996286 46.3393973 94.0785392 46.3393973 94.0785392M75.3804932 92.0664278C75.5629589 91.3350004 75.9284384 89.1401694 75.9284384 89.1401694 75.9284384 89.1401694 77.0243288 89.1401694 77.3895342 90.7862926 77.7547397 92.4324159 80.4944658 104.686706 81.5903562 107.978953 82.6862466 111.271199 84.8780274 121.147939 84.8780274 121.147939 84.8780274 121.147939 85.9739178 123.891478 86.3393973 124.988893 86.7046027 126.086309 86.1566575 127.549712 84.6955616 127.183724 83.2341918 126.81801 83.2341918 121.879641 83.2341918 121.879641 83.2341918 121.879641 79.9465205 105.418408 78.6681644 101.028746 77.3895342 96.6390839 75.3804932 92.0664278 75.3804932 92.0664278" mask="url(#eduardo-b)"/>
    <path fill="#DBA47E" d="M71.6208493 46.412763C71.6208493 46.412763 70.784137 46.3277133 69.9085205 46.386425 69.0326301 46.4448624 68.6819452 47.000429 68.9446849 47.1757412 69.2074247 47.3513276 70.6383836 47.5269141 71.0178356 47.6435145 71.3975616 47.7606636 72.0107123 47.7900195 72.0107123 47.7900195L71.6208493 46.412763zM48.1608767 47.711664C48.1608767 47.711664 50.2260822 47.1799662 50.5211507 47.4754453 50.8162192 47.7709245 48.8156712 48.4699781 48.8156712 48.4699781L48.1608767 47.711664z" mask="url(#eduardo-b)"/>
    <path fill="#46211C" d="M53.9833425,69.2543419 C53.9833425,69.2543419 55.1041644,69.8422823 55.797863,69.949006 C56.4915616,70.056004 57.8792329,69.8957813 58.0926575,69.949006 C58.3060822,70.0027793 60.0674521,70.4299483 60.4408767,70.3767237 C60.8145753,70.3232247 61.8819726,70.109503 61.8819726,70.109503 C61.8819726,70.109503 63.4296438,70.3232247 63.6964932,70.2697256 C63.9633425,70.2162266 65.6710137,69.8957813 65.6710137,69.8957813 C65.6710137,69.8957813 67.0586849,69.8957813 67.4321096,69.949006 C67.8058082,70.0027793 69.0334795,69.36134 69.2466301,69.4680636 C69.4600548,69.5750616 69.0866301,70.2162266 68.9266301,70.2697256 C68.7663562,70.3232247 66.1512877,70.2162266 65.9912877,70.2162266 C65.8310137,70.2162266 63.8030685,70.4834473 63.5362192,70.4834473 L61.8285479,70.4834473 C61.8285479,70.4834473 60.2274521,70.4834473 59.5869041,70.5369463 C58.9466301,70.5904453 57.7723836,70.3232247 57.7723836,70.3232247 L55.3707397,70.3232247 C54.8907397,70.3232247 53.8764932,70.2697256 53.8233425,70.056004 C53.7699178,69.8422823 53.9833425,69.2543419 53.9833425,69.2543419" mask="url(#eduardo-b)"/>
  </g>
</svg>
