<svg xmlns="http://www.w3.org/2000/svg" width="56" height="56" viewBox="0 0 56 56">
  <g fill="none" fill-rule="evenodd">
    <path fill="#FFFFFF" d="M28,0 C12.536,0 0,12.536 0,28 C0,43.464 12.536,56 28,56 C43.464,56 56,43.464 56,28 C56,12.536 43.464,0 28,0 L28,0 Z"/>
    <path fill="#4E4B4A" d="M42.8571429,18 L13.1428571,18 C12.512,18 12,18.5226667 12,19.1666667 L12,37.8333333 C12,38.4773333 12.512,39 13.1428571,39 L42.8571429,39 C43.488,39 44,38.4773333 44,37.8333333 L44,19.1666667 C44,18.5226667 43.488,18 42.8571429,18 L42.8571429,18 Z M41.6137143,19.1666667 L28.8097143,32.238 C28.3577143,32.6994167 27.6245714,32.6994167 27.1725714,32.238 L14.368,19.1666667 L41.6137143,19.1666667 L41.6137143,19.1666667 Z M13.1428571,19.5300833 L21.924,28.4941667 L13.1428571,37.4693333 L13.1428571,19.5300833 L13.1428571,19.5300833 Z M14.3674286,37.8333333 L22.7148571,29.3015 L26.3971429,33.0605 C27.2777143,33.9588333 28.7045714,33.9588333 29.5845714,33.0605 L33.2668571,29.3015 L41.6142857,37.8333333 L14.3674286,37.8333333 L14.3674286,37.8333333 Z M42.8571429,37.4868333 L34.0582857,28.4941667 L42.8571429,19.512 L42.8571429,37.4868333 L42.8571429,37.4868333 Z"/>
  </g>
</svg>
