<svg xmlns="http://www.w3.org/2000/svg" width="56" height="56" viewBox="0 0 56 56">
  <g fill="none" fill-rule="evenodd">
    <path fill="#FFFFFF" d="M28,0 C12.536,0 0,12.536 0,28 C0,43.464 12.536,56 28,56 C43.464,56 56,43.464 56,28 C56,12.536 43.464,0 28,0 L28,0 Z"/>
    <path fill="#4E4B4A" stroke="#4E4B4A" d="M40.3214286,17 L15.6785714,17 C14.9821429,17 14.3928571,17.2439024 13.9107143,17.6341463 C13.8571429,17.6341463 13.8571429,17.6829268 13.8035714,17.6829268 C13.8035714,17.6829268 13.8035714,17.6829268 13.8035714,17.7317073 C13.3214286,18.1707317 13,18.804878 13,19.4878049 L13,36.5609756 C13,37.9268293 14.1785714,39 15.6785714,39 L40.3214286,39 C41.8214286,39 43,37.9268293 43,36.5609756 L43,19.4878049 C43,18.0731707 41.8214286,17 40.3214286,17 L40.3214286,17 Z M15.6785714,17.9756098 L40.3214286,17.9756098 C40.5357143,17.9756098 40.75,18.0243902 40.9107143,18.0731707 L27.9464286,29.8780488 L14.9821429,18.0731707 C15.25,18.0243902 15.4642857,17.9756098 15.6785714,17.9756098 L15.6785714,17.9756098 Z M14.0714286,36.5121951 L14.0714286,19.4390244 C14.0714286,19.195122 14.125,18.9512195 14.2857143,18.7560976 L24.3035714,27.8780488 L14.2321429,37.0487805 C14.125,36.902439 14.0714286,36.7073171 14.0714286,36.5121951 L14.0714286,36.5121951 Z M40.3214286,37.9756098 L15.6785714,37.9756098 C15.4107143,37.9756098 15.1428571,37.9268293 14.9285714,37.7804878 L25.0535714,28.5609756 L27.4642857,30.7560976 L27.5178571,30.7560976 C27.5714286,30.9512195 27.7857143,31.097561 28,31.097561 C28.2678571,31.097561 28.4285714,30.9512195 28.4821429,30.7560976 L28.4821429,30.7560976 L30.8928571,28.5609756 L41.0178571,37.7804878 C40.8571429,37.9268293 40.5892857,37.9756098 40.3214286,37.9756098 L40.3214286,37.9756098 Z M41.9285714,36.5121951 C41.9285714,36.7073171 41.875,36.902439 41.8214286,37.097561 L31.6964286,27.8780488 L41.7142857,18.7560976 C41.8214286,18.9512195 41.9285714,19.195122 41.9285714,19.4390244 L41.9285714,36.5121951 L41.9285714,36.5121951 Z"/>
  </g>
</svg>
