<svg xmlns="http://www.w3.org/2000/svg" xmlns:xlink="http://www.w3.org/1999/xlink" width="120" height="120" viewBox="0 0 120 120">
  <defs>
    <path id="esther-a" d="M119.902682,59.9512644 C119.902682,93.0614559 93.0614559,119.902682 59.9512644,119.902682 C26.8410728,119.902682 0,93.0614559 0,59.9512644 C0,26.8410728 26.8410728,0 59.9512644,0 C93.0614559,0 119.902682,26.8410728 119.902682,59.9512644"/>
  </defs>
  <g fill="none" fill-rule="evenodd">
    <mask id="esther-b" fill="#fff">
      <use xlink:href="#esther-a"/>
    </mask>
    <use fill="#7BCAEC" xlink:href="#esther-a"/>
    <path fill="#3A5E6D" d="M18.27833,121.83595 C18.27833,121.83595 16.6374771,106.728442 19.8785189,100.953247 C23.1192829,95.1780512 27.5016891,91.9205471 28.4277804,91.2275791 C29.3538717,90.534611 37.1167612,86.2293392 39.2000499,85.7672681 C41.2836165,85.305197 46.309375,79.134375 46.309375,79.134375 L80.5424988,71.2770293 C80.5424988,71.2770293 86.2298908,71.8402734 87.61875,72.9953125 C89.0076092,74.1503516 92.1172512,74.0489014 95.1266313,75.4351147 C98.1360113,76.8210508 101.377053,82.1341753 101.377053,82.1341753 C101.377053,82.1341753 115.315283,87.9285539 117.167187,88.390625 C119.01937,88.8524189 113.885174,121.605054 113.885174,121.605054 L18.27833,121.83595 Z" mask="url(#esther-b)"/>
    <path fill="#E9C1A8" d="M36.7164086,52.4079809 C36.7164086,52.4079809 37.9022166,57.2188422 38.5235922,57.9775036 C39.1449678,58.7358878 39.0099707,64.1213582 39.0099707,64.52522 C39.0099707,64.9290817 38.7821978,67.0182418 38.7821978,67.0182418 L37.9308271,67.3525295 C37.9308271,67.3525295 40.6591021,75.0904878 41.1768688,75.8655033 C41.6943577,76.6405187 42.8593328,79.7400262 42.8593328,79.7400262 C42.8593328,79.7400262 46.3539802,86.9729493 48.8130943,88.9102108 C51.2722083,90.8477494 55.2843447,93.5597491 55.2843447,93.5597491 C55.2843447,93.5597491 54.6374141,99.5009799 54.766578,100.146826 C54.8962975,100.792672 55.4140642,107.25058 55.4140642,107.25058 L63.6972203,119.132764 C63.6972203,119.132764 65.509126,120.682518 65.7680093,119.132764 C66.0271705,117.582733 70.2979124,107.76698 70.2979124,107.76698 L71.9806542,107.121134 C71.9806542,107.121134 75.9927906,102.084088 77.5460907,100.792672 C79.0993908,99.5009799 80.3935298,96.788703 80.3935298,96.788703 C80.3935298,96.788703 84.0176189,82.323411 83.4998522,80.3861496 C82.9820855,78.4486109 80.9110187,77.6735955 80.9110187,77.6735955 L80.3935298,67.8578418 C80.3935298,67.8578418 82.3348771,68.8911958 83.3704105,67.8578418 C84.4056662,66.8247651 85.8295246,64.2413803 86.7353386,60.7540879 C87.6414303,57.2670727 88.2886387,53.1342114 87.5119886,52.1008574 C86.7353386,51.0675035 84.5351079,51.0675035 84.5351079,51.0675035 L74.0514432,29.6276268 L41.3060327,30.0154117 C41.3060327,30.0154117 36.3878046,40.3475652 36.129199,40.9934114 C35.8703156,41.6392576 36.7164086,52.4079809 36.7164086,52.4079809" mask="url(#esther-b)"/>
    <path fill="#AAA3A4" d="M59.7042224,58.3637085 C59.7042224,58.3637085 60.8047544,58.2722367 61.3547426,58.3637085 C61.9050087,58.4551803 64.1060727,58.6381239 65.0229975,58.4551803 C65.9402001,58.2722367 67.8659922,57.5399081 67.8659922,57.5399081 C67.8659922,57.5399081 67.5909981,56.167277 66.0318648,55.8928617 C64.4727315,55.6184463 63.2805348,55.3437538 62.2719452,55.9843335 C61.2630779,56.6251903 59.6125577,57.7231289 59.6125577,57.7231289 L59.7042224,58.3637085 Z" mask="url(#esther-b)"/>
    <path fill="#D8CECD" d="M59.7042224,58.3637085 C59.7042224,58.3637085 61.0011391,57.0129752 62.5469394,56.8081339 C64.0927396,56.6030153 67.1323968,57.8148778 67.1323968,57.8148778 C67.1323968,57.8148778 65.11494,58.3637085 63.7391361,58.4551803 C62.36361,58.5466521 59.7042224,58.3637085 59.7042224,58.3637085" mask="url(#esther-b)"/>
    <path fill="#482D1D" d="M66.3701909,56.3256895 C66.8021261,57.4172528 66.2657487,58.6515674 65.1718832,59.0823164 C64.0780177,59.5136197 62.8410997,58.978094 62.4091645,57.8865307 C61.9772293,56.7949675 62.5136067,55.5606528 63.6074722,55.1299039 C64.7013377,54.6988778 65.9382557,55.2341263 66.3701909,56.3256895" mask="url(#esther-b)"/>
    <path stroke="#221200" stroke-width=".5" d="M66.3701909,56.3256895 C66.8021261,57.4172528 66.2657487,58.6515674 65.1718832,59.0823164 C64.0780177,59.5136197 62.8410997,58.978094 62.4091645,57.8865307 C61.9772293,56.7949675 62.5136067,55.5606528 63.6074722,55.1299039 C64.7013377,54.6988778 65.9382557,55.2341263 66.3701909,56.3256895 Z" mask="url(#esther-b)"/>
    <path fill="#221200" d="M66.559798,56.8137331 C66.559798,56.8137331 65.5292645,56.5376546 64.403733,56.6435401 C63.3643108,56.7413872 62.2087799,57.2070617 62.2340572,57.317105 C62.0946157,56.1254772 62.950153,55.0466646 64.1448496,54.9075166 C65.3392685,54.7686458 66.4206343,55.6221052 66.559798,56.8137331" mask="url(#esther-b)"/>
    <path fill="#221F20" d="M65.2044381,56.7850442 C65.382212,57.2340875 65.1613834,57.7418944 64.7113931,57.9192943 C64.2614027,58.0964169 63.7525247,57.8763302 63.5750285,57.4270098 C63.3972545,56.9779665 63.6180831,56.4704367 64.0680735,56.2933141 C64.5177861,56.1159142 65.0266641,56.3360009 65.2044381,56.7850442" mask="url(#esther-b)"/>
    <path fill="#FEFEFE" d="M64.092823,56.5925931 C64.0986562,56.7996519 63.9347708,56.9723396 63.7272752,56.9781605 C63.5195019,56.9837043 63.34645,56.8201638 63.3408946,56.6131049 C63.3350614,56.4057689 63.4989468,56.2330813 63.7064423,56.2275375 C63.9142157,56.2217166 64.0869898,56.3852571 64.092823,56.5925931" mask="url(#esther-b)"/>
    <path fill="#E9C1A8" d="M67.3079486,56.1042724 C67.3079486,56.1042724 65.1191066,55.3533722 64.4593985,55.592862 C63.7999681,55.8323517 61.8211216,55.891947 61.8211216,55.891947 C61.8211216,55.891947 62.4805519,54.5755849 63.4999745,54.5157125 C64.5193972,54.45584 65.958533,54.3959676 65.958533,54.3959676 L67.3079486,56.1042724 Z" mask="url(#esther-b)"/>
    <path fill="#8F463E" d="M47.0540764,80.2496071 C47.0540764,80.2496071 48.3159938,80.2496071 49.2865286,79.9591149 C50.2573412,79.6683456 51.616201,78.8936073 52.004526,78.9906228 C52.392851,79.0873612 53.4603282,79.8623766 54.2369783,79.6683456 C55.0136283,79.4748689 56.4694305,78.6031151 56.4694305,78.6031151 C56.4694305,78.6031151 58.2166153,78.6998534 59.5757529,78.9906228 C60.9346127,79.281115 62.1965302,79.0873612 63.2640074,79.281115 C64.3317623,79.4748689 66.2156109,79.039685 66.2156109,79.039685 C66.2156109,79.039685 63.167065,79.8623766 62.1965302,80.2496071 C61.2257176,80.6371149 51.5412026,81.4160109 50.7645525,81.7067803 C49.9881803,81.9972725 49.1895862,81.0246226 48.4129362,80.9276071 C47.6365639,80.8308687 47.0540764,80.2496071 47.0540764,80.2496071" mask="url(#esther-b)"/>
    <path fill="#B59076" d="M47.45579,69.7048511 C47.935502,70.1835534 48.654931,71.3801707 49.6143549,71.5395533 C50.5737788,71.6992131 51.2932079,71.7790431 51.9329164,71.3801707 C52.572625,70.9810211 54.6511916,70.0236164 54.6511916,70.0236164 C54.6511916,70.0236164 56.3303224,69.3059787 56.8897548,69.5451913 C57.4497429,69.7844039 57.929177,70.1835534 58.2488924,69.2258716 C58.5688856,68.268467 57.3694668,66.274105 57.3694668,66.274105 C57.3694668,66.274105 59.4483112,68.1889143 59.9280232,69.4653614 C60.4077351,70.7418085 61.2871608,72.2577454 60.0880197,73.21515 C58.888601,74.1725547 57.1508604,73.3551296 55.566172,73.4815269 C54.8103549,73.5419537 54.3959193,74.0569676 53.2551104,74.183365 C51.6615334,74.3602104 50.5398907,73.4222089 50.1398992,73.5815915 C49.7401856,73.7415285 48.3679927,74.0785882 47.7282842,73.2808434 C47.0885756,72.4830986 47.1360746,72.1779155 47.2157951,71.3003407 C47.2957934,70.422766 47.45579,69.7048511 47.45579,69.7048511" mask="url(#esther-b)"/>
    <path fill="#AAA3A4" d="M40.5378269,59.9193663 C40.7211563,60.1937817 42.6469484,60.5602232 43.2888791,60.6516949 C43.9308099,60.7431667 47.0487987,60.3770024 47.5074,60.3770024 C47.9660013,60.3770024 48.7912614,59.8278945 48.7912614,59.8278945 C48.7912614,59.8278945 47.7946161,58.6551154 46.4985327,58.3637917 C45.2024493,58.0721907 45.306336,57.5399913 43.564151,57.9061556 C41.8216883,58.2723199 40.5378269,59.9193663 40.5378269,59.9193663" mask="url(#esther-b)"/>
    <path fill="#D8CECD" d="M41.5466386,60.2856138 C42.0966269,60.102393 42.292456,59.8507071 43.7474249,59.4618134 C45.2026715,59.0731969 46.6820843,59.187398 47.4156797,59.4618134 C48.1495529,59.7365059 48.3328823,60.1938648 48.3328823,60.1938648 C48.3328823,60.1938648 47.1406856,60.6515009 45.3065582,60.8344445 C43.4724308,61.0176652 41.5466386,60.2856138 41.5466386,60.2856138" mask="url(#esther-b)"/>
    <path fill="#482D1D" d="M47.1833236,58.5125858 C47.6152588,59.604149 47.0788814,60.8384637 45.9850159,61.2692126 C44.8911504,61.7002387 43.6542324,61.164713 43.2222972,60.073427 C42.790362,58.9818637 43.3267394,57.7475491 44.4206049,57.3168001 C45.5144704,56.8854968 46.7513884,57.4210225 47.1833236,58.5125858" mask="url(#esther-b)"/>
    <path stroke="#221200" stroke-width=".5" d="M47.1833236,58.5125858 C47.6152588,59.604149 47.0788814,60.8384637 45.9850159,61.2692126 C44.8911504,61.7002387 43.6542324,61.164713 43.2222972,60.073427 C42.790362,58.9818637 43.3267394,57.7475491 44.4206049,57.3168001 C45.5144704,56.8854968 46.7513884,57.4210225 47.1833236,58.5125858 Z" mask="url(#esther-b)"/>
    <path fill="#221200" d="M47.3727918,59.000657 C47.3727918,59.000657 46.3422583,58.7245786 45.2167268,58.8304641 C44.1773046,58.9283112 43.0217737,59.3937085 43.047051,59.504029 C42.9078873,58.3124012 43.7631468,57.2335885 44.9578434,57.0944405 C46.1522623,56.9555698 47.2336281,57.808752 47.3727918,59.000657" mask="url(#esther-b)"/>
    <path fill="#221F20" d="M46.0174319,58.9719681 C46.1952059,59.4210114 45.9743772,59.9285412 45.5246646,60.105941 C45.0743965,60.2830637 44.5655185,60.0632542 44.3880223,59.6139337 C44.2102483,59.1648904 44.4310769,58.6570835 44.8810673,58.4799608 C45.3307799,58.302561 45.8396579,58.5229249 46.0174319,58.9719681" mask="url(#esther-b)"/>
    <path fill="#FEFEFE" d="M44.9058168,58.7792399 C44.91165,58.9865759 44.7477646,59.1589864 44.540269,59.1648073 C44.3324957,59.170351 44.1594438,59.0070878 44.1538884,58.7997517 C44.1480552,58.5926929 44.3119406,58.4200052 44.5194361,58.4144615 C44.7272095,58.4086406 44.8999836,58.572181 44.9058168,58.7792399" mask="url(#esther-b)"/>
    <path fill="#B59076" d="M48.1256923,67.4933129 C48.3881867,67.1005387 49.2109469,63.2883829 49.7837124,61.6582449 C50.3567557,60.0283841 50.6192501,59.1117259 51.5378416,58.849784 C52.456433,58.5878421 54.0313993,59.5047774 54.0313993,59.5047774 C54.0313993,59.5047774 55.7810841,62.5020028 56.6996756,63.5497704 C57.618267,64.5975381 58.6926885,66.1010016 58.0024255,64.1124605 C57.3124402,62.1239194 57.0463348,60.466617 57.4402153,59.8119008 C57.833818,59.1571846 59.6332239,57.5478357 60.0609925,57.3903933 C60.4884834,57.2326738 62.4306641,55.8375906 62.9556528,55.5759258 C63.4806416,55.3139839 63.7436915,54.7119333 64.7483923,54.366558 C65.753093,54.0209056 67.7422171,55.1767762 68.2672059,54.9148343 C68.7921946,54.6531696 72.6262793,53.2192801 72.0110147,52.9565067 C69.916615,52.0620235 60.0684924,53.087339 57.4435485,54.3970486 C54.8188825,55.7067582 52.5878191,56.8853582 51.9314442,56.8853582 C51.2753472,56.8853582 47.3382092,56.230642 46.1571233,55.8375906 C44.9760375,55.4448163 40.3825246,55.8375906 40.3825246,55.8375906 C40.3825246,55.8375906 42.8855267,57.0112012 42.4213699,57.930354 C41.9572132,58.849784 43.951615,57.8070057 43.951615,57.8070057 C43.951615,57.8070057 45.746021,57.5968978 47.1896012,58.6446655 C48.6331815,59.692156 48.955119,60.1877667 48.8012334,61.8459006 C48.6473478,63.5043117 48.1256923,67.4933129 48.1256923,67.4933129" mask="url(#esther-b)"/>
    <path fill="#976847" d="M55.9999961 54.0042466C55.9999961 54.0042466 57.1810819 52.8256466 58.0999512 52.4325951 59.0185426 52.0398208 66.2367215 50.9920531 67.9427962 50.8609436 69.6488708 50.7301112 72.4049229 52.3014855 72.4049229 52.3014855L72.0110425 52.9564789C72.0110425 52.9564789 64.7928635 52.8256466 63.0867889 52.9564789 61.3807143 53.0873113 57.7060707 55.4447886 56.7872015 55.4447886 55.86861 55.4447886 55.9999961 54.0042466 55.9999961 54.0042466M47.8631146 54.9744019C47.8631146 54.9744019 46.15704 54.7900724 44.4509654 54.3970209 42.7448908 54.0042466 39.7263442 53.7423047 38.6763667 54.0042466 37.6263892 54.2659113 37.4952809 55.8375628 37.4952809 55.8375628L38.807475 56.6233886C38.807475 56.6233886 43.0073852 55.4447886 44.188471 55.8375628 45.3695568 56.2306143 48.5192117 57.8019886 49.0442005 57.1472724 49.5691892 56.4925562 47.8631146 54.9744019 47.8631146 54.9744019" mask="url(#esther-b)"/>
    <path fill="#453128" d="M48.2039407,59.4643358 C48.1306089,59.2450807 47.2522943,58.2228143 45.7884368,57.7843041 C44.3245792,57.3460711 43.2998789,57.565049 42.4215644,57.9303817 C41.5432498,58.2954373 40.9346517,58.862008 40.4221627,59.1541633 C39.9099514,59.4463186 39.2007999,60.2676243 39.4205175,60.3408018 C39.6399572,60.4139792 40.4452178,60.5597797 41.1038148,59.9025688 C41.7626896,59.2450807 42.4946184,58.2954373 43.2998789,58.2228143 C44.1048617,58.1496368 45.2028937,57.8572043 45.9348225,58.2954373 C46.6667513,58.7336703 48.2039407,59.4643358 48.2039407,59.4643358" mask="url(#esther-b)"/>
    <path fill="#684E40" d="M48.4244637 58.2722367C48.0575271 58.180765 47.0489376 56.5337185 45.3981396 56.6251903 43.7476193 56.7166621 42.6470873 56.6251903 41.4548906 57.2654928 40.2626939 57.9063496 39.4374338 58.9130936 39.4374338 58.9130936 39.4374338 58.9130936 41.1796187 57.3569646 42.5554226 57.2654928 43.9309487 57.174021 45.3981396 56.8081339 46.0400703 57.174021 46.682001 57.5399081 48.4244637 58.2722367 48.4244637 58.2722367M57.7784025 57.9062387C57.7784025 57.9062387 58.9705992 55.801279 59.9791887 55.0695048 60.988056 54.3371762 62.2719175 54.1542326 63.3724495 54.1542326 64.4729815 54.1542326 66.7654324 53.8798173 67.5909703 54.3371762 68.4162305 54.7945351 69.7917566 56.0756944 69.7917566 56.0756944 69.7917566 56.0756944 69.4250978 56.3506641 68.5995599 55.9842226 67.7742998 55.6183355 67.4073632 54.7030633 65.7568429 54.6115915 64.1060449 54.5201197 61.9969234 54.7030633 61.0797208 55.3439201 60.1627959 55.9842226 57.7784025 57.9062387 57.7784025 57.9062387" mask="url(#esther-b)"/>
    <path fill="#E9C1A8" d="M42.4340641 60.7222391C42.4340641 60.7222391 43.9445873 60.9733707 44.951788 60.8896602 45.9589887 60.8059496 47.1339635 60.4711075 47.1339635 60.4711075 47.1339635 60.4711075 47.4695119 61.6433322 45.6231625 61.8944638 43.7768131 62.1458726 42.4340641 60.7222391 42.4340641 60.7222391M61.9890346 58.7018215C61.9890346 58.7018215 64.0031582 58.785532 64.6745327 58.7018215 65.346185 58.6181109 67.1322579 57.9717104 67.1322579 57.9717104 67.1322579 57.9717104 67.1925344 59.371783 65.2622979 59.7069023 63.3317837 60.0417445 61.9890346 58.7018215 61.9890346 58.7018215" mask="url(#esther-b)"/>
    <path fill="#684E40" d="M53.3720245 72.3375753C53.6917399 72.1779155 54.7311621 71.3801707 55.7705843 71.3003407 56.8100065 71.220788 57.6094339 71.6193832 57.3697168 71.8585958 57.1297219 72.0983627 56.5700117 72.3375753 56.8100065 72.5767879 57.0497236 72.8162776 57.7694305 73.0554902 58.2491424 72.9759374 58.7288544 72.8961075 59.1285681 72.8961075 59.5282817 72.5767879 59.9279954 72.2577454 60.087992 71.220788 60.087992 71.220788 60.087992 71.220788 60.5677039 72.4969579 59.5282817 73.1353201 58.4888595 73.7736823 56.9700031 73.7736823 56.5700117 73.4543626 56.170298 73.1353201 55.7705843 72.4969579 55.5305895 72.4969579 55.2908724 72.4969579 53.3720245 72.3375753 53.3720245 72.3375753M54.0116497 73.4544457C54.0116497 73.4544457 53.2922207 73.8533181 52.4925156 73.6936583 51.6930882 73.5342757 50.9733814 72.9757434 50.9733814 72.9757434 50.9733814 72.9757434 48.6550977 71.6992963 48.7348182 72.0981687 48.8150942 72.4970411 49.2145301 73.2152332 49.6142438 73.2152332 50.0142353 73.2152332 51.2133763 73.5342757 51.2133763 73.5342757 51.2133763 73.5342757 52.1728002 74.571233 53.0522258 74.4118504 53.9316515 74.2521905 54.0116497 73.4544457 54.0116497 73.4544457" mask="url(#esther-b)"/>
    <path fill="#6D342B" d="M47.0540764,80.2496071 C47.0540764,80.2496071 48.6520977,80.6664967 49.2318076,80.6085646 C49.8115174,80.5506325 51.4928703,80.1456619 51.9567493,80.1456619 C52.4206282,80.1456619 53.8703194,80.1456619 54.6239144,80.2615262 C55.3777872,80.3771133 57.0591401,79.5092401 57.5230191,79.5671722 C57.9866203,79.6251044 60.3060151,79.6827593 61.1757187,79.7406914 C62.0454223,79.7986235 63.5709452,79.3512434 64.7186985,79.1502827 C65.3150746,79.0460603 66.6278243,78.2355648 66.7417107,78.4678477 C66.8555972,78.6998534 66.0458923,79.5671722 65.8720071,79.5671722 C65.698122,79.5671722 62.3931927,80.0877298 61.987368,80.1456619 C61.5815434,80.2035941 50.0434569,81.1293994 50.0434569,81.1293994 C50.0434569,81.1293994 48.7098743,81.0135351 47.9562793,80.897948 C47.2026843,80.7820838 47.2535165,80.4694166 47.0540764,80.2496071" mask="url(#esther-b)"/>
    <path fill="#D9898B" d="M50.0067354,81.1645467 C50.0067354,81.1645467 51.4844816,80.39064 52.1639115,80.4876555 C52.8433414,80.5843939 53.4477729,80.6459294 54.5155279,80.7426678 C55.5832828,80.8394061 56.397432,80.3243923 57.1738043,80.1306384 C57.9504544,79.9366073 59.5756974,80.056075 60.4492898,80.1530906 C61.3228822,80.2495517 62.5845219,80.1530906 62.5845219,80.1530906 C62.5845219,80.1530906 61.6139871,80.3465672 60.8373371,80.9278288 C60.0609648,81.5088132 59.7695821,82.6713364 58.4107223,82.8650903 C57.0518625,83.0588441 54.2369227,83.2523208 52.8780629,83.1555825 C51.5192031,83.0588441 50.0631231,81.7025671 50.0631231,81.7025671 L50.0067354,81.1645467 Z" mask="url(#esther-b)"/>
    <path fill="#B59076" d="M83.1287213 55.707174C83.1287213 55.707174 85.360618 53.3696542 86.0239371 52.89705 86.6872563 52.4241686 87.4450178 52.7080083 87.4450178 52.7080083L86.4028179 57.9077633C86.4028179 57.9077633 86.8766966 54.315417 85.8344967 54.5989795 84.7922968 54.8822648 83.1287213 55.707174 83.1287213 55.707174M82.0447722 57.6242008C81.5708935 58.191603 81.0972925 58.9477697 81.0972925 58.9477697 81.0972925 58.9477697 81.950052 59.4203739 81.6656137 60.1768178 81.3814531 60.9332617 80.8131319 62.634914 81.3814531 63.0129974 81.950052 63.3913579 82.6130934 63.2023163 82.6130934 62.634914 82.6130934 62.067789 82.1394924 60.6496992 82.423653 60.1768178 82.7078136 59.7042136 84.1288943 59.4203739 83.6552933 58.4751655 83.1816924 57.5296799 82.0447722 57.6242008 82.0447722 57.6242008M84.4132771 62.0678444C84.4132771 62.0678444 83.8449559 63.0130528 83.8449559 63.2968925 83.8449559 63.5804551 84.2238367 64.7149823 84.2238367 64.7149823 84.2238367 64.7149823 84.8871559 64.2423781 85.1713165 63.8640176 85.455477 63.4859342 86.7818376 59.5149502 86.5923972 59.8933107 86.4029568 60.2716713 84.9815983 63.1078509 84.6974377 62.918532 84.4132771 62.7297675 84.4132771 62.0678444 84.4132771 62.0678444M79.4866325 68.5912238C79.4866325 68.5912238 77.7813912 77.8564836 77.1180721 79.7474548 76.4547529 81.6381488 75.7917116 83.7181616 73.6125915 85.4200911 71.4334715 87.1217434 66.2227496 90.9979295 64.7069487 91.7543734 63.19087 92.5108173 60.8223096 93.0779423 59.4012289 93.266984 57.9801482 93.4560257 55.9904685 93.4560257 56.2746291 93.6453445 56.5587897 93.834109 58.5484694 95.7253574 62.3381105 96.4815241 66.1280294 97.237968 71.3387513 96.576045 73.8967521 93.4560257 76.4547529 90.3362836 78.7285932 81.2600654 78.7285932 80.8819821 78.7285932 80.5038987 79.4866325 68.5912238 79.4866325 68.5912238" mask="url(#esther-b)"/>
    <path fill="#8B5530" d="M85.4411718,46.6762759 L85.7000552,40.7353224 L85.3117301,38.410276 L86.7353108,37.8938762 C86.7353108,37.8938762 85.8294968,32.5982145 85.7000552,31.9526455 C85.5706135,31.3067993 84.2761967,29.1111993 83.4998244,28.4653531 C82.7231744,27.8195069 82.3348494,27.4322764 82.3348494,27.4322764 L83.7587078,26.3989224 L82.464291,24.0738761 L82.5937327,21.8782761 L80.1346187,19.5537842 L79.2288047,17.874584 L73.9222516,15.5498149 L71.2361979,15.3261248 C71.2361979,15.3261248 66.9329566,12.7083687 64.2149592,12.0625225 C61.4969618,11.4166763 54.8568261,11.7614972 54.2096177,11.7614972 C53.5626871,11.7614972 45.7305244,12.871086 45.0835937,13.2585937 C44.4363854,13.6461015 47.5128166,15.9960863 46.7006117,16.1601811 C44.2428865,16.656069 43.575123,19.2533132 43.3162397,18.7363591 C43.0573563,18.2199593 37.5527519,17.874584 37.5527519,17.874584 C37.5527519,17.874584 39.3646575,21.2327071 38.9766103,21.1035379 C38.5882853,20.9743686 36.3730549,20.2852812 34.1728242,21.1894659 C31.9725935,22.0936506 30.1754097,23.2991378 30.1754097,23.2991378 C30.1754097,23.2991378 32.116757,26.5280917 31.8578737,27.1739379 C31.5989903,27.8195069 31.9873154,27.8195069 30.1754097,28.2070146 C28.363504,28.5945224 25.9043899,28.0781226 26.2924372,28.8528608 C26.6807622,29.6275991 28.363504,30.9195687 28.363504,30.9195687 L26.2924372,33.8899069 L30.5637347,33.5023992 C30.5637347,33.5023992 28.2340623,35.9566148 28.1046207,37.8938762 L31.8578737,35.6982763 C31.8578737,35.6982763 30.3048514,37.764707 30.6931764,39.9603069 C31.0815014,42.1559068 31.5989903,45.1265222 31.5989903,44.2223375 C31.5989903,43.3181528 33.6700571,39.8311377 34.0581044,39.8311377 C34.4464294,39.8311377 33.7994988,42.801753 33.9289405,43.7059377 C34.0581044,44.6098452 35.9997295,51.713322 35.9997295,51.713322 L37.5527519,55.3297836 L37.8116352,53.9089219 C37.8116352,53.9089219 36.5174962,46.5473839 37.1644268,44.2223375 C37.8116352,41.8975684 38.9766103,38.7977837 38.9766103,38.7977837 C38.9766103,38.7977837 39.2354936,41.1225529 40.0118659,40.4767067 C40.788516,39.8311377 43.1181883,37.5060913 44.1537217,37.1188608 C45.1889774,36.731353 46.7422775,36.3438453 46.7422775,36.3438453 L46.2245108,38.7977837 C46.2245108,38.7977837 48.2952998,37.1188608 51.7899473,36.4730146 C55.284317,35.8274455 60.8500312,34.5357531 60.8500312,34.5357531 L64.7327259,35.1815993 L69.5215124,34.7940916 C69.5215124,34.7940916 71.5923014,36.9896915 71.3334181,38.0230455 C71.0748125,39.0561222 70.6864875,41.2517221 70.6864875,41.2517221 C70.6864875,41.2517221 72.8867182,39.4436299 73.1456015,39.8311377 C73.4044849,40.2183682 73.9222516,43.5767685 73.9222516,43.5767685 L75.6047156,42.2850761 C75.6047156,42.2850761 76.8988545,44.6098452 77.8049463,46.8054452 C78.711038,49.0010451 79.7462936,52.6175067 79.7462936,52.6175067 C79.7462936,52.6175067 79.3579686,59.9795991 79.3579686,59.5918142 C79.3579686,59.2045837 80.1301743,57.0452953 81.6879188,54.4901835 C83.2453854,51.935349 85.1897883,50.9651937 85.1897883,50.9651937 L85.4411718,46.6762759 Z" mask="url(#esther-b)"/>
    <path fill="#BB6B3C" d="M57.3325787 33.5598047C56.467875 33.4156673 47.6775075 36.8672025 47.6775075 36.8672025 47.6775075 36.8672025 49.6949643 34.2788283 48.6863748 34.5662714 47.6775075 34.8539918 45.6600506 34.8539918 44.2189704 35.7165984 42.7781678 36.5797594 40.3282203 38.0175294 40.3282203 38.0175294L41.7693005 35.4291552C41.7693005 35.4291552 38.3107634 36.2917618 37.8782727 36.5797594 37.4460597 36.8672025 42.3456771 32.9846412 41.625137 32.8405038 40.9045968 32.6969209 34.7080627 32.9846412 33.411146 33.7036648 32.1142293 34.4224113 29.9526089 35.8607357 29.9526089 35.8607357 29.9526089 35.8607357 32.4025565 31.9778972 31.6820163 31.8340371 30.9614762 31.6904541 27.6468249 33.1282242 28.2234792 32.5530607 28.7998558 31.9778972 32.1142293 30.1085466 31.9700657 29.6769662 31.8259021 29.2456628 29.3762323 29.8208263 29.8084453 29.389523 30.2409361 28.9579425 34.1316862 27.0885919 35.71693 27.2324521 37.3018961 27.3760351 43.0662172 26.5134285 43.0662172 26.5134285 43.0662172 26.5134285 47.1011309 26.8008716 46.5247544 27.0885919 45.9483778 27.3760351 40.4723838 30.1085466 40.4723838 30.1085466 40.4723838 30.1085466 44.9395105 30.3959898 45.5158871 30.1085466 46.0925414 29.8208263 48.253884 27.5201724 49.2627513 27.3760351 50.2716186 27.2324521 57.9089553 27.0885919 57.0442515 27.3760351 56.1798256 27.6637554 50.991881 29.389523 49.9832915 29.9646865 48.9744242 30.53985 52.7212885 31.9778972 53.729878 32.1217574 54.7387453 32.2656175 57.3325787 33.5598047 57.3325787 33.5598047M56.035662 21.4802353C55.1709583 20.6176287 49.6949643 18.1728375 49.6949643 18.1728375 49.6949643 18.1728375 47.1011309 19.0357213 47.5336217 19.3234416 47.9658346 19.6108847 50.7038316 21.048932 49.6949643 20.905349 48.6863748 20.7612117 43.9306432 20.3301856 43.9306432 20.3301856 43.9306432 20.3301856 47.2452945 21.7679556 46.6689179 22.0553988 46.0925414 22.3431191 42.0573499 22.9182826 42.0573499 22.9182826 42.0573499 22.9182826 45.9483778 22.9182826 46.5247544 23.2060029 47.1011309 23.4937232 55.6031712 24.5004672 55.6031712 24.5004672 55.6031712 24.5004672 50.991881 21.1927922 52.0007483 21.048932 53.0093379 20.905349 56.035662 21.4802353 56.035662 21.4802353M75.3456933 33.5598047C75.3456933 33.5598047 75.2015298 40.893624 75.4898569 40.4620435 75.7781841 40.0310174 77.3631502 39.1678564 77.3631502 39.1678564L78.3720175 41.9003679 79.8130978 39.4558539 82.2627676 40.4620435 81.9744404 36.7233423 83.9918972 37.2985058 83.8480114 33.4156673C83.8480114 33.4156673 81.1100145 29.9646865 81.1100145 30.53985 81.1100145 31.1152906 81.8305546 35.1414349 80.6775237 35.1414349 79.5247706 35.1414349 77.9395267 35.1414349 77.3631502 34.8539918 76.7867736 34.5662714 75.3456933 33.5598047 75.3456933 33.5598047" mask="url(#esther-b)"/>
    <polygon fill="#B59076" points="59.928 69.465 63.654 72.447 59.928 70.956" mask="url(#esther-b)"/>
    <path fill="#2F4852" d="M47.9070581 109.3169L54.6371919 117.324561 55.6727253 119.649053C55.6727253 119.649053 41.6944133 119.132653 41.6944133 118.357638 41.6944133 117.582623 40.4002743 102.600931 40.1413909 101.825915 39.8825076 101.0509 39.8825076 93.8182539 39.8825076 93.8182539L43.7654801 109.575238 47.9070581 109.3169zM76.1223156 118.357693C76.6400823 117.066278 80.7816604 107.508586 81.5583104 106.991909 82.3349605 106.475509 91.9125334 93.5596937 91.9125334 93.5596937L100.195967 86.3270477C100.195967 86.3270477 89.3239776 100.534278 88.2884442 102.600709 87.2531886 104.66714 84.9235162 111.125047 84.9235162 111.125047L84.6646329 119.132709 76.1223156 118.357693z" mask="url(#esther-b)"/>
    <path fill="#453128" d="M59.1832613,58.0034206 C59.2796482,57.859006 59.4110342,57.3764231 60.0221323,56.8658443 C60.3382366,56.6014076 61.1296086,56.228868 61.3790477,56.1041338 C62.1112542,55.7390782 63.5751118,55.1550448 64.8192519,55.3740227 C66.0636697,55.5932777 66.8686525,55.7390782 67.3080875,56.1041338 C67.7472448,56.4697437 69.3574881,57.2730323 69.3574881,57.2730323 C69.3574881,57.2730323 69.4305421,57.7844427 69.0647166,57.7112653 C68.6986133,57.638365 68.0400163,58.076598 67.4541955,57.4920102 C66.8686525,56.9079767 65.3503516,55.6667324 64.3895388,55.9586105 C63.4287261,56.2504886 62.7698513,55.9583333 61.4523794,56.6887216 C60.8321149,57.0324338 60.6868403,57.6583225 60.2899043,57.8917141 C59.843525,58.1542104 59.1832613,58.0034206 59.1832613,58.0034206" mask="url(#esther-b)"/>
    <path fill="#2E1C10" d="M38.5235644,57.9774481 L34.2525447,57.9131407 C34.2525447,57.9131407 33.9286627,59.0753867 33.9933836,59.4626172 C34.0581044,59.8504021 34.1878238,60.6251404 34.1878238,60.6251404 C34.6405919,60.6251404 38.9118894,59.8504021 38.9118894,59.8504021 C38.9118894,59.8504021 38.6530061,59.1396941 38.6530061,58.816771 C38.6530061,58.4941251 38.5235644,57.9774481 38.5235644,57.9774481" mask="url(#esther-b)"/>
    <path fill="#2E1C10" d="M71.4629986,63.2729713 C70.5569069,64.3063252 68.6155595,64.8873096 65.2503538,65.4037094 C61.8854257,65.9206636 59.4907547,65.2102327 58.0024533,64.1122942 C56.5141518,63.0143556 54.7703002,59.2651213 54.4433627,57.9130021 C53.9903169,56.0400481 56.3197115,54.8778021 58.0024533,54.4257098 C59.6849173,53.9736174 65.4445163,52.8756789 67.9036303,52.9405407 C70.3627444,53.0048481 71.4629986,53.1342945 72.2393709,54.038202 C73.016021,54.9421095 73.016021,56.8796482 73.1454626,58.752325 C73.2749043,60.6250018 72.3690903,62.2393402 71.4629986,63.2729713 L71.4629986,63.2729713 Z M48.8776485,59.3335866 C48.8129276,60.6898636 48.4248804,63.0792174 47.9718345,64.3063252 C47.5187886,65.5328786 46.6126969,66.3078941 45.1243954,66.7599864 C43.6358162,67.2120788 40.9180965,67.341248 38.7823089,67.0183249 C36.646799,66.695679 36.258474,65.7914943 35.6115434,64.9518942 C34.964335,64.1122942 33.9935224,61.4000173 33.9935224,61.4000173 C33.7346391,59.7856789 33.5404766,58.0421714 34.7701725,57.2025713 C35.9998684,56.3629712 38.7823089,55.9757407 41.4355855,55.7819868 C44.088862,55.5879558 46.8068594,56.2983866 47.7129512,56.8150636 C48.6190429,57.3314633 48.9423693,57.9775867 48.8776485,59.3335866 L48.8776485,59.3335866 Z M81.623059,51.9717714 C81.623059,51.9717714 80.458084,52.2301098 78.3872949,52.4235865 C76.3165059,52.6176176 75.1515308,53.0048481 74.3751585,53.0048481 C73.5985085,53.0048481 72.6924168,52.3592791 71.721882,52.1006634 C70.7510694,51.8426021 69.0686054,51.9717714 66.1564455,52.1006634 C63.2442856,52.2301098 60.3968465,52.8756789 57.8730116,53.6506943 C55.3491767,54.4257098 54.3136433,55.1361406 53.0842251,55.6528176 C51.8545292,56.1692173 50.5603902,56.1692173 49.2012527,55.9757407 C47.8423928,55.7819868 46.4832552,55.717125 43.5063745,55.3298945 C40.5297715,54.9421095 37.6823324,55.3942019 35.6762642,55.8462942 C33.6699183,56.2983866 32.957989,57.3314633 32.3757793,57.6543864 C31.7932917,57.9775867 31.275525,58.1713406 31.275525,58.1713406 C31.275525,58.1713406 31.5991292,60.4315251 31.5991292,60.6250018 C31.5991292,60.8187557 32.6346626,60.9479249 33.0227099,61.4000173 C33.4110349,61.8521096 33.7993599,62.8208789 34.2524058,63.8542329 C34.7054517,64.8873096 35.6115434,66.4370633 36.3879157,66.8891557 C37.1645657,67.341248 38.6528672,67.7933404 40.3353312,67.857925 C42.018073,67.9222324 44.0241412,67.6641711 45.2538371,67.4058327 C46.4832552,67.1477714 47.5835095,66.3078941 48.165997,65.339402 C48.7484846,64.3706327 49.5248568,62.8208789 49.7837402,61.6583558 C50.0426235,60.4958326 50.3015069,58.6234329 50.6898319,58.1713406 C51.0781569,57.7192482 52.1781334,57.7835557 52.8253418,57.9775867 C53.4725502,58.1713406 54.1194808,59.5919251 54.7666891,60.5606944 C55.4138975,61.5291865 56.6433157,64.0477095 57.8730116,64.9518942 C59.1024297,65.8558017 60.202684,65.9206636 62.5970772,66.1144174 C64.9914704,66.3078941 69.0686054,65.2748173 70.7510694,64.5643865 C72.4338112,63.8542329 72.8865793,62.6271251 73.4690668,61.4000173 C74.0515544,60.1729095 74.180996,57.7192482 74.4398794,57.2025713 C74.698485,56.6858943 75.6045767,56.5570023 76.7048309,56.1049099 C77.8050852,55.6528176 81.6877799,54.4900172 81.6877799,54.4900172 L82.5291508,53.1342945 L81.623059,51.9717714 Z" mask="url(#esther-b)"/>
  </g>
</svg>
