<svg xmlns="http://www.w3.org/2000/svg" xmlns:xlink="http://www.w3.org/1999/xlink" width="120" height="120" viewBox="0 0 120 120">
  <defs>
    <path id="esther-a" d="M120,59.9999233 C120,93.1369885 93.1369885,120 59.9999233,120 C26.8628581,120 0,93.1369885 0,59.9999233 C0,26.8628581 26.8628581,0 59.9999233,0 C93.1369885,0 120,26.8628581 120,59.9999233"/>
  </defs>
  <g fill="none" fill-rule="evenodd">
    <mask id="esther-b" fill="#fff">
      <use xlink:href="#esther-a"/>
    </mask>
    <use fill="#7BCAEC" xlink:href="#esther-a"/>
    <path fill="#3A5E6D" d="M17.3163002,125.830039 C17.3163002,125.830039 15.6267091,110.178116 18.9640194,104.194805 C22.3010437,98.2114945 26.8136205,94.8366028 27.7672194,94.118663 C28.7208184,93.4007231 36.7142887,88.9403064 38.8594574,88.4615841 C41.004912,87.9828618 46.1799505,81.5896678 46.1799505,81.5896678 L81.4298998,73.4491745 C81.4298998,73.4491745 87.2862242,74.0327157 88.7163366,75.2293778 C90.1464491,76.42604 93.3484567,76.3209339 96.4472243,77.7571008 C99.5459919,79.1929805 102.883302,84.697569 102.883302,84.697569 C102.883302,84.697569 117.235539,90.7007541 119.14245,91.1794764 C121.049648,91.6579115 115.762951,125.590821 115.762951,125.590821 L17.3163002,125.830039 Z" mask="url(#esther-b)"/>
    <path fill="#E9BC9C" d="M36.3020445,53.9001604 C36.3020445,53.9001604 37.5230745,58.884386 38.1629068,59.6703866 C38.8027391,60.4561 38.6637322,66.0356414 38.6637322,66.4540567 C38.6637322,66.8724721 38.4291937,69.0369171 38.4291937,69.0369171 L37.5525348,69.3832513 C37.5525348,69.3832513 40.3618477,77.400055 40.8949936,78.2029989 C41.4278535,79.0059428 42.6274318,82.2171442 42.6274318,82.2171442 C42.6274318,82.2171442 46.2258806,89.7107133 48.7580377,91.717786 C51.2901947,93.7251458 55.4215035,96.5348752 55.4215035,96.5348752 C55.4215035,96.5348752 54.7553571,102.690204 54.8883576,103.359324 C55.0219301,104.028444 55.555076,110.719069 55.555076,110.719069 L64.0842665,123.029441 C64.0842665,123.029441 65.9499911,124.635041 66.2165641,123.029441 C66.4834231,121.423553 70.8810187,111.254078 70.8810187,111.254078 L72.613743,110.584958 C72.613743,110.584958 76.7450517,105.366397 78.3444894,104.028444 C79.9439272,102.690204 81.2765059,99.8801878 81.2765059,99.8801878 C81.2765059,99.8801878 85.0082413,84.893624 84.4750954,82.8865514 C83.9419494,80.8791915 81.8093658,80.0762476 81.8093658,80.0762476 L81.2765059,69.9067731 C81.2765059,69.9067731 83.2755171,70.977365 84.3418089,69.9067731 C85.4078147,68.8364683 86.8739659,66.1599885 87.8066852,62.547028 C88.7396906,58.9343546 89.406123,54.6525613 88.6064041,53.5819694 C87.8066852,52.5113775 85.5411012,52.5113775 85.5411012,52.5113775 L74.7460406,30.2988927 L41.027994,30.7006518 C41.027994,30.7006518 35.9636799,41.4051351 35.697393,42.074255 C35.4308201,42.743375 36.3020445,53.9001604 36.3020445,53.9001604" mask="url(#esther-b)"/>
    <path fill="#AAA3A4" d="M59.9726647,60.0705088 C59.9726647,60.0705088 61.1058857,59.9757408 61.6722103,60.0705088 C62.2388208,60.1652769 64.505263,60.354813 65.4494232,60.1652769 C66.3938694,59.9757408 68.3768633,59.2170219 68.3768633,59.2170219 C68.3768633,59.2170219 68.093701,57.7949267 66.4882568,57.5106225 C64.8828126,57.2263183 63.6552041,56.9417269 62.6166565,57.6053905 C61.5778228,58.2693413 59.8782772,59.4068452 59.8782772,59.4068452 L59.9726647,60.0705088 Z" mask="url(#esther-b)"/>
    <path fill="#D8CECD" d="M59.9726647,60.0705088 C59.9726647,60.0705088 61.3081036,58.6711005 62.8998188,58.4588774 C64.4915339,58.2463672 67.6214779,59.5019005 67.6214779,59.5019005 C67.6214779,59.5019005 65.5440966,60.0705088 64.1274273,60.1652769 C62.7110439,60.260045 59.9726647,60.0705088 59.9726647,60.0705088" mask="url(#esther-b)"/>
    <path fill="#482D1D" d="M66.8366322,57.9590477 C67.2813972,59.0899466 66.7290878,60.368741 65.6027312,60.8150125 C64.4763747,61.2618582 63.2027166,60.7070343 62.7579516,59.5761354 C62.3131866,58.4452366 62.8654961,57.1664421 63.9918526,56.7201707 C65.1182091,56.2736121 66.3918673,56.8281488 66.8366322,57.9590477" mask="url(#esther-b)"/>
    <path stroke="#221200" stroke-width=".514" d="M66.8366322,57.9590477 C67.2813972,59.0899466 66.7290878,60.368741 65.6027312,60.8150125 C64.4763747,61.2618582 63.2027166,60.7070343 62.7579516,59.5761354 C62.3131866,58.4452366 62.8654961,57.1664421 63.9918526,56.7201707 C65.1182091,56.2736121 66.3918673,56.8281488 66.8366322,57.9590477 Z" mask="url(#esther-b)"/>
    <path fill="#221200" d="M67.0318712,58.4646784 C67.0318712,58.4646784 65.9707278,58.1786512 64.8117646,58.2883524 C63.7414685,58.3897255 62.551615,58.8721811 62.577643,58.9861899 C62.4340597,57.7516205 63.315009,56.6339318 64.5451917,56.4897694 C65.7750884,56.3458943 66.8885739,57.230109 67.0318712,58.4646784" mask="url(#esther-b)"/>
    <path fill="#000" d="M65.6362531,58.4349557 C65.8193074,58.9001807 65.5919196,59.426287 65.1285632,59.6100796 C64.6652067,59.7935851 64.1412135,59.5655674 63.9584452,59.1000552 C63.7753908,58.6348301 64.0027787,58.109011 64.4661351,57.9255056 C64.9292055,57.741713 65.4531987,57.9697307 65.6362531,58.4349557" mask="url(#esther-b)"/>
    <path fill="#FEFEFE" d="M64.4916197,58.2355694 C64.4976262,58.4500899 64.3288729,58.6290005 64.1152141,58.6350312 C63.9012693,58.6407747 63.7230773,58.4713409 63.7173568,58.2568204 C63.7113503,58.0420128 63.8801036,57.8631022 64.0937624,57.8573587 C64.3077072,57.851328 64.4856132,58.0207618 64.4916197,58.2355694" mask="url(#esther-b)"/>
    <path fill="#E9BC9C" d="M67.8022441,57.7296516 C67.8022441,57.7296516 65.548387,56.9516919 64.8690836,57.1998119 C64.1900662,57.447932 62.152442,57.5096748 62.152442,57.5096748 C62.152442,57.5096748 62.8314594,56.1458762 63.8811619,56.0838462 C64.9308644,56.0218162 66.4127469,55.9597862 66.4127469,55.9597862 L67.8022441,57.7296516 Z" mask="url(#esther-b)"/>
    <path fill="#954F4F" d="M46.9467717,82.7450885 C46.9467717,82.7450885 48.2461718,82.7450885 49.2455344,82.4441281 C50.245183,82.1428805 51.644405,81.3402238 52.0442644,81.4407354 C52.4441238,81.5409598 53.5433082,82.3439037 54.3430271,82.1428805 C55.142746,81.9424317 56.6417898,81.0392634 56.6417898,81.0392634 C56.6417898,81.0392634 58.4408712,81.1394878 59.8403793,81.4407354 C61.2396012,81.7416957 62.5390014,81.5409598 63.6381858,81.7416957 C64.7376562,81.9424317 66.6774607,81.4915655 66.6774607,81.4915655 C66.6774607,81.4915655 63.5383639,82.3439037 62.5390014,82.7450885 C61.5393528,83.1465605 51.5671789,83.9535249 50.76746,84.2547724 C49.9680272,84.5557328 49.1457126,83.5480324 48.3459937,83.4475208 C47.5465609,83.3472964 46.9467717,82.7450885 46.9467717,82.7450885" mask="url(#esther-b)"/>
    <path fill="#B59076" d="M47.3604174,71.8203413 C47.8543782,72.3162941 48.5951765,73.5560327 49.5830981,73.7211588 C50.5710198,73.8865722 51.311818,73.9692788 51.9705278,73.5560327 C52.6292376,73.1424993 54.7695438,72.1505936 54.7695438,72.1505936 C54.7695438,72.1505936 56.4985498,71.4070951 57.074599,71.6549279 C57.6512204,71.9027608 58.1448952,72.3162941 58.4741071,71.3241012 C58.803605,70.3321955 57.5685599,68.2659646 57.5685599,68.2659646 C57.5685599,68.2659646 59.7091521,70.249776 60.203113,71.5722212 C60.6970738,72.8946665 61.602621,74.4652317 60.3678619,75.4571374 C59.1328168,76.4490431 57.3434602,75.6021613 55.7117019,75.7331135 C54.9334347,75.7957178 54.5066892,76.3292907 53.3319948,76.460243 C51.6910838,76.6434612 50.5361251,75.6716578 50.1242527,75.836784 C49.7126663,76.0024845 48.2997153,76.3516905 47.6410055,75.5251981 C46.9822957,74.6987057 47.0312055,74.382525 47.113294,73.473326 C47.1956685,72.564127 47.3604174,71.8203413 47.3604174,71.8203413" mask="url(#esther-b)"/>
    <path fill="#AAA3A4" d="M40.2369703,61.6822264 C40.4257451,61.9665306 42.408739,62.3461772 43.0697369,62.4409452 C43.7307349,62.5357133 46.9413373,62.1563539 47.4135604,62.1563539 C47.8857835,62.1563539 48.7355563,61.5874583 48.7355563,61.5874583 C48.7355563,61.5874583 47.7093076,60.3724169 46.3747267,60.070595 C45.0401458,59.7684859 45.1471182,59.2171081 43.3531852,59.5964675 C41.5589662,59.9758269 40.2369703,61.6822264 40.2369703,61.6822264" mask="url(#esther-b)"/>
    <path fill="#D8CECD" d="M41.2757467,62.0616719 C41.8420712,61.8718486 42.0437171,61.6110929 43.5419029,61.208185 C45.0403746,60.8055644 46.5637304,60.9238809 47.3191158,61.208185 C48.0747872,61.4927764 48.263562,61.9666167 48.263562,61.9666167 C48.263562,61.9666167 47.0359535,62.4407442 45.1473471,62.6302803 C43.2587406,62.8201036 41.2757467,62.0616719 41.2757467,62.0616719" mask="url(#esther-b)"/>
    <path fill="#482D1D" d="M47.079858,60.224751 C47.5246229,61.3556499 46.9723135,62.6344444 45.845957,63.0807158 C44.7196004,63.5272744 43.4459423,62.9724505 43.0011773,61.8418388 C42.5564124,60.7109399 43.1087218,59.4321454 44.2350783,58.985874 C45.3614349,58.5390282 46.635093,59.0938522 47.079858,60.224751" mask="url(#esther-b)"/>
    <path stroke="#221200" stroke-width=".514" d="M47.079858,60.224751 C47.5246229,61.3556499 46.9723135,62.6344444 45.845957,63.0807158 C44.7196004,63.5272744 43.4459423,62.9724505 43.0011773,61.8418388 C42.5564124,60.7109399 43.1087218,59.4321454 44.2350783,58.985874 C45.3614349,58.5390282 46.635093,59.0938522 47.079858,60.224751 Z" mask="url(#esther-b)"/>
    <path fill="#221200" d="M47.2749539,60.7304104 C47.2749539,60.7304104 46.2138105,60.4443832 45.0548474,60.5540844 C43.9845512,60.6554575 42.7946977,61.1376259 42.8207258,61.2519219 C42.6774285,60.0173526 43.5580917,58.8996638 44.7882744,58.7555015 C46.0181711,58.6116263 47.1316566,59.4955539 47.2749539,60.7304104" mask="url(#esther-b)"/>
    <path fill="#000" d="M45.8793358,60.7006877 C46.0623902,61.1659127 45.8350023,61.6917319 45.3719319,61.8755245 C44.9082895,62.0590299 44.3842963,61.8312994 44.2015279,61.3657872 C44.0184735,60.9005622 44.2458614,60.3744558 44.7092178,60.1909504 C45.1722882,60.0071578 45.6962814,60.2354627 45.8793358,60.7006877" mask="url(#esther-b)"/>
    <path fill="#FEFEFE" d="M44.7347024,60.5010143 C44.7407089,60.7158219 44.5719556,60.8944453 44.3582968,60.900476 C44.144352,60.9062195 43.96616,60.7370729 43.9604396,60.5222653 C43.9544331,60.3077449 44.1231863,60.1288343 44.3368451,60.1230907 C44.55079,60.11706 44.7286959,60.2864939 44.7347024,60.5010143" mask="url(#esther-b)"/>
    <path fill="#B59076" d="M48.0502178,69.529108 C48.3205091,69.1221797 49.1677077,65.1726489 49.7574861,63.4837672 C50.3475504,61.7951727 50.6178417,60.8454818 51.563718,60.5741006 C52.5095944,60.3027193 54.1313419,61.2526973 54.1313419,61.2526973 C54.1313419,61.2526973 55.9329975,64.3579308 56.8788739,65.4434559 C57.8247502,66.5289809 58.9310852,68.0866232 58.2203193,66.026423 C57.5098395,63.9662228 57.2358299,62.2491978 57.6414098,61.5708883 C58.0467037,60.8925787 59.8995573,59.2252352 60.3400319,59.0621192 C60.7802205,58.8987161 62.7800897,57.4533596 63.3206722,57.1822655 C63.8612547,56.9108842 64.132118,56.2871381 65.1666613,55.9293169 C66.2012047,55.5712085 68.2494117,56.7687321 68.7899942,56.4973509 C69.3305767,56.2262568 73.278545,54.7406956 72.6450052,54.4684528 C70.4883957,53.5417361 60.3477545,54.6039999 57.6448421,55.9609062 C54.9422156,57.3178125 52.644883,58.5388847 51.9690119,58.5388847 C51.2934268,58.5388847 47.2393441,57.8605751 46.0231765,57.4533596 C44.8070089,57.0464313 40.0770551,57.4533596 40.0770551,57.4533596 C40.0770551,57.4533596 42.6544037,58.6692625 42.1764601,59.621538 C41.6985165,60.5741006 43.752158,59.4937447 43.752158,59.4937447 C43.752158,59.4937447 45.5998632,59.2760653 47.0863221,60.3615904 C48.5727809,61.4468283 48.904281,61.9602988 48.7458245,63.6781853 C48.5873681,65.396359 48.0502178,69.529108 48.0502178,69.529108" mask="url(#esther-b)"/>
    <path fill="#976847" d="M56.1584118 55.5539492C56.1584118 55.5539492 57.3745794 54.3328771 58.3207418 53.9256616 59.2666182 53.5187333 66.6991984 52.4332082 68.4559485 52.297374 70.2126986 52.1618269 73.0506137 53.7898274 73.0506137 53.7898274L72.6450338 54.4684241C72.6450338 54.4684241 65.2124535 54.3328771 63.4557034 54.4684241 61.6989534 54.6039712 57.9151619 57.0464026 56.9689995 57.0464026 56.0231232 57.0464026 56.1584118 55.5539492 56.1584118 55.5539492M47.7798408 56.559065C47.7798408 56.559065 46.0230907 56.368093 44.2663406 55.9608775 42.5095905 55.5539492 39.4013842 55.2825679 38.3202192 55.5539492 37.2390542 55.8250433 37.1040516 57.4533309 37.1040516 57.4533309L38.4552218 58.2674747C38.4552218 58.2674747 42.7798818 57.0464026 43.9960494 57.4533309 45.212217 57.8605464 48.4554259 59.4885468 48.9960084 58.8102372 49.5365909 58.1319276 47.7798408 56.559065 47.7798408 56.559065" mask="url(#esther-b)"/>
    <path fill="#453128" d="M48.1307904,61.2107983 C48.0552804,60.9836422 47.1508773,59.9245373 45.6435389,59.470225 C44.1362004,59.0161998 43.0810634,59.2430688 42.1766603,59.6215667 C41.2722572,59.9997774 40.645582,60.586765 40.1178705,60.8894485 C39.590445,61.1921319 38.8602296,62.0430342 39.0864734,62.1188487 C39.3124312,62.1946631 40.1416104,62.3457177 40.8197697,61.6648235 C41.498215,60.9836422 42.2518842,59.9997774 43.0810634,59.9245373 C43.9099566,59.8487228 45.0406035,59.5457522 45.7942727,59.9997774 C46.547942,60.4538026 48.1307904,61.2107983 48.1307904,61.2107983" mask="url(#esther-b)"/>
    <path fill="#684E40" d="M48.3578636 59.9757408C47.9800279 59.8809727 46.9414803 58.1745733 45.2416487 58.2693413 43.5421031 58.3641094 42.408882 58.2693413 41.1812735 58.9327177 39.953665 59.5966685 39.1038922 60.6396915 39.1038922 60.6396915 39.1038922 60.6396915 40.8978252 59.0274858 42.3144946 58.9327177 43.7308779 58.8379497 45.2416487 58.4588774 45.9026466 58.8379497 46.5636446 59.2170219 48.3578636 59.9757408 48.3578636 59.9757408M57.9896422 59.5965537C57.9896422 59.5965537 59.2172507 57.4157395 60.2557983 56.6575951 61.294632 55.8988762 62.6166279 55.7093401 63.749849 55.7093401 64.8830701 55.7093401 67.2436136 55.4250359 68.0936724 55.8988762 68.9434452 56.3727165 70.3598286 57.7000437 70.3598286 57.7000437 70.3598286 57.7000437 69.9822789 57.9849223 69.1322201 57.6052757 68.2824473 57.2262034 67.9046116 56.2779485 66.205066 56.1831804 64.5052344 56.0884123 62.3334656 56.2779485 61.3890194 56.9418992 60.4448592 57.6052757 57.9896422 59.5965537 57.9896422 59.5965537" mask="url(#esther-b)"/>
    <path fill="#E9BC9C" d="M42.1895313 62.5140315C42.1895313 62.5140315 43.7449216 62.7742129 44.7820391 62.6874858 45.8191567 62.6007586 47.0290318 62.2538501 47.0290318 62.2538501 47.0290318 62.2538501 47.3745469 63.4683172 45.4733555 63.7284986 43.572164 63.9889671 42.1895313 62.5140315 42.1895313 62.5140315M62.3253426 60.420806C62.3253426 60.420806 64.3992916 60.5075332 65.090608 60.420806 65.7822103 60.3340789 67.6213349 59.6643846 67.6213349 59.6643846 67.6213349 59.6643846 67.6834018 61.1149103 65.6958315 61.462106 63.7079753 61.8090146 62.3253426 60.420806 62.3253426 60.420806" mask="url(#esther-b)"/>
    <path fill="#684E40" d="M53.4523817 74.5479384C53.7815936 74.382525 54.8518897 73.5560327 55.9221858 73.473326 56.992482 73.3909065 57.8156547 73.8038655 57.5688173 74.0516983 57.3216939 74.3001055 56.7453586 74.5479384 56.992482 74.7957712 57.2393194 75.0438912 57.9804036 75.2917241 58.4743645 75.2093046 58.9683253 75.1265979 59.3799117 75.1265979 59.791498 74.7957712 60.2030844 74.4652317 60.3678333 73.3909065 60.3678333 73.3909065 60.3678333 73.3909065 60.8617941 74.7130645 59.791498 75.3744307 58.7212019 76.0357969 57.1572309 76.0357969 56.7453586 75.7049702 56.3337722 75.3744307 55.9221858 74.7130645 55.6750624 74.7130645 55.428225 74.7130645 53.4523817 74.5479384 53.4523817 74.5479384M54.1110057 75.7050564C54.1110057 75.7050564 53.3702074 76.1183026 52.5467487 75.9528892 51.723576 75.7877631 50.9824917 75.2091035 50.9824917 75.2091035 50.9824917 75.2091035 48.5953481 73.8866583 48.6774365 74.2999045 48.760097 74.7131507 49.1713974 75.4572236 49.5829837 75.4572236 49.9948561 75.4572236 51.2296152 75.7877631 51.2296152 75.7877631 51.2296152 75.7877631 52.2175368 76.8620883 53.123084 76.6969621 54.0286312 76.5315488 54.1110057 75.7050564 54.1110057 75.7050564" mask="url(#esther-b)"/>
    <path fill="#6D342B" d="M46.9467717,82.7450885 C46.9467717,82.7450885 48.5922591,83.1770011 49.189188,83.1169813 C49.7861169,83.0569616 51.517411,82.6373975 51.9950685,82.6373975 C52.4727261,82.6373975 53.9654774,82.6373975 54.7414564,82.757437 C55.5177215,82.8771894 57.2490155,81.9780415 57.7266731,82.0380613 C58.2040446,82.0980811 60.5923324,82.1578137 61.4878688,82.2178335 C62.3834052,82.2778532 63.9542406,81.8143513 65.1360855,81.6061487 C65.7501758,81.4981705 67.1019181,80.6584681 67.2191873,80.8991215 C67.3364565,81.1394878 66.502701,82.0380613 66.3236509,82.0380613 C66.1446008,82.0380613 62.7415053,82.5773777 62.3236265,82.6373975 C61.9057476,82.6974173 50.0249457,83.6565849 50.0249457,83.6565849 C50.0249457,83.6565849 48.6517517,83.5365454 47.8757727,83.416793 C47.0997937,83.2967535 47.1521358,82.972819 46.9467717,82.7450885" mask="url(#esther-b)"/>
    <path fill="#CC8278" d="M49.9871335,83.6929988 C49.9871335,83.6929988 51.5087731,82.8912036 52.2083841,82.9917152 C52.9079951,83.0919396 53.53038,83.1556926 54.6298505,83.2559171 C55.7293209,83.3561415 56.5676528,82.8225686 57.3670856,82.6218326 C58.1668045,82.4208094 59.840322,82.5445822 60.7398628,82.6450938 C61.6394035,82.745031 62.9385176,82.6450938 62.9385176,82.6450938 C62.9385176,82.6450938 61.939155,82.8455426 61.1394362,83.4477506 C60.3400033,84.0496714 60.0399657,85.2540873 58.6407438,85.4548232 C57.2415218,85.6555592 54.3429699,85.856008 52.9437479,85.7557836 C51.5445259,85.6555592 50.0451961,84.2504073 50.0451961,84.2504073 L49.9871335,83.6929988 Z" mask="url(#esther-b)"/>
    <path fill="#B59076" d="M84.0929407 57.3182433C84.0929407 57.3182433 86.3911314 54.8964886 87.0741531 54.4068536 87.7571748 53.9169314 88.5374441 54.2109996 88.5374441 54.2109996L87.4642877 59.5981331C87.4642877 59.5981331 87.9522421 55.8763329 86.8790857 56.1701139 85.8059294 56.4636077 84.0929407 57.3182433 84.0929407 57.3182433M82.9767952 59.3043521C82.4888408 59.8922013 82.0011725 60.6756173 82.0011725 60.6756173 82.0011725 60.6756173 82.8792615 61.1652522 82.5863745 61.9489554 82.2937735 62.7326585 81.7085715 64.4956317 82.2937735 64.8873396 82.8792615 65.2793348 83.5619972 65.0834808 83.5619972 64.4956317 83.5619972 63.9080697 83.0743288 62.4388775 83.3669298 61.9489554 83.6595308 61.4593204 85.1228219 61.1652522 84.6351535 60.1859823 84.1474852 59.2064251 82.9767952 59.3043521 82.9767952 59.3043521M85.4156517 63.9081271C85.4156517 63.9081271 84.8304497 64.8873971 84.8304497 65.1814652 84.8304497 65.4752462 85.2205844 66.6506574 85.2205844 66.6506574 85.2205844 66.6506574 85.903606 66.1610224 86.196207 65.7690272 86.4888081 65.3773192 87.8545654 61.2632367 87.6594981 61.6552318 87.4644307 62.047227 86.0008537 64.9856112 85.7082527 64.7894701 85.4156517 64.5939033 85.4156517 63.9081271 85.4156517 63.9081271M80.3426711 70.6665832C80.3426711 70.6665832 78.5867791 80.2657263 77.9037574 82.2248405 77.2207357 84.1836677 76.538 86.3386359 74.2941536 88.1018962 72.0503073 89.8648693 66.6848115 93.8807377 65.1239868 94.6644409 63.5628761 95.448144 61.1239624 96.035706 59.6606713 96.23156 58.1973803 96.427414 56.1486012 96.427414 56.4412022 96.6235552 56.7338032 96.819122 58.7825823 98.7785234 62.684787 99.5619394 66.5872778 100.345643 71.9527736 99.6598664 74.5867546 96.427414 77.2207357 93.1952487 79.5621158 83.7919597 79.5621158 83.4002517 79.5621158 83.0085437 80.3426711 70.6665832 80.3426711 70.6665832" mask="url(#esther-b)"/>
    <path fill="#8B5530" d="M86.4740779,47.9619075 L86.7406508,41.8068655 L86.3407914,39.3980337 L87.8066566,38.8630249 C87.8066566,38.8630249 86.8739373,33.3765285 86.7406508,32.7076958 C86.6073644,32.0385758 85.2744996,29.7638552 84.4750668,29.0947352 C83.6753479,28.4256153 83.2754885,28.0244305 83.2754885,28.0244305 L84.7416397,26.9538386 L83.4087749,24.5450067 L83.5420614,22.2702861 L81.0099044,19.8620286 L80.077185,18.1223168 L74.6130115,15.7137721 L71.8471741,15.4820212 C71.8471741,15.4820212 67.4161138,12.7699316 64.6173838,12.1008116 C61.8186538,11.4316917 54.9812863,11.7889385 54.3148539,11.7889385 C53.6487075,11.7889385 45.5839063,12.9385125 44.9177599,13.3399845 C44.2513275,13.7414565 47.4191378,16.1761254 46.5828081,16.3461336 C44.0520812,16.8598913 43.3644831,19.5507299 43.0979102,19.0151468 C42.8313372,18.480138 37.1632296,18.1223168 37.1632296,18.1223168 C37.1632296,18.1223168 39.0289543,21.6014533 38.6293809,21.4676293 C38.2295215,21.3338054 35.9484921,20.619886 33.682908,21.5566539 C31.417324,22.4934218 29.5667585,23.74235 29.5667585,23.74235 C29.5667585,23.74235 31.5657696,27.0876625 31.2991967,27.7567825 C31.0326237,28.4256153 31.4324831,28.4256153 29.5667585,28.8270872 C27.7010338,29.2285592 25.1688768,28.6935504 25.5684502,29.4962072 C25.9683096,30.2988639 27.7010338,31.637391 27.7010338,31.637391 L25.5684502,34.7147684 L29.9666179,34.3132964 C29.9666179,34.3132964 27.5677473,36.8559522 27.4344609,38.8630249 L31.2991967,36.5883043 C31.2991967,36.5883043 29.700045,38.7292009 30.0999044,41.0039216 C30.4997638,43.2786422 31.0326237,46.3563068 31.0326237,45.4195389 C31.0326237,44.4827709 33.1652074,40.8700976 33.5647808,40.8700976 C33.9646402,40.8700976 33.2984938,43.9477622 33.4317803,44.8845301 C33.5647808,45.8210108 35.5640779,53.1804687 35.5640779,53.1804687 L37.1632296,56.9272533 L37.4298026,55.4551894 C37.4298026,55.4551894 36.0972238,47.8283707 36.7633702,45.4195389 C37.4298026,43.0109942 38.6293809,39.7995057 38.6293809,39.7995057 C38.6293809,39.7995057 38.8959538,42.2080503 39.6953867,41.5389304 C40.4951055,40.8700976 42.8939761,38.4612658 43.9602679,38.060081 C45.0262737,37.658609 46.6257115,37.257137 46.6257115,37.257137 L46.0925656,39.7995057 C46.0925656,39.7995057 48.2248632,38.060081 51.823312,37.390961 C55.4214749,36.7221283 61.1525074,35.3838884 61.1525074,35.3838884 L65.1505297,36.0530083 L70.0815573,35.6515363 C70.0815573,35.6515363 72.2138549,37.926257 71.947282,38.9968489 C71.680995,40.0671536 71.2811356,42.3418743 71.2811356,42.3418743 C71.2811356,42.3418743 73.5467197,40.4686256 73.8132926,40.8700976 C74.0798656,41.2712824 74.6130115,44.7507061 74.6130115,44.7507061 L76.3454497,43.4124662 C76.3454497,43.4124662 77.6780284,45.8210108 78.6110338,48.0957315 C79.5440391,50.3704521 80.6100449,54.1172367 80.6100449,54.1172367 C80.6100449,54.1172367 80.2101855,61.7446297 80.2101855,61.3428706 C80.2101855,60.9416858 81.005328,58.7045852 82.6093421,56.0573973 C84.2130702,53.4104967 86.2152275,52.4053809 86.2152275,52.4053809 L86.4740779,47.9619075 Z" mask="url(#esther-b)"/>
    <path fill="#BB6B3C" d="M57.5305761 34.3727706C56.6401881 34.2234391 47.5887206 37.7993539 47.5887206 37.7993539 47.5887206 37.7993539 49.6661019 35.117705 48.6275542 35.4155064 47.5887206 35.7135951 45.5113393 35.7135951 44.0274546 36.6072866 42.543856 37.5015525 40.0211377 38.9911341 40.0211377 38.9911341L41.5050223 36.3094851C41.5050223 36.3094851 37.9437564 37.2031767 37.4984194 37.5015525 37.0533684 37.7993539 42.098519 33.7768805 41.3565767 33.627549 40.6146343 33.4787919 34.2340448 33.7768805 32.8986058 34.5218149 31.5631668 35.2664621 29.3373399 36.7566181 29.3373399 36.7566181 29.3373399 36.7566181 31.8600582 32.7338575 31.1181158 32.5848132 30.3761735 32.436056 26.9630672 33.9256376 27.5568499 33.3297476 28.1503465 32.7338575 31.5631668 30.7971429 31.4147212 30.35001 31.2662755 29.9031642 28.7438432 30.4990543 29.1888942 30.0522085 29.6342312 29.6050756 33.6405481 27.668361 35.2728784 27.8174053 36.9049227 27.9661625 42.8404613 27.0724709 42.8404613 27.0724709 42.8404613 27.0724709 46.9952239 27.3702724 46.4017273 27.668361 45.8082306 27.9661625 40.1695834 30.7971429 40.1695834 30.7971429 40.1695834 30.7971429 44.7693969 31.0949444 45.3628936 30.7971429 45.9566763 30.4990543 48.1822172 28.115494 49.2210509 27.9661625 50.2598845 27.8174053 58.1240727 27.668361 57.2336847 27.9661625 56.3435828 28.2642511 51.0015408 30.0522085 49.9629932 30.6480986 48.9241595 31.2439887 52.7823168 32.7338575 53.8208645 32.8829018 54.8596981 33.0319461 57.5305761 34.3727706 57.5305761 34.3727706M56.1951371 21.8579014C55.3047491 20.9642099 49.6661019 18.4313181 49.6661019 18.4313181 49.6661019 18.4313181 46.9952239 19.3252968 47.4405609 19.6233854 47.8856119 19.9211869 50.7049355 21.4110557 49.6661019 21.2622985 48.6275542 21.1129671 43.7305633 20.6664085 43.7305633 20.6664085 43.7305633 20.6664085 47.1436696 22.1559901 46.5501729 22.4537915 45.9566763 22.7518802 41.8016277 23.3477702 41.8016277 23.3477702 41.8016277 23.3477702 45.8082306 23.3477702 46.4017273 23.6458589 46.9952239 23.9439475 55.7498001 24.9869705 55.7498001 24.9869705 55.7498001 24.9869705 51.0015408 21.5601 52.0403745 21.4110557 53.0789221 21.2622985 56.1951371 21.8579014 56.1951371 21.8579014M76.0787337 34.3727706C76.0787337 34.3727706 75.9302881 41.9708717 76.2271794 41.5237387 76.5240707 41.0771802 78.156115 40.1829143 78.156115 40.1829143L79.1949487 43.0138947 80.6788333 40.4812901 83.2012656 41.5237387 82.9043743 37.6503096 84.9817556 38.2461997 84.8335959 34.2234391C84.8335959 34.2234391 82.0142723 30.6480986 82.0142723 31.2439887 82.0142723 31.8401659 82.7562146 36.0113965 81.5689353 36.0113965 80.381942 36.0113965 78.7496117 36.0113965 78.156115 35.7135951 77.5626184 35.4155064 76.0787337 34.3727706 76.0787337 34.3727706" mask="url(#esther-b)"/>
    <polygon fill="#B59076" points="60.203 71.572 64.04 74.661 60.203 73.117" mask="url(#esther-b)"/>
    <path fill="#2F4852" d="M47.8250895 112.859851L54.7551283 121.156077 55.8214201 123.564334C55.8214201 123.564334 41.4279107 123.029326 41.4279107 122.226382 41.4279107 121.423438 40.0953319 105.901865 39.828759 105.098921 39.562186 104.295977 39.562186 96.8026955 39.562186 96.8026955L43.5604943 113.127499 47.8250895 112.859851zM76.878424 122.226439C77.4115699 120.888486 81.6761651 110.986373 82.475884 110.451077 83.2756029 109.916068 93.1376581 96.5348178 93.1376581 96.5348178L101.667135 89.0415359C101.667135 89.0415359 90.4722146 103.760739 89.4059228 105.901636 88.339917 108.042532 85.9410464 114.733157 85.9410464 114.733157L85.6744734 123.029383 76.878424 122.226439z" mask="url(#esther-b)"/>
    <path fill="#453128" d="M59.4362295,59.6972375 C59.5354793,59.5476189 59.6707679,59.0476456 60.3000174,58.5186675 C60.625511,58.2447016 61.440389,57.8587372 61.6972372,57.729508 C62.4511925,57.3512973 63.958531,56.7462175 65.2396257,56.9730865 C66.5210064,57.2002427 67.3498996,57.3512973 67.8023871,57.729508 C68.2545887,58.108293 69.912661,58.9405289 69.912661,58.9405289 C69.912661,58.9405289 69.9878849,59.4703685 69.6111933,59.3945541 C69.2342157,59.3190268 68.5560564,59.773052 67.952835,59.1673979 C67.3498996,58.5623182 65.7865007,57.2763443 64.7971489,57.5787406 C63.8077971,57.8811369 63.1293518,57.5784534 61.7727472,58.335162 C61.1340589,58.6912602 60.9844692,59.3397035 60.5757431,59.5815056 C60.1161049,59.8534613 59.4362295,59.6972375 59.4362295,59.6972375" mask="url(#esther-b)"/>
    <path fill="#2E1C10" d="M38.1628782,59.6703292 L33.7649965,59.6037043 C33.7649965,59.6037043 33.4314943,60.8078331 33.4981375,61.2090179 C33.5647808,61.610777 33.6983533,62.4134338 33.6983533,62.4134338 C34.1645699,62.4134338 38.5627376,61.610777 38.5627376,61.610777 C38.5627376,61.610777 38.2961647,60.8744579 38.2961647,60.5398979 C38.2961647,60.2056251 38.1628782,59.6703292 38.1628782,59.6703292" mask="url(#esther-b)"/>
    <path fill="#2E1C10" d="M72.0807114,65.156682 C71.1477061,66.2272739 69.148695,66.8291946 65.6835326,67.3642034 C62.2186562,67.8997866 59.7528564,67.1637546 58.2203479,66.0262507 C56.6878394,64.8887468 54.8921903,61.004405 54.5555418,59.6035607 C54.0890391,57.6631129 56.4876237,56.4589842 58.2203479,55.9906002 C59.9527861,55.5222162 65.8834623,54.3847123 68.4156193,54.4519115 C70.9477764,54.5185363 72.0807114,54.6526475 72.8801443,55.5891282 C73.6798632,56.525609 73.6798632,58.5329688 73.8131496,60.4731295 C73.9464361,62.4132902 73.0137168,64.0858029 72.0807114,65.156682 L72.0807114,65.156682 Z M48.8245093,61.0753375 C48.7578661,62.4804893 48.3582927,64.955946 47.89179,66.2272739 C47.4252873,67.4980274 46.492282,68.3009714 44.9597735,68.7693553 C43.426979,69.2377393 40.628535,69.3715633 38.4293082,69.0370033 C36.2303673,68.7027305 35.8305079,67.7659626 35.1643615,66.8961066 C34.4979291,66.0262507 33.4982805,63.2162341 33.4982805,63.2162341 C33.2317076,61.5437214 33.0317779,59.7373847 34.2979994,58.8675288 C35.5642209,57.9976729 38.4293082,57.5964881 41.1613949,57.3957521 C43.8934817,57.1947289 46.6922117,57.9307609 47.625217,58.4660568 C48.5582224,59.0010656 48.8911525,59.6704727 48.8245093,61.0753375 L48.8245093,61.0753375 Z M82.5425558,53.4482316 C82.5425558,53.4482316 81.3429775,53.7158796 79.2106799,53.9163284 C77.0783823,54.1173515 75.878804,54.5185363 75.0793712,54.5185363 C74.2796523,54.5185363 73.346647,53.8497036 72.3472844,53.5817684 C71.3476358,53.3144076 69.6151976,53.4482316 66.6165379,53.5817684 C63.6178782,53.7158796 60.6858617,54.3847123 58.0870614,55.1876563 C55.4882611,55.9906002 54.4219693,56.7266321 53.1560338,57.2619281 C51.8898123,57.7969369 50.5572335,57.7969369 49.1577255,57.5964881 C47.7585035,57.3957521 46.3589955,57.3285529 43.2936925,56.9273681 C40.2286756,56.525609 37.2966591,56.993993 35.2310047,57.4623769 C33.1650643,57.9307609 32.4319887,59.0010656 31.8324856,59.3356256 C31.2326964,59.6704727 30.6995505,59.8712087 30.6995505,59.8712087 C30.6995505,59.8712087 31.0327667,62.2128414 31.0327667,62.4132902 C31.0327667,62.6140262 32.0990585,62.7478501 32.498632,63.2162341 C32.8984914,63.6846181 33.2983508,64.688298 33.7648535,65.7588899 C34.2313562,66.8291946 35.1643615,68.4347953 35.9637943,68.9031793 C36.7635132,69.3715633 38.2960217,69.8399472 40.0284599,69.9068592 C41.7611841,69.9734841 43.8268385,69.7061232 45.09306,69.4384753 C46.3589955,69.1711145 47.4919306,68.3009714 48.0917197,67.2975786 C48.6915089,66.2938987 49.4909417,64.688298 49.7575147,63.4838821 C50.0240876,62.2794662 50.2906606,60.3395927 50.69052,59.8712087 C51.0903794,59.4028248 52.2230285,59.4694496 52.8894609,59.6704727 C53.5558932,59.8712087 54.2220396,61.3429854 54.888472,62.3466654 C55.5549044,63.3500581 56.8208399,65.9593387 58.0870614,66.8961066 C59.3529969,67.8325874 60.485932,67.8997866 62.9514458,68.1005225 C65.4169596,68.3009714 69.6151976,67.2306666 71.3476358,66.4946347 C73.08036,65.7588899 73.5465767,64.487562 74.1463658,63.2162341 C74.746155,61.9449062 74.8794415,59.4028248 75.1460144,58.8675288 C75.4123013,58.3322328 76.3453067,58.198696 77.4782417,57.7303121 C78.6111768,57.2619281 82.6091991,56.057225 82.6091991,56.057225 L83.4755612,54.6526475 L82.5425558,53.4482316 Z" mask="url(#esther-b)"/>
  </g>
</svg>
