<svg xmlns="http://www.w3.org/2000/svg" width="290" height="195" viewBox="0 0 290 195">
  <g fill="none" fill-rule="evenodd" transform="translate(0 6)">
    <g transform="translate(0 4.41)">
      <polygon fill="#DBD9DB" points="108.153 154.254 44.443 116.912 .54 141.382 65.21 178.83" style="mix-blend-mode:multiply"/>
      <g transform="translate(3.52)">
        <g transform="translate(0 22.398)">
          <polyline fill="#1F1F1F" points="24.58 131.8 57.351 112.961 59.779 114.388 27.111 132.877 24.58 131.8"/>
          <polyline fill="#1F1F1F" points="59.838 103.714 56.144 100.697 50.687 57.882 54.041 57.481 59.838 103.714"/>
          <path fill="#2C2E33" d="M28.7074035,49.0318701 C29.1996715,48.7303457 25.9176973,42.4286854 26.1338013,41.8852537 L27.576927,38.2537766 C27.7992054,37.6960138 28.1966122,37.2293962 28.7074035,36.9278718 L43.1453957,28.4146805 C43.6881815,28.0953857 44.3241447,27.9818841 44.9404621,28.0953857 L48.0720055,28.6714922 C48.7332276,28.7930191 57.4796388,28.7867135 58.0437545,28.4146805 L54.4557736,25.6751653 C56.0403492,24.6301483 53.0957217,23.8986937 51.5459474,22.8003653 L46.9679105,19.5546789 C46.1248243,18.9567893 45.020168,18.9097836 44.1316157,19.4337252 L16.8127027,35.5417768 C15.5643513,36.2778173 15.1214785,37.8977943 15.8152565,39.1881582 L18.3939104,43.9844595 C19.1174378,45.3304277 20.7912615,45.7924594 22.0805885,45.0025343 L28.7074035,49.0318701 Z"/>
          <path fill="#1F1F1F" d="M61.6187109,117.228775 C61.6187109,117.228775 50.0579471,90.0666304 50.8712728,70.5887833 C51.4426173,56.9070137 64.7661469,32.909728 64.7661469,32.909728 L59.3607798,29.0291779 C59.3607798,29.0291779 46.613636,50.0163491 45.2362477,69.0219991 C43.5121316,92.8150452 54.636545,113.134313 54.636545,113.134313 L61.6187109,117.228775"/>
          <polygon fill="#1F1F1F" points="68.1 142.835 7.04 102.843 26.433 91.639 30.394 94.342 39.674 88.777 100.669 124.018"/>
          <polygon fill="#1F1F1F" points="53.747 138.185 51.114 140.728 2.816 112.961 2.816 119.538 61.528 153.291 100.669 130.789 100.669 124.213 68.051 142.965 48.481 129.837"/>
          <polyline fill="#1F1F1F" points="2.816 113.311 12.922 107.271 19.007 111.335 6.767 118.651 2.816 113.311"/>
          <polyline fill="#868C96" points="9.569 102.251 62.766 136.912 69.709 132.671 78.142 137.707 67.972 143.546 7.04 103.502 11.582 100.869"/>
          <polygon fill="#868C96" points="99.965 124.597 90.494 130.032 82.41 125.227 90.201 120.747 37.241 90.102 38.871 88.777"/>
          <polyline fill="#868C96" points="76.03 134.498 85.741 128.609 89.405 130.61 79.5 136.434 76.03 134.498"/>
          <path fill="#1F1F1F" d="M28.5316576,133.873614 C28.5316576,133.873614 16.9708938,108.560663 17.7842195,89.082816 C18.3550039,75.4010464 31.6790936,51.4037608 31.6790936,51.4037608 L26.2737265,47.5226417 C26.2737265,47.5226417 13.5260226,68.5103818 12.1491944,87.5154629 C10.4250783,111.309078 21.5494918,129.779722 21.5494918,129.779722"/>
          <path fill="#20201F" d="M16.8281023,45.9360062 L0.861399368,31.2244548 C-0.452589654,30.0129554 -0.230230898,27.8534251 1.30275629,26.9452274 L35.6059352,6.6308471 C36.7115679,5.97587492 38.1218937,6.22739334 38.9424367,7.22550038 L54.6369322,23.9748062 C56.2074459,25.8856634 50.3925124,26.0131297 52.8670237,26.5929878 L48.9127345,25.8731443 C43.4092152,24.7418805 40.7173861,26.1252318 40.1768919,26.447881 L25.7297338,35.0723452 C25.3387857,35.3056541 25.0133689,35.6385462 24.7865294,36.0380166 L22.0314092,45.7254591 C21.1946233,47.1975816 18.0675983,47.0780819 16.8281023,45.9360062"/>
          <polyline fill="#2C2E33" points="9.718 11.247 8.869 24.997 4.928 27.77 14.877 34.008 20.949 33.045 28.159 29.712 9.718 11.247"/>
          <polyline fill="#2C2E33" points="34.841 10.776 36.601 9.824 42.943 18.319 41.158 22.343 34.495 26.184 34.841 10.776"/>
          <path fill="#5B5E67" d="M27.7231492,28.9844986 L19.8817066,27.4328004 C19.228253,27.3031196 18.6614763,26.9023387 18.3254628,26.3305133 L10.1744599,12.4719924 C9.52269487,11.3646746 9.90260972,9.94209822 11.0209665,9.30096066 L25.6935596,0.887916698 C26.7623867,0.275286562 28.127266,0.596134827 28.8049215,1.62016622 L37.6318914,14.9504614 C38.0106806,15.5222868 38.1148054,16.2321775 37.916124,16.8878483 L35.5735971,24.6267755 C35.3957407,25.214811 34.9893725,25.7083807 34.4451093,25.9990446 L29.2805186,28.7536444 C28.8037959,29.0079753 28.2533414,29.0895848 27.7231492,28.9844986"/>
          <path fill="#7BCAEC" d="M19.5768817,21.3507063 L23.1952084,25.4336936 C23.9237112,26.255877 25.1348111,26.4240376 26.0562376,25.8305294 L33.4633548,21.0580253 C34.2943664,20.5227041 34.6790619,19.4997753 34.4101206,18.542016 L33.0204942,13.5978599 C32.6231291,12.1844958 31.0152398,11.5269818 29.7569168,12.2624665 L20.1210992,17.8961394 C18.8961779,18.6124223 18.6324196,20.2853009 19.5768817,21.3507063"/>
          <path fill="#2C2E33" d="M14.4378266,13.3628319 L14.5115886,13.4860373 C15.2630382,14.7427324 16.9480372,15.176963 18.2648029,14.4530628 L28.1990363,8.99095677 C29.5106156,8.26979449 29.957221,6.67360009 29.1953986,5.42895176 C28.4427964,4.19963565 26.7912208,3.77142844 25.4865567,4.46794964 L15.4785613,9.80685031 C14.1543042,10.5132279 13.6875295,12.1083272 14.4378266,13.3628319"/>
          <polyline fill="#1F1F1F" points="28.159 117.94 24.466 114.923 19.007 72.108 22.363 71.706 28.159 117.94"/>
          <polyline fill="#1F1F1F" points="67.47 144.969 6.336 104.766 6.972 103.003 67.582 143.003 67.47 144.969"/>
        </g>
        <g transform="translate(17.456)">
          <path fill="#E85740" d="M55.3627277 132.726671C55.3627277 132.726671 54.855511 133.421321 53.3813503 133.674527 51.9071896 133.927732 51.3881758 134.39296 49.652055 134.39296 48.4946953 134.39296 44.7026337 135.501532 46.265084 137.327386 47.8275342 139.153241 47.0663682 138.476789 49.652055 139.619747 49.9699866 139.760457 52.6779297 140.395122 52.6779297 140.395122 52.6779297 140.395122 61.7623375 138.653642 62.5863798 137.978281 64.9424797 136.04729 60.6788899 132.013579 60.6788899 132.013579L55.3627277 133.667617M14.151299 123.706504C12.9043985 123.856274 10.7002882 125.716666 12.4604878 127.492664 14.2201324 129.268661 15.2102685 130.228033 18.2367907 130.945294 20.1523673 131.399505 24.6002708 134.593386 26.4625753 132.101761 27.6523192 130.510389 27.2984406 128.824253 26.9743686 127.492664 26.7779276 126.683907 26.1371975 125.382816 25.2898378 125.407868L21.7335649 125.407868C21.7335649 125.407868 15.3981995 123.556734 14.151299 123.706504z"/>
          <path fill="#003569" d="M21.4971777,98.7243511 C22.0769896,107.596683 20.7956624,126.405423 20.7956624,126.405423 C20.7956624,126.405423 20.7956624,128.248171 21.4971777,128.632795 C22.198693,129.017419 26.7067663,129.57202 26.5903584,126.880216 C26.4739504,124.188413 32.0459051,110.911912 32.0459051,99.8695856 C32.0459051,92.9076761 41.5106799,87.0476892 41.5106799,87.0476892 C41.5106799,87.0476892 40.9481229,101.246802 41.5106799,104.3474 C42.0732369,107.447998 43.9968767,110.911912 43.9968767,110.911912 C43.9968767,110.911912 55.26738,134.881638 55.9379789,134.976523 C58.7981257,135.366888 58.4507644,133.747025 59.0638937,133.272774 C59.7060044,132.776106 60.4153126,133.487185 60.3953683,132.594433 C60.3491393,130.527291 58.4146504,125.322543 56.6200742,115.572523 C54.9218549,106.342112 50.6247863,101.835065 50.6660025,101.064123 C51.1282924,92.3849499 52.0929689,87.0282997 55.1145685,81.4867058 C58.1361681,75.9451118 55.9379789,68.2852361 55.9379789,68.2852361 L34.8924467,68.2852361 L34.1867583,72.234833 C34.1867583,72.234833 20.9407588,90.2140514 21.4971777,98.7243511 Z"/>
          <path fill="#5B5E67" d="M63.592073 64.6112635L37.1732232 48.7130024C36.3366189 48.2100616 35.3421752 47.8403885 35.3421752 46.7307898 35.3421752 45.6211911 36.3366189 44.1761053 37.8988381 45.1159325L64.3176878 61.0136141C64.4281196 61.080248 65.6133091 61.6886442 65.6133091 62.7982429 65.6133091 63.9078416 64.4281196 65.1142043 63.592073 64.6112635M28.3930429 85.2385885L1.97370638 69.3403275C1.13764436 68.8373867.143182344 68.4671341.143182344 67.3581148.143182344 66.2485161 1.13764436 64.8034303 2.69933458 65.7432576L29.1192288 81.6409392C29.2291049 81.707573 30.4143162 82.3159692 30.4143162 83.4255679 30.4143162 84.5351667 29.2291049 85.7415293 28.3930429 85.2385885"/>
          <path fill="#EED2B7" d="M11.9864207,70.8013157 C12.954107,71.3710698 15.7312382,69.7955661 15.7312382,69.7955661 L27.7374894,54.831696 C27.7374894,54.831696 32.2054132,30.3630079 33.1104155,29.571841 C34.0154177,28.780674 39.2646546,25.3467817 39.2646546,25.3467817 L51.3431044,21.3402895 C51.3431044,21.3402895 54.0754613,21.5269821 55.5429417,23.8065675 C57.0104221,26.0861529 57.8695306,55.6114793 57.8695306,55.6114793 L55.5429417,68.6122307 L35.6575183,68.6122307 L38.0232848,41.1701209 C38.0232848,41.1701209 35.1308596,56.5386814 33.1104155,58.6241747 C31.0899714,60.7096681 18.1294662,72.819076 18.1294662,72.819076 C18.1294662,72.819076 18.7020186,79.5104133 16.4593817,78.9173227 C14.216185,78.324232 9.29492049,74.0485154 9.29492049,74.0485154 C9.29492049,74.0485154 11.0187343,70.2309925 11.9864207,70.8013157 Z"/>
          <path fill="#EED2B7" d="M32.6610937,2.84682564 C32.6610937,2.84682564 32.3314464,3.60278824 31.2224789,5.81932763 C30.1135114,8.03586701 30.1174559,14.8024454 31.4106878,17.7019186 C32.7033562,20.6019622 34.09351,23.668603 37.4846514,21.0954774 C37.7664013,20.8815258 37.8762838,22.5355149 37.8762838,22.5355149 L37.7810523,25.2398641 C37.7810523,25.2398641 32.7258962,28.8781837 32.5630448,30.633158 C32.4165348,32.2129772 37.2012111,42.8780404 39.4298525,42.6760701 C41.6579305,42.4746702 46.9486295,32.4429039 46.3479387,30.0694666 C45.747248,27.6960294 47.3098328,24.0822429 47.3098328,24.0822429 L44.7047735,11.0283378 L40.5799555,5.79251235 L32.6610937,2.84682564"/>
          <path fill="#B7A587" d="M40.2700342,18.4951412 C40.2700342,18.4951412 36.3223509,21.5935966 35.0218401,21.6338646 C34.0627282,21.6643376 33.2302356,20.7213058 33.2302356,20.7213058 C33.2302356,20.7213058 34.1437882,22.7461306 35.7401386,22.5594833 C37.3358973,22.3722917 38.1405809,21.342194 38.1405809,21.342194 L38.6730922,24.1854378 L40.2700342,18.4951412"/>
          <path fill="#EC6D54" d="M50.8613681,29.8248018 C57.1898902,28.6482998 50.0436219,21.2547643 50.0436219,21.2547643 C50.0436219,21.2547643 53.0172445,20.0232644 53.5336861,21.015495 C54.0495646,22.0071586 57.3819366,32.1500233 57.3819366,32.1500233 C57.3819366,32.1500233 58.031642,45.5876247 55.895361,51.1868156 C53.7590799,56.7860066 55.895361,69.1770529 55.895361,69.1770529 C55.895361,69.1770529 37.9756704,72.7543676 35.895261,68.3443278 C33.8142884,63.933721 38.2758486,41.0080912 38.2758486,41.0080912 C38.2758486,41.0080912 45.9256052,41.0795318 44.3407996,34.3845266 C42.7554307,27.6895215 36.6009331,26.9853213 36.6009331,26.9853213 L39.5249953,25.2457993 C42.2615165,25.7782019 44.532846,31.0013038 50.8613681,29.8248018 Z"/>
          <path stroke="#FFFFFF" stroke-width=".952" d="M37.7482982,41.2562959 C37.7482982,41.2562959 45.5224108,41.3286066 43.9118422,34.5520604 C42.3007013,27.7755143 36.0461551,27.0627373 36.0461551,27.0627373 L39.0177513,25.302029 C41.7987579,25.840916 44.1070106,31.127632 50.5384103,29.9368009 C56.9703824,28.7459699 49.7073707,21.2623857 49.7073707,21.2623857 C49.7073707,21.2623857 52.729333,20.0158869 53.25417,21.0202022 C53.7784347,22.0239437 57.1655508,32.2903422 57.1655508,32.2903422"/>
          <path fill="#3D3635" d="M48.3527539,4.55368668 C47.3304544,2.85402111 44.3443679,0.440077185 40.8943191,0.048978649 C37.4437051,-0.341553898 33.6709735,1.78316955 32.1751047,2.85628507 C30.6798009,3.92940059 31.209317,7.28062263 31.209317,7.28062263 C31.209317,7.28062263 32.8775471,6.91612559 33.7489599,8.89821976 C34.2745202,10.0935889 35.7822565,13.7668588 35.7822565,13.7668588 C35.7822565,13.7668588 36.4892198,11.6925084 37.3809769,11.6698689 C38.272734,11.6472293 38.9180994,13.3842501 38.2846015,15.3510626 C37.6511036,17.3178751 37.4979565,17.2493904 37.4979565,17.2493904 L44.4195287,20.780597 C44.4195287,20.780597 44.8258489,22.4644148 46.0188142,23.8465605 C47.2112144,25.2292721 46.4211787,28.1361926 48.3301492,29.4096683 C50.2391197,30.683144 51.9350405,40.9609418 55.8411401,37.8157399 C59.7472396,34.6705379 56.8097533,29.110826 56.8097533,29.110826 C56.8097533,29.110826 57.6071356,24.9009983 55.3229264,24.2167174 C53.038152,23.5324365 49.325323,21.7048573 49.2953717,21.0528378 C49.2659855,20.4013842 46.5624583,18.1261076 48.1871742,15.9951583 C49.8118901,13.864775 49.3750534,6.25278625 48.3527539,4.55368668"/>
          <path fill="#C64C39" d="M42.3819738,40.5450404 L38.2317316,41.5958432 C38.2317316,41.5958432 35.2842174,58.4745742 35.3506403,63.1508155 C35.4170631,67.82762 34.9254154,69.1318318 36.9323345,69.9185261 C38.9392536,70.7046572 42.3819738,70.4299291 42.3819738,70.4299291"/>
        </g>
      </g>
    </g>
    <path fill="#2591BF" d="M110.630647,76.222042 C109.405818,76.222042 108.412898,75.234933 108.412898,74.0172722 C108.412898,72.7996115 109.405818,71.8125024 110.630647,71.8125024 C111.855476,71.8125024 112.848396,72.7996115 112.848396,74.0172722 C112.848396,75.234933 111.855476,76.222042 110.630647,76.222042 Z M121.719391,76.222042 C120.494562,76.222042 119.501642,75.234933 119.501642,74.0172722 C119.501642,72.7996115 120.494562,71.8125024 121.719391,71.8125024 C122.944219,71.8125024 123.937139,72.7996115 123.937139,74.0172722 C123.937139,75.234933 122.944219,76.222042 121.719391,76.222042 Z M132.808135,76.222042 C131.583306,76.222042 130.590386,75.234933 130.590386,74.0172722 C130.590386,72.7996115 131.583306,71.8125024 132.808135,71.8125024 C134.032963,71.8125024 135.025883,72.7996115 135.025883,74.0172722 C135.025883,75.234933 134.032963,76.222042 132.808135,76.222042 Z M143.896878,76.222042 C142.67205,76.222042 141.67913,75.234933 141.67913,74.0172722 C141.67913,72.7996115 142.67205,71.8125024 143.896878,71.8125024 C145.121707,71.8125024 146.114627,72.7996115 146.114627,74.0172722 C146.114627,75.234933 145.121707,76.222042 143.896878,76.222042 Z M154.985622,76.222042 C153.760793,76.222042 152.767874,75.234933 152.767874,74.0172722 C152.767874,72.7996115 153.760793,71.8125024 154.985622,71.8125024 C156.210451,71.8125024 157.203371,72.7996115 157.203371,74.0172722 C157.203371,75.234933 156.210451,76.222042 154.985622,76.222042 Z M166.074366,76.222042 C164.849537,76.222042 163.856617,75.234933 163.856617,74.0172722 C163.856617,72.7996115 164.849537,71.8125024 166.074366,71.8125024 C167.299195,71.8125024 168.292115,72.7996115 168.292115,74.0172722 C168.292115,75.234933 167.299195,76.222042 166.074366,76.222042 Z"/>
    <g transform="translate(200.438)">
      <path fill="#1D1D1B" d="M76.2702953,0 L12.6030687,0 C5.43235722,0 0,5.29800178 0,12.2913641 L0,171.019497 C0,178.01286 5.43235722,183.310861 12.6030687,183.310861 L76.2702953,183.310861 C83.4410069,183.310861 88.8733641,178.01286 88.8733641,171.019497 L88.8733641,12.2913641 C88.8733641,5.29800178 83.4410069,0 76.2702953,0 L76.2702953,0 Z"/>
      <polygon fill="#FFFFFF" points="6.666 17.776 82.208 17.776 82.208 159.98 6.666 159.98"/>
      <g transform="translate(12.22 22.22)">
        <rect width="65.544" height="25.552" fill="#D8D8D8"/>
        <rect width="52.213" height="4.444" x="6.666" y="5.555" fill="#777675"/>
        <rect width="33.328" height="4.444" x="6.666" y="13.332" fill="#777675"/>
      </g>
      <g transform="translate(12.22 51.105)">
        <rect width="65.544" height="66.658" fill="#EC6D54"/>
        <rect width="52.213" height="4.444" x="6.666" y="9.999" fill="#D8D8D8"/>
        <rect width="52.213" height="4.444" x="6.666" y="44.439" fill="#D8D8D8"/>
        <rect width="52.213" height="4.444" x="6.666" y="52.216" fill="#D8D8D8"/>
        <rect width="11.65" height="17.776" x="6.666" y="18.887" fill="#FFFFFF"/>
        <rect width="11.65" height="17.776" x="33.707" y="18.887" fill="#FFFFFF"/>
        <rect width="11.65" height="17.776" x="20.186" y="18.887" fill="#FFFFFF"/>
        <rect width="11.65" height="17.776" x="47.228" y="18.887" fill="#FFFFFF"/>
      </g>
      <g transform="translate(12.22 121.096)">
        <rect width="65.544" height="33.329" fill="#7BCAEC"/>
        <rect width="7.029" height="5.981" x="6.666" y="21.793" fill="#777675"/>
        <rect width="7.029" height="5.981" x="24.739" y="21.793" fill="#777675"/>
        <rect width="7.029" height="14.954" x="42.813" y="12.821" fill="#777675"/>
        <rect width="7.029" height="14.954" x="15.702" y="12.821" fill="#777675"/>
        <rect width="7.029" height="9.72" x="33.776" y="18.055" fill="#777675"/>
        <rect width="7.029" height="19.44" x="51.85" y="8.335" fill="#777675"/>
      </g>
    </g>
  </g>
</svg>
