<svg xmlns="http://www.w3.org/2000/svg" width="118" height="197" viewBox="0 0 118 197">
  <g fill="none" fill-rule="evenodd" transform="translate(0 1)">
    <polygon fill="#DBD9DB" points="117.717 167.653 48.373 127.253 .588 153.727 70.977 194.241" style="mix-blend-mode:multiply"/>
    <g transform="translate(3.831)">
      <g transform="translate(0 25)">
        <polyline fill="#1F1F1F" points="26.753 142.593 62.422 122.211 65.065 123.755 29.508 143.758 26.753 142.593"/>
        <polyline fill="#1F1F1F" points="65.13 112.207 61.109 108.943 55.169 62.622 58.82 62.188 65.13 112.207"/>
        <path fill="#2C2E33" d="M31.2460387,53.046875 C31.7818387,52.7206601 28.209635,45.9029845 28.4448494,45.3150535 L30.0155926,41.3862106 C30.2575274,40.7827751 30.6900775,40.2779482 31.2460387,39.9517333 L46.9608025,30.7414342 C47.5515876,30.3959937 48.2437899,30.2731979 48.9146091,30.3959937 L52.3230792,31.019275 C53.042774,31.1507532 62.5626425,31.1439312 63.1766437,30.7414342 L59.2713728,27.777592 C60.9960745,26.6470031 57.7910496,25.8556529 56.1042265,24.6673873 L51.1213476,21.1559258 C50.203706,20.5090777 49.0013635,20.4582229 48.0342353,21.0250678 L18.2994732,38.4521371 C16.9407284,39.2484487 16.4586917,41.0010786 17.2138214,42.3971047 L20.0205093,47.5861541 C20.8080192,49.0423377 22.6298614,49.5422031 24.0332053,48.6875945 L31.2460387,53.046875 Z"/>
        <path fill="#1F1F1F" d="M67.0677384,126.828125 C67.0677384,126.828125 54.4846403,97.4417919 55.3698896,76.3689892 C55.9917588,61.5668795 70.4935065,35.6045614 70.4935065,35.6045614 L64.6101354,31.40625 C64.6101354,31.40625 50.7357441,54.1119686 49.2365514,74.6739079 C47.3599694,100.415262 59.46813,122.398386 59.46813,122.398386 L67.0677384,126.828125"/>
        <polygon fill="#1F1F1F" points="73.78 156.057 7.272 111.75 28.771 99.143 33.082 102.068 43.183 96.047 109.471 134.847"/>
        <polygon fill="#1F1F1F" points="58.5 149.5 55.634 152.251 3.065 122.211 3.065 129.326 66.969 165.844 109.571 141.499 109.571 134.384 74.069 154.671 52.768 140.469"/>
        <polyline fill="#1F1F1F" points="3.065 122.59 14.064 116.055 20.688 120.452 7.366 128.367 3.065 122.59"/>
        <polyline fill="#868C96" points="10.415 110.624 68.316 148.123 75.873 143.535 85.052 148.983 73.983 155.301 7.662 111.977 12.606 109.129"/>
        <polygon fill="#868C96" points="109.271 134.553 98.962 140.433 90.164 135.234 98.643 130.388 41 97.234 42.775 95.8"/>
        <path fill="#1F1F1F" d="M31.0547514,144.835938 C31.0547514,144.835938 18.4716533,117.45022 19.3569025,96.3774172 C19.9781621,81.5753075 34.4805195,55.6129894 34.4805195,55.6129894 L28.5971484,51.4140625 C28.5971484,51.4140625 14.7221474,74.1203966 13.2235644,94.6817204 C11.3469824,120.42369 23.455143,140.406814 23.455143,140.406814"/>
        <path fill="#20201F" d="M18.3162346,49.6975044 L0.937574101,33.7812885 C-0.492612781,32.4705848 -0.250590534,30.13422 1.41796083,29.1516539 L38.7546171,7.17381809 C39.9580224,6.46521312 41.4930653,6.73732728 42.3861701,7.81716492 L59.4685514,25.937998 C61.1779478,28.0053268 54.8487917,28.1432308 57.5421275,28.770571 L53.238155,27.9917827 C47.247952,26.7678846 44.3180806,28.2645125 43.7297898,28.613582 L28.0050496,37.9442658 C27.5795294,38.1966794 27.2253356,38.5568305 26.9784364,38.9890118 L23.9796771,49.4697165 C23.0688931,51.0623847 19.6653409,50.9330996 18.3162346,49.6975044"/>
        <polyline fill="#2C2E33" points="10.578 12.168 9.653 27.044 5.364 30.044 16.193 36.793 22.801 35.751 30.649 32.145 10.578 12.168"/>
        <polyline fill="#2C2E33" points="37.922 11.658 39.838 10.629 46.74 19.819 44.798 24.173 37.545 28.328 37.922 11.658"/>
        <path fill="#5B5E67" d="M30.1747454,31.3579121 L21.6398733,29.6791521 C20.9286339,29.5388523 20.3117364,29.1052533 19.9460087,28.4866036 L11.0742014,13.4932691 C10.3647999,12.295278 10.7783111,10.7562131 11.9955657,10.0625755 L27.9656765,0.960624304 C29.1290214,0.297828572 30.6145989,0.644949694 31.3521804,1.75283453 L40.9597314,16.1746891 C41.3720175,16.7933388 41.4853502,17.5613594 41.2690991,18.2707201 L38.7194194,26.6433542 C38.5258348,27.2795413 38.083531,27.8135273 37.4911378,28.1279924 L31.8698353,31.1081543 C31.3509552,31.3833112 30.7518234,31.4716034 30.1747454,31.3579121"/>
        <path fill="#7BCAEC" d="M21.3080924,23.099022 L25.2463926,27.5163472 C26.0393179,28.4058556 27.3575171,28.5877862 28.3604266,27.9456782 L36.4225654,22.7823746 C37.3270644,22.2032184 37.7457792,21.0965264 37.4530549,20.0603404 L35.940542,14.711329 C35.5080373,13.1822307 33.7579602,12.4708758 32.3883619,13.2665861 L21.9004358,19.3615758 C20.567193,20.136512 20.2801101,21.9463752 21.3080924,23.099022"/>
        <path fill="#2C2E33" d="M15.7145835,14.4570557 L15.7948683,14.5903498 C16.6127697,15.9499501 18.4467755,16.419738 19.8799846,15.6365608 L30.6927159,9.7271868 C32.12028,8.94697171 32.6063793,7.22007194 31.7771879,5.87350482 C30.9580321,4.54352541 29.1604053,4.08025418 27.740368,4.83381044 L16.8473519,10.6098903 C15.4059889,11.3741101 14.8979366,13.099825 15.7145835,14.4570557"/>
        <polyline fill="#1F1F1F" points="30.649 127.598 26.629 124.334 20.688 78.012 24.34 77.578 30.649 127.598"/>
        <polyline fill="#1F1F1F" points="73.437 156.84 6.896 113.344 7.589 111.438 73.558 154.712 73.437 156.84"/>
      </g>
      <g transform="translate(19)">
        <path fill="#E85740" d="M60.25853 144.362793C60.25853 144.362793 59.7064594 145.114325 58.1019366 145.388264 56.4974139 145.662204 55.932503 146.165527 54.0428546 146.165527 52.783148 146.165527 48.6557493 147.364875 50.3563691 149.340241 52.0569889 151.315606 51.228512 150.583762 54.0428546 151.820312 54.3889014 151.972544 57.3363116 152.65918 57.3363116 152.65918 57.3363116 152.65918 67.2240662 150.775097 68.1209796 150.044434 70.6854327 147.955322 66.0448077 143.591309 66.0448077 143.591309L60.25853 145.380789M15.4027179 134.604004C14.0455522 134.766038 11.6465294 136.778769 13.5623859 138.700195 15.4776383 140.621621 16.5553335 141.659552 19.8494952 142.435547 21.9344689 142.926951 26.7757066 146.382364 28.8026973 143.686711 30.0976519 141.965029 29.7124793 140.140823 29.3597491 138.700195 29.1459367 137.825213 28.4485458 136.417581 27.526253 136.444685L23.655494 136.444685C23.655494 136.444685 16.7598835 134.44197 15.4027179 134.604004z"/>
        <path fill="#003569" d="M23.3982028,107.576172 C24.0292882,117.17502 22.6346515,137.523926 22.6346515,137.523926 C22.6346515,137.523926 22.6346515,139.517568 23.3982028,139.933687 C24.161754,140.349806 29.0684825,140.949821 28.9417804,138.037598 C28.8150783,135.125375 34.8797687,120.761719 34.8797687,108.815185 C34.8797687,101.283195 45.1815265,94.9433594 45.1815265,94.9433594 C45.1815265,94.9433594 44.5692218,110.305176 45.1815265,113.659668 C45.7938312,117.01416 47.8875812,120.761719 47.8875812,120.761719 C47.8875812,120.761719 60.1547506,146.69422 60.8846515,146.796875 C63.9977249,147.219205 63.6196461,145.466698 64.2869952,144.953613 C64.9858887,144.416276 65.7579219,145.185582 65.736214,144.219727 C65.6858969,141.983315 63.5803384,136.352373 61.6270654,125.803967 C59.7786702,115.817718 55.1016059,110.941609 55.1464669,110.107537 C55.6496378,100.717665 56.6996219,94.9223821 59.9884258,88.9270114 C63.2772296,82.9316406 60.8846515,74.6445312 60.8846515,74.6445312 L37.9780338,74.6445312 L37.2099404,78.9175433 C37.2099404,78.9175433 22.792579,98.3690011 23.3982028,107.576172 Z"/>
        <path fill="#5B5E67" d="M69.2156076 70.6697131L40.4605026 53.4696132C39.5499162 52.9254887 38.4675325 52.5255447 38.4675325 51.3250858 38.4675325 50.1246269 39.5499162 48.5612094 41.2502846 49.577995L70.0053896 66.777468C70.125587 66.8495582 71.4155844 67.5077733 71.4155844 68.7082322 71.4155844 69.9086911 70.125587 71.2138375 69.2156076 70.6697131M30.9038788 92.9861193L2.14824395 75.7860194C1.23824782 75.241895.155844156 74.8413241.155844156 73.6414921.155844156 72.4410332 1.23824782 70.8776157 2.93804046 71.8944012L31.6942824 89.0938743C31.8138749 89.1659645 33.1038961 89.8241796 33.1038961 91.0246385 33.1038961 92.2250974 31.8138749 93.5302438 30.9038788 92.9861193"/>
        <path fill="#EED2B7" d="M13.0463964,77.3666416 C14.0996566,77.9830503 17.1223733,76.2785355 17.1223733,76.2785355 L30.1903538,60.0893397 C30.1903538,60.0893397 35.0533823,33.6170181 36.0384152,32.7610659 C37.023448,31.9051137 42.7368821,28.1900351 42.7368821,28.1900351 L55.8834459,23.8554688 C55.8834459,23.8554688 58.8574288,24.0574488 60.4546806,26.5236995 C62.0519323,28.9899501 62.987013,60.932976 62.987013,60.932976 L60.4546806,74.998302 L38.8107618,74.998302 L41.3857363,45.3090782 C41.3857363,45.3090782 38.2375299,61.9361027 36.0384152,64.1923679 C33.8393004,66.4486332 19.7326799,79.5496275 19.7326799,79.5496275 C19.7326799,79.5496275 20.3558639,86.788889 17.9149075,86.1472328 C15.4733418,85.5055765 10.1168831,80.8797402 10.1168831,80.8797402 C10.1168831,80.8797402 11.9931361,76.7496171 13.0463964,77.3666416 Z"/>
        <path fill="#EED2B7" d="M35.5493593,3.84765625 C35.5493593,3.84765625 35.1905607,4.66552131 33.9835257,7.06356339 C32.7764907,9.46160547 32.7807841,16.7822693 34.1883782,19.9191676 C35.5953591,23.0566831 37.1084461,26.3744376 40.7994708,23.5906101 C41.1061362,23.3591389 41.2257357,25.1485659 41.2257357,25.1485659 L41.1220828,28.0743624 C41.1220828,28.0743624 35.6198923,32.0106081 35.4426397,33.9092895 C35.2831737,35.6184732 40.4909654,47.1568517 42.9166887,46.9383429 C45.3417987,46.7204513 51.1003615,35.8672276 50.4465508,33.29944 C49.7927402,30.7316523 51.4935065,26.8219487 51.4935065,26.8219487 L48.6580782,12.6991166 L44.1684969,7.03455232 L35.5493593,3.84765625"/>
        <path fill="#B7A587" d="M43.8311688,20.7773438 C43.8311688,20.7773438 39.5343864,24.1295181 38.1188697,24.1730834 C37.0749422,24.2060518 36.1688312,23.1857992 36.1688312,23.1857992 C36.1688312,23.1857992 37.1631705,25.3764281 38.9006883,25.174497 C40.6375621,24.9719771 41.5134051,23.8575293 41.5134051,23.8575293 L42.093007,26.9335938 L43.8311688,20.7773438"/>
        <path fill="#EC6D54" d="M55.359109,33.0347406 C62.247271,31.7619 54.4690484,23.7629403 54.4690484,23.7629403 C54.4690484,23.7629403 57.7056324,22.4305983 58.2677437,23.5040783 C58.829242,24.5769449 62.4563004,35.5503643 62.4563004,35.5503643 C62.4563004,35.5503643 63.1634601,50.0883119 60.8382648,56.1459961 C58.5130695,62.2036803 60.8382648,75.609375 60.8382648,75.609375 C60.8382648,75.609375 41.3339113,79.4796203 39.0695284,74.7084617 C36.8045325,69.9366896 41.6606346,45.1337805 41.6606346,45.1337805 C41.6606346,45.1337805 49.9868698,45.2110711 48.2619176,37.9678413 C46.5363524,30.7246116 39.8376041,29.9627475 39.8376041,29.9627475 L43.0202451,28.0807836 C45.9987607,28.6567824 48.470947,34.3075812 55.359109,33.0347406 Z"/>
        <path stroke="#FFFFFF" stroke-width=".768" d="M41.0864323,45.4023096 C41.0864323,45.4023096 49.5480203,45.4805415 47.7950269,38.1490937 C46.0414106,30.8176459 39.2337662,30.0465028 39.2337662,30.0465028 L42.4681449,28.1416178 C45.4950797,28.7246318 48.0074543,34.4442538 55.0075916,33.1559108 C62.0083518,31.8675678 54.103062,23.7711858 54.103062,23.7711858 C54.103062,23.7711858 57.3922606,22.4226166 57.9635097,23.509171 C58.5341358,24.5951044 62.2207792,35.7021733 62.2207792,35.7021733"/>
        <path fill="#3D3635" d="M52.6286546,5.69428465 C51.5159518,3.85544093 48.2658015,1.24382971 44.5106601,0.820705831 C40.7549035,0.398194287 36.6485441,2.69690202 35.0203935,3.85789027 C33.392858,5.01887851 33.9692,8.64451743 33.9692,8.64451743 C33.9692,8.64451743 35.7849538,8.25017332 36.7334269,10.3945725 C37.3054632,11.6878252 38.9465307,15.6618831 38.9465307,15.6618831 C38.9465307,15.6618831 39.7160118,13.4176732 40.6866282,13.3931798 C41.6572446,13.3686864 42.3596806,15.2479442 41.6701616,17.3758104 C40.9806426,19.5036765 40.8139524,19.4295839 40.8139524,19.4295839 L48.3476088,23.2499455 C48.3476088,23.2499455 48.7898605,25.0716438 50.0883214,26.5669673 C51.3861672,28.0629031 50.5262675,31.2078586 52.6040509,32.5856136 C54.6818343,33.9633687 56.5277278,45.0827703 60.7792491,41.6800215 C65.0307704,38.2772728 61.8335181,32.2623004 61.8335181,32.2623004 C61.8335181,32.2623004 62.701414,27.7077485 60.215209,26.9674347 C57.7283889,26.227121 53.6872293,24.2498895 53.6546294,23.5444789 C53.6226445,22.8396807 50.6800407,20.3780917 52.4484324,18.0726482 C54.2168242,15.7678171 53.7413574,7.53251603 52.6286546,5.69428465"/>
        <path fill="#C64C39" d="M46.1298701,44.6328125 L41.6126163,45.7696609 C41.6126163,45.7696609 38.4044494,64.0305172 38.4767461,69.0896755 C38.5490428,74.149443 38.013918,75.560451 40.1983117,76.4115642 C42.3827054,77.2620681 46.1298701,76.9648438 46.1298701,76.9648438"/>
      </g>
    </g>
  </g>
</svg>
