<svg xmlns="http://www.w3.org/2000/svg" width="118" height="197" viewBox="0 0 118 197">
  <g fill="none" fill-rule="evenodd">
    <polygon fill="#DBD9DB" points="117.717 169.653 48.373 129.253 .588 155.727 70.977 196.241" style="mix-blend-mode:multiply"/>
    <g transform="translate(3.831)">
      <polyline fill="#1F1F1F" points="23.753 166.593 59.422 146.211 62.065 147.755 26.508 167.758 23.753 166.593"/>
      <polyline fill="#1F1F1F" points="65.13 136.207 61.109 132.943 55.169 86.622 58.82 86.188 65.13 136.207"/>
      <path fill="#2C2E33" d="M24.0332053,72.6875945 L27.2565586,70.7241033 C27.7923586,70.3978884 28.209635,69.9029845 28.4448494,69.3150535 L30.0155926,65.3862106 C30.2575274,64.7827751 30.6900775,64.2779482 31.2460387,63.9517333 L46.9608025,54.7414342 C47.5515876,54.3959937 48.2437899,54.2731979 48.9146091,54.3959937 L52.3230792,55.019275 C53.042774,55.1507532 53.7850739,55.0000494 54.3990751,54.5975523 L59.2713728,51.777592 C60.9960745,50.6470031 57.7910496,49.8556529 56.1042265,48.6673873 L51.1213476,45.1559258 C50.203706,44.5090777 49.0013635,44.4582229 48.0342353,45.0250678 L18.2994732,62.4521371 C16.9407284,63.2484487 16.4586917,65.0010786 17.2138214,66.3971047 L20.0205093,71.5861541 C20.8080192,73.0423377 22.6298614,73.5422031 24.0332053,72.6875945"/>
      <path fill="#1F1F1F" d="M67.0677384,150.828125 C67.0677384,150.828125 54.4846403,121.441792 55.3698896,100.368989 C55.9917588,85.5668795 70.4935065,59.6045614 70.4935065,59.6045614 L64.6101354,55.40625 C64.6101354,55.40625 50.7357441,78.1119686 49.2365514,98.6739079 C47.3599694,124.415262 59.46813,146.398386 59.46813,146.398386 L67.0677384,150.828125"/>
      <polygon fill="#1F1F1F" points="74.122 178.531 7.662 135.265 28.771 123.143 33.082 126.068 43.183 120.047 109.571 158.173"/>
      <polyline fill="#1F1F1F" points="52.768 164.469 58.5 173.5 55.634 176.251 3.065 146.211 3.065 154.326 66.969 190.844 109.571 166.499 109.571 158.384 74.069 178.671 52.768 164.469"/>
      <polyline fill="#1F1F1F" points="3.065 146.59 14.064 140.055 20.688 144.452 7.366 152.367 3.065 146.59"/>
      <polyline fill="#868C96" points="12.606 133.129 70.507 170.628 75.873 167.535 85.052 172.983 73.983 179.301 7.662 135.977 12.606 133.129"/>
      <polyline fill="#868C96" points="42.309 120.047 108.805 158.8 98.496 164.68 89.698 159.481 95.189 156.058 37.545 122.903 42.309 120.047"/>
      <polyline fill="#868C96" points="39.144 131.59 38.312 132.225 81.814 162.371 82.753 161.684"/>
      <polyline fill="#868C96" points="82.753 169.512 93.324 163.141 97.312 165.305 86.53 171.605 82.753 169.512"/>
      <path fill="#1F1F1F" d="M31.0547514,170.835938 C31.0547514,170.835938 18.4716533,141.45022 19.3569025,120.377417 C19.9781621,105.575308 34.4805195,79.6129894 34.4805195,79.6129894 L28.5971484,75.4140625 C28.5971484,75.4140625 14.7221474,98.1203966 13.2235644,118.68172 C11.3469824,144.42369 23.455143,166.406814 23.455143,166.406814 L31.0547514,170.835938"/>
      <path fill="#5B5E67" d="M88.2156076,70.6697131 L59.4605026,53.4696132 C58.5499162,52.9254887 57.4675325,52.5255447 57.4675325,51.3250858 C57.4675325,50.1246269 58.5499162,48.5612094 60.2502846,49.577995 L89.0053896,66.777468 C89.125587,66.8495582 90.4155844,67.5077733 90.4155844,68.7082322 C90.4155844,69.9086911 89.125587,71.2138375 88.2156076,70.6697131"/>
      <path fill="#868C96" d="M18.3162346,73.6975044 L0.937574101,57.7812885 C-0.492612781,56.4705848 -0.250590534,54.13422 1.41796083,53.1516539 L38.7546171,31.1738181 C39.9580224,30.4652131 41.4930653,30.7373273 42.3861701,31.8171649 L59.4685514,49.937998 C61.1779478,52.0053268 54.8487917,52.1432308 57.5421275,52.770571 L53.238155,51.9917827 C47.247952,50.7678846 44.3180806,52.2645125 43.7297898,52.613582 L28.0050496,61.9442658 C27.5795294,62.1966794 27.2253356,62.5568305 26.9784364,62.9890118 L23.9796771,73.4697165 C23.0688931,75.0623847 19.6653409,74.9330996 18.3162346,73.6975044"/>
      <polyline fill="#2C2E33" points="10.578 36.168 9.653 51.044 5.364 54.044 16.193 60.793 22.801 59.751 30.649 56.145 10.578 36.168"/>
      <polyline fill="#2C2E33" points="37.922 35.658 39.838 34.629 46.74 43.819 44.798 48.173 37.545 52.328 37.922 35.658"/>
      <path fill="#5B5E67" d="M30.1747454,55.3579121 L21.6398733,53.6791521 C20.9286339,53.5388523 20.3117364,53.1052533 19.9460087,52.4866036 L11.0742014,37.4932691 C10.3647999,36.295278 10.7783111,34.7562131 11.9955657,34.0625755 L27.9656765,24.9606243 C29.1290214,24.2978286 30.6145989,24.6449497 31.3521804,25.7528345 L40.9597314,40.1746891 C41.3720175,40.7933388 41.4853502,41.5613594 41.2690991,42.2707201 L38.7194194,50.6433542 C38.5258348,51.2795413 38.083531,51.8135273 37.4911378,52.1279924 L31.8698353,55.1081543 C31.3509552,55.3833112 30.7518234,55.4716034 30.1747454,55.3579121"/>
      <path fill="#FFFFFF" d="M21.3080924,47.099022 L25.2463926,51.5163472 C26.0393179,52.4058556 27.3575171,52.5877862 28.3604266,51.9456782 L36.4225654,46.7823746 C37.3270644,46.2032184 37.7457792,45.0965264 37.4530549,44.0603404 L35.940542,38.711329 C35.5080373,37.1822307 33.7579602,36.4708758 32.3883619,37.2665861 L21.9004358,43.3615758 C20.567193,44.136512 20.2801101,45.9463752 21.3080924,47.099022"/>
      <path fill="#2C2E33" d="M15.7145835,38.4570557 L15.7948683,38.5903498 C16.6127697,39.9499501 18.4467755,40.419738 19.8799846,39.6365608 L30.6927159,33.7271868 C32.12028,32.9469717 32.6063793,31.2200719 31.7771879,29.8735048 C30.9580321,28.5435254 29.1604053,28.0802542 27.740368,28.8338104 L16.8473519,34.6098903 C15.4059889,35.3741101 14.8979366,37.099825 15.7145835,38.4570557"/>
      <polyline fill="#1F1F1F" points="30.649 151.598 26.629 148.334 20.688 102.012 24.34 101.578 30.649 151.598"/>
      <polyline fill="#1F1F1F" points="73.437 180.84 6.896 137.344 7.589 135.438 73.558 178.712 73.437 180.84"/>
      <path fill="#E85740" d="M79.25853 145.380789C79.25853 145.380789 74.3597116 145.238757 73.1390618 145.388264 71.9178113 145.537771 67.6557493 147.364875 69.3563691 149.340241 71.0569889 151.315606 71.8931821 151.089476 74.7075247 152.326026 75.3773202 152.62068 82.2326624 151.252065 85.7035848 150.804789 88.803867 150.40548 86.5758208 144.671875 86.5758208 144.671875L79.25853 145.380789M42.655494 136.444685C42.655494 136.444685 36.770819 134.515599 35.4136534 134.677633 34.0564877 134.839667 29.1732282 136.361606 31.0890846 138.283032 33.004337 140.204458 36.2695073 141.47716 39.563669 142.253154 41.6486426 142.744559 45.7757066 146.382364 47.8026973 143.686711 49.0976519 141.965029 50.0857796 139.183351 49.7330494 137.742723 49.519237 136.867741 48.6869387 136.270278 47.7646459 136.297382L42.655494 136.444685"/>
      <path fill="#003569" d="M56.2099404,78.9175433 C56.2099404,78.9175433 41.7040694,99.6080139 42.3096932,108.815185 C42.9407786,118.414033 39.8441558,137.339816 39.8441558,137.339816 L42.3982028,139.933687 C42.3982028,139.933687 48.1658748,142.429791 48.0391727,139.517568 C47.9197454,136.789879 59.0495217,109.258801 59.0495217,109.258801 L62.0473289,116.254002 L76.2034052,142.86363 C76.2034052,142.86363 77.3406927,147.384725 78.0705936,147.48738 C84.4438894,148.352003 85.0925554,146.961273 85.0501193,145.073155 C84.9998023,142.836744 82.5803384,136.352373 80.6270654,125.803967 C78.7786702,115.817718 74.1016059,110.941609 74.1464669,110.107537 C74.6496378,100.717665 77.7826343,92.8266772 78.9884258,88.9270114 C80.193611,85.0279566 78.7338092,77.0844193 78.7338092,77.0844193 L56.9780338,74.6445312 L56.2099404,78.9175433"/>
      <path fill="#5B5E67" d="M49.9038788,92.9861193 L21.148244,75.7860194 C20.2382478,75.241895 19.1558442,74.8413241 19.1558442,73.6414921 C19.1558442,72.4410332 20.2382478,70.8776157 21.9380405,71.8944012 L50.6942824,89.0938743 C50.8138749,89.1659645 52.1038961,89.8241796 52.1038961,91.0246385 C52.1038961,92.2250974 50.8138749,93.5302438 49.9038788,92.9861193"/>
      <path fill="#EED2B7" d="M29.1168831,80.8797402 C29.1168831,80.8797402 30.9931361,76.7496171 32.0463964,77.3666416 C33.0996566,77.9830503 36.1223733,76.2785355 36.1223733,76.2785355 L49.1903538,60.0893397 C49.1903538,60.0893397 54.0533823,33.6170181 55.0384152,32.7610659 C56.023448,31.9051137 61.7368821,28.1900351 61.7368821,28.1900351 L74.8834459,23.8554688 C74.8834459,23.8554688 77.8574288,24.0574488 79.4546806,26.5236995 C81.0519323,28.9899501 81.987013,60.932976 81.987013,60.932976 L78.3807085,77.311836 L57.8107618,74.998302 L60.3857363,45.3090782 C60.3857363,45.3090782 57.2375299,61.9361027 55.0384152,64.1923679 C52.8393004,66.4486332 38.7326799,79.5496275 38.7326799,79.5496275 C38.7326799,79.5496275 39.3558639,86.788889 36.9149075,86.1472328 C34.4733418,85.5055765 29.1168831,80.8797402 29.1168831,80.8797402"/>
      <path fill="#EED2B7" d="M54.5493593,3.84765625 C54.5493593,3.84765625 54.1905607,4.66552131 52.9835257,7.06356339 C51.7764907,9.46160547 51.7807841,16.7822693 53.1883782,19.9191676 C54.5953591,23.0566831 56.1084461,26.3744376 59.7994708,23.5906101 C60.1061362,23.3591389 60.2257357,25.1485659 60.2257357,25.1485659 L60.1220828,28.0743624 C60.1220828,28.0743624 54.6198923,32.0106081 54.4426397,33.9092895 C54.2831737,35.6184732 59.4909654,47.1568517 61.9166887,46.9383429 C64.3417987,46.7204513 70.1003615,35.8672276 69.4465508,33.29944 C68.7927402,30.7316523 70.4935065,26.8219487 70.4935065,26.8219487 L67.6580782,12.6991166 L63.1684969,7.03455232 L54.5493593,3.84765625"/>
      <path fill="#B7A587" d="M62.8311688,20.7773438 C62.8311688,20.7773438 58.5343864,24.1295181 57.1188697,24.1730834 C56.0749422,24.2060518 55.1688312,23.1857992 55.1688312,23.1857992 C55.1688312,23.1857992 56.1631705,25.3764281 57.9006883,25.174497 C59.6375621,24.9719771 60.5134051,23.8575293 60.5134051,23.8575293 L61.093007,26.9335938 L62.8311688,20.7773438"/>
      <path fill="#EC6D54" d="M62.0202451,28.0807836 C64.9987607,28.6567824 67.470947,34.3075812 74.359109,33.0347406 C81.247271,31.7619 73.4690484,23.7629403 73.4690484,23.7629403 C73.4690484,23.7629403 76.7056324,22.4305983 77.2677437,23.5040783 C77.829242,24.5769449 81.4563004,35.5503643 81.4563004,35.5503643 C81.4563004,35.5503643 82.6504037,51.6507243 81.4563004,55.9244016 C80.26281,60.1980789 80.0678794,77.1578364 80.0678794,77.1578364 C80.0678794,77.1578364 60.3339113,79.4796203 58.0695284,74.7084617 C55.8045325,69.9366896 60.6606346,45.1337805 60.6606346,45.1337805 C60.6606346,45.1337805 68.9868698,45.2110711 67.2619176,37.9678413 C65.5363524,30.7246116 58.8376041,29.9627475 58.8376041,29.9627475 L62.0202451,28.0807836"/>
      <path stroke="#FFFFFF" stroke-width=".768" d="M60.0864323,45.4023096 C60.0864323,45.4023096 68.5480203,45.4805415 66.7950269,38.1490937 C65.0414106,30.8176459 58.2337662,30.0465028 58.2337662,30.0465028 L61.4681449,28.1416178 C64.4950797,28.7246318 67.0074543,34.4442538 74.0075916,33.1559108 C81.0083518,31.8675678 73.103062,23.7711858 73.103062,23.7711858 C73.103062,23.7711858 76.3922606,22.4226166 76.9635097,23.509171 C77.5341358,24.5951044 81.2207792,35.7021733 81.2207792,35.7021733"/>
      <path fill="#3D3635" d="M71.6286546,5.69428465 C70.5159518,3.85544093 67.2658015,1.24382971 63.5106601,0.820705831 C59.7549035,0.398194287 55.6485441,2.69690202 54.0203935,3.85789027 C52.392858,5.01887851 52.9692,8.64451743 52.9692,8.64451743 C52.9692,8.64451743 54.7849538,8.25017332 55.7334269,10.3945725 C56.3054632,11.6878252 57.9465307,15.6618831 57.9465307,15.6618831 C57.9465307,15.6618831 58.7160118,13.4176732 59.6866282,13.3931798 C60.6572446,13.3686864 61.3596806,15.2479442 60.6701616,17.3758104 C59.9806426,19.5036765 59.8139524,19.4295839 59.8139524,19.4295839 L67.3476088,23.2499455 C67.3476088,23.2499455 67.7898605,25.0716438 69.0883214,26.5669673 C70.3861672,28.0629031 69.5262675,31.2078586 71.6040509,32.5856136 C73.6818343,33.9633687 75.5277278,45.0827703 79.7792491,41.6800215 C84.0307704,38.2772728 80.8335181,32.2623004 80.8335181,32.2623004 C80.8335181,32.2623004 81.701414,27.7077485 79.215209,26.9674347 C76.7283889,26.227121 72.6872293,24.2498895 72.6546294,23.5444789 C72.6226445,22.8396807 69.6800407,20.3780917 71.4484324,18.0726482 C73.2168242,15.7678171 72.7413574,7.53251603 71.6286546,5.69428465"/>
      <path fill="#C64C39" d="M63.708465,77.7226562 L65.1298701,44.6328125 L60.6126163,45.7696609 C60.6126163,45.7696609 57.4044494,64.0305172 57.4767461,69.0896755 C57.5490428,74.149443 57.013918,75.560451 59.1983117,76.4115642 C61.3827054,77.2620681 63.708465,77.7226562 63.708465,77.7226562"/>
    </g>
  </g>
</svg>
