<svg xmlns="http://www.w3.org/2000/svg" width="335" height="214" viewBox="0 0 335 214">
  <g fill="none" fill-rule="evenodd">
    <g transform="translate(229.358)">
      <path fill="#1D1D1B" d="M77.1894391,0 L12.75495,0 C5.4978233,0 0,5.38431703 0,12.4916155 L0,173.805754 C0,180.913052 5.4978233,186.297369 12.75495,186.297369 L77.1894391,186.297369 C84.4465658,186.297369 89.9443891,180.913052 89.9443891,173.805754 L89.9443891,12.4916155 C89.9443891,5.38431703 84.4465658,0 77.1894391,0 L77.1894391,0 Z"/>
      <polygon fill="#FFF" points="6.746 18.065 83.199 18.065 83.199 162.587 6.746 162.587"/>
      <g transform="translate(12.367 22.581)">
        <rect width="66.334" height="25.969" fill="#D8D8D8"/>
        <rect width="52.842" height="4.516" x="6.746" y="5.645" fill="#777675"/>
        <rect width="33.729" height="4.516" x="6.746" y="13.549" fill="#777675"/>
      </g>
      <g transform="translate(12.367 51.937)">
        <rect width="66.334" height="67.744" fill="#EC6D54"/>
        <rect width="52.842" height="4.516" x="6.746" y="10.162" fill="#D8D8D8"/>
        <rect width="52.842" height="4.516" x="6.746" y="45.163" fill="#D8D8D8"/>
        <rect width="52.842" height="4.516" x="6.746" y="53.067" fill="#D8D8D8"/>
        <rect width="11.791" height="18.065" x="6.746" y="19.194" fill="#FFF"/>
        <rect width="11.791" height="18.065" x="34.113" y="19.194" fill="#FFF"/>
        <rect width="11.791" height="18.065" x="20.43" y="19.194" fill="#FFF"/>
        <rect width="11.791" height="18.065" x="47.797" y="19.194" fill="#FFF"/>
      </g>
      <g transform="translate(12.367 123.07)">
        <rect width="66.334" height="33.872" fill="#7BCAEC"/>
        <rect width="7.113" height="6.079" x="6.746" y="22.148" fill="#777675"/>
        <rect width="7.113" height="6.079" x="25.037" y="22.148" fill="#777675"/>
        <rect width="7.113" height="15.197" x="43.329" y="13.03" fill="#777675"/>
        <rect width="7.113" height="15.197" x="15.892" y="13.03" fill="#777675"/>
        <rect width="7.113" height="9.878" x="34.183" y="18.349" fill="#777675"/>
        <rect width="7.113" height="19.756" x="52.475" y="8.47" fill="#777675"/>
      </g>
    </g>
    <path fill="#2591BF" d="M145.960071,52.1928554 C144.720482,52.1928554 143.715596,51.1896643 143.715596,49.9521654 C143.715596,48.7146665 144.720482,47.7114754 145.960071,47.7114754 C147.199661,47.7114754 148.204547,48.7146665 148.204547,49.9521654 C148.204547,51.1896643 147.199661,52.1928554 145.960071,52.1928554 Z M157.182447,52.1928554 C155.942858,52.1928554 154.937972,51.1896643 154.937972,49.9521654 C154.937972,48.7146665 155.942858,47.7114754 157.182447,47.7114754 C158.422037,47.7114754 159.426923,48.7146665 159.426923,49.9521654 C159.426923,51.1896643 158.422037,52.1928554 157.182447,52.1928554 Z M168.404823,52.1928554 C167.165234,52.1928554 166.160348,51.1896643 166.160348,49.9521654 C166.160348,48.7146665 167.165234,47.7114754 168.404823,47.7114754 C169.644413,47.7114754 170.649298,48.7146665 170.649298,49.9521654 C170.649298,51.1896643 169.644413,52.1928554 168.404823,52.1928554 Z M179.627199,52.1928554 C178.38761,52.1928554 177.382724,51.1896643 177.382724,49.9521654 C177.382724,48.7146665 178.38761,47.7114754 179.627199,47.7114754 C180.866788,47.7114754 181.871674,48.7146665 181.871674,49.9521654 C181.871674,51.1896643 180.866788,52.1928554 179.627199,52.1928554 Z M190.849575,52.1928554 C189.609985,52.1928554 188.6051,51.1896643 188.6051,49.9521654 C188.6051,48.7146665 189.609985,47.7114754 190.849575,47.7114754 C192.089164,47.7114754 193.09405,48.7146665 193.09405,49.9521654 C193.09405,51.1896643 192.089164,52.1928554 190.849575,52.1928554 Z M202.071951,52.1928554 C200.832361,52.1928554 199.827476,51.1896643 199.827476,49.9521654 C199.827476,48.7146665 200.832361,47.7114754 202.071951,47.7114754 C203.31154,47.7114754 204.316426,48.7146665 204.316426,49.9521654 C204.316426,51.1896643 203.31154,52.1928554 202.071951,52.1928554 Z"/>
    <polygon fill="#DBD9DB" points="189.186 148.082 127.727 112.832 15.687 178.644 78.114 214" style="mix-blend-mode:multiply" transform="matrix(-1 0 0 1 204.873 0)"/>
    <g transform="translate(20 11)">
      <path fill="#2C2E33" d="M68.9565764,104.529444 L145.27134,148.41683 C145.27134,148.41683 160.466449,152.703726 161.127213,153.857909 C161.787976,155.012093 161.62254,162.814959 161.62254,164.298979 C161.62254,165.782999 161.457595,166.442672 159.64074,167.432182 C157.823395,168.421201 109.876795,195.747162 108.721195,196.571508 C107.564613,197.395855 106.243576,198.220201 104.757104,197.395855 C104.414449,197.206187 99.6865036,194.516523 92.58894,190.472226 C91.1908309,189.675815 88.8271036,184.609662 87.2606127,183.716211 C62.2325945,169.447959 3.34608545,135.145439 2.14924909,134.189746 C0.497830909,132.8704 0.167449091,131.88138 0.00201272727,129.90236 C-0.162932727,127.92383 9.31946727,121.665266 9.31946727,121.665266 L68.9565764,104.529444 Z"/>
      <path fill="#868C96" d="M66.4449873,101.898985 C66.4449873,101.898985 65.8342964,79.8847173 65.8342964,72.6621282 C65.8342964,65.4395391 77.8046236,40.4557619 77.8046236,40.4557619 L72.4939691,36.7084649 C72.4939691,36.7084649 60.4863327,62.9890441 60.2983145,71.1487025 C60.1112782,79.3083609 59.9738236,98.5055391 59.9738236,98.5055391 L60.1922782,99.4788757 L65.29626,102.4724 L66.4449873,101.898985 Z"/>
      <path fill="#5B5E67" d="M66.4449873,101.898985 C66.4449873,101.898985 66.3703691,80.4194153 66.3703691,73.1973163 C66.3703691,65.9747272 80.0200964,36.813346 80.0200964,36.813346 L79.0613509,35.8189351 C79.0613509,35.8189351 65.3733327,66.2776084 65.1862964,74.4372668 C64.9982782,82.5969252 65.1052964,102.4724 65.1052964,102.4724 L66.4449873,101.898985 Z"/>
      <path fill="#2C2E33" d="M8.95300364,116.025697 C11.7610036,111.079127 14.4035673,108.440434 22.8265855,103.988375 C31.2500945,99.5368054 46.0053491,92.822449 51.12504,92.9871223 C56.2452218,93.1522856 66.3142582,101.891241 67.9656764,102.550914 C69.6170945,103.210588 68.9563309,107.497484 68.9563309,107.497484 C68.9563309,107.497484 17.87184,138.61583 14.7334582,136.801974 C11.5955673,134.988117 6.64082182,130.865895 6.64082182,130.865895 L8.95300364,116.025697 Z"/>
      <path fill="#5B5E67" d="M7.27365273,92.9099317 C7.27365273,92.9099317 27.1805073,75.8956545 35.7773073,71.7170703 C42.5484164,68.4255653 62.8121618,61.1892535 62.8121618,61.1892535 L67.7202709,64.1906198 C67.7202709,64.1906198 68.3172164,66.2975554 66.6869073,66.6396446 C61.2810164,67.7756941 43.9730345,73.235397 39.0173073,75.9231 C30.7950709,80.3820208 7.72185273,100.515288 7.72185273,100.515288 L7.27365273,92.9099317 Z"/>
      <polygon fill="#1F1F1F" points="69.84 36.834 70.706 40.419 76.217 43.481 78.47 41.759"/>
      <path fill="#2C2E33" d="M103.793891,59.4724366 L59.6911091,33.5653129 C58.9223455,33.1207931 63.0832909,33.1609812 63.0832909,32.1807832 C63.0832909,31.2005851 65.8932545,30.2086248 67.3291636,31.0388525 C67.3291636,31.0388525 103.063418,52.0724317 105.046691,53.2192634 C107.030455,54.365605 108.086891,54.8797188 107.982327,57.5894762 C107.877764,60.2992337 106.074655,60.7212089 103.793891,59.4724366"/>
      <path fill="#1F1F1F" d="M46.94814,22.086802 L60.4108309,35.021495 C60.4108309,35.021495 103.737485,60.6477921 104.673649,60.7232673 C106.378085,60.8614752 108.066813,58.9745941 107.720231,59.098099 C106.984849,59.360302 104.46354,58.5212525 104.46354,58.5212525 C104.46354,58.5212525 62.1334309,33.927104 60.7240309,32.9890545 C59.31414,32.051005 46.94814,22.086802 46.94814,22.086802"/>
      <path fill="#2C2E33" d="M20.3810236,65.3519094 L24.6637145,67.5529441 C25.1133873,67.2833896 23.8866055,63.053345 24.0839509,62.5676569 L25.4025327,59.3251619 C25.6052782,58.8267312 25.9685509,58.4096569 26.4349145,58.1410827 L56.6086418,40.8102015 C57.10446,40.5244738 57.6847145,40.4235134 58.2482782,40.5244738 C58.2482782,40.5244738 62.3797691,40.4754639 64.9590055,40.8900876 C67.5382418,41.3047114 73.7791691,40.678855 73.7791691,40.678855 C75.2273509,39.7452163 66.0772964,36.1728847 64.6615145,35.1917064 L60.0999873,32.8970629 C59.3302418,32.363345 58.3209327,32.3216866 57.50946,32.7897312 L15.5686418,56.9026025 C14.4287509,57.5603153 14.0237509,59.0065975 14.6575145,60.1593104 L17.0133873,64.4427757 C17.6741509,65.6449886 19.2033327,66.0571619 20.3810236,65.3519094"/>
      <polygon fill="#1F1F1F" points="149.263 155.911 106.457 180.492 12.973 125.992 56.326 101.749"/>
      <path fill="#868C96" d="M9.37921091,137.179448 C9.37921091,137.179448 8.76852,110.946899 8.76852,103.724309 C8.76852,96.5012302 22.4187382,67.3403391 22.4187382,67.3403391 L17.1085745,63.592552 C17.1085745,63.592552 3.42055636,94.0512252 3.23302909,102.210884 C3.04550182,110.370542 2.90853818,133.786002 2.90853818,133.786002 L3.12650182,134.758849 L8.23097455,137.752864 L9.37921091,137.179448 Z"/>
      <path fill="#5B5E67" d="M9.37921091,137.179448 C9.37921091,137.179448 9.30459273,111.481597 9.30459273,104.259007 C9.30459273,97.0364183 22.95432,67.8750371 22.95432,67.8750371 L21.9955745,66.8811163 C21.9955745,66.8811163 8.30755636,97.3392995 8.12052,105.498958 C7.93299273,113.658616 8.03952,137.752864 8.03952,137.752864 L9.37921091,137.179448 Z"/>
      <path fill="#2C2E33" d="M12.6410564,66.9526708 L6.07318364,50.1368837 C4.77276545,48.4837797 6.20769273,45.050146 7.61120182,44.233151 L47.7474382,21.5846955 C51.0591109,19.8134777 54.2107473,20.8044579 54.9618382,21.7028094 L67.32882,30.9348045 C68.7666927,32.6540718 67.9370564,36.6243639 67.01562,37.7094431 L61.9749655,37.7638441 C56.9367655,36.7463985 54.4719109,37.9907599 53.9775655,38.2808985 L23.76702,55.7681213 C23.4091473,55.9778837 23.1111655,56.2773342 22.9035109,56.6370668 L20.38122,65.3520074 C19.6154018,66.676745 13.7755473,67.9799183 12.6410564,66.9526708"/>
      <path fill="#1D1D1B" d="M21.9836945,53.5778198 L14.3795127,54.3859931 C13.78404,54.2673891 11.4924764,52.9019733 11.1861491,52.3785475 L11.4394582,42.0913693 C11.4394582,42.0913693 13.4124218,35.2662505 14.4310582,34.6786218 L35.3992582,22.7736267 C36.3732218,22.2124634 45.9160036,23.3186168 45.9160036,23.3186168 L55.1352764,26.8282158 C55.4803855,27.3521317 55.5756218,28.002003 55.3949673,28.6028644 L51.5806036,36.5017901 C51.4186036,37.0404089 51.0484582,37.4922802 50.5521491,37.758404 L23.4029127,53.3665871 C22.9684582,53.5988941 22.4667491,53.6738792 21.9836945,53.5778198"/>
      <path fill="#2C2E33" d="M52.8011509,90.6226396 L12.64086,66.9528178 C11.8720964,66.508298 16.0335327,66.5484861 16.0335327,65.5682881 C16.0335327,64.5880901 18.8425145,63.5961297 20.2784236,64.4263574 C20.2784236,64.4263574 52.0706782,83.2226347 54.0539509,84.3694663 C56.0377145,85.5158079 57.1442236,85.7348822 57.03966,88.4446396 C56.9350964,91.154397 55.5752782,92.4036594 52.8011509,90.6226396"/>
      <polygon fill="#1F1F1F" points="12.774 67.896 13.64 71.481 19.151 74.543 21.404 72.821"/>
      <path fill="#1F1F1F" d="M7.07856545,51.4460851 L13.1795836,68.6995307 C13.1795836,68.6995307 52.5637473,92.0890158 53.5004018,92.1644911 C55.2043473,92.3022089 56.8935655,90.4153277 56.5469836,90.5393228 C55.8116018,90.8010356 53.2902927,89.9619861 53.2902927,89.9619861 C53.2902927,89.9619861 14.9026745,67.6051396 13.4927836,66.6670901 C12.0833836,65.7290406 7.07856545,51.4460851 7.07856545,51.4460851"/>
      <path fill="#5B5E67" d="M14.8395927,34.4792985 C17.04132,33.0139025 32.6154109,24.4165856 34.8171382,22.9511896 C37.0193564,21.4853035 45.4600473,28.8676649 45.4600473,28.8676649 L45.4600473,35.2247391 L24.13152,46.8337144 L18.6755564,44.124447 C18.6755564,44.124447 12.6378655,35.9446946 14.8395927,34.4792985"/>
      <path fill="#B8BEC6" d="M19.6379836,129.590559 C19.6379836,129.590559 12.3200018,119.072544 12.0077836,115.178217 C11.5595836,109.586188 46.2555655,91.510846 51.1847836,94.1951183 C56.1140018,96.8793906 61.9445291,104.708232 61.9445291,104.708232 C61.9445291,104.708232 55.5975655,101.671089 52.6845109,103.684415 C49.7719473,105.697742 23.7915655,119.838569 21.6423655,121.218198 C18.5054564,123.231034 19.6379836,129.590559 19.6379836,129.590559"/>
      <path fill="#2C2E33" d="M19.6379836 129.590559L14.40342 132.679653C14.40342 132.679653 9.61214727 120.596752 12.0077836 115.178217 12.0077836 115.178217 13.57722 119.323475 15.3940745 122.456188 17.21142 125.589391 19.6379836 129.590559 19.6379836 129.590559M62.1850255 105.35384L65.98368 103.045473C65.98368 103.045473 56.19888 95.4028693 51.1847345 94.1947752 51.1847345 94.1947752 55.4134255 98.7580871 57.2297891 100.571944 59.0466436 102.3858 62.1850255 105.35384 62.1850255 105.35384"/>
      <polygon fill="#B8BEC6" points="70.113 109.546 73.086 107.897 143.62 148.981 145.767 153.763"/>
      <polygon fill="#B8BEC6" points="24.148 136.142 27.121 134.303 101.784 177.886 93.691 176.896"/>
      <path fill="#868C96" d="M13.1971582,132.2813 C13.1971582,134.220132 14.55354,136.593192 16.2265582,137.581721 C17.8995764,138.570251 19.2559582,137.799815 19.2559582,135.860984 C19.2559582,133.922152 17.8995764,131.549093 16.2265582,130.560563 C14.55354,129.572033 13.1971582,130.342469 13.1971582,132.2813"/>
      <path stroke="#5B5E67" stroke-width="1.008" d="M13.1971582,132.2813 C13.1971582,134.220132 14.55354,136.593192 16.2265582,137.581721 C17.8995764,138.570251 19.2559582,137.799815 19.2559582,135.860984 C19.2559582,133.922152 17.8995764,131.549093 16.2265582,130.560563 C14.55354,129.572033 13.1971582,130.342469 13.1971582,132.2813 Z"/>
      <path fill="#5B5E67" d="M29.7323018 146.316119L24.4074109 143.356411 22.6730291 137.585495C22.6730291 137.585495 26.12952 141.110287 28.2890291 142.284564 30.4475564 143.459332 34.0223564 143.967564 34.0223564 143.967564L29.7323018 146.316119zM41.2935545 152.994208L35.9686636 150.0345 34.2342818 144.263584C34.2342818 144.263584 37.6907727 147.788376 39.8502818 148.962653 42.0093 150.137421 45.5836091 150.645653 45.5836091 150.645653L41.2935545 152.994208zM53.1027164 159.837166L47.7778255 156.877458 46.0434436 151.106543C46.0434436 151.106543 49.4999345 154.631335 51.6594436 155.805612 53.8184618 156.980379 57.3927709 157.488612 57.3927709 157.488612L53.1027164 159.837166zM92.7378818 178.068212L106.025318 178.906772 112.411064 182.765811C112.411064 182.765811 107.369918 186.288643 106.025318 185.785801 104.681209 185.28247 92.7378818 178.068212 92.7378818 178.068212M146.887904 155.239646L145.27134 148.416977C145.27134 148.416977 157.810631 154.065368 158.314795 154.736314 158.818958 155.407259 152.601595 159.265809 152.09694 159.433913 151.593267 159.601527 146.887904 155.239646 146.887904 155.239646"/>
      <path fill="#1D1D1B" d="M113.928955,182.59805 L119.642645,182.765664 C119.642645,182.765664 148.909664,166.31255 149.581718,165.641115 C150.253773,164.970169 151.766264,162.117793 151.766264,162.117793 L151.934155,166.647778 L149.7501,169.667768 L119.474264,185.953268 L113.928955,185.449937 L113.928955,182.59805 Z"/>
      <path fill="#2C2E33" d="M20.5243691,40.5093297 L23.7638782,44.1213594 C24.4167873,44.8486663 25.5012055,44.9976564 26.3254418,44.4722703 L41.9255509,35.1569584 C42.6692782,34.6835228 43.0143873,33.7783099 42.77286,32.9309287 L41.5284055,28.556795 C41.1729873,27.3070426 39.7336418,26.724805 38.6070055,27.3756564 L21.0118418,37.4535624 C19.9151509,38.0867703 19.6790236,39.5668693 20.5243691,40.5093297"/>
      <path fill="#EED2B7" d="M89.0781055,26.2258351 C89.0781055,26.2258351 93.8983418,46.1767856 94.1987782,47.7245183 C94.4992145,49.272251 89.6549236,54.7353847 89.6549236,54.7353847 L89.0781055,26.2258351 Z"/>
      <path fill="#EC6D54" d="M41.0055382,125.116151 C39.4626109,124.955889 37.1484655,126.49676 38.3453018,129.186423 C39.7061018,132.247092 42.7924473,134.31825 46.2793745,135.891468 C48.4865018,136.886859 55.7421382,140.819413 58.1250109,138.092012 C59.6468291,136.3502 57.64932,134.108488 58.3788109,131.945681 C58.6787564,131.055661 57.3135382,130.026453 56.2654473,130.025473 C56.2654473,130.025473 56.1780655,126.621245 50.5547018,127.468626 C44.9313382,128.316007 42.5479745,125.276903 41.0055382,125.116151 Z"/>
      <path fill="#ECECEC" d="M38.1673964,126.925049 C38.1673964,126.925049 38.0147236,129.247147 39.5036509,130.887018 C40.9969964,132.53277 43.0676509,133.799186 45.1972145,134.394656 C47.1593782,134.943567 51.7174691,137.821429 53.3944145,138.408077 C54.6241418,138.838874 58.1076327,138.193414 58.7664327,136.901023 C58.7664327,136.901023 60.48756,140.343968 53.7449236,139.729384 C51.9589964,139.566181 47.0420509,137.08383 43.5178145,135.10677 C39.9940691,133.128731 36.2135782,130.058189 38.1673964,126.777466 L38.1673964,126.925049 Z"/>
      <path fill="#EED2B7" d="M52.0341797,123.743408 C52.0150342,123.714492 50.4525927,128.722152 50.4525927,128.722152 C50.4525927,128.722152 50.0014473,131.047672 51.44472,131.849964 C52.8889745,132.651766 54.3690655,133.045806 55.2649745,132.353786 C56.1603927,131.661276 56.7426109,131.471118 56.7426109,131.471118 L57.9075382,126.934271 C57.9335564,126.8784 58.4927363,125.149821 59.439209,123.376152 C57.2978635,122.509657 52.1608342,123.247918 52.0341797,123.743408 Z"/>
      <path fill="#EC6D54" d="M100.386736,132.999001 C96.3922091,137.040358 94.9273364,136.937927 93.4379182,137.369704 C91.9485,137.800992 87.3059727,138.441061 88.7546455,141.004279 C90.2190273,143.595432 99.2134636,144.47516 102.733282,142.976437 C104.961027,142.028096 111.769445,140.403417 112.040918,136.794818 C112.2147,134.489883 108.684082,133.213175 107.970791,131.044977 C107.677227,130.152997 105.383209,129.805026 104.543755,130.430883 C104.543755,130.430883 104.381264,128.957155 100.386736,132.999001"/>
      <path fill="#ECECEC" d="M88.4812582,139.737618 C88.4812582,139.737618 89.0742764,141.709286 91.5052582,142.51844 C94.1316218,143.392286 96.0810218,144.00785 100.897331,142.759568 C103.037695,142.204286 106.754367,140.165964 107.997349,139.774865 C109.240822,139.384256 112.238313,137.393964 111.990404,135.965326 C111.990404,135.965326 115.534767,137.5209 111.204458,140.276237 C109.691967,141.238791 104.128985,143.223202 100.285658,144.475405 C96.4428218,145.727118 87.4140218,143.701049 88.4812582,139.737618"/>
      <path fill="#EED2B7" d="M95.5390091 128.829533C96.2164636 129.636236 96.7353545 130.262583 97.0627909 130.655642 97.0284273 130.654172 100.490318 135.047909 100.490318 135.047909 100.490318 135.047909 102.013118 136.495662 103.610536 136.077117 104.199627 135.923226 104.166736 134.146127 104.129427 133.015959 104.092118 131.885791 105.946773 130.927157 105.946773 130.927157L103.406809 127.968919C103.376864 127.915008 102.002809 128.000286 101.1177 126.195251 99.1594636 127.420499 97.7746091 127.449904 95.5390091 128.829533M88.1293745 23.0311248C86.9958655 20.3439119 82.7779745 20.5909218 82.7779745 20.5909218L78.9557564 20.507605 74.9847927 10.5943723 71.4065564 6.12270891 63.5834291 3.76778317C63.5834291 3.76778317 63.3075382 4.50734257 62.3605745 6.68436238 61.4136109 8.86040198 61.7999564 15.3110851 63.2142655 18.0012386 64.6285745 20.6913921 66.1459745 23.5354366 69.2794473 20.8879218 69.5396291 20.6683574 71.1900655 23.4006594 71.1900655 23.4006594L68.7757745 24.5254366C68.7757745 24.5254366 61.5338836 27.7390158 61.5338836 31.9161297 61.5338836 36.0937337 67.7512473 42.3934663 67.7512473 42.3934663L75.3843927 49.1847683 84.2084836 52.0361644C84.2084836 52.0361644 92.4150109 33.1928376 88.1293745 23.0311248"/>
      <path fill="#B7A587" d="M69.4897036,18.6532663 C69.4897036,18.6532663 68.1416673,21.368905 66.9467945,21.4806475 C66.0651218,21.5629842 65.2187945,21.0586723 65.2187945,21.0586723 C65.2187945,21.0586723 66.2251582,22.2770584 67.6831582,22.0030931 C69.14214,21.7291277 69.2791036,20.8881178 69.2791036,20.8881178 L71.1902127,23.4008554 L69.4897036,18.6532663 Z"/>
      <path fill="#EC6D54" d="M68.7758727,24.5255837 C69.9790909,24.9348163 70.9785818,25.0994896 71.8303091,25.7856282 C75.9878182,29.1364351 76.6068545,35.2616926 80.1551455,34.0580094 C86.7559091,31.8177668 80.3691818,20.3352371 80.3691818,20.3352371 C80.3691818,20.3352371 83.7039273,19.9206134 84.2709273,20.9821678 C84.8384182,22.0432322 89.4804545,32.2549351 89.4804545,32.2549351 C89.4804545,32.2549351 90.5206909,44.5789649 90.2369455,51.2972421 C90.0901636,54.7681233 91.6556727,64.7911381 91.6556727,64.7911381 C91.6556727,64.7911381 86.8275818,69.0407866 82.5463636,70.9257074 C77.0324727,73.3531678 70.7851636,73.2512272 71.0625273,69.7533906 C71.6521091,62.3244698 67.6413818,51.7662668 65.9806364,46.9123262 C64.1009455,41.4207668 64.989,40.8993015 64.989,40.8993015 C64.989,40.8993015 73.2024,43.3561678 72.1135636,36.0424203 C71.4621273,31.6663262 70.1931273,28.7786629 68.6428364,27.5882124 C66.6296182,26.04195 64.9138909,26.9354005 64.9138909,26.9354005 C64.9138909,26.9354005 67.9555636,24.2462272 68.7758727,24.5255837"/>
      <path fill="#E85740" d="M71.0626255,69.7534886 C71.0626255,69.7534886 70.0032436,60.7248847 68.4853527,54.9833748 C67.7450618,52.1834391 66.1000255,49.5070084 65.4039164,47.6867807 C64.7078073,45.866553 64.9193891,41.258152 64.9193891,41.258152 C64.9193891,41.258152 69.7759527,42.1418005 71.2653709,40.0828946 C72.7547891,38.0249688 76.4763709,54.1467757 76.5647345,56.7839985 C76.6285527,58.7037163 79.5460255,69.1991866 78.0590618,71.2879886 C76.8852982,72.9366817 71.0626255,69.7534886 71.0626255,69.7534886"/>
      <path fill="#06394F" d="M51.7642036,123.971182 C52.2855491,124.850419 53.3758582,126.717697 55.1632582,127.137711 C56.3517491,127.417068 58.40964,126.204563 58.40964,126.204563 C58.5083127,125.99333 66.89844,111.53933 65.6053855,104.60982 C68.4168218,100.678246 75.5418764,92.5617163 75.5418764,92.5617163 C75.8511491,94.7941173 77.04504,110.426315 78.6341127,112.338192 C80.2231855,114.249578 97.4644036,131.269246 97.45164,131.268756 C97.45164,131.268756 99.57924,131.671127 100.513931,131.099182 C102.03084,130.170444 103.900713,129.269152 103.831495,128.126731 C101.81484,124.898939 91.0104218,109.745568 89.82684,107.591093 C88.6427673,105.436617 90.0197673,84.9377361 90.0197673,84.9377361 C90.0197673,84.9377361 97.0549855,76.0747856 91.6255309,63.9781619 C91.3201855,64.8613203 83.5932764,69.9166916 78.5810945,70.5415678 C73.5689127,71.1674243 71.1246764,69.5074589 71.1246764,69.5074589 C71.1246764,69.5074589 70.5080945,70.6145926 70.4207127,70.7567213 C65.1036764,78.2768005 56.6659309,96.020345 56.2736945,98.3272411 C54.7410764,107.32889 52.7494582,120.361112 52.1839309,122.570969 C52.17804,122.561657 51.9988582,123.165949 51.7642036,123.971182"/>
      <path fill="#AF8C63" d="M77.2339418,3.74401337 C76.0685236,2.22960743 73.6611055,0.489265842 70.3077055,0.489755941 C66.9543055,0.490736139 63.5640873,2.93240941 62.2450145,4.1213896 C60.9259418,5.3098797 61.7982873,8.45778564 61.7982873,8.45778564 C61.7982873,8.45778564 63.3588873,7.92896881 64.4104145,9.72959257 C65.0441782,10.8161421 66.8895055,14.1659688 66.8895055,14.1659688 C66.8895055,14.1659688 67.3431055,12.1051025 68.1963055,11.9864985 C69.0495055,11.8683847 69.8580327,13.4597361 69.4628509,15.4098401 C69.06816,17.3599441 72.5815964,16.3616124 72.5815964,16.3616124 L75.7690691,17.5947015 C75.7690691,17.5947015 76.0184509,21.2121223 77.2496509,22.4702064 C78.4808509,23.7282906 77.8902873,26.5684144 79.8048327,27.6794688 C81.72036,28.7905233 83.9593964,38.5665282 87.5395964,35.3142312 C91.1202873,32.0619342 87.9622691,26.8928599 87.9622691,26.8928599 C87.9622691,26.8928599 88.4826327,22.8010233 86.2406509,22.2780876 C83.9981782,21.755152 80.3114509,20.2172213 80.2446873,19.5928351 C80.1779236,18.968449 76.9875055,16.9208153 78.3159055,14.706548 C79.6438145,12.4922807 78.39936,5.25841931 77.2339418,3.74401337"/>
      <path fill="#EED2B7" d="M60.1902164,51.1110535 C62.0998527,49.1516376 68.8370891,38.1116673 68.8370891,38.1116673 C68.7084709,32.7396921 69.4615255,26.9496624 65.7684164,27.2486228 C62.0757982,27.5470931 60.0296891,32.1329495 58.24818,37.6068653 C56.7366709,42.2515337 52.9821982,46.2443703 52.9821982,46.2443703 L40.7222345,46.0311772 L40.1429618,45.3548406 C40.0781618,44.9794248 39.9735982,44.5912663 39.8047255,44.2839743 C39.3167618,43.3998356 39.2549073,42.8543554 38.7806891,42.5764693 C38.5283618,42.4284594 37.7831618,42.337301 37.13958,42.2833901 C35.94078,41.5899 32.9830527,37.8141772 31.6438527,39.3996475 C31.8613255,40.5391277 32.6428527,41.4379693 32.5024527,42.352004 C32.1627436,44.5589198 30.4234527,46.2693653 31.1809255,47.4215881 C32.2520891,49.0511673 34.1229436,49.7868059 35.5937073,50.019603 C37.06398,50.2524 37.9161982,50.1558505 37.9161982,50.1558505 C37.9161982,50.1558505 49.8300709,53.8590386 51.6400527,53.6541772 C55.1235436,54.1741723 57.6851073,54.2290634 60.1902164,51.1110535"/>
    </g>
  </g>
</svg>
