<svg xmlns="http://www.w3.org/2000/svg" width="290" height="195" viewBox="0 0 290 195">
  <g fill="none" fill-rule="evenodd" transform="translate(0 6)">
    <g transform="translate(0 2.061)">
      <path fill="#2C2E33" d="M52.6180899,107.767786 L113.71256,142.728283 C113.71256,142.728283 127.496271,146.627915 128.095547,147.677991 C128.695173,148.727717 128.545179,155.825418 128.545179,157.175116 C128.545179,158.525163 128.395186,159.124757 126.747349,160.025022 C125.099164,160.924937 91.5393259,180.123126 90.4904175,180.87323 C89.4418579,181.622985 88.2433047,182.373088 86.8951067,181.622985 C86.5846549,181.450475 82.2951879,179.004256 75.8569759,175.325325 C74.5886583,174.600713 72.444448,169.992533 71.0236951,169.179921 C48.3206,156.201168 3.03475344,129.959057 1.94956747,129.089872 C0.451375971,127.889985 0.151737672,126.989721 0.0020929334,125.19024 C-0.147900627,123.390061 8.45370684,117.697233 8.45370684,117.697233 L52.6180899,107.767786 Z"/>
      <path fill="#868C96" d="M50.3398272,105.375171 C50.3398272,105.375171 49.7858975,76.7015077 49.7858975,70.1318131 C49.7858975,63.5621185 62.1680404,37.0360991 62.1680404,37.0360991 L57.3511541,33.6271075 C57.3511541,33.6271075 44.9348267,61.3331087 44.7646015,68.7552258 C44.5940274,76.177343 44.4701955,102.2885 44.4701955,102.2885 L44.6676289,103.1734 L49.298244,105.896542 L50.3398272,105.375171 Z"/>
      <path fill="#5B5E67" d="M50.3398272,105.375171 C50.3398272,105.375171 50.2718069,77.1879578 50.2718069,70.6182631 C50.2718069,64.0485685 62.6542986,37.5228983 62.6542986,37.5228983 L61.7843359,36.6184435 C61.7843359,36.6184435 49.3680085,64.3240955 49.1977832,71.7465618 C49.027558,79.168679 49.1245306,105.896542 49.1245306,105.896542 L50.3398272,105.375171 Z"/>
      <path fill="#2C2E33" d="M8.12145366,112.567403 C10.6685536,108.067827 13.06566,105.668054 20.7062622,101.618261 C28.3468644,97.5688176 31.7988093,97.1186854 36.4430285,97.2688459 C41.0875965,97.4186571 50.2208091,105.368082 51.7190006,105.968025 C53.2171921,106.567969 52.6182643,110.467601 52.6182643,110.467601 C52.6182643,110.467601 16.2116877,133.115639 13.3649495,131.465969 C10.5185601,129.81595 6.02363675,126.066479 6.02363675,126.066479 L8.12145366,112.567403 Z"/>
      <path fill="#5B5E67" d="M6.5980772,82.8918551 C6.5980772,82.8918551 18.1831612,70.2766306 24.0772105,66.8173527 C29.9716086,63.3584241 47.0440152,59.6959057 47.0440152,59.6959057 L51.4967311,62.4256832 C51.4967311,62.4256832 52.0381032,64.3424989 50.5594457,64.6536453 C45.6557027,65.6866096 34.3440953,67.0083708 29.9716086,69.6662109 C24.2802251,73.1251396 7.00445511,89.8100617 7.00445511,89.8100617 L6.5980772,82.8918551 Z"/>
      <polygon fill="#1F1F1F" points="53.419 37.542 54.205 40.802 59.204 43.588 61.248 42.021"/>
      <path fill="#2C2E33" d="M82.4321704,53.6006134 L47.4547185,33.2063788 C46.706146,32.7723103 50.756321,32.8117711 50.756321,31.8549347 C50.756321,30.8980983 53.4914361,29.9297379 54.8891668,30.7402552 C54.8891668,30.7402552 81.7209219,46.377197 83.6516529,47.4964162 C85.582384,48.6156354 86.6110608,49.1174507 86.5095535,51.76237 C86.4080462,54.4076386 84.6527728,54.8193576 82.4321704,53.6006134"/>
      <path fill="#1F1F1F" d="M37.6367679,20.4353716 L48.1548048,34.6276301 C48.1548048,34.6276301 82.3770565,54.7477345 83.288529,54.8217671 C84.9475275,54.9562131 86.5915267,53.1144777 86.2542156,53.2349552 C85.5380836,53.4909264 83.0841192,52.6720281 83.0841192,52.6720281 C83.0841192,52.6720281 49.8315932,33.5593956 48.4596754,32.643766 C47.0877575,31.7281364 37.6367679,20.4353716 37.6367679,20.4353716"/>
      <path fill="#2C2E33" d="M19.1219465,58.5763722 L23.2903722,60.7247144 C23.7284929,60.461759 22.5341256,56.3326956 22.7263267,55.8588172 L24.0099925,52.6932252 C24.207077,52.2067752 24.5611316,51.7999451 25.0152982,51.5376881 L44.453766,40.2780983 C44.9361871,39.9994284 45.501628,39.9006018 46.0496277,39.9994284 C46.0496277,39.9994284 50.0715481,39.9515866 52.5820217,40.3563214 C55.0924953,40.7610562 61.168281,40.1495888 61.168281,40.1495888 C62.5778716,39.2388482 53.6706959,35.7516335 52.292848,34.7940987 L47.8526898,32.5542634 C47.1030708,32.0332415 46.1204386,31.9923839 45.3307051,32.449151 L14.4376127,50.329071 C13.3276604,50.9705705 12.9334913,52.3827772 13.550209,53.5075838 L15.8437152,57.6890287 C16.4869434,58.8620263 17.9757167,59.2650151 19.1219465,58.5763722"/>
      <polygon fill="#1F1F1F" points="117.334 149.545 88.437 166.247 11.768 121.633 41.161 105.239"/>
      <path fill="#868C96" d="M8.50808823,131.809278 C8.50808823,131.809278 7.95415852,99.2984915 7.95415852,92.7287968 C7.95415852,86.1591022 20.3363014,59.6330828 20.3363014,59.6330828 L15.5194151,56.2244404 C15.5194151,56.2244404 3.10308771,83.9300925 2.93286246,91.3522096 C2.76263721,98.7743267 2.6384565,128.722608 2.6384565,128.722608 L2.83588988,129.607507 L7.46650504,132.330998 L8.50808823,131.809278 Z"/>
      <path fill="#5B5E67" d="M8.50808823,131.809278 C8.50808823,131.809278 8.44041672,99.7849415 8.44041672,93.2152469 C8.44041672,86.6455523 20.8225596,60.1195328 20.8225596,60.1195328 L19.9525969,59.2154272 C19.9525969,59.2154272 7.53626948,86.9210792 7.36604423,94.3431964 C7.19581898,101.765663 7.29279157,132.330998 7.29279157,132.330998 L8.50808823,131.809278 Z"/>
      <path fill="#2C2E33" d="M11.5875258,60.1387743 L0.615671243,46.3739493 C-0.650902289,44.7602482 0.746130759,41.4085271 2.11211863,40.6112799 L38.4143973,19.9453596 C41.6382124,18.2164191 44.706104,19.1837318 45.4375842,20.060599 L54.8892715,30.638181 C56.2887463,32.3168352 55.4812228,36.1923719 54.5844008,37.2511777 L49.6778673,37.3046069 C44.7734267,36.3111034 42.3738785,37.5263555 41.8925038,37.8092159 L22.4184562,49.2210614 C22.0692851,49.4263971 21.7797626,49.7186862 21.5774458,50.0696426 L19.122086,58.5764072 C18.3766529,59.8691839 12.691897,61.1417065 11.5875258,60.1387743"/>
      <path fill="#1D1D1B" d="M20.6817749,47.0833003 L13.2794183,47.8721666 C12.7000245,47.7565779 10.4693064,46.423642 10.1710633,45.9127472 L5.83904002,38.520313 L2.11222327,40.6110354 C1.53457365,39.621024 4.41305473,34.2362002 5.40475634,33.6627968 L30.3326397,19.0266919 C31.2807385,18.4787808 39.0545908,18.5950679 39.6559603,19.5103482 L36.6320204,21.6377378 L43.0196531,26.6300492 C43.3559178,27.1416424 43.4483557,27.7758084 43.2722004,28.3621326 L39.5596854,36.0726975 C39.4016689,36.5982591 39.0416844,37.039661 38.5585656,37.2991243 L22.0634598,46.876917 C21.6406872,47.104253 21.1523361,47.1772379 20.6817749,47.0833003"/>
      <path fill="#2C2E33" d="M46.565466,80.5331486 L11.5876653,60.138914 C10.8390928,59.7048455 14.8896166,59.7443063 14.8896166,58.7874699 C14.8896166,57.8306335 17.6243829,56.8622732 19.0224624,57.6727904 C19.0224624,57.6727904 45.8542175,73.3097322 47.7849485,74.4289514 C49.7156796,75.5481706 50.7924939,75.7622366 50.6909866,78.4075051 C50.5894793,81.0524244 49.2656989,82.2715178 46.565466,80.5331486"/>
      <polygon fill="#1F1F1F" points="11.588 60.139 12.373 63.4 17.372 66.185 19.416 64.618"/>
      <path fill="#1F1F1F" d="M1.59397808,47.6517799 L12.1120149,61.8440384 C12.1120149,61.8440384 46.3342666,81.9641429 47.2457391,82.0381755 C48.9047377,82.1726214 50.5487369,80.330886 50.2114258,80.4513636 C49.4952937,80.7073347 47.0413293,79.8884364 47.0413293,79.8884364 C47.0413293,79.8884364 13.7888034,60.7758039 12.4165367,59.8601743 C11.0449677,58.9445447 1.59397808,47.6517799 1.59397808,47.6517799"/>
      <path fill="#5B5E67" d="M11.7053928,28.3983108 C14.1443579,26.7706413 21.4612531,22.8786918 23.9002181,21.2510222 C26.3391832,19.6233527 35.6886655,27.8231613 35.6886655,27.8231613 L35.6886655,34.8838457 L21.9973928,42.1201829 L15.9547453,39.1113864 C15.9547453,39.1113864 9.26642777,30.0263295 11.7053928,28.3983108"/>
      <path fill="#B8BEC6" d="M17.8135143,124.906402 C17.8135143,124.906402 11.175776,115.338736 10.8925324,111.796346 C10.4858056,106.709748 32.0252298,95.9257828 36.4971308,98.3674617 C40.9683342,100.809141 46.2575258,107.930588 46.2575258,107.930588 C46.2575258,107.930588 40.499866,105.167984 37.8575375,106.999244 C35.2155579,108.830503 21.5814921,116.03576 19.6322734,117.290124 C16.7865817,119.121732 17.8135143,124.906402 17.8135143,124.906402"/>
      <path fill="#2C2E33" d="M17.8135143 124.906402L13.0656949 127.716149C13.0656949 127.716149 8.71971868 116.725101 10.8925324 111.796346 10.8925324 111.796346 12.3164247 115.56712 13.964261 118.417026 15.6120972 121.266931 17.8135143 124.906402 17.8135143 124.906402M46.4755396 108.517715L49.9215545 106.417913C49.9215545 106.417913 41.0450751 99.4661823 36.4971308 98.3675665 36.4971308 98.3675665 40.3331289 102.518281 41.9806163 104.167951 43.6288014 105.81797 46.4755396 108.517715 46.4755396 108.517715"/>
      <polygon fill="#B8BEC6" points="53.667 112.331 56.363 110.831 112.215 143.242 114.162 147.591"/>
      <polygon fill="#B8BEC6" points="21.905 130.866 24.601 129.193 84.198 163.876 76.857 162.977"/>
      <path fill="#868C96" d="M11.9714395,127.353948 C11.9714395,129.11746 13.2013867,131.276278 14.7191123,132.175146 C16.2371866,133.074363 17.4671338,132.373497 17.4671338,130.609985 C17.4671338,128.846123 16.2371866,126.687654 14.7191123,125.788787 C13.2013867,124.88957 11.9714395,125.590435 11.9714395,127.353948"/>
      <path stroke="#5B5E67" stroke-width="1.241" d="M11.9714395,127.353948 C11.9714395,129.11746 13.2013867,131.276278 14.7191123,132.175146 C16.2371866,133.074363 17.4671338,132.373497 17.4671338,130.609985 C17.4671338,128.846123 16.2371866,126.687654 14.7191123,125.788787 C13.2013867,124.88957 11.9714395,125.590435 11.9714395,127.353948 Z"/>
      <path fill="#5B5E67" d="M26.9704468 140.12038L22.1399565 137.428317 20.567117 132.178638C20.567117 132.178638 23.7023313 135.385088 25.6609681 136.453322 27.6192561 137.521557 30.8622565 137.983562 30.8622565 137.983562L26.9704468 140.12038zM37.4579268 146.194929L32.6274365 143.502867 31.054597 138.253187C31.054597 138.253187 34.1898113 141.459288 36.1484481 142.527871 38.1067361 143.596106 41.3497364 144.058111 41.3497364 144.058111L37.4579268 146.194929zM48.1699088 152.419325L43.3397673 149.727262 41.7669278 144.477583C41.7669278 144.477583 44.9021421 147.684032 46.8604301 148.752267 48.8190669 149.820501 52.0617184 150.282507 52.0617184 150.282507L48.1699088 152.419325zM75.9922143 164.042338L88.0457666 164.805362 93.8379598 168.315276C93.8379598 168.315276 89.2652492 171.519979 88.0457666 171.062165 86.8262841 170.60435 75.9922143 164.042338 75.9922143 164.042338M115.179183 148.934555L113.712734 142.728388C113.712734 142.728388 125.08713 147.86632 125.544785 148.47674 126.001742 149.087159 120.361635 152.597073 119.904678 152.749678 119.447023 152.902283 115.179183 148.934555 115.179183 148.934555"/>
      <path fill="#1D1D1B" d="M95.2149356,168.162601 L100.397388,168.315206 C100.397388,168.315206 117.012837,159.006305 117.622578,158.395886 C118.23232,157.785466 119.604586,155.191182 119.604586,155.191182 L119.756673,159.311515 L117.775362,162.058404 L100.245301,171.2147 L95.2149356,170.756885 L95.2149356,168.162601 Z"/>
      <path fill="#2C2E33" d="M18.0022271,35.0958863 L21.5902126,39.1076149 C22.3129723,39.9156877 23.5143161,40.080515 24.4278815,39.4973337 L31.7733801,34.8084861 C32.5979959,34.2822261 32.9796074,33.2771987 32.7124096,32.3357275 L31.3342129,27.4778621 C30.9403926,26.0890525 29.346275,25.4426641 28.0978402,26.1658788 L18.542204,31.7012123 C17.3272561,32.4052204 17.0656394,34.0489536 18.0022271,35.0958863"/>
      <path fill="#EC6D54" d="M79.5414108,127.427771 C76.2216696,131.189465 72.5845002,131.809662 71.6444242,132.802467 C70.7043483,133.795272 70.6195845,136.461144 73.2612153,136.631908 C75.9028461,136.802672 78.9529477,136.891721 81.9496795,135.337036 C83.8469236,134.353311 89.8878271,132.695609 90.4201298,131.04559 C91.0619627,129.052996 88.2372003,128.163557 87.4673496,126.215661 C87.150619,125.414573 85.6224288,125.449494 84.9111803,126.037564 C84.9111803,126.037564 82.861152,123.665727 79.5414108,127.427771"/>
      <path fill="#ECECEC" d="M71.0000449,135.138196 C71.0000449,135.138196 73.1679751,136.968407 75.03243,136.354845 C76.896536,135.741631 79.0103987,136.238907 80.577657,135.081624 C82.1445665,133.924341 85.9892851,133.424271 87.0755176,133.039442 C88.1620988,132.654612 90.1967789,130.342839 89.8877224,129.053904 C89.8877224,129.053904 91.8243835,131.026244 89.8877224,132.695819 C88.691611,133.727386 83.5018338,135.317341 80.1932549,136.667039 C76.8850248,138.017086 72.02035,137.641336 71.0000449,135.138196"/>
      <path fill="#EC6D54" d="M47.7478339,125.764412 C42.5011986,126.506484 39.331451,125.111738 37.8897687,125.215802 C36.4484352,125.319867 34.0576076,127.738847 36.0124074,129.67033 C37.9672072,131.601463 40.6960436,132.763635 44.1511278,133.641899 C46.338592,134.197842 52.1053212,137.140638 54.3492946,134.613752 C55.7826052,132.999701 53.8096666,131.486573 54.5083576,129.472327 C54.7696254,128.718731 54.2373227,128.388378 53.3160832,128.229139 C53.1646943,128.202948 53.0415601,128.090153 53.0112126,127.939643 C52.8615678,127.192333 52.0571837,125.15469 47.7478339,125.764412"/>
      <path fill="#003569" d="M59.3513008,65.2541475 C59.3513008,65.2541475 48.5426951,89.9216693 48.1848035,98.5080538 C47.818889,107.283361 47.9866724,120.946915 47.8858628,122.424075 C47.8827234,122.469123 48.3578193,123.332022 48.3710745,123.374975 C48.5535086,123.971426 48.7443143,124.940136 50.3342461,125.422395 C51.9758035,125.920369 53.7837492,126.291231 54.243148,123.61593 C54.5225546,121.988959 57.3375501,110.444413 58.2539061,103.468936 C58.5591255,101.143544 58.3428558,99.3751431 58.3728545,98.5527527 C58.5158716,94.642295 64.5909596,86.7082355 64.5682862,86.9579209 C64.5682862,86.9579209 61.069948,99.3220632 63.1960195,103.173155 C64.2484162,105.079145 77.4799412,124.469051 77.4799412,124.469051 L82.7039029,121.386571 C82.7039029,121.386571 82.4524021,121.513684 78.9198793,112.167417 C76.2426687,105.084733 73.9243961,102.894136 72.9006029,100.843573 C71.314857,97.6689013 78.8780207,82.4370435 79.8993722,78.7734776 C82.4684479,69.5616573 78.7587235,62.5166874 78.7587235,62.5166874 L60.53032,63.013963 L59.3513008,65.2541475 Z"/>
      <path fill="#EED2B7" d="M34.7889832,69.7482055 C34.7889832,69.7482055 35.5525551,67.6578323 37.0880706,67.44656 C38.1879071,67.2953519 39.210305,67.3582098 39.210305,67.3582098 L51.8781333,52.6585486 C51.8781333,52.6585486 56.0259785,28.6939872 56.9147775,27.9100099 C57.8039254,27.1260327 62.9745174,23.7076124 62.9745174,23.7076124 L74.917493,19.6476927 C74.917493,19.6476927 77.6323765,19.7975039 79.1159174,22.0073071 C80.5994584,24.2174595 81.7994069,53.0597913 81.7994069,53.0597913 L79.0238284,64.1681731 L61.7341055,63.4631173 L61.9283995,39.184965 C61.9283995,39.184965 59.2379336,54.2383763 57.2566233,56.3008127 C55.2749642,58.3625507 41.9513502,70.9875531 41.9513502,70.9875531 C41.9513502,70.9875531 40.8902329,71.0759033 40.1828214,73.8203476 C39.9700399,74.6458809 38.6082379,75.3729369 37.1766714,75.2363956 C35.8734715,75.1124259 35.3195418,73.8954278 34.6121303,73.2891986 C34.082967,72.8352251 34.7889832,69.7482055 34.7889832,69.7482055"/>
      <path fill="#EED2B7" d="M57.7121154,3.32353982 C57.7121154,3.32353982 57.4121283,3.23449118 56.3994973,5.29657839 C55.3872152,7.3586656 55.4663978,13.6154677 56.7075074,16.2820381 C57.9493145,18.9489577 59.0791497,21.547432 62.4260991,19.3515972 C62.7013198,19.1707062 62.8080594,20.6785966 62.8080594,20.6785966 L62.7491084,23.1803397 C62.7491084,23.1803397 58.0619841,26.6019028 57.9294316,28.2264295 C57.8097856,29.6885733 62.4034256,39.4961464 64.4851967,39.2848741 C66.5669678,39.0736019 71.4026904,29.7374627 70.814925,27.5496598 C70.2264619,25.3615076 71.6475636,22.0021039 71.6475636,22.0021039 L69.0659303,9.96098125 L65.1504007,5.16597371 L57.7121154,3.32353982 Z"/>
      <path fill="#B7A587" d="M63.57941,16.830892 C63.57941,16.830892 60.8094127,19.6147971 59.6516717,19.6682262 C58.7977548,19.7073378 58.0456941,18.8025338 58.0456941,18.8025338 C58.0456941,18.8025338 58.8183353,20.3848059 60.237693,20.1864544 C61.6567019,19.9881029 62.4258549,19.3514924 62.4258549,19.3514924 L62.80049,22.137842 L63.57941,16.830892 Z"/>
      <path fill="#EC6D54" d="M61.9593051,23.7693877 C64.9305729,23.9544692 68.3961218,32.0124984 74.6257381,30.7829287 C80.8553544,29.5537082 73.3040507,19.6672135 73.3040507,19.6672135 C73.3040507,19.6672135 75.8808005,19.2474627 76.4019409,20.2144262 C76.9227325,21.1810405 80.6722227,30.2681926 80.6722227,30.2681926 C80.6722227,30.2681926 81.8910076,44.5557856 80.4957187,48.329702 C77.8785054,55.4092437 79.5036682,65.0219575 79.5036682,65.0219575 C72.7623297,71.3147283 57.1664877,69.0790835 59.4962714,64.3458862 C63.1718112,56.8797686 58.9566434,55.6257542 59.8461401,50.0289596 C60.7485432,44.3511483 61.92826,39.1852793 61.92826,39.1852793 C61.92826,39.1852793 69.4757266,39.1646759 67.8331227,32.6155847 C66.19017,26.0664935 60.1101985,25.4490896 60.1101985,25.4490896 C60.1101985,25.4490896 59.8074208,24.3221877 61.9593051,23.7693877"/>
      <path fill="#EED2B7" d="M79.7441114 127.784314L76.3026312 123.09407C77.5203697 123.421978 79.7950394 122.860448 81.940645 119.733619L86.1899975 126.453124C86.1899975 126.453124 85.6304866 128.669912 84.4378634 129.105377 82.5828267 129.783195 82.4694595 127.818886 81.3493913 127.64044 80.5254732 127.509137 79.7441114 127.784314 79.7441114 127.784314M47.1176516 127.356497C47.1131169 127.378148 47.1106752 127.395259 47.1099775 127.417259 47.0998617 127.689993 47.0754441 129.634396 48.4044568 130.164148 49.834628 130.734059 51.2501486 130.921236 51.9938376 130.17218 52.505211 129.657444 52.9087983 129.380171 53.1111152 129.2569 53.2032043 129.201026 53.26669 129.11058 53.2872705 129.00442L54.2964132 123.112194C54.296762 123.244195 52.6122994 123.902806 50.6431979 123.589215 48.3137631 123.218005 47.9638944 121.947577 47.942965 122.263962 47.9007575 122.91489 47.7123935 124.568401 47.6147233 125.033899 47.4577533 125.779463 47.1643938 127.140685 47.1176516 127.356497"/>
      <path fill="#ECECEC" d="M35.2283946,128.0868 C35.2632768,127.652383 35.7826731,128.546361 35.9759206,128.937128 C36.3477651,129.690374 36.8964625,130.229555 37.8616536,130.642322 C39.7609907,131.454236 40.8636178,132.241356 42.9143437,132.441803 C44.9650696,132.64225 48.2834155,134.253506 49.4254595,134.666622 C50.1157787,134.916308 53.9786361,134.454651 54.8789463,133.394798 C55.1946304,133.02254 55.4611306,134.666622 54.5081483,135.249803 C53.8865471,135.630094 51.9397702,135.932859 50.4502992,135.806794 C48.7850219,135.666062 45.0452987,134.61459 41.4901025,133.370353 C38.5470893,132.340532 34.990149,131.046009 35.2283946,128.0868"/>
      <path stroke="#FFFFFF" stroke-width=".5" d="M61.9282949,39.1851396 C61.9282949,39.1851396 69.4757615,39.1645362 67.8331576,32.615445 C66.1902049,26.0663538 60.1102334,25.4492991 60.1102334,25.4492991 C60.1102334,25.4492991 59.8074557,24.322048 61.95934,23.769248 C64.930259,23.9546787 68.3961567,32.0127079 74.6254242,30.7831382 C80.8553893,29.5535685 73.3040855,19.6674231 73.3040855,19.6674231 C73.3040855,19.6674231 75.8808354,19.247323 76.4019758,20.2142865 C76.9227674,21.18125 80.6722576,30.2684022 80.6722576,30.2684022"/>
      <path fill="#C74C39" d="M59.825141,48.4835291 C59.825141,48.4835291 59.3650444,51.0177488 59.4801558,52.284684 C59.5952671,53.5519684 60.8607942,57.5836021 60.7456828,58.8505373 C60.6309203,60.1178217 59.0197104,65.6468694 59.0197104,65.6468694 C59.0197104,65.6468694 59.5952671,67.1442835 60.6309203,67.7201314 C61.6658759,68.2963285 65.1181695,68.9874158 65.1181695,68.9874158 C65.1181695,68.9874158 64.6577242,64.8405427 64.4275015,61.8457146 C64.1976277,58.8505373 62.9317518,52.5151628 63.0468631,48.8292474 C63.1619744,45.1429828 64.3783176,39.0380872 64.3783176,39.0380872 L61.875518,39.3405033 L59.825141,48.4835291 Z"/>
      <path fill="#A48C65" d="M80.2387413,26.1533421 C80.2387413,26.1533421 80.9346417,22.2201858 78.7967102,21.60802 C76.6587787,20.9958542 73.1757887,19.3343113 73.1409065,18.7266853 C73.1063731,18.1197576 70.3545145,17.6867368 71.8453807,15.6826185 C73.3365958,13.678151 72.4847719,5.61837574 71.5122555,4.04588146 C70.5400879,2.47338718 68.2929751,0.361013677 65.0712529,0.0355496153 C61.849182,-0.289914446 58.9145405,1.71385464 57.353561,2.42624378 C55.6600291,3.19904632 54.6840245,6.51689401 55.8201385,7.41052334 C56.1557055,6.38419407 56.174193,8.13094433 58.2134078,7.36791968 L58.2291048,5.73745648 L58.831172,7.66230401 C59.6439278,9.20371857 60.4580789,12.0871486 60.4580789,12.0871486 C60.4580789,12.0871486 61.093633,10.1458881 61.9252252,10.1148084 C62.7564686,10.0837287 63.3780698,11.6953345 62.8091408,13.5360224 C62.2405605,15.376361 62.0971946,15.3142016 62.0971946,15.3142016 L69.3837422,18.1075353 C69.3837422,18.1075353 68.9888755,20.0927962 70.1162689,21.3677633 C71.24436,22.6430795 70.5400879,25.3616822 72.3344295,26.5273464 C74.1287711,27.6926614 75.8257912,37.2540412 79.4326131,34.2780705 C83.0401327,31.302449 80.2387413,26.1533421 80.2387413,26.1533421"/>
      <path fill="#C74C39" d="M69.1959712,18.0326646 L71.223326,16.2551838 C71.4535487,16.0536894 71.8076033,16.1004836 71.9774797,16.355058 L72.2847921,16.8174125 C72.4480409,17.0625582 72.3688583,17.3946572 72.1121251,17.5392303 L69.7767602,18.8543566 C69.408404,19.0617875 68.9636556,18.7523871 69.0292342,18.3343823 C69.0480706,18.2173969 69.1066727,18.1105385 69.1959712,18.0326646"/>
    </g>
    <path fill="#2591BF" d="M113.758788,74.9607118 C112.555319,74.9607118 111.579716,73.9899375 111.579716,72.7924267 C111.579716,71.594916 112.555319,70.6241417 113.758788,70.6241417 C114.962256,70.6241417 115.93786,71.594916 115.93786,72.7924267 C115.93786,73.9899375 114.962256,74.9607118 113.758788,74.9607118 Z M124.654148,74.9607118 C123.450679,74.9607118 122.475076,73.9899375 122.475076,72.7924267 C122.475076,71.594916 123.450679,70.6241417 124.654148,70.6241417 C125.857616,70.6241417 126.833219,71.594916 126.833219,72.7924267 C126.833219,73.9899375 125.857616,74.9607118 124.654148,74.9607118 Z M135.549507,74.9607118 C134.346039,74.9607118 133.370435,73.9899375 133.370435,72.7924267 C133.370435,71.594916 134.346039,70.6241417 135.549507,70.6241417 C136.752976,70.6241417 137.728579,71.594916 137.728579,72.7924267 C137.728579,73.9899375 136.752976,74.9607118 135.549507,74.9607118 Z M146.444867,74.9607118 C145.241399,74.9607118 144.265795,73.9899375 144.265795,72.7924267 C144.265795,71.594916 145.241399,70.6241417 146.444867,70.6241417 C147.648336,70.6241417 148.623939,71.594916 148.623939,72.7924267 C148.623939,73.9899375 147.648336,74.9607118 146.444867,74.9607118 Z M157.340227,74.9607118 C156.136759,74.9607118 155.161155,73.9899375 155.161155,72.7924267 C155.161155,71.594916 156.136759,70.6241417 157.340227,70.6241417 C158.543696,70.6241417 159.519299,71.594916 159.519299,72.7924267 C159.519299,73.9899375 158.543696,74.9607118 157.340227,74.9607118 Z M168.235587,74.9607118 C167.032119,74.9607118 166.056515,73.9899375 166.056515,72.7924267 C166.056515,71.594916 167.032119,70.6241417 168.235587,70.6241417 C169.439055,70.6241417 170.414659,71.594916 170.414659,72.7924267 C170.414659,73.9899375 169.439055,74.9607118 168.235587,74.9607118 Z"/>
    <g transform="translate(202)">
      <path fill="#1D1D1B" d="M74.9401672,0 L12.3832755,0 C5.33761875,0 0,5.21032989 0,12.0879654 L0,168.189449 C0,175.067084 5.33761875,180.277414 12.3832755,180.277414 L74.9401672,180.277414 C81.985824,180.277414 87.3234427,175.067084 87.3234427,168.189449 L87.3234427,12.0879654 C87.3234427,5.21032989 81.985824,0 74.9401672,0 L74.9401672,0 Z"/>
      <polygon fill="#FFFFFF" points="6.549 17.481 80.774 17.481 80.774 157.333 6.549 157.333"/>
      <g transform="translate(12.007 21.852)">
        <rect width="64.401" height="25.13" fill="#D8D8D8"/>
        <rect width="51.303" height="4.37" x="6.549" y="5.463" fill="#777675"/>
        <rect width="32.746" height="4.37" x="6.549" y="13.111" fill="#777675"/>
      </g>
      <g transform="translate(12.007 50.26)">
        <rect width="64.401" height="65.555" fill="#EC6D54"/>
        <rect width="51.303" height="4.37" x="6.549" y="9.833" fill="#D8D8D8"/>
        <rect width="51.303" height="4.37" x="6.549" y="43.704" fill="#D8D8D8"/>
        <rect width="51.303" height="4.37" x="6.549" y="51.352" fill="#D8D8D8"/>
        <rect width="11.447" height="17.481" x="6.549" y="18.574" fill="#FFFFFF"/>
        <rect width="11.447" height="17.481" x="33.119" y="18.574" fill="#FFFFFF"/>
        <rect width="11.447" height="17.481" x="19.834" y="18.574" fill="#FFFFFF"/>
        <rect width="11.447" height="17.481" x="46.404" y="18.574" fill="#FFFFFF"/>
      </g>
      <g transform="translate(12.007 119.092)">
        <rect width="64.401" height="32.778" fill="#7BCAEC"/>
        <rect width="6.906" height="5.882" x="6.549" y="21.432" fill="#777675"/>
        <rect width="6.906" height="5.882" x="24.308" y="21.432" fill="#777675"/>
        <rect width="6.906" height="14.706" x="42.066" y="12.609" fill="#777675"/>
        <rect width="6.906" height="14.706" x="15.429" y="12.609" fill="#777675"/>
        <rect width="6.906" height="9.559" x="33.187" y="17.756" fill="#777675"/>
        <rect width="6.906" height="19.118" x="50.946" y="8.197" fill="#777675"/>
      </g>
    </g>
  </g>
</svg>
