<svg xmlns="http://www.w3.org/2000/svg" width="95" height="171" viewBox="0 0 95 171">
  <g fill="none" fill-rule="evenodd">
    <path fill="#171615" d="M80.8598816 34.0991461C74.6866568 30.3471287 73.2529281 22.1121716 72.9738649 17.1427094L72.9738649 13.0999929C72.9738649 4.11463236 71.494092 1.84343479 62.9695622.745153781 62.0937056.553631384 61.1860505.449900628 60.254483.449900628 55.9805163.0544587435 50.5411998-.0320678876 45.5.00942441501 40.4588002-.0320678876 35.0194837.0544587435 30.745517.449900628 29.8139495.449900628 28.9062944.553631384 28.0304378.745153781 19.505908 1.84343479 18.0261351 4.11463236 18.0261351 13.0999929L18.0261351 17.1427094C17.7470719 22.1121716 16.3133432 30.3471287 10.1401184 34.0991461.982163431 39.6651867 23.749857 37.6411719 30.745517 37.6411719L60.254483 37.6411719C67.250143 37.6411719 90.0178366 39.6651867 80.8598816 34.0991461M80.8598816 136.900853C74.6866568 140.653121 73.2529281 148.887823 72.9738649 153.857283L72.9738649 157.899998C72.9738649 166.885355 71.494092 169.156552 62.9695622 170.255086 62.0937056 170.446355 61.1860505 170.550086 60.254483 170.550086 55.9805163 170.94578 50.5411998 171.032054 45.5 170.990562 40.4588002 171.032054 35.0194837 170.94578 30.745517 170.550086 29.8139495 170.550086 28.9062944 170.446355 28.0304378 170.255086 19.505908 169.156552 18.0261351 166.885355 18.0261351 157.899998L18.0261351 153.857283C17.7470719 148.887823 16.3133432 140.653121 10.1401184 136.900853.982163431 131.334814 23.749857 133.358828 30.745517 133.358828L60.254483 133.358828C67.250143 133.358828 90.0178366 131.334814 80.8598816 136.900853"/>
    <path fill="#9B9B9B" d="M91.697861,56.4735577 C91.0437834,56.4735577 90.4341578,56.6671514 89.9197861,56.9965385 L89.9197861,48.1442308 C89.9197861,39.8149038 83.0614973,33 74.6791444,33 L15.2406417,33 C6.85828877,33 0,39.8149038 0,48.1442308 L0,122.855769 C0,131.185096 6.85828877,138 15.2406417,138 L74.6791444,138 C83.0614973,138 89.9197861,131.185096 89.9197861,122.855769 L89.9197861,115.536058 L91.1898396,115.536058 L91.1898396,87.5192308 L89.9197861,87.5192308 L89.9197861,74.1234014 C90.4341578,74.4527885 91.0437834,74.6466346 91.697861,74.6466346 C93.5140374,74.6466346 95,73.1700721 95,71.3653846 L95,59.7548077 C95,57.9501202 93.5140374,56.4735577 91.697861,56.4735577"/>
    <path fill="#FFFFFF" stroke="#9B9B9B" stroke-width="4" d="M16.7300613,134 C9.72852761,134 4,128.287565 4,121.305699 L4,48.6943005 C4,41.7124352 9.72852761,36 16.7300613,36 L74.2699387,36 C81.2714724,36 87,41.7124352 87,48.6943005 L87,121.305699 C87,128.287565 81.2714724,134 74.2699387,134 L16.7300613,134 Z"/>
    <path fill="#2591BF" d="M61.002,93.007 C60.997,93.007 60.992,93.005 60.986,93.005 L60.986,93.007 L33.986,93.007 L33.986,93.006 C30.132,92.997 27.009,89.867 27.009,86.007 C27.009,82.141 30.14,79.007 34.002,79.007 C34.054,79.007 34.104,79.014 34.155,79.015 C34.071,78.687 34.012,78.349 34.012,77.993 C34.012,75.786 35.744,73.997 37.88,73.997 C39.944,73.997 41.857,75.841 41.985,77.957 L42.001,77.957 C42.13,73.085 46.314,68.993 51.139,68.993 C56.04,68.993 60.013,73.026 60.013,77.998 C60.013,79.144 59.794,80.235 59.41,81.242 C59.92,81.101 60.447,81 61.002,81 C64.31,81 66.991,83.688 66.991,87.003 C66.991,90.319 64.31,93.007 61.002,93.007 M61.938,79.067 C61.971,78.715 61.991,78.359 61.991,77.998 C61.991,71.924 57.066,67 50.991,67 C46.736,67 43.053,69.42 41.224,72.953 C40.292,72.36 39.193,72.004 38.007,72.004 C34.961,72.004 32.472,74.282 32.084,77.224 C28.034,78.104 25,81.699 25,86.008 C25,90.969 29.023,94.991 33.986,94.999 L33.986,95 L60.986,95 L60.986,94.999 C60.992,94.999 60.997,95 61.002,95 C65.419,95 69,91.42 69,87.004 C69,82.904 65.913,79.53 61.938,79.067"/>
  </g>
</svg>
