<svg xmlns="http://www.w3.org/2000/svg" width="335" height="214" viewBox="0 0 335 214">
  <g fill="none" fill-rule="evenodd">
    <g transform="translate(229.358)">
      <path fill="#1D1D1B" d="M77.1894391,0 L12.75495,0 C5.4978233,0 0,5.38431703 0,12.4916155 L0,173.805754 C0,180.913052 5.4978233,186.297369 12.75495,186.297369 L77.1894391,186.297369 C84.4465658,186.297369 89.9443891,180.913052 89.9443891,173.805754 L89.9443891,12.4916155 C89.9443891,5.38431703 84.4465658,0 77.1894391,0 L77.1894391,0 Z"/>
      <polygon fill="#FFFFFF" points="6.746 18.065 83.199 18.065 83.199 162.587 6.746 162.587"/>
      <g transform="translate(12.367 22.581)">
        <rect width="66.334" height="25.969" fill="#D8D8D8"/>
        <rect width="52.842" height="4.516" x="6.746" y="5.645" fill="#777675"/>
        <rect width="33.729" height="4.516" x="6.746" y="13.549" fill="#777675"/>
      </g>
      <g transform="translate(12.367 51.937)">
        <rect width="66.334" height="67.744" fill="#EC6D54"/>
        <rect width="52.842" height="4.516" x="6.746" y="10.162" fill="#D8D8D8"/>
        <rect width="52.842" height="4.516" x="6.746" y="45.163" fill="#D8D8D8"/>
        <rect width="52.842" height="4.516" x="6.746" y="53.067" fill="#D8D8D8"/>
        <rect width="11.791" height="18.065" x="6.746" y="19.194" fill="#FFFFFF"/>
        <rect width="11.791" height="18.065" x="34.113" y="19.194" fill="#FFFFFF"/>
        <rect width="11.791" height="18.065" x="20.43" y="19.194" fill="#FFFFFF"/>
        <rect width="11.791" height="18.065" x="47.797" y="19.194" fill="#FFFFFF"/>
      </g>
      <g transform="translate(12.367 123.07)">
        <rect width="66.334" height="33.872" fill="#7BCAEC"/>
        <rect width="7.113" height="6.079" x="6.746" y="22.148" fill="#777675"/>
        <rect width="7.113" height="6.079" x="25.037" y="22.148" fill="#777675"/>
        <rect width="7.113" height="15.197" x="43.329" y="13.03" fill="#777675"/>
        <rect width="7.113" height="15.197" x="15.892" y="13.03" fill="#777675"/>
        <rect width="7.113" height="9.878" x="34.183" y="18.349" fill="#777675"/>
        <rect width="7.113" height="19.756" x="52.475" y="8.47" fill="#777675"/>
      </g>
    </g>
    <path fill="#2591BF" d="M145.960071,52.1928554 C144.720482,52.1928554 143.715596,51.1896643 143.715596,49.9521654 C143.715596,48.7146665 144.720482,47.7114754 145.960071,47.7114754 C147.199661,47.7114754 148.204547,48.7146665 148.204547,49.9521654 C148.204547,51.1896643 147.199661,52.1928554 145.960071,52.1928554 Z M157.182447,52.1928554 C155.942858,52.1928554 154.937972,51.1896643 154.937972,49.9521654 C154.937972,48.7146665 155.942858,47.7114754 157.182447,47.7114754 C158.422037,47.7114754 159.426923,48.7146665 159.426923,49.9521654 C159.426923,51.1896643 158.422037,52.1928554 157.182447,52.1928554 Z M168.404823,52.1928554 C167.165234,52.1928554 166.160348,51.1896643 166.160348,49.9521654 C166.160348,48.7146665 167.165234,47.7114754 168.404823,47.7114754 C169.644413,47.7114754 170.649298,48.7146665 170.649298,49.9521654 C170.649298,51.1896643 169.644413,52.1928554 168.404823,52.1928554 Z M179.627199,52.1928554 C178.38761,52.1928554 177.382724,51.1896643 177.382724,49.9521654 C177.382724,48.7146665 178.38761,47.7114754 179.627199,47.7114754 C180.866788,47.7114754 181.871674,48.7146665 181.871674,49.9521654 C181.871674,51.1896643 180.866788,52.1928554 179.627199,52.1928554 Z M190.849575,52.1928554 C189.609985,52.1928554 188.6051,51.1896643 188.6051,49.9521654 C188.6051,48.7146665 189.609985,47.7114754 190.849575,47.7114754 C192.089164,47.7114754 193.09405,48.7146665 193.09405,49.9521654 C193.09405,51.1896643 192.089164,52.1928554 190.849575,52.1928554 Z M202.071951,52.1928554 C200.832361,52.1928554 199.827476,51.1896643 199.827476,49.9521654 C199.827476,48.7146665 200.832361,47.7114754 202.071951,47.7114754 C203.31154,47.7114754 204.316426,48.7146665 204.316426,49.9521654 C204.316426,51.1896643 203.31154,52.1928554 202.071951,52.1928554 Z"/>
    <polygon fill="#DBD9DB" points="189.186 148.082 127.727 112.832 15.687 178.644 78.114 214" style="mix-blend-mode:multiply" transform="matrix(-1 0 0 1 204.873 0)"/>
    <g transform="translate(19.897 12.63)">
      <path fill="#2C2E33" d="M69.0816385,102.121066 L145.534701,146.165492 C145.534701,146.165492 160.757346,150.467727 161.419307,151.626041 C162.081268,152.784354 161.915532,160.615141 161.915532,162.104471 C161.915532,163.593801 161.750288,164.255834 159.930141,165.248393 C158.109502,166.241444 110.076013,193.665183 108.917827,194.492479 C107.759641,195.319776 106.43621,196.147072 104.947044,195.319776 C104.603768,195.129429 99.8672549,192.430141 92.7568289,188.371373 C91.3561862,187.572112 88.9881753,182.48783 87.4183538,181.591183 C62.3454714,167.271875 3.35224762,132.846612 2.15324234,131.8875 C0.498339644,130.563432 0.167359105,129.570873 0.0021147345,127.584772 C-0.163621435,125.599163 9.33645446,119.318204 9.33645446,119.318204 L69.0816385,102.121066 Z"/>
      <path fill="#868C96" d="M66.5654979,99.4811938 C66.5654979,99.4811938 65.9537003,77.388154 65.9537003,70.1397206 C65.9537003,62.8912873 77.9452285,37.8181119 77.9452285,37.8181119 L72.6254417,34.0574061 C72.6254417,34.0574061 60.596045,60.4320238 60.4076861,68.6208795 C60.2203108,76.8097352 60.0826071,96.0756057 60.0826071,96.0756057 L60.3014576,97.0524252 L65.4146889,100.056661 L66.5654979,99.4811938 Z"/>
      <path fill="#5B5E67" d="M66.5654979,99.4811938 C66.5654979,99.4811938 66.4902527,77.9247653 66.4902527,70.6768238 C66.4907445,63.4283905 80.1652079,34.1626626 80.1652079,34.1626626 L79.204725,33.1646935 C79.204725,33.1646935 65.4919013,63.7323554 65.3040342,71.9212111 C65.1161671,80.1100668 65.2233792,100.056661 65.2233792,100.056661 L66.5654979,99.4811938 Z"/>
      <path fill="#2C2E33" d="M8.96932672,113.658504 C11.7824154,108.694234 14.4297679,106.046099 22.8680504,101.578109 C31.3068246,97.1106113 46.0888188,90.3722293 51.2177877,90.5374918 C56.3472483,90.7032461 66.4345319,99.4734717 68.0889428,100.135505 C69.7433537,100.797539 69.0813926,105.099775 69.0813926,105.099775 C69.0813926,105.099775 17.9043259,136.329471 14.7602567,134.509124 C11.6166792,132.688777 6.65246294,128.551804 6.65246294,128.551804 L8.96932672,113.658504 Z"/>
      <path fill="#5B5E67" d="M7.28693247,90.4597299 C7.28693247,90.4597299 27.2298624,73.3850632 35.8417498,69.1910351 C42.6256214,65.8877524 62.9255972,58.626039 62.9255972,58.626039 L67.8430926,61.6376531 C67.8430926,61.6376531 68.4411198,63.7526198 66.8078563,64.095933 C61.3921688,65.2355557 44.0528213,70.7152867 39.0881132,73.4121151 C30.8504846,77.886991 7.7359447,98.092792 7.7359447,98.092792 L7.28693247,90.4597299 Z"/>
      <polygon fill="#1F1F1F" points="69.966 34.183 70.834 37.781 76.355 40.854 78.612 39.126"/>
      <path fill="#2C2E33" d="M95.7967844,51.8709339 L59.799577,30.9032531 C59.0289284,30.4566508 63.1979061,30.4974746 63.1979061,29.5137692 C63.1979061,28.5300638 66.0119784,27.5345539 67.4509815,28.3672605 C67.4509815,28.3672605 95.0649879,44.4444499 97.0523465,45.5948934 C99.0392133,46.7458287 100.097564,47.2612904 99.9933029,49.9812358 C99.8885497,52.7006895 98.082173,53.1241746 95.7967844,51.8709339"/>
      <path fill="#1F1F1F" d="M47.0333182,19.3834233 L60.5204064,32.3643999 C60.5204064,32.3643999 95.74008,53.050741 96.6784319,53.1264863 C98.3854653,53.264697 100.077253,51.371064 99.730043,51.4950109 C98.9933285,51.7581521 96.4679421,50.9161003 96.4679421,50.9161003 C96.4679421,50.9161003 62.2461281,31.2660928 60.834174,30.3246867 C59.421728,29.3832807 47.0333182,19.3834233 47.0333182,19.3834233"/>
      <path fill="#2C2E33" d="M20.4180567,62.803344 L24.7080169,65.0122545 C25.1589964,64.7417356 23.9299914,60.4965549 24.1276944,60.0091288 L25.4486658,56.7550313 C25.6517787,56.2548171 26.0157097,55.8362505 26.4829185,55.5667152 L56.7113269,38.1738198 C57.2080436,37.8870697 57.7893497,37.785748 58.3539346,37.8870697 C58.3539346,37.8870697 62.4929127,37.8378844 65.0763314,38.2539918 C67.6602418,38.6700992 73.9129708,38.0420033 73.9129708,38.0420033 C75.363777,37.1050239 66.1966488,33.5199095 64.7783013,32.5352204 L60.2089994,30.232366 C59.437859,29.6967384 58.4267209,29.6549309 57.6132858,30.1246502 L15.5969538,54.3238034 C14.4545054,54.9838697 14.0487714,56.4353271 14.6841754,57.5921646 L17.0443175,61.8909573 C17.7062785,63.0969801 19.2382316,63.5111201 20.4180567,62.803344"/>
      <polygon fill="#171615" points="149.534 153.686 106.65 178.355 12.997 123.66 56.429 99.33"/>
      <path fill="#868C96" d="M9.39630637,134.887899 C9.39630637,134.887899 8.78450876,108.561483 8.78450876,101.31305 C8.78450876,94.0641249 22.459464,64.7988888 22.459464,64.7988888 L17.1396772,61.0376912 C17.1396772,61.0376912 3.42685349,91.6053532 3.23898638,99.7942089 C3.05111927,107.982573 2.91341562,131.482311 2.91341562,131.482311 L3.13226606,132.458639 L8.24549736,135.463367 L9.39630637,134.887899 Z"/>
      <path fill="#5B5E67" d="M9.39630637,134.887899 C9.39630637,134.887899 9.32155296,109.098095 9.32155296,101.849661 C9.32155296,94.601228 22.9960164,65.3355001 22.9960164,65.3355001 L22.0355335,64.3380229 C22.0355335,64.3380229 8.32270976,94.905193 8.13533445,103.094049 C7.94697554,111.282904 8.05418766,135.463367 8.05418766,135.463367 L9.39630637,134.887899 Z"/>
      <path fill="#2C2E33" d="M12.6636204,64.4098334 L6.08433706,47.5338752 C4.78156225,45.874856 6.21908991,42.4289359 7.62465065,41.6090175 L47.8341141,18.8795202 C51.1517883,17.1019645 54.3091361,18.0964907 55.0615881,18.9980567 L67.4509815,28.2630861 C68.8914599,29.9885054 68.0603201,33.9730042 67.1372139,35.0619661 L62.0874246,35.1165617 C57.0396026,34.0954755 54.570773,35.3442895 54.0755317,35.6354663 L23.8102384,53.1852627 C23.4517171,53.3957757 23.1531953,53.6962977 22.9446726,54.0573176 L20.4183026,62.8034424 C19.6510966,64.1329203 13.800659,65.4407566 12.6636204,64.4098334"/>
      <path fill="#1D1D1B" d="M22.0231402,50.9871238 L14.4056698,51.7981889 C13.8086261,51.6791606 11.5129097,50.3088589 11.2065191,49.7835602 L11.4602872,39.4595719 C11.4602872,39.4595719 13.4368263,32.6100312 14.4573086,32.0202998 L35.4630156,20.0727057 C36.4387443,19.5095343 45.9993114,20.6196459 45.9993114,20.6196459 L55.2352914,24.1418031 C55.5810259,24.6675937 55.6764349,25.3197903 55.4954529,25.9228018 L51.6741769,33.8499918 C51.5118833,34.390538 51.1410671,34.8440262 50.6438585,35.1111022 L23.4454221,50.7751353 C23.0101802,51.0082735 22.5075619,51.0835269 22.0231402,50.9871238"/>
      <path fill="#2C2E33" d="M48.6614179,85.3779077 L12.6637187,64.409735 C11.8935619,63.9636246 16.0625397,64.0039565 16.0625397,63.0202511 C16.0625397,62.0365457 18.876612,61.0410358 20.3151232,61.8742343 C20.3151232,61.8742343 47.9296214,77.9514237 49.9164882,79.1018672 C51.9038469,80.2528025 53.0123612,80.4726607 52.9076081,83.1921143 C52.8028549,85.9115679 51.4405725,87.1648086 48.6614179,85.3779077"/>
      <polygon fill="#1F1F1F" points="12.797 65.357 13.665 68.954 19.186 72.028 21.443 70.299"/>
      <path fill="#1F1F1F" d="M7.09149166,48.8477613 L13.2035662,66.162944 C13.2035662,66.162944 48.4237316,86.8492851 49.3615917,86.9255222 C51.0691169,87.063241 52.7609045,85.1696081 52.4136946,85.2940468 C51.6769801,85.5566962 49.1511019,84.7146443 49.1511019,84.7146443 C49.1511019,84.7146443 14.9292879,65.0646369 13.516842,64.1232308 C12.1053796,63.1818247 7.09149166,48.8477613 7.09149166,48.8477613"/>
      <path fill="#5B5E67" d="M14.8665835,31.8202633 C17.0723008,30.3496237 32.6741234,21.7215435 34.8798407,20.2509039 C37.0865416,18.7797725 45.542037,26.1885498 45.542037,26.1885498 L45.542037,32.5683712 L24.1748579,44.2188863 L18.7094987,41.4999245 C18.7094987,41.4999245 12.6608663,33.2909029 14.8665835,31.8202633"/>
      <path fill="#B8BEC6" d="M19.6736701,127.271855 C19.6736701,127.271855 12.3424266,116.716205 12.0296426,112.807943 C11.5806304,107.195904 46.3389968,89.0558839 51.2771478,91.7497611 C56.2157905,94.4436384 62.0568839,102.300494 62.0568839,102.300494 C62.0568839,102.300494 55.6979265,99.2524823 52.7800847,101.273013 C49.8622428,103.293544 23.8342873,117.48497 21.6816843,118.869536 C18.5390905,120.889575 19.6736701,127.271855 19.6736701,127.271855"/>
      <path fill="#2C2E33" d="M19.6736701 127.271855L14.4296204 130.372003C14.4296204 130.372003 9.62966486 118.245866 12.0296426 112.807943 12.0296426 112.807943 13.6019231 116.968033 15.4220702 120.111956 17.2427091 123.25637 19.6736701 127.271855 19.6736701 127.271855M62.2978161 102.94846L66.1028628 100.631834C66.1028628 100.631834 56.3003307 92.9618829 51.2770986 91.749466 51.2770986 91.749466 55.5134528 96.3291066 57.3335998 98.1494534 59.1537469 99.9698003 62.2978161 102.94846 62.2978161 102.94846"/>
      <polygon fill="#B8BEC6" points="70.24 107.156 73.218 105.501 143.88 146.732 146.031 151.531"/>
      <polygon fill="#B8BEC6" points="24.192 133.847 27.17 132.002 101.969 175.74 93.861 174.747"/>
      <path fill="#868C96" d="M13.2211726,129.972225 C13.2211726,131.917994 14.5800124,134.299545 16.2560625,135.291612 C17.9321125,136.283679 19.2909524,135.510487 19.2909524,133.564717 C19.2909524,131.618948 17.9321125,129.237397 16.2560625,128.24533 C14.5800124,127.253263 13.2211726,128.026456 13.2211726,129.972225"/>
      <path stroke="#5B5E67" stroke-width="1.012" d="M13.2211726,129.972225 C13.2211726,131.917994 14.5800124,134.299545 16.2560625,135.291612 C17.9321125,136.283679 19.2909524,135.510487 19.2909524,133.564717 C19.2909524,131.618948 17.9321125,129.237397 16.2560625,128.24533 C14.5800124,127.253263 13.2211726,128.026456 13.2211726,129.972225 Z"/>
      <path fill="#5B5E67" d="M29.7862813 144.057264L24.4512488 141.086965 22.7142157 135.295399C22.7142157 135.295399 26.1769705 138.832804 28.3399013 140.011283 30.5028321 141.190254 34.0841104 141.700305 34.0841104 141.700305L29.7862813 144.057264zM41.3684855 150.759249L36.0339448 147.78895 34.2964199 141.997384C34.2964199 141.997384 37.7591747 145.534789 39.9225972 146.713268 42.0850362 147.892239 45.6663145 148.40229 45.6663145 148.40229L41.3684855 150.759249zM53.199048 157.626693L47.8640155 154.656394 46.1269824 148.864829C46.1269824 148.864829 49.5897372 152.402233 51.7531597 153.580712 53.9155987 154.759683 57.496877 155.269735 57.496877 155.269735L53.199048 157.626693zM92.9060407 175.923023L106.217557 176.764583 112.614874 180.637431C112.614874 180.637431 107.564593 184.172869 106.217557 183.668228 104.871012 183.163095 92.9060407 175.923023 92.9060407 175.923023M147.154243 153.012721L145.53475 146.165639C145.53475 146.165639 158.096764 151.834242 158.60135 152.507588 159.106919 153.180935 152.877796 157.053291 152.372719 157.221996 151.867642 157.39021 147.154243 153.012721 147.154243 153.012721"/>
      <path fill="#1D1D1B" d="M114.135516,180.469021 L119.859561,180.637235 C119.859561,180.637235 149.179618,164.125247 149.85289,163.451409 C150.526162,162.778063 152.041394,159.91548 152.041394,159.91548 L152.209589,164.461675 L150.021085,167.492471 L119.690874,183.836245 L114.135516,183.331112 L114.135516,180.469021 Z"/>
      <path fill="#2C2E33" d="M20.5616619,37.8718714 L23.8070417,41.4968259 C24.4606422,42.2267353 25.5470255,42.3762585 26.3732474,41.8489924 L42.0016272,32.500348 C42.7467022,32.0252183 43.0919449,31.1167663 42.8504718,30.266353 L41.603762,25.8765676 C41.2476997,24.6223432 39.8057459,24.0380222 38.6770678,24.6912026 L21.050018,34.8051698 C19.9513397,35.4406435 19.7142927,36.9260387 20.5616619,37.8718714"/>
      <path fill="#EC6D54" d="M117.95989,127.087657 C115.046967,131.532038 111.080118,132.29982 110.244552,133.482234 C109.408494,134.664648 109.824556,138.124831 112.621415,137.903989 C115.417783,137.683148 118.773326,137.092924 121.681823,135.01042 C123.523118,133.692255 129.608635,131.040677 129.916501,129.231151 C130.288301,127.046341 127.191444,126.542192 126.089323,124.617572 C125.635885,123.826181 124.038523,124.094241 123.380988,124.818248 C123.380988,124.818248 120.872814,122.643276 117.95989,127.087657"/>
      <path fill="#ECECEC" d="M110.167487,136.459762 C110.167487,136.459762 112.717955,138.048938 114.580889,137.124255 C116.443331,136.199572 118.735605,136.400248 120.204116,134.950266 C121.673118,133.500285 125.629147,132.3946 126.710613,131.82651 C127.792078,131.258912 129.576324,128.528637 129.057476,127.225228 C129.057476,127.225228 131.386635,128.997865 129.608291,131.040529 C128.509612,132.302623 123.306874,134.754509 120.040838,136.669783 C116.775295,138.585058 110.900759,139.488591 110.167487,136.459762"/>
      <path fill="#EC6D54" d="M68.9178695,127.532685 C63.3054625,127.692045 60.1323772,125.849565 58.6018996,125.788575 C57.0719137,125.727094 54.2681692,127.988632 56.0986441,130.252139 C57.9281353,132.515153 60.6645034,134.061046 64.1990608,135.393967 C66.436745,136.237494 72.4027553,139.726205 75.0643699,137.333834 C76.7645181,135.805647 75.0756813,134.900147 76.0494428,132.863385 C76.4497669,132.026251 75.2355159,130.852199 74.2086402,130.725793 C74.2086402,130.725793 74.5307683,127.373325 68.9178695,127.532685"/>
      <path fill="#EED2B7" d="M100.386299,21.8239472 C98.6625447,19.5122395 95.715195,19.4945328 95.715195,19.4945328 L91.5122831,19.630776 L88.4252625,10.4631334 L84.8843117,6.04678798 L77.1566784,3.73212915 C77.1566784,3.73212915 76.8847137,4.46449783 75.9537388,6.61832083 C75.0232556,8.77312753 75.4171863,15.1519653 76.8178291,17.8099373 C78.2189637,20.4679093 79.7219006,23.2783557 82.8108883,20.6543215 C83.0671155,20.4364308 83.3135066,22.9630781 83.3135066,22.9630781 L82.6348244,24.2650122 C82.6348244,24.2650122 77.3278244,28.2642666 76.5060287,30.1751143 C76.5030779,30.1775736 76.5006189,30.1805247 76.4981599,30.1824921 C74.0376909,32.4007478 81.6251616,41.8379257 81.6251616,41.8379257 L89.5091869,48.14151 L98.3591049,50.4915822 C98.3591049,50.4915822 102.110054,24.135655 100.386299,21.8239472"/>
      <path fill="#B7A587" d="M83.0148373,18.4434436 C83.0148373,18.4434436 81.6884561,21.1314186 80.5091228,21.2440529 C79.6391308,21.327176 78.8020894,20.8304048 78.8020894,20.8304048 C78.8020894,20.8304048 79.7979818,22.0334765 81.2374767,21.7600064 C82.6769715,21.4865363 82.8107408,20.6543215 82.8107408,20.6543215 L83.3133591,22.9630781 L83.0148373,18.4434436 Z"/>
      <path fill="#EC6D54" d="M82.6435784,24.4472436 C88.178773,24.2244344 89.3099101,33.2159937 95.9900121,31.5550071 C102.670114,29.8945124 93.9692111,19.6015108 93.9692111,19.6015108 C93.9692111,19.6015108 96.7370544,19.0103038 97.3522946,20.0289308 C97.9675348,21.046574 102.51028,30.67705 102.51028,30.67705 C102.51028,30.67705 105.041076,46.4915901 103.730432,50.6482373 C101.272422,58.4450864 102.017989,66.2483296 102.017989,66.2483296 C102.017989,66.2483296 80.5844172,73.1652542 81.5685064,68.0721194 C82.9681656,60.8359824 82.0121088,51.0997581 80.1177002,46.3942032 C77.9739495,41.0698977 78.7391884,38.4429124 78.7391884,38.4429124 C78.7391884,38.4429124 90.8580924,40.8943063 88.7320466,33.8977015 C86.6060007,26.9010968 79.4527883,26.9502821 79.4527883,26.9502821 C79.4527883,26.9502821 80.8140872,24.5210216 82.6435784,24.4472436"/>
      <path fill="#AF8C63" d="M91.1698436,3.57640858 C90.0982142,2.02117033 87.8133174,0.179673794 84.5069546,0.00949275723 C81.2005918,-0.161671985 77.7334108,2.07773339 76.3716201,3.18440198 C75.0108131,4.29156242 75.7091673,7.44483012 75.7091673,7.44483012 C75.7091673,7.44483012 77.2755462,7.00167083 78.2197997,8.83431401 C78.7897944,9.93999889 80.437812,13.3421441 80.437812,13.3421441 C80.437812,13.3421441 80.9905937,11.3304665 81.8374711,11.2566886 C82.6853321,11.1834025 83.4004075,12.7966794 82.9115595,14.7026086 C82.4227116,16.6085379 85.9380889,15.8014076 85.9380889,15.8014076 L89.0172406,17.1820381 C89.0172406,17.1820381 88.8524881,20.8025659 90.0682145,22.0469533 C91.2834492,23.2913406 90.7001759,26.0998196 92.591142,27.1986185 C94.4816162,28.2979093 96.6922515,37.9662579 100.227301,34.7495412 C103.761858,31.5333164 100.644346,26.4209994 100.644346,26.4209994 C100.644346,26.4209994 101.158276,22.3740353 98.9446896,21.8570981 C96.7306118,21.3396691 93.0903177,19.8188605 93.0244166,19.2010935 C92.9590074,18.5833265 90.2536226,16.5790267 91.6759045,14.4591416 C93.0986782,12.3397482 92.2414731,5.13213869 91.1698436,3.57640858"/>
      <path fill="#ECECEC" d="M55.7560079,127.642909 C55.7560079,127.642909 56.026989,130.414499 57.9307418,131.493624 C59.8344947,132.572257 60.9026815,133.53137 63.0385634,133.984858 C65.1739534,134.438346 69.0857204,137.002374 70.239972,137.572432 C71.3942236,138.142489 74.7955036,137.896071 75.5956601,136.706279 C75.5956601,136.706279 75.5489392,139.406058 70.5763624,138.417434 C68.8398211,138.072154 65.025922,136.52331 61.4289061,134.793464 C57.8323821,133.063618 54.0376632,131.004231 55.7560079,127.642909"/>
      <path fill="#E85740" d="M81.5566354,68.2086773 C81.5566354,68.2086773 81.952563,57.5874498 81.4299123,53.7327187 C80.9072616,49.8779877 80.1232855,45.2253113 79.0792973,42.8328117 C78.0339958,40.4403122 76.989351,34.4583952 76.989351,34.4583952 L90.7023664,38.579108 C90.7023664,38.579108 100.366152,55.9928956 99.8448144,58.518386 C99.3221637,61.0438764 94.2289456,62.9050806 93.4443129,63.7023577 C92.6609934,64.5003031 89.6577216,68.0890523 89.6577216,68.0890523 L81.5566354,68.2086773 Z"/>
      <path fill="#EED2B7" d="M95.9288815 49.2572287C94.2479135 47.0591389 88.0448562 34.9256245 88.0448562 34.9256245 84.3932507 31.0645808 79.2446099 27.3835551 76.734961 30.0444783 74.2248204 32.7058933 77.2085632 39.6415083 80.8026282 44.1340909 84.3966933 48.6266735 88.6940305 53.3632151 88.6940305 53.3632151L75.3903833 61.8540683 74.518916 61.7399585C74.2218696 61.5073122 73.8889218 61.2913888 73.5608921 61.177279 72.6181139 60.850197 72.2109046 60.4906526 71.6792702 60.6003358 71.3964859 60.6583744 70.7900981 61.083827 70.2825618 61.4704232 68.9438857 61.7532385 66.7401356 62.5313495 66.8080038 64.5813916 66.9048882 67.5192278 67.7684867 68.2820913 69.6043714 68.8698553 71.440256 69.4581112 74.2558037 68.964291 75.5290706 68.2304468 76.8018456 67.4961107 77.2980706 66.7568561 77.2980706 66.7568561 77.2980706 66.7568561 95.96675 57.6969293 97.1588701 56.3497447 98.3504984 55.0025601 97.6093577 51.4553184 95.9288815 49.2572287M103.62381 39.0899446C103.62381 39.0899446 105.892478 43.6282696 106.271163 45.1412085 106.648864 46.6536556 103.909545 49.664286 103.909545 49.664286L103.62381 39.0899446zM68.2474003 121.306223C68.1785485 122.345016 68.1200245 123.147228 68.0855986 123.651377 68.0615004 123.626784 67.5254398 129.12914 67.5254398 129.12914 67.5254398 129.12914 67.5018335 131.471835 69.0465733 131.995658 70.5918048 132.519481 72.0996597 132.639001 72.8462102 131.806295 73.591777 130.973096 74.1239033 130.684379 74.1239033 130.684379L74.7779956 126.07867C74.7942249 126.019648 75.2284832 124.789032 75.832412 122.894907 73.5976786 122.433058 70.7850817 121.847261 68.2474003 121.306223M114.148008 111.876964L105.034977 115.040069 113.94637 123.040053C113.933584 123.038578 113.919813 123.039069 113.907518 123.037594L118.226495 127.430822C118.226495 127.430822 119.004028 127.02406 119.888282 127.036848 121.090239 127.054063 121.505808 129.095252 123.34907 128.104169 124.533813 127.467219 124.786106 125.060092 124.786106 125.060092 124.786106 125.060092 117.17798 116.021807 115.098163 113.15824 114.786362 112.729345 114.468169 112.302417 114.148008 111.876964"/>
      <path fill="#06394E" d="M67.9270918,125.088275 C68.5900365,125.850647 69.7605175,126.788118 71.5708286,126.878619 C72.77426,126.938625 73.8350699,126.857961 74.6848981,126.736966 L74.7783398,126.078867 C74.8368639,125.856057 80.8033659,109.155691 79.5266565,102.301723 C82.3018766,98.4136275 85.9903671,92.8861868 87.8282189,90.1121376 L89.027716,88.808236 C89.3336148,91.0161628 90.872453,101.318018 93.3781674,104.626711 C94.7704496,106.464273 97.6469803,108.407091 97.6469803,108.407091 L113.946665,123.039709 C113.933879,123.038725 113.920108,123.038725 113.907321,123.037741 L115.678289,124.838414 C116.555166,124.690367 117.614008,124.423782 118.581868,123.940291 C120.153165,123.154311 120.420704,120.984256 120.44972,119.852995 C118.360067,117.319462 116.09435,114.530165 115.097966,113.158388 C110.958005,107.460274 105.867888,101.948573 104.591178,100.381038 C98.7363145,93.1931029 101.574485,87.3956351 104.295607,78.7626364 C107.016238,70.1296377 101.764811,61.5443487 101.764811,61.5443487 C101.764811,61.5443487 95.0763484,64.5505524 90.1278697,65.1693031 C85.179391,65.7880538 82.0864688,65.4786785 82.0864688,65.4786785 C82.0864688,65.4786785 80.685826,67.7239861 79.5212467,70.7828181 C76.0235742,79.0867673 68.7031502,97.313353 68.7749528,104.239623 C68.8679028,113.270039 68.2403676,121.400856 68.085451,123.651574 C68.0775822,123.643212 68.0111894,124.263438 67.9270918,125.088275"/>
      <path fill="#042433" d="M89.0278143,88.8083836 L94.9003828,80.7587222 C94.9003828,80.7587222 93.5233464,87.2556046 93.1958085,92.1741317 C92.8677787,97.0926587 93.627116,100.647278 93.627116,100.647278 C93.627116,100.647278 90.5774721,103.496089 89.0278143,88.8083836"/>
    </g>
  </g>
</svg>
