<svg xmlns="http://www.w3.org/2000/svg" width="135" height="40" viewBox="0 0 135 40">
  <g fill="none" fill-rule="evenodd">
    <path fill="#010201" d="M130,40 L5,40 C2.25,40 0,37.75 0,35 L0,5 C0,2.25 2.25,0 5,0 L130,0 C132.75,0 135,2.25 135,5 L135,35 C135,37.75 132.75,40 130,40"/>
    <path fill="#A6A6A5" d="M130,0 L5,0 C2.25,0 0,2.25 0,5 L0,35 C0,37.75 2.25,40 5,40 L130,40 C132.75,40 135,37.75 135,35 L135,5 C135,2.25 132.75,0 130,0 M130,0.8 C132.316,0.8 134.2,2.684 134.2,5 L134.2,35 C134.2,37.316 132.316,39.2 130,39.2 L5,39.2 C2.684,39.2 0.8,37.316 0.8,35 L0.8,5 C0.8,2.684 2.684,0.8 5,0.8 L130,0.8"/>
    <path fill="#FEFEFE" d="M47.4185,10.2432 C47.4185,11.0812 47.1705,11.7482 46.6735,12.2462 C46.1085,12.8382 45.3735,13.1342 44.4695,13.1342 C43.6035,13.1342 42.8665,12.8342 42.2615,12.2332 C41.6545,11.6332 41.3525,10.8882 41.3525,10.0002 C41.3525,9.1112 41.6545,8.3672 42.2615,7.7662 C42.8665,7.1662 43.6035,6.8662 44.4695,6.8662 C44.8985,6.8662 45.3105,6.9502 45.7005,7.1172 C46.0915,7.2852 46.4045,7.5082 46.6395,7.7872 L46.1115,8.3152 C45.7145,7.8412 45.1675,7.6032 44.4695,7.6032 C43.8375,7.6032 43.2915,7.8252 42.8305,8.2692 C42.3695,8.7142 42.1395,9.2902 42.1395,10.0002 C42.1395,10.7092 42.3695,11.2862 42.8305,11.7302 C43.2915,12.1752 43.8375,12.3962 44.4695,12.3962 C45.1395,12.3962 45.6975,12.1732 46.1455,11.7262 C46.4355,11.4352 46.6035,11.0312 46.6475,10.5112 L44.4695,10.5112 L44.4695,9.7902 L47.3765,9.7902 C47.4045,9.9472 47.4185,10.0972 47.4185,10.2432"/>
    <path stroke="#FEFEFE" stroke-width=".2" d="M47.4185,10.2432 C47.4185,11.0812 47.1705,11.7482 46.6735,12.2462 C46.1085,12.8382 45.3735,13.1342 44.4695,13.1342 C43.6035,13.1342 42.8665,12.8342 42.2615,12.2332 C41.6545,11.6332 41.3525,10.8882 41.3525,10.0002 C41.3525,9.1112 41.6545,8.3672 42.2615,7.7662 C42.8665,7.1662 43.6035,6.8662 44.4695,6.8662 C44.8985,6.8662 45.3105,6.9502 45.7005,7.1172 C46.0915,7.2852 46.4045,7.5082 46.6395,7.7872 L46.1115,8.3152 C45.7145,7.8412 45.1675,7.6032 44.4695,7.6032 C43.8375,7.6032 43.2915,7.8252 42.8305,8.2692 C42.3695,8.7142 42.1395,9.2902 42.1395,10.0002 C42.1395,10.7092 42.3695,11.2862 42.8305,11.7302 C43.2915,12.1752 43.8375,12.3962 44.4695,12.3962 C45.1395,12.3962 45.6975,12.1732 46.1455,11.7262 C46.4355,11.4352 46.6035,11.0312 46.6475,10.5112 L44.4695,10.5112 L44.4695,9.7902 L47.3765,9.7902 C47.4045,9.9472 47.4185,10.0972 47.4185,10.2432 Z"/>
    <polygon fill="#FEFEFE" points="52.028 7.737 49.296 7.737 49.296 9.639 51.759 9.639 51.759 10.36 49.296 10.36 49.296 12.262 52.028 12.262 52.028 13 48.525 13 48.525 7 52.028 7"/>
    <polygon stroke="#FEFEFE" stroke-width=".2" points="52.028 7.737 49.296 7.737 49.296 9.639 51.759 9.639 51.759 10.36 49.296 10.36 49.296 12.262 52.028 12.262 52.028 13 48.525 13 48.525 7 52.028 7"/>
    <polygon fill="#FEFEFE" points="55.279 13 54.508 13 54.508 7.737 52.832 7.737 52.832 7 56.955 7 56.955 7.737 55.279 7.737"/>
    <polygon stroke="#FEFEFE" stroke-width=".2" points="55.279 13 54.508 13 54.508 7.737 52.832 7.737 52.832 7 56.955 7 56.955 7.737 55.279 7.737"/>
    <polygon fill="#FEFEFE" points="59.938 13 60.709 13 60.709 7 59.938 7"/>
    <polygon stroke="#FEFEFE" stroke-width=".2" points="59.938 13 60.709 13 60.709 7 59.938 7"/>
    <polygon fill="#FEFEFE" points="64.128 13 63.357 13 63.357 7.737 61.681 7.737 61.681 7 65.804 7 65.804 7.737 64.128 7.737"/>
    <polygon stroke="#FEFEFE" stroke-width=".2" points="64.128 13 63.357 13 63.357 7.737 61.681 7.737 61.681 7 65.804 7 65.804 7.737 64.128 7.737"/>
    <path fill="#FEFEFE" d="M69.7793,11.7222 C70.2233,12.1722 70.7663,12.3962 71.4093,12.3962 C72.0513,12.3962 72.5953,12.1722 73.0393,11.7222 C73.4833,11.2722 73.7063,10.6982 73.7063,10.0002 C73.7063,9.3022 73.4833,8.7272 73.0393,8.2782 C72.5953,7.8282 72.0513,7.6032 71.4093,7.6032 C70.7663,7.6032 70.2233,7.8282 69.7793,8.2782 C69.3363,8.7272 69.1133,9.3022 69.1133,10.0002 C69.1133,10.6982 69.3363,11.2722 69.7793,11.7222 M73.6093,12.2242 C73.0193,12.8312 72.2863,13.1342 71.4093,13.1342 C70.5323,13.1342 69.7993,12.8312 69.2103,12.2242 C68.6203,11.6182 68.3263,10.8772 68.3263,10.0002 C68.3263,9.1232 68.6203,8.3812 69.2103,7.7752 C69.7993,7.1692 70.5323,6.8662 71.4093,6.8662 C72.2813,6.8662 73.0123,7.1702 73.6053,7.7792 C74.1973,8.3882 74.4933,9.1282 74.4933,10.0002 C74.4933,10.8772 74.1983,11.6182 73.6093,12.2242"/>
    <path stroke="#FEFEFE" stroke-width=".2" d="M69.7793,11.7222 C70.2233,12.1722 70.7663,12.3962 71.4093,12.3962 C72.0513,12.3962 72.5953,12.1722 73.0393,11.7222 C73.4833,11.2722 73.7063,10.6982 73.7063,10.0002 C73.7063,9.3022 73.4833,8.7272 73.0393,8.2782 C72.5953,7.8282 72.0513,7.6032 71.4093,7.6032 C70.7663,7.6032 70.2233,7.8282 69.7793,8.2782 C69.3363,8.7272 69.1133,9.3022 69.1133,10.0002 C69.1133,10.6982 69.3363,11.2722 69.7793,11.7222 Z M73.6093,12.2242 C73.0193,12.8312 72.2863,13.1342 71.4093,13.1342 C70.5323,13.1342 69.7993,12.8312 69.2103,12.2242 C68.6203,11.6182 68.3263,10.8772 68.3263,10.0002 C68.3263,9.1232 68.6203,8.3812 69.2103,7.7752 C69.7993,7.1692 70.5323,6.8662 71.4093,6.8662 C72.2813,6.8662 73.0123,7.1702 73.6053,7.7792 C74.1973,8.3882 74.4933,9.1282 74.4933,10.0002 C74.4933,10.8772 74.1983,11.6182 73.6093,12.2242 Z"/>
    <polygon fill="#FEFEFE" points="75.575 13 75.575 7 76.513 7 79.429 11.667 79.463 11.667 79.429 10.511 79.429 7 80.201 7 80.201 13 79.396 13 76.346 8.106 76.312 8.106 76.346 9.263 76.346 13"/>
    <polygon stroke="#FEFEFE" stroke-width=".2" points="75.575 13 75.575 7 76.513 7 79.429 11.667 79.463 11.667 79.429 10.511 79.429 7 80.201 7 80.201 13 79.396 13 76.346 8.106 76.312 8.106 76.346 9.263 76.346 13"/>
    <path fill="#FEFEFE" d="M106.937,30 L108.802,30 L108.802,17.499 L106.937,17.499 L106.937,30 Z M123.743,22.002 L121.604,27.422 L121.54,27.422 L119.32,22.002 L117.311,22.002 L120.64,29.577 L118.741,33.791 L120.687,33.791 L125.818,22.002 L123.743,22.002 Z M113.16,28.58 C112.55,28.58 111.697,28.274 111.697,27.519 C111.697,26.554 112.759,26.184 113.676,26.184 C114.495,26.184 114.882,26.361 115.38,26.602 C115.235,27.76 114.238,28.58 113.16,28.58 L113.16,28.58 Z M113.386,21.729 C112.035,21.729 110.636,22.324 110.057,23.643 L111.713,24.334 C112.067,23.643 112.727,23.417 113.418,23.417 C114.383,23.417 115.364,23.996 115.38,25.025 L115.38,25.154 C115.042,24.961 114.318,24.672 113.434,24.672 C111.648,24.672 109.831,25.653 109.831,27.486 C109.831,29.159 111.295,30.237 112.936,30.237 C114.189,30.237 114.882,29.674 115.315,29.014 L115.38,29.014 L115.38,29.979 L117.182,29.979 L117.182,25.187 C117.182,22.967 115.524,21.729 113.386,21.729 L113.386,21.729 Z M101.854,23.524 L99.2,23.524 L99.2,19.239 L101.854,19.239 C103.249,19.239 104.041,20.394 104.041,21.381 C104.041,22.35 103.249,23.524 101.854,23.524 L101.854,23.524 Z M101.806,17.499 L97.335,17.499 L97.335,30 L99.2,30 L99.2,25.264 L101.806,25.264 C103.874,25.264 105.907,23.767 105.907,21.381 C105.907,18.996 103.874,17.499 101.806,17.499 L101.806,17.499 Z M77.425,28.583 C76.136,28.583 75.057,27.503 75.057,26.021 C75.057,24.522 76.136,23.427 77.425,23.427 C78.697,23.427 79.696,24.522 79.696,26.021 C79.696,27.503 78.697,28.583 77.425,28.583 L77.425,28.583 Z M79.567,22.702 L79.503,22.702 C79.084,22.203 78.278,21.751 77.264,21.751 C75.137,21.751 73.188,23.621 73.188,26.021 C73.188,28.405 75.137,30.258 77.264,30.258 C78.278,30.258 79.084,29.807 79.503,29.292 L79.567,29.292 L79.567,29.903 C79.567,31.531 78.697,32.4 77.296,32.4 C76.152,32.4 75.443,31.579 75.153,30.886 L73.526,31.563 C73.993,32.69 75.233,34.076 77.296,34.076 C79.487,34.076 81.34,32.787 81.34,29.646 L81.34,22.009 L79.567,22.009 L79.567,22.702 Z M82.629,30 L84.497,30 L84.497,17.499 L82.629,17.499 L82.629,30 Z M87.252,25.876 C87.204,24.232 88.525,23.395 89.476,23.395 C90.217,23.395 90.845,23.766 91.055,24.297 L87.252,25.876 Z M93.052,24.458 C92.697,23.508 91.618,21.751 89.411,21.751 C87.22,21.751 85.399,23.476 85.399,26.005 C85.399,28.389 87.204,30.258 89.62,30.258 C91.569,30.258 92.697,29.066 93.165,28.373 L91.715,27.406 C91.231,28.115 90.571,28.583 89.62,28.583 C88.67,28.583 87.993,28.147 87.559,27.293 L93.245,24.941 L93.052,24.458 Z M47.744,23.057 L47.744,24.861 L52.062,24.861 C51.933,25.876 51.594,26.617 51.079,27.132 C50.45,27.761 49.467,28.454 47.744,28.454 C45.085,28.454 43.007,26.311 43.007,23.653 C43.007,20.995 45.085,18.852 47.744,18.852 C49.178,18.852 50.225,19.416 50.998,20.141 L52.271,18.868 C51.191,17.837 49.758,17.047 47.744,17.047 C44.103,17.047 41.042,20.012 41.042,23.653 C41.042,27.293 44.103,30.258 47.744,30.258 C49.709,30.258 51.191,29.613 52.351,28.405 C53.543,27.213 53.914,25.538 53.914,24.184 C53.914,23.766 53.882,23.379 53.817,23.057 L47.744,23.057 Z M58.822,28.583 C57.534,28.583 56.422,27.519 56.422,26.005 C56.422,24.474 57.534,23.427 58.822,23.427 C60.111,23.427 61.223,24.474 61.223,26.005 C61.223,27.519 60.111,28.583 58.822,28.583 L58.822,28.583 Z M58.822,21.751 C56.47,21.751 54.553,23.54 54.553,26.005 C54.553,28.454 56.47,30.258 58.822,30.258 C61.175,30.258 63.092,28.454 63.092,26.005 C63.092,23.54 61.175,21.751 58.822,21.751 L58.822,21.751 Z M68.136,28.583 C66.847,28.583 65.735,27.519 65.735,26.005 C65.735,24.474 66.847,23.427 68.136,23.427 C69.425,23.427 70.536,24.474 70.536,26.005 C70.536,27.519 69.425,28.583 68.136,28.583 L68.136,28.583 Z M68.136,21.751 C65.784,21.751 63.867,23.54 63.867,26.005 C63.867,28.454 65.784,30.258 68.136,30.258 C70.488,30.258 72.405,28.454 72.405,26.005 C72.405,23.54 70.488,21.751 68.136,21.751 L68.136,21.751 Z"/>
    <path fill="#5AC8F3" d="M10.4351,7.5474 C10.1441,7.8554 9.9731,8.3324 9.9731,8.9514 L9.9731,31.0484 C9.9731,31.6674 10.1441,32.1454 10.4351,32.4524 L10.5091,32.5254 L22.8881,20.1464 L22.8881,20.0004 L22.8881,19.8544 L10.5091,7.4754 L10.4351,7.5474 Z"/>
    <path fill="#FBCF32" d="M22.888,19.854 L22.888,20 L22.888,20.146 L27.013,24.273 L27.108,24.22 L31.997,21.442 C33.393,20.649 33.393,19.35 31.997,18.558 L31.997,18.558 L27.108,15.78 L27.014,15.726 L22.888,19.854 Z"/>
    <path fill="#E8454F" d="M10.435,32.453 C10.895,32.94 11.655,33 12.512,32.514 L12.512,32.514 L27.108,24.22 L22.888,20 L10.435,32.453 Z"/>
    <path fill="#79BF6D" d="M10.435,7.547 L22.888,20 L27.108,15.78 L12.512,7.487 C12.11,7.258 11.729,7.15 11.391,7.15 L11.391,7.15 C11.008,7.15 10.68,7.289 10.435,7.547"/>
  </g>
</svg>
