<svg xmlns="http://www.w3.org/2000/svg" xmlns:xlink="http://www.w3.org/1999/xlink" width="120" height="120" viewBox="0 0 120 120">
  <defs>
    <path id="jenn-a" d="M119.902682,59.9512644 C119.902682,93.0614559 93.0614559,119.902682 59.9512644,119.902682 C26.8410728,119.902682 0,93.0614559 0,59.9512644 C0,26.8410728 26.8410728,0 59.9512644,0 C93.0614559,0 119.902682,26.8410728 119.902682,59.9512644"/>
  </defs>
  <g fill="none" fill-rule="evenodd">
    <mask id="jenn-b" fill="#fff">
      <use xlink:href="#jenn-a"/>
    </mask>
    <use fill="#7BCAEC" xlink:href="#jenn-a"/>
    <path fill="#8F9E6A" d="M29.9477725,92.3651701 C31.1259066,91.8433752 32.3631225,91.0642506 33.6215043,90.7679038 C36.218668,90.1562333 38.942827,89.8747647 41.5728816,89.433281 C46.7486316,88.5645843 51.9243816,87.6957359 57.1001316,86.8270392 C63.0442498,85.82945 68.988368,84.831709 74.9324861,83.8339679 C79.7991225,83.0171927 84.6657589,82.2002656 89.5323952,81.3833386 C91.0144657,81.1346624 92.4966884,80.8858344 93.9789111,80.6370064 C94.4176089,80.5633752 95.1847589,80.2712794 95.6312225,80.3597886 C95.8783611,80.4086737 96.2022452,80.7139776 96.4122293,80.8443884 C97.1422248,81.2974102 97.8722202,81.7507356 98.6022157,82.2039092 C100.881586,83.6188433 114.230575,88.2774985 118.242504,90.7679038 C118.894384,91.1726479 117.856493,95.1800083 117.868522,95.9091851 C117.908266,98.3033386 117.947857,100.697492 117.9876,103.091494 C118.072568,108.217593 118.157536,113.343693 118.242504,118.469792 C118.247834,118.786634 118.253011,119.103476 118.258341,119.420318 C114.705513,119.441117 111.152838,119.461916 107.600011,119.482715 C99.0693884,119.532663 90.5387657,119.582611 82.008143,119.632558 C71.6910566,119.692982 61.3739702,119.753253 51.0567316,119.813676 C42.1445134,119.865901 33.2324475,119.917974 24.3202293,119.970199 C21.388218,119.987355 18.4562066,120.00451 15.5243475,120.021665 C14.6215225,120.026979 13.7188498,120.032293 12.8160248,120.037454 C12.442043,120.039732 11.7420452,120.182895 11.3883157,120.045804 C11.2319316,117.699625 11.4032384,115.347828 11.6543361,113.014554 C12.086943,108.993226 12.6978611,104.737493 14.4529566,101.049252 C15.1764043,99.5291087 16.2327202,97.8703566 17.904218,97.2790296 C21.991218,95.8331248 25.9862452,94.1200223 29.9477725,92.3651701 Z" mask="url(#jenn-b)"/>
    <path fill="#DFB18F" d="M45.3272875,112.931965 C45.4801693,109.425297 45.6332034,105.918781 45.7860852,102.412265 C45.8195852,101.642097 45.9950034,100.735446 45.8539989,99.9763615 C45.7047716,99.172187 45.3126693,98.3478209 45.0565466,97.5729472 C42.3026943,89.2403216 39.587367,80.889478 37.0990784,72.4736567 C36.1557489,69.2833752 35.0449193,66.0159706 34.559017,62.714559 C34.3606057,61.3673353 34.4167943,59.9595367 34.3956284,58.6016858 C34.3566466,56.0968578 34.3689807,53.5906635 34.447858,51.0868982 C34.5367852,48.2658355 34.6995648,45.4399146 35.061517,42.6393472 C35.3374352,40.5058635 35.6668011,38.2484971 36.5691693,36.2736621 C37.0314693,35.2622576 37.7840011,34.4602086 38.4794307,33.6028982 C39.5336148,32.3034969 40.5853625,31.0016664 41.6712193,29.7283776 C42.6591648,28.5697106 43.6661443,27.4069445 44.7952466,26.3811173 C45.3332261,25.8924185 46.1396625,25.0704815 46.9438148,25.1671889 C47.7057875,25.2590382 48.5533375,25.6897429 49.2796784,25.9241483 C50.9513284,26.4638576 52.618867,27.015864 54.280467,27.5854812 C59.0254375,29.2118963 63.7362989,30.9617386 68.3268648,32.9848514 C72.4531511,34.8033149 76.8509398,36.7890807 80.253017,39.8106936 C81.3860784,40.8170882 82.252967,41.9321838 82.7512034,43.3691313 C83.3747602,45.1677068 83.6506784,47.0900131 83.8655352,48.9733025 C84.4429534,54.0374608 84.4437148,59.1732767 84.333317,64.2621811 C84.2364716,68.7201343 84.0238989,73.1812756 83.6447398,77.6246543 C83.5093693,79.2109897 83.3223784,80.5838705 82.8568807,82.0827593 C81.7920375,85.512608 80.808508,88.9684174 79.7977216,92.4143588 C78.5029466,96.8284368 77.2115216,101.244185 75.867867,105.64384 C75.3974966,107.184327 74.9260602,108.725421 74.4124443,110.252396 C74.2018511,110.878185 74.0450102,111.62391 73.6002216,112.125514 C72.4035102,113.47547 70.792008,114.616223 69.3754148,115.716592 C67.163958,117.434249 64.8261148,119.065522 62.2817898,120.257285 C59.934658,121.356896 57.5590511,121.916796 55.0567534,120.980693 C52.4375102,120.000866 50.1870716,118.100725 48.2254943,116.158227 C47.1997852,115.142572 46.2148852,114.0712 45.3272875,112.931965" mask="url(#jenn-b)"/>
    <path fill="#A48272" d="M40.7223775,75.0436294 C42.331748,76.8344622 43.9441639,78.6225624 45.5596252,80.4079298 C47.4468934,82.4938948 49.251782,84.8040935 51.3406593,86.6957328 C52.9268843,88.132073 55.3579184,88.9225839 57.3898457,89.4449861 C59.8082411,90.0666765 62.2872411,89.8822189 64.6639139,89.1430221 C66.5441775,88.5580714 67.9371684,87.4481376 69.4510639,86.2478727 C71.0608911,84.9713957 72.6701093,83.6836843 74.1999934,82.3118663 C76.4416002,80.3021134 77.758607,77.2955303 79.214182,74.7047739 C78.995823,77.0829866 78.549207,79.4816945 77.8277389,81.7587971 C77.3380298,83.3047492 76.7030525,84.9208407 75.5818684,86.1274819 C74.3084116,87.4977817 72.849182,88.754978 71.363457,89.8885952 C69.6283093,91.2125909 67.736473,92.3745979 65.6739389,93.1162237 C64.5903661,93.5059379 63.4606548,93.7764757 62.3114525,93.8727276 C61.2292502,93.9633624 60.1500934,93.7822447 59.0712411,93.8903384 C56.1517161,94.1828897 53.901582,96.0506937 52.1691752,98.2693468 C50.9082048,99.8843756 49.3994866,101.348346 48.0211139,102.867123 C45.8908184,94.7462824 43.760523,86.6255933 41.6302275,78.5046006 C41.3276616,77.3509435 41.0249434,76.1972865 40.7223775,75.0436294" mask="url(#jenn-b)"/>
    <path fill="#735B4F" d="M41.5356357 76.7302247C44.4429789 80.5447776 47.0977016 85.2037364 47.817038 89.9865779 48.5729198 95.0121746 48.168788 100.291458 47.8385084 105.338612 47.7453175 106.763566 47.6404016 108.188217 47.5082289 109.610134 46.8364016 105.911873 46.1645743 102.213764 45.4928993 98.5158064 44.4212039 92.615744 43.3495084 86.7156815 42.277813 80.8156191 42.0303698 79.4538209 41.7830789 78.0920228 41.5356357 76.7302247M77.1180109 79.1936219C78.865645 74.8311616 80.6131268 70.4687013 82.3607609 66.1060892 81.25922 71.3914447 80.1576791 76.6768003 79.0562905 81.9621559 77.3001291 90.3883007 75.54412 98.8144455 73.7879586 107.24059 73.3842836 109.177167 72.9807609 111.113593 72.5770859 113.05017 72.4042564 108.781988 72.2713223 104.508341 72.2568564 100.236363 72.2362995 94.1986027 73.0827836 88.2874577 75.4146882 82.6832865 75.9103359 81.4921306 76.4513609 80.3012784 77.1180109 79.1936219" mask="url(#jenn-b)"/>
    <path fill="#CD9C7C" d="M46.6242095,33.3986437 C45.5426164,35.1964601 44.5889323,37.1043438 43.8622868,39.0718916 C43.4074482,40.3038862 42.9160641,41.7294474 43.0170209,43.0643739 C43.1067095,44.2518862 44.0124277,45.3316084 44.8438368,46.1256111 C43.89198,46.6052009 42.9559595,47.1247185 42.05618,47.6955503 C41.0767618,48.3169371 39.9181186,48.9331621 39.9152255,50.1962792 C39.9115709,51.8820547 40.178505,53.6373624 40.7012573,55.2394867 C41.2754777,56.9993489 42.2262686,58.1861021 43.9504527,58.9113317 C44.7894755,59.2643061 45.6722005,59.5023551 46.5579709,59.7047271 C46.6176618,59.7183906 47.8331027,59.9968229 47.8160482,60.0284009 C47.6672777,60.3025823 45.6769209,60.1967659 45.3658277,60.2303174 C44.1479505,60.3622464 42.7214595,60.5904272 41.7801095,61.4439422 C40.7924686,62.3395104 40.848505,63.9481629 40.8591641,65.1712003 C40.8743914,66.923168 41.0927505,68.6941128 41.4949027,70.3994727 C41.9492845,72.3263336 42.9402755,73.8373678 43.9871505,75.4898953 C45.4297823,77.7673015 46.9060664,80.0236052 48.3861573,82.2770243 C49.3342073,83.7206517 50.2853027,85.1624574 51.2411186,86.6010749 C47.7437186,83.8381581 44.31408,80.7105769 41.655855,77.1252676 C39.8707618,74.7179061 38.6874505,71.8689091 37.7394005,69.0443546 C36.5723823,65.5677462 35.8844141,61.9411427 35.6418436,58.2844795 C35.3828277,54.3797473 35.5500232,50.3796741 35.9829345,46.4916418 C36.3648345,43.0616412 37.0569141,39.5537586 38.6964345,36.4802243 C40.1518573,33.7522254 42.5726891,31.425175 45.2965436,29.9508805 C45.9511641,29.5965398 46.8224686,29.1328908 47.2544664,29.8934937 C48.8478482,32.698312 50.3136255,35.6022668 51.8460982,38.4471648 C49.5140414,37.6792746 47.6837232,35.5114803 46.6242095,33.3986437" mask="url(#jenn-b)"/>
    <path fill="#A48272" d="M53.2145427,61.3821071 C52.1789359,61.9327472 52.1917268,63.1864517 52.7431064,64.084449 C53.5084291,65.3308662 54.4199336,65.8072678 55.7474473,66.3314918 C57.1990632,66.9046008 58.7624473,66.7615892 60.2917223,66.6947898 C58.8609677,66.4652425 56.7183382,66.1526514 56.6504245,64.3517987 C56.6106814,63.294849 57.1422655,62.3128969 57.5066541,61.3535655 C57.73887,60.7421987 57.8081541,60.0796694 57.90972,59.436421 C58.2025405,57.5819769 58.4580541,55.7216118 58.7115882,53.8615505 C58.7636655,53.4794272 59.0491768,52.6467112 58.9256836,52.2738487 C58.8492427,52.0433906 58.5048018,51.89127 58.283245,51.7373276 L54.5944382,49.1752646 C55.3573245,51.0963564 56.4060268,53.5173814 56.2016768,55.6180727 C55.9887995,57.8052996 55.3082927,60.2686816 53.2145427,61.3821071" mask="url(#jenn-b)"/>
    <path fill="#BD716F" d="M48.4088002,71.6311637 C50.0461889,73.9372633 51.7428116,76.3449285 53.7959048,78.303519 C55.5677502,79.9935454 57.8564093,80.0656585 60.1732389,80.2164127 C62.7609616,80.3849295 65.2673707,79.6609145 67.0979934,77.7329909 C68.8473025,75.8908439 70.2169957,73.5492192 71.6343502,71.4488315 C69.164182,71.2511659 66.6816798,71.0773355 64.2261298,70.7406054 C60.2058252,70.1890544 56.0870002,70.4524569 52.0513161,70.6782087 C51.0711366,70.7330146 50.0897389,70.7869096 49.112148,70.8766334 C48.5636616,70.9270367 47.683982,70.9642318 48.4088002,71.6311637" mask="url(#jenn-b)"/>
    <path fill="#382523" d="M52.5620998,72.0417679 C52.0259475,71.7571111 51.451118,71.4357146 50.8613657,71.2813167 C50.3718089,71.1531832 49.7421611,71.4451272 49.9561043,72.0019918 C50.1740066,72.5687245 51.0421134,73.2188047 51.4558384,73.6596812 C51.8666702,74.0972177 52.2287748,74.499988 52.7803066,74.7500306 C53.9930066,75.3000634 55.4715748,75.8701361 56.7937589,76.0776699 C58.041177,76.2736656 59.4544202,76.0627918 60.703818,75.9833915 C62.2343111,75.8862287 63.8724611,75.8470599 65.3630589,75.4541576 C67.2341861,74.9609043 68.3596339,73.1559525 70.0924975,72.3903396 C70.414402,72.2480871 71.8597748,71.8132833 71.0792248,71.5476037 C70.0524498,71.1982728 68.6250452,71.9485522 67.6826293,72.2741996 C65.8262725,72.9156263 63.8007407,73.0446707 61.8504316,73.0428489 C58.7468089,73.0399644 55.5999407,72.6793991 52.5620998,72.0417679" mask="url(#jenn-b)"/>
    <path fill="#B69087" d="M51.1699311,71.73613 C51.7615107,72.6207674 52.3346652,73.5974059 53.1360766,74.3124637 C54.6338311,75.6489084 56.5751561,75.7998145 58.4927266,76.0106882 C59.4509789,76.116201 60.4275039,76.2095685 61.3924561,76.1635679 C62.4572993,76.1130129 63.3983448,75.7049289 64.3317766,75.2131938 C65.9245493,74.3741014 67.5771652,73.6157757 68.5731811,72.0535792 C66.134838,72.2570139 63.686597,72.4372207 61.2397266,72.483373 C57.8568357,72.547288 54.5400311,71.7625461 51.1699311,71.73613" mask="url(#jenn-b)"/>
    <path fill="#725A4D" d="M40.7185098 48.1821084C42.4344711 46.9223313 44.2996598 46.0130995 46.4576689 46.0000433 48.4580757 45.9878979 50.4796484 46.2153197 52.433003 46.6387372 52.7404416 46.7053849 54.7038461 47.1260697 54.1198802 47.7629418 53.7988893 48.1128799 52.3905189 47.773569 52.0087711 47.7245321 50.029378 47.4703905 47.8136575 46.75093 45.8249757 47.2013709 44.616387 47.474945 43.496878 48.0114662 42.3904643 48.5513273 41.7845711 48.8469149 41.3347575 48.445359 40.7185098 48.1821084M64.1580334 47.247341C65.7910061 46.5494385 67.5523448 46.0162573 69.3403311 46.1530444 71.3855061 46.3094159 73.5761016 46.1654934 75.5760516 46.6677039 75.9351107 46.7578832 76.2136175 46.9115219 76.5396334 47.0833787 76.9836607 47.3176323 77.6673652 47.5093771 78.0177448 47.879355 78.6714516 48.5698186 77.269172 48.3861201 76.9254925 48.3194724 75.7976084 48.1005524 74.6954584 47.771565 73.5614834 47.5792129 72.1424539 47.3384312 70.8294061 47.4031052 69.4071789 47.5705594 68.021497 47.7336108 66.6280493 47.8550643 65.247088 48.0554627 64.9815243 48.0940242 64.3704539 48.3208388 64.1580334 48.114975 63.9576425 47.9206493 64.0860084 47.4758256 64.1580334 47.247341" mask="url(#jenn-b)"/>
    <path fill="#A48272" d="M54.9206216,49.2615877 C55.7832466,50.1926811 57.1218761,50.5722235 58.3546761,50.5930224 C60.0048557,50.6209568 61.6815307,50.4390801 63.314808,50.212721 C63.1284261,51.3341928 63.121117,52.6545449 63.812892,53.6105363 C64.3263557,54.3198251 66.430917,55.8296448 65.7950261,56.8698946 C65.3409489,57.6128868 63.7309693,57.0689266 63.2342557,56.5861487 C62.7803307,56.144665 62.4809625,55.2541067 62.1745898,54.7061993 C61.933542,54.2750391 61.6924943,53.843879 61.4514466,53.412567 C61.3067875,53.1538709 61.0992398,52.5294478 60.8552989,52.3462047 C60.4939557,52.0749078 59.3397284,52.4530838 58.8577852,52.5218569 C58.629833,52.5541939 58.4099511,52.536735 58.2849352,52.6824792 C58.0664239,52.9372281 58.0015557,53.7177191 57.9050148,54.0318284 C57.586917,55.0657019 57.2508511,56.4690978 56.4468511,57.2503479 C55.6224466,58.0511823 54.191083,58.3958068 53.1320261,58.748174 C52.2736648,59.0338935 51.4060148,59.2957778 50.5327307,59.532764 C51.439667,58.7134079 52.325742,57.8550348 53.1222807,56.9280405 C53.4746398,56.5178311 54.0564739,55.9400157 54.145858,55.3740421 C54.2093557,54.9723344 54.0267807,54.5262962 53.9472943,54.1355194 C53.8324807,53.5707603 53.7676125,52.9924895 53.6494489,52.4303113 C53.4132739,51.306714 51.540167,50.7920545 50.5743011,50.4185848 C49.6165057,50.0483032 48.651858,49.6948733 47.6907125,49.3332453 C48.702108,49.2221153 49.7176148,49.1393751 50.7335784,49.0835064 C52.0327693,49.0120006 53.670767,48.7942951 54.9206216,49.2615877" mask="url(#jenn-b)"/>
    <path fill="#948D8B" d="M45.3705634,53.0683524 C46.7384293,53.2103013 48.079952,53.3759336 49.4564975,53.3112595 C50.9272998,53.2421828 52.3843975,53.0637979 53.851393,52.9544897 C53.6506975,52.2704025 53.5480657,52.1003675 52.9764339,51.6730027 C52.0381293,50.9714566 50.9204475,50.3323072 49.732568,50.216319 C48.5341816,50.09942 47.036427,50.4434372 45.8952952,50.8173624 C44.9775475,51.1179599 44.3098316,51.746634 43.7692634,52.5383594 L45.3705634,53.0683524 Z" mask="url(#jenn-b)"/>
    <path fill="#BEBCBC" d="M44.8054184,52.7171239 C45.9794411,51.767357 47.8176775,51.4990964 49.280257,51.380831 C50.1046616,51.3141834 50.7410093,51.4433796 51.478923,51.8259583 C52.0213184,52.1072752 52.8662798,52.8373629 51.8174252,53.1508649 C50.9219093,53.41867 49.6717502,53.2336052 48.7473025,53.2427142 C47.4162866,53.2556186 46.045223,53.2765694 44.8054184,52.7171239" mask="url(#jenn-b)"/>
    <path fill="#999984" d="M51.3356648,51.9277971 C51.3356648,52.9325218 50.5187216,53.7471716 49.5108284,53.7471716 C48.5029352,53.7471716 47.6858398,52.9328254 47.6858398,51.927949 C47.6858398,50.9232243 48.502783,50.1087264 49.5106761,50.1085745 C50.5185693,50.1085745 51.3356648,50.9229207 51.3356648,51.9277971" mask="url(#jenn-b)"/>
    <path stroke="#646556" stroke-width=".5" d="M51.3356648,51.9277971 C51.3356648,52.9325218 50.5187216,53.7471716 49.5108284,53.7471716 C48.5029352,53.7471716 47.6858398,52.9328254 47.6858398,51.927949 C47.6858398,50.9232243 48.502783,50.1087264 49.5106761,50.1085745 C50.5185693,50.1085745 51.3356648,50.9229207 51.3356648,51.9277971 Z" mask="url(#jenn-b)"/>
    <path fill="#797A68" d="M51.1845798,51.8167582 C50.480623,51.213134 48.3890048,51.5536594 47.8862002,51.81691 C47.8586389,50.9091964 48.6245707,50.1727324 49.5353139,50.1727324 C50.4462093,50.1725806 51.2358957,50.9101073 51.1845798,51.8167582" mask="url(#jenn-b)"/>
    <path fill="#221F20" d="M50.2934036,51.7987376 C50.2934036,52.2297459 49.9430241,52.5790767 49.5107218,52.5790767 C49.0784195,52.5790767 48.72804,52.2297459 48.72804,51.7987376 C48.72804,51.367881 49.0784195,51.0183984 49.5107218,51.0183984 C49.9430241,51.0183984 50.2934036,51.367881 50.2934036,51.7987376" mask="url(#jenn-b)"/>
    <path fill="#FEFEFE" d="M50.5959391,51.5787244 C50.5959391,51.721736 50.4796027,51.837876 50.3360095,51.837876 C50.1925686,51.837876 50.0762323,51.721736 50.0762323,51.5787244 C50.0762323,51.4357128 50.1925686,51.3195729 50.3360095,51.3195729 C50.4796027,51.3195729 50.5959391,51.4357128 50.5959391,51.5787244" mask="url(#jenn-b)"/>
    <path fill="#544B43" d="M43.2351059,52.3348488 C44.7409309,50.4794937 47.6214741,49.693841 49.9294718,49.9737914 C52.1025559,50.2373457 53.5599582,51.5596714 55.161715,52.8856407 C54.6147514,52.8856407 54.1321991,52.981589 53.6992877,52.6131293 C53.2063809,52.1935072 52.8774718,51.6152364 52.31254,51.2741037 C51.0967945,50.5400687 49.801715,50.3742846 48.4105514,50.5772638 C47.18704,50.7558006 45.4488468,51.0415201 44.6168286,52.06841 C43.7988195,53.0781446 45.563965,52.3800902 45.4304218,52.868789 C45.3373832,53.2096181 44.0389536,52.9422684 43.8157218,52.8376665 C43.5783286,52.7263847 43.3666695,52.5640924 43.2351059,52.3348488" mask="url(#jenn-b)"/>
    <path fill="#DEB18F" d="M45.158813,52.9803593 C46.7045334,53.1869822 48.3120766,53.4476519 49.8743948,53.3784234 C50.9004084,53.3328783 51.924138,53.2296427 52.9530448,53.2779205 C53.6883698,53.3125348 53.8477993,53.6277068 53.9222607,54.3978742 C54.1101652,56.3415868 50.0918402,56.2943717 48.8492948,56.2259022 C46.8928948,56.1184158 45.8409948,54.6981682 45.158813,52.9803593" mask="url(#jenn-b)"/>
    <path fill="#948D8B" d="M74.6852866,53.0683524 C73.3174207,53.2103013 71.975898,53.3759336 70.5993525,53.3112595 C69.1285502,53.2421828 67.6714525,53.0637979 66.204457,52.9544897 C66.4051525,52.2704025 66.5079366,52.1003675 67.0795684,51.6730027 C68.0177207,50.9714566 69.1354025,50.3323072 70.323282,50.216319 C71.5218207,50.09942 73.019423,50.4434372 74.160707,50.8173624 C75.0784548,51.1179599 75.7461707,51.746634 76.2867389,52.5383594 C75.7528707,52.7150743 75.2191548,52.8916375 74.6852866,53.0683524" mask="url(#jenn-b)"/>
    <path fill="#BEBCBC" d="M75.2576493,52.7710189 C74.763372,52.211118 74.0158652,51.9833925 73.3146493,51.8144202 C72.207322,51.5476778 71.0888789,51.3399922 69.944397,51.434726 C69.1282152,51.5022846 68.3356357,51.8189748 67.6187357,52.2045898 C67.1727289,52.4444606 66.2935061,52.9656482 67.2624175,53.1780402 C68.2802084,53.4012111 69.590972,53.2247998 70.6203357,53.2381597 C72.1624016,53.2581995 73.7981152,53.359006 75.2576493,52.7710189" mask="url(#jenn-b)"/>
    <path fill="#999984" d="M68.7202614,51.9277971 C68.7202614,52.9325218 69.5372045,53.7471716 70.5450977,53.7471716 C71.5529909,53.7471716 72.3700864,52.9328254 72.3700864,51.927949 C72.3700864,50.9232243 71.5531432,50.1087264 70.5450977,50.1085745 C69.5373568,50.1085745 68.7202614,50.9229207 68.7202614,51.9277971" mask="url(#jenn-b)"/>
    <path stroke="#646556" stroke-width=".5" d="M68.7202614,51.9277971 C68.7202614,52.9325218 69.5372045,53.7471716 70.5450977,53.7471716 C71.5529909,53.7471716 72.3700864,52.9328254 72.3700864,51.927949 C72.3700864,50.9232243 71.5531432,50.1087264 70.5450977,50.1085745 C69.5373568,50.1085745 68.7202614,50.9229207 68.7202614,51.9277971 Z" mask="url(#jenn-b)"/>
    <path fill="#797A68" d="M68.8543984,51.8251992 C69.5982507,51.3386259 71.5155166,51.2153505 72.186887,51.8253511 C72.214753,50.9083766 71.440903,50.1641699 70.5207189,50.1641699 C69.6003825,50.1640181 68.8024734,50.9091357 68.8543984,51.8251992" mask="url(#jenn-b)"/>
    <path fill="#221F20" d="M69.7624464,51.7987376 C69.7624464,52.2297459 70.1128259,52.5790767 70.5451282,52.5790767 C70.9774305,52.5790767 71.32781,52.2297459 71.32781,51.7987376 C71.32781,51.367881 70.9774305,51.0183984 70.5451282,51.0183984 C70.1128259,51.0183984 69.7624464,51.367881 69.7624464,51.7987376" mask="url(#jenn-b)"/>
    <path fill="#FEFEFE" d="M71.0708955,51.5465544 C71.0708955,51.689566 71.1872318,51.8057059 71.330825,51.8057059 C71.4742659,51.8057059 71.5906023,51.689566 71.5906023,51.5465544 C71.5906023,51.4035428 71.4742659,51.2874029 71.330825,51.2874029 C71.1872318,51.2874029 71.0708955,51.4035428 71.0708955,51.5465544" mask="url(#jenn-b)"/>
    <path fill="#544B43" d="M76.8207593,52.3348488 C75.3150866,50.4794937 72.4343911,49.693841 70.1265457,49.9737914 C67.9533093,50.2373457 66.495907,51.5596714 64.8941502,52.8856407 C65.4411139,52.8856407 65.9236661,52.981589 66.3565775,52.6131293 C66.8496366,52.1935072 67.1785457,51.6152364 67.7433252,51.2741037 C68.9590707,50.5400687 70.2541502,50.3742846 71.6453139,50.5772638 C72.8688252,50.7558006 74.6071707,51.0415201 75.4390366,52.06841 C76.257198,53.0781446 74.4919002,52.3800902 74.6254434,52.868789 C74.7186343,53.2096181 76.0169116,52.9422684 76.2401434,52.8376665 C76.4775366,52.7263847 76.6891957,52.5640924 76.8207593,52.3348488" mask="url(#jenn-b)"/>
    <path fill="#261D1C" d="M43.3168916 52.3348488C44.4286348 50.9642453 46.2385484 50.2748445 47.939587 50.023891 49.0054961 49.8666087 50.0875461 49.8953021 51.1216302 50.2142695 51.2859325 50.2649764 53.3828802 51.0589791 53.278878 51.2800245 53.232587 51.3785538 51.7072711 50.8528116 51.5551507 50.8122765 50.6087757 50.5601085 49.7137166 50.4222587 48.7365825 50.5440159 47.6621461 50.6777667 46.4765507 50.906403 45.516928 51.430627 44.7770348 51.8347637 44.2028143 52.3072181 43.3168916 52.3348488M76.9026211 52.3348488C76.1269439 51.3811346 74.9961666 50.7620251 73.841178 50.3902254 73.0027643 50.1204466 72.126587 49.9552698 71.2450802 49.9321936 71.0325075 49.9267282 69.3977075 49.901982 69.3916166 50.1940778 69.3876575 50.3821791 73.034437 50.8279136 73.459278 50.9533145 74.6599484 51.3076552 75.6285552 52.2918846 76.9026211 52.3348488" mask="url(#jenn-b)"/>
    <path fill="#DEB18F" d="M74.8971132,52.9803593 C73.3890041,53.1819722 71.8320155,53.4248794 70.3070041,53.3831297 C69.2936291,53.355499 68.2874109,53.2474053 67.2708382,53.273366 C66.5431268,53.2920395 66.37852,53.3350037 66.1950314,54.0810322 C65.6591836,56.2585429 69.4210814,56.2659819 70.7898609,56.1700336 C72.715045,56.0350683 73.9282018,54.5138624 74.8971132,52.9803593" mask="url(#jenn-b)"/>
    <path fill="#261D1C" d="M45.7814257,30.4214524 C47.0448325,32.9689409 48.797187,35.3766061 50.8269825,37.364801 C53.8928416,40.3677404 57.9193893,41.9519504 62.0219211,42.9999428 C63.097728,43.2747315 64.1858689,43.5202195 65.2831461,43.6952645 C62.9439325,42.6076478 60.6269507,41.4177065 58.4477757,40.0370831 C57.0866098,39.1747627 55.7647302,38.2555111 54.9832666,36.8074809 C54.3135711,35.5663773 53.972937,34.0759902 54.0321711,32.6648516 C57.1861961,35.6205759 60.4565575,38.7745732 64.1746007,41.0140252 C68.1971893,43.436872 72.3947393,45.5947983 76.5325984,47.8129959 C77.8441234,48.516212 79.1567143,49.2177582 80.4709802,49.9158125 C78.6670052,48.0493749 76.8631825,46.183089 75.0592075,44.3168031 C74.4027598,43.6374222 73.6831189,42.983243 73.0728098,42.2613533 C72.3607825,41.4195283 71.7506257,40.4697614 71.0961575,39.5822395 C74.3992575,42.4096785 78.1698348,45.3034615 80.4268211,49.0861329 C80.9104393,49.8966836 80.7586234,51.2026131 80.8327802,52.1268747 C80.9996711,54.2037307 81.1664098,56.2807385 81.3331484,58.3574427 C81.4202484,59.4423267 81.6099802,60.571693 81.5950575,61.6608279 C81.5717598,63.3579897 81.2425461,65.1046438 81.0701734,66.7919374 C80.5757439,71.629433 80.0205575,76.4177399 78.5859961,81.0930949 C77.2913734,85.3126955 76.5389939,89.7041528 75.635103,94.0190944 C74.7673007,98.1614201 73.5165325,102.314828 73.1082893,106.532304 C72.8626734,109.070076 72.7522757,111.62136 72.675987,114.168848 C72.6450757,115.201507 72.6222348,116.234318 72.6063984,117.267281 C72.5977189,117.835228 72.4506234,118.607673 72.586603,119.162564 C72.6796416,119.542561 72.684362,119.432342 73.1856439,119.472118 C74.1909484,119.552126 75.2009734,119.609968 76.2097802,119.608146 C76.8765825,119.607084 78.1384666,119.737039 78.6613711,119.211449 C78.9837325,118.887471 79.1640234,118.251662 79.3507098,117.848284 C80.2626711,115.876485 81.1071757,113.872502 81.9463507,111.869125 C82.5415848,110.447967 83.2038189,109.02362 83.6778439,107.555853 C84.7422302,104.259452 85.7918461,100.957737 86.8729825,97.666345 C86.9894711,97.3120042 87.1058075,96.9576634 87.2224484,96.6033226 C87.359037,97.5011681 87.3645189,98.7612489 87.7899689,99.5680042 C87.9725439,99.9138432 87.8889461,99.8358093 88.0492893,99.5651197 C88.2839416,99.1690292 88.3978416,98.6182373 88.557728,98.1884435 C89.3577689,96.0379563 90.1651189,93.8902018 90.9727734,91.7425991 C91.837987,92.7532446 92.7152302,93.7552365 93.6188166,94.7320268 C93.9777234,95.1202228 94.5315393,95.9571897 95.0421098,96.1536408 C95.4361916,96.3051541 95.2790461,96.0557189 95.2446325,95.6515821 C94.9575984,92.282612 94.276787,88.8873776 94.7672575,85.5170411 C95.018203,83.7924004 95.3175711,82.0739843 95.6315575,80.359819 C95.8180916,80.5951353 97.7321598,82.7724941 97.7399257,82.759286 C97.7965711,82.660605 97.6517598,82.2012069 97.6374461,82.0862815 C97.574253,81.5766319 97.5268961,81.0647051 97.4780166,80.5535374 C97.3415802,79.124029 97.2212848,77.6930023 97.1031211,76.2618238 C96.9849575,74.8311008 96.9581575,73.3665226 96.7260939,71.9484004 C95.8572257,66.6376914 94.8615143,61.3401905 93.8015439,56.0645512 C93.217578,53.1578637 92.6308711,50.2394863 91.8459052,47.3787994 C90.8093848,43.601138 89.8677302,39.8063213 88.873237,36.0171218 C87.8513348,32.1240796 86.646553,28.3338174 84.2813007,25.030584 C81.8827007,21.6804392 79.084537,18.5602971 75.9863961,15.8391299 C74.3863143,14.4337603 72.6817734,13.12358 70.8272439,12.0672376 C68.9057143,10.9726373 66.845312,10.3498841 64.705728,9.82019478 C62.1160257,9.17922358 58.8668302,8.35910837 56.1924643,9.08221254 C55.3239007,9.3172252 54.5614711,9.86907984 53.8812689,10.4390007 C53.4479007,10.8021469 53.4628234,10.9632247 52.9731143,10.8718308 C51.0983325,10.5221964 49.2900939,10.4033237 47.5517484,11.3782922 C45.8009166,12.3603961 44.3180848,13.8585259 42.9471734,15.2989652 C41.1304075,17.2079116 39.4613461,19.2603251 37.902378,21.3827261 C35.0128507,25.316759 32.6911484,29.6578131 31.0945689,34.2697086 C29.6976189,38.3057625 29.1278143,42.4274411 28.4942075,46.6241173 C28.0574893,49.5168376 27.6277757,52.4072806 27.4879893,55.3327934 C27.2950598,59.3686955 27.5991484,63.4099111 28.2032143,67.4013307 C29.0009711,72.6742373 30.3225461,77.8423902 30.9858461,83.140802 C31.4652007,86.9709921 31.730003,90.8397436 31.6136666,94.7006007 C31.5073802,98.2254868 31.2217166,102.077994 29.8310098,105.375458 C29.7757348,105.506628 29.7187848,105.636735 29.6551348,105.76411 C31.1155825,104.467441 32.575878,103.170924 34.0363257,101.874407 C35.1783711,104.807207 36.3204166,107.740159 37.462462,110.672959 C38.2376825,112.663735 39.012903,114.654511 39.7881234,116.645438 C40.0590166,117.340912 40.3299098,118.036537 40.600803,118.732162 C40.6679552,118.904778 40.7876416,119.512957 40.9470711,119.62181 C41.0448302,119.688457 41.4180507,119.609816 41.528753,119.60511 C42.0901825,119.581882 42.651612,119.558502 43.2130416,119.535122 C44.1349007,119.496864 45.0564552,119.458607 45.978162,119.420349 C45.7511234,114.666353 45.5164711,109.911142 45.3620666,105.154109 C45.357803,105.023243 45.4015052,103.126746 45.3396825,103.103821 C45.5045939,103.1647 45.6384416,104.526802 45.6705711,104.689853 C45.896087,105.83015 46.1162734,106.971358 46.3361552,108.112718 C46.6533393,109.75978 46.9682393,111.40745 47.2816166,113.055271 C47.5977348,108.42622 48.0560757,103.647781 47.6884893,99.0137205 C47.4654098,96.2008559 46.7617575,93.3846513 46.117187,90.6455697 C45.4512984,87.8167644 44.7940893,84.8992979 43.6422984,82.2195767 C42.1169825,78.671159 40.7456143,75.0419746 39.5674802,71.3643606 C38.7208439,68.7213792 38.323412,65.9847267 37.9587189,63.2401797 C37.6080348,60.601601 37.3076007,57.9533059 37.0756893,55.3015191 C36.9165643,53.4824483 37.4761666,51.677952 37.8390325,49.9039708 C38.7439893,45.4803283 39.3182098,40.6964241 41.3522689,36.6201388 C42.4745189,34.3709706 43.9607007,32.1752419 45.7814257,30.4214524" mask="url(#jenn-b)"/>
    <path fill="#E6DCCB" d="M56.8661798,75.7099085 C57.2943707,75.8242266 57.724998,75.9329276 58.1589752,76.0232587 C58.808723,76.1586794 59.297823,75.9966907 59.9190957,75.9945653 C60.3207911,75.9931989 60.7559866,76.1709766 61.1656002,76.2010363 C61.8040798,76.2479478 62.3065798,76.0449685 62.8640502,75.7530245 C63.4000502,75.4723149 63.8877798,75.7478627 64.4257593,75.5737287 C64.739898,75.4720113 65.015207,75.1109906 65.3039161,74.9482428 C65.5621707,74.8028022 65.858798,74.8091785 66.1097434,74.6746686 C66.3957116,74.5213335 66.3748502,74.2075279 66.6134616,73.9858751 C66.7904025,73.8216092 67.2175275,73.8635106 67.3693434,73.6855812 C67.6189184,73.3931817 67.7453048,72.3482256 67.278132,72.1818342 C67.1120025,72.1226256 66.7613184,72.1771279 66.5697593,72.1825933 C66.3841389,72.187755 66.1896866,72.1812269 66.0089389,72.2290493 C65.6914502,72.313004 65.6523161,72.5052043 65.3957366,72.6378923 C65.0409411,72.821439 64.8714616,72.6193707 64.4782934,72.5921954 C64.1617184,72.5703338 63.9489934,72.6398659 63.6700298,72.7845475 C63.5080116,72.8686541 63.1089048,73.2492592 62.931507,73.2518401 C62.856132,73.2529028 62.6965502,73.0512899 62.6204139,73.010603 C62.3055139,72.8425416 62.008582,72.6899655 61.6382548,72.7092463 C61.2370161,72.730197 60.801973,72.9507871 60.4429139,73.1149012 C60.368148,73.14906 59.9271661,73.4452549 59.832757,73.4212678 C59.7292116,73.3950035 59.5014116,73.0600953 59.411723,72.9875268 C59.2060025,72.8208318 58.9579502,72.656414 58.6869048,72.6324269 C58.1187752,72.5821755 57.5259775,73.0456727 57.1358548,73.4123106 C56.9446002,73.0588808 56.6371616,72.684652 56.2436889,72.5539376 C55.6557639,72.3585491 55.1899616,72.9070638 54.691573,72.858786 C54.3992093,72.8303962 54.0794366,72.3787408 53.7278389,72.3142186 C53.284573,72.2329965 52.7834434,72.3713017 52.3106366,72.3019214 C52.3018048,72.6624867 52.2354139,73.343993 52.4718934,73.6456533 C52.687207,73.920442 53.1303207,73.7177664 53.3258389,73.893874 C53.457098,74.0121394 53.3908593,74.4117217 53.5869866,74.5855521 C53.912698,74.8741561 54.1785661,74.575684 54.452657,74.6963785 C54.5400616,74.73494 54.7253775,75.0914062 54.803798,75.1671629 C55.3376661,75.683796 56.1552184,75.7557572 56.8661798,75.7099085" mask="url(#jenn-b)"/>
    <path fill="#D98E8C" d="M54.947985,77.4177734 C56.5899418,79.1035489 58.9614373,79.0469211 61.1657373,79.0517793 C62.3094577,79.0543602 63.5995123,79.0882153 64.6275055,78.5157136 C65.4409464,78.0626918 66.1371373,77.3442939 66.6710055,76.5883973 C64.8077964,77.6576441 62.8850486,77.5096226 60.8225145,77.5266261 C59.6810782,77.5361906 58.54086,77.6001055 57.3995759,77.6105809 C56.5709077,77.6181717 55.7746736,77.4273378 54.947985,77.4177734" mask="url(#jenn-b)"/>
    <path fill="#B58E7D" d="M61.4916161 66.4650907C61.949957 66.0737066 62.5936139 65.98459 63.1756002 65.9874746 64.2841457 65.9926363 65.3098548 65.8424894 66.1855752 65.0853782 67.2671684 64.1503376 66.2978002 62.3420458 65.7843366 61.2942051 66.5379343 62.2863289 67.3474161 63.2524921 68.2377548 64.1255914 69.306557 65.1737357 70.6320911 65.7984624 71.9181866 66.5364447 73.0708911 67.1977594 74.2637957 67.8663612 74.3872889 69.3075596 74.452157 70.0655817 74.3233343 70.8447063 74.1320798 71.5769195 74.0844184 71.758948 73.8596639 72.8874035 73.629732 72.9435758 73.7742389 72.9083542 73.9003207 71.477024 73.908848 71.3660458 73.9732593 70.5233098 73.8818957 69.6092199 73.2944275 68.9541297 72.1018275 67.6240614 70.1442093 66.7181696 68.6123457 65.8424894 68.3760184 65.7075241 67.6440434 65.1184743 67.371323 65.1491413 67.2996025 65.1571876 67.153573 65.3584969 67.0902275 65.4078374 66.781723 65.6474046 66.4627116 65.8528129 66.1004548 66.0046299 65.3103116 66.3360463 64.484232 66.3146401 63.6473411 66.3632215 62.959982 66.4031494 62.1765389 66.5561809 61.4916161 66.4650907M46.6459236 67.9322498C45.9521691 68.4370412 45.0779714 69.2058423 45.4569782 70.1170476 45.8600441 71.0867026 46.3075736 72.0231096 46.6459236 73.022976 45.7561941 72.2444587 44.4391873 71.1985917 44.0813464 70.0330929 43.7000555 68.791382 45.7554327 68.1835069 46.6459236 67.9322498" mask="url(#jenn-b)"/>
    <path fill="#544B43" d="M45.3084818 52.7725067C46.4249455 52.9545352 47.5735386 53.217634 48.7050773 53.2628755 49.8169727 53.3075097 50.949425 53.211865 52.0617773 53.181198 50.8866886 53.3302822 49.6363773 53.595051 48.4524568 53.4796701 47.1610318 53.353662 45.8731091 53.1233557 44.5891455 52.9360136 44.828975 52.8815113 45.0688045 52.827009 45.3084818 52.7725067M67.6063255 53.1403288C69.0373845 53.3006475 70.4794073 53.4898115 71.9118368 53.2777232 72.7921255 53.1473124 73.6679982 52.9839574 74.5420436 52.8189323 75.1241823 52.7090169 75.2271186 52.669089 75.7469777 52.976822 74.4776323 53.1766131 73.2072209 53.3852096 71.9313277 53.5386965 71.2940664 53.6152123 70.6639618 53.5991197 70.0233505 53.5578255 69.2807164 53.5101549 68.2722141 53.523363 67.6063255 53.1403288" mask="url(#jenn-b)"/>
    <path fill="#FEFEFE" fill-opacity=".1" d="M75.7613066 56.0216629C74.4181089 57.4098771 73.1903339 58.2805474 71.2270816 58.3927401 68.427852 58.5524516 65.7342998 58.2430486 63.1360702 57.1475374 63.785818 58.1460376 64.2261907 59.4367854 65.251443 60.1310443 65.9442839 60.6001587 66.8207657 60.6250567 67.6290293 60.6824435 69.7914543 60.8360823 71.9858566 60.8502012 74.1488907 60.7009652 74.9997907 60.642212 75.9154066 60.5948451 76.7306748 60.3218782 77.6543611 60.0127789 78.2882725 59.1906901 78.8093498 58.4103509 80.1584861 56.3902745 81.2537839 53.8997173 81.6506066 51.5032866 81.6880657 51.2769275 81.8126248 50.8840252 81.688218 50.7378255 81.5429498 50.5670314 80.7243316 50.5444107 80.5138907 50.5090373 79.1049111 50.2725065 77.6076134 50.0930588 76.1866043 50.327616 77.0225816 50.6939504 77.0705475 52.0102034 77.0288248 52.7688327 76.965327 53.9237043 76.5819043 55.1736134 75.7613066 56.0216629M40.388687 51.0853952C40.9840734 54.9441268 42.8650984 58.2938162 46.9332166 59.0721817 48.296362 59.3330033 49.6904189 59.3343696 51.0727507 59.3806738 52.0603916 59.4137699 52.8604325 59.2695438 53.6435711 58.6360116 54.3304734 58.0805134 54.8660166 57.246431 55.7257484 56.934599 54.9978848 57.9368945 54.4696507 59.2860918 53.3152711 59.8880461 52.5718757 60.2756348 51.6366166 60.229027 50.8193689 60.2390469 48.6076075 60.2662221 46.367828 60.1687556 44.1746439 59.8737753 43.395312 59.7690216 42.5177643 59.6770205 41.7985802 59.3331551 40.861037 58.8849914 40.2548393 57.8640224 39.776703 56.9891013 38.6832325 54.9878501 37.4487575 52.2505904 37.4845416 49.9317381 37.4927643 49.3958243 37.9064893 49.3367675 38.4650257 49.2708789 39.6274757 49.13394 40.2263643 50.0331519 40.388687 51.0853952" mask="url(#jenn-b)"/>
    <path fill="#735B4F" d="M55.5237586 61.4326622C55.3952405 61.1393518 55.1814495 60.7204888 54.8622859 60.6004016 54.3785155 60.4182213 53.7123223 60.9580824 53.3389495 61.223003 52.4834814 61.8299672 51.7515064 62.9951623 52.6528086 63.9258003 52.4891155 62.2415429 54.2215223 61.8357362 55.5237586 61.4326622M53.3667393 64.9747188C54.522337 65.2129196 55.7904643 65.0395447 56.6402984 64.165079 56.4012302 66.0445729 58.8618052 66.4013428 60.218403 66.669907 57.7247848 66.9166095 55.2623825 66.8141331 53.3667393 64.9747188" mask="url(#jenn-b)"/>
    <path fill="#B58E7D" d="M64.2320836,61.8545311 C64.3807018,61.2615341 65.3780882,60.925715 65.8327745,61.307231 C66.199295,61.6146603 66.3958791,62.2515325 66.5511973,62.6896762 C66.3640541,62.3719233 66.0806745,61.9779583 65.7092814,61.8750264 C65.2698223,61.7531174 64.7056518,61.9243669 64.2320836,61.8545311" mask="url(#jenn-b)"/>
    <path fill="#FEFEFE" fill-opacity=".1" d="M61.8151195 52.3304613C61.9587127 53.7314282 62.1887968 55.2300134 62.7835741 56.5165103 63.1922741 57.4003886 63.7567491 58.3175148 64.3058445 59.1226002 64.8316423 59.8935267 65.4844355 60.4113743 66.4218264 60.5628876 67.9191241 60.8047321 69.4907309 60.7892467 71.0026468 60.7924349 72.698965 60.7960785 74.4615218 60.8000257 76.1322582 60.4684575 77.82614 60.1321829 78.7355127 58.6647202 79.5101241 57.2356672 80.4784264 55.4490852 81.3177536 53.5147854 81.6506218 51.5033625 81.743965 50.9387552 81.9006536 50.8561668 81.4430741 50.7028317 80.7176468 50.4597727 79.8012695 50.4544591 79.0469105 50.3515272 76.3669105 49.9862556 73.5975264 49.5522109 70.8878332 49.6147595 68.6996741 49.6653146 66.4740559 50.0995111 64.4352764 50.9009528 63.5137218 51.263188 62.6728718 51.8417625 61.8151195 52.3304613M57.2926652 52.191321C57.0773516 53.5827234 56.7700652 55.068556 56.1102675 56.3224123 55.6567993 57.1841253 55.0467948 58.07271 54.4561289 58.8472801 53.8887607 59.5914868 53.2166289 60.0738093 52.2687311 60.1775003 50.7269698 60.3464726 49.1227766 60.2462734 47.5788834 60.1679358 45.898097 60.0826147 44.146047 59.9971417 42.5104857 59.5703843 40.8779698 59.1443859 40.053413 57.6205991 39.3710789 56.1918497 38.5098243 54.388416 37.7790675 52.445159 37.5383243 50.4552941 37.5240107 50.3377878 37.3708243 49.7148828 37.4626448 49.6148354 37.5144175 49.5585113 37.691663 49.587812 37.7741948 49.5630658 38.4635334 49.3570502 39.3531107 49.4059353 40.0655948 49.3449049 42.7529039 49.1149022 45.5257902 48.828879 48.2219311 49.0058976 50.4550107 49.1525528 52.709713 49.7042556 54.7494061 50.6298836 55.651013 51.0390303 56.4611039 51.6595062 57.2926652 52.191321" mask="url(#jenn-b)"/>
    <path fill="#493023" d="M37.0550411,48.8687006 C39.789098,48.5246834 42.5793434,48.3933617 45.3318252,48.5126899 C47.375173,48.601351 49.338273,48.9169784 51.3056366,49.470503 C53.002107,49.9478156 54.6739093,50.5954667 56.3997684,50.9614974 C58.3193184,51.3686705 60.4774798,51.6756444 62.4070798,51.2068336 C64.3863207,50.7261811 66.2763298,49.9763571 68.2983593,49.6555679 C71.2670684,49.1844799 74.4676889,49.5536987 77.4536048,49.7161429 C78.8962366,49.7946322 80.3480048,49.8643162 81.7825661,50.0416384 C81.9878298,50.0669919 82.556873,50.0501402 82.7038161,50.2168352 C82.9017707,50.4416761 82.5855002,51.3815749 82.5270275,51.6771625 C79.761907,51.0651884 76.9754684,50.3291798 74.1537025,50.0375394 C72.0148798,49.8164939 69.7601775,49.7501499 67.6579002,50.266783 C66.5010843,50.551288 65.3465525,50.9221768 64.2419661,51.3674559 C63.8127093,51.5405273 62.9876957,51.77053 62.7046207,52.1792212 C62.3645957,52.6701973 62.7378161,53.7313978 62.8704457,54.2503082 C63.0603298,54.9934522 63.7074889,55.8541025 63.2209775,56.5779658 C62.7067525,55.7472234 62.132532,54.888243 61.7842843,53.9726349 C61.5966843,53.4795335 61.5651639,52.5338656 61.0255093,52.2824567 C60.6035616,52.0860056 59.5974957,52.2861003 59.142048,52.3424244 C58.5679798,52.4136266 58.3056139,52.4905978 58.1161866,53.0441224 C57.9118366,53.641674 57.8357002,54.2806715 57.6741389,54.8900648 C57.4289798,55.8140228 56.5081866,56.2993816 55.740732,56.7911168 C56.3132775,55.495359 57.357107,53.7058925 56.4516934,52.3705106 C55.6722093,51.2208008 54.065732,50.943583 52.8201411,50.5690506 C51.0027661,50.0228131 49.1217411,49.4806748 47.2296002,49.2734446 C45.2288889,49.0542209 43.1850843,49.2608438 41.194423,49.4923647 C39.6710866,49.6695351 38.4180343,50.0420939 37.0550411,50.7840234 L37.0550411,48.8687006 Z" mask="url(#jenn-b)"/>
  </g>
</svg>
