<svg xmlns="http://www.w3.org/2000/svg" xmlns:xlink="http://www.w3.org/1999/xlink" width="120" height="120" viewBox="0 0 120 120">
  <defs>
    <path id="josue-a" d="M120,59.9999233 C120,93.1369885 93.1369885,120 59.9999233,120 C26.8628581,120 0,93.1369885 0,59.9999233 C0,26.8628581 26.8628581,0 59.9999233,0 C93.1369885,0 120,26.8628581 120,59.9999233"/>
  </defs>
  <g fill="none" fill-rule="evenodd">
    <mask id="josue-b" fill="#fff">
      <use xlink:href="#josue-a"/>
    </mask>
    <use fill="#7BCAEC" xlink:href="#josue-a"/>
    <path fill="#3C986F" d="M-9.60003202,121.672601 C-9.1731884,121.03223 -5.1170533,109.291984 -1.70134372,107.584434 C1.71436585,105.876564 17.5114222,95.8441879 22.6348265,93.4962668 C27.7582307,91.1480255 33.3084786,87.9461694 33.9489041,87.0925545 C34.5893297,86.2386195 35.4433371,85.8118121 36.7241882,84.957877 C38.0050393,84.103942 71.093585,87.5193619 73.4417052,89.2269118 C75.7901456,90.9347819 91.587202,96.698123 94.5757478,99.4728515 C97.5646137,102.2479 102.688018,104.595821 105.24972,110.145919 C107.811422,115.695696 110.586386,128.503121 110.586386,128.503121 C110.586386,128.503121 83.475252,148.141065 58.711918,144.725965 C33.9489041,141.310545 -9.60003202,121.672601 -9.60003202,121.672601" mask="url(#josue-b)"/>
    <path fill="#D79F7D" d="M31.6006879,53.7932506 C31.6006879,53.7932506 30.7466804,55.073993 30.4264677,56.5679791 C30.1062549,58.0622854 31.6006879,61.797891 31.9209006,63.1852552 C32.2411134,64.5726195 33.5219645,65.9603039 33.5219645,65.9603039 C33.5219645,65.9603039 33.0951209,67.45429 33.0951209,68.3082251 C33.0951209,69.1621601 33.7355464,70.1227169 34.3759719,70.5495244 C35.0163974,70.9763318 36.830723,71.723645 36.830723,71.723645 L39.5486889,81.8546381 C39.5486889,81.8546381 39.6341857,83.9111903 39.0344272,84.9396265 C38.52689,85.8095708 36.830723,87.5193619 36.830723,87.5193619 C36.830723,87.5193619 44.3025677,98.9394223 47.717957,102.994893 C51.1336666,107.050684 60.4432123,114.386777 63.1118655,116.414513 C65.7801985,118.442568 70.0857794,120.047979 70.0857794,120.047979 C70.0857794,120.047979 73.4720294,114.388698 74.5396187,112.254021 C75.6068879,110.119664 75.1150411,100.601186 75.0084102,98.8933155 C74.9017794,97.1857657 74.1889857,91.5751531 74.1889857,91.5751531 C74.1889857,91.5751531 78.8855464,86.1319977 80.1663974,83.1433852 C81.4472485,80.1550928 83.475156,71.8302668 84.1155815,69.1621601 C84.756007,66.4937332 83.9019996,51.4450093 83.9019996,51.4450093 C83.9019996,51.4450093 81.4472485,32.661 81.1270357,32.3408144 C80.806823,32.0206288 62.1275315,25.0831671 52.0943049,28.6052088 C42.0610783,32.1272506 31.6006879,53.7932506 31.6006879,53.7932506" mask="url(#josue-b)"/>
    <path fill="#A67860" d="M33.4797604 57.9259503C33.4797604 57.9259503 32.95237 59.8595513 33.4797604 61.6176905 34.0071509 63.3758297 35.4138455 64.6940339 35.4138455 64.6940339 35.4138455 64.6940339 35.325787 61.2661267 34.7983966 59.6837694 34.2710062 58.1017323 33.4797604 57.9259503 33.4797604 57.9259503M32.5127819 55.9919972C32.5127819 55.9919972 31.8095947 57.8381875 31.7215362 58.6290459 31.6337979 59.4202246 32.2492468 62.0569531 32.5127819 62.6723499 32.7766372 63.2877466 33.8314181 64.9578348 33.6556213 64.6940019 33.4798245 64.4301689 30.9306106 61.6176585 31.0183489 59.3324937 31.1064074 57.0470088 31.897333 54.673793 31.897333 54.673793L32.5127819 55.9919972z" mask="url(#josue-b)"/>
    <path fill="#B26B64" d="M55.9044205,76.9532367 C55.9044205,76.9532367 59.9128439,75.3628747 61.2737482,74.8825963 C62.6346524,74.4023179 63.7553971,74.1839513 64.8761418,74.3440441 C65.9968865,74.5041369 66.9575248,74.3917517 67.6780035,74.2316589 C68.3984822,74.0715661 69.0389078,73.8314269 70.4798652,74.1516125 C71.9208227,74.4717981 73.4738546,75.2828283 73.4738546,75.2828283 C73.4738546,75.2828283 72.5612482,77.1933759 71.8407695,78.3140255 C71.1202907,79.4346752 69.7593865,81.2757425 67.9982163,81.5158817 C66.2370461,81.7560209 63.4351844,81.7560209 61.593961,81.1156497 C59.7527376,80.4752784 57.5112482,78.5541647 57.1910354,78.1539327 C56.8708227,77.7537007 55.9044205,76.9532367 55.9044205,76.9532367" mask="url(#josue-b)"/>
    <path fill="#A67860" d="M68.2475339 56.4460204C68.2475339 56.4460204 68.5037041 54.7173383 69.0800871 53.7571016 69.6561499 52.7965448 70.360618 51.5798394 71.0010435 51.1315796 71.641469 50.6833197 75.2915744 49.8508371 75.2915744 49.8508371 75.2915744 49.8508371 73.1781701 51.1315796 73.3702978 51.7716306 73.5624254 52.4120019 76.1238073 53.5009531 76.1238073 53.5009531L76.6777754 56.5155007C76.6777754 56.5155007 75.5477446 56.8942803 75.0994467 57.6627258 74.6511488 58.4311712 76.2518924 59.1996167 76.2518924 59.1996167 76.2518924 59.1996167 75.2275318 60.0958162 72.7301924 59.1352594 70.2325329 58.1747026 69.3362573 58.1109856 68.2475339 56.4460204M71.2323012 66.4940854C70.9985459 66.8446886 71.107098 67.3268882 70.3814959 67.0960343 68.3852895 66.4607861 68.4394054 67.9791063 67.3779001 68.0706794 64.7092469 68.301213 64.4924629 66.6167165 64.4924629 66.6167165 64.4924629 66.6167165 62.9961086 65.9536121 62.7793246 64.4365726 62.4408597 62.0678394 63.0908916 61.6339879 63.4024586 58.5198626 63.5315044 57.2295146 63.4248735 56.7447536 63.0335735 54.4813615 62.8481703 53.4100204 61.4805416 51.1427861 61.1571267 50.7678487 59.3280714 48.646619 57.5163076 48.5015749 57.4535459 48.9094914L53.5290182 50.7463963C53.5290182 50.7463963 55.4304416 52.4837234 54.1387033 52.5759369 52.4313288 52.6979276 49.7629959 53.6152594 48.6954065 54.011329 47.6278171 54.4077188 46.5394139 55.6244241 46.8593065 56.2004381 47.1795193 56.7767722 48.4466462 57.5143666 50.8786621 57.956543 54.9527291 58.6971323 51.9384308 60.8701496 56.3442383 59.6114999 58.5537064 58.9800939 60.4664278 58.3949903 61.3780735 57.4296306 61.3716693 57.456206 61.3623831 60.0122478 60.1945671 64.2166051 60.1510182 64.3734961 60.1225193 64.5185401 60.1004246 64.6581411 59.7629203 65.2607304 58.9806405 66.7396677 59.026431 67.428387 59.0847097 68.3044148 60.1359682 69.5307258 60.6617576 69.9396028 61.1872267 70.3481596 61.8878522 70.5815749 62.4136416 70.4650274 62.9391107 70.3481596 63.8232182 70.2248882 64.5238437 69.9911527 65.2247895 69.7574172 65.7425735 69.7641411 65.7425735 69.7641411 65.7425735 69.7641411 66.3266416 70.1730181 66.9689884 70.1730181 67.6113352 70.1730181 68.0157639 70.0772826 68.4874373 69.5889995 68.9587905 69.1003963 69.5969746 68.8298394 69.5969746 68.8298394 69.5969746 68.8298394 70.706832 68.9467072 71.0571448 68.6546979 71.4074576 68.3626886 71.6408927 67.8955378 71.874648 67.01951 72.1084033 66.1438023 71.4074576 64.4503406 71.4074576 64.4503406 71.4074576 64.4503406 71.4657363 66.1438023 71.2323012 66.4940854z" mask="url(#josue-b)"/>
    <path fill="#4F392E" d="M78.1123927 54.3619963L79.1562863 55.4061216C79.1562863 55.4061216 78.9824107 56.3919731 77.9964756 56.4499267 77.0105405 56.5078803 75.8507299 56.3919731 75.8507299 56.3919731L78.1123927 54.3619963zM69.5289294 55.4638831C69.5289294 55.4638831 70.9208943 54.5363053 71.5587581 54.245897 72.1969421 53.956129 72.9689751 53.9391592 72.9689751 53.9391592L72.0227464 55.927832 73.3385006 56.8227508C73.3385006 56.8227508 71.2106868 56.4497346 70.8049772 56.3338274 70.3989474 56.2176 69.8190421 56.0440594 69.8190421 56.0440594L69.5289294 55.4638831zM57.2711847 55.0470974C57.2711847 55.0470974 58.8578389 55.5798863 59.0317145 55.7540673 59.20559 55.9279281 59.089673 56.3339234 59.089673 56.3339234 59.089673 56.3339234 57.9878209 57.0296868 57.8139453 57.0296868 57.6397496 57.0296868 55.7146304 57.0175197 55.7146304 57.0175197L57.2711847 55.0470974zM48.6610156 55.9000719C48.6610156 55.9000719 49.8102593 56.9137796 50.3322061 57.1459142 50.8541529 57.3774084 51.1442656 57.5515893 51.1442656 57.5515893 51.1442656 57.5515893 49.4045497 57.1459142 48.8243241 56.8555058 48.2444188 56.5657378 47.657789 55.9593063 47.657789 55.9593063L48.6610156 55.9000719z" mask="url(#josue-b)"/>
    <path fill="#AAA3A4" d="M48.6618802,56.1514817 C48.6618802,56.1514817 50.1707228,57.1402148 51.3029951,57.2961452 C52.4349472,57.4523958 55.4017185,57.0620896 55.9483217,56.9452218 C56.4949249,56.8277137 57.9003387,56.3983448 57.9003387,56.3983448 L57.9784706,55.7349202 C57.9784706,55.7349202 56.1436515,54.2515002 54.1135026,54.0952497 C52.0836738,53.9393193 50.0144589,54.9933703 49.6241196,55.1493007 C49.2337802,55.3052311 48.6618802,56.1514817 48.6618802,56.1514817" mask="url(#josue-b)"/>
    <path fill="#D8CECD" d="M49.2120057,56.422871 C49.2120057,56.422871 51.6523472,55.355052 53.1397355,55.3169499 C54.6268036,55.2788478 56.2281877,56.0031077 56.4571398,56.0031077 C56.6857717,56.0031077 57.4104132,56.4606529 57.4104132,56.4606529 C57.4104132,56.4606529 55.0462823,57.2995392 53.0632047,57.3376413 C51.0804472,57.3760636 49.9747526,57.1090288 49.2120057,56.422871" mask="url(#josue-b)"/>
    <path fill="#AAA3A4" d="M70.5097411,55.5395749 C70.5097411,55.5395749 71.4857496,54.4077188 72.9689751,53.9392872 C74.4525209,53.4708557 75.7798028,53.3536677 76.9120751,53.9392872 C78.0440272,54.5249067 78.5906304,55.227394 78.5906304,55.227394 L78.3953006,55.8520761 C78.3953006,55.8520761 77.6146219,56.3986329 76.6776794,56.5155007 C75.7407368,56.6326886 74.999124,56.9842524 73.749974,56.7108139 C72.500824,56.4376956 71.2993857,55.8197374 71.0262443,55.8978626 C70.7527826,55.9756677 70.5097411,55.5395749 70.5097411,55.5395749" mask="url(#josue-b)"/>
    <path fill="#D8CECD" d="M70.8709411,55.7365531 C70.8709411,55.7365531 72.6228251,54.6997921 74.15024,54.8214626 C75.6776549,54.942813 77.315223,55.2405856 77.7347017,55.4695183 C78.1541804,55.698451 78.3956209,55.85182 78.3956209,55.85182 C78.3956209,55.85182 77.6203857,56.6897457 74.7986709,56.6897457 C71.9766357,56.6897457 70.8709411,55.7365531 70.8709411,55.7365531" mask="url(#josue-b)"/>
    <path fill="#432A1E" d="M54.8691406,54.760051 C55.2607609,55.7519861 54.7743577,56.8735963 53.7823385,57.2651833 C52.7903194,57.6570905 51.6682938,57.1700882 51.2766736,56.1784733 C50.8847332,55.1865383 51.3714566,54.0646079 52.3634757,53.6730209 C53.3554949,53.2814339 54.4772002,53.7677958 54.8691406,54.760051" mask="url(#josue-b)"/>
    <path stroke="#331C10" stroke-width=".5" d="M54.8691406,54.760051 C55.2607609,55.7519861 54.7743577,56.8735963 53.7823385,57.2651833 C52.7903194,57.6570905 51.6682938,57.1700882 51.2766736,56.1784733 C50.8847332,55.1865383 51.3714566,54.0646079 52.3634757,53.6730209 C53.3554949,53.2814339 54.4772002,53.7677958 54.8691406,54.760051 Z" mask="url(#josue-b)"/>
    <path fill="#331C10" d="M55.0410309,55.2034441 C55.0410309,55.2034441 54.1063298,54.9527387 53.0854915,55.0491146 C52.1427851,55.137806 51.0950489,55.5607712 51.117784,55.6613095 C50.9916202,54.5781216 51.7671755,53.597393 52.8507755,53.4712399 C53.9340553,53.3447666 54.9145468,54.1202561 55.0410309,55.2034441" mask="url(#josue-b)"/>
    <path fill="#000" d="M53.8117981,55.177477 C53.9728651,55.5853935 53.7727321,56.046781 53.3647811,56.2081545 C52.9565098,56.3692079 52.4950832,56.1690919 52.3340162,55.7608552 C52.1726289,55.3529387 52.3730821,54.8912311 52.7810332,54.7304979 C53.1893045,54.5691244 53.6507311,54.7695606 53.8117981,55.177477" mask="url(#josue-b)"/>
    <path fill="#FEFEFE" d="M54.2673328,54.9154371 C54.2724562,55.1040265 54.1238774,55.2605972 53.9355923,55.2660404 C53.7473072,55.2708432 53.590403,55.122277 53.5852796,54.9343281 C53.5801562,54.7460589 53.7287349,54.5888478 53.91702,54.584045 C54.1053051,54.5786019 54.2622094,54.727168 54.2673328,54.9154371" mask="url(#josue-b)"/>
    <path fill="#432A1E" d="M76.1571735,54.3463712 C76.5487937,55.3383063 76.0623905,56.4602367 75.0703714,56.8515035 C74.0783522,57.2434107 72.9563267,56.7567285 72.5647065,55.7647935 C72.1727661,54.7728585 72.6594895,53.6512483 73.6515086,53.2593411 C74.6435278,52.8677541 75.7652331,53.3544362 76.1571735,54.3463712" mask="url(#josue-b)"/>
    <path stroke="#331C10" stroke-width=".5" d="M76.1571735,54.3463712 C76.5487937,55.3383063 76.0623905,56.4602367 75.0703714,56.8515035 C74.0783522,57.2434107 72.9563267,56.7567285 72.5647065,55.7647935 C72.1727661,54.7728585 72.6594895,53.6512483 73.6515086,53.2593411 C74.6435278,52.8677541 75.7652331,53.3544362 76.1571735,54.3463712 Z" mask="url(#josue-b)"/>
    <path fill="#331C10" d="M76.3290957,54.7900524 C76.3290957,54.7900524 75.3943947,54.5390269 74.3735564,54.6354028 C73.43085,54.7240942 72.3831138,55.1470594 72.4058489,55.2475977 C72.2796851,54.1644097 73.0552404,53.1840014 74.1388404,53.0575281 C75.2221202,52.9310548 76.2026117,53.7068645 76.3290957,54.7900524" mask="url(#josue-b)"/>
    <path fill="#000" d="M75.099831,54.7637972 C75.260898,55.1717137 75.060765,55.6334213 74.6528139,55.7944747 C74.2445427,55.9558483 73.7831161,55.7554121 73.622049,55.3471754 C73.4606618,54.9392589 73.661115,54.4778715 74.0690661,54.3168181 C74.4773373,54.1557647 74.9387639,54.3558807 75.099831,54.7637972" mask="url(#josue-b)"/>
    <path fill="#FEFEFE" d="M75.5553656,54.5020775 C75.560489,54.6903466 75.4119103,54.8472376 75.2236252,54.8523606 C75.0353401,54.8574835 74.8784359,54.7089174 74.8733124,54.5206483 C74.868189,54.3323791 75.0167678,54.1754882 75.2050529,54.1703652 C75.393338,54.1652422 75.5502422,54.3134882 75.5553656,54.5020775" mask="url(#josue-b)"/>
    <path fill="#57392B" d="M70.0816486,53.5118074 C70.0816486,53.5118074 70.271855,52.8394176 71.5764018,52.3127123 C72.9164922,51.7715986 74.3010922,51.763594 75.8000082,51.8634919 C77.2992444,51.9633898 78.5445518,52.6626752 78.844271,52.9623689 C79.1443103,53.2620626 79.8753561,54.5111067 79.8753561,54.5111067 C79.8753561,54.5111067 78.6870465,53.2089118 78.3873273,53.009116 C78.0876082,52.8093202 77.2268763,52.4126102 75.9277731,52.3127123 C74.6286699,52.2128144 72.8803082,52.3440905 71.9609773,52.6777239 C71.0573369,53.005594 70.0816486,53.5118074 70.0816486,53.5118074" mask="url(#josue-b)"/>
    <path fill="#A67860" d="M50.1723238,54.8810492 C50.1723238,54.8810492 51.5886249,54.128613 53.1378143,54.0402418 C54.6866834,53.9518705 55.8817174,54.5272441 55.8817174,54.5272441 C55.8817174,54.5272441 55.1234536,53.1424413 54.0420951,52.9938752 C52.9607366,52.8456292 51.1902802,53.3323114 51.1902802,53.3323114 L50.1723238,54.8810492 Z" mask="url(#josue-b)"/>
    <path fill="#1D0500" d="M47.2914977,56.0930158 C47.2914977,56.0930158 48.4657179,55.3991735 48.839086,55.1859299 C49.2127743,54.9723661 50.119937,54.4386167 51.2406817,54.1184311 C52.3614264,53.7982455 53.8023838,53.5315309 54.869653,53.8517165 C55.9369221,54.1719021 57.2712487,54.8657443 57.2712487,54.8657443 L57.8047232,55.3991735 C57.8047232,55.3991735 55.7768157,54.7802548 55.1898657,54.4600691 C54.6029157,54.1398835 52.9483764,54.3377582 51.6675253,54.6579439 C50.3869945,54.9781295 49.2662498,55.5592664 48.839086,55.8263012 C48.4122423,56.0930158 47.2914977,56.0930158 47.2914977,56.0930158" mask="url(#josue-b)"/>
    <path fill="#57392B" d="M46.9466605,54.9607754 C46.9466605,54.9607754 47.6741839,54.1564691 48.9675233,53.526664 C50.5756318,52.7428497 53.7489403,52.2196664 54.5485116,52.2699355 C55.3480829,52.3198845 57.7093318,52.7354854 58.0590041,52.8353833 C58.4089967,52.9356014 58.9335052,54.1074807 58.9335052,54.1074807 C58.9335052,54.1074807 56.3903754,52.912548 55.7409839,52.8622789 C55.0912722,52.8123299 54.2282988,52.753736 53.7284467,52.8036849 C53.2289148,52.8536339 50.2064265,53.3560051 48.6719669,54.1916896 C48.2396797,54.427026 46.9466605,54.9607754 46.9466605,54.9607754" mask="url(#josue-b)"/>
    <path fill="#A67860" d="M51.2717285 57.2820891C51.2717285 57.2820891 52.2637487 57.3320381 53.0575562 57.2820891 53.8516838 57.2327805 54.8433838 57.0996094 54.8433838 57.0996094 54.8433838 57.0996094 53.8042411 57.7534023 53.2832549 57.8776343 52.7622687 58.0015462 51.7945857 57.4309754 51.7945857 57.4309754L51.2717285 57.2820891zM74.3854043 56.7115824C74.8833351 56.742 76.2619629 56.5873503 76.1345665 56.7115824 76.0071701 56.8358144 75.6632133 57.1332668 74.521975 57.406065 73.2385622 57.713123 72.7780963 56.795471 72.636242 56.5873503 72.636242 56.5873503 73.5669404 56.6622738 74.3854043 56.7115824zM72.3384762 53.9086135C72.3384762 53.9086135 73.3061591 53.5365578 74.3481315 53.486929 75.390424 53.43698 76.3577868 53.5858664 76.3577868 53.5858664 76.3577868 53.5858664 75.6385889 52.5686367 74.3481315 52.6682144 73.0579943 52.7674719 72.3384762 53.9086135 72.3384762 53.9086135" mask="url(#josue-b)"/>
    <path fill="#1D0500" d="M70.5595662,54.8122733 C70.5595662,54.8122733 72.16063,53.6381527 73.7082183,53.3714381 C75.2558066,53.1047234 76.2699204,53.3179671 77.0169768,53.5850019 C77.7640332,53.8517165 78.8316226,54.5987095 78.8316226,54.5987095 C78.8316226,54.5987095 79.5252034,55.3460227 79.7919406,55.5592664 C80.0589981,55.7728302 80.1121534,55.986394 80.1121534,55.986394 C80.1121534,55.986394 78.5114098,55.1859299 78.191197,54.8657443 C77.8709843,54.5455587 76.5901332,53.6916237 75.522864,53.6381527 C74.4552747,53.5850019 72.8010555,53.7982455 72.0539991,54.1719021 C71.3066226,54.5455587 70.5595662,54.8122733 70.5595662,54.8122733" mask="url(#josue-b)"/>
    <path fill="#2F1A16" d="M69.5873362 51.8264784C69.5873362 51.8264784 71.1189138 51.5098148 72.280966 51.0871698 73.4426979 50.664845 75.8721521 50.2425202 76.9813691 50.0311977 78.0905862 49.819555 79.4636585 50.1896896 80.1505149 50.5591838 80.8370511 50.928678 81.7874426 51.5626455 82.0516181 51.7211374 82.3157936 51.879309 82.6328043 51.9849703 82.6328043 51.2988125 82.6328043 50.6120144 82.8966596 49.7670445 82.2101234 48.9749053 81.5235872 48.1827661 80.9427213 47.3906269 80.3087 47.232135 79.6749989 47.0736432 76.6646787 47.65478 75.7668021 47.4962882 74.8689255 47.3374761 72.4391511 47.6019494 71.9111202 47.5491188 71.3830894 47.4962882 69.5345011 47.9714436 69.2174904 48.3937684 68.9008 48.8164135 68.7422947 50.5063531 68.6894596 50.7705063 68.6366245 51.0343392 69.5873362 51.8264784 69.5873362 51.8264784M61.0841182 51.5625814C61.0841182 51.5625814 60.8199427 49.555658 60.0277363 48.9220107 59.2355299 48.2880432 57.4397767 48.2355327 56.7532405 48.1298715 56.0667044 48.0242102 52.5808682 48.1298715 51.7886618 47.9713796 50.9964554 47.8128877 49.2535373 47.6018854 48.4084959 47.7075466 47.5634544 47.8128877 45.2396703 50.2424561 44.8169895 50.7704422 44.3946288 51.2987485 43.4967522 53.3053517 43.9191129 53.0940292 44.3417937 52.8827067 46.6127427 51.4569202 48.2499905 51.2459179 49.8872384 51.0345954 55.1688278 51.1930872 55.7496937 51.087426 56.3308799 50.9817647 57.7567873 51.6682427 58.8660044 51.8264144 59.9749012 51.9849063 60.5560873 51.9849063 61.0841182 51.5625814" mask="url(#josue-b)"/>
    <path fill="#4B2D20" d="M63.9952045 69.6233555C63.9952045 69.6233555 62.427763 69.7101258 61.9051757 69.2749935 61.3825885 68.8395411 61.3825885 68.4040886 61.3825885 68.4040886 61.3825885 68.4040886 62.9503502 67.7947754 63.646813 68.2299077 64.343596 68.6653601 65.4755481 69.1008125 65.6497438 69.536265 65.8239396 69.9717174 63.9952045 69.6233555 63.9952045 69.6233555M68.9588866 69.1008445C68.9588866 69.1008445 69.4814738 68.2299397 69.8295451 68.0557587 70.1779366 67.8815777 70.9618174 67.6206265 70.9618174 67.9686682 70.9618174 68.3170302 70.5263281 68.8395731 68.9588866 69.1008445" mask="url(#josue-b)"/>
    <path fill="#623F30" d="M59.5520922,65.7933271 C59.4938135,66.0267425 59.0849018,67.078232 59.2600582,67.6036566 C59.4352146,68.1290812 60.0192827,68.8299675 60.4864731,69.3553921 C60.9536635,69.8811369 62.4138337,70.4651555 62.4138337,70.4651555 C62.4138337,70.4651555 61.1288199,70.4065615 60.3695954,69.8811369 C59.610371,69.3553921 58.6759901,68.5965522 58.7928678,67.7205244 C58.9097454,66.8444965 59.5520922,65.7933271 59.5520922,65.7933271" mask="url(#josue-b)"/>
    <path fill="#CD7B73" d="M69.2790994,80.2351392 C69.2790994,80.2351392 65.6767057,81.1956961 64.8761738,80.9555568 C64.0756419,80.7154176 61.9942589,79.5147216 62.6346845,78.8743503 C63.27511,78.2339791 64.7160674,78.5541647 66.3171313,78.3140255 C67.9181951,78.0738863 70.399844,76.9532367 70.6400036,76.8731903 C70.8801632,76.7931439 72.8510728,75.6270278 72.8510728,75.6270278 C72.8510728,75.6270278 72.1610143,79.194536 69.2790994,80.2351392" mask="url(#josue-b)"/>
    <path fill="#CD7B73" d="M69.118993,76.4729582 C69.118993,76.4729582 67.1176632,76.7130974 66.3971845,76.3929118 C65.6767057,76.0727262 65.8368121,74.8720302 66.2370781,74.7919838 C66.637344,74.7119374 68.5586206,73.9915197 69.5192589,74.0715661 C70.4798972,74.1516125 73.2017057,75.1922158 73.2017057,75.1922158 C73.2017057,75.1922158 72.7197855,76.0631206 71.1193621,75.9875568 C69.5192589,75.9126334 69.118993,76.4729582 69.118993,76.4729582" mask="url(#josue-b)"/>
    <path fill="#653732" d="M55.0305599,76.3485021 C55.0305599,76.3485021 57.4833897,76.9792677 58.9265886,77.0509893 C60.3694673,77.1233513 65.2754471,76.9975183 66.8627418,76.9257968 C68.4500365,76.8534348 70.5423067,76.1691981 71.1193301,76.1691981 C71.6966737,76.1691981 72.5622088,75.8435694 72.8510407,75.6271239 C73.1395524,75.4106784 73.9045407,74.3716761 74.1206844,74.8766088 C74.3371482,75.3815415 74.0054078,75.6271239 73.644528,75.8435694 C73.2839684,76.0600148 70.5423067,76.4925856 69.8208673,76.7090311 C69.099428,76.9257968 68.2335727,77.214284 65.9968865,77.2863258 C63.7605205,77.3583675 62.2142131,77.7851749 59.7613833,77.7131332 C57.3082333,77.6407712 56.3943461,77.7934998 55.239979,77.3606088 C54.085612,76.9280381 54.5255844,76.2040984 55.0305599,76.3485021" mask="url(#josue-b)"/>
    <path fill="#A67860" d="M76.9523899 75.5452204C76.9523899 75.5452204 78.3017665 74.7863805 77.9642622 73.0999629 77.6270782 71.4135452 76.5553261 71.3082042 76.5553261 71.3082042 76.5553261 71.3082042 77.3286399 72.648181 77.3286399 73.2667796 77.3286399 74.2785661 76.9523899 75.5452204 76.9523899 75.5452204M52.4977089 76.7255847C52.4977089 76.7255847 51.4858366 75.7983271 52.1605249 74.6178028 52.834893 73.4369582 53.0881813 72.2567541 53.0881813 72.2567541 53.0881813 72.2567541 51.1486526 73.2685406 51.1486526 74.5332738 51.1486526 75.7983271 52.4977089 76.7255847 52.4977089 76.7255847" mask="url(#josue-b)"/>
    <path fill="#513020" d="M35.2378886,63.9910343 C35.2378886,63.9910343 35.8398886,68.125271 35.5869205,68.4624265 C35.3339524,68.7999021 37.0006599,75.7853916 37.0006599,76.1225471 C37.0006599,76.4597026 39.6280056,82.6280784 39.5437897,82.8810251 C39.4595737,83.1339717 41.123079,86.4421295 42.2098812,87.7715401 C43.2966833,89.1009508 49.630812,93.3363661 49.630812,93.3363661 C49.630812,93.3363661 54.2479599,95.609684 56.0395503,96.2878371 C57.8311407,96.9656701 60.5756844,97.1135958 62.1953205,97.2993035 C64.2853493,97.5394427 66.4032365,97.0514798 68.4289024,96.7108023 C70.4542482,96.3701248 73.3656227,93.8422594 73.6185907,93.4208951 C73.8715588,92.9995309 78.2952982,87.5185935 78.2952982,87.5185935 C78.2952982,87.5185935 81.1621631,82.3751318 81.4151312,82.0376561 C81.6684195,81.7008209 83.5884152,76.2195633 83.6726312,75.9666167 C83.7568471,75.7136701 84.2631035,69.7271596 84.2631035,69.7271596 L84.5416886,65.5958046 L84.5416886,58.7659253 L84.1202886,59.8619206 C84.1202886,59.8619206 83.807761,65.7715865 83.7827844,66.8605378 C83.758128,67.9491689 82.5179439,72.905322 82.0962237,73.2424775 C81.6748237,73.5796329 79.593761,77.2399949 79.2783514,78.4061109 C78.963262,79.5722269 78.8956971,82.0488626 78.6388865,83.2441155 C78.3820759,84.4390483 76.1092056,85.3714288 76.1092056,85.3714288 C76.1092056,85.3714288 72.4831163,87.1423754 71.808428,87.0578464 C71.1340599,86.9733174 68.6911567,85.6973777 67.8480365,85.5289601 C67.0049163,85.3602223 65.4160205,85.4892571 63.5443769,85.6179717 C61.6727333,85.7466863 55.1442354,88.0363336 54.0497482,88.162807 C52.9549407,88.2892803 50.0093035,86.7533499 49.3029141,86.141155 C48.5962046,85.5289601 48.3054514,84.7297768 48.2478131,83.3286445 C48.2225163,82.7151689 49.4060227,80.8744218 47.984278,78.0545471 C46.5622131,75.2343522 43.5794312,72.3917443 43.1493854,71.8138093 C41.6757663,69.8328209 39.0685939,67.2258696 38.3308237,65.9326399 C37.7624461,64.9365425 36.8597663,62.1819856 36.8597663,62.1819856 L35.2378886,63.9910343 Z" mask="url(#josue-b)"/>
    <path fill="#2B1712" d="M36.820188,62.7603049 C36.9079263,62.4087411 37.0837231,58.8047318 37.3475784,56.5195671 C37.6114337,54.2340821 37.6114337,50.7184441 38.9300699,48.9603049 C40.2483859,47.2021657 42.4460061,45.5320775 42.7098614,44.9170009 C42.9737167,44.3019244 43.4130486,41.4010427 43.4130486,41.4010427 L46.1380593,36.5665601 C46.1380593,36.5665601 47.0170433,36.830393 48.3356795,36.2153165 C49.6543156,35.5999197 51.2364869,34.1933443 51.2364869,34.1933443 C51.2364869,34.1933443 52.1196337,35.0841007 55.1084997,35.4356645 C58.0973656,35.7872283 61.0426827,34.7495067 62.0097252,33.5187132 C62.9767678,32.2882399 64.1529093,31.4772097 64.1529093,31.4772097 C64.1529093,31.4772097 65.8289029,32.4355253 67.147539,32.7870891 C68.4661752,33.1386529 68.8706039,33.2478362 68.8706039,33.2478362 C68.8706039,33.2478362 68.7297103,33.9298316 71.2792444,35.2480357 C73.828138,36.5665601 75.4884412,35.7513675 75.4884412,35.7513675 C75.4884412,35.7513675 76.4654103,36.9184441 78.5752922,37.0061749 L80.6848539,37.094226 C80.6848539,37.094226 82.0034901,45.005052 82.5308805,46.3232561 C83.058271,47.6417805 83.9375752,55.1129916 83.9375752,55.3768246 C83.9375752,55.6406575 84.1200965,59.8616645 84.1200965,59.8616645 L85.0800944,56.2560543 L85.0800944,51.9485972 C85.0800944,50.7184441 86.5745273,48.2571773 86.6625859,47.9933443 C86.7503241,47.7298316 88.4205539,46.2355253 87.6293082,44.5654371 C86.8383827,42.895349 86.6625859,40.8740172 86.6625859,40.8740172 L88.3328156,42.1922213 L87.0141795,39.0278269 L88.7721476,39.2916599 L87.7173667,37.3577387 C87.7173667,37.3577387 88.6844093,37.4454696 90.5304359,36.0392144 C92.3764624,34.6329592 93.0796497,31.6443466 93.0796497,31.6443466 C93.0796497,31.6443466 89.2117997,33.4024858 88.8602061,33.2267039 C88.5086124,33.050922 90.793971,30.1500404 91.1455646,29.2711309 C91.4971582,28.3922213 91.3216816,26.7221332 91.3216816,26.7221332 C91.3216816,26.7221332 88.8602061,29.7107457 88.1570188,29.5346436 C87.4538316,29.3591819 87.0141795,25.315878 87.0141795,25.315878 C87.0141795,25.315878 86.6625859,27.8648756 85.8713401,28.3922213 C85.0800944,28.9198872 84.8165593,26.4583002 84.8165593,26.4583002 L83.9375752,24.6124302 C83.9375752,24.6124302 84.2891688,21.7999197 83.8495167,20.9210102 C83.4101848,20.0417805 82.0034901,18.7235763 82.0034901,18.7235763 L81.3003029,20.5691262 C81.3003029,20.5691262 80.245522,17.5808339 79.7178114,17.141219 C79.190421,16.7016042 76.9050624,15.5591819 76.9050624,15.5591819 L75.498688,13.361748 C75.498688,13.361748 73.6526614,13.273697 72.5975603,13.0101842 C71.5427795,12.7463513 73.9161965,11.515878 73.9161965,11.515878 C73.9161965,11.515878 72.2459667,11.3400961 71.1911859,11.4281471 C70.136405,11.515878 67.8507263,12.3947875 67.8507263,12.3947875 C67.8507263,12.3947875 67.0598007,11.3400961 65.8289029,10.9885323 C64.5983252,10.6369684 61.4336624,10.4608664 61.4336624,10.4608664 L60.2030848,10.7246993 C60.2030848,10.7246993 58.1812614,9.05493132 57.7416093,8.35148353 C57.3022773,7.64835592 56.159438,7.20874107 56.159438,7.20874107 L56.3352348,8.87882923 C56.3352348,8.87882923 54.5769465,8.52726543 53.786021,8.70304733 C52.9947752,8.87882923 50.7094167,10.2850845 50.7094167,10.2850845 L53.3463688,10.7246993 C53.3463688,10.7246993 52.7309199,11.8674418 51.5003422,11.4281471 C50.2697646,10.9885323 48.5995348,11.163994 48.5995348,11.163994 L49.302722,12.0432237 C49.302722,12.0432237 48.9511284,13.0982353 47.7205507,12.9221332 C46.4896529,12.7463513 43.6769039,12.3070566 43.2372518,12.5705694 C42.7975997,12.8340821 41.7428188,13.4494789 41.7428188,13.4494789 C41.7428188,13.4494789 43.6769039,13.1859661 44.0284976,13.5375299 C44.3800912,13.8890937 43.4130486,14.7680032 43.4130486,14.7680032 C43.4130486,14.7680032 41.3031667,14.5041703 40.3364444,14.6802724 C39.3694018,14.8560543 38.5781561,15.8226947 38.5781561,15.8226947 L39.4574603,16.3503606 C39.4574603,16.3503606 37.1717816,17.141219 36.6443912,17.4927828 C36.1170007,17.8446668 35.6773486,18.5477944 35.6773486,18.5477944 C35.6773486,18.5477944 37.699172,18.1959104 37.4356369,18.4597434 C37.1717816,18.7235763 35.5015518,20.1298316 35.2380167,20.5691262 C34.9741614,21.0090613 34.5345093,22.7668803 33.5677869,24.3489174 C32.6007444,25.9312747 33.1281348,26.6344023 33.1281348,26.6344023 C33.1281348,26.6344023 31.9852954,28.0403374 31.7217603,28.3044905 C31.457905,28.5680032 30.4908624,33.9298316 29.963472,34.8087411 C29.4360816,35.6876506 29.084488,39.4674418 29.3483433,40.609864 C29.6118784,41.7529267 30.3150656,50.2788292 30.6666593,50.9819568 C31.0185731,51.6850845 31.6337018,55.7283884 31.6337018,55.7283884 C31.6337018,55.7283884 33.7435837,57.7503606 34.0071188,58.4534882 C34.2709741,59.1562956 34.8861029,61.7056135 34.8861029,61.7056135 L35.2380167,63.9910984 L36.820188,62.7603049 Z" mask="url(#josue-b)"/>
    <path fill="#A67860" d="M63.8307112,117.057413 L68.989659,119.206819 C68.989659,119.206819 73.0022452,114.334875 74.0051516,111.468894 C75.0083782,108.603232 74.7217878,99.5755991 74.7217878,99.5755991 L74.5783324,94.2739657 C74.5783324,94.2739657 76.0628388,108.004165 75.5943676,110.964922 C75.1258963,113.925998 69.8126059,120.818634 69.8126059,120.818634 L63.8307112,117.057413 Z" mask="url(#josue-b)"/>
  </g>
</svg>
