<svg xmlns="http://www.w3.org/2000/svg" width="210" height="210" viewBox="0 0 210 210" xmlns:xlink="http://www.w3.org/1999/xlink">
  <defs>
    <path id="a" d="M209.829747,104.914927 C209.829747,162.857762 162.857602,209.829908 104.914766,209.829908 C46.971931,209.829908 5.36398467e-05,162.857762 5.36398467e-05,104.914927 C5.36398467e-05,46.972092 46.971931,0.000214559387 104.914766,0.000214559387 C162.857602,0.000214559387 209.829747,46.972092 209.829747,104.914927"/>
  </defs>
  <g fill="none" fill-rule="evenodd">
    <mask id="b" fill="white">
      <use xlink:href="#a"/>
    </mask>
    <use fill="#7BCAEC" xlink:href="#a"/>
    <polygon fill="#686C70" points="60.566 138.673 58.119 127.871 64.544 122.169 65.462 135.372" mask="url(#b)"/>
    <path fill="#939CA3" d="M8.04072031,198.285701 C10.4807969,192.190069 13.399341,185.679264 18.1698008,180.962444 C19.982023,179.170069 22.1651648,177.730107 24.1098774,176.076123 C26.4539387,174.082061 28.7282682,172.009686 30.9765824,169.912904 C35.6413716,165.562444 40.1902989,161.0921 44.6890728,156.576697 C46.2143218,155.045816 47.7334023,153.508498 49.244705,151.963939 C49.7194176,151.478766 50.3708736,150.472483 50.9941686,150.168345 C51.9763142,149.689341 53.8596092,149.8339 54.9257011,149.709188 L79.5791111,146.830605 C97.1890728,144.77459 114.798766,142.718575 132.40846,140.662559 C133.920567,140.486084 134.436851,140.622866 135.944667,141.155778 C141.319916,143.055165 146.654935,145.139073 151.781027,147.619916 C154.357617,148.866774 156.946276,150.203211 159.242061,151.910567 C162.372751,154.239609 164.857885,157.538728 167.067579,160.686851 C170.733594,165.908958 173.585625,171.599341 175.615088,177.611295 C181.612559,195.377617 187.590452,213.549188 187.736352,214.026046 C181.290989,213.987693 3.89489655,212.819418 3.89489655,212.819418 C3.89489655,212.819418 6.0131341,203.350375 8.04072031,198.285701" mask="url(#b)"/>
    <path fill="#686C70" d="M57.7118084,177.300962 C64.8563678,188.037513 72.0003908,198.774065 79.1449502,209.510885 C80.1681303,211.048471 81.1913103,212.585789 82.2142222,214.123644 C84.4558314,211.803184 86.579433,209.221498 89.006636,207.091996 C89.7774406,206.415598 90.7434943,206.028586 91.6663678,205.551996 C93.1964444,204.762149 95.0046437,203.387092 96.6808889,202.963605 C97.4358697,202.772648 98.4263295,203.033069 99.2108123,203.106019 C101.317785,203.301536 103.425027,203.492226 105.533341,203.675406 C109.506713,204.020847 113.47928,204.38667 117.46928,204.445674 C121.921655,204.511383 126.374299,204.671498 130.824529,204.820885 C130.75587,203.470234 130.686943,202.119582 130.618015,200.768663 C130.582345,200.070004 130.884874,197.624563 130.428398,197.068586 C130.128552,196.703299 128.470544,196.536479 128.035257,196.417935 C122.827096,195.002111 117.618667,193.586287 112.410506,192.170464 L68.5473257,180.246594 C64.9354866,179.264716 61.3236475,178.282839 57.7118084,177.300962" mask="url(#b)"/>
    <path fill="#686C70" d="M130.034199,147.455268 C128.590483,149.579138 126.927916,151.659023 125.662015,153.887222 C125.197494,154.70523 125.358414,155.17592 125.446651,156.156992 C125.903126,161.244195 126.359333,166.33113 126.815808,171.418065 C127.750483,181.835996 129.0601,192.292011 129.626,202.736226 C129.726843,204.597797 129.648797,206.48136 129.666766,208.345613 C129.673471,209.036226 129.572628,213.845843 130.210406,214.026073 C129.595962,213.852548 134.95646,202.838678 136.038912,200.740287 C138.711785,195.557605 141.469142,190.415958 144.220598,185.272701 C145.5101,182.861858 146.802552,180.452625 148.097418,178.044464 C148.744046,176.841322 150.122322,175.167759 150.373356,173.816839 C150.418146,173.576264 150.565119,173.552663 150.510943,173.36546 C150.385157,172.932318 149.073126,172.182701 148.733586,171.895996 C146.389793,169.917759 144.106077,167.864962 141.939831,165.700594 C139.517724,163.2809 136.982973,160.671054 135.567149,157.533123 C133.98692,154.030977 132.310943,150.584885 130.034199,147.455268" mask="url(#b)"/>
    <path fill="#BAC5CB" d="M112.760479 193.369207C109.502395 191.712004 106.02546 189.58277 102.369904 188.929169 99.7554981 188.461697 81.2848851 165.642502 72.7851149 157.619054 71.5336973 156.437636 68.4901724 152.404456 65.8773755 148.654226 66.6095594 149.563421 67.3414751 150.472349 68.073659 151.381276 67.0472605 148.361084 65.431092 145.441467 64.0538889 142.56664 62.3245402 138.957483 60.933659 135.740969 60.4069157 131.733805 60.303659 130.948249 59.8074904 129.253766 60.082931 128.462579 60.3758046 127.621774 61.6854215 126.57231 62.2510536 125.905299 62.814272 125.240433 63.58159 124.62867 63.6647318 123.835069 63.7730843 122.805452 63.0878352 121.349398 62.8494061 120.322732 60.7601341 121.265452 58.4420881 122.635146 57.1834291 124.575299 56.9364176 124.955874 56.7754981 125.322502 56.6751916 125.685107 54.7744636 128.074494 50.6246169 145.911889 50.286954 147.68254 49.8092912 150.183766 50.2536973 164.248134 52.4381801 168.079628 54.9651533 172.511889 58.3967625 176.571084 61.4716667 180.637789 65.9666858 186.58323 70.5279502 192.480126 75.068295 198.39231 76.8821264 200.754073 82.7487165 208.222349 83.5562644 209.717828 83.5766475 209.755107 90.1920498 207.22733 93.2473755 205.472234 94.6500575 204.666831 96.066954 203.881544 97.0289847 202.581314 98.3402107 200.809054 99.704272 199.098747 101.184195 197.456563 102.179215 198.780126 103.405958 200.067215 104.83546 200.937789 106.649023 202.041966 108.776648 201.951582 110.82408 201.667291 112.655077 201.413038 127.202739 200.082234 128.871475 200.677368 126.35067 198.766716 115.687874 194.858249 112.760479 193.369207M150.584966 173.424893C147.687877 171.807383 144.804736 170.083398 142.160828 168.088264 139.166651 165.828954 137.537341 162.659644 135.66987 159.50133 134.239027 157.080831 132.762858 154.665966 131.45646 152.177881 131.095195 151.489414 130.586958 150.725851 130.358184 149.986962 130.134774 149.265774 130.162667 149.691943 130.372667 149.04451 130.758605 147.8529 132.07895 146.565812 132.800406 145.517153 133.395004 151.88608 137.888414 156.876195 142.217418 161.262594 145.944851 165.039912 149.812552 168.691713 153.746498 172.261981 152.692475 172.649529 151.63872 173.037345 150.584966 173.424893" mask="url(#b)"/>
    <path fill="#EABD9D" d="M145.92318,52.2001533 C143.459502,44.1364751 139.164291,34.164023 131.199847,29.9699234 C123.54249,25.9372797 114.03,24.903908 105.474981,24.6874713 C101.565709,24.5887739 97.5985057,24.6941762 93.7372414,25.3464368 C88.8643295,26.169272 84.4808812,28.4626437 80.5512261,31.3449808 C73.2430651,36.7052107 66.3836015,44.1335249 63.5363985,52.773295 C61.2524138,59.7049042 60.0712644,67.0398851 59.1725287,74.2568582 C59.1269349,74.6232184 59.1760153,75.2870115 58.9869349,75.605364 C58.7930268,75.9317625 58.5234866,76.2002299 58.2241762,76.4456322 C58.0149808,76.3171648 57.7677011,76.3514943 57.3173946,76.5561303 C54.3505747,77.9051724 55.993295,82.2349808 56.4645211,84.6428736 C57.0765517,87.7716858 57.5802299,91.1429502 58.8480077,94.096092 C60.1251724,97.0722989 59.7279693,100.860077 59.5214559,104.031264 C59.3095785,107.288276 57.8379693,112.074559 62.2611111,113.195632 C62.2611111,113.194291 62.2613793,113.192414 62.2613793,113.191073 C62.5915326,113.973142 62.5413793,115.461111 62.6561686,116.179617 L63.4269732,120.998621 C63.7509579,123.023525 64.2095785,125.059425 64.4439847,127.093985 C64.670613,129.060153 64.7601916,131.125287 63.9824138,132.985785 C63.208659,134.837701 62.4064751,136.552031 62.3490805,138.594636 C65.0337548,145.33636 68.2921073,151.816858 72.952069,157.455211 C77.8351724,163.36364 82.9937165,169.051877 88.0240613,174.838812 C92.1272414,179.559119 95.5746743,185.114866 101.205249,188.177165 C105.663793,190.60249 110.60751,192.342835 115.258621,194.411992 C119.848046,196.453793 124.442567,198.485134 129.038429,200.513793 C128.742069,193.005556 128.261724,185.621226 128.623257,178.112989 C128.827088,173.88295 129.064713,169.654521 129.312797,165.426897 C129.469962,162.75295 129.113525,160.66046 128.641494,157.973103 C128.222835,155.586935 128.006667,153.94341 129.032797,151.654866 C129.493295,150.627395 130.026743,149.652222 130.646552,148.713257 C132.935096,145.245977 135.25636,141.800958 137.484828,138.295594 C139.902644,134.492529 142.130843,130.837778 143.433487,126.511188 C145.023372,121.230077 146.208544,115.735479 145.856667,110.210575 C145.683142,107.488084 145.542069,94.634636 146.12272,92.3876628 C146.87341,89.4827969 147.757126,82.120728 147.778851,81.354751 C148.059923,71.4812644 148.85272,61.7877395 145.92318,52.2001533" mask="url(#b)"/>
    <path fill="#D9A97E" d="M121.889739,115.287747 C124.077709,113.652805 121.148973,110.856828 120.516559,109.406943 C119.884146,107.957326 116.666023,99.509318 116.666023,99.509318 C116.666023,99.509318 117.692153,108.67154 119.237249,111.522766 C120.765716,114.342345 114.154605,118.654452 114.154605,118.654452 C114.154605,118.654452 119.70177,116.92269 121.889739,115.287747" mask="url(#b)"/>
    <path fill="#D3A788" d="M101.224506,81.3753487 C101.224506,81.3753487 104.787533,93.2831264 104.584506,96.7844674 C104.313356,101.464008 104.849755,105.755195 101.363165,108.168989 C98.1294866,110.407648 101.643969,113.8119 101.643969,113.8119 L93.9520153,114.221977 L93.5266513,108.69305 C93.5266513,108.69305 96.078567,102.738759 98.2048506,98.4856552 C100.331402,94.2325517 101.224506,81.3753487 101.224506,81.3753487" mask="url(#b)"/>
    <path fill="#D3A788" d="M93.3595096,110.026161 C92.0010805,112.111946 91.2927663,113.866506 90.8566743,115.962751 C89.9673257,120.239456 85.5495479,120.332253 85.1815785,125.16413 C85.0697395,126.631448 86.7242605,129.805586 86.563341,131.274513 C86.3705057,133.035778 86.2503525,134.793824 86.0803142,136.557502 C85.9459464,137.949992 85.7238774,139.334169 85.5479387,140.721563 C85.45541,141.450797 89.2209272,137.939533 88.8030728,135.138996 C88.6703142,134.25072 88.435908,133.283326 88.881387,132.440912 C89.2067126,131.825663 92.0995096,130.702444 92.5428429,130.161218 C93.353341,129.171831 86.8771341,129.320414 89.0238008,124.855969 C90.9221149,120.908077 96.5323065,117.850605 100.540008,120.086851 C102.135793,120.977272 108.235716,124.350414 112.915257,119.971257 C114.583724,118.410069 116.353571,117.428192 118.364261,116.323747 C117.862728,115.859226 117.145831,115.927885 116.511004,116.039992 C114.474835,116.399648 112.778475,117.76505 110.663456,117.932943 C108.695946,118.089034 107.835831,117.015701 106.457019,115.876927 C105.056751,114.720184 103.448628,114.090452 101.644184,113.812061 C100.251693,113.596966 98.8396245,113.732674 97.4691264,113.38187 C96.5162146,113.137808 94.3033027,113.011218 94.0418084,111.917234 C93.7435709,110.669034 95.2170575,109.072981 96.0334559,108.370031 C96.8978621,107.625778 94.1000077,108.888728 93.3595096,110.026161" mask="url(#b)"/>
    <path fill="#B7896A" d="M95.3432561,115.334052 C98.8240841,116.323747 98.9184692,115.050108 102.92617,117.286354 C104.521956,118.176775 109.339143,121.167617 112.798731,119.414661 C115.299713,118.147426 116.353571,117.428192 118.364261,116.323747 C117.862728,115.859226 117.145831,115.927885 116.511004,116.039992 C114.474835,116.399648 112.778475,117.76505 110.663456,117.932943 C108.695946,118.089034 107.835831,117.015701 106.457019,115.876927 C105.056751,114.720184 103.448628,114.090452 101.644184,113.812061 C100.251693,113.596966 98.64196,114.556902 97.2714619,114.206097 C96.31855,113.962036 94.3033027,113.011218 94.0418084,111.917234 C93.7435709,110.669034 94.5268576,109.318925 95.3432561,108.615975 C96.2076622,107.871722 94.7823065,109.911193 94.0418084,111.048626" mask="url(#b)"/>
    <path fill="#D3A788" d="M120.516533,109.406996 C123.609674,110.197916 125.840287,117.794391 128.300211,122.363433 C130.541552,126.525617 125.263927,131.865464 124.895421,133.409487 C124.523161,134.969065 125.077529,137.905042 124.840172,139.497609 C124.358218,138.270061 123.902548,137.029908 123.505077,135.773395 C123.36749,135.338644 122.444349,130.847111 122.826801,130.829142 C122.26546,130.855693 121.452548,131.04236 121.202586,130.094812 C120.911054,128.991709 122.734808,128.562054 123.543697,128.365464 C125.161743,127.971747 125.86818,127.989448 125.584425,125.884889 C125.29772,123.756728 124.293046,120.96531 123.05772,119.173739 C122.401705,118.222973 121.369138,117.48328 120.507146,116.694238 C123.613161,114.324161 122.451322,112.032667 120.516533,109.406996" mask="url(#b)"/>
    <path fill="#B7896A" d="M70.8470536,140.63877 C74.6831073,146.041912 85.2278966,159.639077 90.3542567,163.837467 C93.4849464,166.401452 97.2976667,167.040839 101.293567,167.11808 C107.650693,167.240916 115.365981,167.501874 120.464716,163.014632 C122.540579,161.187391 124.049467,158.215207 125.605828,155.976816 C127.112303,153.810034 128.606709,151.635207 130.090655,149.453674 C128.576402,151.261605 127.037743,153.050762 125.47441,154.818195 C123.738893,156.780609 121.782916,159.671261 119.414448,160.954862 C118.288816,161.565015 111.436594,163.862946 109.373337,164.06651 C106.042303,164.395054 103.103644,164.632142 99.8168621,163.978808 C97.0608467,163.430877 92.2278966,163.283368 90.3542567,160.954862 C88.3349847,158.445054 85.904295,153.283559 84.5780498,150.392372 C81.8499272,144.447199 80.2130352,140.405618 74.1790888,136.945043 C72.4253341,135.939028 70.8376197,132.788491 69.4175048,131.312859 C67.9716427,129.811212 67.3593187,126.957815 66.4013111,125.145324 C63.9236865,120.457202 63.2167854,115.599153 62.1818046,110.659192 C62.1147548,115.858234 63.5174368,123.206625 65.1244866,128.120303 C65.9266705,130.440762 69.2673602,138.413521 70.8470536,140.63877 Z" mask="url(#b)"/>
    <path fill="#D3A788" d="M87.8046151,155.431932 C87.8046151,155.431932 83.1100808,142.244073 80.3453239,139.4196 C77.580567,136.595127 72.8074587,133.86599 70.4984309,131.003801 C68.1894032,128.141613 63.213826,116.731097 63.213826,116.731097 C63.213826,116.731097 65.8518169,127.463781 67.8737877,132.265176 C69.8957585,137.066571 81.7085728,151.613236 84.0972222,154.276371 C86.4858716,156.939506 89.0976712,161.465891 94.2227909,163.257378 C99.3479107,165.048866 108.305094,164.66071 112.990199,163.95983 C117.675305,163.25895 120.136242,160.152658 120.136242,160.152658 C120.136242,160.152658 114.550155,162.563308 107.107626,162.563308 C99.6650976,162.563308 96.4268014,163.182471 92.7516338,160.308758 C89.0764661,157.435045 87.8046151,155.431932 87.8046151,155.431932 Z" mask="url(#b)"/>
    <path fill="#C07F6A" d="M89.8619234,130.297732 C92.4175939,132.540414 94.9008506,135.201755 97.7864061,137.03731 C102.627402,140.117042 108.888782,140.871487 114.340736,138.834782 C117.206713,137.764398 119.167517,135.487387 120.961502,133.143326 C121.493341,132.448421 124.125448,129.964628 122.265755,129.41777 C121.674912,129.243977 120.329625,129.728077 119.723226,129.802636 C118.403149,129.964628 117.050621,130.118307 115.726253,129.931103 C114.24472,129.722176 112.723494,128.867157 111.218628,128.909533 C109.973648,128.944935 108.784184,129.626161 107.580774,129.877464 C106.409548,130.122061 105.672,129.43869 104.428897,129.287425 C102.99564,129.112828 101.483264,129.269456 100.047862,129.32551 C97.8985134,129.409724 95.7483602,129.498766 93.5965977,129.48777 C92.8896245,129.484284 89.4572107,128.908192 89.8619234,130.297732" mask="url(#b)"/>
    <path fill="#3F2A26" d="M91.9805364,130.488019 C95.5829885,133.565337 100.020881,136.298556 104.862146,136.956448 C108.219195,137.412655 112.242452,136.44982 115.207931,134.884073 C117.249195,133.806716 118.829425,132.131008 120.604368,130.707138 C111.036897,131.266602 101.541571,131.038364 91.9805364,130.488019" mask="url(#b)"/>
    <path fill="#CDC1BA" d="M119.470958,88.7691456 C121.684943,86.8241648 125.403257,85.1379962 128.428008,85.5853525 C131.339579,86.0155441 132.3641,87.4002567 134.257586,89.5257356 C132.069617,90.3099502 130.077165,90.9538966 127.748123,90.5781494 C126.234406,90.3338199 124.736245,89.9932069 123.218774,89.7700651 C121.997395,89.5906398 120.279579,89.8794904 119.470958,88.7691456" mask="url(#b)"/>
    <path fill="#654838" d="M130.323077,87.6347969 C130.323077,89.012 129.724992,90.0107739 128.8571,90.6311188 C128.217444,90.6834176 124.751774,90.2213103 123.017061,89.7777088 C122.628172,89.2118084 122.39323,88.4978621 122.39323,87.6353333 C122.392962,82.6264444 130.323077,82.6159847 130.323077,87.6347969" mask="url(#b)"/>
    <path fill="#4E3629" d="M130.323077,87.729364 C129.195835,87.4085977 124.187751,86.7469502 122.39323,87.7296322 C122.392962,82.7207433 130.323077,82.7105517 130.323077,87.729364" mask="url(#b)"/>
    <path fill="#B8896A" d="M116.983839,88.9219655 C115.939471,89.67641 115.622192,90.6505096 115.389126,91.8625019 C115.228743,92.6947241 114.779241,93.7074444 114.345295,92.4377893 C114.00495,91.4422337 114.260544,89.8966015 114.364874,88.8884406 C114.625027,86.382387 115.957709,83.9879042 117.607402,82.0756437 C118.835218,80.6525785 120.833303,80.7856054 122.6179,80.6681341 C125.807862,80.4581341 128.419318,81.5668697 126.807977,82.0139579 C124.109893,82.7630383 127.393456,83.8980575 128.257594,84.0857969 C130.503226,84.5739195 134.28108,85.5179808 135.446406,87.6802031 C136.044222,88.7902797 136.792498,89.11641 137.091808,90.2318506 C137.209548,90.6708927 138.172383,91.7686322 138.491808,91.8625019 C138.092728,92.1862184 135.508628,91.7632682 135.218169,91.4398199 C134.600238,90.7508161 133.385027,89.7785939 133.091885,88.9225019 C132.254567,86.4786705 131.016828,85.9100881 128.50836,85.3887088 C125.848628,84.835682 123.569739,85.7877893 121.363264,87.2779042 C120.612307,87.785069 119.84633,88.6135364 120.513609,89.0099349 C121.000659,89.2993218 117.676598,88.4217739 116.983839,88.9219655" mask="url(#b)"/>
    <path fill="#221F20" d="M127.973464,87.6350651 C127.973464,89.6749885 124.742467,89.6698927 124.742467,87.6350651 C124.742467,85.6023831 127.973464,85.5822682 127.973464,87.6350651" mask="url(#b)"/>
    <path fill="#FEFEFE" d="M128.598126,86.9260536 C128.598126,87.6062069 127.52533,87.6062069 127.52533,86.9260536 C127.52533,86.2459004 128.598126,86.2459004 128.598126,86.9260536" mask="url(#b)"/>
    <path fill="#855E37" d="M117.839234,81.9921533 C119.012337,78.5406973 122.37046,78.2714253 125.627203,78.0641073 C128.751724,77.8653716 131.135747,78.1751418 134.230498,78.7911954 C136.167433,79.1768659 139.708736,79.897249 140.63,81.5944138 C141.095862,82.4526513 142.363372,85.8239157 140.336322,84.4622682 C138.727931,83.3822299 137.854138,82.168092 135.813946,82.0020766 C133.999579,81.8542989 126.277854,81.6035326 124.227471,82.077977 C122.361341,82.510046 119.263908,83.8051801 117.839234,81.9921533" mask="url(#b)"/>
    <path fill="#B0A681" d="M93.5200805,130.612946 C94.5751762,132.450648 95.9534521,132.313598 97.8327241,132.4131 C100.624142,132.561146 103.415559,132.708923 106.207245,132.856969 C109.478471,133.030226 117.188395,134.665705 118.656249,130.707084 C110.247398,130.981184 101.928931,131.162755 93.5200805,130.612946" mask="url(#b)"/>
    <path fill="#E5D9BF" d="M96.0053755,131.073659 C96.1502031,131.886303 96.3226552,133.284425 97.2621571,133.574885 C98.0694368,133.82431 98.5717739,132.99772 99.1298966,133.149789 C99.6611992,133.294885 100.024877,134.003467 100.715759,134.126839 C101.038402,134.184234 101.672962,134.014195 101.867943,134.18182 C102.255222,134.514119 102.100471,135.134195 102.69936,135.45067 C103.127674,135.676762 103.899015,135.64431 104.372923,135.685077 C104.733115,135.716188 105.179398,135.813008 105.53664,135.761513 C105.818249,135.721284 106.3171,135.312816 106.575644,135.368065 C106.868785,135.431092 107.006103,135.96749 107.2971,136.072356 C107.541161,136.160057 108.127176,135.970709 108.393766,135.94067 C108.983268,135.874693 109.637138,135.890517 110.214303,135.770632 C111.029628,135.600862 110.995031,135.349023 111.574609,134.922854 C112.384303,134.32772 113.334264,134.269521 113.85618,133.262165 C113.963996,134.3709 114.982617,134.780172 115.768709,133.887337 C116.342387,133.235881 116.709552,131.824617 116.799398,130.989981 C115.799284,131.184157 114.82733,131.773123 113.85618,131.90749 C114.230854,129.911552 112.467713,131.654579 111.730969,132.219943 C111.714609,131.942356 111.626908,131.664234 111.624762,131.386379 C110.301467,131.739866 107.351276,131.455038 106.949782,132.845383 C106.310126,131.904808 106.239322,131.95523 105.131391,131.714387 C104.369973,131.548908 103.444686,131.054349 102.661008,131.127567 C101.767368,131.210709 101.914073,131.565536 100.95687,131.284195 C100.188211,131.058103 98.5951073,130.156149 98.6616207,131.6991 C97.776295,131.490709 96.8909693,131.28205 96.0053755,131.073659" mask="url(#b)"/>
    <path fill="#855E37" d="M151.463157,50.8854943 C150.038751,45.5845364 149.464268,39.5583678 141.261663,30.9097471 C139.659977,29.2211648 133.531088,24.6017011 132.261701,24.0880996 C131.022889,23.5871034 126.696835,23.2290575 125.646567,22.8023525 C124.325149,22.265954 123.567487,21.654728 122.736874,20.522659 C121.104077,18.29741 119.179211,16.3484061 116.802697,14.8682146 C111.475188,11.5503218 104.301931,11.7225057 98.4318544,13.3982146 C92.7428123,15.0221609 86.5082529,16.5036935 81.827908,20.2579464 C77.0823908,24.0650345 73.4257625,29.2512031 69.9461456,34.1364521 C68.2350345,36.5384444 66.3761456,38.4595556 64.1176398,40.3677931 C61.8744215,42.2631571 59.8996705,44.2368352 58.9915479,47.071433 C56.1574866,55.9155709 56.938751,68.4705134 57.1020843,72.2086743 C57.2656858,75.961318 60.2789042,79.4017778 60.8887893,81.0442299 C61.486069,82.6528889 62.1589808,87.3450345 63.2062989,88.6801303 C67.2067586,82.7947663 65.3706667,75.0717011 65.5801303,68.4458391 C65.690092,64.9616628 65.886682,56.0284828 67.0533487,52.8521992 C68.2202835,49.6759157 70.3403985,45.6285211 74.0302835,42.2535019 C77.7199004,38.878751 82.4302835,35.2580613 88.0654176,33.2806284 C93.7005517,31.3031954 108.076567,29.9925057 114.475533,30.3454559 C120.873962,30.6984061 130.163847,35.5353793 132.858176,37.6351111 C135.659249,39.8182529 137.853923,42.4109349 139.526414,45.511318 C141.141778,48.5062989 142.182391,51.7254943 143.26082,54.9320843 C144.44787,58.4621226 145.592008,62.097295 145.795839,65.8330421 C145.995111,69.4902069 145.006261,84.4616245 145.006261,88.2834636 C145.006261,89.5383678 144.791165,93.6155326 145.588521,94.6676782 C145.952199,95.1477548 147.794996,89.0872567 148.135609,87.5689808 C148.516989,85.8685977 152.014575,75.5756475 152.361088,71.7146513 C152.731739,67.5779464 154.049134,60.5111648 151.463157,50.8854943" mask="url(#b)"/>
    <path fill="#B8896A" d="M61.9597893 99.2959655C62.2904789 97.6915977 62.4835824 95.7281111 63.2938123 94.2814444 63.9710153 93.0715977 64.5146552 93.3655441 64.1609004 92.0985709 63.9431226 91.3189157 63.8331609 89.8110996 63.3431609 89.170908 63.247682 89.0459272 63.3034674 88.7482261 63.1704406 88.6857356 62.9062644 88.5620958 62.0987165 89.0585326 61.8828161 89.1982644 60.6595594 89.9886475 60.2685249 91.4476513 60.016954 92.7827471 59.5197126 95.4199502 60.4549234 97.161636 61.9597893 99.2959655M59.0698352 89.2667893C59.2275364 87.6425747 59.7073448 85.8024598 59.3621724 84.2147203 58.9083793 82.1283985 58.2263487 80.5980536 56.847 79.019433 57.6510613 82.4298544 58.4787241 85.8126513 59.0698352 89.2667893M62.1818851 110.659084C62.2931877 109.709927 62.4042222 108.76077 62.5155249 107.811881 62.5884751 107.188318 63.1044904 105.507782 62.8231494 104.951536 62.6882452 104.684946 61.6787433 104.317782 61.440046 104.136479 60.867977 103.701192 60.7826897 103.538126 60.602728 102.919659 60.2674789 101.769352 60.1982835 100.4769 59.9590498 99.2960192 59.7729195 101.191383 59.6197778 103.11169 59.6675172 105.016709 59.7241073 107.274142 60.9041839 108.833452 62.1818851 110.659084" mask="url(#b)"/>
    <path fill="#6A3F3B" d="M94.3671073 130.511835C93.6740805 130.54992 92.9810536 130.588004 92.2880268 130.62582 92.495613 130.791299 93.8288314 131.680379 93.7446169 131.970034 93.7094828 132.090456 91.3686398 131.318042 91.1935057 131.244824 90.3805939 130.904479 89.5971839 130.421184 89.5164559 129.467467 90.2832375 129.445475 91.2932759 129.22877 92.0369923 129.395054 92.8145019 129.568847 93.6469923 130.166931 94.3671073 130.511835M118.656142 130.707111C119.792502 130.438107 121.52936 129.580406 122.642387 130.163739 121.461774 131.484084 120.240931 132.751326 118.974762 133.99282 118.911467 133.526958 118.608402 132.650215 118.765299 132.228069 118.939092 131.76033 119.928211 131.177801 120.312272 130.831019 119.760318 130.789716 119.208364 130.748414 118.656142 130.707111" mask="url(#b)"/>
    <path fill="#593E29" d="M121.889739 115.287747C122.533418 113.183456 121.403762 111.272268 120.516559 109.406943 122.362843 111.074337 124.143149 115.007211 121.889739 115.287747M137.091701 90.2317969C136.607602 87.1652069 133.671356 85.6866245 130.977563 84.7658966 128.284038 83.8451686 126.473157 82.8834061 123.40013 83.9886552 119.722314 85.3114138 118.748483 86.6108391 118.748483 86.6108391 118.748483 86.6108391 121.309517 85.521682 122.292736 84.9461264 123.35105 84.326318 127.519402 83.7901877 128.516567 84.898387 127.186567 85.0646705 125.449441 84.8788084 123.917218 85.4527548 122.568981 85.9577739 121.862276 86.7934828 120.726989 87.6568161 122.953579 86.6137893 123.804843 85.4790383 127.385571 85.7654751 128.513349 85.85559 130.164115 85.8856284 131.157257 86.4338276 131.819172 86.7993831 134.493387 89.2292682 132.372467 90.2591533 132.624307 90.4273142 135.059556 90.8639425 135.075111 90.7435211 135.307908 88.9484636 133.268789 87.0839425 132.713885 86.3544406 134.436261 87.4556667 135.852889 88.603023 137.091701 90.2317969" mask="url(#b)"/>
    <path fill="#CDC1BA" d="M90.3695172,84.1903946 C87.1339617,82.925567 83.0358774,85.1486705 80.6397854,87.2559119 L79.9969119,87.8864483 C81.0812414,88.2798966 82.1205134,88.6132682 83.1630038,88.8621571 C84.0603985,88.8374828 84.9720077,88.8761034 85.7940383,88.8870996 C86.458636,88.895682 91.3103602,88.6191686 91.0751494,88.6435747 C91.9130038,88.5979808 95.4921226,89.383 96.5836935,88.390931 C94.6440766,86.6886705 92.8423142,85.1569847 90.3695172,84.1903946" mask="url(#b)"/>
    <path fill="#654838" d="M85.254341,88.8768008 C85.4372529,88.8808238 85.6182874,88.8845785 85.7942261,88.8869923 C86.4515824,88.8955747 89.5948774,88.7933908 91.0300115,88.648295 C91.613613,88.0327778 91.9869464,87.1828544 91.9869464,86.0961111 C91.9869464,83.3146169 89.5511609,82.6744253 87.3795517,82.976954 C85.6325019,83.2207471 84.0565632,83.8636207 84.0565632,86.0966475 C84.0565632,87.325 84.5347625,88.2505556 85.254341,88.8768008" mask="url(#b)"/>
    <path fill="#4E3629" d="M92.0512605,86.2251954 C92.0512605,83.4437011 89.6154751,82.8035096 87.4438659,83.1063065 C85.6973525,83.3495632 84.1211456,83.992705 84.1214138,86.2257318 C84.1214138,86.4756935 84.1409923,86.713318 84.1785402,86.9383372 C85.6155517,85.6662682 90.713751,85.6662682 92.0512605,86.2251954" mask="url(#b)"/>
    <path fill="#B8896A" d="M103.301226,86.7103678 C102.840728,84.1088352 101.705709,82.3966513 99.9570498,80.3167663 C98.9859004,79.1616322 98.8378544,79.3413257 97.3198467,79.3960383 C93.9501916,79.5175326 90.58,79.6390268 87.2103448,79.7605211 C87.9554023,79.8710192 91.3939847,80.3073793 90.4697701,81.4568812 C89.7601149,82.3397931 86.5924138,82.6340077 85.4029502,82.8987203 C82.7496552,83.4890268 80.8854023,84.3802529 78.7333716,86.0229732 C77.9285057,86.6374176 76.1109195,88.9562682 75.2213027,89.6310575 C74.3314176,90.3055785 79.182069,89.9577241 79.6304981,89.6873793 C80.4863218,89.1204061 81.8876628,88.8991418 83.0996552,88.8444291 C82.1191188,88.5585287 80.92,88.2216705 79.9968582,87.8864215 C82.2266667,85.6995249 86.2837165,83.070636 89.5675479,83.911977 C92.3562835,84.6264598 94.5075096,86.5690268 96.5836398,88.3909042 C95.9386207,88.5172261 100.325287,89.2714023 99.404023,92.8478391 C98.8858621,94.8585287 97.8870881,101.720406 97.8870881,101.720406 C97.8870881,101.720406 103.156935,95.9353487 103.364789,92.7845441 C103.498084,90.7663448 103.453563,88.7269579 103.301226,86.7103678" mask="url(#b)"/>
    <path fill="#855E37" d="M101.737088,80.7047165 C100.381073,76.7152529 94.8811111,75.608931 91.080728,75.84441 C88.8536015,75.9825326 79.8217241,76.6900421 78.0215709,77.7006169 C76.4032567,78.6095441 75.8014176,79.3867854 74.5384674,80.7237586 C73.6512644,81.6627241 72.1048276,84.9250996 74.072069,84.432954 C75.2821839,84.1301571 76.9895402,81.2582797 80.8521456,80.6599272 C84.7150192,80.0615747 92.5976628,80.0763257 94.9081992,80.4255211 C97.0259004,80.745751 100.657586,83.6141418 101.737088,80.7047165" mask="url(#b)"/>
    <path fill="#221F20" d="M89.6371992,86.0963257 C89.6371992,88.1365172 86.4062031,88.1311533 86.4062031,86.0963257 C86.4062031,84.0639119 89.6371992,84.0435287 89.6371992,86.0963257" mask="url(#b)"/>
    <path fill="#FEFEFE" d="M90.2615939,85.3874483 C90.2615939,86.0676015 89.1887969,86.0676015 89.1887969,85.3874483 C89.1887969,84.707295 90.2615939,84.707295 90.2615939,85.3874483" mask="url(#b)"/>
    <path fill="#593E29" d="M96.6614444 84.3953257C94.6762337 80.8840613 88.1514828 82.0641379 83.8965019 83.2176628 80.9921724 84.0050958 79.1327471 85.9363985 77.4964636 88.3434866 78.6288008 88.7414943 80.7148544 88.3984674 81.3451226 88.3488506 81.612249 88.2152874 80.6598736 87.37341 83.0465785 86.0796169 84.0161188 85.5544828 84.9768084 84.9829502 86.0273448 84.7085824 88.1048161 84.1657471 90.0318276 84.5050192 91.921023 85.4890421 92.9487625 86.0243678 93.9421724 86.577931 94.9988774 87.0561303 93.046387 85.0988123 91.7483027 84.0037548 88.0758506 83.1986207 89.9865019 83.1355939 92.1591839 83.1943295 93.9526322 83.917931 94.6107931 84.1831801 95.1970766 84.5583908 95.92041 84.6704981 96.1548161 84.706705 97.2482644 84.9134866 96.6614444 84.3953257M96.817295 107.74164C93.7582146 109.76708 94.4287126 112.778421 96.2125057 115.467387 91.8494406 115.814705 92.778751 108.3821 96.817295 107.74164M97.0380766 115.861452C98.0915632 115.45218 99.5618314 114.967276 100.701142 115.159843 101.923057 115.366356 102.645854 116.431375 103.457962 117.229268 105.479379 119.213406 107.516621 119.818732 110.309648 120.090954 109.218077 120.209498 108.039877 120.25992 106.966544 120.007544 105.45551 119.652448 104.28482 118.501874 103.039839 117.651682 101.279111 116.449345 99.0916782 116.388732 97.0380766 115.861452M114.154659 118.654506C116.159985 116.724276 117.64849 115.941402 120.333433 116.769065 118.194276 117.361249 116.171785 117.67987 114.154659 118.654506" mask="url(#b)"/>
  </g>
</svg>
