<svg xmlns="http://www.w3.org/2000/svg" xmlns:xlink="http://www.w3.org/1999/xlink" width="210" height="210" viewBox="0 0 210 210">
  <defs>
    <path id="karlallen-a" d="M210.000054,105.00008 C210.000054,162.989944 162.989783,210.000215 104.999919,210.000215 C47.0100554,210.000215 5.36398467e-05,162.989944 5.36398467e-05,105.00008 C5.36398467e-05,47.0102163 47.0100554,0.000214559387 104.999919,0.000214559387 C162.989783,0.000214559387 210.000054,47.0102163 210.000054,105.00008"/>
  </defs>
  <g fill="none" fill-rule="evenodd">
    <mask id="karlallen-b" fill="#fff">
      <use xlink:href="#karlallen-a"/>
    </mask>
    <use fill="#7BCAEC" xlink:href="#karlallen-a"/>
    <polygon fill="#686C70" points="62.678 135.891 60.311 125.411 66.525 119.88 67.413 132.689" mask="url(#karlallen-b)"/>
    <path fill="#939CA3" d="M21.6722792,176.917522 C23.4250663,175.178663 25.5366079,173.781697 27.4175401,172.177097 C29.6847236,170.242575 31.8844623,168.232077 34.0590388,166.197901 C38.5708377,161.977339 42.9705745,157.640471 47.3218029,153.25989 C48.7970286,151.774719 50.266288,150.283302 51.7280247,148.784861 C52.1871683,148.314175 52.8172585,147.337937 53.4201114,147.04288 C54.3700457,146.578178 56.1915746,146.718422 57.2227021,146.597433 L81.0675581,143.8048 C98.0999687,141.810173 115.13212,139.815547 132.164271,137.820921 C133.626786,137.649715 134.126137,137.782412 135.584501,138.299412 C140.783459,140.142087 145.943507,142.163773 150.901479,144.570543 C153.393565,145.780172 155.897324,147.076705 158.117815,148.733083 C161.145828,150.992584 163.549458,154.193196 165.68668,157.247322 C169.232462,162.313506 171.990955,167.833984 173.953858,173.666432 C179.754632,190.902282 188.383595,211.516972 188.52471,211.979592 C182.290734,211.942384 7.6849763,211.979592 7.6849763,211.979592 C7.6849763,211.979592 9.91431282,198.636988 11.8754006,193.723536 C14.2354504,187.809909 17.0582755,181.493506 21.6722792,176.917522 Z" mask="url(#karlallen-b)"/>
    <path fill="#686C70" d="M59.9174339,173.365364 C66.8276743,183.781342 73.7373959,194.197319 80.6476363,204.613556 C81.6372593,206.105233 82.6268823,207.596649 83.6162459,209.088586 C85.7843374,206.837411 87.8382915,204.33281 90.18589,202.266891 C90.9314146,201.610688 91.8657848,201.235232 92.758391,200.772873 C94.2382859,200.006609 95.9871819,198.672609 97.6084516,198.261767 C98.3386715,198.07651 99.2966473,198.329156 100.055401,198.399928 C102.093273,198.589608 104.131403,198.774604 106.170571,198.952314 C110.013629,199.287441 113.855908,199.642341 117.715049,199.699584 C122.0214,199.76333 126.328011,199.918665 130.632288,200.063591 C130.565881,198.753268 130.499214,197.442945 130.432547,196.132361 C130.398047,195.454563 130.690654,193.082139 130.249149,192.542762 C129.959137,192.188382 128.355506,192.026543 127.934495,191.911538 C122.897145,190.537989 117.859536,189.164439 112.822187,187.790889 L70.3975804,176.223045 C66.9041982,175.270485 63.4108161,174.317925 59.9174339,173.365364" mask="url(#karlallen-b)"/>
    <path fill="#686C70" d="M129.867879,144.410811 C128.471512,146.471266 126.863471,148.489049 125.639089,150.650718 C125.189802,151.444302 125.345444,151.900937 125.430788,152.852717 C125.872292,157.788025 126.313537,162.723073 126.755041,167.658121 C127.659061,177.764991 128.925726,187.908808 129.473067,198.041176 C129.570603,199.847164 129.495116,201.674487 129.512496,203.483077 C129.518981,204.153069 129.421446,208.81908 130.038307,208.993928 C129.444014,208.825584 134.628705,198.140569 135.675656,196.104833 C138.260867,191.076897 140.927791,186.08877 143.589008,181.099082 C144.836218,178.760222 146.086282,176.422924 147.338681,174.086667 C147.964102,172.919449 149.297174,171.295855 149.539976,169.985272 C149.583296,169.75188 149.725449,169.728983 149.673049,169.54737 C149.551389,169.127161 148.282389,168.399926 147.953985,168.121782 C145.687061,166.202611 143.478243,164.211107 141.383044,162.111363 C139.040374,159.763918 136.588755,157.231996 135.219366,154.187758 C133.690962,150.790181 132.069952,147.446983 129.867879,144.410811" mask="url(#karlallen-b)"/>
    <path fill="#BAC5CB" d="M113.160682 188.95384C110.009452 187.346118 106.64655 185.28046 103.110885 184.646373 100.582223 184.19286 82.7173881 162.055006 74.4963836 154.271124 73.2860085 153.124981 70.3423016 149.212225 67.8151961 145.57397 68.5233667 146.456019 69.2312779 147.337807 69.9394485 148.219595 68.9467127 145.289581 67.3835493 142.457139 66.0515142 139.668149 64.3788827 136.166755 63.033618 133.046281 62.5241502 129.158763 62.42428 128.396663 61.9443841 126.752774 62.2107912 125.98521 62.4940594 125.16951 63.760725 124.151382 64.3078062 123.504286 64.8525528 122.859272 65.5947052 122.265776 65.6751202 121.49587 65.7799191 120.496995 65.117144 119.084417 64.8865346 118.088405 62.8657841 119.002977 60.6237627 120.331774 59.4063838 122.213998 59.1674735 122.583209 59.0118316 122.93889 58.9148148 123.290669 57.0764247 125.608713 53.0626798 142.913514 52.7360913 144.631297 52.2740943 147.057841 52.7039253 160.702271 54.8167639 164.419364 57.2608603 168.719285 60.5799236 172.65728 63.5539807 176.60256 67.9015774 182.37048 72.3132467 188.091306 76.7046825 193.826962 78.459026 196.118207 84.1332104 203.363493 84.9142733 204.81432 84.9339879 204.850486 91.3324259 202.398183 94.2875466 200.695492 95.644225 199.914137 97.0146519 199.152297 97.9451309 197.89089 99.2133529 196.171546 100.532677 194.512306 101.964064 192.919155 102.92645 194.203199 104.11296 195.451857 105.495578 196.296438 107.249662 197.367645 109.307508 197.279961 111.287791 197.004158 113.058736 196.757497 127.129282 195.466428 128.743288 196.043792 126.305158 194.190189 115.992067 190.398422 113.160682 188.95384M149.744645 169.605028C146.942572 168.035815 144.153988 166.363305 141.596792 164.427742 138.700815 162.235891 137.124941 159.161211 135.318717 156.097198 133.934801 153.748972 132.507046 151.40621 131.243494 148.992415 130.894078 148.324504 130.402509 147.58374 130.181238 146.866913 129.965155 146.167258 129.992133 146.580702 130.195245 145.952601 130.568527 144.796571 131.845568 143.547913 132.543363 142.530565 133.11846 148.709327 137.4645 153.550446 141.651526 157.805874 145.256711 161.470408 148.997564 165.013173 152.802489 168.476839 151.783035 168.852815 150.76384 169.229052 149.744645 169.605028" mask="url(#karlallen-b)"/>
    <path fill="#EABD9D" d="M145.235751,51.9998471 C142.852874,44.1769362 138.698532,34.5022441 130.995297,30.4333729 C123.589077,26.5211369 114.388567,25.51862 106.114125,25.3086456 C102.333065,25.2128952 98.4959735,25.3151504 94.7613464,25.9479356 C90.0482507,26.7462024 85.8085657,28.971098 82.0077908,31.7673736 C74.9393144,36.9675564 68.3048196,44.1740741 65.5509958,52.5558758 C63.3419186,59.2805193 62.1995071,66.3964905 61.3302472,73.3979775 C61.2861487,73.7533988 61.3336194,74.3973722 61.1507402,74.7062192 C60.9631917,75.022872 60.7024916,75.2833235 60.4129977,75.5213985 C60.2106632,75.3967668 59.9714935,75.4300713 59.5359556,75.6285973 C56.666438,76.9373594 58.2552823,81.1378873 58.7110536,83.4738846 C59.3030116,86.509276 59.7901707,89.7798803 61.0163694,92.6448464 C62.2516472,95.532189 61.8674711,99.2068704 61.6677307,102.283372 C61.4628022,105.443135 60.0394571,110.086508 64.3175338,111.174108 C64.3175338,111.172807 64.3177932,111.170986 64.3177932,111.169685 C64.6371185,111.928402 64.5886101,113.371944 64.6996347,114.068996 L65.4451593,118.744113 C65.7585183,120.708557 66.2020977,122.683669 66.428816,124.65748 C66.6480117,126.564942 66.7346523,128.568415 65.9823832,130.373362 C65.2340051,132.169983 64.4581303,133.833125 64.4026181,135.814742 C66.9992435,142.35517 70.1507324,148.642172 74.657862,154.112173 C79.3808151,159.844187 84.3701752,165.362583 89.2355406,170.976731 C93.2041493,175.556097 96.5385174,180.945959 101.984427,183.916823 C106.296745,186.269733 111.078323,187.958114 115.576892,189.96549 C120.015799,191.946326 124.459634,193.917015 128.904767,195.885101 C128.618126,188.601047 128.153535,181.4372 128.503211,174.153146 C128.700357,170.049409 128.930188,165.947233 129.170136,161.845838 C129.322146,159.251731 128.9774,157.221719 128.52085,154.614602 C128.115922,152.29968 127.906843,150.705228 128.899319,148.485016 C129.344714,147.488223 129.860667,146.542168 130.460148,145.631238 C132.673635,142.267485 134.918769,138.925329 137.07415,135.524629 C139.412669,131.835116 141.567791,128.28949 142.827712,124.092084 C144.365454,118.968658 145.511756,113.638119 145.171419,108.278179 C145.003585,105.636977 144.867139,93.1673105 145.428747,90.987428 C146.154816,88.1692963 147.00955,81.0270458 147.030562,80.2839396 C147.302416,70.705258 148.069212,61.3011648 145.235751,51.9998471" mask="url(#karlallen-b)"/>
    <path fill="#D3A788" d="M121.990531 113.203756C124.106742 111.61763 121.27406 108.905136 120.662387 107.498542 120.050715 106.092208 116.938136 97.896443 116.938136 97.896443 116.938136 97.896443 117.930613 106.785097 119.425034 109.551191 120.903373 112.286582 114.509085 116.469937 114.509085 116.469937 114.509085 116.469937 119.874321 114.789882 121.990531 113.203756M102.003052 80.3039222C102.003052 80.3039222 105.449223 91.8561546 105.252855 95.2529517 104.990598 99.7927691 105.509404 103.955829 102.137164 106.297551 99.0095399 108.469367 102.408759 111.771975 102.408759 111.771975L94.9690765 112.169808 94.5576631 106.805965C94.5576631 106.805965 97.025884 101.029458 99.0824322 96.903345 101.13924 92.7772317 102.003052 80.3039222 102.003052 80.3039222" mask="url(#karlallen-b)"/>
    <path fill="#D3A788" d="M94.396003,108.099271 C93.0821261,110.122779 92.3970424,111.82495 91.9752529,113.858605 C91.115072,118.007615 86.8421834,118.097642 86.4862823,122.785248 C86.3781112,124.208754 87.9783692,127.288118 87.8227273,128.713185 C87.6362165,130.421861 87.5200039,132.127415 87.3555423,133.838433 C87.2255813,135.189346 87.0107955,136.532193 86.840627,137.878163 C86.7511329,138.585623 90.3931531,135.179199 89.989003,132.462281 C89.8605984,131.600528 89.6338801,130.662018 90.0647487,129.844757 C90.3794047,129.247878 93.1773271,128.158197 93.6061205,127.633131 C94.3900368,126.673286 88.126229,126.817432 90.2024918,122.486288 C92.0385472,118.656272 97.4647423,115.690092 101.341003,117.859567 C102.884452,118.723402 108.784317,121.995827 113.310383,117.747424 C114.92413,116.232851 116.635932,115.28029 118.580677,114.208823 C118.095593,113.758171 117.402209,113.82478 116.788201,113.93354 C114.818813,114.282457 113.178088,115.607091 111.132435,115.76997 C109.229453,115.921402 108.397547,114.880116 107.063956,113.775344 C105.709612,112.653139 104.154231,112.04221 102.408966,111.772131 C101.062145,111.563458 99.6963875,111.695115 98.3708374,111.354785 C97.4491781,111.118011 95.3088427,110.9952 95.0559246,109.93388 C94.7674683,108.72295 96.1926292,107.174552 96.9822524,106.49259 C97.8183087,105.77056 95.1122151,106.9958 94.396003,108.099271" mask="url(#karlallen-b)"/>
    <path fill="#AB866C" d="M96.3146889,113.248678 C99.6813567,114.208823 99.7726464,112.973213 103.648908,115.142687 C105.192356,116.006522 109.851555,118.908063 113.197679,117.207447 C115.616637,115.978049 116.635932,115.28029 118.580677,114.208823 C118.095593,113.758171 117.402209,113.82478 116.788201,113.93354 C114.818813,114.282457 113.178088,115.607091 111.132435,115.76997 C109.229453,115.921402 108.397547,114.880116 107.063956,113.775344 C105.709612,112.653139 104.154231,112.04221 102.408966,111.772131 C101.062145,111.563458 99.5052058,112.494732 98.1796557,112.154402 C97.2579963,111.917628 95.3088427,110.9952 95.0559246,109.93388 C94.7674683,108.72295 95.5250658,107.413153 96.3146889,106.731191 C97.1507453,106.009161 95.7721367,107.987736 95.0559246,109.091208" mask="url(#karlallen-b)"/>
    <path fill="#D3A788" d="M129.028169,119.501006 C131.408046,121.918362 125.254057,129.286491 124.897637,130.784412 C124.537585,132.297424 125.073771,135.145738 124.8442,136.690754 C124.378052,135.499858 123.937326,134.296734 123.552891,133.077738 C123.419817,132.655968 122.526951,128.298545 122.89686,128.281112 C122.353929,128.306871 121.567678,128.487964 121.325915,127.568708 C121.043943,126.498541 122.807885,126.081715 123.590245,125.890995 C125.155224,125.509034 125.838492,125.526206 125.564043,123.484486 C125.286741,121.419868 124.315017,118.711797 123.120206,116.973719 C122.485706,116.051341 121.487004,115.333734 120.653282,114.568251 C123.65743,112.268941 122.533696,110.045866 120.662361,107.498594 C123.654058,108.265898 125.113562,115.524751 129.028169,119.501006 Z" mask="url(#karlallen-b)"/>
    <path fill="#B7896A" d="M72.6218846,137.797842 C76.3321278,143.039655 86.5310812,156.230832 91.489313,160.303867 C94.5173259,162.791295 98.205001,163.411591 102.069848,163.486526 C108.218481,163.605694 115.680732,163.85886 120.612245,159.5056 C122.620025,157.732917 124.079427,154.849477 125.584744,152.677921 C127.041811,150.575835 128.487205,148.465944 129.922483,146.349548 C128.457893,148.103498 126.969697,149.839234 125.457636,151.553894 C123.779038,153.457714 121.887211,156.262055 119.596422,157.507331 C118.507707,158.099266 111.880216,160.328585 109.884628,160.52607 C106.662841,160.844804 103.82056,161.074813 100.641575,160.440987 C97.975948,159.909417 93.3015033,159.766311 91.489313,157.507331 C89.5362667,155.072461 87.185296,150.06508 85.9025474,147.260218 C83.2638986,141.492558 81.6806915,137.571651 75.8446395,134.214403 C74.1484024,133.238425 72.6127601,130.181959 71.2392204,128.750386 C69.840778,127.293575 69.2485363,124.525376 68.3219483,122.767003 C65.925582,118.21886 65.2418651,113.505864 64.2408283,108.713401 C64.1759775,113.757209 65.532656,120.886189 67.0869996,125.653154 C67.8628744,127.904329 71.094,135.639035 72.6218846,137.797842 Z" mask="url(#karlallen-b)"/>
    <path fill="#D3A788" d="M89.0232915,152.149306 C89.0232915,152.149306 84.4827232,139.355213 81.8086416,136.615074 C79.1345599,133.874935 74.5179945,131.227285 72.2846956,128.450556 C70.0513966,125.673828 65.2390027,114.60401 65.2390027,114.60401 C65.2390027,114.60401 67.7904758,125.016235 69.7461324,129.674268 C71.7017889,134.332302 83.1271802,148.44463 85.4374895,151.028248 C87.7477987,153.611866 90.2739395,158.003102 95.2309715,159.741098 C100.188003,161.479094 108.85142,161.102529 113.382868,160.422576 C117.914317,159.742623 120.294543,156.729079 120.294543,156.729079 C120.294543,156.729079 114.891662,159.067751 107.693225,159.067751 C100.494788,159.067751 97.3626974,159.668427 93.8080636,156.880519 C90.2534299,154.09261 89.0232915,152.149306 89.0232915,152.149306 Z" mask="url(#karlallen-b)"/>
    <path fill="#C37D67" d="M100.751262,136.381851 C106.150479,138.30715 107.337492,137.572438 112.286298,136.954557 C116.092432,136.479343 119.35759,132.80027 121.092737,130.526198 C121.607134,129.852043 124.152916,127.442411 122.354215,126.911881 C121.78275,126.743277 120.367846,127.145013 119.781336,127.217346 C118.504554,127.374501 117.23344,127.093495 115.952508,126.911881 C114.519565,126.709192 113.011173,126.309799 111.555662,126.350909 C110.351513,126.385254 109.362295,126.668082 108.198353,126.911881 C107.06554,127.149176 106.190946,126.864266 104.988612,126.717518 C103.602362,126.548134 102.139587,126.700085 100.751262,126.754465 C98.6724048,126.836165 96.5927698,126.922549 94.5115783,126.911881 C93.8277916,126.908499 90.6216873,126.417518 91.0131266,127.765569 C93.4849792,129.941288 96.6946847,134.935322 100.751262,136.381851 Z" mask="url(#karlallen-b)"/>
    <path fill="#3F2A26" d="M93.0622558,127.950174 C96.5465589,130.935609 100.838903,133.587218 105.521389,134.225468 C108.768338,134.668053 112.659645,133.733966 115.527865,132.21497 C117.502183,131.169781 119.030586,129.544106 120.747316,128.162751 C111.493628,128.70551 102.309719,128.484087 93.0622558,127.950174" mask="url(#karlallen-b)"/>
    <path fill="#CDC1BA" d="M119.651078,87.4769534 C121.792451,85.5900462 125.388816,83.9542237 128.314365,84.3882227 C131.130446,84.8055695 132.121366,86.1489371 133.952752,88.2109529 C131.836541,88.9717522 129.909435,89.5964715 127.656778,89.2319435 C126.192707,88.9949092 124.743681,88.6644663 123.275978,88.4479872 C122.094656,88.2739192 120.433179,88.5541452 119.651078,87.4769534" mask="url(#karlallen-b)"/>
    <path fill="#E9E9E9" d="M121.117694,86.2243856 C121.117694,86.2243856 124.144454,85.7383674 126.628579,85.9813765 C129.112705,86.2243856 133.016937,87.6814931 133.016937,87.6814931 C133.016937,87.6814931 130.533284,89.0665978 127.228831,89.0665978 C123.924377,89.0665978 120.594422,88.0719751 120.594422,87.7809705 C120.594422,87.4899659 121.117694,86.2243856 121.117694,86.2243856 Z" mask="url(#karlallen-b)"/>
    <path fill="#654838" d="M130.147282,86.3764744 C130.147282,87.7125565 129.568813,88.6815089 128.729384,89.2833313 C128.110708,89.3340686 124.7587,88.885759 123.080881,88.4554026 C122.704746,87.906399 122.477509,87.2137699 122.477509,86.3769947 C122.47725,81.5176625 130.147282,81.507515 130.147282,86.3764744" mask="url(#karlallen-b)"/>
    <path fill="#4E3629" d="M130.147282,86.4682178 C129.05701,86.157029 124.213175,85.5151372 122.477509,86.468478 C122.47725,81.6091458 130.147282,81.5992585 130.147282,86.4682178" mask="url(#karlallen-b)"/>
    <path fill="#B8896A" d="M117.245529,87.6252103 C116.235413,88.3571284 115.928539,89.3021431 115.703118,90.4779475 C115.547995,91.285321 115.113235,92.2678032 114.693521,91.0360578 C114.364338,90.0702277 114.61155,88.5707454 114.712457,87.5926864 C114.964078,85.1614592 116.253053,82.8384715 117.848641,80.9833077 C119.036189,79.6027328 120.968742,79.7317877 122.694811,79.6178239 C125.780152,79.4140941 128.30596,80.4897248 126.747466,80.9234637 C124.137871,81.6501779 127.313743,82.7513074 128.14954,82.9334413 C130.321523,83.4069894 133.975476,84.3228627 135.102582,86.4205247 C135.680792,87.4974564 136.404527,87.813849 136.694021,88.8959845 C136.807899,89.3219176 137.739156,90.3868805 138.048105,90.4779475 C137.662113,90.7919983 135.162764,90.3816767 134.88183,90.067886 C134.284165,89.3994546 133.10881,88.4562613 132.825282,87.6257307 C132.015425,85.2548678 130.81828,84.7032623 128.392082,84.1974505 C125.819581,83.6609361 123.615433,84.5846151 121.481323,86.0302378 C120.754994,86.5222595 120.014139,87.3259904 120.659534,87.7105531 C121.13061,87.9912995 117.915567,87.1399536 117.245529,87.6252103" mask="url(#karlallen-b)"/>
    <path fill="#000" d="M127.874729,86.3767345 C127.874729,88.3557494 124.749699,88.3508057 124.749699,86.3767345 C124.749699,84.4047449 127.874729,84.3852305 127.874729,86.3767345" mask="url(#karlallen-b)"/>
    <path fill="#FEFEFE" d="M128.478905,85.6888929 C128.478905,86.348738 127.441292,86.348738 127.441292,85.6888929 C127.441292,85.0290478 128.478905,85.0290478 128.478905,85.6888929" mask="url(#karlallen-b)"/>
    <path fill="#855E37" d="M118.07287,80.9023101 C119.207499,77.5539086 122.455486,77.2926766 125.605418,77.0915487 C128.627465,76.898747 130.933299,77.1992679 133.926552,77.7969273 C135.799962,78.1710823 139.225121,78.8699561 140.116171,80.5164465 C140.566754,81.3490586 141.792693,84.6196629 139.832124,83.2986718 C138.276484,82.2508815 137.431348,81.0729956 135.458068,80.9119372 C133.703206,80.7685718 126.23473,80.525293 124.251593,80.9855713 C122.446666,81.4047395 119.450819,82.6612032 118.07287,80.9023101" mask="url(#karlallen-b)"/>
    <path fill="#B0A681" d="M94.5513077,128.071372 C95.5717997,129.854202 96.9048724,129.721244 98.7225103,129.817775 C101.422378,129.961401 104.122246,130.104766 106.822374,130.248392 C109.986314,130.416475 117.443376,132.003122 118.863089,128.162699 C110.730023,128.428614 102.684375,128.604764 94.5513077,128.071372" mask="url(#karlallen-b)"/>
    <path fill="#DED4BE" d="M96.9550929,128.518328 C97.0951706,129.306708 97.2619668,130.663085 98.170656,130.944872 C98.9514595,131.18685 99.4373216,130.38494 99.9771395,130.532469 C100.491017,130.673232 100.842768,131.360658 101.51099,131.480346 C101.823052,131.536026 102.4368,131.371065 102.625386,131.533685 C102.999964,131.856062 102.850289,132.457624 103.429536,132.76465 C103.843803,132.983991 104.589846,132.952508 105.048212,132.992057 C105.39659,133.022239 105.828237,133.116168 106.173762,133.066211 C106.446135,133.027183 106.928625,132.630911 107.17869,132.684511 C107.462217,132.745656 107.595032,133.266038 107.876484,133.367773 C108.112541,133.452856 108.679337,133.269161 108.937184,133.240019 C109.507352,133.176012 110.139777,133.191363 110.698012,133.075058 C111.486598,132.910357 111.453135,132.666037 112.013705,132.252593 C112.796843,131.675229 113.715649,131.618767 114.220447,130.641489 C114.324728,131.71712 115.309941,132.114171 116.070251,131.247995 C116.625115,130.61599 116.980238,129.246864 117.067138,128.437148 C116.099823,128.625527 115.159746,129.196907 114.220447,129.327263 C114.582834,127.390919 112.877517,129.081902 112.164937,129.630386 C112.149113,129.361088 112.064289,129.091269 112.062213,128.821711 C110.782318,129.164643 107.928884,128.88832 107.540557,130.237152 C106.921881,129.324661 106.853398,129.373577 105.781804,129.139925 C105.045358,128.979387 104.150417,128.499594 103.392441,128.570627 C102.52811,128.651286 102.670004,128.995519 101.744194,128.722578 C101.000744,128.503237 99.4598897,127.628214 99.5242217,129.125094 C98.6679319,128.922926 97.8116421,128.720497 96.9550929,128.518328" mask="url(#karlallen-b)"/>
    <path fill="#855E37" d="M150.594034,50.7244415 C149.216344,45.581761 148.660703,39.7355232 140.727117,31.3451352 C139.177961,29.7069709 133.250081,25.2254364 132.022326,24.7271701 C130.824142,24.2411328 126.63997,23.8937775 125.624147,23.4798132 C124.346068,22.9594306 123.613254,22.3664547 122.809882,21.2681873 C121.230636,19.1093803 119.3689,17.2185703 117.070328,15.7825747 C111.917544,12.5637484 104.979548,12.7307912 99.301991,14.3564663 C93.7995314,15.9319245 87.7694459,17.3692211 83.2426016,21.0113785 C78.6527224,24.7047937 75.1160199,29.7361124 71.7505234,34.4754964 C70.0955314,36.8057695 68.2976082,38.6695196 66.1131743,40.5207805 C63.9435264,42.3595522 62.033541,44.2742998 61.155202,47.0242614 C58.4140889,55.6043288 59.1697303,67.7844028 59.3277068,71.4109488 C59.4859427,75.0515451 62.4003371,78.3892787 62.9902198,79.9826901 C63.5679106,81.5433174 64.2187531,86.0953637 65.2317224,87.3905959 C69.1009797,81.6809585 67.3251058,74.1884906 67.5276996,67.7604652 C67.6340549,64.3803203 67.8241974,55.7138694 68.9526011,52.6324241 C70.0812642,49.5509788 72.1318461,45.6244323 75.7007146,42.3501853 C79.2693236,39.0761985 83.8252211,35.5636163 89.2755406,33.6452261 C94.7258601,31.7268358 108.630388,30.455281 114.819487,30.7976928 C121.008068,31.1401045 129.993274,35.8326541 132.599238,37.8696916 C135.308445,39.9876486 137.431141,42.5029176 139.048779,45.5107287 C140.611164,48.4162847 141.617648,51.5393606 142.660708,54.6502074 C143.808826,58.074845 144.91544,61.6014775 145.112587,65.2256818 C145.305323,68.77365 144.348904,83.2980473 144.348904,87.005773 C144.348904,88.2232079 144.140862,92.1786357 144.912068,93.1993661 C145.263819,93.6651084 147.046178,87.7855662 147.37562,86.3126234 C147.744491,84.6630107 151.127367,74.67739 151.462516,70.9316764 C151.821011,66.9184862 153.0952,60.0627063 150.594034,50.7244415" mask="url(#karlallen-b)"/>
    <path fill="#B8896A" d="M64.0260944 97.6894609C64.3459385 96.1329967 64.5327087 94.2281363 65.3163656 92.8246646 65.9713586 91.6509418 66.4971688 91.9361114 66.155016 90.7069678 65.9443807 89.9505918 65.8380254 88.4877965 65.3640958 87.8667199 65.2717483 87.7454707 65.3257042 87.4566584 65.1970402 87.3960339 64.9415281 87.2760857 64.1604652 87.7576997 63.9516457 87.8932594 62.7685079 88.6600431 62.3902982 90.0754836 62.146978 91.3707158 61.6660446 93.9291766 62.5705833 95.6188587 64.0260944 97.6894609M61.2309217 87.9597383C61.3834508 86.3840199 61.847523 84.5988476 61.5136712 83.0585152 61.074761 81.0344873 60.4150988 79.5498359 59.0809885 78.0183501 59.8586791 81.3269423 60.6591972 84.6087348 61.2309217 87.9597383M64.2409061 108.713297C64.3485584 107.79248 64.4559513 106.871663 64.5636037 105.951106 64.6341613 105.346162 65.133253 103.715803 64.8611391 103.176166 64.7306593 102.917536 63.7542658 102.561334 63.523397 102.385445 62.9700901 101.963155 62.8875999 101.804958 62.7135404 101.204957 62.3892865 100.088997 62.3223605 98.8351351 62.0909729 97.6895129 61.9109471 99.5282846 61.7628279 101.391254 61.8090016 103.239393 61.8637357 105.429423 63.0051095 106.942175 64.2409061 108.713297" mask="url(#karlallen-b)"/>
    <path fill="#6A3F3B" d="M95.3705547 127.973279C94.700257 128.010227 94.0299593 128.047174 93.3596615 128.083861 93.5604396 128.244399 94.8499326 129.106933 94.76848 129.387939 94.7344982 129.504765 92.4704275 128.755414 92.3010373 128.684382 91.5147864 128.354199 90.7570698 127.885335 90.6789894 126.960095 91.420623 126.938759 92.3975353 126.728524 93.1168602 126.889843 93.8688699 127.058447 94.6740573 127.638673 95.3705547 127.973279M118.862986 128.162725C119.962077 127.901753 121.641971 127.069661 122.718495 127.635577 121.576602 128.916499 120.395799 130.145903 119.171157 131.350328 119.109937 130.898376 118.816812 130.04781 118.968563 129.638269 119.136656 129.184496 120.093335 128.61936 120.4648 128.282933 119.930948 128.242864 119.397097 128.202794 118.862986 128.162725" mask="url(#karlallen-b)"/>
    <path fill="#593E29" d="M121.990531 113.203756C122.613099 111.162295 121.520493 109.308172 120.662387 107.498542 122.448119 109.116151 124.170037 112.931596 121.990531 113.203756M136.693917 88.8959325C136.225694 85.9209055 133.385749 84.486471 130.780303 83.5932343 128.175118 82.6999977 126.423627 81.7669518 123.451386 82.8392 119.894191 84.1224634 118.952298 85.3830901 118.952298 85.3830901 118.952298 85.3830901 121.429339 84.3264533 122.380311 83.7680829 123.403915 83.1667808 127.435559 82.6466585 128.40002 83.7217688 127.11364 83.8830874 125.433486 83.7027748 123.951516 84.2595842 122.647496 84.7495243 121.963969 85.5602803 120.865915 86.3978361 123.01948 85.3859522 123.842826 84.2850829 127.306117 84.5629672 128.396907 84.6503915 129.993534 84.6795329 130.954103 85.2113638 131.59431 85.5660046 134.180819 87.9233375 132.129459 88.922472 132.373039 89.0856119 134.728419 89.5092033 134.743465 89.3923774 134.968627 87.6509172 132.996384 85.8420675 132.459679 85.1343472 134.125566 86.2026926 135.495734 87.3157909 136.693917 88.8959325" mask="url(#karlallen-b)"/>
    <path fill="#CDC1BA" d="M91.504073,83.0349159 C88.3746335,81.8078538 84.4109534,83.9645793 82.0934457,86.0089021 L81.4716563,86.6206118 C82.5204233,87.0023124 83.5256104,87.3257302 84.5339105,87.5671877 C85.4018734,87.5432501 86.2835847,87.5807176 87.0786553,87.5913855 C87.7214563,87.5997116 92.4140592,87.3314544 92.1865627,87.3551318 C92.9969381,87.3108993 96.4586731,88.0724791 97.5144439,87.1100316 C95.6384403,85.4585976 93.89577,83.9726452 91.504073,83.0349159" mask="url(#karlallen-b)"/>
    <path fill="#E8E8E8" d="M83.2739811,86.850146 C83.2739811,86.850146 85.3311769,84.9577064 88.0320728,84.9577064 C90.7329687,84.9577064 95.4523345,87.4001141 95.4523345,87.4001141 C95.4523345,87.4001141 89.5532453,87.4635901 87.7387949,87.4635901 C85.9243444,87.4635901 83.2739811,86.850146 83.2739811,86.850146 Z" mask="url(#karlallen-b)"/>
    <path fill="#654838" d="M86.5566584,87.5813941 C86.7335713,87.585297 86.9086685,87.5889397 87.0788369,87.5912814 C87.714634,87.5996075 90.7548389,87.5004746 92.1429051,87.3597112 C92.7073664,86.7625722 93.0684556,85.938026 93.0684556,84.883731 C93.0684556,82.1852873 90.7125562,81.5642107 88.6121689,81.8577065 C86.9224168,82.0942203 85.3981639,82.7178988 85.3981639,84.8842514 C85.3981639,86.0759274 85.8606797,86.9738475 86.5566584,87.5813941" mask="url(#karlallen-b)"/>
    <path fill="#4E3629" d="M93.1306604,85.0089611 C93.1306604,82.3105174 90.7747611,81.6894408 88.6743738,81.9831967 C86.9851405,82.2191902 85.4606282,82.8431289 85.4608876,85.0094814 C85.4608876,85.2519797 85.479824,85.4825092 85.5161405,85.7008097 C86.9060225,84.4667224 91.8370169,84.4667224 93.1306604,85.0089611" mask="url(#karlallen-b)"/>
    <path fill="#B8896A" d="M104.011663,85.4796471 C103.566267,82.9557917 102.468473,81.2947306 100.777165,79.2769473 C99.837866,78.1563035 99.6946755,78.3306316 98.2264537,78.3837106 C94.9673125,78.5015773 91.7076526,78.6194439 88.4485115,78.7373106 C89.1691334,78.8445094 92.4949411,79.2678406 91.6010379,80.3830204 C90.9146572,81.2395701 87.8508466,81.5249999 86.7003937,81.7818087 C84.1341183,82.3544897 82.3310071,83.2191053 80.2495562,84.8127768 C79.4710874,85.408875 77.7131123,87.6584888 76.852672,88.31313 C75.9919724,88.9675111 80.6835377,88.630043 81.1172598,88.3677702 C81.9450152,87.8177259 83.3003966,87.6030681 84.4726395,87.549989 C83.5242616,87.2726251 82.3644701,86.9458249 81.4716045,86.6205858 C83.6282822,84.4989862 87.5522736,81.9485913 90.7284057,82.7648113 C93.4256796,83.4579609 95.5063523,85.3425263 97.514392,87.1100056 C96.8905275,87.2325557 101.133325,87.9642136 100.242275,91.4338642 C99.7411086,93.3845182 98.7750913,100.041512 98.7750913,100.041512 C98.7750913,100.041512 103.872104,94.4291861 104.073141,91.3724591 C104.202065,89.4145197 104.159004,87.4360253 104.011663,85.4796471" mask="url(#karlallen-b)"/>
    <path fill="#855E37" d="M102.498823,79.653314 C101.187281,75.7829688 95.8677008,74.7096798 92.1919583,74.9381277 C90.0378745,75.0721262 81.3022142,75.7585108 79.5611003,76.7389115 C77.9958617,77.6206997 77.413761,78.374734 76.1922316,79.6717875 C75.334126,80.5827172 73.8384075,83.7476839 75.7411296,83.2702329 C76.9115566,82.9764769 78.562917,80.1903488 82.2988411,79.609862 C86.0350246,79.0293753 93.6591425,79.0436858 95.8939006,79.3824548 C97.9421478,79.6931232 101.454726,82.4758689 102.498823,79.653314" mask="url(#karlallen-b)"/>
    <path fill="#000" d="M90.7957727,84.8839391 C90.7957727,86.8632142 87.670743,86.8580103 87.670743,84.8839391 C87.670743,82.9122097 90.7957727,82.8924351 90.7957727,84.8839391" mask="url(#karlallen-b)"/>
    <path fill="#FEFEFE" d="M91.3996892,84.1962276 C91.3996892,84.8560727 90.3620766,84.8560727 90.3620766,84.1962276 C90.3620766,83.5363825 91.3996892,83.5363825 91.3996892,84.1962276" mask="url(#karlallen-b)"/>
    <path fill="#593E29" d="M97.5896449 83.233728C95.6695428 79.8273039 89.3587831 80.9721455 85.2433521 82.0912281 82.4342755 82.8551497 80.6358335 84.7287871 79.0532149 87.0640038 80.148415 87.4501276 82.1660526 87.117343 82.77565 87.0692076 83.0340155 86.9396324 82.112875 86.1228919 84.4213036 84.8677292 85.3590459 84.3582747 86.288228 83.8038071 87.3043101 83.5376314 89.3136469 83.0110043 91.1774585 83.3401463 93.0046943 84.294788 93.9987271 84.8141298 94.9595564 85.3511646 95.9816048 85.8150857 94.0931499 83.9162097 92.8376386 82.8538488 89.2856314 82.0727546 91.1336194 82.0116096 93.2350443 82.0685915 94.9696731 82.7705876 95.6062484 83.0279167 96.1733037 83.3919243 96.872914 83.5006843 97.0996323 83.5358101 98.157219 83.7364176 97.5896449 83.233728M97.740384 105.882962C94.7816318 107.847927 95.4301396 110.769354 97.1554299 113.378032 92.9354596 113.71498 93.8342915 106.504299 97.740384 105.882962M97.9539247 113.760331C98.9728603 113.363279 100.394908 112.892853 101.496853 113.079671 102.678694 113.280018 103.377785 114.313237 104.163258 115.087307 106.118379 117.012202 108.088806 117.599453 110.79023 117.863547 109.734459 117.978552 108.594901 118.027468 107.55677 117.782628 106.095292 117.438135 104.962998 116.321914 103.758848 115.497108 102.055867 114.33067 99.9401746 114.271867 97.9539247 113.760331M114.509137 116.469989C116.448695 114.597392 117.888382 113.837894 120.485267 114.640844 118.416267 115.215347 116.460108 115.524454 114.509137 116.469989" mask="url(#karlallen-b)"/>
    <path fill="#DB9C88" d="M95.8953211,132.197641 C95.8953211,132.197641 99.1808838,135.739037 101.935146,136.786866 C104.689408,137.834695 106.880255,137.564685 108.820801,137.564685 C110.761347,137.564685 113.806526,137.287332 115.423096,135.839462 C117.039667,134.391592 118.152328,133.213732 118.152328,133.213732 C118.152328,133.213732 115.91142,133.213732 113.580782,133.722488 C111.250144,134.231244 109.585874,134.79566 106.700794,134.403671 C103.815714,134.011683 101.99229,134.403671 99.907703,133.213732 C97.8231157,132.023792 95.8953211,132.197641 95.8953211,132.197641 Z" mask="url(#karlallen-b)"/>
  </g>
</svg>
