<svg xmlns="http://www.w3.org/2000/svg" xmlns:xlink="http://www.w3.org/1999/xlink" width="120" height="120" viewBox="0 0 120 120">
  <defs>
    <path id="kenneth-a" d="M120,59.9999233 C120,93.1369885 93.1369885,120 59.9999233,120 C26.8628581,120 0,93.1369885 0,59.9999233 C0,26.8628581 26.8628581,0 59.9999233,0 C93.1369885,0 120,26.8628581 120,59.9999233"/>
  </defs>
  <g fill="none" fill-rule="evenodd">
    <mask id="kenneth-b" fill="#fff">
      <use xlink:href="#kenneth-a"/>
    </mask>
    <use fill="#7BCAEC" xlink:href="#kenneth-a"/>
    <g mask="url(#kenneth-b)">
      <g transform="translate(-4 12)">
        <path fill="#7DAF99" d="M0,98.4260532 C0,98.4260532 1.71533748,86.3623662 4.31278281,85.4425577 C6.91022813,84.5227492 26.8950886,76.0699165 31.1730816,74.6899152 C35.4513622,73.3099139 43.3963707,71.0103926 44.9242459,70.3969945 C46.452121,69.7835965 79.5331778,70.6402187 81.1746229,71.055402 C82.8160681,71.4700083 86.9097615,74.440055 86.9097615,74.440055 C86.9097615,74.440055 101.761835,82.049249 104.664913,82.8158523 C107.567991,83.5827441 117.334144,88.3906767 119.320324,89.7703895 C121.306505,91.1501023 121.930133,117.773481 121.930133,117.773481 L2.29612557,117.773481 L0,98.4260532 Z"/>
        <path fill="#E0AB86" d="M43.1196913,74.123979 C43.8617774,72.6992568 44.808577,71.4563035 45.3413495,69.7182462 C45.8741219,67.980766 45.7410007,64.3713542 45.7410007,64.3713542 C45.7410007,64.3713542 43.6096234,61.8317825 42.9437297,59.2919222 C42.2775485,56.752062 41.8778973,52.2072615 41.8778973,52.2072615 L39.8796413,35.2306198 C39.8796413,35.2306198 40.5458225,22.531607 40.5458225,22.1305613 C40.5458225,21.7295155 43.8761534,11.302903 46.8065455,9.69872001 C49.7372252,8.094537 64.7896998,7.42631976 64.7896998,7.42631976 C64.7896998,7.42631976 77.8442058,7.42631976 80.6417642,9.83259427 C83.4390352,12.2385803 87.1690173,18.1203923 87.4355472,20.5263783 C87.7020772,22.9323642 87.0356085,33.760311 87.0356085,33.760311 L86.1034724,51.67263 C86.1034724,51.67263 86.9024873,56.2174305 84.6379888,60.0940137 C82.3734903,63.970597 80.7748855,67.3125488 80.7748855,67.3125488 C80.7748855,67.3125488 80.7748855,70.1195805 81.1745367,71.0552577 C81.5741879,71.990935 82.8145442,75.0723513 82.8145442,75.0723513 C82.8145442,75.0723513 78.686636,89.6995574 64.6997064,89.2988001 C50.7127767,88.8974659 42.3776051,75.5489898 43.1196913,74.123979"/>
        <path fill="#D2A17E" d="M86.1034724 51.6725146C86.1034724 51.6725146 87.6345103 51.456123 87.9447431 50.8334923 88.254976 50.210573 88.6690031 48.7572871 88.5654963 48.2385243 88.4619895 47.719473 87.4274967 45.7474243 87.6345103 44.6057422 87.8415238 43.4640602 88.392985 41.9305651 88.6345008 40.3102249 88.8760167 38.6895961 88.254976 36.7175474 88.254976 36.7175474 88.254976 36.7175474 89.2641671 35.3130217 88.5010921 34.5619986 87.7380171 33.8115525 87.0356085 33.7601956 87.0356085 33.7601956 87.0356085 33.7601956 86.9105378 38.7931755 86.600305 40.3503294 86.2897846 41.9071948 86.2897846 48.6537076 86.2897846 48.6537076L86.1034724 51.6725146zM41.6649609 52.2867493L42.0111336 49.4000855C42.0111336 49.4000855 40.6163796 45.76211 40.6862467 45.0604242 40.7561138 44.3587384 40.6163796 43.1662765 40.7561138 42.9556554 40.8958479 42.7453227 39.7773996 34.9575336 39.7773996 34.9575336 39.7773996 34.9575336 38.4461873 34.8150036 37.7483791 35.0968898 37.0505708 35.3784873 36.1417237 37.0623025 36.3516125 38.5357849 36.5612137 40.0089789 37.8815003 44.4542393 37.8815003 44.4542393 37.8815003 44.4542393 37.2604596 48.2878327 37.609795 49.5506941 37.9594179 50.8135554 39.0781538 52.3568602 40.0568679 52.5674814 41.0358696 52.777814 41.6649609 52.2867493 41.6649609 52.2867493"/>
        <path fill="#BB876D" d="M45.8741506,65.0397734 C45.8741506,65.0397734 55.997977,75.1992144 57.5965818,76.1348917 C59.1951867,77.0705689 65.5890309,78.1398319 67.9869382,77.6052004 C70.3845579,77.0705689 72.7824651,75.7338459 74.11454,74.3971229 C75.4466148,73.0603999 77.7111133,71.1887569 77.7111133,71.1887569 C77.7111133,71.1887569 70.1467798,81.8187775 66.4167977,83.4229605 C62.6871031,85.026855 56.0160907,83.4215179 51.7533362,77.9410402 C47.4905816,72.4605624 45.8741506,65.0397734 45.8741506,65.0397734"/>
        <path fill="#B76D61" d="M55.5503964,60.1346088 C55.5503964,60.1346088 60.0362656,59.4704309 60.9919782,59.1752728 C61.9479784,58.8801146 63.786374,58.4372332 64.1541106,58.4372332 C64.5215597,58.4372332 66.0658234,58.8801146 66.5071649,58.8801146 C66.9485063,58.8801146 68.6396922,58.5110948 69.0810337,58.5110948 C69.5223751,58.5110948 71.8751419,59.3965692 72.5370103,59.6917274 C73.1991662,59.9868855 75.4052984,60.5033401 75.4052984,60.5033401 L75.551933,61.0939449 C75.551933,61.0939449 73.4930105,62.1268541 73.0519565,62.4223007 C72.6106151,62.7171703 71.2914786,64.6346884 70.3357659,65.0772813 C69.3797657,65.5198742 67.0954285,65.7426133 65.3306377,65.5951785 C63.565847,65.4477437 61.7271639,65.0787239 60.4773195,64.414546 C59.2271875,63.7503681 56.9474505,61.0200832 56.5061091,60.8726484 C56.0650551,60.7249251 55.5503964,60.1346088 55.5503964,60.1346088"/>
        <path fill="#BB876D" d="M62.6850042 42.9650035C62.5927107 43.2437158 61.781045 45.2365381 61.133265 45.7939629 60.4851975 46.3510991 59.9811769 46.9333368 59.8883084 48.1410904 59.7960148 49.348844 60.9481028 49.9743599 61.4107207 49.6027434 61.8739136 49.2311269 62.7994367 48.9524146 62.7994367 48.9524146 62.7994367 48.9524146 64.6510582 49.9743599 65.2065446 50.2530723 65.7617435 50.5317847 67.0578785 50.8102085 67.7985271 50.438592 68.5388881 50.0669755 69.2798242 49.3240311 69.2798242 49.3240311 69.2798242 49.3240311 70.390797 49.6027434 71.2237392 50.0669755 72.0569688 50.5317847 72.6121677 50.9034012 73.0753606 50.2530723 73.5382659 49.6027434 73.0753606 47.9304692 73.0753606 47.9304692L71.7792256 46.4442918C71.7792256 46.4442918 72.4272931 46.4442918 73.3531038 47.2801403 74.278627 48.1162775 74.3714956 50.0669755 73.8160091 50.9034012 73.2602352 51.7392498 72.7976174 52.5753869 71.6866445 52.4824828 70.5756717 52.3895786 70.6685403 52.2966745 69.6501485 52.1108663 68.6317567 51.925058 68.5388881 53.0399075 67.1504596 53.2257157 65.7617435 53.411524 65.2065446 52.4824828 64.0955717 52.3895786 62.9845989 52.2966745 61.2258461 52.2966745 60.9481028 52.668291 60.6700721 53.0399075 59.4668057 53.3186199 58.6335761 52.668291 57.800634 52.0179621 57.0599854 50.1598797 57.5226032 48.7663178 57.9855086 47.3730445 62.6850042 42.9650035 62.6850042 42.9650035M69.4523643 34.423508C69.4523643 33.3450123 71.0644825 31.7266917 71.0644825 31.7266917L79.5330628 31.9024017C79.5330628 31.9024017 80.2006816 33.4217592 81.3524821 34.6546142 82.5039951 35.8871807 84.3467034 35.9642161 84.0393458 36.888641 83.7322756 37.8133544 82.6575302 38.3526022 82.6575302 38.3526022 82.6575302 38.3526022 80.6612868 38.0444606 79.8936114 38.0444606 79.1259361 38.0444606 76.2255183 37.8133544 76.762891 38.3526022 77.3002638 38.8918501 78.6632419 39.6360813 78.2026367 39.8671875 77.7420315 40.0982937 75.3640394 39.5851688 74.5963641 39.2770271 73.8286887 38.9688855 72.8304233 38.1985314 71.8321578 37.8903898 70.8344674 37.5819597 69.8362019 37.0427118 69.8362019 37.0427118 69.8362019 37.0427118 69.4523643 35.5020037 69.4523643 34.423508z"/>
        <path fill="#BB876D" d="M51.9411435,40.0690492 C51.9411435,40.0690492 52.6899192,40.9515913 54.5898438,40.8647461 C56.4900559,40.7781895 56.7271823,40.3290076 57.590889,40.0690492 C58.4545956,39.8090908 59.924967,38.6148977 60.5276065,39.1154836 C62.8504713,41.0465622 59.2789121,46.1069517 59.5379666,46.1937968 C59.7973086,46.280065 63.2161953,44.9926792 63.4539734,39.8679493 C63.5278658,38.2715564 63.0321833,34.5222114 62.3412755,33.6552024 C61.6503676,32.7884819 58.5408512,32.0948748 57.590889,32.2682766 C56.6406391,32.4419669 52.6323388,32.9033138 51.9411435,33.1635607 C51.2505232,33.4235191 44.9452347,34.7155212 44.9452347,34.7155212 C44.9452347,34.7155212 45.4708192,38.5182428 47.1364159,38.5658489 C48.038075,38.5915274 48.9486472,38.2755957 48.9486472,38.2755957 C48.9486472,38.2755957 52.7099609,39.5490723 54.2032517,39.5490723 C55.2121267,39.5490723 51.9411435,40.0690492 51.9411435,40.0690492 Z"/>
        <path fill="#AAA3A4" d="M73.532113 37.5400085L72.4119396 37.1833952 72.311308 36.5774987C72.311308 36.5774987 73.8992746 35.4286036 74.8552748 35.2263496 75.8109875 35.0243841 77.3917661 34.8613691 78.4984262 35.1643174 79.6050863 35.4669771 81.5167991 36.7289728 81.5167991 36.7289728L80.7048459 37.2520635 73.532113 37.5400085zM49.2727097 38.0919802C49.2727097 38.0919802 49.7252644 37.0319499 51.7879247 36.6283075 53.8502974 36.224088 56.214565 36.5270362 56.7174354 36.5270362 57.2205934 36.5270362 58.418397 37.1842896 58.418397 37.1842896L58.3261034 37.6548692C58.3261034 37.6548692 56.0130142 39.0005364 54.202508 38.8995536 52.3914268 38.7985709 50.2356104 38.2884638 50.2356104 38.2884638L49.2727097 38.0919802z"/>
        <path fill="#D8CECD" d="M50.2354954 38.2883484C50.2354954 38.2883484 52.3122441 37.3512285 54.1428766 37.2441868 55.9735091 37.1368566 57.4654445 37.4248017 57.4654445 37.4248017L58.3262759 37.6550423 58.1540521 38.1155236C58.1540521 38.1155236 55.6293491 38.9796474 54.1374137 39.0944792 52.6454784 39.2095995 50.2354954 38.2883484 50.2354954 38.2883484M73.532113 37.5400085C73.532113 37.5400085 75.3785591 36.5601874 76.5734875 36.5033485 77.7684158 36.4467982 78.9834705 36.4459326 79.6145744 36.6187574 80.2459658 36.7912936 80.7048459 37.2520635 80.7048459 37.2520635 80.7048459 37.2520635 78.8112467 38.0004898 77.0326551 38.0581943 75.2534884 38.1156102 73.532113 37.5400085 73.532113 37.5400085"/>
        <path fill="#251310" d="M56.0080689,36.614141 C56.269136,37.7142759 55.5917416,38.8187386 54.4951447,39.0807167 C53.3988353,39.3424062 52.2985007,38.6629366 52.037146,37.5625133 C51.7760789,36.4623784 52.4534733,35.3579157 53.5500702,35.0959376 C54.6466671,34.8342481 55.7470018,35.5140062 56.0080689,36.614141"/>
        <path stroke="#1D0500" stroke-width=".5" d="M56.0080689,36.614141 C56.269136,37.7142759 55.5917416,38.8187386 54.4951447,39.0807167 C53.3988353,39.3424062 52.2985007,38.6629366 52.037146,37.5625133 C51.7760789,36.4623784 52.4534733,35.3579157 53.5500702,35.0959376 C54.6466671,34.8342481 55.7470018,35.5140062 56.0080689,36.614141 Z"/>
        <path fill="#1D0500" d="M56.0858428,37.0782 C56.0858428,37.0782 55.1637698,36.6817706 54.1022502,36.6301252 C53.1215234,36.582519 51.9840988,36.8635396 51.9930119,36.9700042 C52.0226263,35.8361123 52.9631005,34.9414052 54.0930496,34.971123 C55.2232862,35.0011293 56.1157447,35.9443081 56.0858428,37.0782"/>
        <path fill="#000" d="M54.8394485,36.8933728 C54.9466931,37.3457754 54.6680873,37.8001978 54.2169702,37.9081051 C53.7661406,38.0157238 53.3130109,37.7361459 53.2057664,37.2834547 C53.0985219,36.8307635 53.3771276,36.3766296 53.8279572,36.2687224 C54.2793618,36.1611036 54.7319165,36.4406815 54.8394485,36.8933728"/>
        <path fill="#FEFEFE" d="M55.4405929,36.7981316 C55.417879,36.9963463 55.2390422,37.1388762 55.0412293,37.116083 C54.8434163,37.0927127 54.7016695,36.9132519 54.724671,36.7150372 C54.747385,36.516534 54.9262217,36.3742926 55.1237472,36.3970859 C55.3218477,36.4198791 55.4635945,36.5996284 55.4405929,36.7981316"/>
        <path fill="#251310" d="M78.7374981,35.7967579 C78.9982777,36.8968927 78.3211708,38.0013554 77.2245739,38.2633335 C76.1282645,38.5250231 75.0276423,37.8455535 74.7665752,36.7451301 C74.5055081,35.6449952 75.1829025,34.5405325 76.2792119,34.2785545 C77.3760963,34.0168649 78.476431,34.696623 78.7374981,35.7967579"/>
        <path stroke="#1D0500" stroke-width=".5" d="M78.7374981,35.7967579 C78.9982777,36.8968927 78.3211708,38.0013554 77.2245739,38.2633335 C76.1282645,38.5250231 75.0276423,37.8455535 74.7665752,36.7451301 C74.5055081,35.6449952 75.1829025,34.5405325 76.2792119,34.2785545 C77.3760963,34.0168649 78.476431,34.696623 78.7374981,35.7967579 Z"/>
        <path fill="#1D0500" d="M78.8149844,36.2608169 C78.8149844,36.2608169 77.893199,35.8643875 76.8313919,35.812742 C75.8509526,35.7651358 74.713528,36.0461564 74.7224411,36.1526211 C74.7520555,35.0187291 75.6925297,34.124022 76.8224788,34.1537398 C77.9527154,34.1837461 78.8448864,35.1269249 78.8149844,36.2608169"/>
        <path fill="#221F20" d="M77.5688777,36.0759896 C77.6761223,36.5283923 77.3975165,36.9828146 76.9463994,37.0907219 C76.4955699,37.1983406 76.0424401,36.9187627 75.9351956,36.4660715 C75.8276636,36.0133803 76.1065568,35.5592465 76.5573864,35.4513392 C77.008791,35.3437204 77.4613457,35.6232984 77.5688777,36.0759896"/>
        <path fill="#FEFEFE" d="M78.1700222,35.9807484 C78.1473082,36.1789631 77.9684714,36.3214931 77.7703709,36.2986998 C77.5728455,36.2753295 77.4310987,36.0961573 77.4538127,35.8976541 C77.4768142,35.6991508 77.6556509,35.5569094 77.8531764,35.5797027 C78.0512769,35.6024959 78.1930237,35.7822452 78.1700222,35.9807484"/>
        <path fill="#251310" d="M78.7167105,35.9545506 C78.9728898,37.0339119 78.3084337,38.1170239 77.2328257,38.3738086 C76.1575052,38.6305933 75.0778719,37.9641072 74.8216926,36.8850345 C74.5658008,35.8053847 75.2302569,34.7222726 76.3055774,34.4657765 C77.3811854,34.2087032 78.4605312,34.8754779 78.7167105,35.9545506"/>
        <path stroke="#1D0500" stroke-width=".5" d="M78.7167105,35.9545506 C78.9728898,37.0339119 78.3084337,38.1170239 77.2328257,38.3738086 C76.1575052,38.6305933 75.0778719,37.9641072 74.8216926,36.8850345 C74.5658008,35.8053847 75.2302569,34.7222726 76.3055774,34.4657765 C77.3811854,34.2087032 78.4605312,34.8754779 78.7167105,35.9545506 Z"/>
        <path fill="#1D0500" d="M78.827894,36.4369019 C78.827894,36.4369019 77.9058211,36.0404725 76.8443015,35.988827 C75.8635747,35.9412209 74.7261501,36.2222414 74.7350632,36.3287061 C74.7646776,35.1948142 75.7051518,34.2998185 76.8351009,34.3295363 C77.965625,34.3595426 78.857796,35.30301 78.827894,36.4369019"/>
        <path fill="#000" d="M77.5702866,36.2284158 C77.675806,36.6724514 77.4023756,37.1179295 76.959884,37.2235286 C76.5176801,37.3291277 76.0734634,37.0550317 75.9682315,36.6109962 C75.8629996,36.1669606 76.1361425,35.7214824 76.578634,35.6158833 C77.0211256,35.5102843 77.4650547,35.7843803 77.5702866,36.2284158"/>
        <path fill="#FEFEFE" d="M78.160189,36.1351366 C78.1377625,36.3296005 77.962376,36.4692452 77.7685883,36.4467405 C77.5745131,36.4242358 77.435354,36.2482373 77.4577804,36.0537734 C77.4802069,35.8590209 77.6555934,35.7193762 77.8496686,35.741881 C78.0437439,35.7643857 78.1826155,35.9403842 78.160189,36.1351366"/>
        <path fill="#322726" d="M72.3222337 32.3647584C72.5332725 32.2940704 73.9415399 32.0820067 73.9415399 32.0820067 73.9415399 32.0820067 76.1240955 32.1526946 76.6873449 32.2233825 77.2505944 32.2940704 79.9253823 32.3647584 80.4886317 32.4354463 81.0518811 32.5061342 81.9673412 32.2940704 82.3897064 32.4354463 82.8120715 32.5765336 83.4454756 33.2124364 83.9382829 33.3535237 84.4310902 33.495188 85.1352239 33.9894264 85.5575891 33.7069633 85.9802418 33.4242116 85.5575891 32.1526946 85.5575891 32.1526946 85.5575891 32.1526946 84.5719745 31.2343287 84.2200514 30.951577 83.8681283 30.6691138 81.4040917 29.256221 80.6298035 29.1855331 79.8552277 29.1148452 78.0248826 28.6910062 77.320749 28.7616941 76.6166153 28.8320935 74.6128964 28.8540212 73.7678785 29.2071722 72.9231481 29.5603233 72.7202148 29.2071722 71.7650222 29.4307769 70.8098295 29.6543815 70.3128889 30.2117034 70.1015625 30.6352539 69.8905237 31.0593814 70.6324854 32.5765336 70.6324854 32.5765336 70.6324854 32.5765336 72.1111949 32.4354463 72.3222337 32.3647584zM62.1843764 32.7179671C62.1843764 32.7179671 62.0437797 30.1746446 61.7620112 29.8214935 61.4805303 29.4680539 59.790782 29.1855908 59.5794556 29.1855908 59.3684168 29.1855908 57.0452644 29.3269666 56.0593623 29.2562787 55.0740352 29.1855908 52.3986722 29.6094298 51.7652682 29.7508056 51.1315766 29.8918929 48.5266558 30.8812353 47.400157 31.5875375 46.2736581 32.2938396 45.0065625 33.7777089 44.7955237 34.1305715 44.5841973 34.4840111 45.3584856 34.978538 46.0626192 34.6253869 46.7664654 34.2722358 49.8641935 33.8483968 51.2020188 33.5656451 52.5395565 33.283182 56.2709762 32.8590545 57.5380717 32.7886551 58.8051673 32.7179671 60.4244735 33.0711182 61.0581651 33.0711182 61.6915691 33.0711182 62.1843764 32.7179671 62.1843764 32.7179671"/>
        <path fill="#DBA47E" d="M49.6360186,37.6377887 C49.6360186,37.6377887 51.0186967,36.4865854 52.9726749,36.3229934 C53.7716898,36.2563448 56.4470527,36.4317662 56.4470527,36.4317662 C56.4470527,36.4317662 55.7357311,34.6342734 54.8182584,34.6342734 C53.9013608,34.6342734 50.7674053,35.5621605 50.7674053,35.5621605 L49.6360186,37.6377887 Z"/>
        <path fill="#221F20" d="M47.0480901,38.7228338 C47.0480901,38.7228338 48.1041469,38.5817465 48.5267996,38.5817465 C48.9488773,38.5817465 50.4275867,37.5924042 50.4275867,37.5924042 C50.4275867,37.5924042 51.9764508,36.462263 53.3139885,36.3915751 C54.6515262,36.3208872 55.472105,36.468899 56.0902706,36.533528 C56.7087236,36.5981569 58.1716195,36.9567899 58.1716195,36.9567899 L57.3864055,36.3632999 C57.3864055,36.3632999 55.1152941,35.8956055 54.2826395,35.8200128 C53.5675801,35.7553838 51.8220532,36.1624885 51.0701914,36.5006364 C50.035411,36.9663111 49.090049,37.8751558 48.4560699,37.8751558 C47.8223784,37.8751558 47.0480901,38.7228338 47.0480901,38.7228338"/>
        <path fill="#2F100E" d="M46.9074071,37.6631209 C46.9074071,37.6631209 48.1745027,36.5326912 49.5827701,35.7557012 C50.9907499,34.9784226 54.0177484,34.5548721 54.4404011,34.4132077 C54.8627663,34.2721204 57.7491681,34.4132077 58.5234564,34.5548721 C59.2980321,34.6959594 60.6355699,35.897077 60.6355699,35.897077 C60.6355699,35.897077 58.2419754,35.1904863 57.1859186,35.1200869 C56.1298619,35.0491105 54.9332084,34.6959594 52.4691719,35.2611743 C50.0048478,35.8263891 48.7377522,36.8861309 48.2449449,37.3099699 C47.7521375,37.7338088 46.3441577,38.9346379 46.9074071,37.6631209"/>
        <path fill="#BB876D" d="M55.9201456 38.8332224C56.8879341 38.6482797 55.4953964 39.827744 54.3890239 39.6889648 53.2829388 39.5501857 52.5553125 39.0646171 52.5553125 39.0646171 52.5553125 39.0646171 54.9520697 39.0184536 55.9201456 38.8332224zM74.7279327 37.9167319C74.7279327 37.9167319 75.7566752 38.205831 76.7028997 38.205831 77.6491242 38.205831 78.9656731 37.8342145 78.9656731 37.8342145 78.9656731 37.8342145 77.4432607 39.1553574 76.6617845 38.9078054 75.8800207 38.6599649 74.7279327 37.9167319 74.7279327 37.9167319"/>
        <path fill="#DBA47E" d="M74.5224142,35.2743597 C74.5224142,35.2743597 75.8800782,34.9855491 76.7440724,34.9855491 C77.607779,34.9855491 79.0068458,35.1505837 79.0068458,35.1505837 C79.0068458,35.1505837 80.51977,34.6802927 79.9533578,34.2010574 C79.5192044,33.8340573 77.0982956,33.4096412 76.456266,33.4993716 C75.9562707,33.5689054 75.0157966,33.6035281 74.7279902,33.8706996 C74.1630156,34.3955213 74.5224142,35.2743597 74.5224142,35.2743597"/>
        <path fill="#221F20" d="M72.9371215,36.1889748 C72.9371215,36.1889748 74.1527512,35.4024635 75.5607311,35.2610877 C76.9687109,35.1200004 78.0247676,35.4731515 78.4471328,35.3317756 C78.869498,35.1903998 80.4888042,36.1797421 80.7001306,36.3915174 C80.9111694,36.6035811 81.6153031,37.168796 81.8263419,37.2394839 C82.0373808,37.3101718 82.8823987,37.2394839 82.8823987,37.2394839 C82.8823987,37.2394839 81.2630925,36.3915174 80.4888042,35.8263025 C79.7142284,35.2610877 78.7289013,34.7665608 77.4615182,34.6958729 C76.1944226,34.6254735 75.4902889,34.9082251 74.645271,35.0493125 C73.8008281,35.1903998 72.9371215,36.1889748 72.9371215,36.1889748"/>
        <path fill="#2F100E" d="M71.735954 35.0472639C71.735954 35.0472639 72.4547511 34.3741418 74.2278799 33.7489144 76.0007212 33.1239755 77.6781061 33.4124976 79.1157004 33.7489144 80.5532947 34.0856197 81.6073388 34.662664 82.1346484 35.0954471 82.6616704 35.5282303 83.1886925 36.2013524 83.2367081 36.3937967 83.2847238 36.586241 82.7574142 36.730502 82.4698954 36.2977188 82.1823765 35.8649356 80.984573 34.662664 79.4509474 34.0856197 77.9176094 33.5085755 76.28824 33.4124976 75.281924 33.7970976 74.275608 34.1816976 73.0778045 34.662664 72.6942543 34.9993693 72.3109917 35.3357861 71.735954 35.0472639 71.735954 35.0472639M64.4657235 51.8322693C64.4657235 51.8322693 63.7253625 50.5316116 62.8918453 50.4387074 62.0589032 50.3458033 60.6701871 50.8103239 60.3924439 51.0890363 60.1147007 51.3677487 61.0405114 51.7393652 61.78116 51.8322693 62.5218085 51.9248849 63.3550382 51.1819404 64.4657235 51.8322693M67.7059172 51.9249715C67.7984983 51.6462591 68.1688226 51.0891229 68.724309 50.7172178 69.2797954 50.3456014 70.3907683 50.8104105 70.9462547 50.9959302 71.5014536 51.182027 71.7791968 51.6462591 71.7791968 51.6462591 71.7791968 51.6462591 69.9278629 51.4607394 69.3723765 51.4607394 68.8168901 51.4607394 67.7059172 51.9249715 67.7059172 51.9249715"/>
        <path fill="#5E2828" d="M54.1492883,59.8601666 C54.1492883,59.8601666 57.3119957,60.4372108 57.9830647,60.5335772 C58.6538462,60.6296551 60.3789593,60.5335772 60.3789593,60.5335772 C60.3789593,60.5335772 62.487335,61.0142551 63.6374104,61.0142551 C64.7874859,61.0142551 65.5542986,61.2066993 66.8001178,61.2066993 C68.0462245,61.2066993 69.9628252,60.9181772 70.5378629,60.9181772 C71.1129006,60.9181772 72.6465262,60.8220993 73.6048265,60.7257329 C74.5631269,60.6296551 76.8632777,59.4755666 77.1507966,60.1486887 C77.4383154,60.8220993 76.3842713,61.3027772 75.8092336,61.2066993 C75.2341959,61.1106215 70.9214131,61.1106215 70.1546003,61.3027772 C69.3877875,61.4952214 67.2794118,61.6876657 66.2250801,61.8798214 C65.171036,62.0722657 62.1998162,60.9181772 61.1457721,61.0142551 C60.0914404,61.1106215 57.9830647,61.0142551 57.1205081,61.0142551 C56.2579515,61.0142551 54.5328384,60.7257329 54.0535445,60.4372108 C53.5742506,60.1486887 54.1492883,59.8601666 54.1492883,59.8601666"/>
        <path fill="#D37D70" d="M60.3301098,61.68429 C60.3301098,61.68429 63.1245056,61.68429 63.565847,61.9055865 C64.0069009,62.1268829 66.0658234,62.3484679 66.9485063,62.3484679 C67.8309017,62.3484679 70.6989022,61.68429 71.5812976,61.6104283 C72.463693,61.5365667 72.243166,62.9387842 71.6549024,63.3075155 C71.0663513,63.6765353 69.154351,64.9310294 66.8012967,65.0787528 C64.4482424,65.2261876 61.0655831,63.2339423 60.4773195,62.8649225 C59.8890559,62.4959027 60.3301098,61.68429 60.3301098,61.68429"/>
        <path fill="#241A19" d="M53.6262207,71.5371094 C54.3393555,71.9489746 57.0636944,74.9317833 57.996118,74.9317833 C58.9288292,74.9317833 59.7278441,74.6643233 59.7278441,74.6643233 C59.7278441,74.6643233 60.2606165,74.7981975 61.1933277,75.332829 C62.1257513,75.8674605 64.3902498,76.669552 64.3902498,76.669552 C64.3902498,76.669552 67.9871107,76.0010463 68.5195956,76.1349205 C69.0526555,76.2685063 71.9830477,75.065369 72.3829864,74.7981975 C72.7823501,74.5307375 74.114425,74.3971518 74.114425,74.3971518 L80.2423143,67.5799511 C80.2423143,67.5799511 75.0468486,75.332829 72.5158201,76.4023806 C69.9850792,77.4716435 65.7223247,78.006275 63.4578262,77.8724008 C61.1933277,77.7391036 58.1292393,76.4023806 56.9302856,75.6000005 C55.7316195,74.7981975 52.1079102,71.0048828 52.1079102,71.0048828 C52.1079102,71.0048828 52.9130859,71.1252441 53.6262207,71.5371094 Z"/>
        <path fill="#B7856A" d="M39.8797563 38.706215C39.8797563 38.706215 38.8139239 36.5674005 38.2811515 36.5674005 37.7483791 36.5674005 37.0824854 37.5030777 37.4818491 38.706215 37.8815003 39.9093522 38.4142727 41.6468324 38.4142727 41.6468324 38.4142727 41.6468324 39.4801051 37.9041235 39.8797563 38.706215M40.8122375 43.5183889C40.8122375 43.5183889 38.6808602 41.9142059 38.9473902 42.4491259 39.2136326 42.9834689 40.012935 44.3204804 40.012935 44.3204804 40.012935 44.3204804 40.1463438 45.7907891 40.1463438 46.3254206 40.1463438 46.8603407 42.0111911 49.4002009 42.0111911 49.4002009 42.0111911 49.4002009 41.7446611 46.9939264 41.3452974 46.1921234 40.9453587 45.3897434 40.8122375 43.5183889 40.8122375 43.5183889M87.3021097 41.513391C87.3021097 41.513391 87.8351697 40.3102537 87.9680034 39.3745765 88.1014121 38.4388992 87.7020485 36.8347162 87.7020485 36.8347162 87.7020485 36.8347162 88.9007146 35.2308217 88.2345334 35.2308217 87.5686397 35.2308217 87.1767515 36.0326247 87.1767515 36.0326247L87.3021097 41.513391z"/>
        <path fill="#241A19" d="M40.9453299,44.320567 C40.9453299,44.320567 41.6112236,40.1765237 41.3452687,38.438755 C41.0787387,36.7009862 40.6788,30.2848312 40.6788,30.2848312 L42.1442836,25.4725707 C42.1442836,25.4725707 41.7446324,20.526436 41.8777536,19.8582187 C42.0111623,19.189713 44.2756608,14.6449125 44.2756608,14.6449125 L45.3412057,12.9071437 C45.3412057,12.9071437 48.5384153,9.83265198 51.202565,10.2334092 C53.8667147,10.634455 59.0618929,10.634455 59.0618929,10.634455 C59.0618929,10.634455 64.1236623,12.3725122 66.2550396,11.8375922 C68.3864169,11.3026722 73.1819438,10.634455 73.1819438,10.634455 C73.1819438,10.634455 75.9795023,11.169375 76.9119259,11.169375 L80.6416205,11.169375 C80.6416205,11.169375 84.5047238,15.179544 85.4371474,17.3183585 C86.3695711,19.4568845 87.4354035,22.5313762 87.3019947,23.467342 C87.169161,24.4030192 87.0357523,32.5572315 87.0357523,32.5572315 L87.0357523,35.3642632 C87.0357523,35.3642632 87.5685247,28.9481082 87.9681759,26.0069137 C88.3678271,23.0662962 87.5685247,19.8582187 86.902631,18.1201615 C86.2364498,16.3826812 81.5743316,9.29773196 81.5743316,9.29773196 L80.5087868,7.29279172 C80.5087868,7.29279172 78.5102432,4.75293147 77.9777583,4.48575998 C77.4446983,4.21829998 75.846381,3.41620847 75.846381,3.41620847 C75.846381,3.41620847 74.6474274,2.88157698 73.848125,2.07948548 C73.0488226,1.27739397 72.7822926,1.67843972 72.3829289,1.54456546 C71.9829902,1.41097972 70.7843241,0.608888212 70.1181429,0.475302469 C69.4519617,0.341716725 68.7860681,0.87634822 68.7860681,0.87634822 L66.9212208,0.341716725 L65.322616,1.01022249 L64.2570711,0.87634822 L61.8591638,1.01022249 L59.9943166,1.27739397 C59.9943166,1.27739397 59.0618929,0.87634822 58.528833,1.14380823 C57.996348,1.41097972 57.1967581,2.07948548 57.1967581,2.07948548 L54.7994259,2.74770271 C54.7994259,2.74770271 52.4015187,3.28262273 52.0018675,3.68337996 C51.6019287,4.08442571 49.2045965,5.55502297 48.6715366,5.68860872 C48.1387641,5.82219446 46.2736293,7.02533172 46.2736293,7.02533172 C46.2736293,7.02533172 45.3412057,8.36205471 45.2080845,8.76310047 C45.0746757,9.16414622 44.4087821,10.634455 44.0091308,11.0357892 C43.6097672,11.4365465 43.0767072,12.6396837 43.0767072,12.6396837 C43.0767072,12.6396837 42.677056,14.3774525 42.0111623,15.8477612 C41.3452687,17.3183585 38.9473614,20.526436 38.8139527,23.3337562 C38.6808314,26.140788 38.9473614,31.2205085 39.2138914,32.4236457 C39.4801339,33.626783 40.9453299,44.320567 40.9453299,44.320567"/>
        <path fill="#73A18E" d="M43.5995315,71.3416159 C43.5995315,71.3416159 38.4469061,73.8142505 38.2229289,74.1515329 C37.9989517,74.4888153 38.4469061,80.5587437 41.6952941,84.2682726 C44.9439696,87.9775131 52.5609191,93.0355944 59.0576951,93.4854004 C65.5544712,93.9352064 71.6030053,92.1365595 71.6030053,92.1365595 C71.6030053,92.1365595 63.3141242,93.148118 60.0660238,91.687042 C56.8173482,90.2256775 56.8173482,89.2138304 56.8173482,89.2138304 C56.8173482,89.2138304 48.640312,85.5045899 45.6159012,81.6828259 C42.5914904,77.8610619 41.6952941,73.8142505 41.6952941,73.8142505 L43.5995315,71.3416159 Z"/>
      </g>
    </g>
  </g>
</svg>
