<svg xmlns="http://www.w3.org/2000/svg" xmlns:xlink="http://www.w3.org/1999/xlink" width="120" height="120" viewBox="0 0 120 120">
  <defs>
    <path id="kenneth-a" d="M120,59.9999233 C120,93.1369885 93.1369885,120 59.9999233,120 C26.8628581,120 0,93.1369885 0,59.9999233 C0,26.8628581 26.8628581,0 59.9999233,0 C93.1369885,0 120,26.8628581 120,59.9999233"/>
  </defs>
  <g fill="none" fill-rule="evenodd">
    <mask id="kenneth-b" fill="#fff">
      <use xlink:href="#kenneth-a"/>
    </mask>
    <use fill="#7BCAEC" xlink:href="#kenneth-a"/>
    <path fill="#7DAF99" d="M-4,110.426053 C-4,110.426053 -2.28466252,98.3623662 0.312782805,97.4425577 C2.91022813,96.5227492 22.8950886,88.0699165 27.1730816,86.6899152 C31.4513622,85.3099139 39.3963707,83.0103926 40.9242459,82.3969945 C42.452121,81.7835965 75.5331778,82.6402187 77.1746229,83.055402 C78.8160681,83.4700083 82.9097615,86.440055 82.9097615,86.440055 C82.9097615,86.440055 97.7618354,94.049249 100.664913,94.8158523 C103.567991,95.5827441 113.334144,100.390677 115.320324,101.77039 C117.306505,103.150102 117.930133,129.773481 117.930133,129.773481 L-1.70387443,129.773481 L-4,110.426053 Z" mask="url(#kenneth-b)"/>
    <path fill="#E0AB86" d="M39.1196913,86.123979 C39.8617774,84.6992568 40.808577,83.4563035 41.3413495,81.7182462 C41.8741219,79.980766 41.7410007,76.3713542 41.7410007,76.3713542 C41.7410007,76.3713542 39.6096234,73.8317825 38.9437297,71.2919222 C38.2775485,68.752062 37.8778973,64.2072615 37.8778973,64.2072615 L35.8796413,47.2306198 C35.8796413,47.2306198 36.5458225,34.531607 36.5458225,34.1305613 C36.5458225,33.7295155 39.8761534,23.302903 42.8065455,21.69872 C45.7372252,20.094537 60.7896998,19.4263198 60.7896998,19.4263198 C60.7896998,19.4263198 73.8442058,19.4263198 76.6417642,21.8325943 C79.4390352,24.2385803 83.1690173,30.1203923 83.4355472,32.5263783 C83.7020772,34.9323642 83.0356085,45.760311 83.0356085,45.760311 L82.1034724,63.67263 C82.1034724,63.67263 82.9024873,68.2174305 80.6379888,72.0940137 C78.3734903,75.970597 76.7748855,79.3125488 76.7748855,79.3125488 C76.7748855,79.3125488 76.7748855,82.1195805 77.1745367,83.0552577 C77.5741879,83.990935 78.8145442,87.0723513 78.8145442,87.0723513 C78.8145442,87.0723513 74.686636,101.699557 60.6997064,101.2988 C46.7127767,100.897466 38.3776051,87.5489898 39.1196913,86.123979" mask="url(#kenneth-b)"/>
    <path fill="#D2A17E" d="M82.1034724 63.6725146C82.1034724 63.6725146 83.6345103 63.456123 83.9447431 62.8334923 84.254976 62.210573 84.6690031 60.7572871 84.5654963 60.2385243 84.4619895 59.719473 83.4274967 57.7474243 83.6345103 56.6057422 83.8415238 55.4640602 84.392985 53.9305651 84.6345008 52.3102249 84.8760167 50.6895961 84.254976 48.7175474 84.254976 48.7175474 84.254976 48.7175474 85.2641671 47.3130217 84.5010921 46.5619986 83.7380171 45.8115525 83.0356085 45.7601956 83.0356085 45.7601956 83.0356085 45.7601956 82.9105378 50.7931755 82.600305 52.3503294 82.2897846 53.9071948 82.2897846 60.6537076 82.2897846 60.6537076L82.1034724 63.6725146zM37.6649609 64.2867493L38.0111336 61.4000855C38.0111336 61.4000855 36.6163796 57.76211 36.6862467 57.0604242 36.7561138 56.3587384 36.6163796 55.1662765 36.7561138 54.9556554 36.8958479 54.7453227 35.7773996 46.9575336 35.7773996 46.9575336 35.7773996 46.9575336 34.4461873 46.8150036 33.7483791 47.0968898 33.0505708 47.3784873 32.1417237 49.0623025 32.3516125 50.5357849 32.5612137 52.0089789 33.8815003 56.4542393 33.8815003 56.4542393 33.8815003 56.4542393 33.2604596 60.2878327 33.609795 61.5506941 33.9594179 62.8135554 35.0781538 64.3568602 36.0568679 64.5674814 37.0358696 64.777814 37.6649609 64.2867493 37.6649609 64.2867493" mask="url(#kenneth-b)"/>
    <path fill="#BB876D" d="M41.8741506,77.0397734 C41.8741506,77.0397734 51.997977,87.1992144 53.5965818,88.1348917 C55.1951867,89.0705689 61.5890309,90.1398319 63.9869382,89.6052004 C66.3845579,89.0705689 68.7824651,87.7338459 70.11454,86.3971229 C71.4466148,85.0603999 73.7111133,83.1887569 73.7111133,83.1887569 C73.7111133,83.1887569 66.1467798,93.8187775 62.4167977,95.4229605 C58.6871031,97.026855 52.0160907,95.4215179 47.7533362,89.9410402 C43.4905816,84.4605624 41.8741506,77.0397734 41.8741506,77.0397734" mask="url(#kenneth-b)"/>
    <path fill="#B76D61" d="M51.5503964,72.1346088 C51.5503964,72.1346088 56.0362656,71.4704309 56.9919782,71.1752728 C57.9479784,70.8801146 59.786374,70.4372332 60.1541106,70.4372332 C60.5215597,70.4372332 62.0658234,70.8801146 62.5071649,70.8801146 C62.9485063,70.8801146 64.6396922,70.5110948 65.0810337,70.5110948 C65.5223751,70.5110948 67.8751419,71.3965692 68.5370103,71.6917274 C69.1991662,71.9868855 71.4052984,72.5033401 71.4052984,72.5033401 L71.551933,73.0939449 C71.551933,73.0939449 69.4930105,74.1268541 69.0519565,74.4223007 C68.6106151,74.7171703 67.2914786,76.6346884 66.3357659,77.0772813 C65.3797657,77.5198742 63.0954285,77.7426133 61.3306377,77.5951785 C59.565847,77.4477437 57.7271639,77.0787239 56.4773195,76.414546 C55.2271875,75.7503681 52.9474505,73.0200832 52.5061091,72.8726484 C52.0650551,72.7249251 51.5503964,72.1346088 51.5503964,72.1346088" mask="url(#kenneth-b)"/>
    <path fill="#BB876D" d="M58.6850042 54.9650035C58.5927107 55.2437158 57.781045 57.2365381 57.133265 57.7939629 56.4851975 58.3510991 55.9811769 58.9333368 55.8883084 60.1410904 55.7960148 61.348844 56.9481028 61.9743599 57.4107207 61.6027434 57.8739136 61.2311269 58.7994367 60.9524146 58.7994367 60.9524146 58.7994367 60.9524146 60.6510582 61.9743599 61.2065446 62.2530723 61.7617435 62.5317847 63.0578785 62.8102085 63.7985271 62.438592 64.5388881 62.0669755 65.2798242 61.3240311 65.2798242 61.3240311 65.2798242 61.3240311 66.390797 61.6027434 67.2237392 62.0669755 68.0569688 62.5317847 68.6121677 62.9034012 69.0753606 62.2530723 69.5382659 61.6027434 69.0753606 59.9304692 69.0753606 59.9304692L67.7792256 58.4442918C67.7792256 58.4442918 68.4272931 58.4442918 69.3531038 59.2801403 70.278627 60.1162775 70.3714956 62.0669755 69.8160091 62.9034012 69.2602352 63.7392498 68.7976174 64.5753869 67.6866445 64.4824828 66.5756717 64.3895786 66.6685403 64.2966745 65.6501485 64.1108663 64.6317567 63.925058 64.5388881 65.0399075 63.1504596 65.2257157 61.7617435 65.411524 61.2065446 64.4824828 60.0955717 64.3895786 58.9845989 64.2966745 57.2258461 64.2966745 56.9481028 64.668291 56.6700721 65.0399075 55.4668057 65.3186199 54.6335761 64.668291 53.800634 64.0179621 53.0599854 62.1598797 53.5226032 60.7663178 53.9855086 59.3730445 58.6850042 54.9650035 58.6850042 54.9650035M65.4523643 46.423508C65.4523643 45.3450123 67.0644825 43.7266917 67.0644825 43.7266917L75.5330628 43.9024017C75.5330628 43.9024017 76.2006816 45.4217592 77.3524821 46.6546142 78.5039951 47.8871807 80.3467034 47.9642161 80.0393458 48.888641 79.7322756 49.8133544 78.6575302 50.3526022 78.6575302 50.3526022 78.6575302 50.3526022 76.6612868 50.0444606 75.8936114 50.0444606 75.1259361 50.0444606 72.2255183 49.8133544 72.762891 50.3526022 73.3002638 50.8918501 74.6632419 51.6360813 74.2026367 51.8671875 73.7420315 52.0982937 71.3640394 51.5851688 70.5963641 51.2770271 69.8286887 50.9688855 68.8304233 50.1985314 67.8321578 49.8903898 66.8344674 49.5819597 65.8362019 49.0427118 65.8362019 49.0427118 65.8362019 49.0427118 65.4523643 47.5020037 65.4523643 46.423508z" mask="url(#kenneth-b)"/>
    <path fill="#BB876D" d="M47.9411435,52.0690492 C47.9411435,52.0690492 48.6899192,52.9515913 50.5898438,52.8647461 C52.4900559,52.7781895 52.7271823,52.3290076 53.590889,52.0690492 C54.4545956,51.8090908 55.924967,50.6148977 56.5276065,51.1154836 C58.8504713,53.0465622 55.2789121,58.1069517 55.5379666,58.1937968 C55.7973086,58.280065 59.2161953,56.9926792 59.4539734,51.8679493 C59.5278658,50.2715564 59.0321833,46.5222114 58.3412755,45.6552024 C57.6503676,44.7884819 54.5408512,44.0948748 53.590889,44.2682766 C52.6406391,44.4419669 48.6323388,44.9033138 47.9411435,45.1635607 C47.2505232,45.4235191 40.9452347,46.7155212 40.9452347,46.7155212 C40.9452347,46.7155212 41.4708192,50.5182428 43.1364159,50.5658489 C44.038075,50.5915274 44.9486472,50.2755957 44.9486472,50.2755957 C44.9486472,50.2755957 48.7099609,51.5490723 50.2032517,51.5490723 C51.2121267,51.5490723 47.9411435,52.0690492 47.9411435,52.0690492 Z" mask="url(#kenneth-b)"/>
    <path fill="#AAA3A4" d="M69.532113 49.5400085L68.4119396 49.1833952 68.311308 48.5774987C68.311308 48.5774987 69.8992746 47.4286036 70.8552748 47.2263496 71.8109875 47.0243841 73.3917661 46.8613691 74.4984262 47.1643174 75.6050863 47.4669771 77.5167991 48.7289728 77.5167991 48.7289728L76.7048459 49.2520635 69.532113 49.5400085zM45.2727097 50.0919802C45.2727097 50.0919802 45.7252644 49.0319499 47.7879247 48.6283075 49.8502974 48.224088 52.214565 48.5270362 52.7174354 48.5270362 53.2205934 48.5270362 54.418397 49.1842896 54.418397 49.1842896L54.3261034 49.6548692C54.3261034 49.6548692 52.0130142 51.0005364 50.202508 50.8995536 48.3914268 50.7985709 46.2356104 50.2884638 46.2356104 50.2884638L45.2727097 50.0919802z" mask="url(#kenneth-b)"/>
    <path fill="#D8CECD" d="M46.2354954 50.2883484C46.2354954 50.2883484 48.3122441 49.3512285 50.1428766 49.2441868 51.9735091 49.1368566 53.4654445 49.4248017 53.4654445 49.4248017L54.3262759 49.6550423 54.1540521 50.1155236C54.1540521 50.1155236 51.6293491 50.9796474 50.1374137 51.0944792 48.6454784 51.2095995 46.2354954 50.2883484 46.2354954 50.2883484M69.532113 49.5400085C69.532113 49.5400085 71.3785591 48.5601874 72.5734875 48.5033485 73.7684158 48.4467982 74.9834705 48.4459326 75.6145744 48.6187574 76.2459658 48.7912936 76.7048459 49.2520635 76.7048459 49.2520635 76.7048459 49.2520635 74.8112467 50.0004898 73.0326551 50.0581943 71.2534884 50.1156102 69.532113 49.5400085 69.532113 49.5400085" mask="url(#kenneth-b)"/>
    <path fill="#251310" d="M52.0080689,48.614141 C52.269136,49.7142759 51.5917416,50.8187386 50.4951447,51.0807167 C49.3988353,51.3424062 48.2985007,50.6629366 48.037146,49.5625133 C47.7760789,48.4623784 48.4534733,47.3579157 49.5500702,47.0959376 C50.6466671,46.8342481 51.7470018,47.5140062 52.0080689,48.614141" mask="url(#kenneth-b)"/>
    <path stroke="#1D0500" stroke-width=".5" d="M52.0080689,48.614141 C52.269136,49.7142759 51.5917416,50.8187386 50.4951447,51.0807167 C49.3988353,51.3424062 48.2985007,50.6629366 48.037146,49.5625133 C47.7760789,48.4623784 48.4534733,47.3579157 49.5500702,47.0959376 C50.6466671,46.8342481 51.7470018,47.5140062 52.0080689,48.614141 Z" mask="url(#kenneth-b)"/>
    <path fill="#1D0500" d="M52.0858428,49.0782 C52.0858428,49.0782 51.1637698,48.6817706 50.1022502,48.6301252 C49.1215234,48.582519 47.9840988,48.8635396 47.9930119,48.9700042 C48.0226263,47.8361123 48.9631005,46.9414052 50.0930496,46.971123 C51.2232862,47.0011293 52.1157447,47.9443081 52.0858428,49.0782" mask="url(#kenneth-b)"/>
    <path fill="#000" d="M50.8394485,48.8933728 C50.9466931,49.3457754 50.6680873,49.8001978 50.2169702,49.9081051 C49.7661406,50.0157238 49.3130109,49.7361459 49.2057664,49.2834547 C49.0985219,48.8307635 49.3771276,48.3766296 49.8279572,48.2687224 C50.2793618,48.1611036 50.7319165,48.4406815 50.8394485,48.8933728" mask="url(#kenneth-b)"/>
    <path fill="#FEFEFE" d="M51.4405929,48.7981316 C51.417879,48.9963463 51.2390422,49.1388762 51.0412293,49.116083 C50.8434163,49.0927127 50.7016695,48.9132519 50.724671,48.7150372 C50.747385,48.516534 50.9262217,48.3742926 51.1237472,48.3970859 C51.3218477,48.4198791 51.4635945,48.5996284 51.4405929,48.7981316" mask="url(#kenneth-b)"/>
    <path fill="#251310" d="M74.7374981,47.7967579 C74.9982777,48.8968927 74.3211708,50.0013554 73.2245739,50.2633335 C72.1282645,50.5250231 71.0276423,49.8455535 70.7665752,48.7451301 C70.5055081,47.6449952 71.1829025,46.5405325 72.2792119,46.2785545 C73.3760963,46.0168649 74.476431,46.696623 74.7374981,47.7967579" mask="url(#kenneth-b)"/>
    <path stroke="#1D0500" stroke-width=".5" d="M74.7374981,47.7967579 C74.9982777,48.8968927 74.3211708,50.0013554 73.2245739,50.2633335 C72.1282645,50.5250231 71.0276423,49.8455535 70.7665752,48.7451301 C70.5055081,47.6449952 71.1829025,46.5405325 72.2792119,46.2785545 C73.3760963,46.0168649 74.476431,46.696623 74.7374981,47.7967579 Z" mask="url(#kenneth-b)"/>
    <path fill="#1D0500" d="M74.8149844,48.2608169 C74.8149844,48.2608169 73.893199,47.8643875 72.8313919,47.812742 C71.8509526,47.7651358 70.713528,48.0461564 70.7224411,48.1526211 C70.7520555,47.0187291 71.6925297,46.124022 72.8224788,46.1537398 C73.9527154,46.1837461 74.8448864,47.1269249 74.8149844,48.2608169" mask="url(#kenneth-b)"/>
    <path fill="#221F20" d="M73.5688777,48.0759896 C73.6761223,48.5283923 73.3975165,48.9828146 72.9463994,49.0907219 C72.4955699,49.1983406 72.0424401,48.9187627 71.9351956,48.4660715 C71.8276636,48.0133803 72.1065568,47.5592465 72.5573864,47.4513392 C73.008791,47.3437204 73.4613457,47.6232984 73.5688777,48.0759896" mask="url(#kenneth-b)"/>
    <path fill="#FEFEFE" d="M74.1700222,47.9807484 C74.1473082,48.1789631 73.9684714,48.3214931 73.7703709,48.2986998 C73.5728455,48.2753295 73.4310987,48.0961573 73.4538127,47.8976541 C73.4768142,47.6991508 73.6556509,47.5569094 73.8531764,47.5797027 C74.0512769,47.6024959 74.1930237,47.7822452 74.1700222,47.9807484" mask="url(#kenneth-b)"/>
    <path fill="#251310" d="M74.7167105,47.9545506 C74.9728898,49.0339119 74.3084337,50.1170239 73.2328257,50.3738086 C72.1575052,50.6305933 71.0778719,49.9641072 70.8216926,48.8850345 C70.5658008,47.8053847 71.2302569,46.7222726 72.3055774,46.4657765 C73.3811854,46.2087032 74.4605312,46.8754779 74.7167105,47.9545506" mask="url(#kenneth-b)"/>
    <path stroke="#1D0500" stroke-width=".5" d="M74.7167105,47.9545506 C74.9728898,49.0339119 74.3084337,50.1170239 73.2328257,50.3738086 C72.1575052,50.6305933 71.0778719,49.9641072 70.8216926,48.8850345 C70.5658008,47.8053847 71.2302569,46.7222726 72.3055774,46.4657765 C73.3811854,46.2087032 74.4605312,46.8754779 74.7167105,47.9545506 Z" mask="url(#kenneth-b)"/>
    <path fill="#1D0500" d="M74.827894,48.4369019 C74.827894,48.4369019 73.9058211,48.0404725 72.8443015,47.988827 C71.8635747,47.9412209 70.7261501,48.2222414 70.7350632,48.3287061 C70.7646776,47.1948142 71.7051518,46.2998185 72.8351009,46.3295363 C73.965625,46.3595426 74.857796,47.30301 74.827894,48.4369019" mask="url(#kenneth-b)"/>
    <path fill="#000" d="M73.5702866,48.2284158 C73.675806,48.6724514 73.4023756,49.1179295 72.959884,49.2235286 C72.5176801,49.3291277 72.0734634,49.0550317 71.9682315,48.6109962 C71.8629996,48.1669606 72.1361425,47.7214824 72.578634,47.6158833 C73.0211256,47.5102843 73.4650547,47.7843803 73.5702866,48.2284158" mask="url(#kenneth-b)"/>
    <path fill="#FEFEFE" d="M74.160189,48.1351366 C74.1377625,48.3296005 73.962376,48.4692452 73.7685883,48.4467405 C73.5745131,48.4242358 73.435354,48.2482373 73.4577804,48.0537734 C73.4802069,47.8590209 73.6555934,47.7193762 73.8496686,47.741881 C74.0437439,47.7643857 74.1826155,47.9403842 74.160189,48.1351366" mask="url(#kenneth-b)"/>
    <path fill="#322726" d="M68.3222337 44.3647584C68.5332725 44.2940704 69.9415399 44.0820067 69.9415399 44.0820067 69.9415399 44.0820067 72.1240955 44.1526946 72.6873449 44.2233825 73.2505944 44.2940704 75.9253823 44.3647584 76.4886317 44.4354463 77.0518811 44.5061342 77.9673412 44.2940704 78.3897064 44.4354463 78.8120715 44.5765336 79.4454756 45.2124364 79.9382829 45.3535237 80.4310902 45.495188 81.1352239 45.9894264 81.5575891 45.7069633 81.9802418 45.4242116 81.5575891 44.1526946 81.5575891 44.1526946 81.5575891 44.1526946 80.5719745 43.2343287 80.2200514 42.951577 79.8681283 42.6691138 77.4040917 41.256221 76.6298035 41.1855331 75.8552277 41.1148452 74.0248826 40.6910062 73.320749 40.7616941 72.6166153 40.8320935 70.6128964 40.8540212 69.7678785 41.2071722 68.9231481 41.5603233 68.7202148 41.2071722 67.7650222 41.4307769 66.8098295 41.6543815 66.3128889 42.2117034 66.1015625 42.6352539 65.8905237 43.0593814 66.6324854 44.5765336 66.6324854 44.5765336 66.6324854 44.5765336 68.1111949 44.4354463 68.3222337 44.3647584zM58.1843764 44.7179671C58.1843764 44.7179671 58.0437797 42.1746446 57.7620112 41.8214935 57.4805303 41.4680539 55.790782 41.1855908 55.5794556 41.1855908 55.3684168 41.1855908 53.0452644 41.3269666 52.0593623 41.2562787 51.0740352 41.1855908 48.3986722 41.6094298 47.7652682 41.7508056 47.1315766 41.8918929 44.5266558 42.8812353 43.400157 43.5875375 42.2736581 44.2938396 41.0065625 45.7777089 40.7955237 46.1305715 40.5841973 46.4840111 41.3584856 46.978538 42.0626192 46.6253869 42.7664654 46.2722358 45.8641935 45.8483968 47.2020188 45.5656451 48.5395565 45.283182 52.2709762 44.8590545 53.5380717 44.7886551 54.8051673 44.7179671 56.4244735 45.0711182 57.0581651 45.0711182 57.6915691 45.0711182 58.1843764 44.7179671 58.1843764 44.7179671" mask="url(#kenneth-b)"/>
    <path fill="#DBA47E" d="M45.6360186,49.5035153 C45.6360186,49.5035153 47.0186967,48.352312 48.9726749,48.18872 C49.7716898,48.1220714 52.4470527,48.2974928 52.4470527,48.2974928 C52.4470527,48.2974928 51.7357311,46.5 50.8182584,46.5 C49.9013608,46.5 46.7674053,47.4278871 46.7674053,47.4278871 L45.6360186,49.5035153 Z" mask="url(#kenneth-b)"/>
    <path fill="#221F20" d="M43.0480901,50.6096475 C43.0480901,50.6096475 44.1041469,50.4685602 44.5267996,50.4685602 C44.9488773,50.4685602 46.4275867,49.4792179 46.4275867,49.4792179 C46.4275867,49.4792179 47.9764508,48.3490767 49.3139885,48.2783888 C50.6515262,48.2077009 51.472105,48.3557127 52.0902706,48.4203417 C52.7087236,48.4849706 54.1716195,48.8436036 54.1716195,48.8436036 L53.3864055,48.2501136 C53.3864055,48.2501136 51.1152941,47.7824193 50.2826395,47.7068265 C49.5675801,47.6421975 47.8220532,48.0493022 47.0701914,48.3874501 C46.035411,48.8531249 45.090049,49.7619695 44.4560699,49.7619695 C43.8223784,49.7619695 43.0480901,50.6096475 43.0480901,50.6096475" mask="url(#kenneth-b)"/>
    <path fill="#2F100E" d="M42.9074071,49.5083398 C42.9074071,49.5083398 44.1745027,48.3779101 45.5827701,47.60092 C46.9907499,46.8236414 50.0177484,46.4000909 50.4404011,46.2584266 C50.8627663,46.1173392 53.7491681,46.2584266 54.5234564,46.4000909 C55.2980321,46.5411782 56.6355699,47.7422958 56.6355699,47.7422958 C56.6355699,47.7422958 54.2419754,47.0357052 53.1859186,46.9653058 C52.1298619,46.8943293 50.9332084,46.5411782 48.4691719,47.1063931 C46.0048478,47.6716079 44.7377522,48.7313497 44.2449449,49.1551887 C43.7521375,49.5790277 42.3441577,50.7798568 42.9074071,49.5083398" mask="url(#kenneth-b)"/>
    <path fill="#BB876D" d="M51.9201456 50.8332224C52.8879341 50.6482797 51.4953964 51.827744 50.3890239 51.6889648 49.2829388 51.5501857 48.5553125 51.0646171 48.5553125 51.0646171 48.5553125 51.0646171 50.9520697 51.0184536 51.9201456 50.8332224zM70.7279327 49.9167319C70.7279327 49.9167319 71.7566752 50.205831 72.7028997 50.205831 73.6491242 50.205831 74.9656731 49.8342145 74.9656731 49.8342145 74.9656731 49.8342145 73.4432607 51.1553574 72.6617845 50.9078054 71.8800207 50.6599649 70.7279327 49.9167319 70.7279327 49.9167319" mask="url(#kenneth-b)"/>
    <path fill="#DBA47E" d="M70.5224142,47.2743597 C70.5224142,47.2743597 71.8800782,46.9855491 72.7440724,46.9855491 C73.607779,46.9855491 75.0068458,47.1505837 75.0068458,47.1505837 C75.0068458,47.1505837 76.51977,46.6802927 75.9533578,46.2010574 C75.5192044,45.8340573 73.0982956,45.4096412 72.456266,45.4993716 C71.9562707,45.5689054 71.0157966,45.6035281 70.7279902,45.8706996 C70.1630156,46.3955213 70.5224142,47.2743597 70.5224142,47.2743597" mask="url(#kenneth-b)"/>
    <path fill="#221F20" d="M68.9371215,48.1889748 C68.9371215,48.1889748 70.1527512,47.4024635 71.5607311,47.2610877 C72.9687109,47.1200004 74.0247676,47.4731515 74.4471328,47.3317756 C74.869498,47.1903998 76.4888042,48.1797421 76.7001306,48.3915174 C76.9111694,48.6035811 77.6153031,49.168796 77.8263419,49.2394839 C78.0373808,49.3101718 78.8823987,49.2394839 78.8823987,49.2394839 C78.8823987,49.2394839 77.2630925,48.3915174 76.4888042,47.8263025 C75.7142284,47.2610877 74.7289013,46.7665608 73.4615182,46.6958729 C72.1944226,46.6254735 71.4902889,46.9082251 70.645271,47.0493125 C69.8008281,47.1903998 68.9371215,48.1889748 68.9371215,48.1889748" mask="url(#kenneth-b)"/>
    <path fill="#2F100E" d="M67.735954 47.0472639C67.735954 47.0472639 68.4547511 46.3741418 70.2278799 45.7489144 72.0007212 45.1239755 73.6781061 45.4124976 75.1157004 45.7489144 76.5532947 46.0856197 77.6073388 46.662664 78.1346484 47.0954471 78.6616704 47.5282303 79.1886925 48.2013524 79.2367081 48.3937967 79.2847238 48.586241 78.7574142 48.730502 78.4698954 48.2977188 78.1823765 47.8649356 76.984573 46.662664 75.4509474 46.0856197 73.9176094 45.5085755 72.28824 45.4124976 71.281924 45.7970976 70.275608 46.1816976 69.0778045 46.662664 68.6942543 46.9993693 68.3109917 47.3357861 67.735954 47.0472639 67.735954 47.0472639M60.4657235 63.8322693C60.4657235 63.8322693 59.7253625 62.5316116 58.8918453 62.4387074 58.0589032 62.3458033 56.6701871 62.8103239 56.3924439 63.0890363 56.1147007 63.3677487 57.0405114 63.7393652 57.78116 63.8322693 58.5218085 63.9248849 59.3550382 63.1819404 60.4657235 63.8322693M63.7059172 63.9249715C63.7984983 63.6462591 64.1688226 63.0891229 64.724309 62.7172178 65.2797954 62.3456014 66.3907683 62.8104105 66.9462547 62.9959302 67.5014536 63.182027 67.7791968 63.6462591 67.7791968 63.6462591 67.7791968 63.6462591 65.9278629 63.4607394 65.3723765 63.4607394 64.8168901 63.4607394 63.7059172 63.9249715 63.7059172 63.9249715" mask="url(#kenneth-b)"/>
    <path fill="#5E2828" d="M50.1492883,71.8601666 C50.1492883,71.8601666 53.3119957,72.4372108 53.9830647,72.5335772 C54.6538462,72.6296551 56.3789593,72.5335772 56.3789593,72.5335772 C56.3789593,72.5335772 58.487335,73.0142551 59.6374104,73.0142551 C60.7874859,73.0142551 61.5542986,73.2066993 62.8001178,73.2066993 C64.0462245,73.2066993 65.9628252,72.9181772 66.5378629,72.9181772 C67.1129006,72.9181772 68.6465262,72.8220993 69.6048265,72.7257329 C70.5631269,72.6296551 72.8632777,71.4755666 73.1507966,72.1486887 C73.4383154,72.8220993 72.3842713,73.3027772 71.8092336,73.2066993 C71.2341959,73.1106215 66.9214131,73.1106215 66.1546003,73.3027772 C65.3877875,73.4952214 63.2794118,73.6876657 62.2250801,73.8798214 C61.171036,74.0722657 58.1998162,72.9181772 57.1457721,73.0142551 C56.0914404,73.1106215 53.9830647,73.0142551 53.1205081,73.0142551 C52.2579515,73.0142551 50.5328384,72.7257329 50.0535445,72.4372108 C49.5742506,72.1486887 50.1492883,71.8601666 50.1492883,71.8601666" mask="url(#kenneth-b)"/>
    <path fill="#D37D70" d="M56.3301098,73.68429 C56.3301098,73.68429 59.1245056,73.68429 59.565847,73.9055865 C60.0069009,74.1268829 62.0658234,74.3484679 62.9485063,74.3484679 C63.8309017,74.3484679 66.6989022,73.68429 67.5812976,73.6104283 C68.463693,73.5365667 68.243166,74.9387842 67.6549024,75.3075155 C67.0663513,75.6765353 65.154351,76.9310294 62.8012967,77.0787528 C60.4482424,77.2261876 57.0655831,75.2339423 56.4773195,74.8649225 C55.8890559,74.4959027 56.3301098,73.68429 56.3301098,73.68429" mask="url(#kenneth-b)"/>
    <path fill="#241A19" d="M49.6262207,83.5371094 C50.3393555,83.9489746 53.0636944,86.9317833 53.996118,86.9317833 C54.9288292,86.9317833 55.7278441,86.6643233 55.7278441,86.6643233 C55.7278441,86.6643233 56.2606165,86.7981975 57.1933277,87.332829 C58.1257513,87.8674605 60.3902498,88.669552 60.3902498,88.669552 C60.3902498,88.669552 63.9871107,88.0010463 64.5195956,88.1349205 C65.0526555,88.2685063 67.9830477,87.065369 68.3829864,86.7981975 C68.7823501,86.5307375 70.114425,86.3971518 70.114425,86.3971518 L76.2423143,79.5799511 C76.2423143,79.5799511 71.0468486,87.332829 68.5158201,88.4023806 C65.9850792,89.4716435 61.7223247,90.006275 59.4578262,89.8724008 C57.1933277,89.7391036 54.1292393,88.4023806 52.9302856,87.6000005 C51.7316195,86.7981975 48.1079102,83.0048828 48.1079102,83.0048828 C48.1079102,83.0048828 48.9130859,83.1252441 49.6262207,83.5371094 Z" mask="url(#kenneth-b)"/>
    <path fill="#B7856A" d="M35.8797563 50.706215C35.8797563 50.706215 34.8139239 48.5674005 34.2811515 48.5674005 33.7483791 48.5674005 33.0824854 49.5030777 33.4818491 50.706215 33.8815003 51.9093522 34.4142727 53.6468324 34.4142727 53.6468324 34.4142727 53.6468324 35.4801051 49.9041235 35.8797563 50.706215M36.8122375 55.5183889C36.8122375 55.5183889 34.6808602 53.9142059 34.9473902 54.4491259 35.2136326 54.9834689 36.012935 56.3204804 36.012935 56.3204804 36.012935 56.3204804 36.1463438 57.7907891 36.1463438 58.3254206 36.1463438 58.8603407 38.0111911 61.4002009 38.0111911 61.4002009 38.0111911 61.4002009 37.7446611 58.9939264 37.3452974 58.1921234 36.9453587 57.3897434 36.8122375 55.5183889 36.8122375 55.5183889M83.3021097 53.513391C83.3021097 53.513391 83.8351697 52.3102537 83.9680034 51.3745765 84.1014121 50.4388992 83.7020485 48.8347162 83.7020485 48.8347162 83.7020485 48.8347162 84.9007146 47.2308217 84.2345334 47.2308217 83.5686397 47.2308217 83.1767515 48.0326247 83.1767515 48.0326247L83.3021097 53.513391z" mask="url(#kenneth-b)"/>
    <path fill="#241A19" d="M36.9453299,56.320567 C36.9453299,56.320567 37.6112236,52.1765237 37.3452687,50.438755 C37.0787387,48.7009862 36.6788,42.2848312 36.6788,42.2848312 L38.1442836,37.4725707 C38.1442836,37.4725707 37.7446324,32.526436 37.8777536,31.8582187 C38.0111623,31.189713 40.2756608,26.6449125 40.2756608,26.6449125 L41.3412057,24.9071437 C41.3412057,24.9071437 44.5384153,21.832652 47.202565,22.2334092 C49.8667147,22.634455 55.0618929,22.634455 55.0618929,22.634455 C55.0618929,22.634455 60.1236623,24.3725122 62.2550396,23.8375922 C64.3864169,23.3026722 69.1819438,22.634455 69.1819438,22.634455 C69.1819438,22.634455 71.9795023,23.169375 72.9119259,23.169375 L76.6416205,23.169375 C76.6416205,23.169375 80.5047238,27.179544 81.4371474,29.3183585 C82.3695711,31.4568845 83.4354035,34.5313762 83.3019947,35.467342 C83.169161,36.4030192 83.0357523,44.5572315 83.0357523,44.5572315 L83.0357523,47.3642632 C83.0357523,47.3642632 83.5685247,40.9481082 83.9681759,38.0069137 C84.3678271,35.0662962 83.5685247,31.8582187 82.902631,30.1201615 C82.2364498,28.3826812 77.5743316,21.297732 77.5743316,21.297732 L76.5087868,19.2927917 C76.5087868,19.2927917 74.5102432,16.7529315 73.9777583,16.48576 C73.4446983,16.2183 71.846381,15.4162085 71.846381,15.4162085 C71.846381,15.4162085 70.6474274,14.881577 69.848125,14.0794855 C69.0488226,13.277394 68.7822926,13.6784397 68.3829289,13.5445655 C67.9829902,13.4109797 66.7843241,12.6088882 66.1181429,12.4753025 C65.4519617,12.3417167 64.7860681,12.8763482 64.7860681,12.8763482 L62.9212208,12.3417167 L61.322616,13.0102225 L60.2570711,12.8763482 L57.8591638,13.0102225 L55.9943166,13.277394 C55.9943166,13.277394 55.0618929,12.8763482 54.528833,13.1438082 C53.996348,13.4109797 53.1967581,14.0794855 53.1967581,14.0794855 L50.7994259,14.7477027 C50.7994259,14.7477027 48.4015187,15.2826227 48.0018675,15.68338 C47.6019287,16.0844257 45.2045965,17.555023 44.6715366,17.6886087 C44.1387641,17.8221945 42.2736293,19.0253317 42.2736293,19.0253317 C42.2736293,19.0253317 41.3412057,20.3620547 41.2080845,20.7631005 C41.0746757,21.1641462 40.4087821,22.634455 40.0091308,23.0357892 C39.6097672,23.4365465 39.0767072,24.6396837 39.0767072,24.6396837 C39.0767072,24.6396837 38.677056,26.3774525 38.0111623,27.8477612 C37.3452687,29.3183585 34.9473614,32.526436 34.8139527,35.3337562 C34.6808314,38.140788 34.9473614,43.2205085 35.2138914,44.4236457 C35.4801339,45.626783 36.9453299,56.320567 36.9453299,56.320567" mask="url(#kenneth-b)"/>
    <path fill="#658C7C" d="M39.5995315,83.3416159 C39.5995315,83.3416159 34.4469061,85.8142505 34.2229289,86.1515329 C33.9989517,86.4888153 34.4469061,92.5587437 37.6952941,96.2682726 C40.9439696,99.9775131 48.5609191,105.035594 55.0576951,105.4854 C61.5544712,105.935206 67.6030053,104.136559 67.6030053,104.136559 C67.6030053,104.136559 59.3141242,105.148118 56.0660238,103.687042 C52.8173482,102.225677 52.8173482,101.21383 52.8173482,101.21383 C52.8173482,101.21383 44.640312,97.5045899 41.6159012,93.6828259 C38.5914904,89.8610619 37.6952941,85.8142505 37.6952941,85.8142505 L39.5995315,83.3416159 Z" mask="url(#kenneth-b)"/>
  </g>
</svg>
