<svg xmlns="http://www.w3.org/2000/svg" xmlns:xlink="http://www.w3.org/1999/xlink" width="120" height="120" viewBox="0 0 120 120">
  <defs>
    <path id="laura-a" d="M120,59.9999233 C120,93.1369885 93.1369885,120 59.9999233,120 C26.8628581,120 0,93.1369885 0,59.9999233 C0,26.8628581 26.8628581,0 59.9999233,0 C93.1369885,0 120,26.8628581 120,59.9999233"/>
  </defs>
  <g fill="none" fill-rule="evenodd">
    <mask id="laura-b" fill="#fff">
      <use xlink:href="#laura-a"/>
    </mask>
    <use fill="#7BCAEC" xlink:href="#laura-a"/>
    <path fill="#2D3540" d="M9.01525337,98.6599096 C11.0187612,97.0592708 34.9347677,86.1618549 37.3389771,85.3615355 C39.7431865,84.5612161 71.6505178,79.1956079 75.6572663,79.9959274 C79.664282,80.79598 107.983464,96.6591111 107.983464,96.6591111 L105.725377,119.330559 C105.725377,119.330559 74.0378283,125.04414 58.4993589,124.911133 C42.9608895,124.778126 12.2283457,118.53024 12.2283457,118.53024 L9.01525337,98.6599096 Z" mask="url(#laura-b)"/>
    <path fill="#E7B18E" d="M42.4146104,82.960684 C43.1406816,84.237727 38.6822089,95.5566444 44.1477782,103.061506 C47.3531236,107.462996 59.5112105,113.372822 59.5112105,113.372822 C59.5112105,113.372822 63.6496562,105.770321 72.0665262,103.768989 C77.6763481,102.435123 75.6733745,80.430074 76.2076433,79.8965277 C76.741912,79.3629814 76.922762,75.7303316 76.922762,75.7303316 C76.922762,75.7303316 80.5258705,65.7092654 82.6629455,60.1961318 C84.8000205,54.6827313 84.0875731,36.1865493 79.9916017,29.4281186 C75.8953632,22.6699547 68.9498694,13.7776057 65.2099881,13.9552766 C61.4701069,14.1332143 40.0993567,27.4718712 37.428013,33.6964888 C34.7566692,39.9213732 32.7977728,51.8370622 32.9759514,57.172525 C33.1538629,62.5079878 42.4146104,82.960684 42.4146104,82.960684" mask="url(#laura-b)"/>
    <path fill="#C69277" d="M56.2638716 59.3775651C56.4807847 59.0937184 56.9135424 58.2587185 56.3667183 57.3274135 55.7731457 56.3166101 54.3135235 56.3739663 54.189306 54.514024 54.1233238 53.5269634 55.1648807 47.0203665 55.5337933 44.7442581 55.5973713 44.3523684 55.7824954 43.3602391 56.2801668 43.1470873 56.777571 42.9342024 53.9381997 43.2207167 53.9381997 43.2207167 53.9381997 43.2207167 52.8742035 51.9874156 50.459843 55.061976 49.9955634 55.653412 49.8889768 57.1086595 49.9597674 57.0283608 50.1969827 57.8678959 50.5236881 58.3691626 51.0459358 58.518022 51.6416454 58.6882233 52.9572822 58.518022 53.7231565 58.7733239 53.7231565 58.7733239 53.8289417 58.8562903 54.5574172 59.4330539 54.8376411 59.6550091 55.125612 59.8212088 55.4031646 59.9407231 55.7004852 59.9228493 56.0469584 59.6614117 56.2638716 59.3775651M62.5910828 56.5871447C62.4206511 56.0770745 61.9098902 55.1423014 61.9098902 55.1423014 61.9098902 55.1423014 62.1430985 56.2056591 61.9897634 56.9718316 61.8551276 57.6440999 61.3545178 57.8945999 61.036895 58.0850759 59.8433386 58.8002947 59.0074752 58.3985343 58.3174671 58.5575311 57.6271919 58.7165279 57.3271999 59.6240901 56.9868708 59.8671204 57.537969 59.5581971 59.0162906 59.0435918 59.7693424 59.2690151 60.6201654 59.5240502 61.8249414 58.9672946 62.0803219 58.4572244 62.3354352 57.9474209 62.7612474 57.0972149 62.5910828 56.5871447" mask="url(#laura-b)"/>
    <path fill="#C38D71" d="M52.3502461,25.9603346 C52.3502461,25.9603346 45.3897928,35.4019695 42.6818516,37.6092505 C37.706741,41.6639354 35.4550653,48.5629555 35.4550653,48.5629555 L37.5272267,36.7841211 L52.3502461,25.9603346 Z" mask="url(#laura-b)"/>
    <path fill="#9F7158" d="M80.9555294,42.7368169 L77.2188538,35.0377442 C77.3489482,34.4460413 79.6548521,51.7308065 77.581088,60.9873008 C76.0936838,67.6267507 72.0567491,73.6881032 71.245462,74.6335472 C69.6033869,76.5468441 66.8187782,79.0355707 62.850497,80.4022495 C58.8819487,81.7689283 56.8613443,82.004489 52.3451705,81.0478405 C47.8292639,80.091192 44.4566924,76.4428026 44.4566924,76.4428026 L44.2846579,78.6922337 C45.3489212,80.0210307 47.6978338,83.3234154 49.7462202,84.6327379 C53.0103351,86.7189039 57.2321268,88.5452328 60.8469892,88.0292935 C66.4568111,87.2289741 75.0777717,78.5062928 76.4134436,73.9711495 C76.6824479,73.0571847 80.5366627,64.2208581 80.9555294,60.3158329 C81.8071538,52.3771978 80.9555294,42.7368169 80.9555294,42.7368169" mask="url(#laura-b)"/>
    <path fill="#34231C" d="M37.4655988,41.1137691 L38.982922,37.7681672 C38.982922,37.7681672 47.1935642,30.7984522 50.2044358,28.0653614 C53.2147731,25.3320038 60.4674714,19.8658222 62.3833591,18.6357313 C64.2992469,17.4059071 66.0780947,17.6790828 66.0780947,17.6790828 C66.0780947,17.6790828 70.1836829,19.8658222 71.2781325,21.0956464 C72.3731163,22.3254706 75.9308119,30.5252765 77.0257957,34.4881915 C78.1202453,38.4513732 78.8046436,42.414555 78.8046436,42.414555 L79.813343,44.9008806 C79.813343,44.9008806 80.5519695,54.6885203 79.4572528,60.018114 C78.3625362,65.3479746 76.751983,71.5229724 76.751983,72.2064452 C76.751983,72.8893844 71.5519452,85.5989903 71.5519452,85.5989903 C71.5519452,85.5989903 74.9728681,80.9526025 75.6572663,79.995954 C76.3413975,79.0393056 74.6533753,82.713572 73.4218859,85.7201053 C72.1898621,88.7266385 68.9201373,100.205086 68.9201373,100.205086 L75.6572663,90.3819658 C75.6572663,90.3819658 74.9728681,97.215093 74.289004,100.358214 C73.6046058,103.501335 71.1413597,109.65099 71.1413597,109.65099 L74.8267455,106.43664 L70.3752183,119.428492 L75.0049242,119.775297 C75.0049242,119.775297 80.8164325,112.300047 83.5532242,106.970186 C86.2900159,101.640593 89.0679463,82.7290448 90.0258902,80.1325419 C90.9838341,77.5360389 90.8470613,63.7334635 90.2997029,57.8569848 C89.7520774,51.9805062 87.699684,38.1779308 84.6888125,30.9350401 C81.6784752,23.6921494 76.4784374,16.312404 74.6993225,14.5359617 C72.9204746,12.7595194 64.8466052,10.2993375 62.1098135,9.61639827 C59.3727547,8.93292549 57.456867,8.93292549 54.9936209,9.61639827 C52.5306419,10.2993375 47.8338853,11.8028709 45.3709064,13.7159011 C42.9076603,15.629198 38.2547137,21.9154403 36.2023203,26.4252402 C34.1493926,30.9350401 31.1387882,42.2777003 30.7282026,48.0175912 C30.3178842,53.757482 30.9090526,83.8222812 30.9090526,84.2323115 C30.9090526,84.6423418 32.1405421,102.408099 32.4143548,104.594572 C32.6879004,106.781044 36.5196759,118.397147 36.5196759,118.397147 L36.6567159,111.837462 C36.6567159,111.837462 40.0776387,116.48385 40.0776387,115.937499 C40.0776387,115.39088 39.6670532,108.831196 39.3935076,107.601105 C39.1196948,106.371014 39.2089177,104.400627 39.2089177,100.300858 C39.2089177,96.2010883 42.6816646,111.50533 42.6816646,111.50533 C42.6816646,111.50533 41.8564865,92.841881 42.8144304,95.7115596 C43.7723743,98.581505 48.8356392,107.464517 48.0144682,105.55122 C47.1935642,103.637923 45.2776765,95.5749718 45.2776765,91.8852325 C45.2776765,88.1952264 44.6536506,81.6163341 44.6536506,81.2063038 C44.6536506,80.7962734 44.4567725,76.4428026 44.4567725,76.4428026 C44.4567725,76.4428026 40.8988098,72.8893844 39.8040931,70.8397664 C38.7091093,68.7896148 37.2040742,64.1432271 36.6567159,59.6336939 C36.1090904,55.123894 35.698772,47.7441487 35.698772,47.7441487 C35.698772,47.7441487 37.3168049,42.6829287 37.4655988,41.1137691" mask="url(#laura-b)"/>
    <path fill="#463129" d="M87.2931856 72.8233047C87.2931856 72.8233047 89.9645294 57.6172358 87.56032 48.8137223 85.1561106 40.0102087 82.7519012 27.7386443 79.8134231 23.203501 76.874945 18.6683577 72.3336606 14.1332143 72.3336606 14.1332143 72.3336606 14.1332143 70.1965855 15.7338531 72.3336606 19.4686771 74.4707356 23.203501 77.9434825 30.6731489 79.01202 33.3408803 80.0805575 36.0086116 82.7519012 47.4798566 83.28617 50.4143611 83.8204387 53.3488656 80.6148262 66.6875225 80.3476919 71.2226659 80.0805575 75.7578092 77.9311943 83.1903756 77.9311943 83.1903756 77.9311943 83.1903756 81.944354 71.4889055 83.5471603 67.4873084 85.1499665 63.4857113 86.0181533 51.8813466 86.0181533 52.681666 86.0181533 53.4819854 86.0181533 67.038596 82.7519012 82.960684 81.8676865 87.2709375 78.1505116 97.142344 78.9519147 96.3420246 79.7533179 95.5417051 86.2246481 79.7594063 87.2931856 72.8233047M69.128048 14.6667606C69.128048 14.6667606 65.9224355 13.8664412 61.9154199 16.5341725 57.9084042 19.2019039 43.7502822 31.4734683 44.284551 30.6731489 44.8188198 29.8728295 54.9699261 16.5341725 58.7098073 14.3999874 62.4496886 12.2658023 67.2581074 11.4654829 69.128048 14.6667606" mask="url(#laura-b)"/>
    <path fill="#C38D71" d="M51.2428405,51.6560033 C51.2428405,51.6560033 52.5117288,49.3217384 53.0459976,48.3213391 C53.5802663,47.3209398 53.9809679,44.4531286 54.448453,43.9862756 C54.9159382,43.5194226 55.8509085,43.0525696 56.3851773,43.1859562 C56.919446,43.3193427 57.4537148,43.3193427 57.7208492,43.852889 C57.9879835,44.3864353 58.4554687,46.7207003 58.9229539,47.6544062 C59.390439,48.5881122 61.1935961,51.1891503 61.1935961,51.1891503 C61.1935961,51.1891503 59.6575734,47.8544861 59.1900882,45.720301 C58.7226031,43.5861159 58.0547671,42.1855569 58.0547671,42.1855569 L53.0459976,42.6524099 C53.0459976,42.6524099 52.645296,46.9207801 52.311378,48.3880324 C51.9774601,49.8552846 51.2428405,51.6560033 51.2428405,51.6560033" mask="url(#laura-b)"/>
    <path fill="#C69277" d="M62.0233111 58.4725163C63.6285731 58.4725163 65.5341108 63.5255511 66.0209214 64.2017148 66.5077321 64.8778785 66.6796644 64.9608829 66.0298252 65.9326786 65.3799861 66.9044744 65.6414063 68.4993717 65.6414063 68.4993717 65.6414063 68.4993717 69.8680147 65.9326786 68.6267233 64.2017148 67.5094906 62.6437489 62.6814913 56.8347902 62.6814913 56.8347902 62.6814913 56.8347902 60.4180492 58.4725163 62.0233111 58.4725163zM49.2680664 58.8278809C49.2680664 58.8278809 48.4750839 61.7464236 47.8662109 62.9941406 47.2573379 64.2418577 47.9012666 64.9057409 48.1265694 65.3504539 48.3518723 65.7951669 48.2832501 66.0580337 47.4423311 66.535155 46.601412 67.0122762 44.5854492 65.2880859 45.6953125 64.1411133 46.8051758 62.9941406 49.2680664 58.8278809 49.2680664 58.8278809z" mask="url(#laura-b)"/>
    <path fill="#593225" d="M53.7232099 58.7731638C53.7232099 58.7731638 53.1889412 57.7951735 52.2985823 57.4392981 51.4082234 57.0836895 51.0518662 57.9728444 51.4082234 58.1507821 51.7643135 58.3287198 53.7232099 58.7731638 53.7232099 58.7731638M57.99736 58.5954929C58.2644943 58.4175552 58.7098073 57.6172358 59.5112105 57.4392981 60.3126136 57.2616272 61.025061 57.4392981 60.8468824 57.884009 60.6687037 58.3287198 59.8673006 58.6843284 59.2440761 58.6843284 58.6208516 58.6843284 57.99736 58.5954929 57.99736 58.5954929" mask="url(#laura-b)"/>
    <path fill="#BD746F" d="M47.0002658,65.4542303 C47.0002658,65.4542303 49.0379668,64.8251792 50.4885065,64.6042911 C52.4225594,64.3103071 53.0425783,64.3103071 54.8037952,64.7355435 C55.1299663,64.8142415 56.0860402,65.1119604 56.9432744,65.1119604 C57.8002415,65.1119604 58.4859754,64.8550578 59.5144428,64.7696904 C60.5429101,64.6837895 65.2572976,65.4542303 65.2572976,65.4542303 L66.3717822,65.6254987 C66.3717822,65.6254987 65.7717984,66.1390369 64.4858135,66.9094778 C63.2003629,67.6799186 60.8001606,70.0766085 58.8287089,70.3332442 C56.8572572,70.5901468 54.2401417,70.6467027 52.4003872,69.8197059 C50.6859188,69.0495319 47.3429992,65.796767 47.3429992,65.796767 L47.0002658,65.4542303 Z" mask="url(#laura-b)"/>
    <path fill="#DA867F" d="M51.5430996,68.1933235 C51.5430996,68.1933235 52.6573171,69.648571 54.8860192,69.8198393 C57.1144541,69.9908409 58.4001719,69.9054735 59.8573899,69.4773026 C61.3143408,69.0493985 64.314527,66.6527086 64.0572766,66.4814403 C63.8002933,66.3101719 62.257058,65.4540969 61.3143408,65.2830953 C60.3716236,65.111827 57.6286878,65.0264596 56.943221,65.4540969 C56.2572199,65.8822678 55.9144865,66.7383428 54.8860192,67.3375153 C53.8572847,67.9366877 51.2858492,67.3375153 51.5430996,68.1933235" mask="url(#laura-b)"/>
    <path fill="#71353A" d="M49.5817455,65.6203766 C50.6633726,65.7745715 52.7491579,66.1605922 53.1354342,66.2376897 C53.5214433,66.3147871 54.3714649,66.468982 54.3714649,66.468982 C54.3714649,66.468982 55.2984212,66.3918845 56.2253775,66.468982 C57.1523338,66.5460794 58.8518427,66.3918845 59.0837153,66.3918845 C59.3153208,66.3918845 60.5513516,66.3147871 61.941786,66.0834948 C63.3322205,65.8516689 64.3793872,65.1076386 64.997269,65.2618335 C65.615418,65.4162952 66.6540364,65.0033303 66.8084401,65.3119869 C66.9628438,65.6203766 66.6540364,65.7745715 66.6540364,65.7745715 C66.6540364,65.7745715 64.7145171,65.9057975 64.1738371,65.9828949 C63.63289,66.0599924 61.4023179,66.4321409 60.517836,66.653029 C59.7353994,66.8485737 57.144196,66.9088645 56.3719105,67.0630594 C55.5990907,67.2172542 54.7493363,67.1401568 53.9770508,66.9859619 C53.2044982,66.831767 52.1228711,66.5231105 50.037353,66.2147208 C47.9515678,65.9057975 47.1874201,65.9287664 46.7236749,66.0061306 C46.2601967,66.0834948 46.4920693,65.3890843 46.4920693,65.3890843 C46.4920693,65.3890843 48.5006527,65.4661817 49.5817455,65.6203766 Z" mask="url(#laura-b)"/>
    <path fill="#FEFEFE" fill-opacity=".1" d="M52.6815461 45.4472854C52.4381867 46.8238347 51.9923394 49.455285 51.3840745 50.6701699 50.7760766 51.884788 50.2490205 52.5727959 49.1949083 53.018307 48.140796 53.4635514 44.6950297 53.7065817 42.9111063 53.6660322 41.1271829 53.6254827 39.1813761 53.4230019 38.24881 52.7752767 37.3162439 52.1275515 36.4648867 50.6701699 36.0999811 48.9292084 35.7350756 47.1879801 35.3298327 45.4472854 35.4110416 44.2326673 35.4919833 43.0183159 36.0190394 42.3297745 36.5460955 42.1275604 37.4805316 41.7684838 39.8705828 41.1959886 41.9379358 41.1557059 44.0055559 41.1154231 47.8164949 41.1557059 49.6816271 41.4795685 51.546225 41.8036978 52.2354317 42.3297745 52.4381867 42.8966674 52.6409417 43.4632935 52.9246384 44.070736 52.6815461 45.4472854M78.141242 46.3379875C77.7766036 48.4433611 77.4520353 50.2654217 76.5603408 51.2367426 75.6683791 52.2085972 75.1819274 52.6943911 73.8441185 52.9371546 72.5060424 53.1799182 70.8033278 53.4232153 68.8169166 53.3826658 66.8302383 53.3421163 64.843827 53.3826658 63.6275642 52.8968719 62.4113014 52.411078 60.8710046 50.7914983 60.2221352 48.9694377 59.5732658 47.147644 59.1274185 44.6375755 59.2086274 43.4635069 59.2898362 42.2891716 60.4248902 41.4795151 61.438398 41.1556525 63.1055836 40.6229066 65.249337 40.3057133 67.4791077 40.1843315 69.7088783 40.062683 73.5195502 39.9007517 75.4656241 40.3862788 77.4116981 40.8723395 77.5738486 41.1556525 77.8169409 41.7225454 78.0603003 42.2891716 78.5061476 44.2326139 78.141242 46.3379875" mask="url(#laura-b)"/>
    <path fill="#C69277" d="M53.4466991 41.8520905C53.4466991 41.8520905 51.8438929 39.5178255 50.6417882 38.8508927 49.4396835 38.1839598 43.8418826 37.1822267 43.8418826 37.5156931 43.8418826 37.8491595 48.0211999 38.7935365 47.3026085 40.5182248 46.9109895 41.4580666 46.1672874 41.9854771 45.4326678 42.1188636 44.6980483 42.2522502 42.5510893 43.2665217 42.0168206 43.5332948 41.4825518 43.8000679 41.4176382 45.5847802 41.7515561 45.8515534 42.0854741 46.1183265 46.1026409 46.9882737 44.8919879 47.8771618 43.456942 48.9303822 46.9550666 48.7198982 50.5750046 47.4543264 51.6520904 47.0779095 52.4989064 50.5032766 52.56569 50.7700497 52.6324736 51.0368229 53.8124061 47.5687721 53.8124061 47.5687721L53.4466991 41.8520905zM59.7911406 46.3205405C59.7911406 46.3205405 59.4948886 45.2643857 60.6801638 43.0837821 61.8723845 40.8906401 63.891119 39.3494917 64.6925221 38.8826387 65.4939253 38.4157857 67.2041195 38.1839598 67.8051719 38.0505733 68.4062242 37.9171867 70.2761649 38.1172665 70.0090305 38.1839598 69.7418961 38.2506531 68.1796943 39.2849326 67.7146133 39.8998447 66.2285448 41.864362 67.4936932 43.6536095 67.4936932 43.6536095 67.4936932 43.6536095 65.2609841 45.1470055 65.2609841 46.0900486 65.2609841 48.1738135 69.2679997 48.1164573 69.2679997 48.1164573 69.2679997 48.1164573 66.4510677 48.4768678 64.7814779 48.2100947 63.111888 47.9433215 60.6593273 49.1216585 59.7911406 46.3205405" mask="url(#laura-b)"/>
    <path fill="#948D8B" d="M41.5112153 45.5301184C41.8250982 45.3508469 44.5148743 43.8286393 45.7252601 43.6944525 46.9359131 43.5599988 48.1858349 43.9188087 48.6816363 44.1423646 49.1771705 44.3659204 50.2534549 45.5301184 50.2534549 45.5301184 50.2534549 45.5301184 49.0876805 46.0225816 48.2360561 46.2464043 47.3838975 46.470227 46.5322731 46.8282365 45.4565229 46.6940496 44.3802385 46.559596 42.7216012 46.1570353 42.7216012 46.1570353L41.5112153 45.5301184zM63.1068392 45.4436306C63.1068392 45.4436306 65.2270847 43.828586 66.0789763 43.6495812 66.9306006 43.4705764 67.603245 43.2467538 69.0377566 43.739217 70.4722682 44.2316802 72.5794242 45.3059756 72.5794242 45.3059756 72.5794242 45.3059756 71.197538 45.7530874 70.2072709 45.9326257 69.2172709 46.112164 67.53753 46.7606895 66.2317771 46.1308382 64.3896185 45.2427504 63.1068392 45.4436306 63.1068392 45.4436306" mask="url(#laura-b)"/>
    <path fill="#CBC0BB" d="M42.2734833 45.9308117C42.4284212 45.8793245 44.485623 45.3617846 45.8808659 45.3102974 47.2761087 45.2585434 49.5080165 45.20839 49.5080165 45.20839L49.7770208 45.5455913C49.7770208 45.5455913 48.5778546 46.3952637 46.8727358 46.5499921 45.16735 46.7047205 43.3585831 46.3952637 43.1518211 46.3437765 42.9453262 46.2920225 42.2734833 45.9308117 42.2734833 45.9308117M64.2249301 45.4149791C64.2249301 45.4149791 66.5214843 44.8251437 67.8133462 44.7219025 69.1054752 44.6189281 71.5214385 45.4147124 71.5214385 45.4147124 71.5214385 45.4147124 69.8678767 46.3953704 67.955996 46.3436164 66.0441152 46.2921292 64.2249301 45.4149791 64.2249301 45.4149791" mask="url(#laura-b)"/>
    <path fill="#301507" d="M48.1400213,44.2493939 C48.5348459,45.2473922 48.0446543,46.3761094 47.0450375,46.7698665 C46.0456878,47.1641572 44.9157094,46.6746285 44.5211519,45.6766302 C44.1265944,44.6786319 44.616786,43.5501815 45.6158686,43.1558908 C46.6152183,42.7621337 47.7451967,43.2516624 48.1400213,44.2493939" mask="url(#laura-b)"/>
    <path stroke="#1D0500" stroke-width=".5" d="M48.1400213,44.2493939 C48.5348459,45.2473922 48.0446543,46.3761094 47.0450375,46.7698665 C46.0456878,47.1641572 44.9157094,46.6746285 44.5211519,45.6766302 C44.1265944,44.6786319 44.616786,43.5501815 45.6158686,43.1558908 C46.6152183,42.7621337 47.7451967,43.2516624 48.1400213,44.2493939 Z" mask="url(#laura-b)"/>
    <path fill="#1D0500" d="M48.3132312,44.6956787 C48.3132312,44.6956787 47.3718497,44.4433113 46.3433824,44.54015 C45.3937196,44.629519 44.3380046,45.0552889 44.3609781,45.1561292 C44.2338222,44.0666277 45.0151902,43.0798338 46.1067013,42.9531166 C47.1979452,42.8258658 48.1858081,43.6061772 48.3132312,44.6956787" mask="url(#laura-b)"/>
    <path fill="#000" d="M47.0748764,44.6693482 C47.237027,45.0799121 47.0356077,45.5440973 46.6244879,45.7065622 C46.2133681,45.8684935 45.7485542,45.6670797 45.5861365,45.2565159 C45.4237188,44.845952 45.6254053,44.3817668 46.0365251,44.2195687 C46.4476449,44.0576374 46.9127258,44.2590511 47.0748764,44.6693482" mask="url(#laura-b)"/>
    <path fill="#301507" d="M69.6229412,43.9307868 C70.0174987,44.9285183 69.5273071,46.0572355 68.5279574,46.4512594 C67.5286077,46.8452833 66.3986292,46.3557546 66.0038046,45.3580231 C65.6092472,44.359758 66.0994387,43.2313076 67.0987885,42.8372837 C68.0981382,42.4432598 69.2281166,42.9327885 69.6229412,43.9307868" mask="url(#laura-b)"/>
    <path stroke="#1D0500" stroke-width=".5" d="M69.6229412,43.9307868 C70.0174987,44.9285183 69.5273071,46.0572355 68.5279574,46.4512594 C67.5286077,46.8452833 66.3986292,46.3557546 66.0038046,45.3580231 C65.6092472,44.359758 66.0994387,43.2313076 67.0987885,42.8372837 C68.0981382,42.4432598 69.2281166,42.9327885 69.6229412,43.9307868 Z" mask="url(#laura-b)"/>
    <path fill="#1D0500" d="M69.7961511,44.3770449 C69.7961511,44.3770449 68.8547696,44.1244107 67.8260351,44.2212494 C66.8763724,44.3108851 65.8209244,44.7366551 65.843898,44.8374953 C65.716742,43.747727 66.4981101,42.7612 67.589354,42.634216 C68.6808651,42.5069652 69.668728,43.2872766 69.7961511,44.3770449" mask="url(#laura-b)"/>
    <path fill="#000" d="M68.5577963,44.350741 C68.7199468,44.7613049 68.5185275,45.2254902 68.1071406,45.3876882 C67.6960208,45.5496195 67.231207,45.3482058 67.0690564,44.937642 C66.9066387,44.5273449 67.1083251,44.0631596 67.519445,43.9006948 C67.9302976,43.7387635 68.3953786,43.9401772 68.5577963,44.350741" mask="url(#laura-b)"/>
    <path fill="#573A2D" d="M41.0484317,44.9132055 C40.9041792,45.1271576 41.2076438,43.7407376 42.6012839,42.9550907 C43.995191,42.1694438 45.7660248,41.8738592 46.6985909,41.8381116 C48.6582887,41.762348 50.0383049,43.1071514 50.0383049,43.1071514 C50.0383049,43.1071514 48.1106632,42.1505029 46.5057199,42.2772202 C45.2192008,42.3785939 44.7185909,42.3668559 43.3925359,43.0778063 C42.0670151,43.78849 41.448599,44.3204356 41.0484317,44.9132055" mask="url(#laura-b)"/>
    <path fill="#554038" d="M61.2293386 39.8270689C61.2293386 39.4695929 61.3725227 38.8264029 62.6609118 38.2544413 63.949568 37.6827465 66.4547542 37.1822801 68.6733052 37.3967657 70.8923904 37.6112513 72.7535157 38.1114509 73.6120855 38.4689269 74.4711897 38.8264029 75.7598459 39.6843453 75.7598459 39.6843453 75.7598459 39.6843453 74.3280057 39.3268693 73.3259846 38.9693933 72.3239636 38.6119173 69.8187774 38.1832129 68.3872043 38.3259365 66.9556311 38.4689269 65.380874 39.0408885 64.736813 39.3983645 64.0924849 39.7555737 62.9472798 40.3990306 62.3032188 40.3990306 61.6588907 40.3990306 61.2293386 39.8270689 61.2293386 39.8270689M51.1369217 39.0408085C51.1369217 39.0408085 49.4189806 37.897152 48.2737755 37.539676 47.1285704 37.1822 45.4106292 37.1109716 43.8361392 37.253962 42.2613821 37.3966856 40.7582169 37.897152 40.1138888 38.3976184 39.4698278 38.8978181 37.4655186 41.1139025 37.4655186 41.1139025L38.3962148 41.0424073C38.3962148 41.0424073 39.7559288 39.4695129 41.187769 38.8263229 42.619075 38.1831328 44.8381603 37.9683805 45.7685893 38.1831328 46.6992855 38.3976184 47.9876746 39.3982845 48.8465116 39.6127701 49.7056158 39.8269889 51.2801058 39.8269889 51.1369217 39.0408085" mask="url(#laura-b)"/>
    <path fill="#E3B394" d="M65.7565183,43.9591714 C65.7565183,43.9591714 66.793534,43.2991747 67.8038362,43.4629734 C68.8144056,43.6265053 70.1799965,44.1176347 70.1799965,44.1176347 C70.1799965,44.1176347 70.2620067,43.1356428 69.4696862,42.6175693 C68.6778999,42.0992291 67.8954633,42.0552116 67.1579053,42.1917994 C66.4206144,42.3281205 65.8385286,43.3591986 65.7565183,43.9591714" mask="url(#laura-b)"/>
    <path fill="#E8B798" d="M66.0014806,46.0962377 C66.0014806,46.0962377 66.3565022,46.3688798 67.5580726,46.341669 C68.759643,46.3141913 70.2072442,45.9327058 70.2072442,45.9327058 C70.2072442,45.9327058 69.7702124,47.1873398 68.1588578,47.1598622 C66.5475032,47.1326513 66.4385124,46.6417888 66.0014806,46.0962377" mask="url(#laura-b)"/>
    <path fill="#573A2D" d="M64.2805208,43.3946261 C64.2805208,43.3946261 66.4282812,41.9817956 68.0885213,41.9855304 C69.7223152,41.9892652 71.6000027,42.6908786 72.387782,43.4058306 C73.175027,44.1205158 73.683918,44.9819263 73.683918,44.9819263 C73.683918,44.9819263 71.7130005,43.31246 70.5677955,42.8834888 C69.4225904,42.4547844 68.4609066,42.3608802 67.0659309,42.5406853 C66.1429817,42.6593994 64.2805208,43.3946261 64.2805208,43.3946261" mask="url(#laura-b)"/>
    <path fill="#34231C" d="M70.2132814,46.1668259 C70.6708826,46.0611837 72.017507,45.5865943 72.017507,45.5865943 C72.017507,45.5865943 71.6777121,45.043711 71.4060364,45.2475256 C71.1340936,45.4508068 69.7556802,46.0963978 69.1225718,46.1668259 C68.4891962,46.237254 69.7556802,46.2722013 70.2132814,46.1668259" mask="url(#laura-b)"/>
    <path fill="#755042" d="M64.2356422,44.5448185 C64.2356422,44.5448185 63.0904371,45.2597705 62.8043362,45.4027609 C62.517701,45.5454845 62.8756611,45.9029606 62.8756611,45.9029606 L63.7347652,45.7602369 C63.7347652,45.7602369 64.3075013,45.5454845 64.8799703,45.7602369 C65.4527064,45.9744558 66.8124204,46.3319318 66.8124204,46.3319318 C66.8124204,46.3319318 65.8819914,45.9744558 65.3095224,45.6172465 C64.7367863,45.2597705 63.6514193,45.5868344 63.5079682,45.4150325 C63.3647841,45.2432306 64.2356422,44.5448185 64.2356422,44.5448185" mask="url(#laura-b)"/>
    <path fill="#C38D71" d="M43.2496724 44.5242503C43.2496724 44.5242503 44.6515936 43.4304804 45.9218176 43.5182488 47.1923087 43.6057504 48.6815828 44.2182615 48.6815828 44.2182615 48.6815828 44.2182615 48.9444431 42.5557313 47.0608786 42.4244789 45.1773141 42.2932265 43.863013 43.299228 43.863013 43.299228L43.2496724 44.5242503zM43.7468896 46.3999856C43.7468896 46.3999856 44.5202437 46.5248354 45.8342777 46.612337 47.1483117 46.6995718 48.4188028 46.1745623 48.4188028 46.1745623 48.4188028 46.1745623 48.725473 47.5308369 46.7980985 47.4870861 44.8704568 47.4433353 43.7468896 46.3999856 43.7468896 46.3999856" mask="url(#laura-b)"/>
    <path fill="#34231C" d="M43.8223017,46.5534335 C42.5908122,46.2020933 42.025823,45.6658793 42.025823,45.6658793 L41.2580788,46.2103632 C41.2580788,46.2103632 45.0537911,46.9045069 43.8223017,46.5534335" mask="url(#laura-b)"/>
    <path fill="#755042" d="M49.4936713,44.7058428 L50.70753,45.5453778 C50.70753,45.5453778 50.993898,45.9746158 50.70753,45.9746158 L49.5623249,45.9746158 L47.8443837,46.3320918 L49.7771009,45.5453778 L49.4936713,44.7058428 Z" mask="url(#laura-b)"/>
    <path fill="#FEFEFE" d="M47.2809439 44.581116C47.2809439 44.7233061 47.1650076 44.8390856 47.0226249 44.8390856 46.8799752 44.8390856 46.764306 44.7233061 46.764306 44.581116 46.764306 44.4386591 46.8799752 44.3231464 47.0226249 44.3231464 47.1650076 44.3231464 47.2809439 44.4386591 47.2809439 44.581116M68.8134439 44.0457987C68.8134439 44.1879888 68.6977747 44.3035016 68.5551249 44.3035016 68.4124752 44.3035016 68.296806 44.1879888 68.296806 44.0457987 68.296806 43.9033418 68.4124752 43.7878291 68.5551249 43.7878291 68.6977747 43.7878291 68.8134439 43.9033418 68.8134439 44.0457987" mask="url(#laura-b)"/>
    <path fill="#34231C" d="M63.7960726 44.8269845C63.7960726 44.8269845 65.0184795 43.9426315 65.7659215 43.7390836 66.5133635 43.5352689 67.464629 43.3549303 68.212071 43.4907178 68.959513 43.6265053 69.9788977 43.6710564 70.6582205 44.0781523 71.3378103 44.4855148 71.7457245 44.6213024 72.1533716 44.8926106 72.5612858 45.1641857 73.6485227 45.435494 73.6485227 45.435494 73.6485227 45.435494 72.1995858 45.7572224 71.5215988 45.4146857 70.887956 45.0945579 70.0240434 44.6591842 69.2087493 44.2520883 68.3931881 43.8447258 68.0760996 43.5352689 66.7174541 43.8748711 65.3582744 44.2139398 64.4075432 44.8950116 63.7960726 44.8269845M41.1003359 45.6465649L41.1003359 45.2816192C41.1003359 45.2816192 41.9818794 45.1479659 42.2348556 45.0108445 42.8222841 44.6931177 43.4110483 44.3695219 43.5697261 44.2508078 43.8929587 44.0085778 44.1910807 43.8626529 45.3226619 43.6204229 46.4537089 43.3784597 47.5209107 43.6484341 47.8441433 43.8095651 48.1673759 43.9712296 49.4234417 44.425811 49.4936981 44.7059228 49.5639544 44.9857678 48.7272895 44.558664 47.67665 44.3167008 46.6262777 44.074204 45.6082285 43.9298797 44.557589 44.4949053 43.5072167 45.0599308 42.59148 45.6657726 41.9450148 45.9885681 41.2985496 46.3113636 40.9787898 46.1803779 40.3288519 46.2305313 39.6791811 46.2809514 41.1003359 45.6465649 41.1003359 45.6465649" mask="url(#laura-b)"/>
    <path fill="#FEFEFE" d="M36.5460154,42.1274537 C36.5460154,42.1274537 35.6457725,42.7375639 35.7034736,43.9471133 C35.7611746,45.1563959 35.9340105,46.9419085 36.1645475,48.093835 C36.3956187,49.2457614 37.4911368,52.1829336 37.4911368,52.1829336 C37.4911368,52.1829336 36.0494126,49.8793476 35.7611746,47.4602487 C35.4726695,45.0414167 35.1267304,44.1199823 35.4152356,43.2559041 C35.7034736,42.3920927 36.5460154,42.1274537 36.5460154,42.1274537" mask="url(#laura-b)"/>
    <path fill="#1A191B" d="M78.141242,46.3379875 C77.7766036,48.4433611 77.4520353,50.2654217 76.5603408,51.2367426 C75.6683791,52.2085972 75.1819274,52.6943911 73.8441185,52.9371546 C72.5060424,53.1799182 70.8033278,53.4232153 68.8169166,53.3826658 C66.8302383,53.3421163 64.843827,53.3826658 63.6275642,52.8968719 C62.4113014,52.411078 60.8710046,50.7914983 60.2221352,48.9694377 C59.5732658,47.147644 59.1274185,44.6375755 59.2086274,43.4635069 C59.2898362,42.2891716 60.4248902,41.4795151 61.438398,41.1556525 C63.1055836,40.6229066 65.249337,40.3057133 67.4791077,40.1843315 C69.7088783,40.062683 73.5195502,39.9007517 75.4656241,40.3862788 C77.4116981,40.8723395 77.5738486,41.1556525 77.8169409,41.7225454 C78.0603003,42.2891716 78.5061476,44.2326139 78.141242,46.3379875 M52.681466,45.447232 C52.4381066,46.8237814 51.9922593,49.4554984 51.3839943,50.6701165 C50.7762636,51.8847346 50.2489404,52.5727425 49.1950953,53.0182537 C48.1407159,53.463498 44.6949495,53.7065284 42.9110262,53.6659788 C41.1271028,53.6254293 39.181296,53.4232153 38.2487299,52.7752233 C37.3164309,52.1274982 36.4648065,50.6701165 36.099901,48.929155 C35.7352625,47.1881935 35.3297526,45.447232 35.4109614,44.2326139 C35.4921703,43.0182626 36.0189593,42.3299879 36.5460154,42.1275071 C37.4804514,41.7684304 39.8705027,41.196202 41.9381228,41.1556525 C44.0057428,41.1153698 47.8164147,41.1556525 49.681547,41.4795151 C51.5461449,41.8036445 52.2353516,42.3299879 52.4381066,42.8968808 C52.6408616,43.4635069 52.9248254,44.0706826 52.681466,45.447232 M80.6549765,40.264897 C80.4116171,40.0221335 79.2765631,39.9815839 77.7357321,39.8602022 C76.1954352,39.7388204 72.3441589,39.5766223 69.6276695,39.5363396 C66.9114471,39.4960568 64.7626182,39.9815839 63.0601708,40.2246143 C61.3571892,40.4673778 58.8437218,41.3581333 57.1004029,41.5200646 C55.3570839,41.6822627 54.9515739,41.6417132 53.9786705,41.5606142 C53.0057671,41.4795151 51.3839943,40.9531717 49.9246392,40.7104082 C48.4652841,40.4673778 47.4111719,40.4270951 44.4109857,40.3862788 C41.4110666,40.3459961 39.5055971,40.7104082 37.0730715,41.0342708 C34.6405459,41.3581333 33.5460963,41.6822627 33.5460963,41.6822627 C33.5460963,41.6822627 33.4242831,42.046408 33.4242831,42.4513697 C33.4242831,42.8560645 33.5867008,44.9614381 33.5867008,44.9614381 C34.1137569,44.9614381 34.4783953,45.1639189 34.7217547,45.4877815 C34.964847,45.8116441 35.6540537,49.1316358 36.0189593,50.1840558 C36.3838648,51.2367426 36.8299792,52.2488799 37.9244288,53.0585364 C39.0191454,53.8684597 40.2354083,53.9898414 41.6541589,54.0709405 C43.0731767,54.1517727 45.5869112,54.0709405 46.8838486,53.9495587 C48.1815874,53.8279101 49.1542237,53.5040475 49.9246392,53.0585364 C50.6950548,52.613292 51.1409021,51.9250173 51.7085626,50.6701165 C52.2762232,49.4149489 53.0463716,46.7023996 53.2085221,45.8927431 C53.3706727,45.0830867 53.6140321,43.3824079 53.9380661,43.2204766 C54.2623672,43.0585453 55.1952005,42.815515 55.8435356,42.815515 C56.492405,42.815515 57.424704,42.9371635 57.8708184,43.0585453 C58.3166657,43.1801939 58.2763284,43.5037897 58.4382118,43.8279191 C58.6006295,44.1517816 59.4517196,47.7145369 59.9787758,49.1316358 C60.5058319,50.548468 61.3977936,51.8847346 62.4925103,52.6943911 C63.5872269,53.5040475 65.0871865,53.6254293 67.1951438,53.7468111 C69.3033683,53.8684597 71.4519301,53.6662456 73.0330985,53.463498 C74.6142669,53.261284 75.3034736,52.9371546 76.1142264,52.411078 C76.9249792,51.8847346 77.2898848,51.1153609 77.7766036,49.9412923 C78.2630553,48.7672237 78.9116576,45.3258502 79.0334709,44.678125 C79.155017,44.0303999 79.3981093,43.8682018 79.8036193,43.7871028 C80.2088621,43.7065373 80.492826,43.7871028 80.8171271,43.8682018 C81.1411611,43.9493008 81.6684843,44.678125 81.7496932,44.5564765 C81.8306349,44.4350947 80.8980688,40.5079273 80.6549765,40.264897" mask="url(#laura-b)"/>
    <path fill="#755042" d="M70.0111141,46.2512329 C70.0111141,46.2512329 68.7422258,46.4665188 67.9520424,46.4902616 C67.1618589,46.5142712 66.2763084,46.2992521 65.7735615,46.1079757 C65.2705475,45.9164326 65.2945896,45.7731754 65.2945896,45.7731754 C65.2945896,45.7731754 66.4197596,46.2272233 67.4733376,46.2992521 C68.5266484,46.3707473 69.412466,46.1557281 69.412466,46.1557281 L70.0111141,46.2512329 Z" mask="url(#laura-b)"/>
  </g>
</svg>
