<svg xmlns="http://www.w3.org/2000/svg" xmlns:xlink="http://www.w3.org/1999/xlink" width="120" height="120" viewBox="0 0 120 120">
  <defs>
    <path id="laura-a" d="M120,59.9999233 C120,93.1369885 93.1369885,120 59.9999233,120 C26.8628581,120 0,93.1369885 0,59.9999233 C0,26.8628581 26.8628581,0 59.9999233,0 C93.1369885,0 120,26.8628581 120,59.9999233"/>
  </defs>
  <g fill="none" fill-rule="evenodd">
    <mask id="laura-b" fill="#fff">
      <use xlink:href="#laura-a"/>
    </mask>
    <use fill="#7BCAEC" xlink:href="#laura-a"/>
    <g mask="url(#laura-b)">
      <g transform="translate(9 9)">
        <path fill="#31323C" d="M0.0152533729,89.6599096 C2.0187612,88.0592708 25.9347677,77.1618549 28.3389771,76.3615355 C30.7431865,75.5612161 62.6505178,70.1956079 66.6572663,70.9959274 C70.664282,71.79598 98.9834644,87.6591111 98.9834644,87.6591111 L96.7253775,110.330559 C96.7253775,110.330559 65.0378283,116.04414 49.4993589,115.911133 C33.9608895,115.778126 3.22834566,109.53024 3.22834566,109.53024 L0.0152533729,89.6599096 Z"/>
        <path fill="#E8B297" d="M33.4146104,73.960684 C34.1406816,75.237727 29.6822089,86.5566444 35.1477782,94.0615064 C38.3531236,98.4629964 50.5112105,104.372822 50.5112105,104.372822 C50.5112105,104.372822 54.6496562,96.7703208 63.0665262,94.7689887 C68.6763481,93.435123 66.6733745,71.430074 67.2076433,70.8965277 C67.741912,70.3629814 67.922762,66.7303316 67.922762,66.7303316 C67.922762,66.7303316 71.5258705,56.7092654 73.6629455,51.1961318 C75.8000205,45.6827313 75.0875731,27.1865493 70.9916017,20.4281186 C66.8953632,13.6699547 59.9498694,4.77760571 56.2099881,4.95527662 C52.4701069,5.1332143 31.0993567,18.4718712 28.428013,24.6964888 C25.7566692,30.9213732 23.7977728,42.8370622 23.9759514,48.172525 C24.1538629,53.5079878 33.4146104,73.960684 33.4146104,73.960684"/>
        <path fill="#C69277" d="M47.2638716 50.3775651C47.4807847 50.0937184 47.9135424 49.2587185 47.3667183 48.3274135 46.7731457 47.3166101 45.3135235 47.3739663 45.189306 45.514024 45.1233238 44.5269634 46.1648807 38.0203665 46.5337933 35.7442581 46.5973713 35.3523684 46.7824954 34.3602391 47.2801668 34.1470873 47.777571 33.9342024 44.9381997 34.2207167 44.9381997 34.2207167 44.9381997 34.2207167 43.8742035 42.9874156 41.459843 46.061976 40.9955634 46.653412 40.8889768 48.1086595 40.9597674 48.0283608 41.1969827 48.8678959 41.5236881 49.3691626 42.0459358 49.518022 42.6416454 49.6882233 43.9572822 49.518022 44.7231565 49.7733239 44.7231565 49.7733239 44.8289417 49.8562903 45.5574172 50.4330539 45.8376411 50.6550091 46.125612 50.8212088 46.4031646 50.9407231 46.7004852 50.9228493 47.0469584 50.6614117 47.2638716 50.3775651M53.5910828 47.5871447C53.4206511 47.0770745 52.9098902 46.1423014 52.9098902 46.1423014 52.9098902 46.1423014 53.1430985 47.2056591 52.9897634 47.9718316 52.8551276 48.6440999 52.3545178 48.8945999 52.036895 49.0850759 50.8433386 49.8002947 50.0074752 49.3985343 49.3174671 49.5575311 48.6271919 49.7165279 48.3271999 50.6240901 47.9868708 50.8671204 48.537969 50.5581971 50.0162906 50.0435918 50.7693424 50.2690151 51.6201654 50.5240502 52.8249414 49.9672946 53.0803219 49.4572244 53.3354352 48.9474209 53.7612474 48.0972149 53.5910828 47.5871447"/>
        <path fill="#C38D71" d="M43.3502461,16.9603346 C43.3502461,16.9603346 36.3897928,26.4019695 33.6818516,28.6092505 C28.706741,32.6639354 26.4550653,39.5629555 26.4550653,39.5629555 L28.5272267,27.7841211 L43.3502461,16.9603346 Z"/>
        <path fill="#9F7158" d="M71.9555294,33.7368169 L68.2188538,26.0377442 C68.3489482,25.4460413 70.6548521,42.7308065 68.581088,51.9873008 C67.0936838,58.6267507 63.0567491,64.6881032 62.245462,65.6335472 C60.6033869,67.5468441 57.8187782,70.0355707 53.850497,71.4022495 C49.8819487,72.7689283 47.8613443,73.004489 43.3451705,72.0478405 C38.8292639,71.091192 35.4566924,67.4428026 35.4566924,67.4428026 L35.2846579,69.6922337 C36.3489212,71.0210307 38.6978338,74.3234154 40.7462202,75.6327379 C44.0103351,77.7189039 48.2321268,79.5452328 51.8469892,79.0292935 C57.4568111,78.2289741 66.0777717,69.5062928 67.4134436,64.9711495 C67.6824479,64.0571847 71.5366627,55.2208581 71.9555294,51.3158329 C72.8071538,43.3771978 71.9555294,33.7368169 71.9555294,33.7368169"/>
        <path fill="#34231C" d="M28.4655988,32.1137691 L29.982922,28.7681672 C29.982922,28.7681672 38.1935642,21.7984522 41.2044358,19.0653614 C44.2147731,16.3320038 51.4674714,10.8658222 53.3833591,9.6357313 C55.2992469,8.40590713 57.0780947,8.67908282 57.0780947,8.67908282 C57.0780947,8.67908282 61.1836829,10.8658222 62.2781325,12.0956464 C63.3731163,13.3254706 66.9308119,21.5252765 68.0257957,25.4881915 C69.1202453,29.4513732 69.8046436,33.414555 69.8046436,33.414555 L70.813343,35.9008806 C70.813343,35.9008806 71.5519695,45.6885203 70.4572528,51.018114 C69.3625362,56.3479746 67.751983,62.5229724 67.751983,63.2064452 C67.751983,63.8893844 62.5519452,76.5989903 62.5519452,76.5989903 C62.5519452,76.5989903 65.9728681,71.9526025 66.6572663,70.995954 C67.3413975,70.0393056 65.6533753,73.713572 64.4218859,76.7201053 C63.1898621,79.7266385 59.9201373,91.2050863 59.9201373,91.2050863 L66.6572663,81.3819658 C66.6572663,81.3819658 65.9728681,88.215093 65.289004,91.3582141 C64.6046058,94.5013352 62.1413597,100.65099 62.1413597,100.65099 L65.8267455,97.4366401 L61.3752183,110.428492 L66.0049242,110.775297 C66.0049242,110.775297 71.8164325,103.300047 74.5532242,97.9701864 C77.2900159,92.6405926 80.0679463,73.7290448 81.0258902,71.1325419 C81.9838341,68.5360389 81.8470613,54.7334635 81.2997029,48.8569848 C80.7520774,42.9805062 78.699684,29.1779308 75.6888125,21.9350401 C72.6784752,14.6921494 67.4784374,7.31240404 65.6993225,5.53596171 C63.9204746,3.75951938 55.8466052,1.2993375 53.1098135,0.616398268 C50.3727547,-0.067074512 48.456867,-0.067074512 45.9936209,0.616398268 C43.5306419,1.2993375 38.8338853,2.80287091 36.3709064,4.71590108 C33.9076603,6.62919803 29.2547137,12.9154403 27.2023203,17.4252402 C25.1493926,21.9350401 22.1387882,33.2777003 21.7282026,39.0175912 C21.3178842,44.757482 21.9090526,74.8222812 21.9090526,75.2323115 C21.9090526,75.6423418 23.1405421,93.4080989 23.4143548,95.5945716 C23.6879004,97.7810442 27.5196759,109.397147 27.5196759,109.397147 L27.6567159,102.837462 C27.6567159,102.837462 31.0776387,107.48385 31.0776387,106.937499 C31.0776387,106.39088 30.6670532,99.8311958 30.3935076,98.6011048 C30.1196948,97.3710139 30.2089177,95.4006275 30.2089177,91.3008579 C30.2089177,87.2010883 33.6816646,102.50533 33.6816646,102.50533 C33.6816646,102.50533 32.8564865,83.841881 33.8144304,86.7115596 C34.7723743,89.581505 39.8356392,98.464517 39.0144682,96.55122 C38.1935642,94.6379231 36.2776765,86.5749718 36.2776765,82.8852325 C36.2776765,79.1952264 35.6536506,72.6163341 35.6536506,72.2063038 C35.6536506,71.7962734 35.4567725,67.4428026 35.4567725,67.4428026 C35.4567725,67.4428026 31.8988098,63.8893844 30.8040931,61.8397664 C29.7091093,59.7896148 28.2040742,55.1432271 27.6567159,50.6336939 C27.1090904,46.123894 26.698772,38.7441487 26.698772,38.7441487 C26.698772,38.7441487 28.3168049,33.6829287 28.4655988,32.1137691"/>
        <path fill="#463129" d="M78.2931856 63.8233047C78.2931856 63.8233047 80.9645294 48.6172358 78.56032 39.8137223 76.1561106 31.0102087 73.7519012 18.7386443 70.8134231 14.203501 67.874945 9.66835765 63.3336606 5.1332143 63.3336606 5.1332143 63.3336606 5.1332143 61.1965855 6.73385313 63.3336606 10.4686771 65.4707356 14.203501 68.9434825 21.6731489 70.01202 24.3408803 71.0805575 27.0086116 73.7519012 38.4798566 74.28617 41.4143611 74.8204387 44.3488656 71.6148262 57.6875225 71.3476919 62.2226659 71.0805575 66.7578092 68.9311943 74.1903756 68.9311943 74.1903756 68.9311943 74.1903756 72.944354 62.4889055 74.5471603 58.4873084 76.1499665 54.4857113 77.0181533 42.8813466 77.0181533 43.681666 77.0181533 44.4819854 77.0181533 58.038596 73.7519012 73.960684 72.8676865 78.2709375 69.1505116 88.142344 69.9519147 87.3420246 70.7533179 86.5417051 77.2246481 70.7594063 78.2931856 63.8233047M60.128048 5.66676058C60.128048 5.66676058 56.9224355 4.86644116 52.9154199 7.53417255 48.9084042 10.2019039 34.7502822 22.4734683 35.284551 21.6731489 35.8188198 20.8728295 45.9699261 7.53417255 49.7098073 5.39998744 53.4496886 3.26580234 58.2581074 2.46548292 60.128048 5.66676058"/>
        <path fill="#C38D71" d="M42.2428405,42.6560033 C42.2428405,42.6560033 43.5117288,40.3217384 44.0459976,39.3213391 C44.5802663,38.3209398 44.9809679,35.4531286 45.448453,34.9862756 C45.9159382,34.5194226 46.8509085,34.0525696 47.3851773,34.1859562 C47.919446,34.3193427 48.4537148,34.3193427 48.7208492,34.852889 C48.9879835,35.3864353 49.4554687,37.7207003 49.9229539,38.6544062 C50.390439,39.5881122 52.1935961,42.1891503 52.1935961,42.1891503 C52.1935961,42.1891503 50.6575734,38.8544861 50.1900882,36.720301 C49.7226031,34.5861159 49.0547671,33.1855569 49.0547671,33.1855569 L44.0459976,33.6524099 C44.0459976,33.6524099 43.645296,37.9207801 43.311378,39.3880324 C42.9774601,40.8552846 42.2428405,42.6560033 42.2428405,42.6560033"/>
        <path fill="#C69277" d="M53.0233111 49.4725163C54.6285731 49.4725163 56.5341108 54.5255511 57.0209214 55.2017148 57.5077321 55.8778785 57.6796644 55.9608829 57.0298252 56.9326786 56.3799861 57.9044744 56.6414063 59.4993717 56.6414063 59.4993717 56.6414063 59.4993717 60.8680147 56.9326786 59.6267233 55.2017148 58.5094906 53.6437489 53.6814913 47.8347902 53.6814913 47.8347902 53.6814913 47.8347902 51.4180492 49.4725163 53.0233111 49.4725163zM40.2680664 49.8278809C40.2680664 49.8278809 39.4750839 52.7464236 38.8662109 53.9941406 38.2573379 55.2418577 38.9012666 55.9057409 39.1265694 56.3504539 39.3518723 56.7951669 39.2832501 57.0580337 38.4423311 57.535155 37.601412 58.0122762 35.5854492 56.2880859 36.6953125 55.1411133 37.8051758 53.9941406 40.2680664 49.8278809 40.2680664 49.8278809z"/>
        <path fill="#593225" d="M44.7232099 49.7731638C44.7232099 49.7731638 44.1889412 48.7951735 43.2985823 48.4392981 42.4082234 48.0836895 42.0518662 48.9728444 42.4082234 49.1507821 42.7643135 49.3287198 44.7232099 49.7731638 44.7232099 49.7731638M48.99736 49.5954929C49.2644943 49.4175552 49.7098073 48.6172358 50.5112105 48.4392981 51.3126136 48.2616272 52.025061 48.4392981 51.8468824 48.884009 51.6687037 49.3287198 50.8673006 49.6843284 50.2440761 49.6843284 49.6208516 49.6843284 48.99736 49.5954929 48.99736 49.5954929"/>
        <path fill="#BD746F" d="M38.0002658,56.4542303 C38.0002658,56.4542303 40.0379668,55.8251792 41.4885065,55.6042911 C43.4225594,55.3103071 44.0425783,55.3103071 45.8037952,55.7355435 C46.1299663,55.8142415 47.0860402,56.1119604 47.9432744,56.1119604 C48.8002415,56.1119604 49.4859754,55.8550578 50.5144428,55.7696904 C51.5429101,55.6837895 56.2572976,56.4542303 56.2572976,56.4542303 L57.3717822,56.6254987 C57.3717822,56.6254987 56.7717984,57.1390369 55.4858135,57.9094778 C54.2003629,58.6799186 51.8001606,61.0766085 49.8287089,61.3332442 C47.8572572,61.5901468 45.2401417,61.6467027 43.4003872,60.8197059 C41.6859188,60.0495319 38.3429992,56.796767 38.3429992,56.796767 L38.0002658,56.4542303 Z"/>
        <path fill="#DA867F" d="M42.5430996,59.1933235 C42.5430996,59.1933235 43.6573171,60.648571 45.8860192,60.8198393 C48.1144541,60.9908409 49.4001719,60.9054735 50.8573899,60.4773026 C52.3143408,60.0493985 55.314527,57.6527086 55.0572766,57.4814403 C54.8002933,57.3101719 53.257058,56.4540969 52.3143408,56.2830953 C51.3716236,56.111827 48.6286878,56.0264596 47.943221,56.4540969 C47.2572199,56.8822678 46.9144865,57.7383428 45.8860192,58.3375153 C44.8572847,58.9366877 42.2858492,58.3375153 42.5430996,59.1933235"/>
        <path fill="#71353A" d="M40.5817455,56.6203766 C41.6633726,56.7745715 43.7491579,57.1605922 44.1354342,57.2376897 C44.5214433,57.3147871 45.3714649,57.468982 45.3714649,57.468982 C45.3714649,57.468982 46.2984212,57.3918845 47.2253775,57.468982 C48.1523338,57.5460794 49.8518427,57.3918845 50.0837153,57.3918845 C50.3153208,57.3918845 51.5513516,57.3147871 52.941786,57.0834948 C54.3322205,56.8516689 55.3793872,56.1076386 55.997269,56.2618335 C56.615418,56.4162952 57.6540364,56.0033303 57.8084401,56.3119869 C57.9628438,56.6203766 57.6540364,56.7745715 57.6540364,56.7745715 C57.6540364,56.7745715 55.7145171,56.9057975 55.1738371,56.9828949 C54.63289,57.0599924 52.4023179,57.4321409 51.517836,57.653029 C50.7353994,57.8485737 48.144196,57.9088645 47.3719105,58.0630594 C46.5990907,58.2172542 45.7493363,58.1401568 44.9770508,57.9859619 C44.2044982,57.831767 43.1228711,57.5231105 41.037353,57.2147208 C38.9515678,56.9057975 38.1874201,56.9287664 37.7236749,57.0061306 C37.2601967,57.0834948 37.4920693,56.3890843 37.4920693,56.3890843 C37.4920693,56.3890843 39.5006527,56.4661817 40.5817455,56.6203766 Z"/>
        <path fill="#FEFEFE" fill-opacity=".1" d="M43.6815461 36.4472854C43.4381867 37.8238347 42.9923394 40.455285 42.3840745 41.6701699 41.7760766 42.884788 41.2490205 43.5727959 40.1949083 44.018307 39.140796 44.4635514 35.6950297 44.7065817 33.9111063 44.6660322 32.1271829 44.6254827 30.1813761 44.4230019 29.24881 43.7752767 28.3162439 43.1275515 27.4648867 41.6701699 27.0999811 39.9292084 26.7350756 38.1879801 26.3298327 36.4472854 26.4110416 35.2326673 26.4919833 34.0183159 27.0190394 33.3297745 27.5460955 33.1275604 28.4805316 32.7684838 30.8705828 32.1959886 32.9379358 32.1557059 35.0055559 32.1154231 38.8164949 32.1557059 40.6816271 32.4795685 42.546225 32.8036978 43.2354317 33.3297745 43.4381867 33.8966674 43.6409417 34.4632935 43.9246384 35.070736 43.6815461 36.4472854M69.141242 37.3379875C68.7766036 39.4433611 68.4520353 41.2654217 67.5603408 42.2367426 66.6683791 43.2085972 66.1819274 43.6943911 64.8441185 43.9371546 63.5060424 44.1799182 61.8033278 44.4232153 59.8169166 44.3826658 57.8302383 44.3421163 55.843827 44.3826658 54.6275642 43.8968719 53.4113014 43.411078 51.8710046 41.7914983 51.2221352 39.9694377 50.5732658 38.147644 50.1274185 35.6375755 50.2086274 34.4635069 50.2898362 33.2891716 51.4248902 32.4795151 52.438398 32.1556525 54.1055836 31.6229066 56.249337 31.3057133 58.4791077 31.1843315 60.7088783 31.062683 64.5195502 30.9007517 66.4656241 31.3862788 68.4116981 31.8723395 68.5738486 32.1556525 68.8169409 32.7225454 69.0603003 33.2891716 69.5061476 35.2326139 69.141242 37.3379875"/>
        <path fill="#C69277" d="M44.4466991 32.8520905C44.4466991 32.8520905 42.8438929 30.5178255 41.6417882 29.8508927 40.4396835 29.1839598 34.8418826 28.1822267 34.8418826 28.5156931 34.8418826 28.8491595 39.0211999 29.7935365 38.3026085 31.5182248 37.9109895 32.4580666 37.1672874 32.9854771 36.4326678 33.1188636 35.6980483 33.2522502 33.5510893 34.2665217 33.0168206 34.5332948 32.4825518 34.8000679 32.4176382 36.5847802 32.7515561 36.8515534 33.0854741 37.1183265 37.1026409 37.9882737 35.8919879 38.8771618 34.456942 39.9303822 37.9550666 39.7198982 41.5750046 38.4543264 42.6520904 38.0779095 43.4989064 41.5032766 43.56569 41.7700497 43.6324736 42.0368229 44.8124061 38.5687721 44.8124061 38.5687721L44.4466991 32.8520905zM50.7911406 37.3205405C50.7911406 37.3205405 50.4948886 36.2643857 51.6801638 34.0837821 52.8723845 31.8906401 54.891119 30.3494917 55.6925221 29.8826387 56.4939253 29.4157857 58.2041195 29.1839598 58.8051719 29.0505733 59.4062242 28.9171867 61.2761649 29.1172665 61.0090305 29.1839598 60.7418961 29.2506531 59.1796943 30.2849326 58.7146133 30.8998447 57.2285448 32.864362 58.4936932 34.6536095 58.4936932 34.6536095 58.4936932 34.6536095 56.2609841 36.1470055 56.2609841 37.0900486 56.2609841 39.1738135 60.2679997 39.1164573 60.2679997 39.1164573 60.2679997 39.1164573 57.4510677 39.4768678 55.7814779 39.2100947 54.111888 38.9433215 51.6593273 40.1216585 50.7911406 37.3205405"/>
        <path fill="#948D8B" d="M32.5112153 36.5301184C32.8250982 36.3508469 35.5148743 34.8286393 36.7252601 34.6944525 37.9359131 34.5599988 39.1858349 34.9188087 39.6816363 35.1423646 40.1771705 35.3659204 41.2534549 36.5301184 41.2534549 36.5301184 41.2534549 36.5301184 40.0876805 37.0225816 39.2360561 37.2464043 38.3838975 37.470227 37.5322731 37.8282365 36.4565229 37.6940496 35.3802385 37.559596 33.7216012 37.1570353 33.7216012 37.1570353L32.5112153 36.5301184zM54.1068392 36.4436306C54.1068392 36.4436306 56.2270847 34.828586 57.0789763 34.6495812 57.9306006 34.4705764 58.603245 34.2467538 60.0377566 34.739217 61.4722682 35.2316802 63.5794242 36.3059756 63.5794242 36.3059756 63.5794242 36.3059756 62.197538 36.7530874 61.2072709 36.9326257 60.2172709 37.112164 58.53753 37.7606895 57.2317771 37.1308382 55.3896185 36.2427504 54.1068392 36.4436306 54.1068392 36.4436306"/>
        <path fill="#CBC0BB" d="M33.2734833 36.9308117C33.4284212 36.8793245 35.485623 36.3617846 36.8808659 36.3102974 38.2761087 36.2585434 40.5080165 36.20839 40.5080165 36.20839L40.7770208 36.5455913C40.7770208 36.5455913 39.5778546 37.3952637 37.8727358 37.5499921 36.16735 37.7047205 34.3585831 37.3952637 34.1518211 37.3437765 33.9453262 37.2920225 33.2734833 36.9308117 33.2734833 36.9308117M55.2249301 36.4149791C55.2249301 36.4149791 57.5214843 35.8251437 58.8133462 35.7219025 60.1054752 35.6189281 62.5214385 36.4147124 62.5214385 36.4147124 62.5214385 36.4147124 60.8678767 37.3953704 58.955996 37.3436164 57.0441152 37.2921292 55.2249301 36.4149791 55.2249301 36.4149791"/>
        <path fill="#301507" d="M39.1400213,35.2493939 C39.5348459,36.2473922 39.0446543,37.3761094 38.0450375,37.7698665 C37.0456878,38.1641572 35.9157094,37.6746285 35.5211519,36.6766302 C35.1265944,35.6786319 35.616786,34.5501815 36.6158686,34.1558908 C37.6152183,33.7621337 38.7451967,34.2516624 39.1400213,35.2493939"/>
        <path stroke="#1D0500" stroke-width=".5" d="M39.1400213,35.2493939 C39.5348459,36.2473922 39.0446543,37.3761094 38.0450375,37.7698665 C37.0456878,38.1641572 35.9157094,37.6746285 35.5211519,36.6766302 C35.1265944,35.6786319 35.616786,34.5501815 36.6158686,34.1558908 C37.6152183,33.7621337 38.7451967,34.2516624 39.1400213,35.2493939 Z"/>
        <path fill="#1D0500" d="M39.3132312,35.6956787 C39.3132312,35.6956787 38.3718497,35.4433113 37.3433824,35.54015 C36.3937196,35.629519 35.3380046,36.0552889 35.3609781,36.1561292 C35.2338222,35.0666277 36.0151902,34.0798338 37.1067013,33.9531166 C38.1979452,33.8258658 39.1858081,34.6061772 39.3132312,35.6956787"/>
        <path fill="#000" d="M38.0748764,35.6693482 C38.237027,36.0799121 38.0356077,36.5440973 37.6244879,36.7065622 C37.2133681,36.8684935 36.7485542,36.6670797 36.5861365,36.2565159 C36.4237188,35.845952 36.6254053,35.3817668 37.0365251,35.2195687 C37.4476449,35.0576374 37.9127258,35.2590511 38.0748764,35.6693482"/>
        <path fill="#301507" d="M60.6229412,34.9307868 C61.0174987,35.9285183 60.5273071,37.0572355 59.5279574,37.4512594 C58.5286077,37.8452833 57.3986292,37.3557546 57.0038046,36.3580231 C56.6092472,35.359758 57.0994387,34.2313076 58.0987885,33.8372837 C59.0981382,33.4432598 60.2281166,33.9327885 60.6229412,34.9307868"/>
        <path stroke="#1D0500" stroke-width=".5" d="M60.6229412,34.9307868 C61.0174987,35.9285183 60.5273071,37.0572355 59.5279574,37.4512594 C58.5286077,37.8452833 57.3986292,37.3557546 57.0038046,36.3580231 C56.6092472,35.359758 57.0994387,34.2313076 58.0987885,33.8372837 C59.0981382,33.4432598 60.2281166,33.9327885 60.6229412,34.9307868 Z"/>
        <path fill="#1D0500" d="M60.7961511,35.3770449 C60.7961511,35.3770449 59.8547696,35.1244107 58.8260351,35.2212494 C57.8763724,35.3108851 56.8209244,35.7366551 56.843898,35.8374953 C56.716742,34.747727 57.4981101,33.7612 58.589354,33.634216 C59.6808651,33.5069652 60.668728,34.2872766 60.7961511,35.3770449"/>
        <path fill="#000" d="M59.5577963,35.350741 C59.7199468,35.7613049 59.5185275,36.2254902 59.1071406,36.3876882 C58.6960208,36.5496195 58.231207,36.3482058 58.0690564,35.937642 C57.9066387,35.5273449 58.1083251,35.0631596 58.519445,34.9006948 C58.9302976,34.7387635 59.3953786,34.9401772 59.5577963,35.350741"/>
        <path fill="#573A2D" d="M32.0484317,35.9132055 C31.9041792,36.1271576 32.2076438,34.7407376 33.6012839,33.9550907 C34.995191,33.1694438 36.7660248,32.8738592 37.6985909,32.8381116 C39.6582887,32.762348 41.0383049,34.1071514 41.0383049,34.1071514 C41.0383049,34.1071514 39.1106632,33.1505029 37.5057199,33.2772202 C36.2192008,33.3785939 35.7185909,33.3668559 34.3925359,34.0778063 C33.0670151,34.78849 32.448599,35.3204356 32.0484317,35.9132055"/>
        <path fill="#554038" d="M52.2293386 30.8270689C52.2293386 30.4695929 52.3725227 29.8264029 53.6609118 29.2544413 54.949568 28.6827465 57.4547542 28.1822801 59.6733052 28.3967657 61.8923904 28.6112513 63.7535157 29.1114509 64.6120855 29.4689269 65.4711897 29.8264029 66.7598459 30.6843453 66.7598459 30.6843453 66.7598459 30.6843453 65.3280057 30.3268693 64.3259846 29.9693933 63.3239636 29.6119173 60.8187774 29.1832129 59.3872043 29.3259365 57.9556311 29.4689269 56.380874 30.0408885 55.736813 30.3983645 55.0924849 30.7555737 53.9472798 31.3990306 53.3032188 31.3990306 52.6588907 31.3990306 52.2293386 30.8270689 52.2293386 30.8270689M42.1369217 30.0408085C42.1369217 30.0408085 40.4189806 28.897152 39.2737755 28.539676 38.1285704 28.1822 36.4106292 28.1109716 34.8361392 28.253962 33.2613821 28.3966856 31.7582169 28.897152 31.1138888 29.3976184 30.4698278 29.8978181 28.4655186 32.1139025 28.4655186 32.1139025L29.3962148 32.0424073C29.3962148 32.0424073 30.7559288 30.4695129 32.187769 29.8263229 33.619075 29.1831328 35.8381603 28.9683805 36.7685893 29.1831328 37.6992855 29.3976184 38.9876746 30.3982845 39.8465116 30.6127701 40.7056158 30.8269889 42.2801058 30.8269889 42.1369217 30.0408085"/>
        <path fill="#E9B8A0" d="M56.7565183 34.9591714C56.7565183 34.9591714 57.793534 34.2991747 58.8038362 34.4629734 59.8144056 34.6265053 61.1799965 35.1176347 61.1799965 35.1176347 61.1799965 35.1176347 61.2620067 34.1356428 60.4696862 33.6175693 59.6778999 33.0992291 58.8954633 33.0552116 58.1579053 33.1917994 57.4206144 33.3281205 56.8385286 34.3591986 56.7565183 34.9591714M57.0014806 37.0962377C57.0014806 37.0962377 57.3565022 37.3688798 58.5580726 37.341669 59.759643 37.3141913 61.2072442 36.9327058 61.2072442 36.9327058 61.2072442 36.9327058 60.7702124 38.1873398 59.1588578 38.1598622 57.5475032 38.1326513 57.4385124 37.6417888 57.0014806 37.0962377"/>
        <path fill="#573A2D" d="M55.2805208,34.3946261 C55.2805208,34.3946261 57.4282812,32.9817956 59.0885213,32.9855304 C60.7223152,32.9892652 62.6000027,33.6908786 63.387782,34.4058306 C64.175027,35.1205158 64.683918,35.9819263 64.683918,35.9819263 C64.683918,35.9819263 62.7130005,34.31246 61.5677955,33.8834888 C60.4225904,33.4547844 59.4609066,33.3608802 58.0659309,33.5406853 C57.1429817,33.6593994 55.2805208,34.3946261 55.2805208,34.3946261"/>
        <path fill="#34231C" d="M61.2132814,37.1668259 C61.6708826,37.0611837 63.017507,36.5865943 63.017507,36.5865943 C63.017507,36.5865943 62.6777121,36.043711 62.4060364,36.2475256 C62.1340936,36.4508068 60.7556802,37.0963978 60.1225718,37.1668259 C59.4891962,37.237254 60.7556802,37.2722013 61.2132814,37.1668259"/>
        <path fill="#755042" d="M55.2356422,35.5448185 C55.2356422,35.5448185 54.0904371,36.2597705 53.8043362,36.4027609 C53.517701,36.5454845 53.8756611,36.9029606 53.8756611,36.9029606 L54.7347652,36.7602369 C54.7347652,36.7602369 55.3075013,36.5454845 55.8799703,36.7602369 C56.4527064,36.9744558 57.8124204,37.3319318 57.8124204,37.3319318 C57.8124204,37.3319318 56.8819914,36.9744558 56.3095224,36.6172465 C55.7367863,36.2597705 54.6514193,36.5868344 54.5079682,36.4150325 C54.3647841,36.2432306 55.2356422,35.5448185 55.2356422,35.5448185"/>
        <path fill="#C38D71" d="M34.2496724 35.5242503C34.2496724 35.5242503 35.6515936 34.4304804 36.9218176 34.5182488 38.1923087 34.6057504 39.6815828 35.2182615 39.6815828 35.2182615 39.6815828 35.2182615 39.9444431 33.5557313 38.0608786 33.4244789 36.1773141 33.2932265 34.863013 34.299228 34.863013 34.299228L34.2496724 35.5242503zM34.7468896 37.3999856C34.7468896 37.3999856 35.5202437 37.5248354 36.8342777 37.612337 38.1483117 37.6995718 39.4188028 37.1745623 39.4188028 37.1745623 39.4188028 37.1745623 39.725473 38.5308369 37.7980985 38.4870861 35.8704568 38.4433353 34.7468896 37.3999856 34.7468896 37.3999856"/>
        <path fill="#34231C" d="M34.8223017,37.5534335 C33.5908122,37.2020933 33.025823,36.6658793 33.025823,36.6658793 L32.2580788,37.2103632 C32.2580788,37.2103632 36.0537911,37.9045069 34.8223017,37.5534335"/>
        <path fill="#755042" d="M40.4936713,35.7058428 L41.70753,36.5453778 C41.70753,36.5453778 41.993898,36.9746158 41.70753,36.9746158 L40.5623249,36.9746158 L38.8443837,37.3320918 L40.7771009,36.5453778 L40.4936713,35.7058428 Z"/>
        <path fill="#FEFEFE" d="M38.2809439 35.581116C38.2809439 35.7233061 38.1650076 35.8390856 38.0226249 35.8390856 37.8799752 35.8390856 37.764306 35.7233061 37.764306 35.581116 37.764306 35.4386591 37.8799752 35.3231464 38.0226249 35.3231464 38.1650076 35.3231464 38.2809439 35.4386591 38.2809439 35.581116M59.8134439 35.0457987C59.8134439 35.1879888 59.6977747 35.3035016 59.5551249 35.3035016 59.4124752 35.3035016 59.296806 35.1879888 59.296806 35.0457987 59.296806 34.9033418 59.4124752 34.7878291 59.5551249 34.7878291 59.6977747 34.7878291 59.8134439 34.9033418 59.8134439 35.0457987"/>
        <path fill="#34231C" d="M54.7960726 35.8269845C54.7960726 35.8269845 56.0184795 34.9426315 56.7659215 34.7390836 57.5133635 34.5352689 58.464629 34.3549303 59.212071 34.4907178 59.959513 34.6265053 60.9788977 34.6710564 61.6582205 35.0781523 62.3378103 35.4855148 62.7457245 35.6213024 63.1533716 35.8926106 63.5612858 36.1641857 64.6485227 36.435494 64.6485227 36.435494 64.6485227 36.435494 63.1995858 36.7572224 62.5215988 36.4146857 61.887956 36.0945579 61.0240434 35.6591842 60.2087493 35.2520883 59.3931881 34.8447258 59.0760996 34.5352689 57.7174541 34.8748711 56.3582744 35.2139398 55.4075432 35.8950116 54.7960726 35.8269845M32.1003359 36.6465649L32.1003359 36.2816192C32.1003359 36.2816192 32.9818794 36.1479659 33.2348556 36.0108445 33.8222841 35.6931177 34.4110483 35.3695219 34.5697261 35.2508078 34.8929587 35.0085778 35.1910807 34.8626529 36.3226619 34.6204229 37.4537089 34.3784597 38.5209107 34.6484341 38.8441433 34.8095651 39.1673759 34.9712296 40.4234417 35.425811 40.4936981 35.7059228 40.5639544 35.9857678 39.7272895 35.558664 38.67665 35.3167008 37.6262777 35.074204 36.6082285 34.9298797 35.557589 35.4949053 34.5072167 36.0599308 33.59148 36.6657726 32.9450148 36.9885681 32.2985496 37.3113636 31.9787898 37.1803779 31.3288519 37.2305313 30.6791811 37.2809514 32.1003359 36.6465649 32.1003359 36.6465649"/>
        <path fill="#FEFEFE" d="M27.5460154,33.1274537 C27.5460154,33.1274537 26.6457725,33.7375639 26.7034736,34.9471133 C26.7611746,36.1563959 26.9340105,37.9419085 27.1645475,39.093835 C27.3956187,40.2457614 28.4911368,43.1829336 28.4911368,43.1829336 C28.4911368,43.1829336 27.0494126,40.8793476 26.7611746,38.4602487 C26.4726695,36.0414167 26.1267304,35.1199823 26.4152356,34.2559041 C26.7034736,33.3920927 27.5460154,33.1274537 27.5460154,33.1274537"/>
        <path fill="#1A191B" d="M69.141242,37.3379875 C68.7766036,39.4433611 68.4520353,41.2654217 67.5603408,42.2367426 C66.6683791,43.2085972 66.1819274,43.6943911 64.8441185,43.9371546 C63.5060424,44.1799182 61.8033278,44.4232153 59.8169166,44.3826658 C57.8302383,44.3421163 55.843827,44.3826658 54.6275642,43.8968719 C53.4113014,43.411078 51.8710046,41.7914983 51.2221352,39.9694377 C50.5732658,38.147644 50.1274185,35.6375755 50.2086274,34.4635069 C50.2898362,33.2891716 51.4248902,32.4795151 52.438398,32.1556525 C54.1055836,31.6229066 56.249337,31.3057133 58.4791077,31.1843315 C60.7088783,31.062683 64.5195502,30.9007517 66.4656241,31.3862788 C68.4116981,31.8723395 68.5738486,32.1556525 68.8169409,32.7225454 C69.0603003,33.2891716 69.5061476,35.2326139 69.141242,37.3379875 M43.681466,36.447232 C43.4381066,37.8237814 42.9922593,40.4554984 42.3839943,41.6701165 C41.7762636,42.8847346 41.2489404,43.5727425 40.1950953,44.0182537 C39.1407159,44.463498 35.6949495,44.7065284 33.9110262,44.6659788 C32.1271028,44.6254293 30.181296,44.4232153 29.2487299,43.7752233 C28.3164309,43.1274982 27.4648065,41.6701165 27.099901,39.929155 C26.7352625,38.1881935 26.3297526,36.447232 26.4109614,35.2326139 C26.4921703,34.0182626 27.0189593,33.3299879 27.5460154,33.1275071 C28.4804514,32.7684304 30.8705027,32.196202 32.9381228,32.1556525 C35.0057428,32.1153698 38.8164147,32.1556525 40.681547,32.4795151 C42.5461449,32.8036445 43.2353516,33.3299879 43.4381066,33.8968808 C43.6408616,34.4635069 43.9248254,35.0706826 43.681466,36.447232 M71.6549765,31.264897 C71.4116171,31.0221335 70.2765631,30.9815839 68.7357321,30.8602022 C67.1954352,30.7388204 63.3441589,30.5766223 60.6276695,30.5363396 C57.9114471,30.4960568 55.7626182,30.9815839 54.0601708,31.2246143 C52.3571892,31.4673778 49.8437218,32.3581333 48.1004029,32.5200646 C46.3570839,32.6822627 45.9515739,32.6417132 44.9786705,32.5606142 C44.0057671,32.4795151 42.3839943,31.9531717 40.9246392,31.7104082 C39.4652841,31.4673778 38.4111719,31.4270951 35.4109857,31.3862788 C32.4110666,31.3459961 30.5055971,31.7104082 28.0730715,32.0342708 C25.6405459,32.3581333 24.5460963,32.6822627 24.5460963,32.6822627 C24.5460963,32.6822627 24.4242831,33.046408 24.4242831,33.4513697 C24.4242831,33.8560645 24.5867008,35.9614381 24.5867008,35.9614381 C25.1137569,35.9614381 25.4783953,36.1639189 25.7217547,36.4877815 C25.964847,36.8116441 26.6540537,40.1316358 27.0189593,41.1840558 C27.3838648,42.2367426 27.8299792,43.2488799 28.9244288,44.0585364 C30.0191454,44.8684597 31.2354083,44.9898414 32.6541589,45.0709405 C34.0731767,45.1517727 36.5869112,45.0709405 37.8838486,44.9495587 C39.1815874,44.8279101 40.1542237,44.5040475 40.9246392,44.0585364 C41.6950548,43.613292 42.1409021,42.9250173 42.7085626,41.6701165 C43.2762232,40.4149489 44.0463716,37.7023996 44.2085221,36.8927431 C44.3706727,36.0830867 44.6140321,34.3824079 44.9380661,34.2204766 C45.2623672,34.0585453 46.1952005,33.815515 46.8435356,33.815515 C47.492405,33.815515 48.424704,33.9371635 48.8708184,34.0585453 C49.3166657,34.1801939 49.2763284,34.5037897 49.4382118,34.8279191 C49.6006295,35.1517816 50.4517196,38.7145369 50.9787758,40.1316358 C51.5058319,41.548468 52.3977936,42.8847346 53.4925103,43.6943911 C54.5872269,44.5040475 56.0871865,44.6254293 58.1951438,44.7468111 C60.3033683,44.8684597 62.4519301,44.6662456 64.0330985,44.463498 C65.6142669,44.261284 66.3034736,43.9371546 67.1142264,43.411078 C67.9249792,42.8847346 68.2898848,42.1153609 68.7766036,40.9412923 C69.2630553,39.7672237 69.9116576,36.3258502 70.0334709,35.678125 C70.155017,35.0303999 70.3981093,34.8682018 70.8036193,34.7871028 C71.2088621,34.7065373 71.492826,34.7871028 71.8171271,34.8682018 C72.1411611,34.9493008 72.6684843,35.678125 72.7496932,35.5564765 C72.8306349,35.4350947 71.8980688,31.5079273 71.6549765,31.264897"/>
        <path fill="#755042" d="M61.0111141,37.2512329 C61.0111141,37.2512329 59.7422258,37.4665188 58.9520424,37.4902616 C58.1618589,37.5142712 57.2763084,37.2992521 56.7735615,37.1079757 C56.2705475,36.9164326 56.2945896,36.7731754 56.2945896,36.7731754 C56.2945896,36.7731754 57.4197596,37.2272233 58.4733376,37.2992521 C59.5266484,37.3707473 60.412466,37.1557281 60.412466,37.1557281 L61.0111141,37.2512329 Z"/>
      </g>
    </g>
  </g>
</svg>
