<svg xmlns="http://www.w3.org/2000/svg" width="56" height="56" viewBox="0 0 56 56">
  <path fill="#FFFFFF" fill-rule="evenodd" d="M40.5554688,38.4140625 L35.2289063,38.4140625 L35.2289063,29.5373461 C35.2289063,27.5611914 34.6416527,26.5811039 32.806652,26.5811039 C29.8251086,26.5811039 29.9023438,29.5373461 29.9023438,29.5373461 L29.9023438,38.4140625 L24.5757813,38.4140625 L24.5757813,22.434375 L29.9023438,22.434375 L29.9023438,25.0976562 C29.9023438,25.0976562 30.894416,22.434375 35.2289063,22.434375 C38.5659977,22.434375 40.5554688,25.0190895 40.5554688,29.5373461 L40.5554688,38.4140625 Z M18.2980469,21.2929688 C16.7214795,21.2929688 15.4445313,20.0145938 15.4445313,18.4394531 C15.4445313,16.8643125 16.7214795,15.5859375 18.2980469,15.5859375 C19.8731875,15.5859375 21.1515625,16.8643125 21.1515625,18.4394531 C21.1515625,20.0145938 19.8731875,21.2929688 18.2980469,21.2929688 L18.2980469,21.2929688 Z M21.1515625,38.4140625 L15.4445313,38.4140625 L15.4445313,22.434375 L21.1515625,22.434375 L21.1515625,38.4140625 Z M28,0 C12.536,0 0,12.536 0,28 C0,43.464 12.536,56 28,56 C43.464,56 56,43.464 56,28 C56,12.536 43.464,0 28,0 L28,0 Z"/>
</svg>
