<svg xmlns="http://www.w3.org/2000/svg" width="335" height="423" viewBox="0 0 335 423">
  <g fill="none" fill-rule="evenodd">
    <g transform="translate(156)">
      <polygon fill="#207BA4" points="178.573 113.125 129.37 84.017 3.902 155.387 54.269 184.623"/>
      <polyline fill="#2C2E33" points="49.522 166.901 172.853 95.051 123.725 66.138 .406 137.723 49.522 166.901"/>
      <polyline fill="#EC6D54" points="170.316 86.871 170.316 27.736 123.112 .219 40.505 48.374 40.505 108.89 87.782 141.205"/>
      <polygon fill="#2C2E33" points="49.505 174.996 49.505 166.895 172.853 95.051 172.853 103.153"/>
      <path fill="#2C2E33" d="M158.893805,105.825283 L151.251939,101.339193 C149.412585,100.2857 146.872865,100.472143 144.068418,102.147715 C138.453546,105.502478 133.901772,113.556927 133.901772,120.137934 C133.901772,123.283327 134.943355,125.520037 136.642876,126.63447 L136.613594,126.68455 L144.389916,131.185122 L158.893805,105.825283"/>
      <path fill="#5B5E67" d="M161.69646,112.394827 C161.69646,118.975231 157.144685,127.02968 151.529814,130.385047 C145.914943,133.73981 141.363168,131.124784 141.363168,124.543776 C141.363168,117.963372 145.914943,109.908923 151.529814,106.553557 C157.144685,103.198793 161.69646,105.813819 161.69646,112.394827"/>
      <path fill="#868C96" d="M156.916409,115.251203 C156.916409,118.737502 154.504572,123.004568 151.529814,124.782109 C148.555056,126.559651 146.143219,125.174303 146.143219,121.687401 C146.143219,118.201102 148.555056,113.934036 151.529814,112.156494 C154.504572,110.378952 156.916409,111.764301 156.916409,115.251203"/>
      <path fill="#2C2E33" d="M80.6644738,151.500144 L73.0226078,147.014053 C71.1832534,145.960561 68.6435341,146.1464 65.8390863,147.822575 C60.2242151,151.177339 55.6724405,159.231787 55.6724405,165.812795 C55.6724405,168.958187 56.7140242,171.194897 58.4135446,172.30933 L58.3842631,172.35941 L66.1605849,176.859379 L80.6644738,151.500144"/>
      <path fill="#5B5E67" d="M83.4671288,158.069084 C83.4671288,164.650092 78.9153542,172.704541 73.3004829,176.059304 C67.6856117,179.414067 63.1338371,176.799041 63.1338371,170.218637 C63.1338371,163.637629 67.6856117,155.583181 73.3004829,152.228417 C78.9153542,148.873654 83.4671288,151.48868 83.4671288,158.069084"/>
      <path fill="#5B5E67" d="M83.4671288,158.069084 C83.4671288,164.650092 78.9153542,172.704541 73.3004829,176.059304 C67.6856117,179.414067 63.1338371,176.799041 63.1338371,170.218637 C63.1338371,163.637629 67.6856117,155.583181 73.3004829,152.228417 C78.9153542,148.873654 83.4671288,151.48868 83.4671288,158.069084"/>
      <path fill="#5B5E67" d="M83.4671288,158.069084 C83.4671288,164.650092 78.9153542,172.704541 73.3004829,176.059304 C67.6856117,179.414067 63.1338371,176.799041 63.1338371,170.218637 C63.1338371,163.637629 67.6856117,155.583181 73.3004829,152.228417 C78.9153542,148.873654 83.4671288,151.48868 83.4671288,158.069084"/>
      <path fill="#868C96" d="M78.6870782,160.92546 C78.6870782,164.411759 76.2752413,168.679428 73.3004829,170.45697 C70.3257246,172.234512 67.9138876,170.84856 67.9138876,167.362261 C67.9138876,163.875962 70.3257246,159.608293 73.3004829,157.830751 C76.2752413,156.053209 78.6870782,157.439161 78.6870782,160.92546"/>
      <polyline fill="#C74C39" points="87.709 144.685 40.505 117.168 40.505 48.374 87.709 75.892 87.709 144.685"/>
      <path fill="#E85740" d="M87.7087589,75.8918651 L87.7087589,144.685027 L138.544379,115.050882 C141.324923,109.748426 145.363973,105.042706 149.861368,102.355879 C154.493218,99.5875959 158.638638,99.5447563 161.423963,101.713285 L170.315969,96.529693 L170.315969,27.7359277 L87.7087589,75.8918651"/>
      <polyline fill="#ECF0F3" points="36.458 64.333 83.663 91.85 52.303 124.151 5.099 96.633 36.458 64.333"/>
      <path fill="#B8BEC6" d="M52.3062666,165.323458 L5.10214674,137.805952 L5.09915883,96.6334734 L52.3032787,124.15098 L52.3062666,165.323458 Z M13.2710793,117.458951 L21.9407847,112.443097 L13.2710793,107.427243 L13.2710793,117.458951 Z"/>
      <polygon fill="#2C2E33" points=".406 145.769 .406 137.723 52.301 165.667 49.522 174.947"/>
      <path fill="#B8BEC6" d="M72.1017354,148.480857 C76.1097113,146.08546 79.7113321,145.970215 82.1966716,147.722415 L83.6625378,146.884931 L83.6625378,91.8499189 L52.3086569,124.176925 L52.3086569,165.45258 L62.097034,159.615534 C64.578788,154.963515 68.141566,150.846689 72.1017354,148.480857"/>
      <polyline fill="#FFFFFF" points="14.308 141.211 7.617 137.126 7.617 127.854 14.308 131.941 14.308 141.211"/>
      <polyline fill="#FFFFFF" points="48.92 161.324 42.228 157.238 42.228 147.967 48.92 152.052 48.92 161.324"/>
      <polyline fill="#5B5E67" points="56.247 147.409 75.825 135.345 75.825 116.332 56.247 128.396 56.247 147.409"/>
      <polyline fill="#868C96" points="40.298 155.983 16.487 141.84 16.332 133.512 40.143 147.654 40.298 155.983"/>
      <path fill="#5B5E67" d="M49.3249349,145.139971 L7.61676767,120.469187 L7.61676767,103.97051 L49.3249349,128.640691 L49.3249349,145.139971 Z M13.2710793,117.458951 L21.9407847,112.443097 L13.2710793,107.427243 L13.2710793,117.458951 Z"/>
      <path fill="#B8BEC6" d="M58.2229163,142.698114 L58.2229163,142.698114 C56.7941,142.234722 55.624634,140.848771 55.624634,139.619093 L55.624634,130.803185 C55.624634,129.573508 56.7941,128.946602 58.2229163,129.410597 C59.6517325,129.873988 60.8211985,131.259337 60.8211985,132.489618 L60.8211985,141.305525 C60.8211985,142.535203 59.6517325,143.162109 58.2229163,142.698114"/>
      <polyline fill="#F29100" points="51.606 162.963 49.015 161.41 49.015 152.041 51.606 153.593 51.606 162.963"/>
      <polyline fill="#F29100" points="7.575 137.229 4.984 135.677 4.984 126.307 7.575 127.859 7.575 137.229"/>
      <path fill="#BD1622" d="M107.159423,92.5932765 L107.227548,81.6685744 L109.700338,80.2126312 C110.537549,79.7190707 111.28333,79.3944552 111.936486,79.2387845 C112.59024,79.0813037 113.140612,79.1000083 113.587602,79.2936916 C114.033996,79.4879782 114.374019,79.8560368 114.605881,80.3996774 C114.837742,80.9427146 114.950685,81.663144 114.945307,82.5573453 C114.939928,83.4527533 114.816827,84.3119589 114.576001,85.1325485 C114.335774,85.9543448 113.988579,86.7272678 113.536211,87.450714 C113.083842,88.1741603 112.529287,88.8463197 111.872545,89.4665889 C111.215803,90.0874614 110.469425,90.6443763 109.631616,91.1373334 L107.159423,92.5932765 L107.159423,92.5932765 Z M110.025422,87.804895 C110.693518,87.4114947 111.21162,86.9131072 111.57973,86.3109392 C111.947243,85.7075645 112.133688,85.0076499 112.138469,84.2105919 C112.143847,83.413534 111.963975,82.9314376 111.602438,82.7643028 C111.238512,82.597168 110.723397,82.7112058 110.054704,83.1046061 L110.025422,87.804895 L110.025422,87.804895 Z"/>
      <polyline fill="#BD1622" points="116.516 76.198 121.768 73.105 121.751 75.971 119.345 77.388 119.338 78.6 121.703 77.207 121.685 79.927 119.32 81.319 119.312 82.58 121.812 81.108 121.794 83.975 116.448 87.123 116.516 76.198"/>
      <polyline fill="#BD1622" points="123.466 72.106 126.432 70.358 126.382 78.417 128.84 76.969 128.822 79.836 123.397 83.03 123.466 72.106"/>
      <polyline fill="#BD1622" points="130.161 68.162 133.181 66.384 133.112 77.309 130.092 79.087 130.161 68.162"/>
      <polyline fill="#BD1622" points="137.297 63.96 138.777 67.82 140.331 62.173 143.445 60.339 139.901 73.311 137.589 74.672 134.183 65.793 137.297 63.96"/>
      <polyline fill="#BD1622" points="144.447 59.749 149.699 56.655 149.681 59.522 147.276 60.938 147.268 62.151 149.633 60.758 149.616 63.477 147.251 64.87 147.243 66.13 149.742 64.659 149.725 67.525 144.379 70.674 144.447 59.749"/>
      <path fill="#BD1622" d="M151.396554,55.6552814 L154.47051,53.8457607 C155.040603,53.509681 155.567669,53.2918627 156.052307,53.1917025 C156.536945,53.0915423 156.95585,53.1156773 157.310215,53.266521 C157.663983,53.4173646 157.939468,53.6973305 158.13667,54.1094354 C158.333872,54.5215403 158.430082,55.0712147 158.425899,55.7590618 C158.422314,56.3045125 158.357177,56.8059169 158.23049,57.2614648 C158.103205,57.7170127 157.962774,58.1146366 157.809793,58.4549399 C157.629921,58.8441166 157.428536,59.2019178 157.203846,59.5295503 L158.851974,62.1494032 L155.511496,64.117008 L154.192038,62.1361289 L154.175305,64.904412 L151.328429,66.5805869 L151.396554,55.6552814 L151.396554,55.6552814 Z M154.209965,59.3515547 L154.35697,59.2652721 C154.695201,59.0661585 154.982637,58.8036905 155.219877,58.4784715 C155.456519,58.1544593 155.57723,57.7743333 155.579621,57.3368866 C155.582609,56.9006467 155.46608,56.6586935 155.231829,56.6122336 C154.996382,56.5657738 154.71014,56.6424024 154.371909,56.841516 L154.224905,56.9277986 L154.209965,59.3515547 L154.209965,59.3515547 Z"/>
      <polyline fill="#BD1622" points="161.38 55.977 158.654 51.382 161.821 49.517 162.835 51.22 163.865 48.313 167.033 46.447 164.227 54.301 164.198 59.001 161.351 60.678 161.38 55.977"/>
      <path fill="#FFFFFF" d="M112.765331,80.5981877 L112.764733,80.5975843 C112.00222,80.2168549 110.94749,80.4340698 109.541381,81.2618998 L108.258375,82.0179283 L108.201605,91.0226922 L109.790573,90.0874614 C111.129154,89.2988507 112.158786,88.3135398 112.84959,87.1586807 C113.542784,85.9989945 113.898942,84.7162199 113.907906,83.3465594 C113.916272,81.9075107 113.532027,80.9831407 112.765331,80.5981877 L112.765331,80.5981877 Z M109.19837,82.5543284 L109.840172,82.1766159 C110.882353,81.5629838 111.680124,81.3632668 112.209581,81.5822918 C112.706768,81.7880426 112.955362,82.4517547 112.948788,83.555327 C112.941617,84.7367347 112.634461,85.8173787 112.035685,86.7676939 C111.432128,87.7252495 110.576392,88.5349783 109.49238,89.1733488 L109.155942,89.3712557 L109.19837,82.5543284 L109.19837,82.5543284 Z"/>
      <polyline fill="#FFFFFF" points="117.49 85.552 121.11 83.421 121.118 82.326 118.444 83.901 118.462 81.015 121.002 79.519 121.009 78.425 118.469 79.921 118.487 77.085 121.16 75.51 121.167 74.415 117.547 76.548 117.49 85.552"/>
      <polyline fill="#FFFFFF" points="125.443 71.898 124.496 72.454 124.439 81.46 128.38 79.14 128.387 78.045 125.393 79.808 125.443 71.898"/>
      <polyline fill="#FFFFFF" points="131.134 77.517 132.082 76.959 132.138 67.954 131.191 68.511 131.134 77.517"/>
      <polyline fill="#FFFFFF" points="138.705 70.974 136.546 65.359 135.648 65.887 138.461 73.203 139.149 72.797 142.075 62.102 140.962 62.757 138.705 70.974"/>
      <polyline fill="#FFFFFF" points="145.421 69.103 149.041 66.972 149.049 65.877 146.375 67.451 146.393 64.565 148.933 63.07 148.94 61.975 146.4 63.471 146.418 60.635 149.09 59.061 149.097 57.966 145.478 60.098 145.421 69.103"/>
      <path fill="#FFFFFF" d="M157.388498,56.5150903 C157.392084,55.9762767 157.308423,55.5593448 157.132136,55.2383495 C156.946886,54.9028731 156.684548,54.6735908 156.351695,54.5571394 C156.037965,54.4479286 155.671051,54.4418949 155.26111,54.5390382 C154.876865,54.6301478 154.458559,54.8087467 154.017544,55.0688012 L152.427381,56.0052387 L152.370611,65.0100026 L153.317777,64.4524843 L153.333314,61.9629604 L154.282272,61.4042354 C154.553574,61.2443411 154.821888,61.0609152 155.083628,60.8557678 L156.310462,62.6900269 L157.241493,62.1415593 L155.879009,60.1112035 C156.303889,59.6460016 156.653474,59.1307196 156.920592,58.5756149 C157.226554,57.9390546 157.383718,57.2457771 157.388498,56.5150903 L157.388498,56.5150903 Z M153.367376,56.5422422 L154.316334,55.9835172 C155.033432,55.5617583 155.602329,55.4072944 155.964463,55.5394334 C156.286559,55.6576949 156.448503,56.0529053 156.44432,56.7160141 C156.43954,57.4599751 156.220228,58.1665268 155.793555,58.8151546 C155.359711,59.4746432 154.750776,60.0381951 153.983482,60.4901228 L153.340485,60.8690421 L153.367376,56.5422422 L153.367376,56.5422422 Z"/>
      <polyline fill="#FFFFFF" points="164.307 49.009 162.749 53.4 161.222 50.826 160.306 51.365 162.328 54.803 162.301 59.163 163.261 58.597 163.286 54.563 165.527 48.29 164.307 49.009"/>
      <polyline fill="#FFFFFF" points="90.957 106.493 167.06 62.74 167.06 67.592 90.957 112.046 90.957 106.493"/>
    </g>
    <polygon fill="#207BA4" points="318 393.846 221.869 339 172 368.07 268.057 423"/>
    <g transform="translate(172 235)">
      <polygon fill="#2C2E33" points="96.09 110.893 71.404 128.592 70.871 131.893 98.109 113.896 103.582 137.297 105.484 137.297 102.342 112.973 128.331 119.147 127.259 116.914 100.523 108.515 83.83 108.515 83.794 111.422"/>
      <path fill="#2C2E33" d="M60.610339,116.845679 L57.912429,121.767358 L55.2288099,125.750652 C55.2288099,125.750652 55.292098,127.241777 55.5085024,128.297841 C55.7682898,129.562775 60.2617441,131.694263 60.6807725,131.748264 C61.9746056,131.915869 64.7041596,129.637663 64.7041596,129.637663 L74.2984297,117.377532 L74.3816229,113.859864 L73.3174643,112.921989 L60.610339,116.845679 Z"/>
      <path fill="#0C526F" d="M59.735126,103.176698 L59.3038483,109.264989 L59.991851,119.704389 C59.991851,119.704389 66.1180359,124.743748 68.3055581,123.420738 C70.4935907,122.098238 73.9657589,113.757721 73.9657589,113.757721 L74.6726461,108.97461 L59.735126,103.176698 Z"/>
      <path fill="#2C2E33" d="M81.2197478,131.641791 L80.0637194,138.995017 L79.0822436,143.694071 C79.0822436,143.694071 79.7033856,145.051214 80.3025809,145.948334 C81.0201861,147.022229 85.9877907,147.306495 86.396101,147.199003 C87.6577796,146.867359 89.3262374,143.730751 89.3262374,143.730751 L93.5849133,128.765505 L92.3334424,125.475556 L90.9936744,125.007382 L81.2197478,131.641791 Z"/>
      <path fill="#0C526F" d="M84.4205939,116.294467 L82.3494402,122.03736 L82.1662109,126.592243 L81.6134609,132.109455 L84.9692608,133.979601 C84.9692608,133.979601 86.8173751,135.491613 89.2830586,134.811004 C91.7487421,134.130395 92.8516902,133.066689 92.8516902,133.066689 L94.3262006,128.064009 L94.5109609,123.64973 L84.4205939,116.294467 Z"/>
      <polygon fill="#868C96" points="49.774 104.822 .109 133.611 .127 68.917 49.79 40.127"/>
      <polygon fill="#B8BEC6" points="95.875 123.774 95.914 127.827 .109 72.683 .126 68.663"/>
      <polygon fill="#B8BEC6" points="145.348 159.121 95.684 187.91 95.701 123.659 145.365 94.87"/>
      <polygon fill="#2B2E32" points="0 68.845 49.402 39.937 145.347 94.851 95.684 123.643"/>
      <polygon fill="#868C96" points="18.777 68.097 31.348 75.136 42.533 68.244 44.687 66.107 32.511 58.55 19.572 64.169"/>
      <path fill="#5B5E67" d="M22.1463396,65.2081437 C23.1308777,63.9386247 31.0020785,59.6170636 33.6346589,60.4861645 C34.8304975,60.8809788 36.3289961,62.0730633 35.774715,62.1729132 C34.1511713,62.4653305 26.6724587,65.8046954 25.1872302,66.8943829 C24.4390017,67.4435569 21.1618015,66.4776628 22.1463396,65.2081437"/>
      <polygon fill="#7BCAEC" points="26.368 67.472 32.075 70.909 37.486 67.963 31.878 64.525"/>
      <path fill="#B8BEC6" d="M85.5635053,13.6213486 C86.0994125,12.4888683 87.5662671,12.422132 88.283362,13.4455926 C89.0014776,14.470072 89.1494901,16.219991 88.6140933,17.354509 C88.0781861,18.4895365 86.60929,18.5562728 85.8916847,17.5292462 C85.1740794,16.5037478 85.0275981,14.7538289 85.5635053,13.6213486"/>
      <path fill="#2C2E33" d="M130.564092 36.9282311C133.135426 38.0011072 122.261104 80.7322426 122.261104 80.7322426L114.306199 88.6636802 90.1099652 69.2884663C90.1099652 69.2884663 99.5008695 32.2368181 100.80389 30.0151598 101.75219 28.3971852 127.992759 35.855355 130.564092 36.9282311zM102.46903 17.098058C103.231039 15.9268604 104.189037 10.7183681 103.771539 9.85741818 103.353532 8.99697769 103.585758 6.13444654 102.601731 4.83945558 101.617703 3.54395519 101.19255 3.02942298 98.6059044 1.6748278 96.0371226.328893061 90.0808968.977407415 89.4316835 1.46850548 88.7829806 1.95909411 85.3817562 4.13388419 85.3817562 4.13388419 85.3817562 4.13388419 83.4351371 6.84307455 83.631126 8.52472882 83.827115 10.2063831 85.7665886 12.7158738 85.7665886 12.7158738 85.7665886 12.7158738 89.3551253 13.3715203 91.0439986 15.3883847 92.7328719 17.405249 101.345156 21.887283 101.345156 21.887283 101.345156 21.887283 101.707531 18.2692556 102.46903 17.098058z"/>
      <path fill="#D4A989" d="M103.422587,30.5345316 L100.631276,26.7117102 L101.345309,21.887334 L100.670066,16.5769541 C100.670066,16.5769541 103.334943,13.5426022 102.638774,12.1085347 C101.942094,10.6739578 101.041736,9.92835892 100.087203,11.1014546 C99.1326703,12.2745503 99.1577868,13.1810415 98.8556372,13.906481 C98.7004793,14.27888 98.067088,14.1703698 98.067088,14.1703698 L95.8999814,9.67458094 L93.3577397,7.36224264 C93.3577397,7.36224264 89.7048941,8.24357008 89.0561912,8.73466815 C88.4069779,9.22525678 85.5804502,12.5406782 85.5804502,12.5406782 C85.5804502,12.5406782 85.9601787,15.1250563 86.0852238,15.8459108 C86.3291891,17.2473742 88.6989197,22.4711497 88.6989197,22.4711497 L89.9983671,25.1732079 L85.7958339,28.3943833 L92.7769184,37.4027724 L100.087203,34.7465636 L103.422587,30.5345316 Z"/>
      <path fill="#A7876D" d="M98.9541931,20.090292 C98.9541931,20.090292 96.6339701,22.8213882 95.5841024,23.3506941 C94.5342346,23.8805095 92.9163053,25.3925209 90.9921432,24.9386118 C89.8213136,24.6619871 88.6086321,22.2645727 88.6086321,22.2645727 C88.6086321,22.2645727 90.2730068,25.6981836 91.2315151,26.6870025 C92.1900234,27.6758213 94.2642395,27.0813073 95.9357596,26.0807714 C96.8192409,25.551975 98.9541931,20.090292 98.9541931,20.090292"/>
      <path fill="#CBD1D8" d="M64.7492779,91.0569172 L84.2175106,79.8584549 C84.695744,79.582849 84.6314351,79.0988831 84.0735812,78.7835411 L57.4895217,63.502444 C56.9326886,63.1865926 56.084424,63.1539885 55.6061907,63.4295944 L36.137958,74.6275473 C35.6597246,74.9031531 35.7240334,75.3871191 36.2813769,75.7024611 L62.8659469,90.9840676 C63.42278,91.299919 64.2710445,91.3325231 64.7492779,91.0569172"/>
      <path fill="#B8BEC6" d="M66.6572096 77.732418L71.9871895 74.6666211C72.1183592 74.5912244 72.1004956 74.4587705 71.9478897 74.3726755L64.6697595 70.1896815C64.5176639 70.1030771 64.2854375 70.0939072 64.1542678 70.169304L58.8242879 73.2351009C58.6931182 73.3104977 58.7109818 73.4429515 58.8635877 73.5295559L66.1417179 77.7125499C66.2943239 77.7986449 66.5265503 77.8078148 66.6572096 77.732418M63.8491069 92.5473794C63.5035744 92.5356624 63.1473237 92.4485485 62.8655896 92.288585L36.2810197 77.007488C35.9752974 76.8337697 35.8232018 76.6101265 35.8232018 76.3976909L35.8170771 76.4038041 35.8170771 75.1373417C36.0033687 75.6024584 36.4096374 75.7761767 36.4096374 75.7761767L62.8655896 90.9839147C63.1554899 91.1479537 63.5239899 91.235577 63.8787094 91.2432186L63.8491069 92.5473794z"/>
      <path fill="#868C96" d="M63.8785053,91.2432186 C64.2051535,91.2503507 64.5195524,91.1892182 64.7492269,91.0567644 L83.9454229,80.0146995 C83.9454229,80.0146995 84.3802733,79.830283 84.5379831,79.4808086 L84.5379831,80.6703459 L84.5328792,80.6723837 C84.5441078,80.8562907 84.4435614,81.0330657 84.2174596,81.1629723 L64.7492269,92.3614346 C64.5124069,92.497964 64.1862691,92.5590965 63.8489028,92.5473794 L63.8785053,91.2432186 Z"/>
      <polygon fill="#5B5E67" points="40.435 75.422 62.553 88.057 72.075 82.57 49.957 69.935"/>
      <path fill="#B8BEC6" d="M58.4078114,66.3011426 L31.5792761,50.9757244 C31.1010427,50.6985903 30.7126376,50.9950831 30.7162103,51.6344276 L35.4597546,74.074145 C35.462817,74.7139989 35.856326,75.4638913 36.334049,75.7410255 L63.1625843,91.1856521 C63.6408177,91.4627863 64.0292228,91.1662935 64.0256501,90.5264396 L59.2821057,67.9680232 C59.2790434,67.3286787 58.8855344,66.5782768 58.4078114,66.3011426"/>
      <path fill="#D4A989" d="M83.7906222,72.6584172 C83.7906222,72.6584172 78.6290703,72.1927911 77.8874768,73.0308163 C77.1453729,73.8683321 78.6331534,74.3105241 78.6331534,74.3105241 C78.6331534,74.3105241 73.9069623,76.6294851 73.7482316,77.2433577 C73.5900114,77.8562114 72.5151347,77.7461728 75.0614595,79.723301 C77.6082947,81.7004292 84.6853321,80.4986654 84.6853321,80.4986654 L90.5787801,77.7838712 L90.5787801,73.0369295 L83.7906222,72.6584172 Z"/>
      <polygon fill="#7BCAEC" points="79.231 102.97 93.81 111.519 115.772 100.077 100.945 91.521"/>
      <polygon fill="#FFFFFF" points="81.137 102.97 95.716 111.519 117.678 100.077 102.851 91.521"/>
      <polygon fill="#7BCAEC" points="86.876 104.074 101.455 112.622 123.417 101.181 108.591 92.624"/>
      <polygon fill="#7BCAEC" points="87.546 101.982 102.125 110.53 124.087 99.089 109.26 90.532"/>
      <polygon fill="#FFFFFF" points="88.782 104.074 103.361 112.622 125.323 101.181 110.496 92.624"/>
      <path fill="#B8BEC6" d="M102.220369,11.5062137 C102.220369,11.5062137 103.651496,6.60949731 102.305093,4.01798708 C100.95869,1.42647686 98.5374104,0.933341043 96.7020558,0.610866898 C94.867722,0.287883316 93.9235046,0.838585607 93.9235046,0.838585607 C93.9235046,0.838585607 99.3417816,0.655187989 101.026061,3.84070272 C102.292334,6.23404163 101.31341,11.0095118 101.31341,11.0095118 L102.220369,11.5062137 Z"/>
      <path fill="#B8BEC6" d="M100.260071,11.3415634 C101.081285,10.4072544 102.076542,10.5998219 102.4823,11.7725478 C102.888569,12.9457831 102.551713,14.6569848 101.729478,15.5938409 C100.906733,16.5312065 99.9104557,16.3371107 99.5052078,15.1618377 C99.0999598,13.9865646 99.438347,12.2763818 100.260071,11.3415634"/>
      <path fill="#B8BEC6" d="M100.731619,11.3383539 C101.553343,10.404045 102.548089,10.5966125 102.953847,11.7693383 C103.360116,12.9425737 103.02326,14.6537753 102.201025,15.5906315 C101.37879,16.5279971 100.382003,16.3339013 99.9767551,15.1581188 C99.5715071,13.9833551 99.9098943,12.2731724 100.731619,11.3383539"/>
      <path fill="#2C2E33" d="M100.996765,11.6515054 C101.712839,10.8364048 102.95155,11.129841 103.30576,12.1522828 C103.659969,13.1757433 103.366496,14.6673773 102.64889,15.4845156 C101.931796,16.3011444 100.691553,16.0071988 100.338365,14.9822099 C99.9851765,13.9577304 100.280181,12.4671153 100.996765,11.6515054"/>
      <path stroke="#B8BEC6" stroke-width=".509" d="M100.996765,11.6515054 C101.712839,10.8364048 102.95155,11.129841 103.30576,12.1522828 C103.659969,13.1757433 103.366496,14.6673773 102.64889,15.4845156 C101.931796,16.3011444 100.691553,16.0071988 100.338365,14.9822099 C99.9851765,13.9577304 100.280181,12.4671153 100.996765,11.6515054 Z"/>
      <path fill="#2C2E33" d="M101.027644,14.9743136 C101.027644,14.9743136 98.7109933,17.6692397 96.4341533,19.2887426 C95.607325,19.8766338 94.3798423,20.1201451 94.0822862,20.4466947 C93.7847301,20.7732444 94.1920196,21.5358728 94.7049593,21.4380607 C95.2178991,21.3397392 96.3831145,20.9479816 96.4617142,20.7727349 C96.5398035,20.5979978 97.3033437,19.3514034 97.3033437,19.3514034 L101.600809,15.0802767 L101.027644,14.9743136 Z"/>
      <path fill="#EC6D54" d="M112.414345,34.8633267 C111.663564,33.9697728 107.799928,30.7348426 104.719228,28.0551996 L104.914196,26.0923357 L101.14243,23.254767 L100.631532,26.7118121 L100.786179,26.8901153 C101.053112,28.0852565 101.521138,32.2743637 99.1044512,33.4053157 C97.5931929,34.1119059 92.7736008,35.2892168 92.7736008,35.2892168 C92.7736008,35.2892168 89.4734332,32.2692693 87.9427802,30.0797055 C86.8796424,28.5585242 90.163988,25.0912903 90.163988,25.0912903 L88.8757691,22.7616312 L85.0259139,23.3709188 L85.5072096,26.0923357 C84.1271209,26.4886783 82.6531209,26.7316801 81.9840025,26.6720759 C80.3558654,26.5273956 76.4932504,29.0852829 76.1405724,29.7001744 C74.9493273,31.7786807 73.1400025,38.3585797 73.2584125,39.1420951 C73.2584125,39.1420951 72.4540413,44.6720427 71.2934194,46.7760209 C70.4604665,48.2854852 62.0901064,64.5039478 62.0901064,64.5039478 L68.8777539,67.8035766 L77.5252484,56.0287007 L96.3809613,66.930312 L83.7907753,72.6585191 L87.6763578,73.6172811 L88.746641,77.243969 L88.1882767,78.9959257 C88.1882767,78.9959257 112.31635,72.1597795 114.718746,70.6054847 C117.121141,69.0506804 117.170138,65.3623506 117.170138,65.3623506 C117.218115,65.739844 115.472078,48.630884 115.043863,42.788651 C114.956586,41.5945287 113.703584,36.397244 112.414345,34.8633267 Z"/>
      <path fill="#FFFFFF" d="M87.4992532,41.398548 C87.0184679,45.7201091 85.5984906,60.728896 85.5984906,60.728896 L94.3045453,65.7677144 C94.3045453,65.7677144 98.3082463,37.616991 98.5491493,36.8966459 C98.7890316,36.1763009 100.714214,31.5205486 100.714214,31.5205486 C100.714214,31.5205486 95.863999,34.0514357 93.2176382,33.5710358 C90.5722982,33.0911454 87.7401562,29.6335908 87.7401562,29.6335908 C87.7401562,29.6335908 87.9805489,37.0764775 87.4992532,41.398548 Z"/>
      <path fill="#C74C39" d="M105.532939 56.7482154C105.961665 56.2830987 104.253397 42.9460164 104.253397 42.9460164L101.95461 57.3264273 98.3318772 66.461157 105.779456 61.3871563 105.532939 56.7482154zM77.5721234 56.1517476C77.5721234 56.1517476 79.3292713 53.7795684 80.1050608 50.3607311 81.7326875 43.1914126 83.3843025 35.3241642 83.3843025 35.3241642L81.9837983 53.4249996 84.2503461 60.0055074 77.5721234 56.1517476z"/>
      <path fill="#D4A989" d="M62.089647,64.5042025 L60.1777343,66.4614627 C60.1777343,66.4614627 59.4836069,70.8528167 60.1777343,71.0805355 C60.8718617,71.3082542 64.8436997,74.6980535 65.4056366,73.9507082 C65.968084,73.2038723 67.5436512,69.281201 67.5436512,69.281201 C67.5436512,69.281201 67.4165646,71.6281811 67.5436512,71.7010307 C67.6702274,71.7738803 68.8390154,72.0973734 68.6802848,69.9348098 C68.522575,67.7727556 68.5741242,65.4858892 68.5741242,65.4858892 L64.7344767,64.0039346 L62.089647,64.5042025 Z"/>
    </g>
    <g transform="translate(0 136)">
      <path fill="#171615" d="M-4.26325641e-14,10.6177291 C-4.26325641e-14,6.63455509 3.18796072,2.90671049 7.14859903,2.36990522 C7.14859903,2.36990522 19.2214659,2.84217094e-14 45.7571076,2.84217094e-14 C72.2927492,2.84217094e-14 84.3838887,2.37222028 84.3838887,2.37222028 C88.3218592,2.94291503 91.5142151,6.63666236 91.5142151,10.6177291 L91.5142151,169.493765 C91.5142151,173.476939 88.356165,177.370741 84.4277177,178.04859 C84.4277177,178.04859 75.6332207,180.704693 45.7571076,180.704693 C15.8809944,180.704693 7.08649737,178.04859 7.08649737,178.04859 C3.17273295,177.307065 -4.26325641e-14,173.474831 -4.26325641e-14,169.493765 L-4.26325641e-14,10.6177291 Z"/>
      <path fill="#000000" d="M61.9389876,0.492770696 C71.7210318,0.492770696 84.3894016,2.55052076 84.3894016,2.55052076 C88.3243274,3.11432318 91.5142151,6.80881566 91.5142151,10.783979 L91.5142151,169.998799 C91.5142151,173.98221 88.356165,177.877507 84.4277177,178.556685 C84.4277177,178.556685 75.6332207,181.217993 45.7571076,181.217993 C15.8809944,181.217993 7.08649737,178.556685 7.08649737,178.556685 C3.17273295,177.813706 -4.26325641e-14,173.978346 -4.26325641e-14,169.987943 L-4.26325641e-14,158.528083 L60.7444721,1.07334724 C60.7444721,1.07334724 61.592562,0.492770696 61.9389876,0.492770696 Z"/>
      <rect width="82.363" height="145.296" x="4.881" y="14.652" fill="#FFFFFF"/>
      <g transform="translate(4.88 14.652)">
        <rect width="3.634" height="66.703" x="19.379" fill="#E85740"/>
        <rect width="3.634" height="66.703" x="19.379" y="72.165" fill="#DBD9DB"/>
        <ellipse cx="21.196" cy="61.856" fill="#FFFFFF" stroke="#E85740" stroke-width="2.398" rx="10.295" ry="10.309"/>
        <ellipse cx="21.196" cy="30.324" fill="#FFFFFF" stroke="#E85740" stroke-width="1.199" rx="5.45" ry="5.458"/>
        <ellipse cx="21.196" cy="10.919" fill="#FFFFFF" stroke="#E85740" stroke-width="1.199" rx="5.45" ry="5.458"/>
        <ellipse cx="21.196" cy="106.729" fill="#FFFFFF" stroke="#DBD9DB" stroke-width="1.199" rx="5.45" ry="5.458"/>
        <rect width="36.337" height="4.851" x="38.759" y="52.76" fill="#777675"/>
        <rect width="36.337" height="4.851" x="38.759" y="60.037" fill="#D8D8D8"/>
        <rect width="36.337" height="4.851" x="38.759" y="67.313" fill="#D8D8D8"/>
        <rect width="36.337" height="4.851" x="38.759" y="79.441" fill="#D8D8D8"/>
        <rect width="36.337" height="4.851" x="38.759" y="103.697" fill="#D8D8D8"/>
        <rect width="82.363" height="24.42" y="120.877" fill="#777675"/>
        <rect width="36.337" height="4.851" x="38.759" y="28.504" fill="#D8D8D8"/>
        <rect width="36.337" height="4.851" x="38.759" y="9.1" fill="#D8D8D8"/>
      </g>
    </g>
    <path fill="#FFFFFF" d="M106.852932,185.218137 C105.600948,185.218137 104.586014,184.201407 104.586014,182.947207 C104.586014,181.693006 105.600948,180.676276 106.852932,180.676276 C108.104915,180.676276 109.119849,181.693006 109.119849,182.947207 C109.119849,184.201407 108.104915,185.218137 106.852932,185.218137 Z M118.187518,185.218137 C116.935534,185.218137 115.920601,184.201407 115.920601,182.947207 C115.920601,181.693006 116.935534,180.676276 118.187518,180.676276 C119.439502,180.676276 120.454435,181.693006 120.454435,182.947207 C120.454435,184.201407 119.439502,185.218137 118.187518,185.218137 Z M129.522105,185.218137 C128.270121,185.218137 127.255187,184.201407 127.255187,182.947207 C127.255187,181.693006 128.270121,180.676276 129.522105,180.676276 C130.774088,180.676276 131.789022,181.693006 131.789022,182.947207 C131.789022,184.201407 130.774088,185.218137 129.522105,185.218137 Z M140.856691,185.218137 C139.604707,185.218137 138.589774,184.201407 138.589774,182.947207 C138.589774,181.693006 139.604707,180.676276 140.856691,180.676276 C142.108675,180.676276 143.123608,181.693006 143.123608,182.947207 C143.123608,184.201407 142.108675,185.218137 140.856691,185.218137 Z M152.191277,185.218137 C150.939294,185.218137 149.92436,184.201407 149.92436,182.947207 C149.92436,181.693006 150.939294,180.676276 152.191277,180.676276 C153.443261,180.676276 154.458195,181.693006 154.458195,182.947207 C154.458195,184.201407 153.443261,185.218137 152.191277,185.218137 Z M163.525864,185.218137 C162.27388,185.218137 161.258947,184.201407 161.258947,182.947207 C161.258947,181.693006 162.27388,180.676276 163.525864,180.676276 C164.777848,180.676276 165.792781,181.693006 165.792781,182.947207 C165.792781,184.201407 164.777848,185.218137 163.525864,185.218137 Z" transform="rotate(-30 135.19 182.947)"/>
    <path fill="#FFFFFF" d="M106.852932,265.457672 C105.600948,265.457672 104.586014,264.440942 104.586014,263.186741 C104.586014,261.932541 105.600948,260.915811 106.852932,260.915811 C108.104915,260.915811 109.119849,261.932541 109.119849,263.186741 C109.119849,264.440942 108.104915,265.457672 106.852932,265.457672 Z M118.187518,265.457672 C116.935534,265.457672 115.920601,264.440942 115.920601,263.186741 C115.920601,261.932541 116.935534,260.915811 118.187518,260.915811 C119.439502,260.915811 120.454435,261.932541 120.454435,263.186741 C120.454435,264.440942 119.439502,265.457672 118.187518,265.457672 Z M129.522105,265.457672 C128.270121,265.457672 127.255187,264.440942 127.255187,263.186741 C127.255187,261.932541 128.270121,260.915811 129.522105,260.915811 C130.774088,260.915811 131.789022,261.932541 131.789022,263.186741 C131.789022,264.440942 130.774088,265.457672 129.522105,265.457672 Z M140.856691,265.457672 C139.604707,265.457672 138.589774,264.440942 138.589774,263.186741 C138.589774,261.932541 139.604707,260.915811 140.856691,260.915811 C142.108675,260.915811 143.123608,261.932541 143.123608,263.186741 C143.123608,264.440942 142.108675,265.457672 140.856691,265.457672 Z M152.191277,265.457672 C150.939294,265.457672 149.92436,264.440942 149.92436,263.186741 C149.92436,261.932541 150.939294,260.915811 152.191277,260.915811 C153.443261,260.915811 154.458195,261.932541 154.458195,263.186741 C154.458195,264.440942 153.443261,265.457672 152.191277,265.457672 Z M163.525864,265.457672 C162.27388,265.457672 161.258947,264.440942 161.258947,263.186741 C161.258947,261.932541 162.27388,260.915811 163.525864,260.915811 C164.777848,260.915811 165.792781,261.932541 165.792781,263.186741 C165.792781,264.440942 164.777848,265.457672 163.525864,265.457672 Z" transform="rotate(30 135.19 263.187)"/>
  </g>
</svg>
