<svg xmlns="http://www.w3.org/2000/svg" width="80" height="165" viewBox="0 0 80 165">
  <g fill="none" fill-rule="evenodd">
    <path fill="#1D1D1B" d="M68.6552567,0 L11.3447433,0 C4.88997555,0 0,4.76878613 0,11.0635838 L0,153.936416 C0,160.231214 4.88997555,165 11.3447433,165 L68.6552567,165 C75.1100244,165 80,160.231214 80,153.936416 L80,11.0635838 C80,4.76878613 75.1100244,0 68.6552567,0 L68.6552567,0 Z"/>
    <polygon fill="#FFFFFF" points="6 16 74 16 74 144 6 144"/>
    <path fill="#2591BF" d="M54.002,81.007 C53.997,81.007 53.992,81.005 53.986,81.005 L53.986,81.007 L26.986,81.007 L26.986,81.006 C23.132,80.997 20.009,77.867 20.009,74.007 C20.009,70.141 23.14,67.007 27.002,67.007 C27.054,67.007 27.104,67.014 27.155,67.015 C27.071,66.687 27.012,66.349 27.012,65.993 C27.012,63.786 28.744,61.997 30.88,61.997 C32.944,61.997 34.857,63.841 34.985,65.957 L35.001,65.957 C35.13,61.085 39.314,56.993 44.139,56.993 C49.04,56.993 53.013,61.026 53.013,65.998 C53.013,67.144 52.794,68.235 52.41,69.242 C52.92,69.101 53.447,69 54.002,69 C57.31,69 59.991,71.688 59.991,75.003 C59.991,78.319 57.31,81.007 54.002,81.007 M54.938,67.067 C54.971,66.715 54.991,66.359 54.991,65.998 C54.991,59.924 50.066,55 43.991,55 C39.736,55 36.053,57.42 34.224,60.953 C33.292,60.36 32.193,60.004 31.007,60.004 C27.961,60.004 25.472,62.282 25.084,65.224 C21.034,66.104 18,69.699 18,74.008 C18,78.969 22.023,82.991 26.986,82.999 L26.986,83 L53.986,83 L53.986,82.999 C53.992,82.999 53.997,83 54.002,83 C58.419,83 62,79.42 62,75.004 C62,70.904 58.913,67.53 54.938,67.067"/>
  </g>
</svg>
