<svg xmlns="http://www.w3.org/2000/svg" width="137" height="168" viewBox="0 0 137 168">
  <g fill="none" fill-rule="evenodd">
    <polygon fill="#DBD9DB" points="134.742 141.35 48.697 91.752 .578 118.143 87.675 167.855" style="mix-blend-mode:multiply"/>
    <g transform="translate(.772)">
      <polyline fill="#2C2E33" points="96.666 100.41 73.793 116.92 73.3 120 98.538 103.212 103.609 125.041 105.371 125.041 102.46 102.351 126.539 108.11 125.546 106.026 100.774 98.192 85.307 98.192 85.273 100.904 96.666 100.41"/>
      <path fill="#2C2E33" d="M92.0933117,118.401007 L91.3912274,121.582167 L89.5033892,125.641036 C89.5033892,125.641036 89.769697,127.00926 90.1149498,127.954608 C90.5280954,129.086362 94.9211219,130.419967 95.3100576,130.410913 C96.5126533,130.382686 98.6810095,127.892295 98.6810095,127.892295 L105.706589,115.210259 L105.290286,111.948678 L104.189266,111.232877 L92.0933117,118.401007"/>
      <path fill="#3E6696" d="M101.474291,100.493151 L102.71406,105.970619 L104.163427,111.056876 L103.54459,115.562087 L100.543154,119.825545 C100.543154,119.825545 98.6897873,120.998127 96.5204528,120.099287 C94.3511182,119.200972 91.3989369,118.054086 91.3989369,118.054086 L90.0396969,112.097831 L88.7318082,107.845911 L101.474291,100.493151"/>
      <path fill="#2C2E33" d="M60.7598945,107.269759 L59.5838926,110.313212 L57.0969896,114.044791 C57.0969896,114.044791 57.1557104,115.441865 57.3562073,116.43108 C57.5963805,117.615683 61.7602633,119.612265 62.1485608,119.66298 C63.3473105,119.819931 65.8765347,117.686151 65.8765347,117.686151 L74.766115,106.201001 L74.8433513,102.906107 L73.857266,102.027397 L60.7598945,107.269759"/>
      <path fill="#003569" d="M61.2341003,92.8219178 L60.8408355,98.3962824 L60.1833134,103.61739 L61.4676663,107.955094 L65.0538668,111.69534 C65.0538668,111.69534 67.0493215,112.568829 69.0426955,111.357737 C71.0360694,110.146123 73.7608327,108.572903 73.7608327,108.572903 L74.1993542,102.509614 L74.8433513,98.1301656 L61.2341003,92.8219178"/>
      <path fill="#2C2E33" d="M80.634628,119.720259 L79.5894504,126.576896 L78.701256,130.958809 C78.701256,130.958809 79.2630906,132.22407 79.8053023,133.060491 C80.4544072,134.062178 84.9470186,134.326814 85.3162389,134.226911 C86.4579819,133.917637 87.9663632,130.992819 87.9663632,130.992819 L91.818132,117.038289 L90.6867169,113.971056 L89.475261,113.534247 L80.634628,119.720259"/>
      <path fill="#003569" d="M84.3306208,105.09589 L82.3702163,110.516554 L80.2444179,115.512795 L80.3098187,120.176598 L84.8500442,121.788757 C84.8500442,121.788757 86.5996525,123.215871 88.9335445,122.573589 C91.2674366,121.931307 92.3116885,120.927003 92.3116885,120.927003 L94.5720721,118.34658 L96.4476176,114.182508 L84.3306208,105.09589"/>
      <path fill="#2C2E33" d="M98.881244,25.5266655 C99.7516307,24.0299737 123.819761,30.9293066 126.178498,31.9220049 C128.536712,32.9141761 118.562353,72.4439215 118.562353,72.4439215 L111.266187,79.7808219 L96.4476176,41.1167222 C96.4476176,41.1167222 97.6861643,27.5821785 98.881244,25.5266655"/>
      <polyline fill="#868C96" points="46.278 91.442 0 118.137 .016 58.147 46.295 31.452 46.278 91.442"/>
      <polyline fill="#B8BEC6" points="88.696 108.261 88.732 112 0 61.243 .016 57.534 88.696 108.261"/>
      <polyline fill="#B9BEC6" points="135.011 140.648 88.732 167.233 88.748 107.9 135.027 81.315 135.011 140.648"/>
      <polyline fill="#2B2E32" points="0 57.442 45.894 30.685 135.027 81.513 88.889 108.164 0 57.442"/>
      <path fill="#CBD1D8" d="M65.6123158,81.9081001 L83.8023321,71.477418 C84.2499206,71.2204994 84.1896375,70.7698302 83.668429,70.475754 L58.8291367,56.2422522 C58.3084617,55.948176 57.5162461,55.9173882 57.0691912,56.1743068 L38.8786414,66.6049889 C38.4315864,66.8619075 38.4918695,67.3120458 39.0125445,67.6061221 L63.8518368,81.8401547 C64.3730453,82.1342309 65.1647274,82.1644878 65.6123158,81.9081001"/>
      <path fill="#B8BEC6" d="M67.5142969 68.9949886L72.4471623 66.2339217C72.5687005 66.1656521 72.5523192 66.0465654 72.4107008 65.9685431L65.6748427 62.2008853C65.5337527 62.1233763 65.318683 62.1151634 65.1976732 62.1829196L60.2648078 64.9444998C60.1432696 65.0122561 60.1596508 65.1313428 60.3007408 65.2093651L67.0371273 68.9770229C67.1782173 69.0550453 67.3927587 69.0627448 67.5142969 68.9949886M64.785043 83.6164384C64.4621118 83.605892 64.129039 83.5252122 63.8658902 83.3770356L39.0130025 69.2375096C38.7263677 69.0772047 38.5843848 68.8699684 38.5843848 68.6732785L38.579047 68.679079 38.579047 67.5068493C38.7525225 67.9376688 39.132567 68.098501 39.132567 68.098501L63.8658902 82.1700029C64.1370456 82.3218707 64.4813276 82.4030778 64.812799 82.409933L64.785043 83.6164384"/>
      <path fill="#868C96" d="M64.8404802,82.3904736 C65.1449732,82.3968969 65.4382872,82.3396228 65.652284,82.2154397 L83.550296,71.8440153 C83.550296,71.8440153 83.9553994,71.6705873 84.1023226,71.3424658 L84.1023226,72.4595778 L84.0975316,72.4617189 C84.1081782,72.6340764 84.0139557,72.8005459 83.8031529,72.9225878 L65.652284,83.4406767 C65.4318993,83.5686066 65.126874,83.6258807 64.812799,83.6151752 L64.8404802,82.3904736"/>
      <polyline fill="#5B5E67" points="43.209 67.247 63.705 79.014 72.529 73.903 52.032 62.137 43.209 67.247"/>
      <path fill="#B8BEC6" d="M59.6077208,58.842574 L34.7489297,44.5897318 C34.3066664,44.3321503 33.9469308,44.6077519 33.9495759,45.2029453 L38.3446991,66.0718157 C38.3478732,66.6664791 38.71237,67.3644931 39.1551623,67.6220746 L64.0134244,81.9856874 C64.4562167,82.2432689 64.8159523,81.9671373 64.8127782,81.3724739 L60.417655,60.3928329 C60.4150099,59.7981695 60.0505131,59.1006855 59.6077208,58.842574"/>
      <path fill="#2C2E33" d="M86.757514,7.67123288 C86.757514,7.67123288 84.2111564,8.55474913 84.1154757,10.9607389 C84.0516887,12.5725808 84.1154757,13.7943055 86.8025067,15.3424658 L87.1886463,9.08507294 L86.757514,7.67123288"/>
      <path fill="#EED2B7" d="M100.963978,21.0716854 C100.963978,21.0716854 100.976427,24.139404 101.213503,25.2546012 C101.45058,26.3692692 102.620265,27.2685193 102.620265,27.2685193 L100.975344,28.4837509 L91.8836257,35.2876712 L90.5889069,34.2015845 L88.2273442,28.1397175 L87.8928391,22.0450351 L88.8422274,20.5916266 L87.2866163,18.0304309 L86.455225,15.6661282 L85.6454844,11.0412619 L85.9112482,8.40967166 L86.9218,6.33541542 L92.2035165,3.83561644 L99.0094504,9.92606465 L101.920944,14.395322 L100.963978,21.0716854"/>
      <path fill="#925F36" d="M89.6539872,1.19321006 C89.6539872,1.19321006 87.2429059,2.69161575 86.5370933,3.84705647 C85.8312808,5.00249719 85.6454844,10.2735176 85.6454844,10.2735176 C85.6454844,10.2735176 85.7666792,9.51682527 86.7607964,9.38976295 C88.3363281,9.18832268 87.7095324,7.9120178 88.4649974,7.93061228 C89.2199285,7.94920677 88.696175,7.51430239 90.389698,10.0292067 C92.0826871,12.544111 91.3112052,11.1908456 92.521017,11.0797952 C93.7313627,10.9692613 96.075173,10.6485064 96.6923585,11.8468177 C97.3095441,13.0446125 98.3880171,16.522298 98.3880171,16.522298 C98.3880171,16.522298 98.4899915,14.4996311 99.4595495,14.1179276 C100.429641,13.7357076 100.72809,14.4133734 100.758522,15.1132492 C100.770268,15.3833857 100.281752,17.7650295 99.4429987,18.3409421 C98.7932454,18.7861767 101.391191,16.9623675 101.391191,16.9623675 C101.391191,16.9623675 103.055349,11.7693407 103.367146,9.03646771 C103.65812,6.48695702 101.282276,3.6683428 101.282276,3.6683428 C101.282276,3.6683428 99.1103805,1.26603846 95.7009108,0.882785436 C92.2909072,0.499015897 89.6539872,1.19321006 89.6539872,1.19321006"/>
      <path fill="#2C2E33" d="M97.9914222,16.2516276 C97.9952822,16.7268002 98.1154925,17.1911383 98.3487445,17.612654 C98.7496293,18.3370214 99.468134,19.3405076 100.300783,19.1558042 C101.35731,18.9220874 103.403642,15.4694759 102.305759,13.7096346 C101.208426,11.9492774 99.619224,12.1117957 98.8069774,12.6081215 C98.1199038,13.0275735 97.9798423,14.913818 97.9914222,16.2516276"/>
      <path fill="#A4978B" d="M88.7318082,20.7123288 C89.1550681,21.6160171 89.5451843,22.2016692 89.8005529,22.5235839 C90.6981464,23.653887 92.0760501,24.7747708 93.1817417,24.4013275 C94.2879767,24.0273302 98.7623604,20.9334027 98.7623604,20.9334027 C98.7623604,20.9334027 96.7884156,24.9576139 96.1624909,25.4867509 C95.5360228,26.0164419 92.686218,27.2863706 91.5620529,26.6962859 C90.4378877,26.1067553 88.7318082,20.7123288 88.7318082,20.7123288"/>
      <path fill="#2C2E33" d="M101.795743 10.2061555C101.795743 10.2056239 101.796265 10.2056239 101.796265 10.2050923 102.037332 9.61875454 101.463363 5.0774277 99.732587 3.13980201 98.0012888 1.20217631 96.438007-.282007758 92.9576699.0454483264 92.9576699.0454483264 90.4494269.987947739 91.1799325.895452026 92.8392236.685476128 95.1418814 1.01080587 96.2491191 1.46531067 99.5259582 2.81021959 100.5878 7.66146022 100.776166 8.67625513L100.744859 8.65180224C101.123156 9.59749116 100.630065 12.3888416 100.724509 12.4786794L101.461798 13.0410959C101.389791 12.9725215 101.827572 11.2645403 101.795743 10.2061555M98.3976332 16.8767123C98.3976332 16.8767123 96.598012 19.1718802 94.9179652 19.4819815 94.9179652 19.4819815 94.8209048 20.0049179 95.147108 19.9395509 95.4728109 19.8741838 96.573997 19.4134769 96.6235279 19.297385 96.6730587 19.1807702 96.9667417 18.7524852 96.9667417 18.7524852L98.7623604 16.9473087 98.3976332 16.8767123"/>
      <path fill="#EED2B7" d="M83.876557,64.5568826 C83.876557,64.5568826 79.0114166,64.1286708 78.3123218,64.9000818 C77.6132269,65.6714927 79.0146457,66.078189 79.0146457,66.078189 C79.0146457,66.078189 74.5601361,68.2140002 74.4105222,68.7786521 C74.2614466,69.3438286 73.2485932,69.2420234 75.6488727,71.0624483 C78.0491521,72.8828731 84.7198839,71.7766593 84.7198839,71.7766593 L90.2749701,69.2766582 L90.2749701,64.9058542 L83.876557,64.5568826"/>
      <path fill="#EC6D54" d="M114.193083,57.9810236 C114.193083,57.9810236 114.148215,61.388223 111.926968,62.824385 C109.705722,64.2605469 87.3982428,70.5753425 87.3982428,70.5753425 L87.9144926,68.957028 L86.9252778,65.6066855 L83.332644,64.7206662 L95.2686762,59.0823619 L77.5530749,49.2445474 L69.5453972,60.2363454 L63.2696372,57.1881864 C63.2696372,57.1881864 71.8732719,41.7631335 72.6428958,40.3685613 C73.7160407,38.4243729 74.4597993,33.3167325 74.4597993,33.3167325 C74.3505317,32.5923341 75.9087825,26.2090997 77.0099042,24.2891281 C77.3355955,23.721086 80.1575497,22.1059303 81.6619585,22.2396492 C83.1668951,22.3738945 87.8273952,21.4794521 87.8273952,21.4794521 C87.8273952,21.4794521 88.4091,24.0843381 88.7221226,25.416789 C89.2864079,27.8184644 91.8138146,31.6315586 91.8138146,31.6315586 C91.8138146,31.6315586 96.2948414,29.7189573 97.6920941,29.0661564 C100.283372,27.8547896 100.818097,24.6718589 100.818097,24.6718589 C100.818097,24.6718589 108.604073,30.3912369 109.795987,31.8079201 C110.987901,33.2251298 112.146559,38.0263749 112.227322,39.1292925 C112.623219,44.5259552 114.237424,58.3295351 114.193083,57.9810236"/>
      <path fill="#C74C39" d="M103.933461 50.19624C104.332708 49.7719918 102.740512 37.5890411 102.740512 37.5890411L100.597357 50.7245982 97.2191986 59.0684932 104.163427 54.4335165 103.933461 50.19624M77.929675 49.5732076C78.0594936 49.2086639 79.5010311 47.62235 80.1822027 44.4847644 81.6107082 37.9051965 83.0607666 30.6849315 83.0607666 30.6849315L81.8312494 47.2975558 84.1023226 52.9315068 77.929675 49.5732076"/>
      <path fill="#EED2B7" d="M63.0904154,57.2252233 L61.2516284,59.0169268 C61.2516284,59.0169268 60.5839768,63.0380853 61.2516284,63.2462652 C61.9192799,63.454445 65.7390593,66.5583599 66.27933,65.8743404 C66.8196006,65.1903208 68.3349939,61.5990876 68.3349939,61.5990876 C68.3349939,61.5990876 68.2131036,63.7476708 68.3349939,63.8144553 C68.4563352,63.8812399 69.5802519,64.1770744 69.4281635,62.1970178 C69.2760752,60.2174829 69.3260392,58.1242056 69.3260392,58.1242056 L65.6336407,56.7671233 L63.0904154,57.2252233"/>
      <polyline fill="#868C96" points="73.3 88.788 86.846 96.658 107.25 86.124 93.475 78.247 73.3 88.788"/>
      <polyline fill="#FFFFFF" points="75.615 88.788 89.16 96.658 109.564 86.124 95.789 78.247 75.615 88.788"/>
      <polyline fill="#868C96" points="84.102 88.788 97.648 96.658 118.052 86.124 104.277 78.247 84.102 88.788"/>
      <polyline fill="#FFFFFF" points="84.874 88.788 98.419 96.658 118.823 86.124 105.048 78.247 84.874 88.788"/>
      <path fill="#C91324" d="M41.265612,16.8061447 L41.265612,16.8061447 C41.0394304,16.4638751 38.7039383,12.15862 37.1608545,10.9534381 C34.648642,8.9918507 34.0813848,6.90410959 34.0813848,6.90410959 L30.5196693,7.51936762 C30.5196693,7.51936762 30.781401,9.92197608 29.5402361,12.26978 C28.2547623,14.7013418 28.0955594,18.2103807 27.9044127,18.9481733 C27.8431016,19.1317166 27.8096123,19.3131919 27.7900339,19.4941502 C27.7869426,19.5205184 27.7848817,19.5380972 27.7848817,19.5380972 L27.7864274,19.5380972 C27.6761703,20.7717154 28.5252528,21.905031 30.2831833,22.5352827 C33.2374546,23.5941469 37.6183699,22.8367074 40.0697864,20.8420306 C41.6891228,19.5231035 42.0528681,17.9968499 41.265612,16.8061447"/>
      <path fill="#868C96" d="M31.6226792,14.4589669 C31.6975642,14.8780107 31.4182237,15.2692702 30.9989666,15.3334932 C30.5792168,15.3977162 30.178681,15.1103068 30.1037961,14.6912629 C30.0289111,14.2726746 30.3082516,13.8814151 30.7275087,13.8171921 C31.1467658,13.7529691 31.5477943,14.0403785 31.6226792,14.4589669"/>
      <path fill="#A0141E" d="M15.7172739,61.4866061 C12.2542028,59.5651341 12.2493639,56.411192 15.7070584,54.4392398 C19.1679788,52.4662135 24.7870684,52.4237886 28.2576667,54.3463346 C31.7293403,56.2694177 31.7320286,59.429267 28.2641186,61.4012193 C24.7988969,63.3715604 19.181958,63.4091521 15.7172739,61.4866061"/>
      <path fill="#C91324" d="M15.7172739,60.7199595 C12.2542028,58.797964 12.2493639,55.6440442 15.7070584,53.6721058 C19.1679788,51.6990935 24.7870684,51.6566689 28.2576667,53.5792013 C31.7293403,55.5022708 31.7320286,58.6615609 28.2641186,60.6340362 C24.7988969,62.6043635 19.181958,62.6419549 15.7172739,60.7199595"/>
      <path fill="#A0141E" d="M30.8632376,14.465804 L30.4220151,13.8082192 L29.2993843,14.5537277 L27.0985622,14.3552413 L3.08632376,32.2532371 L3.23921741,33.295159 L20.5976724,54.6095424 L21.0584695,56 L22.3964212,55.7704508 L21.7319422,53.7176699 L23.2026839,52.5609734 L7.3477713,33.0866693 L28.2159026,17.6073643 L29.9844959,15.3213488 L30.8632376,14.465804 L30.8632376,14.465804 Z M21.934566,52.5009537 L20.9833453,53.3417567 L20.5616974,53.0132275 L4.49093496,33.3430695 L6.39549252,33.4151985 L21.934566,52.5009537 L21.934566,52.5009537 Z M27.4757704,16.9260874 L6.45157116,32.5559684 L4.47030226,32.3774886 L27.3540903,15.3992691 L28.6211502,15.4245406 L27.4757704,16.9260874 L27.4757704,16.9260874 Z"/>
      <path fill="#868C96" d="M13.6989688 28.3469264L7.33781029 30.6697539C7.19567604 30.7216475 7.04312902 30.636141 6.99835413 30.4792809L6.95670307 30.3330353C6.91192818 30.1761752 6.99158583 30.0057519 7.13319945 29.9538584L13.494358 27.6316206C13.6364922 27.579727 13.7890392 27.6652334 13.8338141 27.8215039L13.8759858 27.9683391C13.9207607 28.1246096 13.8411031 28.2950328 13.6989688 28.3469264M21.8781178 52.1335173L15.5841122 48.9807914C15.4435638 48.9107673 15.3905792 48.7417247 15.465873 48.606053L15.536705 48.4791343C15.6119988 48.3429155 15.7887999 48.2893033 15.9293483 48.3598745L22.2233539 51.5126005C22.3639024 51.5826246 22.4168869 51.7516671 22.3415931 51.8873388L22.2713188 52.0142575C22.1954673 52.1504763 22.0186662 52.2035414 21.8781178 52.1335173"/>
      <polyline fill="#868C96" points="31.737 7.671 31.635 6.308 32.244 6.137 32.406 7.456 31.737 7.671"/>
    </g>
  </g>
</svg>
