<svg xmlns="http://www.w3.org/2000/svg" width="161" height="166" viewBox="0 0 161 166">
  <g fill="none" fill-rule="evenodd">
    <polygon fill="#DBD9DB" points="160.37 101.576 116.183 75.439 3.504 139.523 48.737 165.774" style="mix-blend-mode:multiply"/>
    <polyline fill="#2C2E33" points="44.474 149.862 155.233 85.347 111.113 59.385 .364 123.662 44.474 149.862"/>
    <polygon fill="#2C2E33" points="44.459 157.13 44.459 149.856 155.233 85.347 155.233 92.622"/>
    <path fill="#2C2E33" d="M142.696983,95.021156 L135.83409,90.9930682 C134.18223,90.0471312 131.901397,90.2145393 129.38282,91.719045 C124.3403,94.731307 120.25251,101.963445 120.25251,107.872571 C120.25251,110.696838 121.18792,112.705193 122.7142,113.705849 L122.687903,113.750816 L129.671547,117.791907 L142.696983,95.021156"/>
    <path fill="#5B5E67" d="M145.21395,100.919989 C145.21395,106.828573 141.12616,114.060711 136.08364,117.073515 C131.04112,120.085777 126.95333,117.737729 126.95333,111.828603 C126.95333,105.920018 131.04112,98.6878807 136.08364,95.6750769 C141.12616,92.6628149 145.21395,95.0108623 145.21395,100.919989"/>
    <path fill="#868C96" d="M140.921153,103.484745 C140.921153,106.615114 138.755167,110.446538 136.08364,112.042604 C133.412113,113.638669 131.246127,112.394757 131.246127,109.263846 C131.246127,106.133477 133.412113,102.302053 136.08364,100.705988 C138.755167,99.1099225 140.921153,100.353835 140.921153,103.484745"/>
    <path fill="#2C2E33" d="M72.44195,136.032887 L65.5790567,132.004799 C63.9271967,131.058862 61.6463633,131.225728 59.1277867,132.730776 C54.0852667,135.743038 49.9974767,142.975176 49.9974767,148.884302 C49.9974767,151.708569 50.9328867,153.716924 52.4591667,154.71758 L52.43287,154.762547 L59.4165133,158.803096 L72.44195,136.032887"/>
    <path fill="#5B5E67" d="M74.9589167,141.931178 C74.9589167,147.840304 70.8711267,155.072442 65.8286067,158.084704 C60.7860867,161.096966 56.6982967,158.748918 56.6982967,152.840334 C56.6982967,146.931208 60.7860867,139.69907 65.8286067,136.686808 C70.8711267,133.674546 74.9589167,136.022593 74.9589167,141.931178"/>
    <path fill="#5B5E67" d="M74.9589167,141.931178 C74.9589167,147.840304 70.8711267,155.072442 65.8286067,158.084704 C60.7860867,161.096966 56.6982967,158.748918 56.6982967,152.840334 C56.6982967,146.931208 60.7860867,139.69907 65.8286067,136.686808 C70.8711267,133.674546 74.9589167,136.022593 74.9589167,141.931178"/>
    <path fill="#5B5E67" d="M74.9589167,141.931178 C74.9589167,147.840304 70.8711267,155.072442 65.8286067,158.084704 C60.7860867,161.096966 56.6982967,158.748918 56.6982967,152.840334 C56.6982967,146.931208 60.7860867,139.69907 65.8286067,136.686808 C70.8711267,133.674546 74.9589167,136.022593 74.9589167,141.931178"/>
    <path fill="#868C96" d="M70.66612,144.495935 C70.66612,147.626303 68.5001333,151.458269 65.8286067,153.054335 C63.15708,154.6504 60.9910933,153.405946 60.9910933,150.275577 C60.9910933,147.145208 63.15708,143.313243 65.8286067,141.717177 C68.5001333,140.121112 70.66612,141.365566 70.66612,144.495935"/>
    <polyline fill="#C74C39" points="78.768 129.914 36.376 105.205 36.376 43.436 78.768 68.144 78.768 129.914"/>
    <path fill="#E85740" d="M78.7681767,68.1437603 L78.7681767,129.913552 L124.421873,103.304877 C126.918983,98.5437689 130.546313,94.3184754 134.585267,91.9059569 C138.74497,89.420299 142.467827,89.381833 144.96923,91.3289679 L152.95483,86.6745896 L152.95483,24.9042557 L78.7681767,68.1437603"/>
    <polyline fill="#EC6D54" points="78.768 68.144 152.955 24.904 110.562 .197 36.376 43.436 78.768 68.144"/>
    <polyline fill="#ECF0F3" points="32.742 57.765 75.134 82.473 46.972 111.476 4.579 86.768 32.742 57.765"/>
    <path fill="#B8BEC6" d="M46.9744333,148.444924 L4.58206,123.73679 L4.57937667,86.7677747 L46.97175,111.475908 L46.9744333,148.444924 Z M11.9182933,105.467096 L19.7042533,100.96333 L11.9182933,96.4595653 L11.9182933,105.467096 Z"/>
    <polyline fill="#2C2E33" points="44.474 157.086 .364 130.887 .364 123.662 44.474 149.862 44.474 157.086"/>
    <path fill="#B8BEC6" d="M64.7520533,133.321851 C68.3514767,131.171009 71.5859667,131.067531 73.8179633,132.640842 L75.1344067,131.88886 L75.1344067,82.4725924 L46.97658,111.499205 L46.97658,148.560863 L55.76718,143.319744 C57.9959567,139.142668 61.1955633,135.446146 64.7520533,133.321851"/>
    <polyline fill="#FFFFFF" points="12.85 126.795 6.84 123.126 6.84 114.801 12.85 118.47 12.85 126.795"/>
    <polyline fill="#FFFFFF" points="43.934 144.854 37.924 141.185 37.924 132.86 43.934 136.529 43.934 144.854"/>
    <polyline fill="#5B5E67" points="50.514 132.36 68.095 121.527 68.095 104.455 50.514 115.287 50.514 132.36"/>
    <polyline fill="#868C96" points="36.191 140.058 14.807 127.359 14.667 119.881 36.051 132.58 36.191 140.058"/>
    <path fill="#5B5E67" d="M44.2970033,130.32205 L6.84035333,108.170005 L6.84035333,93.3557435 L44.2970033,115.507247 L44.2970033,130.32205 Z M11.9182933,105.467096 L19.7042533,100.96333 L11.9182933,96.4595653 L11.9182933,105.467096 Z"/>
    <path fill="#B8BEC6" d="M52.28797,128.129492 L52.28797,128.129492 C51.0048,127.713409 49.9545433,126.468955 49.9545433,125.36482 L49.9545433,117.448964 C49.9545433,116.344829 51.0048,115.781926 52.28797,116.19855 C53.57114,116.614632 54.6213967,117.858545 54.6213967,118.963221 L54.6213967,126.879078 C54.6213967,127.983213 53.57114,128.546116 52.28797,128.129492"/>
    <polyline fill="#F29100" points="46.346 146.326 44.019 144.931 44.019 136.518 46.346 137.912 46.346 146.326"/>
    <polyline fill="#F29100" points="6.803 123.219 4.476 121.825 4.476 113.412 6.803 114.806 6.803 123.219"/>
    <path fill="#BD1622" d="M96.23614,83.1400577 L96.29732,73.3307022 L98.5180467,72.0234021 C99.2699167,71.5802312 99.9396767,71.2887569 100.526253,71.1489793 C101.113367,71.0075764 101.607637,71.0243713 102.009063,71.1982807 C102.409953,71.3727319 102.715317,71.7032138 102.923543,72.191352 C103.13177,72.6789484 103.2332,73.3258262 103.22837,74.1287349 C103.22354,74.9327272 103.112987,75.704213 102.89671,76.4410253 C102.68097,77.1789211 102.369167,77.8729333 101.96291,78.52252 C101.556653,79.1721067 101.058627,79.7756427 100.46883,80.3325861 C99.8790333,80.8900713 99.2087367,81.3901285 98.45633,81.8327576 L96.23614,83.1400577 L96.23614,83.1400577 Z M98.8099933,78.8405412 C99.4099867,78.4873047 99.8752767,78.0397996 100.205863,77.4991094 C100.535913,76.9573357 100.703353,76.3288781 100.707647,75.613195 C100.712477,74.8975119 100.55094,74.4646346 100.226257,74.3145633 C99.8994267,74.164492 99.43682,74.2668872 98.83629,74.6201237 L98.8099933,78.8405412 L98.8099933,78.8405412 Z"/>
    <polyline fill="#BD1622" points="104.639 68.419 109.356 65.641 109.34 68.215 107.18 69.487 107.173 70.576 109.297 69.325 109.281 71.767 107.157 73.017 107.15 74.149 109.395 72.827 109.379 75.401 104.578 78.228 104.639 68.419"/>
    <polyline fill="#BD1622" points="110.88 64.744 113.544 63.175 113.499 70.411 115.707 69.111 115.691 71.685 110.818 74.553 110.88 64.744"/>
    <polyline fill="#BD1622" points="116.893 61.203 119.605 59.606 119.544 69.416 116.831 71.013 116.893 61.203"/>
    <polyline fill="#BD1622" points="123.302 57.43 124.631 60.896 126.027 55.825 128.823 54.178 125.641 65.826 123.564 67.049 120.505 59.076 123.302 57.43"/>
    <polyline fill="#BD1622" points="129.723 53.649 134.44 50.871 134.423 53.445 132.263 54.717 132.257 55.805 134.38 54.555 134.365 56.996 132.241 58.247 132.234 59.379 134.478 58.058 134.462 60.632 129.661 63.459 129.723 53.649"/>
    <path fill="#BD1622" d="M135.963963,49.9732106 L138.724577,48.3484311 C139.236557,48.0466631 139.709897,47.8510828 140.145133,47.7611483 C140.58037,47.6712139 140.956573,47.6928849 141.274817,47.8283283 C141.592523,47.9637717 141.839927,48.2151547 142.017027,48.5851862 C142.194127,48.9552177 142.28053,49.4487736 142.276773,50.0663956 C142.273553,50.5561591 142.215057,51.0063731 142.101283,51.4154123 C141.986973,51.8244515 141.860857,52.1814804 141.72347,52.4870408 C141.561933,52.8364848 141.381077,53.1577567 141.17929,53.4519398 L142.659417,55.8043214 L139.65945,57.5710456 L138.47449,55.7924024 L138.459463,58.2780604 L135.902783,59.7831078 L135.963963,49.9732106 L135.963963,49.9732106 Z M138.49059,53.2921165 L138.62261,53.2146429 C138.926363,53.0358576 139.1845,52.800186 139.397557,52.5081699 C139.610077,52.2172374 139.718483,51.87592 139.72063,51.483134 C139.723313,51.0914316 139.618663,50.8741803 139.40829,50.8324637 C139.196843,50.7907472 138.93978,50.8595524 138.636027,51.0383378 L138.504007,51.1158114 L138.49059,53.2921165 L138.49059,53.2921165 Z"/>
    <polyline fill="#BD1622" points="144.93 50.262 142.481 46.136 145.326 44.461 146.236 45.991 147.162 43.38 150.006 41.705 147.487 48.757 147.46 52.977 144.904 54.483 144.93 50.262"/>
    <path fill="#FFFFFF" d="M101.27061,72.3695956 L101.270073,72.3690538 C100.585287,72.0271945 99.63807,72.2222331 98.3752933,72.9655467 L97.22307,73.6443892 L97.1720867,81.7298206 L98.5990833,80.8900713 C99.8012167,80.181973 100.725893,79.2972565 101.34628,78.2603015 C101.968813,77.2190124 102.288667,76.0672014 102.296717,74.837375 C102.30423,73.5452446 101.959153,72.7152472 101.27061,72.3695956 L101.27061,72.3695956 Z M98.0672467,74.126026 L98.6436267,73.7868757 C99.5795733,73.2358918 100.296023,73.0565647 100.77151,73.2532285 C101.218017,73.4379734 101.44127,74.0339245 101.435367,75.0248287 C101.428927,76.0856217 101.15308,77.0559385 100.61534,77.9092321 C100.073307,78.7690271 99.3048,79.4960874 98.3312867,80.0692841 L98.0291433,80.2469859 L98.0672467,74.126026 L98.0672467,74.126026 Z"/>
    <polyline fill="#FFFFFF" points="105.514 76.818 108.765 74.904 108.772 73.921 106.371 75.335 106.387 72.744 108.667 71.401 108.674 70.418 106.393 71.761 106.409 69.215 108.809 67.801 108.816 66.818 105.565 68.733 105.514 76.818"/>
    <polyline fill="#FFFFFF" points="112.656 64.557 111.805 65.057 111.754 73.144 115.294 71.06 115.3 70.077 112.611 71.66 112.656 64.557"/>
    <polyline fill="#FFFFFF" points="117.767 69.603 118.618 69.102 118.669 61.017 117.818 61.517 117.767 69.603"/>
    <polyline fill="#FFFFFF" points="124.566 63.728 122.627 58.686 121.821 59.16 124.347 65.729 124.965 65.364 127.593 55.762 126.593 56.35 124.566 63.728"/>
    <polyline fill="#FFFFFF" points="130.598 62.048 133.848 60.134 133.855 59.151 131.454 60.565 131.47 57.974 133.751 56.631 133.758 55.648 131.477 56.991 131.493 54.444 133.893 53.031 133.899 52.048 130.648 53.962 130.598 62.048"/>
    <path fill="#FFFFFF" d="M141.34512,50.7452382 C141.34834,50.2614342 141.273207,49.8870685 141.11489,49.5988449 C140.948523,49.2976187 140.712927,49.0917447 140.414003,48.9871823 C140.132253,48.8891213 139.80274,48.8837036 139.434587,48.9709291 C139.08951,49.052737 138.713843,49.213102 138.317783,49.4466065 L136.889713,50.2874393 L136.83873,58.3728708 L137.689347,57.8722718 L137.7033,55.6369133 L138.555527,55.1352308 C138.799173,54.9916608 139.040137,54.8269616 139.275197,54.6427585 L140.376973,56.2897507 L141.2131,55.7972784 L139.9895,53.9742097 C140.37107,53.5565021 140.68502,53.0938274 140.92491,52.5953955 C141.199683,52.0238242 141.340827,51.4013262 141.34512,50.7452382 L141.34512,50.7452382 Z M137.73389,50.769618 L138.586117,50.2679355 C139.230117,49.8892356 139.741023,49.7505416 140.066243,49.86919 C140.355507,49.9753777 140.500943,50.3302395 140.497187,50.9256488 C140.492893,51.5936558 140.295937,52.2280729 139.912757,52.8104797 C139.523137,53.4026384 138.976273,53.9086551 138.287193,54.3144436 L137.70974,54.6546775 L137.73389,50.769618 L137.73389,50.769618 Z"/>
    <polyline fill="#FFFFFF" points="147.559 44.005 146.159 47.948 144.788 45.637 143.965 46.121 145.781 49.208 145.757 53.123 146.619 52.614 146.641 48.992 148.654 43.36 147.559 44.005"/>
    <polyline fill="#FFFFFF" points="81.685 95.621 150.031 56.334 150.031 60.692 81.685 100.607 81.685 95.621"/>
  </g>
</svg>
