<svg xmlns="http://www.w3.org/2000/svg" width="305" height="455" viewBox="0 0 305 455">
  <g fill="none" fill-rule="evenodd" transform="translate(0 37)">
    <g transform="translate(147.741)">
      <polygon fill="#207BA4" points="156.628 99.287 113.472 73.739 3.422 136.379 47.6 162.039" style="mix-blend-mode:multiply"/>
      <polyline fill="#2C2E33" points="43.436 146.485 151.61 83.424 108.52 58.047 .356 120.876 43.436 146.485"/>
      <polygon fill="#2C2E33" points="43.421 153.59 43.421 146.479 151.61 83.424 151.61 90.535"/>
      <path fill="#2C2E33" d="M139.366935,92.8801109 L132.664198,88.9427852 C131.050887,88.0181623 128.82328,88.1817983 126.363478,89.6524041 C121.438633,92.5967929 117.446238,99.665974 117.446238,105.441954 C117.446238,108.202583 118.359818,110.165686 119.85048,111.143795 L119.824797,111.187749 L126.645467,115.137784 L139.366935,92.8801109"/>
      <path fill="#5B5E67" d="M141.825165,98.6460292 C141.825165,104.42148 137.83277,111.490661 132.907924,114.435579 C127.983079,117.379968 123.990684,115.084828 123.990684,109.308848 C123.990684,103.533397 127.983079,96.4642159 132.907924,93.5192975 C137.83277,90.5749086 141.825165,92.8700492 141.825165,98.6460292"/>
      <path fill="#868C96" d="M137.632547,101.152996 C137.632547,104.212831 135.517107,107.957924 132.907924,109.518026 C130.298742,111.078129 128.183302,109.862244 128.183302,106.80188 C128.183302,103.742046 130.298742,99.996953 132.907924,98.4368505 C135.517107,96.8767481 137.632547,98.0926324 137.632547,101.152996"/>
      <path fill="#2C2E33" d="M70.7514086,132.967753 L64.0486711,129.030428 C62.4353598,128.105805 60.2077531,128.268911 57.7479512,129.740046 C52.823106,132.684435 48.8307107,139.753616 48.8307107,145.529597 C48.8307107,148.290226 49.7442915,150.253328 51.2349534,151.231437 L51.2092704,151.275391 L58.02994,155.224897 L70.7514086,132.967753"/>
      <path fill="#5B5E67" d="M73.2096381,138.733142 C73.2096381,144.509122 69.2172428,151.578303 64.2923975,154.522692 C59.3675523,157.467081 55.375157,155.17194 55.375157,149.39649 C55.375157,143.62051 59.3675523,136.551329 64.2923975,133.60694 C69.2172428,130.662551 73.2096381,132.957692 73.2096381,138.733142"/>
      <path fill="#5B5E67" d="M73.2096381,138.733142 C73.2096381,144.509122 69.2172428,151.578303 64.2923975,154.522692 C59.3675523,157.467081 55.375157,155.17194 55.375157,149.39649 C55.375157,143.62051 59.3675523,136.551329 64.2923975,133.60694 C69.2172428,130.662551 73.2096381,132.957692 73.2096381,138.733142"/>
      <path fill="#5B5E67" d="M73.2096381,138.733142 C73.2096381,144.509122 69.2172428,151.578303 64.2923975,154.522692 C59.3675523,157.467081 55.375157,155.17194 55.375157,149.39649 C55.375157,143.62051 59.3675523,136.551329 64.2923975,133.60694 C69.2172428,130.662551 73.2096381,132.957692 73.2096381,138.733142"/>
      <path fill="#868C96" d="M69.0170202,141.240109 C69.0170202,144.299943 66.9015801,148.045566 64.2923975,149.605669 C61.6832149,151.165771 59.5677748,149.949357 59.5677748,146.889523 C59.5677748,143.829689 61.6832149,140.084066 64.2923975,138.523963 C66.9015801,136.963861 69.0170202,138.180275 69.0170202,141.240109"/>
      <polyline fill="#C74C39" points="76.93 126.986 35.527 102.835 35.527 42.457 76.93 66.608 76.93 126.986"/>
      <path fill="#E85740" d="M76.9300033,66.6083248 L76.9300033,126.986302 L121.518303,100.97718 C123.957139,96.3233513 127.49982,92.1932634 131.444518,89.8351045 C135.507148,87.4054541 139.143127,87.3678549 141.586156,89.2711163 L149.3854,84.7216119 L149.3854,24.3431055 L76.9300033,66.6083248"/>
      <polyline fill="#EC6D54" points="76.93 66.608 149.385 24.343 107.982 .192 35.527 42.457 76.93 66.608"/>
      <polyline fill="#ECF0F3" points="31.978 56.463 73.381 80.614 45.876 108.964 4.473 84.813 31.978 56.463"/>
      <path fill="#B8BEC6" d="M45.8782146,145.100118 L4.47513077,120.948716 L4.47251005,84.8126973 L45.8755939,108.9641 L45.8782146,145.100118 Z M11.6401621,103.09068 L19.2444251,98.6883945 L11.6401621,94.2861095 L11.6401621,103.09068 Z"/>
      <polyline fill="#2C2E33" points="43.436 153.547 .356 127.937 .356 120.876 43.436 146.485 43.436 153.547"/>
      <path fill="#B8BEC6" d="M63.2409672,130.317803 C66.7563926,128.215425 69.9154009,128.114278 72.0953106,129.652138 L73.3810327,128.9171 L73.3810327,80.6142953 L45.8803111,108.986871 L45.8803111,145.213445 L54.4657693,140.090421 C56.6425341,136.007464 59.7674732,132.394233 63.2409672,130.317803"/>
      <polyline fill="#FFFFFF" points="12.55 123.938 6.681 120.352 6.681 112.215 12.55 115.801 12.55 123.938"/>
      <polyline fill="#FFFFFF" points="42.908 141.59 37.039 138.004 37.039 129.867 42.908 133.452 42.908 141.59"/>
      <polyline fill="#5B5E67" points="49.335 129.377 66.506 118.789 66.506 102.101 49.335 112.69 49.335 129.377"/>
      <polyline fill="#868C96" points="35.346 136.902 14.461 124.489 14.325 117.18 35.21 129.592 35.346 136.902"/>
      <path fill="#5B5E67" d="M43.2632664,127.385595 L6.68072344,105.732686 L6.68072344,91.252224 L43.2632664,112.904603 L43.2632664,127.385595 Z M11.6401621,103.09068 L19.2444251,98.6883945 L11.6401621,94.2861095 L11.6401621,103.09068 Z"/>
      <path fill="#B8BEC6" d="M51.0677519,125.24244 L51.0677519,125.24244 C49.8145266,124.835733 48.7887792,123.619319 48.7887792,122.540063 L48.7887792,114.802569 C48.7887792,113.723313 49.8145266,113.173093 51.0677519,113.58033 C52.3209772,113.987037 53.3467246,115.202921 53.3467246,116.282707 L53.3467246,124.0202 C53.3467246,125.099457 52.3209772,125.649676 51.0677519,125.24244"/>
      <polyline fill="#F29100" points="45.264 143.028 42.992 141.665 42.992 133.442 45.264 134.805 45.264 143.028"/>
      <polyline fill="#F29100" points="6.644 120.442 4.371 119.08 4.371 110.856 6.644 112.219 6.644 120.442"/>
      <path fill="#BD1622" d="M93.9903255,81.2667211 L94.0500778,71.6783929 L96.2189805,70.4005493 C96.9533045,69.9673641 97.6074346,69.6824574 98.1803226,69.5458292 C98.7537348,69.4076124 99.2364703,69.424029 99.628529,69.5940198 C100.020064,69.7645401 100.318301,70.0875756 100.521668,70.5647149 C100.725036,71.0413246 100.824099,71.6736268 100.819381,72.4584441 C100.814664,73.2443206 100.706691,73.998423 100.495461,74.7186333 C100.284756,75.4399026 99.9802288,76.1182771 99.5834528,76.7532271 C99.1866767,77.3881772 98.7002722,77.9781141 98.1242394,78.5225083 C97.5482065,79.0674321 96.8935522,79.5562218 96.1587041,79.9888775 L93.9903255,81.2667211 L93.9903255,81.2667211 Z M96.5041141,77.0640826 C97.0901057,76.7188053 97.5445375,76.2813835 97.8674094,75.7528763 C98.1897572,75.22331 98.3532897,74.609013 98.3574829,73.9094559 C98.3622002,73.2098988 98.2044332,72.7867753 97.8873268,72.6400854 C97.5681239,72.4933955 97.1163129,72.5934835 96.5297971,72.9387608 L96.5041141,77.0640826 L96.5041141,77.0640826 Z"/>
      <polyline fill="#BD1622" points="102.197 66.877 106.804 64.162 106.788 66.678 104.679 67.921 104.672 68.986 106.746 67.763 106.731 70.15 104.657 71.372 104.65 72.478 106.842 71.186 106.826 73.702 102.137 76.466 102.197 66.877"/>
      <polyline fill="#BD1622" points="108.293 63.285 110.894 61.752 110.85 68.825 113.007 67.554 112.991 70.07 108.232 72.874 108.293 63.285"/>
      <polyline fill="#BD1622" points="114.165 59.824 116.814 58.263 116.754 67.852 114.105 69.413 114.165 59.824"/>
      <polyline fill="#BD1622" points="120.424 56.136 121.723 59.524 123.085 54.568 125.816 52.958 122.709 64.343 120.681 65.538 117.693 57.745 120.424 56.136"/>
      <polyline fill="#BD1622" points="126.696 52.44 131.302 49.725 131.286 52.241 129.177 53.484 129.17 54.548 131.244 53.326 131.23 55.712 129.155 56.935 129.148 58.041 131.34 56.749 131.324 59.265 126.636 62.029 126.696 52.44"/>
      <path fill="#BD1622" d="M132.791041,48.8471993 L135.487231,47.2590298 C135.987263,46.9640614 136.449557,46.7728879 136.874637,46.6849799 C137.299716,46.5970719 137.667141,46.6182545 137.977957,46.7506461 C138.28825,46.8830377 138.52988,47.1287565 138.702847,47.4904503 C138.875814,47.8521441 138.960201,48.334579 138.956532,48.9382847 C138.953387,49.4170126 138.896255,49.8570823 138.785137,50.2569049 C138.673495,50.6567274 138.550321,51.0057117 138.416141,51.3043871 C138.258374,51.6459574 138.081737,51.9599902 137.88466,52.2475447 L139.330245,54.5469218 L136.400288,56.2738376 L135.24298,54.5352713 L135.228304,56.9649217 L132.731288,58.436057 L132.791041,48.8471993 L132.791041,48.8471993 Z M135.258705,52.0913227 L135.387644,52.0155947 C135.684309,51.8408378 135.936421,51.6104764 136.144506,51.3250402 C136.352066,51.040663 136.457943,50.7070362 136.46004,50.3231007 C136.462661,49.9402242 136.360453,49.7278681 136.154989,49.6870915 C135.948476,49.6463149 135.697412,49.7135698 135.400747,49.8883267 L135.271808,49.9640547 L135.258705,52.0913227 L135.258705,52.0913227 Z"/>
      <polyline fill="#BD1622" points="141.548 49.129 139.156 45.096 141.934 43.459 142.824 44.954 143.727 42.403 146.506 40.765 144.045 47.658 144.019 51.784 141.522 53.255 141.548 49.129"/>
      <path fill="#FFFFFF" d="M98.9073086,70.7389422 L98.9067845,70.7384126 C98.2379783,70.4042563 97.3128664,70.5949002 96.0795585,71.3214652 L94.954224,71.9850118 L94.9044305,79.8882599 L96.298126,79.0674321 C97.4722058,78.3752888 98.3753037,77.510507 98.9812127,76.496917 C99.5892183,75.4790905 99.9016074,74.3532325 99.9094695,73.1511169 C99.9168075,71.8881012 99.5797838,71.0768055 98.9073086,70.7389422 L98.9073086,70.7389422 Z M95.7787006,72.4557963 L96.3416299,72.1242878 C97.2557348,71.5857188 97.9554654,71.4104323 98.4198559,71.6026649 C98.8559426,71.783247 99.073986,72.36577 99.0682204,73.3343468 C99.0619307,74.3712377 98.7925214,75.3196911 98.2673303,76.153758 C97.7379462,76.9941798 96.9873737,77.7048579 96.0365788,78.265139 L95.7414864,78.4388368 L95.7787006,72.4557963 L95.7787006,72.4557963 Z"/>
      <polyline fill="#FFFFFF" points="103.052 75.087 106.226 73.216 106.233 72.256 103.888 73.638 103.904 71.105 106.132 69.792 106.138 68.831 103.91 70.144 103.926 67.655 106.27 66.273 106.276 65.312 103.101 67.184 103.052 75.087"/>
      <polyline fill="#FFFFFF" points="110.027 63.103 109.196 63.591 109.146 71.496 112.603 69.459 112.609 68.498 109.983 70.046 110.027 63.103"/>
      <polyline fill="#FFFFFF" points="115.019 68.034 115.85 67.545 115.899 59.642 115.069 60.131 115.019 68.034"/>
      <polyline fill="#FFFFFF" points="121.659 62.292 119.766 57.364 118.978 57.827 121.445 64.248 122.049 63.892 124.615 54.505 123.639 55.08 121.659 62.292"/>
      <polyline fill="#FFFFFF" points="127.55 60.65 130.725 58.779 130.732 57.819 128.387 59.2 128.402 56.667 130.63 55.355 130.636 54.394 128.409 55.707 128.424 53.218 130.768 51.836 130.774 50.875 127.599 52.746 127.55 60.65"/>
      <path fill="#FFFFFF" d="M138.04662,49.6018313 C138.049765,49.1289286 137.976385,48.7629982 137.821763,48.4812689 C137.659278,48.18683 137.42918,47.9855948 137.137232,47.8833885 C136.862057,47.787537 136.540234,47.7822413 136.180672,47.8675015 C135.843648,47.947466 135.476748,48.1042177 135.089931,48.3324608 L133.695187,49.1543477 L133.645393,57.0575958 L134.47616,56.5682765 L134.489787,54.3832858 L135.322126,53.8929074 C135.560087,53.7525723 135.795427,53.5915841 136.025001,53.4115315 L137.101066,55.0214132 L137.917681,54.5400374 L136.722635,52.7580467 C137.095301,52.349751 137.401924,51.8975014 137.636216,51.4103003 C137.904577,50.8516079 138.042427,50.2431361 138.04662,49.6018313 L138.04662,49.6018313 Z M134.519663,49.6256618 L135.352002,49.1352833 C135.980973,48.7651165 136.479957,48.6295475 136.797588,48.7455225 C137.080101,48.8493175 137.222143,49.1961835 137.218474,49.7781769 C137.214281,50.4311322 137.021921,51.0512544 136.647683,51.6205382 C136.267155,52.1993542 135.733054,52.6939692 135.060055,53.0906143 L134.496077,53.423182 L134.519663,49.6256618 L134.519663,49.6256618 Z"/>
      <polyline fill="#FFFFFF" points="144.115 43.013 142.748 46.868 141.409 44.609 140.605 45.081 142.379 48.099 142.355 51.926 143.197 51.429 143.219 47.888 145.185 42.383 144.115 43.013"/>
      <polyline fill="#FFFFFF" points="79.779 93.466 146.529 55.065 146.529 59.324 79.779 98.34 79.779 93.466"/>
    </g>
    <g transform="translate(162.585 223.709)">
      <polygon fill="#207BA4" points="127.765 131.801 44.768 85.605 1.021 110.923 84.451 156.852" style="mix-blend-mode:multiply"/>
      <g transform="translate(.203)">
        <polyline fill="#2C2E33" points="91.684 94.273 70.226 109.774 69.764 112.666 93.439 96.904 98.196 117.399 99.849 117.399 97.118 96.095 119.708 101.502 118.776 99.546 95.537 92.19 81.028 92.19 80.996 94.737 91.684 94.273"/>
        <path fill="#2C2E33" d="M87.3935862,111.164537 L86.7349544,114.15127 L84.9639559,117.962068 C84.9639559,117.962068 85.2137817,119.246669 85.5376666,120.134238 C85.9252422,121.196821 90.046381,122.448919 90.4112452,122.440418 C91.5394113,122.413916 93.5735663,120.075733 93.5735663,120.075733 L100.164327,108.168803 L99.7737892,105.106564 L98.7409124,104.434511 L87.3935862,111.164537"/>
        <path fill="#3E6696" d="M96.1939691,94.3511789 L97.3570082,99.4938732 L98.7166728,104.269267 L98.1361363,108.499127 L95.3204608,112.50201 C95.3204608,112.50201 93.5818008,113.602925 91.5467281,112.759021 C89.5116553,111.915609 86.7421867,110.838819 86.7421867,110.838819 L85.4670711,105.246601 L84.2401287,101.254551 L96.1939691,94.3511789"/>
        <path fill="#2C2E33" d="M57.9994182,100.713613 L56.8961999,103.571055 L54.5632132,107.074566 C54.5632132,107.074566 54.6182997,108.386253 54.8063878,109.315009 C55.0316964,110.427211 58.9378733,112.301765 59.3021388,112.349381 C60.4266969,112.496739 62.7993855,110.493372 62.7993855,110.493372 L71.1387829,99.7101747 L71.211239,96.6166592 L70.2861832,95.7916549 L57.9994182,100.713613"/>
        <path fill="#003569" d="M58.444275,87.1487988 L58.0753496,92.3824677 L57.4585221,97.28447 L58.6633854,101.357061 L62.0276331,104.868709 C62.0276331,104.868709 63.8995877,105.688812 65.7695902,104.55174 C67.6395927,103.414177 70.1957183,101.93711 70.1957183,101.93711 L70.6070993,96.244399 L71.211239,92.1326155 L58.444275,87.1487988"/>
        <path fill="#2C2E33" d="M76.6440892,112.403158 L75.6635984,118.84073 L74.830375,122.954828 C74.830375,122.954828 75.3574372,124.142758 75.8660911,124.928058 C76.4750223,125.868524 80.6895826,126.116986 81.0359516,126.023189 C82.1070312,125.732817 83.5220577,122.986759 83.5220577,122.986759 L87.1354375,109.885107 L86.0740465,107.005338 L84.9375686,106.595225 L76.6440892,112.403158"/>
        <path fill="#003569" d="M80.1113341,98.672607 L78.2722605,103.761968 L76.2780294,108.452847 L76.3393826,112.831607 L80.59861,114.345234 C80.59861,114.345234 82.2399337,115.685125 84.4293794,115.082098 C86.6188251,114.479072 87.5984474,113.536148 87.5984474,113.536148 L89.7189342,111.113437 L91.4784007,107.203866 L80.1113341,98.672607"/>
        <path fill="#2C2E33" d="M93.7614081,23.9665188 C94.5779259,22.5613022 117.156461,29.0389595 119.369215,29.9709859 C121.581477,30.9025172 112.224438,68.0162713 112.224438,68.0162713 L105.379838,74.9047527 L91.4784007,38.6037375 C91.4784007,38.6037375 92.6402928,25.8964023 93.7614081,23.9665188"/>
        <polyline fill="#868C96" points="44.414 85.853 1 110.917 1.015 54.594 44.43 29.53 44.414 85.853"/>
        <polyline fill="#B8BEC6" points="84.206 101.644 84.24 105.155 1 57.5 1.015 54.018 84.206 101.644"/>
        <polyline fill="#B9BEC6" points="127.655 132.051 84.24 157.012 84.255 101.306 127.67 76.345 127.655 132.051"/>
        <polyline fill="#2B2E32" points=".924 54.249 44.053 28.81 127.67 76.531 84.224 102.042"/>
        <path fill="#CBD1D8" d="M62.5515194,76.9020152 L79.6157417,67.1088388 C80.0356285,66.8676227 79.9790764,66.4444976 79.4901259,66.1683948 L56.1881564,52.8048207 C55.6997064,52.5287179 54.9565216,52.4998118 54.5371352,52.741028 L37.4724125,62.5342044 C37.0530261,62.7754205 37.1095782,63.1980472 37.5980282,63.47415 L60.8999977,76.8382225 C61.3889482,77.1143253 62.1316325,77.142733 62.5515194,76.9020152"/>
        <path fill="#B8BEC6" d="M64.3357853 64.7781313L68.9633519 62.1858162C69.077368 62.1217191 69.0620007 62.0099108 68.9291471 61.936657L62.6101764 58.3992722C62.4778186 58.3265003 62.2760597 58.3187894 62.1625393 58.3824045L57.5349727 60.9752016C57.4209566 61.0388167 57.436324 61.1506251 57.5686818 61.2238788L63.8881482 64.7612637C64.020506 64.8345174 64.2217692 64.8417464 64.3357853 64.7781313M61.7754471 78.5059428C61.4725024 78.496041 61.1600437 78.4202922 60.9131814 78.2811719L37.5984579 65.0058298C37.3295632 64.8553225 37.1963676 64.6607521 37.1963676 64.4760836L37.1913603 64.4815296 37.1913603 63.3809446C37.3540992 63.7854331 37.7106225 63.9364355 37.7106225 63.9364355L60.9131814 77.147911C61.1675548 77.2904969 61.4905288 77.3667408 61.8014853 77.3731769L61.7754471 78.5059428"/>
        <path fill="#868C96" d="M61.8274533,77.3549069 C62.1131009,77.3609376 62.3882615,77.307164 62.5890139,77.1905708 L79.3793042,67.4530304 C79.3793042,67.4530304 79.7593354,67.290202 79.8971654,66.9821346 L79.8971654,68.0309707 L79.892671,68.0329809 C79.9026587,68.1948042 79.8142677,68.3510994 79.6165116,68.4656823 L62.5890139,78.3409233 C62.3822689,78.4610344 62.0961219,78.514808 61.8014853,78.5047568 L61.8274533,77.3549069"/>
        <polyline fill="#5B5E67" points="41.534 63.137 60.762 74.185 69.04 69.387 49.812 58.339 41.534 63.137"/>
        <path fill="#B8BEC6" d="M56.9185533,55.2462152 L33.5982918,41.8644826 C33.1834006,41.6226441 32.8459293,41.8814014 32.8484107,42.4402176 L36.9715163,62.0336178 C36.974494,62.5919364 37.3164318,63.247289 37.7318193,63.4891275 L61.0515846,76.9748606 C61.4669721,77.2166991 61.8044434,76.9574442 61.8014657,76.3991256 L57.6783601,56.7017249 C57.6758787,56.1434063 57.3339409,55.4885513 56.9185533,55.2462152"/>
        <path fill="#2C2E33" d="M82.388025,7.20238007 C82.388025,7.20238007 79.9992634,8.0318973 79.9095046,10.290837 C79.8496653,11.8041658 79.9095046,12.9512209 82.4302331,14.4047601 L82.7924743,8.52980861 L82.388025,7.20238007"/>
        <path fill="#EED2B7" d="M95.7152399,19.7838196 C95.7152399,19.7838196 95.7269186,22.6640444 95.9493222,23.7110826 C96.1717258,24.757624 97.2690184,25.6019135 97.2690184,25.6019135 L95.7259031,26.7428721 L87.1968778,33.1309483 L85.9822901,32.1112414 L83.7668863,26.4198655 L83.453084,20.6976797 L84.3437139,19.3331012 L82.8843808,16.9284414 L82.1044449,14.7086408 L81.3448199,10.3664386 L81.5941353,7.89568672 L82.5421433,5.94820552 L87.4969703,3.60119003 L93.8816797,9.31940033 L96.6129786,13.5155042 L95.7152399,19.7838196"/>
        <path fill="#925F36" d="M85.1052333,1.12028307 C85.1052333,1.12028307 82.8433757,2.52710874 82.1812464,3.61193087 C81.5191171,4.69675301 81.3448199,9.64561751 81.3448199,9.64561751 C81.3448199,9.64561751 81.4585138,8.93517297 82.3911043,8.81587649 C83.8691251,8.62674791 83.2811223,7.42844862 83.989831,7.44590665 C84.6980388,7.46336467 84.2067008,7.05504091 85.7954104,9.41623849 C87.3836191,11.7774361 86.6598848,10.50688 87.7948204,10.4026168 C88.930257,10.2988385 91.129007,9.99768764 91.7079944,11.1227602 C92.2869819,12.2473478 93.2987074,15.512483 93.2987074,15.512483 C93.2987074,15.512483 93.3943706,13.6134381 94.3039218,13.2550637 C95.2139739,12.8962044 95.4939514,13.5324523 95.5225001,14.1895529 C95.5335189,14.4431792 95.0752373,16.6792609 94.2883954,17.2199747 C93.6788558,17.6379973 96.1160124,15.9256562 96.1160124,15.9256562 C96.1160124,15.9256562 97.677175,11.0500185 97.9696738,8.48417405 C98.2426394,6.09048516 96.0138381,3.44413988 96.0138381,3.44413988 C96.0138381,3.44413988 93.9763632,1.18866033 90.7779082,0.82883108 C87.5789523,0.468516888 85.1052333,1.12028307 85.1052333,1.12028307"/>
        <path fill="#2C2E33" d="M92.9266581,15.2583555 C92.9302791,15.7044864 93.0430495,16.1404449 93.2618655,16.5361984 C93.6379392,17.2162936 94.311975,18.1584484 95.093091,17.9850338 C96.0842289,17.7656014 98.0039119,14.5240076 96.9739768,12.8717248 C95.9445591,11.2189577 94.4537139,11.3715432 93.6917379,11.8375344 C93.0471879,12.2313502 92.9157949,14.0023106 92.9266581,15.2583555"/>
        <path fill="#A4978B" d="M84.2401287,19.4464262 C84.6371927,20.2948826 85.0031643,20.8447407 85.242728,21.1469805 C86.0847687,22.2082013 87.3773929,23.2605786 88.4146524,22.9099596 C89.4524217,22.5588203 93.6498824,19.6539885 93.6498824,19.6539885 C93.6498824,19.6539885 91.7981064,23.4322467 91.2109207,23.9290437 C90.6232252,24.4263609 87.949797,25.6186737 86.8952073,25.064654 C85.8406176,24.5111545 84.2401287,19.4464262 84.2401287,19.4464262"/>
        <path fill="#2C2E33" d="M96.4955268 9.58237247C96.4955268 9.58187338 96.4960163 9.58187338 96.4960163 9.58137428 96.7221634 9.03087249 96.1837181 4.76710389 94.5600608 2.94790261 92.935914 1.12870133 91.4693849-.26477192 88.2044485.0426706014 88.2044485.0426706014 85.8514426.92756604 86.5367366.84072351 88.093333.643580984 90.2534776.949027125 91.2921875 1.37575335 94.3662205 2.63846371 95.3623443 7.1932047 95.5390522 8.14597706L95.5096825 8.12301869C95.8645669 9.01090869 95.4019934 11.6316566 95.4905921 11.7160036L96.1822496 12.2440461C96.1146992 12.1796629 96.5253861 10.5760706 96.4955268 9.58237247M93.3077284 15.8452362C93.3077284 15.8452362 91.6194871 18.0001273 90.0434197 18.2912757 90.0434197 18.2912757 89.9523664 18.7822511 90.2583807 18.7208792 90.5639256 18.6595073 91.5969584 18.2269579 91.6434238 18.1179614 91.6898891 18.0084739 91.9653958 17.606365 91.9653958 17.606365L93.6498824 15.9115178 93.3077284 15.8452362"/>
        <path fill="#EED2B7" d="M79.6853727,60.6112749 C79.6853727,60.6112749 75.1213396,60.2092347 74.4655122,60.9334983 C73.8096849,61.6577619 75.1243688,62.0396016 75.1243688,62.0396016 C75.1243688,62.0396016 70.9455522,64.0448757 70.805198,64.5750169 C70.6653488,65.1056509 69.7151817,65.0100678 71.966906,66.7192314 C74.2186303,68.4283949 80.4765054,67.3897911 80.4765054,67.3897911 L85.6877831,65.0425857 L85.6877831,60.938918 L79.6853727,60.6112749"/>
        <path fill="#EC6D54" d="M108.125586,54.4373213 C108.125586,54.4373213 108.083494,57.6362784 105.999723,58.9846646 C103.915951,60.3330507 82.9890987,66.2618966 82.9890987,66.2618966 L83.4733974,64.7424909 L82.5454058,61.5969156 L79.1751229,60.7650483 L90.3724249,55.4713476 L73.7532558,46.2348038 L66.2411794,56.5548016 L60.3538309,53.692941 C60.3538309,53.692941 68.4249801,39.2106412 69.1469713,37.9013029 C70.1536985,36.07594 70.8514253,31.28047 70.8514253,31.28047 C70.7489204,30.6003456 72.2107299,24.6072438 73.2437023,22.8046176 C73.5492363,22.2712933 76.1965376,20.7548532 77.6078374,20.8803994 C79.0196323,21.0064399 83.3916905,20.1666642 83.3916905,20.1666642 C83.3916905,20.1666642 83.9373931,22.612344 84.2310425,23.8633577 C84.7604037,26.1182468 87.1313874,29.6982911 87.1313874,29.6982911 C87.1313874,29.6982911 91.33508,27.9025848 92.6458556,27.289682 C95.0767576,26.1523519 95.578388,23.1639565 95.578388,23.1639565 C95.578388,23.1639565 102.882483,28.5337758 104.000629,29.8638737 C105.118775,31.1944659 106.205723,35.702267 106.281487,36.7377762 C106.652882,41.804604 108.167182,54.7645323 108.125586,54.4373213"/>
        <path fill="#C74C39" d="M98.5009396 47.1283305C98.8754764 46.7300117 97.3818233 35.2916623 97.3818233 35.2916623L95.3713094 47.6243964 92.2022279 55.4583265 98.7166728 51.1066318 98.5009396 47.1283305M74.1065478 46.5433768C74.2283318 46.2011134 75.5806514 44.7117523 76.2196648 41.7659306 77.559759 35.5884949 78.9200722 28.8095203 78.9200722 28.8095203L77.7666507 44.406809 79.8971654 49.6964225 74.1065478 46.5433768"/>
        <path fill="#EED2B7" d="M60.1857013,53.7277143 L58.4607182,55.4099118 C58.4607182,55.4099118 57.8343881,59.1853039 58.4607182,59.3807602 C59.0870483,59.5762164 62.6704186,62.4904253 63.1772515,61.8482118 C63.6840844,61.2059984 65.1056889,57.8342553 65.1056889,57.8342553 C65.1056889,57.8342553 64.9913424,59.8515208 65.1056889,59.9142235 C65.2195202,59.9769263 66.2738769,60.2546799 66.1312014,58.395641 C65.9885258,56.5370919 66.0353976,54.5717522 66.0353976,54.5717522 L62.5715244,53.2976125 L60.1857013,53.7277143"/>
        <polyline fill="#868C96" points="69.764 83.361 82.471 90.75 101.612 80.86 88.689 73.464 69.764 83.361"/>
        <polyline fill="#FFFFFF" points="71.935 83.361 84.642 90.75 103.783 80.86 90.861 73.464 71.935 83.361"/>
        <polyline fill="#868C96" points="79.897 83.361 92.604 90.75 111.746 80.86 98.823 73.464 79.897 83.361"/>
        <polyline fill="#FFFFFF" points="80.621 83.361 93.328 90.75 112.469 80.86 99.547 73.464 80.621 83.361"/>
        <path fill="#C91324" d="M39.7116517,15.7789815 L39.7116517,15.7789815 C39.4994686,15.4576308 37.308522,11.4155056 35.8609408,10.2839824 C33.504211,8.44228396 32.9720618,6.48214206 32.9720618,6.48214206 L29.6307836,7.05979656 C29.6307836,7.05979656 29.8763165,9.31556164 28.7119683,11.5198718 C27.5060535,13.8028206 27.3567037,17.0973929 27.1773873,17.7900929 C27.1198707,17.9624184 27.0884541,18.1328022 27.0700874,18.3027006 C27.0671874,18.3274572 27.0652541,18.3439616 27.0652541,18.3439616 L27.0667041,18.3439616 C26.9632709,19.5021832 27.7598031,20.5662325 29.4089339,21.1579643 C32.180363,22.1521125 36.2901402,21.4409664 38.5898367,19.5682008 C40.108951,18.3298843 40.4501839,16.8969128 39.7116517,15.7789815"/>
        <path fill="#868C96" d="M30.6655274,13.5752592 C30.7357777,13.9686918 30.4737257,14.3360381 30.0804168,14.396336 C29.6866457,14.4566338 29.3108993,14.1867903 29.2406491,13.7933577 C29.1703988,13.4003528 29.4324507,13.0330065 29.8257597,12.9727086 C30.2190686,12.9124108 30.5952772,13.1822543 30.6655274,13.5752592"/>
        <path fill="#A0141E" d="M15.7445198,57.7286485 C12.4957809,55.9246137 12.4912414,52.9634352 15.7349365,51.1120053 C18.9816579,49.2595671 24.2529777,49.2197351 27.5087781,51.0247784 C30.7655872,52.8303258 30.7681091,55.7970505 27.5148307,57.6484804 C24.2640742,59.4983976 18.9947719,59.5336918 15.7445198,57.7286485"/>
        <path fill="#C91324" d="M15.7445198,57.008858 C12.4957809,55.2043317 12.4912414,52.2431741 15.7349365,50.3917573 C18.9816579,48.5393321 24.2529777,48.4995005 27.5087781,50.304531 C30.7655872,52.1100657 30.7681091,55.0762653 27.5148307,56.9281863 C24.2640742,58.7780905 18.9947719,58.8133843 15.7445198,57.008858"/>
        <path fill="#A0141E" d="M29.9530882,13.5816785 L29.5391733,12.9642841 L28.4860229,13.6642284 L26.4214114,13.4778732 L3.89530882,30.2819737 L4.03873977,31.2602151 L20.3228667,51.2718993 L20.7551447,52.5773745 L22.0102896,52.3618549 L21.3869357,50.4345366 L22.766652,49.3485354 L7.89301211,31.0644679 L27.4695988,16.5312319 L29.1287325,14.3849338 L29.9530882,13.5816785 L29.9530882,13.5816785 Z M21.5770189,49.292184 L20.68467,50.0815986 L20.2891182,49.7731485 L5.21298756,31.3051974 L6.99967059,31.372918 L21.5770189,49.292184 L21.5770189,49.292184 Z M26.7752739,15.8915935 L7.05227848,30.5662025 L5.19363183,30.3986311 L26.6611248,14.4580918 L27.8497653,14.4818187 L26.7752739,15.8915935 L26.7752739,15.8915935 Z"/>
        <path fill="#868C96" d="M13.8511292 26.6144101L7.8836676 28.7952703C7.75033014 28.8439922 7.60722438 28.7637118 7.56522064 28.6164387L7.52614739 28.4791314C7.48414365 28.3318583 7.55887124 28.171851 7.69172027 28.1231291L13.6591818 25.9428225C13.7925193 25.8941006 13.9356251 25.9743811 13.9776288 26.1211005L14.0171905 26.2589615C14.0591942 26.4056809 13.9844666 26.5656882 13.8511292 26.6144101M21.5240643 48.9472047L15.6195996 45.9871681C15.4877498 45.9214237 15.4380445 45.7627127 15.5086783 45.6353331L15.5751264 45.5161714C15.6457603 45.3882781 15.811619 45.3379426 15.9434688 45.4042006L21.8479335 48.3642372C21.9797833 48.4299816 22.0294886 48.5886926 21.9588548 48.7160722L21.8929299 48.8352339C21.8217728 48.9631272 21.6559141 49.0129491 21.5240643 48.9472047"/>
        <polyline fill="#868C96" points="30.773 7.202 30.677 5.922 31.249 5.762 31.401 7 30.773 7.202"/>
      </g>
    </g>
    <g transform="translate(.25 116.78)">
      <path fill="#171615" d="M0,9.79914009 C0,6.12081925 2.94117132,2.67915895 6.57834696,2.18651126 C6.57834696,2.18651126 17.7334758,0 42.2149156,0 C66.6963553,0 77.8514841,2.18651126 77.8514841,2.18651126 C81.4846049,2.71252922 84.4298311,6.11711191 84.4298311,9.79914009 L84.4298311,156.212343 C84.4298311,159.890664 81.5162549,163.48529 77.8919203,164.110074 C77.8919203,164.110074 69.7782311,166.558244 42.2149156,166.558244 C14.6516,166.558244 6.53791081,164.110074 6.53791081,164.110074 C2.92712237,163.426599 0,159.894372 0,156.212343 L0,9.79914009 Z"/>
      <path fill="#000000" d="M57.1441087,0.454194191 C66.1688962,0.454194191 77.8565703,2.3508535 77.8565703,2.3508535 C81.486882,2.8705187 84.4298311,6.2757882 84.4298311,9.93975626 L84.4298311,156.69046 C84.4298311,160.36203 81.5162549,163.952384 77.8919203,164.578393 C77.8919203,164.578393 69.7782311,167.03136 42.2149156,167.03136 C14.6516,167.03136 6.53791081,164.578393 6.53791081,164.578393 C2.92712237,163.893578 0,160.358469 0,156.680454 L0,146.117728 L56.0420642,0.989320362 C56.0420642,0.989320362 56.824501,0.454194191 57.1441087,0.454194191 Z"/>
      <rect width="75.987" height="133.922" x="4.503" y="13.505" fill="#FFFFFF"/>
      <g transform="translate(4.503 13.505)">
        <rect width="3.352" height="61.481" x="17.879" fill="#E85740"/>
        <rect width="3.352" height="61.481" x="17.879" y="66.515" fill="#DBD9DB"/>
        <ellipse cx="19.555" cy="57.014" fill="#FFFFFF" stroke="#E85740" stroke-width="2.212" rx="9.498" ry="9.502"/>
        <ellipse cx="19.555" cy="27.95" fill="#FFFFFF" stroke="#E85740" stroke-width="1.106" rx="5.029" ry="5.03"/>
        <ellipse cx="19.555" cy="10.064" fill="#FFFFFF" stroke="#E85740" stroke-width="1.106" rx="5.029" ry="5.03"/>
        <ellipse cx="19.555" cy="98.374" fill="#FFFFFF" stroke="#DBD9DB" stroke-width="1.106" rx="5.029" ry="5.03"/>
        <rect width="33.524" height="4.471" x="35.759" y="48.63" fill="#777675"/>
        <rect width="33.524" height="4.471" x="35.759" y="55.337" fill="#D8D8D8"/>
        <rect width="33.524" height="4.471" x="35.759" y="62.044" fill="#D8D8D8"/>
        <rect width="33.524" height="4.471" x="35.759" y="73.222" fill="#D8D8D8"/>
        <rect width="33.524" height="4.471" x="35.759" y="95.579" fill="#D8D8D8"/>
        <rect width="75.987" height="22.508" y="111.414" fill="#777675"/>
        <rect width="33.524" height="4.471" x="35.759" y="26.273" fill="#D8D8D8"/>
        <rect width="33.524" height="4.471" x="35.759" y="8.388" fill="#D8D8D8"/>
      </g>
    </g>
    <path fill="#FFFFFF" d="M98.5811325,166.648338 C97.4260684,166.648338 96.4897039,165.711203 96.4897039,164.555187 C96.4897039,163.399172 97.4260684,162.462037 98.5811325,162.462037 C99.7361966,162.462037 100.672561,163.399172 100.672561,164.555187 C100.672561,165.711203 99.7361966,166.648338 98.5811325,166.648338 Z M109.038275,166.648338 C107.883211,166.648338 106.946847,165.711203 106.946847,164.555187 C106.946847,163.399172 107.883211,162.462037 109.038275,162.462037 C110.193339,162.462037 111.129704,163.399172 111.129704,164.555187 C111.129704,165.711203 110.193339,166.648338 109.038275,166.648338 Z M119.495418,166.648338 C118.340354,166.648338 117.40399,165.711203 117.40399,164.555187 C117.40399,163.399172 118.340354,162.462037 119.495418,162.462037 C120.650482,162.462037 121.586847,163.399172 121.586847,164.555187 C121.586847,165.711203 120.650482,166.648338 119.495418,166.648338 Z M129.952561,166.648338 C128.797497,166.648338 127.861132,165.711203 127.861132,164.555187 C127.861132,163.399172 128.797497,162.462037 129.952561,162.462037 C131.107625,162.462037 132.04399,163.399172 132.04399,164.555187 C132.04399,165.711203 131.107625,166.648338 129.952561,166.648338 Z M140.409704,166.648338 C139.25464,166.648338 138.318275,165.711203 138.318275,164.555187 C138.318275,163.399172 139.25464,162.462037 140.409704,162.462037 C141.564768,162.462037 142.501132,163.399172 142.501132,164.555187 C142.501132,165.711203 141.564768,166.648338 140.409704,166.648338 Z M150.866847,166.648338 C149.711783,166.648338 148.775418,165.711203 148.775418,164.555187 C148.775418,163.399172 149.711783,162.462037 150.866847,162.462037 C152.021911,162.462037 152.958275,163.399172 152.958275,164.555187 C152.958275,165.711203 152.021911,166.648338 150.866847,166.648338 Z" transform="rotate(-30 124.724 164.555)"/>
    <path fill="#FFFFFF" d="M98.5811325,240.606329 C97.4260684,240.606329 96.4897039,239.669193 96.4897039,238.513178 C96.4897039,237.357163 97.4260684,236.420028 98.5811325,236.420028 C99.7361966,236.420028 100.672561,237.357163 100.672561,238.513178 C100.672561,239.669193 99.7361966,240.606329 98.5811325,240.606329 Z M109.038275,240.606329 C107.883211,240.606329 106.946847,239.669193 106.946847,238.513178 C106.946847,237.357163 107.883211,236.420028 109.038275,236.420028 C110.193339,236.420028 111.129704,237.357163 111.129704,238.513178 C111.129704,239.669193 110.193339,240.606329 109.038275,240.606329 Z M119.495418,240.606329 C118.340354,240.606329 117.40399,239.669193 117.40399,238.513178 C117.40399,237.357163 118.340354,236.420028 119.495418,236.420028 C120.650482,236.420028 121.586847,237.357163 121.586847,238.513178 C121.586847,239.669193 120.650482,240.606329 119.495418,240.606329 Z M129.952561,240.606329 C128.797497,240.606329 127.861132,239.669193 127.861132,238.513178 C127.861132,237.357163 128.797497,236.420028 129.952561,236.420028 C131.107625,236.420028 132.04399,237.357163 132.04399,238.513178 C132.04399,239.669193 131.107625,240.606329 129.952561,240.606329 Z M140.409704,240.606329 C139.25464,240.606329 138.318275,239.669193 138.318275,238.513178 C138.318275,237.357163 139.25464,236.420028 140.409704,236.420028 C141.564768,236.420028 142.501132,237.357163 142.501132,238.513178 C142.501132,239.669193 141.564768,240.606329 140.409704,240.606329 Z M150.866847,240.606329 C149.711783,240.606329 148.775418,239.669193 148.775418,238.513178 C148.775418,237.357163 149.711783,236.420028 150.866847,236.420028 C152.021911,236.420028 152.958275,237.357163 152.958275,238.513178 C152.958275,239.669193 152.021911,240.606329 150.866847,240.606329 Z" transform="rotate(30 124.724 238.513)"/>
  </g>
</svg>
