<svg xmlns="http://www.w3.org/2000/svg" width="54" height="34" viewBox="0 0 54 34">
  <path fill="#FFFFFF" fill-rule="evenodd" d="M2.3826859,19.2320508 C1.2781164,19.2320508 0.382685902,18.3366203 0.382685902,17.2320508 C0.382685902,16.1274813 1.2781164,15.2320508 2.3826859,15.2320508 C3.4872554,15.2320508 4.3826859,16.1274813 4.3826859,17.2320508 C4.3826859,18.3366203 3.4872554,19.2320508 2.3826859,19.2320508 Z M12.3826859,19.2320508 C11.2781164,19.2320508 10.3826859,18.3366203 10.3826859,17.2320508 C10.3826859,16.1274813 11.2781164,15.2320508 12.3826859,15.2320508 C13.4872554,15.2320508 14.3826859,16.1274813 14.3826859,17.2320508 C14.3826859,18.3366203 13.4872554,19.2320508 12.3826859,19.2320508 Z M22.3826859,19.2320508 C21.2781164,19.2320508 20.3826859,18.3366203 20.3826859,17.2320508 C20.3826859,16.1274813 21.2781164,15.2320508 22.3826859,15.2320508 C23.4872554,15.2320508 24.3826859,16.1274813 24.3826859,17.2320508 C24.3826859,18.3366203 23.4872554,19.2320508 22.3826859,19.2320508 Z M32.3826859,19.2320508 C31.2781164,19.2320508 30.3826859,18.3366203 30.3826859,17.2320508 C30.3826859,16.1274813 31.2781164,15.2320508 32.3826859,15.2320508 C33.4872554,15.2320508 34.3826859,16.1274813 34.3826859,17.2320508 C34.3826859,18.3366203 33.4872554,19.2320508 32.3826859,19.2320508 Z M42.3826859,19.2320508 C41.2781164,19.2320508 40.3826859,18.3366203 40.3826859,17.2320508 C40.3826859,16.1274813 41.2781164,15.2320508 42.3826859,15.2320508 C43.4872554,15.2320508 44.3826859,16.1274813 44.3826859,17.2320508 C44.3826859,18.3366203 43.4872554,19.2320508 42.3826859,19.2320508 Z M52.3826859,19.2320508 C51.2781164,19.2320508 50.3826859,18.3366203 50.3826859,17.2320508 C50.3826859,16.1274813 51.2781164,15.2320508 52.3826859,15.2320508 C53.4872554,15.2320508 54.3826859,16.1274813 54.3826859,17.2320508 C54.3826859,18.3366203 53.4872554,19.2320508 52.3826859,19.2320508 Z" transform="scale(1 -1) rotate(-30 -36.928 0)"/>
</svg>
