<svg xmlns="http://www.w3.org/2000/svg" width="90" height="178" viewBox="0 0 90 178">
  <g fill="none" fill-rule="evenodd">
    <path fill="#171615" d="M0,9.70214704 C0,6.19024567 2.8216377,2.89932438 6.293669,2.42086904 C6.293669,2.42086904 18.9034231,0 45,0 C71.0965769,0 83.706331,2.42086904 83.706331,2.42086904 C87.1822284,2.93030646 90,6.18947366 90,9.70214704 L90,167.116174 C90,170.628075 87.2121714,174.066992 83.7581141,174.676859 C83.7581141,174.676859 74.3817761,177.400673 45,177.400673 C15.6182239,177.400673 6.24188588,174.676859 6.24188588,174.676859 C2.7945875,174.013109 0,170.628847 0,167.116174 L0,9.70214704 Z"/>
    <path fill="#000000" d="M60.9141309,0.483760837 C70.5343192,0.483760837 83.7285058,2.60337565 83.7285058,2.60337565 C87.1921564,3.10192331 90,6.35784068 90,9.87739837 L90,167.599933 C90,171.118717 87.2121714,174.564373 83.7581141,175.175435 C83.7581141,175.175435 74.3817761,177.904588 45,177.904588 C15.6182239,177.904588 6.24188588,175.175435 6.24188588,175.175435 C2.7945875,174.510385 0,171.125487 0,167.60769 L0,155.629543 L59.7393802,1.05372208 C59.7393802,1.05372208 60.5734374,0.483760837 60.9141309,0.483760837 Z"/>
    <rect width="81" height="142.64" x="4.8" y="14.384" fill="#FFFFFF"/>
    <g transform="translate(4.8 14.384)">
      <rect width="3.574" height="65.483" x="19.059" fill="#E85740"/>
      <rect width="3.574" height="65.483" x="19.059" y="70.845" fill="#DBD9DB"/>
      <ellipse cx="20.846" cy="60.725" fill="#FFFFFF" stroke="#E85740" stroke-width="2.115" rx="10.125" ry="10.12"/>
      <ellipse cx="20.846" cy="29.769" fill="#FFFFFF" stroke="#E85740" stroke-width="1.058" rx="5.36" ry="5.358"/>
      <ellipse cx="20.846" cy="10.719" fill="#FFFFFF" stroke="#E85740" stroke-width="1.058" rx="5.36" ry="5.358"/>
      <ellipse cx="20.846" cy="104.777" fill="#FFFFFF" stroke="#DBD9DB" stroke-width="1.058" rx="5.36" ry="5.358"/>
      <rect width="35.735" height="4.762" x="38.118" y="51.795" fill="#777675"/>
      <rect width="35.735" height="4.762" x="38.118" y="58.939" fill="#D8D8D8"/>
      <rect width="35.735" height="4.762" x="38.118" y="66.083" fill="#D8D8D8"/>
      <rect width="35.735" height="4.762" x="38.118" y="77.989" fill="#D8D8D8"/>
      <rect width="35.735" height="4.762" x="38.118" y="101.801" fill="#D8D8D8"/>
      <rect width="81" height="23.973" y="118.667" fill="#777675"/>
      <rect width="35.735" height="4.762" x="38.118" y="27.983" fill="#D8D8D8"/>
      <rect width="35.735" height="4.762" x="38.118" y="8.934" fill="#D8D8D8"/>
    </g>
  </g>
</svg>
