<svg xmlns="http://www.w3.org/2000/svg" width="56" height="56" viewBox="0 0 56 56">
  <g fill="none" fill-rule="evenodd">
    <path fill="#FFFFFF" d="M28,0 C12.536,0 0,12.536 0,28 C0,43.464 12.536,56 28,56 C43.464,56 56,43.464 56,28 C56,12.536 43.464,0 28,0 L28,0 Z"/>
    <g fill="#4E4B4A" transform="translate(12 14)">
      <path d="M31.7617986,5.180448 L21.6264055,0.036736 C21.5803917,0.013328 21.5302952,0.002576 21.4801986,0.00112 C21.4768883,0.001008 21.4736883,0 21.4702676,0 C21.3470124,0 21.2244193,0.062832 21.1579917,0.172368 L14.9109297,10.476256 L21.8845021,21.97832 L31.8590124,5.52664 C31.9329434,5.404672 31.8880331,5.244512 31.7617986,5.180448"/>
      <polygon points="11.608 6.854 11.608 17.957 21.331 22.891"/>
      <path d="M22.1805462 23.3156448L31.109429 27.8470528C31.5967117 28.0943488 31.9954979 27.8442528 31.9954979 27.2911968L31.9954979 7.1271648 22.1805462 23.3156448zM10.5340469 5.2329536L1.18132966.4863936.590653793.1866816C.505577931.1434496.424474483.1229536.351205517.1229536.24681931.1229536.158543448.1647296.0965296552.2406656.0356193103.3151456-.0000220689655.4225536-.0000220689655.5571776L-.0000220689655 22.2208896C-.0000220689655 22.5894816.265798621 23.0260576.590653793 23.1909216L9.77950897 27.8542656C9.90717793 27.9191136 10.0287779 27.9496896 10.1386814 27.9496896 10.4484193 27.9496896 10.6654676 27.7065376 10.6654676 27.2985216L10.6654676 5.4488896C10.6654676 5.3573856 10.6145986 5.2738336 10.5340469 5.2329536"/>
    </g>
  </g>
</svg>
