<svg xmlns="http://www.w3.org/2000/svg" xmlns:xlink="http://www.w3.org/1999/xlink" width="120" height="120" viewBox="0 0 120 120">
  <defs>
    <path id="miguel-a" d="M120,59.9999233 C120,93.1369885 93.1369885,120 59.9999233,120 C26.8628581,120 0,93.1369885 0,59.9999233 C0,26.8628581 26.8628581,0 59.9999233,0 C93.1369885,0 120,26.8628581 120,59.9999233"/>
  </defs>
  <g fill="none" fill-rule="evenodd">
    <mask id="miguel-b" fill="#fff">
      <use xlink:href="#miguel-a"/>
    </mask>
    <use fill="#7BCAEC" xlink:href="#miguel-a"/>
    <path fill="#24242D" d="M1.56968876,112.106898 C1.56968876,112.106898 4.05112542,104.662849 5.49863014,103.215394 C6.94613486,101.76765 31.760211,90.6018657 33.8280749,89.774749 C35.8959388,88.9476324 37.1366571,88.5340741 37.1366571,88.5340741 C37.1366571,88.5340741 37.3434435,86.6730616 38.7909483,86.4662825 C40.238453,86.2595033 58.8492279,85.6391658 58.8492279,85.6391658 C58.8492279,85.6391658 75.5989254,87.4998879 76.426071,87.7069574 C77.2532165,87.9137366 80.5617987,89.9815282 81.5954402,91.2222032 C82.6296626,92.4628781 84.6975265,93.0832156 84.6975265,93.0832156 C84.6975265,93.0832156 106.203311,103.215394 108.477961,105.283186 C110.752321,107.350978 111.786253,107.350978 112.406612,109.832328 C113.026971,112.313677 116.128767,130.303174 116.128767,130.303174 L-3.59997096,127.821824 L1.56968876,112.106898 Z" mask="url(#miguel-b)"/>
    <path fill="#D79F7D" d="M38.5724575,88.624569 L42.7866015,85.084928 L42.9550511,75.9828695 C42.9550511,75.9828695 42.0137664,72.7920231 41.3434532,71.4836803 C40.6725592,70.1747566 40.0074737,67.4761724 40.0074737,67.4761724 C40.0074737,67.4761724 39.3107314,67.8972816 38.6851445,67.813931 C38.0595576,67.7305804 37.0497314,67.1898181 37.0497314,67.1898181 C37.0497314,67.1898181 35.5990319,65.8123552 35.3905029,65.2701408 C35.181974,64.7282167 34.8900915,62.4344783 34.640031,61.7670927 C34.38968,61.100288 34.3063265,59.5157556 33.5973861,58.5146772 C32.8884457,57.5138893 32.4298562,57.096846 32.0127983,55.6371942 C31.5957404,54.1778329 31.6790939,51.6755727 31.6790939,51.6755727 C31.6790939,51.6755727 33.9444504,37.1153576 36.5583232,32.1782147 C39.1721961,27.2410719 43.8190813,20.0772776 53.8871388,20.0772776 C63.9554867,20.0772776 69.6673798,21.045248 75.9598432,24.8207102 C82.2525969,28.5961724 83.9951789,31.5003741 86.1249044,39.5354288 C88.2549204,47.5704836 86.7763396,54.582969 86.4472821,55.4054389 C86.1182245,56.2279088 85.3506172,57.1055586 85.2957258,58.5312312 C85.2408345,59.9569038 85.4055085,63.2470739 84.6376107,64.3985898 C83.8700034,65.5501058 83.156997,66.4823546 82.1152234,66.7016218 C81.0731594,66.9211794 80.4153347,67.1953361 80.4153347,67.1953361 C80.4153347,67.1953361 78.9710247,71.5077851 78.4592865,72.7237744 C77.9475483,73.9400541 76.4669345,77.1204453 76.4669345,77.1204453 C76.4669345,77.1204453 75.3702696,84.3039882 75.6444358,85.565283 C75.9186021,86.8262873 77.015267,88.1424715 77.5635994,88.8551626 C78.1122223,89.5681441 79.3732707,90.8294389 79.5925456,91.1033051 C79.8121109,91.3774618 80.1957694,92.4743788 80.0862772,92.9678026 C79.9764945,93.4612265 78.1668232,97.6290463 76.4120432,98.9998295 C74.6572632,100.370613 70.9284283,103.715672 67.6930345,104.428654 C64.4573503,105.141345 59.2479016,105.799437 55.9027252,105.086746 C52.5578392,104.373764 47.3481001,101.631907 44.4966552,98.6707835 C41.6452103,95.7096594 40.4387628,93.6258947 39.4515901,91.7065078 C38.4644174,89.7874114 38.5724575,88.624569 38.5724575,88.624569" mask="url(#miguel-b)"/>
    <path fill="#A67860" d="M42.955022,75.9827824 C42.955022,75.9827824 45.3147684,89.1303938 47.6748052,91.9956792 C50.0345515,94.8609646 53.0686771,98.2321619 58.2940994,97.8949841 C61.467922,97.6902378 64.7712764,95.5637814 66.7220969,94.0181652 C70.8976136,90.7105699 75.4759572,79.0324846 75.4759572,79.0324846 C75.4759572,79.0324846 71.7985285,85.993856 67.2277361,89.0633068 C65.6324023,90.1346668 62.0023138,91.5917047 58.631289,91.423261 C55.2599739,91.2545269 53.4029624,89.4550836 51.3833099,87.5461518 C46.433506,82.8692254 42.955022,75.9827824 42.955022,75.9827824" mask="url(#miguel-b)"/>
    <path fill="#A65B51" d="M51.6557336,75.7629634 C51.6557336,75.7629634 53.3808897,77.6111973 54.4284719,78.2274689 C55.476054,78.8434501 57.0780677,79.8294266 58.2487923,80.0144242 C59.4195169,80.1991314 60.6521032,80.2607005 62.130684,80.0144242 C63.6095552,79.7678575 65.2734305,78.9668787 66.1975797,78.1043308 C67.121729,77.2417829 68.1693112,75.3932585 68.1693112,75.3932585 C68.1693112,75.3932585 67.7380222,75.1466918 66.69044,74.900125 C65.6431483,74.6538487 62.6238346,74.1607153 62.6238346,74.1607153 C62.6238346,74.1607153 60.9599593,74.9616941 60.2823854,74.9616941 C59.604521,74.9616941 57.6943608,74.3457129 57.6943608,74.3457129 C57.6943608,74.3457129 55.1679074,74.407282 54.5519047,74.5307106 C53.9356116,74.6538487 52.2720267,74.838556 51.9638801,75.0235536 C51.6557336,75.2082608 51.6557336,75.7629634 51.6557336,75.7629634" mask="url(#miguel-b)"/>
    <path fill="#C36B60" d="M57.3819449,78.0508934 C58.3914807,78.8228303 59.2247253,79.0380316 59.9966891,79.1571039 C60.7686529,79.2758857 62.3163561,79.7974803 64.1573939,78.8472255 C65.9981412,77.8972612 67.1860013,77.1848605 67.1860013,76.2346057 C67.1860013,75.2843509 64.8105717,74.6907321 63.7414977,74.7499778 C62.6727141,74.8092235 62.0787841,75.6999422 61.1284961,75.8782602 C60.1784985,76.0562877 59.0911274,75.5457291 58.4379496,75.4864834 C57.7847718,75.4269472 58.8123142,76.7021822 58.3374607,76.6426461 C57.8623167,76.5834003 56.3724091,77.2789566 57.3819449,78.0508934" mask="url(#miguel-b)"/>
    <path fill="#A67860" d="M67.27557 65.5778409C66.7223002 64.8398833 65.9846072 64.1637851 65.9846072 64.1637851 65.9846072 64.1637851 66.4150249 65.8235364 66.4763057 66.19237 66.537877 66.5614941 67.0911467 67.2375922 66.2303112 67.4835781 65.3697662 67.7292735 64.1400842 67.422009 63.586524 67.6679949 63.0332543 67.9139808 62.5415557 68.8979243 61.6807203 69.2048984 60.8198848 69.5124534 60.0821918 69.3277462 59.7133453 68.959203 59.3442083 68.5903693 59.4319183 68.1832003 58.8786485 67.6912285 58.3651677 67.2349784 58.0308824 67.1045798 57.6565177 66.7450396 57.317876 66.4737872 57.2197105 65.9713603 57.1825355 65.7288594 56.9888184 64.4701784 58.266131 63.2083028 58.6399148 61.6896957 59.5265986 58.0881952 58.6422382 54.298212 58.6271359 54.3650087 58.5344886 53.7484467 58.0689288 52.7586947 57.7648483 52.0140574 57.2862191 50.8416312 54.2404763 50.0574967 54.2404763 50.0574967 54.2404763 50.0574967 52.6373009 49.7702712 51.9431725 49.7702712 51.2493344 49.7702712 49.8973813 51.2371835 48.6842538 51.2441535 47.1046033 51.2531566 45.8107362 52.0166712 45.1407135 52.3274208 44.4706907 52.6387512 43.2119657 54.2116668 43.2119657 54.8688877 43.2119657 55.184284 44.9101118 54.8305522 45.1055714 54.9214537 45.6431579 55.1715055 46.239121 55.4810934 47.3221356 55.6832258 50.2165642 56.2228265 50.9984026 55.798813 51.7880827 55.8705468 52.5777627 55.942571 52.6152282 56.1940749 51.53657 56.8771431 50.9048841 57.2770517 49.4027785 57.3203243 49.6862384 57.4957381 50.6054504 58.0649616 57.3245559 55.8888433 56.9313132 58.0600245 56.538361 60.2312056 55.9885764 61.7114772 55.7887603 62.3117757 55.2555303 63.4853636 54.22944 65.7422188 53.9599206 66.3265441 53.5910741 67.1257804 49.2799264 72.0181986 50.3580038 71.787605 51.4357907 71.5573018 53.7885667 68.9409065 53.7885667 68.9409065 53.7885667 68.9409065 53.6265066 68.959203 54.6101941 69.5124534 55.5938816 70.0657038 57.0695581 70.0041347 57.7456798 69.9425656 58.4220921 69.881287 59.3918389 69.8069394 59.3918389 69.8069394 59.3918389 69.8069394 59.9593398 70.1272729 60.5738903 70.1888419 61.1887313 70.2501206 62.4799845 69.8197179 62.4799845 69.8197179 62.4799845 69.8197179 63.586524 69.9425656 64.570502 69.6971606 65.5541895 69.4508843 66.4763057 69.0204816 66.7838714 68.344093 67.0911467 67.6679949 67.0911467 66.9916063 67.0911467 66.9916063 67.0911467 66.9916063 68.9356697 69.7584393 70.5957694 70.4963969 70.5957694 70.4963969 67.8288397 66.3155082 67.27557 65.5778409M64.511806 53.8623494C64.2437388 53.1917693 63.3497943 51.8959145 64.3329009 51.0911602 65.3165884 50.2866963 67.5067235 49.3927831 69.1157074 49.4375078 70.7246914 49.4822325 72.2889491 49.3480584 72.9595527 49.9739138 73.6301563 50.5997693 74.5238104 51.3595084 74.9707827 52.0745229 75.417755 52.7898278 75.1944141 53.3709585 75.1944141 53.3709585 75.1944141 53.3709585 74.7474418 53.8623494 75.1049615 54.1306977 75.4624812 54.3987555 76.0436323 54.711538 75.7752747 54.8457121 75.5072075 54.9798863 74.0091679 54.6842385 72.4974781 55.1802762 71.2169708 55.6005142 68.2842054 55.5441726 67.3339174 55.6838647 65.2968392 55.9835784 70.7246914 57.2591037 69.7860206 57.2591037 68.8473498 57.2591037 66.3368701 57.2120557 65.5771044 56.4523165 64.8173387 55.6925773 64.7798732 54.5329296 64.511806 53.8623494" mask="url(#miguel-b)"/>
    <path fill="#AAA3A4" d="M66.2207851,54.2072234 C66.2207851,54.2072234 67.1370928,54.4491434 68.0609516,54.7076173 C68.9848105,54.9655105 70.4683286,55.0741276 71.4810591,54.8931958 C72.4940801,54.7122641 73.7240525,54.2420738 73.7240525,54.2420738 C73.7240525,54.2420738 72.2048115,52.6865834 70.793901,52.2887078 C69.3827,51.8905417 68.2973619,52.2887078 67.7185343,52.6142688 C67.1397067,52.9398298 66.1990029,53.5546493 66.1990029,53.735581 C66.1990029,53.9165128 66.2207851,54.2072234 66.2207851,54.2072234" mask="url(#miguel-b)"/>
    <path fill="#D8CECD" d="M66.8960937,54.2182884 C66.8960937,54.2182884 68.2794133,54.8357217 69.2148894,55.0294319 C70.1506559,55.2228518 71.0216564,55.0616686 71.7637059,54.8679583 C72.5057554,54.6745385 73.5382352,54.3518817 73.5382352,54.3518817 C73.5382352,54.3518817 72.5057554,53.7065681 71.4410378,53.5776215 C70.3763202,53.448675 69.1181761,53.319438 68.1182245,53.5776215 C67.1179825,53.835805 66.6742049,53.8909849 66.8960937,54.2182884" mask="url(#miguel-b)"/>
    <path fill="#AAA3A4" d="M45.6858802,54.6400075 C45.6858802,54.6400075 46.8072317,55.1101978 47.4223631,55.2551174 C48.0374946,55.3997467 49.6127886,55.5202711 50.9778111,55.2792223 C52.3425432,55.0378832 53.0299918,55.0018711 53.0299918,55.0018711 C53.0299918,55.0018711 53.7058231,54.8659544 53.5306936,54.4637225 C53.3555642,54.0612001 52.378847,53.2654489 51.365826,52.9035853 C50.3528051,52.5417218 49.3037708,52.2884754 48.2184326,52.5777339 C47.1328041,52.8672828 45.5049422,54.0612001 45.5049422,54.0612001 L45.6858802,54.6400075 Z" mask="url(#miguel-b)"/>
    <path fill="#D8CECD" d="M46.2115882,54.7713355 C46.2115882,54.7713355 47.0927538,55.2737624 47.9730481,55.371634 C48.8533424,55.4695056 49.6845539,55.5182962 50.8093906,55.322553 C51.9342272,55.1273907 52.1924198,54.780629 52.4299918,54.8073476 C52.6675638,54.8337759 53.1566484,54.7849853 53.0587734,54.5404515 C52.9608984,54.2959177 51.9592042,53.6154633 50.626129,53.539954 C49.2933443,53.4644448 48.1197154,53.709269 47.3860884,54.0025933 C46.6527518,54.2959177 46.2115882,54.7713355 46.2115882,54.7713355" mask="url(#miguel-b)"/>
    <path fill="#44281E" d="M67.0856866 52.8821814C67.0856866 52.8821814 66.267254 53.4029047 66.0572729 53.5658305 65.8478726 53.7290466 65.4720558 53.9419246 65.4952902 54.0122063 65.518815 54.0819071 65.3602401 54.4672947 65.5931652 54.5837531 65.8260903 54.7005021 66.2904884 54.5910136 66.2904884 54.5910136 66.2904884 54.5910136 66.8852897 54.3836536 67.071746 54.5001121 67.2582022 54.616861 68.0609516 54.7074721 68.0609516 54.7074721 68.0609516 54.7074721 67.1057263 54.2881054 66.8960356 54.2184046 66.6863449 54.1481229 66.5152815 54.2300214 66.3601917 54.1655481 66.2036497 54.0999131 66.2251416 53.7813222 66.2251416 53.7813222 66.2251416 53.7813222 66.7098698 53.449372 66.8028075 53.3332039 66.8960356 53.216455 67.0856866 52.8821814 67.0856866 52.8821814M45.9302193 54.543588C45.9302193 54.543588 46.1855075 54.8435921 46.621153 54.9524996 47.0567985 55.0614072 47.2746212 55.2429198 47.2746212 55.2429198 47.2746212 55.2429198 45.9676848 54.9524996 45.6046469 54.8435921 45.241609 54.7346845 45.9302193 54.543588 45.9302193 54.543588M51.9943753 53.2097463C51.9943753 53.2097463 53.4828307 54.1173093 53.7006535 54.2988219 53.9184762 54.4806249 54.1711506 54.6682364 53.9896316 54.922354 53.8081127 55.1764717 53.5191345 55.2066754 53.5191345 55.2066754 53.5191345 55.2066754 52.9019701 54.9888602 52.4300208 55.0614653 51.9580715 55.1340703 50.9778692 55.2792804 50.9778692 55.2792804 50.9778692 55.2792804 52.1395905 54.8073476 52.4300208 54.8073476 52.7204511 54.8073476 53.108466 54.8941833 53.289985 54.7852757 53.4715039 54.6763681 53.5307517 54.4634902 53.5307517 54.4634902L51.9943753 53.2097463z" mask="url(#miguel-b)"/>
    <path fill="#231009" d="M51.2399535,53.1223879 C51.6105426,54.0610259 51.1502106,55.1225116 50.2115398,55.4930877 C49.272869,55.8636639 48.2113461,55.4033479 47.8404666,54.4647099 C47.4698775,53.5260719 47.9302096,52.4645862 48.8688804,52.0940101 C49.8075512,51.7234339 50.8693644,52.1837499 51.2399535,53.1223879" mask="url(#miguel-b)"/>
    <path stroke="#140300" stroke-width=".5" d="M51.2399535,53.1223879 C51.6105426,54.0610259 51.1502106,55.1225116 50.2115398,55.4930877 C49.272869,55.8636639 48.2113461,55.4033479 47.8404666,54.4647099 C47.4698775,53.5260719 47.9302096,52.4645862 48.8688804,52.0940101 C49.8075512,51.7234339 50.8693644,52.1837499 51.2399535,53.1223879 Z" mask="url(#miguel-b)"/>
    <path fill="#140300" d="M51.4025945,53.5421612 C51.4025945,53.5421612 50.5182342,53.3048879 49.5522629,53.3957894 C48.6603514,53.4800113 47.6688223,53.8802103 47.6903141,53.9751777 C47.5706569,52.9502849 48.3048647,52.0226829 49.3300837,51.9027394 C50.3553028,51.7833767 51.2829372,52.5172684 51.4025945,53.5421612" mask="url(#miguel-b)"/>
    <path fill="#000" d="M50.2394501,53.5174755 C50.391926,53.9034439 50.2025655,54.3402358 49.8162931,54.4927064 C49.4303112,54.645177 48.993504,54.4558231 48.8410281,54.0695642 C48.6885522,53.6833054 48.8779128,53.2468039 49.2641851,53.0943333 C49.650167,52.9421531 50.0869742,53.1312167 50.2394501,53.5174755" mask="url(#miguel-b)"/>
    <path fill="#FEFEFE" d="M50.8732272,53.4576199 C50.8781645,53.6356475 50.7375962,53.7843426 50.559272,53.7892797 C50.3812382,53.7939265 50.2328283,53.6536535 50.227891,53.4753355 C50.2229537,53.2970175 50.363522,53.1489033 50.5415557,53.1436757 C50.71988,53.1387386 50.8682898,53.2795923 50.8732272,53.4576199" mask="url(#miguel-b)"/>
    <path fill="#231009" d="M71.5848008,52.821774 C71.9553899,53.760412 71.4950578,54.8218977 70.556387,55.1924738 C69.6177162,55.5630499 68.5561934,55.102734 68.1853139,54.164096 C67.8147248,53.225458 68.2750569,52.1639723 69.2137277,51.7933962 C70.1523985,51.42282 71.2142117,51.883136 71.5848008,52.821774" mask="url(#miguel-b)"/>
    <path stroke="#140300" stroke-width=".5" d="M71.5848008,52.821774 C71.9553899,53.760412 71.4950578,54.8218977 70.556387,55.1924738 C69.6177162,55.5630499 68.5561934,55.102734 68.1853139,54.164096 C67.8147248,53.225458 68.2750569,52.1639723 69.2137277,51.7933962 C70.1523985,51.42282 71.2142117,51.883136 71.5848008,52.821774 Z" mask="url(#miguel-b)"/>
    <path fill="#140300" d="M71.7474708,53.2415183 C71.7474708,53.2415183 70.8631105,53.004245 69.8971393,53.0951465 C69.0052277,53.1793683 68.0136986,53.5795673 68.0351905,53.6745347 C67.9155332,52.6496419 68.649741,51.7220399 69.6749601,51.6020964 C70.7001791,51.4827337 71.6278135,52.2166255 71.7474708,53.2415183" mask="url(#miguel-b)"/>
    <path fill="#000" d="M70.5843264,53.2168325 C70.7368024,53.6028009 70.5474418,54.0395929 70.1611695,54.1920635 C69.7751876,54.3445341 69.3383804,54.1548897 69.1859044,53.7689213 C69.0334285,53.3826625 69.2227891,52.9461609 69.6090614,52.7936904 C69.9950433,52.6412198 70.4318505,52.8305737 70.5843264,53.2168325" mask="url(#miguel-b)"/>
    <path fill="#FEFEFE" d="M71.2180744,53.157006 C71.2230118,53.3350335 71.0824435,53.4834383 70.9041193,53.4886658 C70.7260855,53.4933125 70.5776756,53.3530396 70.5727383,53.1747216 C70.567801,52.9964036 70.7083692,52.8482893 70.886403,52.8430618 C71.0647272,52.8381246 71.2131371,52.9789784 71.2180744,53.157006" mask="url(#miguel-b)"/>
    <path fill="#5C4136" d="M55.9936009,50.5063411 C56.1852849,50.3625831 56.7121255,49.6440836 56.2332059,48.9735035 C55.7539958,48.3029233 54.5565516,47.7281818 54.0773416,47.7281818 C53.598422,47.7281818 51.7780047,47.5362141 50.9636381,47.4403754 C50.1492715,47.3448272 45.6731594,46.8252655 44.8108718,46.8731848 C43.9485842,46.9211041 42.7720509,47.2010692 42.3886829,47.4882947 C42.0053149,47.7761011 40.8557917,49.5961643 40.7599497,50.8894053 C40.7375865,51.1917327 44.5924682,50.4584218 45.2151508,50.4584218 C45.8378334,50.4584218 48.3288543,50.1232769 49.5742195,50.0274383 C50.8198751,49.9315996 52.7840554,49.8354705 53.790106,50.1711962 C54.7958662,50.5063411 55.9936009,50.5063411 55.9936009,50.5063411" mask="url(#miguel-b)"/>
    <path fill="#44281E" d="M71.718544,52.3886994 C71.718544,52.3886994 73.3725447,53.2274329 73.8383949,53.5535747 C74.3045356,53.8797166 74.5606951,54.0891095 74.5606951,54.0891095 L74.0016167,54.3920177 L71.718544,52.3886994 Z" mask="url(#miguel-b)"/>
    <path fill="#A67860" d="M67.5601917,52.6527494 C67.5601917,52.6527494 69.0248318,52.2984368 69.1665618,52.1805263 C69.3082918,52.0623252 71.1272569,51.2590231 71.1272569,51.2590231 C71.1272569,51.2590231 68.2453168,51.0229115 67.7963115,51.1646365 C67.3475967,51.3063615 67.5601917,52.6527494 67.5601917,52.6527494" mask="url(#miguel-b)"/>
    <path fill="#D79F7D" d="M69.1666489,52.0979888 C69.2610388,52.0036023 71.056479,51.035051 71.6707391,51.2476386 C72.2847088,51.4605166 73.182429,51.7201522 73.5132291,51.9092157 C73.8437388,52.0979888 74.7179341,52.9486295 74.7414589,53.2317892 C74.7649838,53.5155297 73.5074205,53.1917112 72.7235491,52.7767008 C72.4961421,52.6561764 71.6707391,52.4996399 70.8909337,52.2870524 C70.1114188,52.0744648 69.1666489,52.0979888 69.1666489,52.0979888" mask="url(#miguel-b)"/>
    <path fill="#1D0500" d="M66.4113945,53.4301171 C66.48255,53.3235329 67.1935234,52.469988 68.3314294,52.1856667 C69.4693354,51.9010549 70.5715185,51.829902 71.2827823,52.149945 C71.9940462,52.469988 72.4918437,52.8254623 73.0250738,53.25238 C73.5583039,53.6787168 74.2695677,54.4256774 74.483034,54.6745675 C74.6962099,54.9234576 74.6607774,55.136626 74.6607774,55.136626 C74.6607774,55.136626 73.4874389,54.3902462 72.9893509,53.9990502 C72.4918437,53.6075638 72.1006341,53.25238 71.673992,52.9677682 C71.2470594,52.6834469 70.3226197,52.0433608 69.3270245,52.2210979 C68.3314294,52.3988351 67.5135776,52.861184 67.051503,53.1457958 C66.5891379,53.4301171 66.4113945,53.4301171 66.4113945,53.4301171" mask="url(#miguel-b)"/>
    <path fill="#3D2218" d="M65.6733821,52.8552304 C65.6303984,52.5590018 66.1964471,51.8448586 66.5458347,51.5184264 C66.8952224,51.1922845 67.4865386,51.0610146 67.991016,50.9677897 C68.6200881,50.8513312 70.3440825,50.8280976 71.9748487,51.2704075 C73.605615,51.7130079 74.1182245,52.2148539 74.4908466,52.5409958 C74.8637591,52.8671376 75.3993126,53.4494301 75.3993126,53.4494301 C75.3993126,53.4494301 75.1663875,53.4961877 74.9566968,53.3094475 C74.7470061,53.1232882 74.1414589,52.3077884 73.349165,52.0051706 C72.5571615,51.7022623 71.4154799,51.3761205 70.4837795,51.2828956 C69.5517886,51.1899611 68.6200881,51.2721501 67.9445472,51.4583094 C67.2690062,51.6447591 66.4598674,52.1660633 66.2037078,52.3992707 C65.9475483,52.6318973 65.7163657,53.151459 65.6733821,52.8552304" mask="url(#miguel-b)"/>
    <path fill="#A67860" d="M68.3278281,54.7886446 C68.3278281,54.7886446 68.9290188,54.9800315 69.8168643,55.0346305 C70.7050002,55.0892294 71.429043,54.9524415 71.429043,54.9524415 C71.429043,54.9524415 70.9646449,55.5263118 70.0219081,55.4990123 C69.0791713,55.4720032 68.4097294,55.3625148 68.4097294,55.3625148 L68.3278281,54.7886446 Z" mask="url(#miguel-b)"/>
    <path fill="#D79F7D" d="M49.4709715,52.3906743 C49.4709715,52.3906743 52.2681059,53.3226326 52.1722639,53.1074313 C52.0767123,52.8919395 52.1809768,51.5876625 50.1116608,51.458716 C49.2909047,51.407602 47.4684544,51.7561062 46.6308534,51.9957029 C45.7932523,52.2350091 44.9844039,52.7621217 44.790106,52.9334696 C44.3094438,53.3577734 44.4224212,54.0931173 44.6501186,54.0100571 C45.3927489,53.7390951 47.0377463,53.1681291 47.7795053,52.9050084 C48.5212643,52.6415973 49.4709715,52.3906743 49.4709715,52.3906743" mask="url(#miguel-b)"/>
    <path fill="#3D2218" d="M53.8509802,53.1850896 C53.8509802,53.1850896 52.9991481,51.7234049 52.3456798,51.5055898 C51.6922116,51.2877747 50.040244,51.1141034 49.2055472,51.1530197 C48.1524469,51.2018103 46.536783,51.7300846 45.6826274,52.2049215 C44.969621,52.6010547 44.1154654,53.5460819 44.1154654,53.5460819 C44.1154654,53.5460819 44.883944,52.7857619 45.8641464,52.4590392 C46.8443487,52.1323165 48.1512852,51.4425686 49.8575633,51.6240812 C51.5638414,51.8055938 52.0720945,51.9508039 52.6166513,52.3501316 C53.1612082,52.7494594 53.8509802,53.1850896 53.8509802,53.1850896" mask="url(#miguel-b)"/>
    <path fill="#A67860" d="M47.973019,55.3717502 C47.973019,55.3717502 48.8082966,55.5131848 49.6458977,55.5131848 C50.4834987,55.5131848 51.2972845,55.2259593 51.2972845,55.2259593 C51.2972845,55.2259593 50.4091486,55.8428117 49.6670991,55.8666262 C48.92534,55.8904406 47.973019,55.3717502 47.973019,55.3717502" mask="url(#miguel-b)"/>
    <path fill="#1D0500" d="M53.1161044,53.9375102 C53.1161044,53.9375102 51.8684157,53.0499862 51.3348952,52.7656648 C50.8016651,52.481053 49.9838134,52.2324534 49.2013941,52.1967317 C48.4192652,52.1613004 46.9970279,52.7302335 46.5700954,52.9788332 C46.1434532,53.2280137 44.8635268,53.974684 44.6500605,54.0101152 C44.4368847,54.0455465 44.7923714,54.2232836 44.7923714,54.2232836 C44.7923714,54.2232836 45.2190135,54.1524211 44.9701147,54.4370329 C44.7212159,54.7210638 44.4723171,55.1125502 44.4723171,55.1125502 C44.4723171,55.1125502 45.6813786,54.6502013 45.9302774,54.5436171 C46.1791761,54.4370329 46.8547171,53.8680998 46.8547171,53.8680998 C46.8547171,53.8680998 47.2813592,53.3700292 48.0280556,53.0854174 C48.7747519,52.8013865 49.237117,52.6590806 49.8772254,52.6945119 C50.5170434,52.7302335 53.1161044,53.9375102 53.1161044,53.9375102" mask="url(#miguel-b)"/>
    <path fill="#44281E" d="M55.1590493 68.9928336C55.1590493 68.9928336 56.0817465 68.6672726 56.7872017 68.6672726 57.492657 68.6672726 57.9811608 68.7755993 58.3607532 68.9928336 58.7409265 69.2097775 59.8201655 69.9259536 59.3920713 69.8068813 58.9938913 69.6959408 58.5779951 69.2640861 57.9268503 69.2097775 57.2757055 69.1557593 56.8412217 69.2640861 56.1357665 69.2097775 55.4306017 69.1557593 55.1590493 68.9928336 55.1590493 68.9928336M62.6481146 69.2639699C62.6481146 69.2639699 63.2995498 68.4499222 63.8420737 68.3415954 64.3845975 68.2329783 64.6018394 68.0160344 64.9817223 68.2329783 65.3616051 68.4499222 65.904129 68.7754832 65.904129 68.7754832 65.904129 68.7754832 65.5785566 68.6671564 64.6561499 68.8841003 63.7334527 69.1010442 62.2682318 69.6441299 62.2682318 69.6441299L62.6481146 69.2639699z" mask="url(#miguel-b)"/>
    <path fill="#46211C" d="M51.294264,74.6665401 C51.294264,74.6665401 51.8553754,74.4827041 52.330229,74.7205583 C52.805373,74.9578315 53.7115156,75.048733 54.1866596,75.227051 C54.6618036,75.4050786 55.9966213,75.5938517 56.4279104,75.7297683 C57.3113994,76.0079909 57.7342659,76.3829233 58.5065202,76.6207774 C59.278484,76.8580507 60.6443778,76.9768325 61.5943753,76.798805 C62.5446633,76.6207774 63.1978411,76.0268682 64.1481291,75.7890141 C65.0981267,75.5517408 66.8203785,75.1358591 67.2955225,75.0170772 C67.7703761,74.8985858 68.3288736,74.8445677 68.6256934,75.0824218 C68.9228036,75.3196951 68.862975,75.6989838 68.862975,75.6989838 C68.862975,75.6989838 68.1862723,75.3737132 67.6518805,75.3138867 C67.1171983,75.2546409 64.6825209,75.8485502 63.8510189,76.14565 C63.0198073,76.4424594 62.3070913,77.2143962 61.2380173,77.1548601 C60.1692337,77.0956144 58.5657679,76.9768325 57.4374461,76.5609509 C56.3091244,76.14565 53.161731,75.1953952 52.567801,75.3138867 C51.973871,75.4329589 51.3848783,75.7143761 51.2019072,75.5517408 C50.8458396,75.2346019 51.294264,74.6665401 51.294264,74.6665401" mask="url(#miguel-b)"/>
    <path fill="#36251F" d="M51.5609952,88.0739991 C51.5609952,88.0739991 53.5324362,91.7054128 56.0222954,92.4314633 C58.5127354,93.1578041 59.9651774,92.8467641 62.2476693,92.6391137 C64.5304516,92.4314633 65.775236,91.3940824 66.7092599,90.6677416 C67.6429934,89.9416912 68.2653855,88.2816495 68.0580183,88.5926895 C67.8503606,88.9037295 66.294235,89.5263903 65.3605015,88.6966599 C64.4264776,87.8663486 62.5590106,87.6589886 61.9366184,87.8663486 C61.3139358,88.0739991 60.2762283,88.0739991 59.2388112,87.7626686 C58.2013941,87.4513382 56.4010165,87.2683735 55.1922455,88.0739991 C53.6361199,89.1113799 51.5609952,88.0739991 51.5609952,88.0739991" mask="url(#miguel-b)"/>
    <path fill="#A67860" d="M80.5286025 63.639054C80.5286025 63.2577323 81.7033932 60.2248745 82.0850186 60.1296167 82.4666441 60.0340684 82.8482695 60.1296167 83.229895 59.2708442 83.6115204 58.4120718 84.0886974 57.4580415 83.9934363 57.1716873 83.8978847 56.8856234 83.3690111 55.5011905 83.0826468 55.2148362 82.7965729 54.9287723 81.504158 54.5381572 81.504158 54.5381572 81.504158 54.5381572 80.6714943 56.5504785 81.0531197 57.6953148 81.4347451 58.8404415 80.8146764 60.537657 80.5286025 61.1103656 80.2422382 61.6827837 80.5286025 63.639054 80.5286025 63.639054M83.8978847 62.3239443C83.8978847 62.3239443 83.229895 61.846784 83.707072 60.7974959 84.1839586 59.7479174 84.5658744 58.8894354 84.6611356 58.3167269 84.7566872 57.7443087 84.8519483 55.2635396 84.8519483 55.2635396L85.8060119 55.4546361C85.8060119 55.4546361 85.1383126 57.8398569 84.8519483 58.9846932 84.5658744 60.1295295 84.6611356 61.846784 83.8978847 62.3239443M39.2442229 63.0874299C39.1486713 62.8010756 38.003795 60.6066608 38.003795 60.6066608 38.003795 60.6066608 37.0497314 59.7478884 36.8589186 58.22144 36.6681059 56.6947012 36.1909289 55.7406709 36.1909289 55.7406709 36.1909289 55.7406709 34.6641367 59.079922 35.427678 60.0339523 36.1909289 60.9882729 36.8589186 61.369885 36.8589186 61.369885 36.8589186 61.369885 37.2405441 60.9882729 37.6221695 61.4654333 38.003795 61.9425936 39.2442229 63.0874299 39.2442229 63.0874299" mask="url(#miguel-b)"/>
    <path fill="#A67860" d="M36.4772061,63.2780327 C36.4772061,63.2780327 36.4772061,62.5148085 36.0955806,61.9423903 C35.7139552,61.3699722 34.66434,61.0836179 34.5687884,59.9387816 C34.4735273,58.7939453 34.5687884,55.549952 34.4735273,54.7867278 C34.3779757,54.0235036 32.5651096,51.8287984 32.5651096,51.8287984 C32.5651096,51.8287984 31.9926715,54.1187614 32.6606612,55.6455002 C33.328651,57.1719486 33.9963503,58.0307211 34.0919018,58.698397 C34.187163,59.3663634 35.0459654,62.8008723 35.6184036,63.564387 C36.1908418,64.3276112 36.4772061,64.7095137 36.4772061,64.7095137 L36.4772061,63.2780327 Z" mask="url(#miguel-b)"/>
    <path fill="#201716" d="M37.0497023 67.1899052C37.0497023 67.1899052 39.2441938 69.0979657 39.9118931 70.0522864 40.5798829 71.0066071 41.3434242 71.483477 41.3434242 71.483477 41.3434242 71.483477 40.1982574 67.1899052 40.0074447 67.4759691 39.816632 67.7626138 39.7213708 67.7626138 38.6717557 67.6670655 37.6221405 67.5715173 37.0497023 67.1899052 37.0497023 67.1899052M80.1767462 66.6175742L78.4591413 72.7236582C78.4591413 72.7236582 79.3179438 71.960434 79.6995692 70.6247917 80.0811946 69.2888589 81.0785324 67.953507 81.0785324 67.953507 81.0785324 67.953507 81.9373348 66.5220259 81.6509705 66.712832 81.3648967 66.9036381 80.1767462 66.6175742 80.1767462 66.6175742M88.2869548 34.4643152C87.571625 32.4775508 85.9306936 30.4263131 84.4648918 28.7482654L85.0077061 28.7482654C85.0077061 28.7482654 84.7852365 27.8589989 83.5619439 26.8579205 82.8097294 26.2422298 81.9744518 25.9218963 81.4418026 25.7659407 81.1731546 25.551901 81.3430563 25.3788106 81.1263953 25.2199508 81.058725 24.9365007 80.2739823 23.633095 80.3047679 23.1870096L80.6538651 21.9655024C80.6538651 21.9655024 80.2722397 20.0574419 79.2226245 17.4808342 78.1730093 14.9048073 74.9289027 11.4700079 74.9289027 11.4700079L75.9785178 14.3326795C75.9785178 14.3326795 73.6884748 11.5655562 72.3527857 10.5159777 71.0170967 9.46668961 70.6354712 9.27588356 70.6354712 9.27588356 70.6354712 9.27588356 73.6884748 12.9011985 73.4024009 12.9011985 73.1160366 12.9011985 70.3491069 10.4207199 69.2994917 9.65720524 68.2498766 8.89427146 67.0097391 8.32156289 67.0097391 8.32156289L69.585856 11.5655562C69.585856 11.5655562 66.4373009 9.84830171 65.2921342 9.18004491 64.1472579 8.51265936 62.6204657 8.70317499 62.6204657 8.70317499L63.6700808 10.5159777C63.6700808 10.5159777 62.1435791 10.134656 60.6170773 9.3714318 59.0902851 8.60791718 54.987376 8.60791718 54.987376 8.60791718 54.987376 8.60791718 59.1855463 10.7067837 58.8039208 10.6115259 58.4222954 10.5159777 57.0866063 11.4700079 54.7013021 10.6115259 52.3159979 9.75275348 49.6443293 10.2299138 49.6443293 10.2299138L50.4075802 11.1839441C50.4075802 11.1839441 48.6902657 11.2794923 47.2590251 11.7566526 45.8277845 12.2335226 45.2550559 12.7106829 45.2550559 12.7106829 45.2550559 12.7106829 48.5947142 12.4240382 48.022276 12.7106829 47.4498378 12.9967468 44.8737209 13.6647131 43.8241057 14.1415831 42.7744905 14.6187434 40.7708118 15.8591279 40.7708118 15.8591279 40.7708118 15.8591279 40.579999 16.5268039 39.5303839 16.8134486 38.4807687 17.0992221 36.191016 18.1488005 36.191016 18.1488005L34.4734111 20.4387636C34.4734111 20.4387636 35.1414008 21.2019878 34.6642238 21.6791481 34.1873372 22.156018 32.8513578 23.9688207 32.8513578 23.9688207L33.1377221 26.7359441C33.1377221 26.7359441 33.1377221 29.0256167 32.9469093 29.8843891 32.7560966 30.7431615 31.324856 32.5559642 30.9432306 35.4183454 30.5616051 38.2807266 30.5616051 43.1467165 30.5616051 44.863971 30.5616051 46.5815158 31.0384917 51.4472153 31.0384917 51.4472153L31.6109299 52.6875999C31.6109299 52.6875999 32.1836585 51.0656032 32.4697323 51.3516671 32.7560966 51.6383118 33.8057118 54.1187905 34.4734111 54.7867568 35.1414008 55.4544328 35.5230263 54.1187905 36.191016 55.7407871 36.8587153 57.3627837 36.8587153 58.8892321 37.1450796 59.5571985 37.4314439 60.2248745 38.5763202 61.0836469 38.5763202 61.0836469 38.5763202 61.0836469 37.5267051 56.9808812 37.8127789 56.026851 38.0991432 55.0728207 38.767133 51.7335696 38.4807687 49.6341222 38.1946948 47.5355461 39.3395711 43.3375226 39.24431 42.4787501 39.1487584 41.6199777 38.6718718 36.3723757 39.1487584 34.559573 39.6259354 32.7467703 40.579999 29.7891313 42.5836778 28.0715864 44.5873566 26.3540415 47.4498378 25.1139474 48.6902657 25.0186896 49.9306936 24.922851 55.464553 24.7323353 57.6590445 25.1139474 59.853536 25.4955595 64.0517063 24.6367871 66.0553851 24.8275931 68.0593543 25.0186896 73.6884748 25.6863656 75.7877051 27.6899743 77.886645 29.6935831 81.0354906 36.6587299 81.417116 39.0439508 81.7987415 41.4291716 80.939939 50.2068308 80.8446779 51.5427636 80.7918195 52.2813021 80.7250206 54.3485128 80.6759378 56.0489229 80.6361489 57.423772 80.5286897 61.1103656 80.5286897 61.1103656L81.8347548 56.8472879 82.6784549 55.6707958C82.6784549 55.6707958 84.7463188 56.3004268 85.0936735 56.1163004 85.8069703 55.7375925 86.1816254 54.1948805 86.0488988 54.2064973 86.0488988 54.2064973 86.0497701 55.2418452 87.0038337 54.0014607 87.9578973 52.7613666 88.6720654 49.6175683 89.0536909 46.9462836 89.4356068 44.274418 89.1457573 36.849536 88.2869548 34.4643152" mask="url(#miguel-b)"/>
    <path fill="#16151A" d="M36.8867419,97.035108 C36.8867419,97.035108 42.4972748,104.32843 49.5105862,107.133598 C56.5236071,109.939057 60.7316521,110.219312 64.9394066,109.658511 C69.1474515,109.097419 78.1243623,102.925991 78.1243623,102.925991 C78.1243623,102.925991 73.4676025,107.664777 67.0154025,109.908853 C60.5632025,112.15322 48.5849848,109.110198 44.1666683,105.389625 C33.5064234,96.4127376 33.520364,92.2664089 33.520364,92.2664089 L34.9231425,93.1080465 L36.8867419,97.035108 Z" mask="url(#miguel-b)"/>
    <path fill="#44281E" d="M53.9598916,66.3266022 C53.9598916,66.3266022 53.5245365,67.4258426 53.8466237,68.0702849 C54.1690014,68.7150177 54.6101651,69.5125115 54.6101651,69.5125115 C54.6101651,69.5125115 53.931139,69.1027286 53.4420543,68.2828725 C52.9529697,67.4630163 53.9598916,66.3266022 53.9598916,66.3266022" mask="url(#miguel-b)"/>
    <path fill="#A67860" d="M57.3663488,80.6624097 C57.3663488,80.6624097 59.1048647,81.357966 60.3798538,81.2417979 C61.6548429,81.1259203 63.0457137,80.7779969 63.0457137,80.7779969 C63.0457137,80.7779969 62.3501331,82.0529414 60.3798538,82.1688191 C58.4092841,82.2849872 57.8298756,81.5894309 57.3663488,80.6624097" mask="url(#miguel-b)"/>
    <path fill="#5C4136" d="M77.98179,49.3568581 C77.646343,48.7818262 77.1195024,47.9677784 76.2572148,47.4882947 C75.3949272,47.0093919 73.7182729,46.5513993 72.9039063,46.5513993 C72.0895397,46.5513993 70.795963,47.0573112 69.6464398,47.1052305 C68.4966262,47.1531498 67.2242509,47.2010692 66.1493683,47.4615761 C65.456692,47.6294389 64.3513142,48.0377697 64.2734789,48.0508386 C63.4315214,48.1911115 63.1521274,49.8285004 63.2924052,50.810411 C63.4326831,51.7923216 64.5549059,50.810411 65.3965729,50.5298651 C66.2379496,50.2493193 70.11229,49.9301475 70.2691224,49.9315996 C71.5182632,49.9437972 72.5684593,49.7878416 73.8138245,49.8836803 C75.0594801,49.9795189 76.3530568,50.3625831 76.9278184,50.697728 C77.5028704,51.0331633 78.4607096,52.1826463 78.7003146,51.8954208 C78.9399196,51.6081952 78.3169466,49.9315996 77.98179,49.3568581" mask="url(#miguel-b)"/>
  </g>
</svg>
