<svg xmlns="http://www.w3.org/2000/svg" xmlns:xlink="http://www.w3.org/1999/xlink" width="120" height="120" viewBox="0 0 120 120">
  <defs>
    <path id="mike-a" d="M120,59.9999233 C120,93.1369885 93.1369885,120 59.9999233,120 C26.8628581,120 0,93.1369885 0,59.9999233 C0,26.8628581 26.8628581,0 59.9999233,0 C93.1369885,0 120,26.8628581 120,59.9999233"/>
  </defs>
  <g fill="none" fill-rule="evenodd">
    <mask id="mike-b" fill="#fff">
      <use xlink:href="#mike-a"/>
    </mask>
    <use fill="#7BCAEC" xlink:href="#mike-a"/>
    <path fill="#783439" d="M7.66787714,96.981941 C7.66787714,96.981941 26.680122,90.4461278 29.8487363,89.1391892 C33.0176302,87.8319705 39.5413465,84.8441622 41.964569,85.2178133 C44.3875118,85.5911843 77.5658363,82.2300049 80.4548588,82.7902015 C83.3441608,83.350398 102.542614,91.3799754 102.542614,91.3799754 L115.590326,96.0480934 L115.590326,122.564157 L6.17681388,122.564157 L7.66787714,96.981941 Z" mask="url(#mike-b)"/>
    <path fill="#E8B297" d="M41.8711853,88.7655381 C41.7682955,88.4890811 41.5915935,82.4168305 41.5915935,82.4168305 C41.5915935,82.4168305 38.3298751,72.3332924 37.5842037,68.6920147 C36.8385322,65.0507371 36.2793486,62.1562015 35.6270608,60.5691646 C34.9747731,58.9818477 33.0176302,57.0211597 32.6446547,54.4070025 C32.2719588,51.7925651 32.085471,48.9915823 32.7380384,48.6182113 C33.3903261,48.2448403 34.1359976,48.2448403 34.1359976,48.2448403 C34.1359976,48.2448403 35.2543649,39.0948698 36.4658363,36.0137887 C37.6773078,32.9327076 39.6344506,19.8613612 54.9188976,18.7409681 C70.2033445,17.6205749 77.5658363,23.5961916 78.2181241,24.8098575 C78.8706914,26.0235233 83.9033445,46.6575233 83.9033445,46.6575233 C83.9033445,46.6575233 85.3013037,46.1905995 85.7671037,46.3774251 C86.2331833,46.5642506 87.8176302,47.964742 87.3515506,50.4856265 C86.885471,53.0065111 85.3944078,57.0211597 84.8352241,58.4216511 C84.2760404,59.8221425 83.3441608,63.8367912 83.3441608,63.8367912 C83.3441608,63.8367912 83.3441608,69.345484 82.1324098,74.1071548 C80.9209384,78.8688256 80.4548588,82.7902015 80.4548588,82.7902015 C80.4548588,82.7902015 80.6740588,86.6423931 80.3013629,88.5095283 C79.9283873,90.3769435 72.8611445,101.602722 62.4231424,101.882821 C51.9851404,102.162919 45.0400792,97.2620393 41.8711853,88.7655381" mask="url(#mike-b)"/>
    <path fill="#C38D71" d="M49.436549,46.6003553 C49.436549,46.6003553 47.3029837,46.5289302 46.0940286,46.8140703 C44.8850735,47.0989302 43.8178714,47.9540703 43.3914939,48.4526452 C42.9648367,48.9515002 41.8266184,50.6615002 41.755602,51.0177853 C41.6843061,51.3740703 41.6843061,52.1577853 42.0399469,51.9440703 C42.3955878,51.7300752 43.1068694,51.1600752 43.3914939,51.3026452 C43.6758388,51.4452152 45.3827469,51.9440703 46.3073571,51.9440703 C47.2316878,51.9440703 50.3326408,51.5749007 50.3326408,51.5749007 L49.436549,46.6003553 Z" mask="url(#mike-b)"/>
    <path fill="#472C27" d="M70.2030929,80.6429681 C69.0847255,82.0434595 67.0347582,82.6966486 65.8230071,82.5101032 C64.6112561,82.3235577 64.3316643,80.0827715 64.2388398,79.055371 C64.1454561,78.0285307 63.4928888,76.6280393 63.4928888,76.6280393 C63.4928888,76.6280393 62.6541133,76.2922015 61.7225133,76.3854742 C60.7903541,76.479027 59.1128031,76.8145848 59.1128031,76.8145848 C59.1128031,76.8145848 59.1128031,79.055371 58.7398276,80.1757641 C58.3674112,81.2961572 57.9944357,83.4439509 56.6898602,83.5369435 C55.3847255,83.6304963 53.7071745,83.4439509 52.1230071,83.1638526 C50.5388398,82.8837543 48.7679051,80.7359607 48.4883133,79.6155676 C48.2087214,78.4951744 48.6745214,75.9742899 49.0474969,75.3211007 C49.4204724,74.6673514 51.0046398,73.6405111 51.0046398,73.6405111 C51.0046398,73.6405111 54.5154745,73.2735823 55.0746582,73.1803096 C55.6338418,73.0867568 60.1377867,73.3604128 60.6041459,73.5469582 C61.0699459,73.7335037 64.890848,72.7066634 64.890848,72.7066634 C64.890848,72.7066634 69.6439092,72.1464668 69.8770888,72.0764423 C70.1102684,72.0064177 71.135252,73.1733071 71.8806439,74.6673514 C72.6265949,76.1613956 71.3214602,79.2424767 70.2030929,80.6429681 L70.2030929,80.6429681 Z M83.157701,55.4341229 C83.157701,55.4341229 83.4372929,62.343027 82.9714929,65.7042064 C82.5051337,69.0653857 81.94595,71.3997248 81.3867663,73.3604128 C80.8275827,75.3211007 79.336799,76.6280393 78.125048,78.1220835 C76.9132969,79.6155676 76.4008051,77.7952088 75.9816969,77.3747813 C75.5972582,76.9899263 74.4903541,75.1339951 74.3041459,74.5737985 C74.1173786,74.013602 74.3969704,72.4265651 74.1173786,71.3997248 C73.8377867,70.3723243 73.1857786,69.8121278 72.6265949,69.345484 C72.0674112,68.8788403 71.135252,68.3186437 69.8306765,68.2250909 C68.5255418,68.1315381 66.6617827,67.3847961 66.3821908,67.1982506 C66.102599,67.011145 65.1704398,65.7977592 64.425048,65.4241081 C63.6796561,65.050457 62.6541133,65.6106536 62.0021051,65.8907518 C61.3495378,66.1708501 61.1859765,66.7736216 60.8610908,66.9859361 C60.5362051,67.1985307 59.7625745,67.353145 59.3898786,67.1665995 C59.0171827,66.979774 58.2857704,66.6016413 57.7265867,66.0414447 C57.1674031,65.4812482 54.7327173,67.011145 53.9867663,67.4783489 C53.2413745,67.9449926 48.8612888,69.2519312 47.5561541,69.9992334 C46.2515786,70.7459754 46.0653704,72.052914 45.6923949,73.6405111 C45.3194194,75.2275479 44.9470031,77.6548796 44.201052,78.5887273 C43.4556602,79.5225749 42.8964765,79.4290221 42.4306765,79.055371 C41.9643173,78.6822801 40.84595,76.1613956 39.8209663,73.3604128 C38.7959827,70.55943 35.8169316,58.3779558 35.8169316,58.3779558 C35.8169316,58.3779558 36.7454561,67.2912432 37.025048,68.4116364 C37.3046398,69.5320295 38.9821908,78.4951744 39.7275827,81.016059 C40.4735337,83.5369435 43.4556602,89.3260147 44.201052,90.0727568 C44.9470031,90.8194988 48.0225133,94.1806781 49.1408806,94.8344275 C50.259248,95.4881769 53.2413745,97.0376806 53.8005582,97.224226 C54.3597418,97.4110516 58.8332112,97.8219558 60.0449622,97.9155086 C61.2561541,98.0090614 64.2388398,97.7289631 65.4500316,97.2617592 C66.6617827,96.7951155 71.135252,95.1145258 72.3470031,94.274231 C73.5581949,93.4339361 75.1429214,92.7801867 75.8883133,91.6597936 C76.6337051,90.5394005 79.9888071,84.09714 80.4551663,81.9499066 C80.9209663,79.8026732 83.3439092,72.9867617 83.4372929,71.0260737 C83.5306765,69.0653857 83.7168847,57.4878034 83.7168847,57.4878034 L83.157701,55.4341229 Z" mask="url(#mike-b)"/>
    <path fill="#C38D71" d="M67.0461935,60.8254545 C66.9265282,60.5999754 66.6360322,60.1672236 66.2915751,59.6759312 C65.8333241,58.6569337 64.7680792,57.2415971 64.7680792,57.2415971 L63.1816751,52.2807764 C63.1816751,52.2807764 61.9797098,52.2325995 62.1717894,53.5330958 C62.3641486,54.833312 63.7498057,61.6682703 63.4755261,61.7072039 C63.1330261,61.7565012 62.5950914,62.981371 61.9592996,63.6188747 C61.3232282,64.2555381 59.5620792,64.7947273 58.3394241,64.206801 C57.1162098,63.6188747 56.7253404,62.4914791 56.7253404,62.4914791 C56.7253404,62.4914791 55.1596261,62.7365651 54.4259771,62.9326339 C53.6923282,63.1287027 52.518322,62.7365651 52.518322,62.1973759 C52.518322,61.6587469 53.0076078,60.7274201 53.0076078,60.7274201 C53.0076078,60.7274201 52.0293159,62.0996216 52.175822,63.1774398 C52.3228873,64.2555381 52.7629649,64.4025897 53.1054649,64.5986585 C53.4476853,64.7947273 55.746769,63.9124177 56.1381976,63.9124177 C56.5296261,63.9124177 57.165418,65.0398133 58.0947812,65.6767568 C59.0244241,66.3139803 59.7091445,66.3629975 60.1981506,66.2156658 C60.6874363,66.0688943 61.7633057,65.5297052 62.4972343,64.9414988 C63.2308833,64.3538526 63.9158833,63.7656462 63.9158833,63.7656462 C63.9158833,63.7656462 64.8941751,65.0888305 66.5082588,64.6476757 C67.0168363,64.5087469 67.1395771,63.9491106 67.3839404,63.2628698 C67.6285833,62.5769091 67.437622,61.5604324 67.0461935,60.8254545" mask="url(#mike-b)"/>
    <path fill="#C38D71" d="M61.7462506 52.0105656C61.7462506 52.0105656 61.1227608 47.5483199 61.7462506 45.6744624 62.3697404 43.8003248 62.9935098 42.9079317 63.5278098 42.6401577 64.0623894 42.3723838 67.6255078 42.8188604 67.6255078 42.8188604L71.4561955 42.9079317C71.4561955 42.9079317 70.2936527 43.7846393 69.6743567 44.3358727 69.1733282 44.7817892 69.5395935 45.2089391 69.5395935 45.2089391 69.5395935 45.2089391 72.2647751 45.148998 74.1195873 45.8601676 74.7721547 46.1102953 76.514571 47.8102118 76.514571 47.8102118L76.8900629 48.8871897C76.8900629 48.8871897 77.7257629 49.5336565 77.4727322 49.5518629 76.1678771 49.6454157 71.7282384 50.8125853 70.6079139 50.6932634 69.4875894 50.5736614 68.917222 50.2795582 68.3826424 50.814826 67.8480629 51.3506541 69.8158302 52.2508899 69.8158302 52.2508899 69.2815302 52.5186639 65.7550384 51.564369 65.131269 52.4570423 64.5077792 53.3491553 64.1515792 55.4017155 64.5077792 56.2943887 64.8639792 57.1867818 65.131269 58.1682462 65.131269 58.1682462 65.131269 58.1682462 62.4589302 55.3126442 61.7462506 52.0105656M56.5795333 51.1183125C56.5795333 51.1183125 56.4786006 46.3034231 55.9443006 44.6967794 55.4094414 43.0904157 53.1945149 43.7111135 53.1945149 43.7111135 53.1945149 43.7111135 46.6022986 43.6217622 47.4930782 44.2466614 48.3841373 44.8712806 49.0965373 45.9423764 48.8292476 46.1205189 48.5622373 46.2992216 48.0276578 46.7454182 48.0276578 46.7454182L46.3654843 47.8100717C46.3654843 47.8100717 45.3083476 51.236514 46.6831006 51.6429366 48.0572945 52.0493592 51.2119292 51.5070889 50.8554496 52.2210595 50.4992496 52.9347499 46.6598945 52.7504452 49.8346598 53.2439784 52.7018741 53.6896147 52.8780169 52.9913297 53.5507149 52.8140275 54.1314271 52.6608138 54.7087843 52.3675509 55.1541741 53.795772 55.5995639 55.2234329 56.5795333 51.1183125 56.5795333 51.1183125" mask="url(#mike-b)"/>
    <path fill="#B7ADAA" d="M66.2150788 49.0356138C66.2150788 49.0356138 68.2446359 47.2513877 68.7831298 47.044115 69.3213441 46.8362821 71.0609645 46.6290093 72.0965727 46.8362821 73.1319012 47.044115 75.0786992 48.4546899 75.0786992 48.4546899L75.2442176 48.828341C75.2442176 48.828341 74.5074931 49.2804197 73.8196971 49.552115 73.1319012 49.8238103 72.2207114 50.0728177 70.8540665 50.1560069 69.487142 50.238916 67.6233829 49.6165376 67.4162053 49.6994467 67.2093073 49.7826359 66.4222563 49.6582722 66.4222563 49.6582722L66.2150788 49.0356138zM43.795588 49.3947838C43.795588 49.3947838 44.5535614 48.7037813 45.6302696 48.2057666 46.7072573 47.7080319 48.7345778 47.5041204 49.3994471 47.7906609 50.0643165 48.0777617 51.718941 49.0771523 51.718941 49.0771523 51.718941 49.0771523 52.2988145 49.865629 52.4643329 49.9899926 52.6301308 50.1143563 52.3815737 50.4877273 52.3815737 50.4877273 52.3815737 50.4877273 51.5120431 50.4465528 51.1390676 50.4877273 50.7663716 50.5294619 50.0209798 50.9442875 48.9853716 51.1515602 47.9497635 51.3593931 46.4587002 51.0271966 45.6719288 50.7781892 44.8848778 50.5294619 43.795588 49.3947838 43.795588 49.3947838" mask="url(#mike-b)"/>
    <path fill="#D8CBC6" d="M44.5535335 50.0315592C44.5535335 50.0315592 46.9971661 48.9526206 48.2399518 48.9940752 49.482458 49.0355297 50.9735212 49.5335445 51.1804192 49.6581882 51.3873171 49.7825518 51.884711 50.2805666 51.884711 50.2805666 51.884711 50.2805666 50.3519886 50.6953921 49.9792927 50.8197558 49.6065967 50.9443995 47.9913947 51.2348614 46.8313682 51.0687631 45.6719008 50.9026649 44.5535335 50.0315592 44.5535335 50.0315592M67.1264643 49.1600894C67.1264643 49.1600894 68.9071847 48.2057946 70.6468051 48.2889838 72.3864255 48.3718929 74.4157031 49.1600894 74.4157031 49.1600894 74.4157031 49.1600894 72.8835398 50.2804826 70.6881847 50.1143843 68.4931092 49.948286 67.4161214 49.6995587 67.4161214 49.6995587L67.1264643 49.1600894z" mask="url(#mike-b)"/>
    <path fill="#B3A183" d="M50.4290441,49.2577317 C50.4290441,50.3632796 49.5346298,51.259314 48.4310808,51.259314 C47.3275318,51.259314 46.4331176,50.3635597 46.4331176,49.2580118 C46.4331176,48.152744 47.3275318,47.2564295 48.4310808,47.2564295 C49.5346298,47.2561494 50.4290441,48.1524639 50.4290441,49.2577317" mask="url(#mike-b)"/>
    <path stroke="#615444" stroke-width=".5" d="M50.4290441,49.2577317 C50.4290441,50.3632796 49.5346298,51.259314 48.4310808,51.259314 C47.3275318,51.259314 46.4331176,50.3635597 46.4331176,49.2580118 C46.4331176,48.152744 47.3275318,47.2564295 48.4310808,47.2564295 C49.5346298,47.2561494 50.4290441,48.1524639 50.4290441,49.2577317 Z" mask="url(#mike-b)"/>
    <path fill="#776855" d="M50.2635816,49.1357489 C49.4930265,48.4716359 47.2028898,48.8464074 46.6523735,49.1357489 C46.6224571,48.1374786 47.4609531,47.3271543 48.4579776,47.3271543 C49.455002,47.3268742 50.3197796,48.1383189 50.2635816,49.1357489" mask="url(#mike-b)"/>
    <path fill="#000" d="M49.2880298,49.2747057 C49.2880298,49.748912 48.9044298,50.1332069 48.4310808,50.1332069 C47.9577318,50.1332069 47.5741318,49.748912 47.5741318,49.2747057 C47.5741318,48.8007794 47.9577318,48.4164845 48.4310808,48.4164845 C48.9044298,48.4164845 49.2880298,48.8007794 49.2880298,49.2747057" mask="url(#mike-b)"/>
    <path fill="#FEFEFE" d="M48.192589,48.873969 C48.192589,49.0313843 48.0650951,49.1591091 47.9076849,49.1591091 C47.7508339,49.1591091 47.62334,49.0313843 47.62334,48.873969 C47.62334,48.7165538 47.7508339,48.588829 47.9076849,48.588829 C48.0650951,48.588829 48.192589,48.7165538 48.192589,48.873969" mask="url(#mike-b)"/>
    <path fill="#B3A183" d="M72.5167992,48.3824246 C72.5167992,49.4879725 71.6223849,50.3840069 70.5188359,50.3840069 C69.4152869,50.3840069 68.5208727,49.4882526 68.5208727,48.3827047 C68.5208727,47.2774369 69.4152869,46.3811224 70.5188359,46.3811224 C71.6223849,46.3808423 72.5167992,47.2771568 72.5167992,48.3824246" mask="url(#mike-b)"/>
    <path stroke="#615444" stroke-width=".5" d="M72.5167992,48.3824246 C72.5167992,49.4879725 71.6223849,50.3840069 70.5188359,50.3840069 C69.4152869,50.3840069 68.5208727,49.4882526 68.5208727,48.3827047 C68.5208727,47.2774369 69.4152869,46.3811224 70.5188359,46.3811224 C71.6223849,46.3808423 72.5167992,47.2771568 72.5167992,48.3824246 Z" mask="url(#mike-b)"/>
    <path fill="#776855" d="M72.3513367,48.2604418 C71.5807816,47.5963287 69.2906449,47.9711002 68.7401286,48.2604418 C68.7102122,47.2621715 69.5487082,46.4518472 70.5457327,46.4518472 C71.5427571,46.4515671 72.4075347,47.2630118 72.3513367,48.2604418" mask="url(#mike-b)"/>
    <path fill="#000" d="M71.3757849,48.3993985 C71.3757849,48.8736049 70.9921849,49.2578998 70.5188359,49.2578998 C70.0454869,49.2578998 69.6618869,48.8736049 69.6618869,48.3993985 C69.6618869,47.9254722 70.0454869,47.5411774 70.5188359,47.5411774 C70.9921849,47.5411774 71.3757849,47.9254722 71.3757849,48.3993985" mask="url(#mike-b)"/>
    <path fill="#FEFEFE" d="M70.2803441,47.9986619 C70.2803441,48.1560771 70.1528502,48.283802 69.99544,48.283802 C69.838589,48.283802 69.7110951,48.1560771 69.7110951,47.9986619 C69.7110951,47.8412467 69.838589,47.7135219 69.99544,47.7135219 C70.1528502,47.7135219 70.2803441,47.8412467 70.2803441,47.9986619" mask="url(#mike-b)"/>
    <path fill="#6F4233" d="M53.2356149,48.2557921 C53.2356149,48.2557921 52.5436251,47.4140968 51.8516353,47.0676152 C51.1596455,46.7211337 50.0231047,46.4239494 49.1829312,46.4735268 C48.3424782,46.5228241 46.0688373,46.7211337 44.9817843,47.1171926 C43.8944516,47.5132516 43.3998537,48.0081853 43.1034863,48.3549469 C42.8068394,48.7017086 42.2633129,50.1374924 42.2633129,50.1374924 C42.2633129,50.1374924 43.1034863,48.8997381 43.5483169,48.5036791 C43.9931476,48.10734 44.190819,47.6121263 45.5253108,47.3152221 C46.8598027,47.0180378 48.7873088,46.6219789 49.8254333,46.8200084 C50.8632782,47.0180378 52.1482822,47.5625489 52.3459537,47.8597332 C52.5436251,48.1566373 53.2356149,48.2557921 53.2356149,48.2557921" mask="url(#mike-b)"/>
    <path fill="#6C493F" d="M53.6025792 45.0412162C53.6025792 45.0412162 51.9608159 45.1728624 50.5815894 45.1070393 49.2026424 45.0412162 47.429471 44.7782039 46.2470771 44.844027 45.0652424 44.90957 43.0949588 45.3703317 42.1756608 46.0938256 41.2563629 46.8175995 39.2203751 48.2651474 39.2203751 48.2651474 39.2203751 48.2651474 39.2860792 46.5543071 40.2710812 45.5019779 41.2563629 44.4490885 43.0295343 43.3964791 43.6860159 43.2648329 44.3427771 43.1331867 47.2980629 42.9357174 48.7427139 42.6727052 50.1876445 42.4094128 52.2233527 42.529855 52.8144098 42.6615012 53.4054669 42.7931474 54.7846935 43.8569607 54.7846935 44.1202531 54.7846935 44.3832654 53.6025792 45.0412162 53.6025792 45.0412162M63.7159471 45.0412162C63.8473553 44.7782039 64.109892 42.9357174 64.9637655 42.4094128 65.817639 41.8833882 69.2982778 41.2909803 70.3489839 41.2909803 71.3994104 41.2909803 74.0921594 40.8963219 75.2742737 41.1596143 76.456388 41.4226265 79.1488573 43.9886069 79.6087859 44.5149115 80.0681553 45.0412162 80.4621002 46.2912948 80.4621002 46.2912948 80.4621002 46.2912948 76.1935716 44.1857961 75.2085696 43.8569607 74.2235676 43.5281253 72.9757492 43.1990098 70.8743369 43.4623022 68.7726451 43.7255946 65.8830635 44.7782039 65.0294696 44.90957 64.1758757 45.0412162 63.7159471 45.0412162 63.7159471 45.0412162" mask="url(#mike-b)"/>
    <path fill="#C38D71" d="M68.4097629,47.1466029 C68.5048241,47.0751779 69.5038057,46.5749224 70.3839608,46.6939641 C71.2641159,46.813286 72.4056894,46.9320477 72.4056894,46.9320477 C72.4056894,46.9320477 71.7872322,45.8598314 70.6694241,45.8360231 C69.5513363,45.8122147 68.4097629,47.1466029 68.4097629,47.1466029" mask="url(#mike-b)"/>
    <path fill="#6F4233" d="M65.6389518 49.2093307C65.6389518 49.2093307 66.2669151 48.5707066 66.5632824 48.2833258 67.5463273 47.3301514 68.6509947 46.8433405 69.2328253 46.7402644 69.8149355 46.6371882 67.3162233 48.2147017 67.1451131 48.3174978 66.9737233 48.420574 66.4260029 49.1407066 66.4603927 49.2435027 66.4947824 49.3462988 66.8026131 49.6552472 66.8026131 49.6552472L67.6928335 49.7235912C67.6928335 49.7235912 67.0078335 49.9978074 66.6658927 50.0667115 66.3233927 50.1353356 65.6389518 49.2093307 65.6389518 49.2093307M73.8197531 49.552059C73.8197531 49.552059 74.8810837 48.9691744 74.9836939 48.8663784 75.0863041 48.7635823 74.8125837 48.4204619 74.8125837 48.4204619 74.8125837 48.4204619 73.1009224 47.2888649 72.6560918 47.1518968 72.2109816 47.0143686 71.4242102 46.5723735 71.4242102 46.5723735 71.4242102 46.5723735 72.5534816 46.6718084 73.2720327 46.9801966 73.9908633 47.2888649 75.3603041 48.3862899 75.5655245 48.4204619 75.7710245 48.454914 76.3872449 48.7291302 76.3872449 48.7291302 76.3872449 48.7291302 75.7710245 49.7921032 75.4285245 49.6893071 75.0863041 49.5865111 73.8197531 49.552059 73.8197531 49.552059" mask="url(#mike-b)"/>
    <path fill="#3A271C" d="M69.2856682,47.081228 C70.0313396,46.9254934 70.5838131,46.8198963 71.1768273,46.9686285 C71.7701212,47.1170806 72.5608069,47.0675032 73.2525171,47.5131396 C73.9445069,47.9587759 74.5872886,48.5531445 74.8836559,48.7015966 C75.1803029,48.8500486 75.8722927,49.0480781 75.8722927,49.0480781 C75.8722927,49.0480781 75.4626906,48.31254 74.8201886,47.8173263 C74.1774069,47.3221125 72.6595029,46.4630511 71.4239865,46.4134737 C70.1884702,46.3638963 68.8539784,46.6218668 68.3101722,46.9686285 C67.7663661,47.3151101 68.6367355,47.2165155 69.2856682,47.081228" mask="url(#mike-b)"/>
    <path fill="#C38D71" d="M68.8378739 49.9823179C68.8378739 49.9823179 69.6942637 50.2209617 70.5741392 50.24477 71.4542943 50.2682983 73.8394922 49.6744899 73.8394922 49.6744899 73.8394922 49.6744899 71.9715392 50.732141 70.6932453 50.6974088 69.215882 50.6570747 69.1921167 50.5114236 68.3826984 50.8150501 67.8148473 51.0282049 68.8378739 49.9823179 68.8378739 49.9823179M46.6826812 47.6375872C46.6826812 47.6375872 47.5812894 46.8916855 48.4027302 46.9174545 49.2244506 46.9432236 49.9947261 47.30343 49.9947261 47.30343L49.9432812 47.8689484 46.6826812 47.6375872z" mask="url(#mike-b)"/>
    <path fill="#6F4233" d="M44.2452835,49.7489961 C44.2452835,49.7489961 44.2111733,49.5072713 44.5533937,49.1641509 C44.8956141,48.8210305 45.6488345,48.0325538 46.3332753,47.9297577 C47.0179957,47.8269617 49.516708,47.7925096 50.0641488,47.9981017 C50.6118692,48.203974 51.0910896,48.4784703 51.3994794,48.8899346 C51.70731,49.3011189 52.5734855,49.5859789 52.4264202,49.4386472 C52.3235304,49.335571 51.7702182,48.6905047 51.4335896,48.3753941 C50.6328386,47.6264113 49.589961,47.3342688 47.5998263,47.3810452 C45.6077345,47.4275415 44.6562835,48.272598 44.4163937,48.4098462 C44.1767835,48.5468143 43.1157324,48.8557627 42.9446222,48.9927307 C42.7732324,49.1296988 42.2632569,50.0582246 42.2632569,50.0582246 C42.248159,49.9817577 43.1696937,49.3464948 43.8001733,50.0901558 C44.111359,50.4565243 45.0667243,50.7758364 45.2722243,50.6730403 C45.4774447,50.5702442 44.2452835,49.7489961 44.2452835,49.7489961" mask="url(#mike-b)"/>
    <path fill="#3A271C" d="M44.2444447,49.5085597 C44.2444447,49.5085597 45.1793998,48.671626 45.9700855,48.3248644 C46.7610508,47.9783828 47.7988957,47.8795081 48.2929345,47.9288054 C48.7872529,47.9783828 50.1712324,48.1268349 50.4678794,48.2755671 C50.7642467,48.4240192 51.9010671,49.255631 51.9010671,49.255631 C51.9010671,49.255631 50.7678814,47.9708201 49.829012,47.6240585 C48.8898631,47.2775769 46.5877039,47.5730806 45.6485549,47.8206875 C44.7094059,48.0680143 44.1415549,48.9884172 43.7956998,49.235744 C43.4492855,49.4833509 42.981808,49.7063091 42.981808,49.7063091 L44.2444447,49.5085597 Z" mask="url(#mike-b)"/>
    <path fill="#B07F66" d="M35.2543649 57.301258C35.2543649 57.301258 34.6017976 51.3259214 34.3222057 50.672172 34.0426139 50.0187027 33.4834302 48.8983096 33.2038384 49.1784079 32.9242465 49.4585061 32.9242465 53.6599803 33.2038384 54.4070025 33.4834302 55.1537445 35.2543649 57.301258 35.2543649 57.301258M84.3691445 49.0851351C84.3691445 49.0851351 85.20792 47.4045455 85.7671037 47.5910909 86.3262873 47.7779165 86.6058792 48.9915823 86.6058792 48.9915823 86.6058792 48.9915823 85.6739996 49.3652334 85.3944078 50.1119754 85.1148159 50.8589975 84.1829363 54.5935479 84.1829363 54.0333514 84.1829363 53.4731548 84.3691445 49.0851351 84.3691445 49.0851351" mask="url(#mike-b)"/>
    <path fill="#413432" d="M36.2793486,60.2890663 C36.2793486,59.5420442 35.7201649,53.3798821 35.9066527,51.3259214 C36.0931404,49.2716806 36.1862445,42.8294201 36.4658363,41.5224816 C36.7454282,40.2152629 38.5160833,38.7214988 38.5160833,38.7214988 C38.5160833,38.7214988 38.8890588,32.9327076 38.9821629,32.2792383 C39.0752669,31.6254889 40.1936343,28.4511351 41.6849771,26.3971744 C43.1760404,24.3429337 44.4808955,22.8491695 46.7176302,22.288973 C48.9543649,21.7287764 57.1556322,19.5812629 60.0446547,19.8613612 C62.9339567,20.1414595 70.4829363,21.3554054 72.6262873,22.5690713 C74.769918,23.7827371 77.0066527,24.9031302 77.2862445,25.6501523 C77.5658363,26.3971744 78.3115078,29.664801 78.3115078,29.664801 C78.3115078,29.664801 78.4046118,35.2667666 78.6842037,35.920516 C78.9637955,36.5739853 80.9209384,39.5617936 81.2005302,40.3085356 C81.480122,41.0555577 82.7849771,48.8050369 82.7849771,48.8050369 L83.1576731,56.0875921 L83.7168567,58.4216511 C83.7168567,58.4216511 84.4625282,49.5517789 84.1829363,47.964742 C83.9033445,46.3774251 85.20792,45.7239558 85.20792,45.7239558 C85.20792,45.7239558 85.6739996,43.1095184 85.5808955,42.7361474 C85.4875118,42.3627764 86.2331833,40.6821867 86.2331833,40.6821867 C86.2331833,40.6821867 85.20792,35.7336904 85.1148159,34.8001229 C85.0217118,33.8662752 85.0217118,32.2792383 84.3691445,30.3185504 C83.7168567,28.3578624 82.1324098,27.330742 81.6666098,26.5837199 C81.2005302,25.8369779 80.3617547,25.3700541 80.3617547,25.3700541 C80.3617547,25.3700541 81.2005302,22.9424423 79.8956751,19.954914 C78.5910996,16.9671057 74.397222,12.8589042 70.7625282,11.1783145 C67.1278343,9.49772482 61.8155894,8.7509828 58.7400792,8.84425553 C55.664569,8.93752826 47.0903261,11.2718673 45.0400792,12.2054349 C42.9895527,13.1390025 38.9821629,14.7263194 38.0502833,16.4069091 C37.1181241,18.0874988 33.4834302,26.6772727 33.669918,27.704113 C33.8564057,28.7312334 33.9495098,31.5322162 33.763022,31.8123145 C33.5768139,32.0924128 33.1107343,38.3478477 33.0176302,39.8418919 C32.9242465,41.335656 33.8564057,47.6846437 33.8564057,47.6846437 L35.0678771,54.4070025 L35.8135486,58.7017494 L36.2793486,60.2890663 Z" mask="url(#mike-b)"/>
    <path fill="#88534E" d="M52.3687124,73.2173386 C52.6390778,73.1089405 55.828941,72.5207342 56.6403165,72.4663951 C57.451692,72.412056 59.2905676,72.19554 59.6691349,72.19554 C60.0477022,72.19554 60.5056737,72.554626 61.0464043,72.554626 C61.5874145,72.554626 61.7509757,72.3271862 62.2914267,72.1647292 C62.8324369,72.0022722 69.5686431,71.8137661 69.5686431,71.8137661 C69.5686431,71.8137661 64.3746655,72.5747931 63.9421369,72.7372501 C63.5093288,72.8997071 61.9950594,73.6041543 61.2376451,73.4957563 C60.4805104,73.3873582 57.2895288,73.1167833 57.2895288,73.1167833 L52.3687124,73.2173386 Z" mask="url(#mike-b)"/>
    <path fill="#BA736D" d="M51.9132853,73.4769337 C51.9132853,73.4769337 54.080122,74.5273022 55.4780812,75.0174742 C56.8760404,75.5076462 59.322469,75.857769 60.6505302,75.7877445 C61.9785914,75.7177199 64.8444078,75.3675971 66.0326731,74.8774251 C67.2209384,74.3872531 69.8770608,72.0764423 69.8770608,72.0764423 C69.8770608,72.0764423 65.5937139,72.5184373 63.7260404,72.9867617 C62.097418,73.395145 60.4316098,73.5237101 58.9030812,73.1968354 C56.7024139,72.7259902 51.9132853,73.4769337 51.9132853,73.4769337" mask="url(#mike-b)"/>
    <path fill="#572721" d="M51.7035914,73.1268108 C51.7035914,73.1268108 56.5964486,72.9867617 57.0158363,72.9167371 C57.4352241,72.8467125 58.6933873,72.9867617 59.322469,73.0567862 C59.9515506,73.1268108 60.6505302,73.1968354 61.1398159,73.1968354 C61.6291016,73.1968354 63.1668567,72.776688 63.6561424,72.5666143 C64.1454282,72.3565405 68.8285914,71.8663686 68.8285914,71.8663686 C68.8285914,71.8663686 70.2964486,71.3761966 70.6459384,71.5162457 C70.9954282,71.6562948 71.6245098,71.9363931 70.9255302,72.0764423 C70.2265506,72.2164914 67.0112445,72.6366388 66.2423669,72.6366388 C65.4734894,72.6366388 64.2852241,72.7066634 63.3765506,73.1268108 C62.4678771,73.5469582 61.9785914,73.6169828 61.1398159,73.6870074 C60.3010404,73.7570319 59.0428771,73.1968354 57.505122,73.1968354 C55.9673669,73.1968354 52.6821629,73.1268108 51.9132853,73.4769337 C51.1444078,73.8270565 51.7035914,73.1268108 51.7035914,73.1268108" mask="url(#mike-b)"/>
    <path fill="#C7827D" d="M56.0402845,73.9148673 C56.0402845,73.9148673 58.1117804,73.631688 58.8652804,73.7260811 C59.6187804,73.8204742 60.6546682,74.2921597 61.5963335,74.0092604 C62.5379988,73.7260811 64.892162,72.9714963 65.7396049,73.0658894 C66.5873273,73.1602826 67.05816,73.8204742 65.4572171,74.575059 C63.8562743,75.3299238 61.4078886,75.6128231 59.3361131,75.3299238 C57.2643376,75.0470246 55.064509,74.9128575 56.0402845,73.9148673" mask="url(#mike-b)"/>
    <path fill="#CA9275" d="M75.0495098,75.0874988 C75.0495098,75.0874988 75.7484894,73.1268108 75.8882853,71.7263194 C76.0280812,70.325828 76.7270608,68.5051892 77.2862445,69.2054349 C77.8454282,69.9056806 77.5658363,71.4462211 77.0066527,72.8467125 C76.447469,74.2472039 75.0495098,75.0874988 75.0495098,75.0874988" mask="url(#mike-b)"/>
    <path fill="#C38D71" d="M46.4000978,51.0050688 C46.4000978,51.0050688 47.4524814,51.1806904 48.4693569,51.1456781 C49.486512,51.1103857 50.363312,50.8294472 50.363312,50.8294472 C50.363312,50.8294472 49.8371202,51.7078354 48.8551937,51.7078354 C47.8732671,51.7078354 46.4000978,51.0050688 46.4000978,51.0050688" mask="url(#mike-b)"/>
    <path fill="#6F4233" d="M65.2951937,48.1567494 C64.8173712,48.0777617 66.5309896,46.5725135 66.9758202,46.0772998 C67.4206508,45.582086 69.0023018,45.186027 69.8916835,45.1364496 C70.7813447,45.0868722 71.8689569,44.9879975 72.8573141,45.2353243 C73.8456712,45.4829312 74.5379406,45.7308182 74.9332835,46.1268771 C75.3286263,46.5229361 76.5146549,47.8102678 76.5146549,47.8102678 C76.5146549,47.8102678 74.6861243,46.1764545 74.09311,45.9784251 C73.4998161,45.7803956 72.0666284,45.2849017 70.8308324,45.3840565 C69.5953161,45.4829312 68.6561671,45.6316634 67.7170182,46.1268771 C66.7781488,46.6220909 65.7732957,48.2360172 65.2951937,48.1567494" mask="url(#mike-b)"/>
    <path fill="#682B2F" d="M37.8637955,91.7533464 C37.8637955,91.7533464 41.060369,101.274727 46.5311424,103.797572 C55.1252363,107.760683 63.3371282,107.009179 69.4576731,105.198064 C77.5552118,102.801823 82.3541261,96.2702113 82.5984894,93.9941327 C82.8557139,91.5984521 83.7168567,89.2324619 83.7168567,89.2324619 C83.7168567,89.2324619 85.6739996,96.7951155 78.6842037,101.836885 C71.6944078,106.878654 61.3931261,110.348791 52.1665955,106.987612 C42.9400649,103.626432 43.0611282,102.913862 41.1039853,100.673076 C39.1468424,98.4322899 37.8637955,91.7533464 37.8637955,91.7533464" mask="url(#mike-b)"/>
    <path fill="#C38D71" d="M50.2373839 65.096141L52.432739 61.7397233C52.432739 61.7397233 52.9438329 62.8727209 52.2890288 63.6247848 51.4555655 64.5824408 50.2373839 65.096141 50.2373839 65.096141M67.0461935 60.8254545C67.0461935 60.8254545 68.3915894 62.7040737 68.7304547 63.0774447 69.0690404 63.4508157 69.3740751 63.9597543 69.4755669 64.095602 69.5773384 64.2311695 68.1181486 63.4880688 67.7795629 63.0130221 67.4406976 62.5376953 67.2399506 62.1612432 67.2399506 62.1612432L67.0461935 60.8254545z" mask="url(#mike-b)"/>
    <path fill="#6F4233" d="M54.663071 65.1235066C54.663071 65.1235066 53.6050955 65.1072609 53.1054649 64.7946713 52.1925976 64.2235509 52.175822 63.1776639 52.175822 63.1776639 52.175822 63.1776639 52.7629649 63.8636246 53.1543935 63.8636246 53.5455424 63.8636246 53.888322 63.5695214 54.7684771 63.4717671 55.6489118 63.3737327 55.9914118 63.4717671 56.3825608 63.7168531 56.774269 63.9619391 57.2143465 64.696917 57.2143465 64.696917 57.2143465 64.696917 56.4806976 64.1577278 55.8449057 64.2557622 55.2088343 64.3537966 55.6413629 64.8294034 54.663071 65.1235066M58.631961 66.0092054C58.631961 66.0092054 59.0963631 66.6371857 60.4428773 66.4117066 61.1250814 66.2977066 61.3722406 65.9218147 62.056961 65.48066 62.7416814 65.0397853 63.2309671 64.4028418 63.6223957 64.3048074 64.0135447 64.2064929 64.6982651 64.7456821 64.6982651 64.7456821 64.6982651 64.7456821 65.37991 65.0700359 66.2013508 64.9159818 66.9442263 64.7764929 67.113659 64.4933135 67.408908 64.0319916 67.8696753 63.3112988 67.5355631 62.2953823 67.5355631 62.2953823 67.5355631 62.2953823 67.3401284 64.1577558 66.6548488 64.2557902 65.9701284 64.3538246 65.3343365 64.4028418 64.8939794 64.2064929 64.4539018 64.0107042 64.7471937 63.3737607 64.7471937 63.3737607 64.7471937 63.3737607 64.1603304 62.8345715 63.4264018 63.3247435 62.6927529 63.8146354 62.1548182 65.1378197 61.323312 65.5299572 60.4915263 65.9218147 59.7464141 66.241687 58.631961 66.0092054" mask="url(#mike-b)"/>
  </g>
</svg>
