<svg xmlns="http://www.w3.org/2000/svg" width="349" height="204" viewBox="0 0 349 204" xmlns:xlink="http://www.w3.org/1999/xlink">
  <defs>
    <rect id="a" width="104.198" height="150.147" rx="4.033"/>
    <mask id="k" width="104.198" height="150.147" x="0" y="0" fill="white">
      <use xlink:href="#a"/>
    </mask>
    <rect id="b" width="33.842" height="21.45" y="66.136" rx="3.025"/>
    <mask id="l" width="33.842" height="21.45" x="0" y="0" fill="white">
      <use xlink:href="#b"/>
    </mask>
    <rect id="c" width="81.043" height="21.45" x="38.295" y="66.136" rx="3.025"/>
    <mask id="m" width="81.043" height="21.45" x="0" y="0" fill="white">
      <use xlink:href="#c"/>
    </mask>
    <rect id="d" width="119.338" height="49.155" y="12.512" rx="3.025"/>
    <mask id="n" width="119.338" height="49.155" x="0" y="0" fill="white">
      <use xlink:href="#d"/>
    </mask>
    <ellipse id="e" cx="5.789" cy="6.703" rx="5.789" ry="5.809"/>
    <mask id="o" width="15.61" height="15.651" x="-2.016" y="-2.016">
      <rect width="15.61" height="15.651" x="-2.016" y="-1.123" fill="white"/>
      <use fill="black" xlink:href="#e"/>
    </mask>
    <ellipse id="f" cx="5.789" cy="6.703" rx="5.789" ry="5.809"/>
    <mask id="p" width="15.61" height="15.651" x="-2.016" y="-2.016">
      <rect width="15.61" height="15.651" x="-2.016" y="-1.123" fill="white"/>
      <use fill="black" xlink:href="#f"/>
    </mask>
    <ellipse id="g" cx="5.789" cy="6.703" rx="5.789" ry="5.809"/>
    <mask id="q" width="15.61" height="15.651" x="-2.016" y="-2.016">
      <rect width="15.61" height="15.651" x="-2.016" y="-1.123" fill="white"/>
      <use fill="black" xlink:href="#g"/>
    </mask>
    <ellipse id="h" cx="5.789" cy="6.703" rx="5.789" ry="5.809"/>
    <mask id="r" width="15.61" height="15.651" x="-2.016" y="-2.016">
      <rect width="15.61" height="15.651" x="-2.016" y="-1.123" fill="white"/>
      <use fill="black" xlink:href="#h"/>
    </mask>
    <ellipse id="i" cx="5.789" cy="6.703" rx="5.789" ry="5.809"/>
    <mask id="s" width="15.61" height="15.651" x="-2.016" y="-2.016">
      <rect width="15.61" height="15.651" x="-2.016" y="-1.123" fill="white"/>
      <use fill="black" xlink:href="#i"/>
    </mask>
    <ellipse id="j" cx="5.789" cy="6.703" rx="5.789" ry="5.809"/>
    <mask id="t" width="15.61" height="15.651" x="-2.016" y="-2.016">
      <rect width="15.61" height="15.651" x="-2.016" y="-1.123" fill="white"/>
      <use fill="black" xlink:href="#j"/>
    </mask>
  </defs>
  <g fill="none" fill-rule="evenodd" transform="translate(0 18)">
    <path fill="#1D1D1B" d="M77.2101013,19.3139009 C77.2101013,19.3139009 77.0727437,15.8475675 76.4162107,14.688891 C75.7602827,13.5302145 75.1491322,8.51554503 75.5944854,7.71986395 C76.0404438,6.92418286 75.9841696,4.18505223 76.9916604,3.00819567 C77.9991512,1.8307331 78.982438,0.310879206 81.7519788,0.104232404 C84.5215196,-0.1030204 89.0948622,0.0460561787 89.683019,0.550856137 C90.2705707,1.05505009 93.7644156,4.76136047 93.7644156,4.76136047 C93.7644156,4.76136047 95.067195,6.01093732 94.7852186,7.60108749 C94.5026371,9.19123766 92.7569248,13.0866208 92.7569248,13.0866208 C92.7569248,13.0866208 89.075499,11.8897661 87.3570162,13.7132272 C85.6391385,15.5372943 77.2101013,19.3139009 77.2101013,19.3139009"/>
    <path fill="#E2BD9F" d="M74.9591309,27.7052155 L77.1217568,24.6406616 L77.2101013,19.3139009 L78.1534516,14.2949895 C78.1534516,14.2949895 76.3792996,11.9370343 77.1217568,10.6111012 C77.8648191,9.28516802 78.3295355,8.46585284 78.8838068,8.95247273 C79.766042,9.72633773 80.0389419,13.1884292 80.3753772,11.8824941 L83.0753316,7.99559502 L85.6203804,5.93882304 C85.6203804,5.93882304 89.0367726,6.9866011 89.6243243,7.49140106 C90.2124811,7.99559502 92.7048863,11.3140639 92.7048863,11.3140639 C92.7048863,11.3140639 92.4997575,13.7683734 91.955773,14.2053011 C91.4117885,14.6416228 89.3320612,20.9113231 89.3320612,20.9113231 L87.1966648,24.3182683 L89.3320612,29.1565911 C89.3320612,29.1565911 90.8569122,37.2970207 87.9439628,35.6602083 C85.0316185,34.024002 77.6687668,31.6302927 77.6687668,31.6302927 L74.9591309,27.7052155"/>
    <path fill="#003569" d="M83.3857476,71.8367307 L79.9505973,61.3013798 L74.3921526,54.5656637 L72.00685,55.925533 C72.00685,55.925533 66.6644258,45.1289951 66.5446161,43.5394509 C66.4248064,41.9499067 65.0373131,34.6742425 65.6036863,34.4888058 C66.1700595,34.3033691 67.5744956,31.5521184 69.2536469,30.6231168 C70.9334034,29.6941152 75.5303449,26.1714235 75.5303449,26.1714235 C75.5303449,26.1714235 77.1598781,29.90864 79.9505973,30.9836882 C82.7419217,32.0587364 86.177072,33.3489154 86.177072,33.3489154 L88.7529809,27.328888 L95.8919458,27.8664121 L101.236185,32.8265413 L108.505247,45.3901821 L101.593194,48.7722812 L103.934929,53.5348537 L101.205325,59.3658083 C101.205325,59.3658083 94.18617,69.9035832 91.7591156,70.3320268 C89.3320612,70.7604705 84.7103106,74.9855189 84.7103106,74.9855189 L83.3857476,71.8367307"/>
    <path fill="#422918" d="M105.231053,148.489968 C106.197397,149.135361 114.02315,153.464035 115.048793,153.963381 C116.075042,154.463333 121.274663,157.833918 122.77773,156.75887 C124.280798,155.683822 127.185881,152.495038 125.99807,150.953368 C124.810865,149.411698 119.239713,144.727299 117.30763,144.512169 C115.375547,144.297038 111.398833,143.2129 111.398833,143.2129 L105.816789,143.42803 C105.816789,143.42803 104.264709,147.845182 105.231053,148.489968"/>
    <path fill="#3AAED9" d="M86.177072,84.5227839 C86.177072,84.5227839 88.7529809,102.799209 88.5387757,105.379567 C88.3239653,107.959925 87.2505187,113.120035 87.0357083,115.055 C86.820898,116.989966 82.7903297,139.579915 82.5271113,142.792334 C82.263893,146.004752 81.1541404,149.636524 81.7332207,150.299491 C82.312301,150.962458 90.3413673,155.654128 91.8014726,153.308293 C93.2615779,150.962458 95.4084712,151.60785 95.4084712,148.382706 C95.4084712,145.157561 98.5217085,141.179762 98.3068982,130.428674 C98.0926929,119.678192 100.001782,111.799556 100.001782,111.799556 C100.001782,111.799556 102.607341,90.6731017 102.815495,92.0481211 C103.525882,96.7300952 106.88358,107.482395 107.324092,112.044987 C107.968523,118.710407 106.358353,130.966198 106.358353,133.331425 C106.358353,135.696652 105.499717,143.652251 105.284907,145.157561 C105.070096,146.662265 110.86695,147.199789 110.86695,147.199789 C110.86695,147.199789 112.463203,148.204541 113.75146,147.98941 C115.039717,147.774279 115.580676,148.783273 118.9178,146.555003 C120.850488,145.264824 119.239713,139.136928 119.239713,137.631618 C119.239713,136.126914 122.674863,119.355193 122.460053,116.130048 C122.245848,112.904904 119.694143,103.104634 118.381077,96.3489198 C117.068011,89.5925996 115.590357,86.6728802 115.160737,84.0925222 C114.731116,81.5127702 113.228654,74.2019578 113.228654,74.2019578 L86.177072,84.5227839"/>
    <polyline fill="#422918" points="136.447 29.006 138.418 30.984 142.55 30.251 148.436 21.512 143.881 19.326 136.916 26.178 136.447 29.006"/>
    <path fill="#422918" d="M84.6201508,153.327685 C84.6201508,153.327685 90.685669,157.305484 92.8325623,158.166008 C94.9794556,159.025925 97.7701749,161.498414 99.0584319,160.208235 C100.346689,158.918056 103.928878,157.952089 103.406072,155.80078 C102.883266,153.649472 95.8919458,149.135361 95.8919458,149.135361 L90.4708586,150.747933 C90.4708586,150.747933 82.7419217,147.307657 81.8826803,148.167575 C81.024044,149.027492 81.2388543,150.855195 81.8826803,151.715113 C82.5271113,152.575636 84.6201508,153.327685 84.6201508,153.327685"/>
    <path fill="#E2BD9F" d="M106.85756,44.9514364 C106.85756,44.9514364 109.901211,48.2602092 111.000677,49.4631239 C111.995461,50.5508981 129.243219,34.9669416 129.243219,34.9669416 C129.301309,34.8924034 130.205328,34.2482229 130.205328,34.2482229 C130.893326,33.770693 131.810657,34.3821494 131.636388,35.2026766 C131.584955,35.4450775 129.439272,36.9346313 129.439272,36.9346313 C129.367265,36.9806875 129.301914,37.0370457 129.245035,37.1012819 L111.182207,57.5041691 C110.984339,57.7283899 107.861421,57.5453772 107.861421,57.5453772 C107.633903,57.5217431 103.934929,53.5348537 103.934929,53.5348537 C103.87684,53.4700114 103.827827,53.3972911 103.789705,53.3185108 L100.883412,48.0238683 L106.85756,44.9514364"/>
    <path fill="#EC6D54" d="M106.219785,58.1538036 C106.219785,58.1538036 105.240734,56.5860755 106.199817,54.5420296 C107.1589,52.4973777 103.156166,52.3531491 102.558933,54.0820738 C101.962305,55.8116045 99.9963362,60.578419 97.7072445,62.1891732 C95.4181528,63.7999275 93.5623124,64.0786886 90.8290776,66.2033328 C88.0958428,68.3279771 84.6727944,71.5622116 84.1451476,74.250438 C83.6168957,76.9380585 83.0765418,80.7831434 85.9913064,83.8483033 C88.9060711,86.9140692 90.4944575,89.6507758 93.6748609,91.6760356 C96.8008053,93.6661474 99.3900264,94.8084618 101.53934,93.9982366 C105.585641,92.4723227 109.060123,88.430287 108.52703,85.4954177 C107.993332,82.5581243 109.875797,78.8457539 111.348004,77.2465137 C112.820212,75.6460615 117.570848,74.8212923 118.646715,73.0572194 C119.721977,71.2931466 120.028158,68.8624711 118.499676,68.3467631 C116.971195,67.8304491 115.906219,70.4126251 114.261559,69.6163381 C112.616898,68.820051 111.661446,66.9135676 113.133653,65.3137214 C114.60586,63.7138752 116.140393,58.3034862 116.140393,58.3034862 L109.360252,57.0114892 L106.219785,58.1538036"/>
    <path fill="#C74C39" d="M88.765688,86.9722454 C88.7662931,86.9722454 93.3366102,91.6524015 95.9621373,92.040243 C98.5876644,92.4286906 102.030681,92.80623 103.608176,90.6688597 C105.18567,88.5314894 106.132046,87.643696 106.286951,84.4530936 C106.441857,81.2624912 108.045371,76.810192 109.411686,75.7478698 C110.778606,74.6855477 114.51449,73.7892702 115.705932,72.3063825 C116.897978,70.8228887 117.51881,68.7546027 117.51881,68.7546027 L118.499676,68.3467631 L119.607614,69.0369998 C119.607614,69.0369998 119.954941,71.8543047 118.646715,73.0572194 C117.337885,74.2595281 113.369642,74.5946474 111.792147,76.7326237 C110.214048,78.869994 109.056492,80.8322296 108.634133,82.9829319 C108.212378,85.1330283 109.682165,85.5087497 108.139161,88.1248619 C106.596157,90.74158 105.893637,93.0086348 102.157752,93.9049123 C98.4218671,94.8011898 95.6347784,92.8353181 93.6748609,91.6760356 C91.7155485,90.5167531 88.765688,86.9722454 88.765688,86.9722454"/>
    <path fill="#422918" d="M105.54994,62.8751679 C105.655227,62.3376438 136.396101,28.3190959 136.396101,28.3190959 L139.614626,30.928542 L109.117607,66.3269573 L105.54994,62.8751679"/>
    <path fill="#E2BD9F" d="M73.0802967 55.2807464C73.0802967 55.2807464 85.1689761 65.8167033 87.2505187 66.4614898 89.3320612 67.1062763 97.9849852 71.407075 97.9849852 71.407075 97.9849852 71.407075 100.77631 73.1269097 102.278772 74.2019578 103.781839 75.277006 105.79319 75.5072869 107.002179 74.8473504 108.211168 74.1868078 110.437329 73.3420405 110.437329 71.6222058 110.437329 69.9017652 110.222519 68.3964553 108.720057 68.3964553 107.21699 68.3964553 103.781839 66.4614898 103.781839 66.4614898L106.787369 64.7416552C106.787369 64.7416552 104.30404 63.4520821 102.923203 64.0962626 101.541761 64.7404431 99.9176733 66.246359 98.6288112 65.8167033 97.3411593 65.3864417 84.4591943 54.2056983 84.4591943 54.2056983 84.4591943 54.2056983 81.4911809 47.7566213 79.3067714 47.9699341 77.1217568 48.1838529 73.0802967 55.2807464 73.0802967 55.2807464M132.551299 34.4239635C132.551299 34.4239635 129.545164 36.359535 129.330354 37.6497141 129.116148 38.9392871 129.545164 41.5196451 129.545164 41.5196451L132.121678 41.7347759 134.912397 40.0143352 137.059291 36.359535 132.551299 34.4239635"/>
    <path fill="#A38F76" d="M80.513945,17.3037911 C80.513945,17.3037911 81.6412455,20.367739 82.6075896,20.9319272 C83.5739336,21.4961154 85.0231471,23.0280893 86.8747518,22.7056961 C88.0014472,22.5093513 89.5317441,20.1259441 89.5317441,20.1259441 C89.5317441,20.1259441 88.0825306,24.5606693 87.1161865,25.4472507 C86.1498425,26.3344382 84.5396725,27.5434128 83.0099808,26.4956348 C82.2015678,25.9417486 79.9505973,20.6901323 80.1115538,19.7223465 C80.2725103,18.7551668 80.513945,17.3037911 80.513945,17.3037911"/>
    <polyline fill="#422918" points="93.596 75.39 97.429 78.824 95.815 80.44 91.983 75.592 93.596 75.39"/>
    <path fill="#C74C39" d="M100.151242 83.1011024C100.151242 83.7949751 99.7409842 84.3573452 99.235726 84.3573452 98.7304679 84.3573452 98.3202104 83.7949751 98.3202104 83.1011024 98.3202104 82.4078357 98.7304679 81.8454655 99.235726 81.8454655 99.7409842 81.8454655 100.151242 82.4078357 100.151242 83.1011024M103.680788 80.8794978C103.680788 81.5727644 103.271135 82.1351346 102.765272 82.1351346 102.260014 82.1351346 101.850361 81.5727644 101.850361 80.8794978 101.850361 80.1856251 102.260014 79.6232549 102.765272 79.6232549 103.271135 79.6232549 103.680788 80.1856251 103.680788 80.8794978M103.277186 85.6263142C103.277186 86.3201869 102.867534 86.882557 102.362276 86.882557 101.856412 86.882557 101.44676 86.3201869 101.44676 85.6263142 101.44676 84.9324415 101.856412 84.3706773 102.362276 84.3706773 102.867534 84.3706773 103.277186 84.9324415 103.277186 85.6263142"/>
    <polyline fill="#1D1D1B" points="57.769 138.69 23.276 158.59 23.295 109.58 57.769 89.736 57.769 138.69"/>
    <polyline fill="#EC6D54" points="56.155 100.276 25.293 117.954 25.311 110.591 56.155 92.968 56.155 100.276"/>
    <polyline fill="#575756" points=".37 96.117 23.42 109.324 23.276 158.59 .37 145.07 .37 96.117"/>
    <polyline fill="#9C9B9B" points="23.465 109.576 57.769 89.736 34.783 76.219 .37 96.117 23.465 109.576"/>
    <path fill="#575756" d="M28.5861144 110.738446C29.19787 110.380904 29.7031282 110.663907 29.7152302 111.370506 29.7273322 112.077105 29.2408321 112.941264 28.6290764 113.299412 28.0167157 113.658165 27.5102473 113.374556 27.4993555 112.666139 27.4878586 111.958934 27.9743587 111.095381 28.5861144 110.738446M32.0158188 108.696824C32.6275745 108.339282 33.1328326 108.622285 33.1449346 109.328884 33.1570366 110.036089 32.6711416 110.899642 32.0587809 111.25779 31.4464201 111.616543 30.9405568 111.332934 30.9290599 110.624517 30.917563 109.917312 31.4046682 109.054365 32.0158188 108.696824"/>
    <path fill="#DA4453" d="M46.3869338 100.894543C46.9986895 100.537002 47.5039476 100.820005 47.5160496 101.526604 47.5281516 102.233809 47.0422567 103.097362 46.4298959 103.455509 45.8175351 103.814263 45.3116719 103.530654 45.300175 102.822843 45.2886781 102.115032 45.7757832 101.252085 46.3869338 100.894543M49.5975922 99.1638007C50.2087428 98.8068653 50.7140009 99.0892624 50.7261029 99.7958611 50.7382049 100.503066 50.2523099 101.367225 49.6399492 101.725373 49.0275884 102.08352 48.5217251 101.799911 48.5102282 101.0921 48.4987313 100.384289 48.9858365 99.5213421 49.5975922 99.1638007M52.8070404 97.433664C53.418796 97.0761226 53.9240542 97.3591257 53.9361562 98.0657244 53.9482582 98.7723232 53.4623632 99.6364825 52.8500024 99.9946299 52.2376417 100.353383 51.7317784 100.069774 51.7202815 99.3613574 51.7087846 98.6541527 52.1958898 97.7905994 52.8070404 97.433664"/>
    <path stroke="#E85740" stroke-width="1.411" d="M90.6638854,86.2541326 C79.0598907,93.2837599 71.6946187,110.306972 73.2799796,123.743256 C74.6099884,135.017324 82.5561561,147.607629 78.6611301,159.221058 C76.7000024,165.06898 71.4277697,166.122212 65.5631446,165.863449 C62.2320714,165.716191 49.6102993,165.730735 49.9116389,160.581533 C50.2553354,154.697856 62.6108638,157.30609 64.5502079,161.074213 C68.8845362,169.496434 44.6230685,171.048406 40.9101775,169.002542 C35.207114,165.860419 40.2863198,161.834746 43.6821387,161.406302 C48.5822351,160.788786 54.6489635,160.641527 58.4671418,164.209669 C62.3325179,167.822049 61.3982442,170.718134 57.3489178,173.002763 C51.1333349,176.508487 41.8553431,178.038643 37.5155689,171.049618 C32.5549625,163.058871 35.8751439,156.7316 38.2350323,148.537842 C40.7782658,139.708388 44.6478776,126.709638 38.4117213,118.266813 C35.6724355,114.557472 32.5797716,113.113369 28.4396803,111.807434"/>
    <path fill="#171615" d="M26.8343511,102.910713 L12.6653393,94.7333175 C12.316802,94.5321247 12.3639997,94.1788253 12.7694164,93.9485445 L32.1174755,82.7890112 C32.5234973,82.5587303 33.1400938,82.5344902 33.4886312,82.735683 L47.6576429,90.9136847 C48.0055752,91.1148775 47.9589825,91.4681768 47.5529607,91.6984577 L28.2049016,102.857385 C27.7994849,103.088272 27.1822833,103.111906 26.8343511,102.910713"/>
    <path fill="#4E4B49" d="M27.4890688,103.999093 C27.7407903,103.990609 27.9997729,103.926979 28.2049016,103.810627 L47.5529607,92.6510934 C47.7762424,92.5250449 47.8863706,92.3614243 47.8863706,92.2062877 L47.8906063,92.2105297 L47.8906063,91.2857701 C47.7556691,91.6251314 47.4597754,91.7523919 47.4597754,91.7523919 L28.2049016,102.857385 C27.994327,102.977373 27.7256628,103.04161 27.4678903,103.047064 L27.4890688,103.999093"/>
    <path fill="#4E4B49" d="M27.4678903,103.047064 C27.2300862,103.051912 27.0013586,103.007674 26.8343511,102.910713 L12.8632069,94.8472459 C12.8632069,94.8472459 12.5467398,94.7127134 12.4317709,94.4575864 L12.4317709,95.3259878 L12.4354015,95.3278058 C12.4275352,95.4617323 12.5007522,95.5908108 12.6653393,95.6859532 L26.8343511,103.863955 C27.0061994,103.963339 27.2440035,104.007577 27.4890688,103.999093 L27.4678903,103.047064"/>
    <polyline fill="#5B5E67" points="27.868 100.752 16.339 93.728 32.437 84.501 44.318 91.278"/>
    <path stroke="#ECF0F3" stroke-width=".706" d="M31.8687796,110.090629 C35.7807484,111.622603 38.4631548,124.189274 33.0916858,122.588216 C30.9490282,121.950095 29.2347811,118.963109 28.3882468,117.06208 C27.4684954,114.995612 27.1780476,112.677047 25.9944729,110.732386 C24.4726474,108.23202 23.0906,105.724988 20.3507091,104.557828 C18.8028644,103.898497 16.5724673,103.500354 15.4022047,102.214417 C13.7980857,100.452162 15.7882582,98.1935909 17.3463897,97.2633773"/>
    <path fill="#2591BF" d="M140.037929,87.5028249 C139.066355,87.5028249 138.278739,86.6124533 138.278739,85.5141243 C138.278739,84.4157953 139.066355,83.5254237 140.037929,83.5254237 C141.009502,83.5254237 141.797118,84.4157953 141.797118,85.5141243 C141.797118,86.6124533 141.009502,87.5028249 140.037929,87.5028249 Z M148.833876,87.5028249 C147.862303,87.5028249 147.074687,86.6124533 147.074687,85.5141243 C147.074687,84.4157953 147.862303,83.5254237 148.833876,83.5254237 C149.80545,83.5254237 150.593066,84.4157953 150.593066,85.5141243 C150.593066,86.6124533 149.80545,87.5028249 148.833876,87.5028249 Z M157.629824,87.5028249 C156.65825,87.5028249 155.870634,86.6124533 155.870634,85.5141243 C155.870634,84.4157953 156.65825,83.5254237 157.629824,83.5254237 C158.601397,83.5254237 159.389013,84.4157953 159.389013,85.5141243 C159.389013,86.6124533 158.601397,87.5028249 157.629824,87.5028249 Z M166.425771,87.5028249 C165.454198,87.5028249 164.666582,86.6124533 164.666582,85.5141243 C164.666582,84.4157953 165.454198,83.5254237 166.425771,83.5254237 C167.397345,83.5254237 168.184961,84.4157953 168.184961,85.5141243 C168.184961,86.6124533 167.397345,87.5028249 166.425771,87.5028249 Z M175.221719,87.5028249 C174.250145,87.5028249 173.462529,86.6124533 173.462529,85.5141243 C173.462529,84.4157953 174.250145,83.5254237 175.221719,83.5254237 C176.193292,83.5254237 176.980908,84.4157953 176.980908,85.5141243 C176.980908,86.6124533 176.193292,87.5028249 175.221719,87.5028249 Z"/>
    <g transform="rotate(90 153.641 195.51)">
      <use fill="#171615" stroke="#4E4B49" stroke-width="2.016" mask="url(#k)" xlink:href="#a"/>
      <polygon fill="#4E4B49" points="6.234 10.725 98.855 10.725 98.855 139.422 6.234 139.422"/>
      <g transform="rotate(-90 70.41 64.331)">
        <rect width="116.666" height="6.256" x="1.781" fill="#E85740"/>
        <use stroke="#979797" stroke-width="2.016" mask="url(#l)" xlink:href="#b"/>
        <use fill="#171615" stroke="#979797" stroke-width="2.016" mask="url(#m)" xlink:href="#c"/>
        <use stroke="#979797" stroke-width="2.016" mask="url(#n)" xlink:href="#d"/>
        <rect width=".891" height="21.45" x="10.52" y="36.643" fill="#171615" transform="matrix(-1 0 0 1 22.098 0)" rx=".445"/>
        <g transform="translate(2.226 17.875)">
          <g transform="rotate(133 6.765 8.274)">
            <use fill="#777675" xlink:href="#e"/>
            <use stroke="#3E3D3B" stroke-width="4.033" mask="url(#o)" xlink:href="#e"/>
            <use stroke="#DBD9DB" stroke-width="1.008" xlink:href="#e"/>
            <rect width=".891" height="3.575" x="5.177" fill="#171615" transform="matrix(-1 0 0 1 11.41 0)" rx=".445"/>
          </g>
          <g transform="rotate(56 14.623 28.953)">
            <use fill="#777675" xlink:href="#f"/>
            <use stroke="#3E3D3B" stroke-width="4.033" mask="url(#p)" xlink:href="#f"/>
            <use stroke="#DBD9DB" stroke-width="1.008" xlink:href="#f"/>
            <rect width=".891" height="3.575" x="5.177" fill="#171615" transform="matrix(-1 0 0 1 11.41 0)" rx=".445"/>
          </g>
          <g transform="rotate(115 26.086 21.072)">
            <use fill="#777675" xlink:href="#g"/>
            <use stroke="#3E3D3B" stroke-width="4.033" mask="url(#q)" xlink:href="#g"/>
            <use stroke="#DBD9DB" stroke-width="1.008" xlink:href="#g"/>
            <rect width=".891" height="3.575" x="5.177" fill="#171615" transform="matrix(-1 0 0 1 11.41 0)" rx=".445"/>
          </g>
          <g transform="rotate(19 27.835 187.212)">
            <use fill="#777675" xlink:href="#h"/>
            <use stroke="#3E3D3B" stroke-width="4.033" mask="url(#r)" xlink:href="#h"/>
            <use stroke="#DBD9DB" stroke-width="1.008" xlink:href="#h"/>
            <rect width=".891" height="3.575" x="5.177" fill="#171615" transform="matrix(-1 0 0 1 11.41 0)" rx=".445"/>
          </g>
          <g transform="rotate(-141 46.117 -6.516)">
            <use fill="#777675" xlink:href="#i"/>
            <use stroke="#3E3D3B" stroke-width="4.033" mask="url(#s)" xlink:href="#i"/>
            <use stroke="#DBD9DB" stroke-width="1.008" xlink:href="#i"/>
            <rect width=".891" height="3.575" x="5.177" fill="#171615" transform="matrix(-1 0 0 1 11.41 0)" rx=".445"/>
          </g>
          <g transform="rotate(91 54.122 56.388)">
            <use fill="#777675" xlink:href="#j"/>
            <use stroke="#3E3D3B" stroke-width="4.033" mask="url(#t)" xlink:href="#j"/>
            <use stroke="#DBD9DB" stroke-width="1.008" xlink:href="#j"/>
            <rect width=".891" height="3.575" x="5.177" fill="#171615" transform="matrix(-1 0 0 1 11.41 0)" rx=".445"/>
          </g>
          <rect width=".891" height="21.45" x="27.886" y="17.875" fill="#171615" transform="matrix(-1 0 0 1 56.83 0)" rx=".445"/>
          <rect width=".891" height="21.45" x="47.479" y="17.875" fill="#171615" transform="matrix(-1 0 0 1 96.016 0)" rx=".445"/>
          <rect width=".891" height="21.45" x="65.291" y="17.875" fill="#171615" transform="matrix(-1 0 0 1 131.64 0)" rx=".445"/>
          <rect width=".891" height="21.45" x="84.884" y="17.875" fill="#171615" transform="matrix(-1 0 0 1 170.825 0)" rx=".445"/>
          <rect width=".891" height="21.45" x="104.476" y="17.875" fill="#171615" transform="matrix(-1 0 0 1 210.01 0)" rx=".445"/>
          <rect width=".891" height="16.981" x="8.294" y="23.237" fill="#E85740" transform="matrix(-1 0 0 1 17.645 0)" rx=".445"/>
          <rect width=".891" height="10.725" x="27.886" y="28.599" fill="#E85740" transform="matrix(-1 0 0 1 56.83 0)" rx=".445"/>
          <rect width=".891" height="12.512" x="47.479" y="26.812" fill="#E85740" transform="matrix(-1 0 0 1 96.016 0)" rx=".445"/>
          <rect width=".891" height="6.256" x="65.291" y="33.068" fill="#E85740" transform="matrix(-1 0 0 1 131.64 0)" rx=".445"/>
          <rect width=".891" height="16.981" x="84.884" y="22.343" fill="#E85740" transform="matrix(-1 0 0 1 170.825 0)" rx=".445"/>
          <rect width=".891" height="12.512" x="104.476" y="26.812" fill="#E85740" transform="matrix(-1 0 0 1 210.01 0)" rx=".445"/>
        </g>
        <rect width="9.796" height="6.256" x="6.234" y="76.861" fill="#171615" rx="2.016"/>
        <ellipse cx="11.132" cy="72.839" fill="#EC6D54" rx="1.336" ry="1.341"/>
        <ellipse cx="23.6" cy="72.839" fill="#EC6D54" rx="1.336" ry="1.341"/>
        <rect width="9.796" height="6.256" x="18.702" y="76.861" fill="#171615" rx="2.016"/>
      </g>
    </g>
  </g>
</svg>
