<svg xmlns="http://www.w3.org/2000/svg" width="177" height="118" viewBox="0 0 177 118">
  <g fill="none" fill-rule="evenodd" transform="translate(0 .75)">
    <rect width="150.944" height="99.9" x="13.477" fill="#171615" rx="2.7"/>
    <rect width="140.162" height="87.3" x="18.868" y="7.2" fill="#FFFFFF"/>
    <rect width="175.203" height="6.3" x=".898" y="110.7" fill="#4E4B49" rx=".9"/>
    <path fill="#9B9B9B" d="M11.5029196,101.57565 C12.6696018,100.650214 14.8209436,99.9 16.3105267,99.9 L160.689473,99.9 C162.177959,99.9 164.331213,100.65086 165.49708,101.57565 L174.887535,109.02435 C176.054217,109.949786 175.799178,110.7 174.290581,110.7 L2.70941877,110.7 C1.2130481,110.7 0.946597565,109.94914 2.11246504,109.02435 L11.5029196,101.57565 Z"/>
    <path fill="#2591BF" d="M103.002,61.507 C102.997,61.507 102.992,61.505 102.986,61.505 L102.986,61.507 L75.986,61.507 L75.986,61.506 C72.132,61.497 69.009,58.367 69.009,54.507 C69.009,50.641 72.14,47.507 76.002,47.507 C76.054,47.507 76.104,47.514 76.155,47.515 C76.071,47.187 76.012,46.849 76.012,46.493 C76.012,44.286 77.744,42.497 79.88,42.497 C81.944,42.497 83.857,44.341 83.985,46.457 L84.001,46.457 C84.13,41.585 88.314,37.493 93.139,37.493 C98.04,37.493 102.013,41.526 102.013,46.498 C102.013,47.644 101.794,48.735 101.41,49.742 C101.92,49.601 102.447,49.5 103.002,49.5 C106.31,49.5 108.991,52.188 108.991,55.503 C108.991,58.819 106.31,61.507 103.002,61.507 M103.938,47.567 C103.971,47.215 103.991,46.859 103.991,46.498 C103.991,40.424 99.066,35.5 92.991,35.5 C88.736,35.5 85.053,37.92 83.224,41.453 C82.292,40.86 81.193,40.504 80.007,40.504 C76.961,40.504 74.472,42.782 74.084,45.724 C70.034,46.604 67,50.199 67,54.508 C67,59.469 71.023,63.491 75.986,63.499 L75.986,63.5 L102.986,63.5 L102.986,63.499 C102.992,63.499 102.997,63.5 103.002,63.5 C107.419,63.5 111,59.92 111,55.504 C111,51.404 107.913,48.03 103.938,47.567"/>
  </g>
</svg>
