<svg xmlns="http://www.w3.org/2000/svg" width="172" height="205" viewBox="0 0 172 205">
  <g fill="none" fill-rule="evenodd" transform="translate(5 1)">
    <g transform="translate(65)">
      <path fill="#1D1D1B" d="M14.215561,22.2660411 C14.215561,22.2660411 14.0568455,18.2698767 13.2982276,16.9340959 C12.5403089,15.5983151 11.8341301,9.81715068 12.3487317,8.89984932 C12.8640325,7.98254795 12.7990081,4.82473973 13.9631545,3.468 C15.1273008,2.11056164 16.2634797,0.35839726 19.4636585,0.120164384 C22.6638374,-0.118767123 27.9482927,0.0530958904 28.6279024,0.635054795 C29.306813,1.21631507 33.3439187,5.48913699 33.3439187,5.48913699 C33.3439187,5.48913699 34.8492683,6.92971233 34.5234472,8.76291781 C34.1969268,10.5961233 32.1797724,15.0869178 32.1797724,15.0869178 C32.1797724,15.0869178 27.9259187,13.7071233 25.9402276,15.8093014 C23.9552358,17.9121781 14.215561,22.2660411 14.215561,22.2660411"/>
      <path fill="#E2BD9F" d="M11.6145854,31.9399726 L14.1134797,28.407 L14.215561,22.2660411 L15.3055935,16.4799863 C15.3055935,16.4799863 13.2555772,13.7616164 14.1134797,12.2330137 C14.9720813,10.704411 15.5090569,9.75986301 16.1495122,10.320863 C17.1689268,11.2130137 17.4842602,15.2042877 17.8730081,13.6987397 L20.9927805,9.21772603 L23.933561,6.84657534 C23.933561,6.84657534 27.8811707,8.05450685 28.5600813,8.63646575 C29.2396911,9.21772603 32.1196423,13.0434247 32.1196423,13.0434247 C32.1196423,13.0434247 31.8826179,15.8728767 31.2540488,16.376589 C30.6254797,16.8796027 28.222374,24.1076301 28.222374,24.1076301 L25.7549431,28.0353288 L28.222374,33.6131918 C28.222374,33.6131918 29.9843252,42.9978904 26.618439,41.1108904 C23.253252,39.224589 14.7455447,36.465 14.7455447,36.465 L11.6145854,31.9399726"/>
      <path fill="#003569" d="M21.3514634,82.8170137 L17.3821789,70.6713288 L10.9594472,62.9060548 L8.20325203,64.4737808 C8.20325203,64.4737808 2.03013008,52.0269863 1.89169106,50.1944795 C1.75325203,48.3619726 0.15001626,39.9742192 0.804455285,39.7604384 C1.45889431,39.5466575 3.08170732,36.3748767 5.02195122,35.3038767 C6.96289431,34.2328767 12.2746179,30.1717397 12.2746179,30.1717397 C12.2746179,30.1717397 14.1575285,34.4801918 17.3821789,35.7195616 C20.6075285,36.9589315 24.576813,38.4463151 24.576813,38.4463151 L27.553252,31.5061233 L35.8022602,32.1258082 L41.9774797,37.8440959 L50.376813,52.3280959 L42.39,56.2271507 L45.0958537,61.7176849 L41.9418211,68.4399041 C41.9418211,68.4399041 33.831252,80.5883836 31.026813,81.0823151 C28.222374,81.5762466 22.8819837,86.4470959 22.8819837,86.4470959 L21.3514634,82.8170137"/>
      <path fill="#422918" d="M46.5935122,171.18674 C47.7101138,171.930781 56.7526992,176.921096 57.9378211,177.496767 C59.1236423,178.073137 65.1317561,181.958918 66.8685366,180.719548 C68.6053171,179.480178 71.9621138,175.803986 70.5896098,174.026671 C69.2178049,172.249356 62.7803902,166.848945 60.5478862,166.600932 C58.3153821,166.352918 53.7203252,165.103068 53.7203252,165.103068 L47.2703252,165.351082 C47.2703252,165.351082 45.4769106,170.443397 46.5935122,171.18674"/>
      <path fill="#3AAED9" d="M24.576813,97.442137 C24.576813,97.442137 27.553252,118.512123 27.3057398,121.48689 C27.0575285,124.461658 25.8171707,130.410493 25.5689593,132.641219 C25.320748,134.871945 20.6634634,160.914781 20.3593171,164.618219 C20.0551707,168.321658 18.7728618,172.508548 19.4419837,173.272849 C20.1111057,174.037151 29.3886179,179.445945 31.0757561,176.741548 C32.7628943,174.037151 35.2436098,174.781192 35.2436098,171.063082 C35.2436098,167.344973 38.8409268,162.759164 38.5927154,150.364767 C38.3452033,137.971068 40.5511382,128.888178 40.5511382,128.888178 C40.5511382,128.888178 43.5618374,104.532534 43.8023577,106.117726 C44.6232033,111.515342 48.5029919,123.911137 49.012,129.171123 C49.7566341,136.855356 47.8960976,150.984452 47.8960976,153.711205 C47.8960976,156.437959 46.9039512,165.609575 46.6557398,167.344973 C46.4075285,169.079671 53.1057398,169.699356 53.1057398,169.699356 C53.1057398,169.699356 54.9501951,170.857685 56.4387642,170.609671 C57.9273333,170.361658 58.5524065,171.524877 62.4084228,168.956014 C64.641626,167.46863 62.7803902,160.404082 62.7803902,158.668685 C62.7803902,156.933986 66.7496748,137.598699 66.5014634,133.880589 C66.2539512,130.162479 63.3054797,118.864233 61.7882439,111.075904 C60.2710081,103.286877 58.5635935,99.9208767 58.0671707,96.9461096 C57.570748,93.9720411 55.8346667,85.5437671 55.8346667,85.5437671 L24.576813,97.442137"/>
      <polyline fill="#422918" points="82.663 33.44 84.94 35.72 89.715 34.875 96.516 24.801 91.253 22.28 83.206 30.179 82.663 33.44"/>
      <path fill="#422918" d="M22.7778049,176.763904 C22.7778049,176.763904 29.7864553,181.349712 32.2671707,182.341767 C34.7478862,183.333123 37.9725366,186.183534 39.4611057,184.696151 C40.9496748,183.208767 45.0888618,182.095151 44.4847642,179.615014 C43.8806667,177.134877 35.8022602,171.930781 35.8022602,171.930781 L29.5382439,173.789836 C29.5382439,173.789836 20.6075285,169.823712 19.6146829,170.815068 C18.6225366,171.806425 18.870748,173.913493 19.6146829,174.904849 C20.3593171,175.896904 22.7778049,176.763904 22.7778049,176.763904"/>
      <path fill="#E2BD9F" d="M48.4729268,51.8222877 C48.4729268,51.8222877 51.9898374,55.6368082 53.2602602,57.023589 C54.4097236,58.2776301 74.3393496,40.3116575 74.3393496,40.3116575 C74.4064715,40.225726 75.4510569,39.4830822 75.4510569,39.4830822 C76.2460325,38.9325616 77.306,39.6374795 77.1046341,40.5834247 C77.0452033,40.8628767 74.5658862,42.5801096 74.5658862,42.5801096 C74.4826829,42.6332055 74.4071707,42.6981781 74.3414472,42.7722329 L53.4700163,66.2937123 C53.2413821,66.5522055 49.632878,66.3412192 49.632878,66.3412192 C49.3699837,66.3139726 45.0958537,61.7176849 45.0958537,61.7176849 C45.0287317,61.6429315 44.9720976,61.5590959 44.9280488,61.468274 L41.5698537,55.3643425 L48.4729268,51.8222877"/>
      <path fill="#EC6D54" d="M47.7359837,67.0426438 C47.7359837,67.0426438 46.6046992,65.2352877 47.7129106,62.8788082 C48.821122,60.5216301 44.196,60.3553562 43.5059024,62.3485479 C42.8165041,64.3424384 40.5448455,69.837863 37.8998211,71.6948219 C35.2547967,73.5517808 33.1103902,73.8731507 29.9521626,76.3225479 C26.793935,78.7719452 22.8386341,82.5005342 22.2289431,85.5996575 C21.6185528,88.6980822 20.9941789,93.1308904 24.3621626,96.6645616 C27.7301463,100.198932 29.5655122,103.353945 33.240439,105.688767 C36.852439,107.983068 39.8442602,109.299986 42.3277724,108.365918 C47.0032358,106.606767 51.0179675,101.946904 50.4019837,98.5634384 C49.7853008,95.1771781 51.9604715,90.8973699 53.6615935,89.0536849 C55.3627154,87.2086027 60.8520325,86.2577671 62.095187,84.2240548 C63.3376423,82.1903425 63.6914309,79.388137 61.9252846,78.7936027 C60.1591382,78.1983699 58.9285691,81.1752329 57.0281789,80.2572329 C55.1277886,79.3392329 54.0237724,77.1413425 55.7248943,75.2969589 C57.4260163,73.4525753 59.1991545,67.2152055 59.1991545,67.2152055 L51.3647642,65.725726 L47.7359837,67.0426438"/>
      <path fill="#C74C39" d="M27.567935,100.266 C27.5686341,100.266 32.8495935,105.661521 35.8833659,106.108644 C38.9171382,106.556466 42.8955122,106.991712 44.7182927,104.527644 C46.5410732,102.063575 47.6346016,101.040082 47.8135935,97.3617945 C47.9925854,93.6835068 49.8454309,88.5506712 51.4241951,87.3259726 C53.0036585,86.101274 57.320439,85.068 58.6971382,83.3584521 C60.0745366,81.6482055 60.7919024,79.2637808 60.7919024,79.2637808 L61.9252846,78.7936027 L63.2054959,79.5893425 C63.2054959,79.5893425 63.6068293,82.837274 62.095187,84.2240548 C60.5828455,85.610137 55.9975772,85.9964795 54.1747967,88.4612466 C52.3513171,90.9253151 51.0137724,93.1874795 50.5257398,95.6669178 C50.0384065,98.1456575 51.7367317,98.5788082 49.9538049,101.594795 C48.170878,104.611479 47.359122,107.225055 43.0423415,108.258329 C38.725561,109.291603 35.5051057,107.025247 33.240439,105.688767 C30.9764715,104.352288 27.567935,100.266 27.567935,100.266"/>
      <path fill="#422918" d="M46.9619837,72.4856712 C47.0836423,71.8659863 82.604439,32.6476849 82.604439,32.6476849 L86.3234146,35.6559863 L51.0843902,76.4650685 L46.9619837,72.4856712"/>
      <path fill="#E2BD9F" d="M9.44360976 63.7304384C9.44360976 63.7304384 23.4119675 75.8768219 25.8171707 76.6201644 28.222374 77.3635068 38.220748 82.3216849 38.220748 82.3216849 38.220748 82.3216849 41.4460976 84.3043973 43.1821789 85.5437671 44.9189593 86.783137 47.2430569 87.0486164 48.6400325 86.2878082 50.0370081 85.5263014 52.6093171 84.552411 52.6093171 82.5696986 52.6093171 80.5862877 52.3611057 78.8508904 50.6250244 78.8508904 48.8882439 78.8508904 44.9189593 76.6201644 44.9189593 76.6201644L48.3918211 74.6374521C48.3918211 74.6374521 45.5223577 73.1507671 43.926813 73.893411 42.3305691 74.6360548 40.4539512 76.3721507 38.9646829 75.8768219 37.476813 75.3807945 22.5918211 62.4910685 22.5918211 62.4910685 22.5918211 62.4910685 19.1623089 55.0562466 16.6382439 55.3021644 14.1134797 55.5487808 9.44360976 63.7304384 9.44360976 63.7304384M78.1618049 39.6856849C78.1618049 39.6856849 74.6882439 41.9171096 74.4400325 43.4044932 74.1925203 44.8911781 74.6882439 47.8659452 74.6882439 47.8659452L77.6653821 48.1139589 80.8900325 46.1305479 83.370748 41.9171096 78.1618049 39.6856849"/>
      <path fill="#A38F76" d="M18.033122,19.9486849 C18.033122,19.9486849 19.3357073,23.4809589 20.4523089,24.1313836 C21.5689106,24.7818082 23.2434634,26.5479452 25.3829756,26.176274 C26.6848618,25.9499178 28.4531057,23.2022055 28.4531057,23.2022055 C28.4531057,23.2022055 26.7785528,28.3147808 25.6619512,29.3368767 C24.5453496,30.3596712 22.684813,31.7534384 20.9172683,30.5455068 C19.9831545,29.9069589 17.3821789,23.8526301 17.5681626,22.7369178 C17.7541463,21.6219041 18.033122,19.9486849 18.033122,19.9486849"/>
      <polyline fill="#422918" points="33.15 86.914 37.578 90.872 35.713 92.735 31.286 87.146 33.15 86.914"/>
      <path fill="#C74C39" d="M40.7238374 95.8031507C40.7238374 96.6030822 40.2497886 97.251411 39.6659675 97.251411 39.0821463 97.251411 38.6080976 96.6030822 38.6080976 95.8031507 38.6080976 95.0039178 39.0821463 94.355589 39.6659675 94.355589 40.2497886 94.355589 40.7238374 95.0039178 40.7238374 95.8031507M44.8021951 93.2419726C44.8021951 94.0412055 44.3288455 94.6895342 43.7443252 94.6895342 43.1605041 94.6895342 42.6871545 94.0412055 42.6871545 93.2419726 42.6871545 92.4420411 43.1605041 91.7937123 43.7443252 91.7937123 44.3288455 91.7937123 44.8021951 92.4420411 44.8021951 93.2419726M44.3358374 98.7143425C44.3358374 99.514274 43.8624878 100.162603 43.2786667 100.162603 42.6941463 100.162603 42.2207967 99.514274 42.2207967 98.7143425 42.2207967 97.914411 42.6941463 97.2667808 43.2786667 97.2667808 43.8624878 97.2667808 44.3358374 97.914411 44.3358374 98.7143425"/>
    </g>
    <g transform="translate(0 87)">
      <polyline fill="#1D1D1B" points="66.751 72.888 26.896 95.83 26.917 39.33 66.751 16.452 66.751 72.888"/>
      <polyline fill="#EC6D54" points="64.887 28.603 29.226 48.983 29.247 40.494 64.887 20.178 64.887 28.603"/>
      <polyline fill="#575756" points=".428 23.808 27.062 39.034 26.896 95.83 .428 80.244 .428 23.808"/>
      <polyline fill="#9C9B9B" points="27.113 39.325 66.751 16.452 40.191 .869 .428 23.808 27.113 39.325"/>
      <path fill="#575756" d="M33.0309919 40.6648767C33.7378699 40.2526849 34.3216911 40.5789452 34.3356748 41.3935479 34.3496585 42.2081507 33.7875122 43.2043973 33.0806341 43.6172877 32.3730569 44.0308767 31.7878374 43.7039178 31.775252 42.8872192 31.7619675 42.0719178 32.3241138 41.0763699 33.0309919 40.6648767M36.9939837 38.3111918C37.7008618 37.899 38.2846829 38.2252603 38.2986667 39.039863 38.3126504 39.8551644 37.7512033 40.8507123 37.043626 41.2636027 36.3360488 41.6771918 35.7515285 41.3502329 35.7382439 40.5335342 35.7249593 39.7182329 36.2878049 38.7233836 36.9939837 38.3111918"/>
      <path fill="#DA4453" d="M53.5996748 29.3163288C54.3065528 28.904137 54.890374 29.2303973 54.9043577 30.045 54.9183415 30.8603014 54.3568943 31.8558493 53.6493171 32.2687397 52.9417398 32.6823288 52.3572195 32.3553699 52.343935 31.5393699 52.3306504 30.7233699 52.8934959 29.7285205 53.5996748 29.3163288M57.309561 27.3210411C58.0157398 26.9095479 58.599561 27.2351096 58.6135447 28.0497123 58.6275285 28.8650137 58.0660813 29.8612603 57.3585041 30.2741507 56.6509268 30.6870411 56.0664065 30.3600822 56.053122 29.5440822 56.0398374 28.7280822 56.6026829 27.7332329 57.309561 27.3210411M61.0180488 25.3264521C61.7249268 24.9142603 62.308748 25.2405205 62.3227317 26.0551233 62.3367154 26.869726 61.7752683 27.8659726 61.0676911 28.278863 60.3601138 28.6924521 59.7755935 28.3654932 59.7623089 27.5487945 59.7490244 26.7334932 60.3118699 25.7379452 61.0180488 25.3264521"/>
      <path fill="#171615" d="M31.0068455,31.6406712 L14.6346829,22.2133562 C14.2319512,21.981411 14.2864878,21.5741096 14.7549431,21.3086301 L37.1114472,8.44335616 C37.5806016,8.17787671 38.2930732,8.14993151 38.6958049,8.38187671 L55.0679675,17.8098904 C55.47,18.0418356 55.4161626,18.449137 54.9470081,18.7146164 L32.5905041,31.5791918 C32.1220488,31.8453699 31.408878,31.8726164 31.0068455,31.6406712"/>
      <path fill="#4E4B49" d="M31.7633659,32.895411 C32.0542276,32.8856301 32.3534797,32.812274 32.5905041,32.678137 L54.9470081,19.812863 C55.2050081,19.6675479 55.3322602,19.4789178 55.3322602,19.3000685 L55.3371545,19.3049589 L55.3371545,18.2388493 C55.1812358,18.6300822 54.8393333,18.7767945 54.8393333,18.7767945 L32.5905041,31.5791918 C32.347187,31.7175205 32.036748,31.7915753 31.7388943,31.797863 L31.7633659,32.895411"/>
      <path fill="#4E4B49" d="M31.7388943,31.797863 C31.4641138,31.8034521 31.1998211,31.7524521 31.0068455,31.6406712 L14.8633171,22.3446986 C14.8633171,22.3446986 14.4976423,22.1896027 14.3647967,21.8954795 L14.3647967,22.8966164 L14.3689919,22.8987123 C14.3599024,23.0531096 14.4445041,23.2019178 14.6346829,23.3116027 L31.0068455,32.7396164 C31.2054146,32.8541918 31.4801951,32.9051918 31.7633659,32.895411 L31.7388943,31.797863"/>
      <polyline fill="#5B5E67" points="32.201 29.152 18.879 21.054 37.481 10.417 51.209 18.229"/>
      <path stroke="#ECF0F3" stroke-width=".7" d="M36.8240813,39.9180411 C41.3443252,41.6841781 44.4438211,56.1716712 38.2371382,54.3258904 C35.7613171,53.5902329 33.7805203,50.1466849 32.8023577,47.9550822 C31.7395935,45.5727534 31.4039837,42.8997945 30.036374,40.6578904 C28.2779187,37.7753425 26.6809756,34.8851096 23.5150569,33.5395479 C21.7265366,32.7794384 19.1493333,32.3204384 17.7971057,30.8379452 C15.943561,28.8063288 18.243187,26.2025342 20.0435935,25.130137"/>
    </g>
    <path stroke="#E85740" stroke-width="1.4" d="M92.7612846,99.4381233 C79.3529756,107.542233 76.9044582,137.675988 78.7363281,153.166016 C80.2731411,166.163331 78.9339605,182.360498 67.6523438,189.309205 C62.9376338,192.213146 62.5341301,191.514082 55.7576098,191.215767 C51.9085854,191.046 37.3242439,191.062767 37.672439,185.126507 C38.0695772,178.343507 52.3462764,181.350411 54.5871707,185.694493 C59.5954472,195.404055 31.5615447,197.193247 27.2713333,194.834671 C20.6814959,191.212274 26.5504715,186.571274 30.4743089,186.077342 C36.1363252,185.365438 43.146374,185.195671 47.5582439,189.309205 C52.0246504,193.47374 50.9451057,196.812493 46.2661463,199.446329 C39.0840976,203.487904 28.3634634,205.251945 23.3488943,197.194644 C17.6169593,187.982507 42.1560629,180.890459 44.8828921,171.444281 C47.8215751,161.26524 52.2928759,146.279623 45.0870548,136.546308 C41.9218352,132.269993 38.3482905,130.605157 33.5644531,129.099609"/>
  </g>
</svg>
