<svg xmlns="http://www.w3.org/2000/svg" width="172" height="205" viewBox="0 0 172 205">
  <g fill="none" fill-rule="evenodd" transform="translate(0 1)">
    <path fill="#1D1D1B" d="M89.215561,22.2660411 C89.215561,22.2660411 89.0568455,18.2698767 88.2982276,16.9340959 C87.5403089,15.5983151 86.8341301,9.81715068 87.3487317,8.89984932 C87.8640325,7.98254795 87.7990081,4.82473973 88.9631545,3.468 C90.1273008,2.11056164 91.2634797,0.35839726 94.4636585,0.120164384 C97.6638374,-0.118767123 102.948293,0.0530958904 103.627902,0.635054795 C104.306813,1.21631507 108.343919,5.48913699 108.343919,5.48913699 C108.343919,5.48913699 109.849268,6.92971233 109.523447,8.76291781 C109.196927,10.5961233 107.179772,15.0869178 107.179772,15.0869178 C107.179772,15.0869178 102.925919,13.7071233 100.940228,15.8093014 C98.9552358,17.9121781 89.215561,22.2660411 89.215561,22.2660411"/>
    <path fill="#E2BD9F" d="M86.6145854,31.9399726 L89.1134797,28.407 L89.215561,22.2660411 L90.3055935,16.4799863 C90.3055935,16.4799863 88.2555772,13.7616164 89.1134797,12.2330137 C89.9720813,10.704411 90.5090569,9.75986301 91.1495122,10.320863 C92.1689268,11.2130137 92.4842602,15.2042877 92.8730081,13.6987397 L95.9927805,9.21772603 L98.933561,6.84657534 C98.933561,6.84657534 102.881171,8.05450685 103.560081,8.63646575 C104.239691,9.21772603 107.119642,13.0434247 107.119642,13.0434247 C107.119642,13.0434247 106.882618,15.8728767 106.254049,16.376589 C105.62548,16.8796027 103.222374,24.1076301 103.222374,24.1076301 L100.754943,28.0353288 L103.222374,33.6131918 C103.222374,33.6131918 104.984325,42.9978904 101.618439,41.1108904 C98.253252,39.224589 89.7455447,36.465 89.7455447,36.465 L86.6145854,31.9399726"/>
    <path fill="#003569" d="M96.3514634,82.8170137 L92.3821789,70.6713288 L85.9594472,62.9060548 L83.203252,64.4737808 C83.203252,64.4737808 77.0301301,52.0269863 76.8916911,50.1944795 C76.753252,48.3619726 75.1500163,39.9742192 75.8044553,39.7604384 C76.4588943,39.5466575 78.0817073,36.3748767 80.0219512,35.3038767 C81.9628943,34.2328767 87.2746179,30.1717397 87.2746179,30.1717397 C87.2746179,30.1717397 89.1575285,34.4801918 92.3821789,35.7195616 C95.6075285,36.9589315 99.576813,38.4463151 99.576813,38.4463151 L102.553252,31.5061233 L110.80226,32.1258082 L116.97748,37.8440959 L125.376813,52.3280959 L117.39,56.2271507 L120.095854,61.7176849 L116.941821,68.4399041 C116.941821,68.4399041 108.831252,80.5883836 106.026813,81.0823151 C103.222374,81.5762466 97.8819837,86.4470959 97.8819837,86.4470959 L96.3514634,82.8170137"/>
    <path fill="#422918" d="M121.593512,171.18674 C122.710114,171.930781 131.752699,176.921096 132.937821,177.496767 C134.123642,178.073137 140.131756,181.958918 141.868537,180.719548 C143.605317,179.480178 146.962114,175.803986 145.58961,174.026671 C144.217805,172.249356 137.78039,166.848945 135.547886,166.600932 C133.315382,166.352918 128.720325,165.103068 128.720325,165.103068 L122.270325,165.351082 C122.270325,165.351082 120.476911,170.443397 121.593512,171.18674"/>
    <path fill="#3AAED9" d="M99.576813,97.442137 C99.576813,97.442137 102.553252,118.512123 102.30574,121.48689 C102.057528,124.461658 100.817171,130.410493 100.568959,132.641219 C100.320748,134.871945 95.6634634,160.914781 95.3593171,164.618219 C95.0551707,168.321658 93.7728618,172.508548 94.4419837,173.272849 C95.1111057,174.037151 104.388618,179.445945 106.075756,176.741548 C107.762894,174.037151 110.24361,174.781192 110.24361,171.063082 C110.24361,167.344973 113.840927,162.759164 113.592715,150.364767 C113.345203,137.971068 115.551138,128.888178 115.551138,128.888178 C115.551138,128.888178 118.561837,104.532534 118.802358,106.117726 C119.623203,111.515342 123.502992,123.911137 124.012,129.171123 C124.756634,136.855356 122.896098,150.984452 122.896098,153.711205 C122.896098,156.437959 121.903951,165.609575 121.65574,167.344973 C121.407528,169.079671 128.10574,169.699356 128.10574,169.699356 C128.10574,169.699356 129.950195,170.857685 131.438764,170.609671 C132.927333,170.361658 133.552407,171.524877 137.408423,168.956014 C139.641626,167.46863 137.78039,160.404082 137.78039,158.668685 C137.78039,156.933986 141.749675,137.598699 141.501463,133.880589 C141.253951,130.162479 138.30548,118.864233 136.788244,111.075904 C135.271008,103.286877 133.563593,99.9208767 133.067171,96.9461096 C132.570748,93.9720411 130.834667,85.5437671 130.834667,85.5437671 L99.576813,97.442137"/>
    <polyline fill="#422918" points="157.663 33.44 159.94 35.72 164.715 34.875 171.516 24.801 166.253 22.28 158.206 30.179 157.663 33.44"/>
    <path fill="#422918" d="M97.7778049,176.763904 C97.7778049,176.763904 104.786455,181.349712 107.267171,182.341767 C109.747886,183.333123 112.972537,186.183534 114.461106,184.696151 C115.949675,183.208767 120.088862,182.095151 119.484764,179.615014 C118.880667,177.134877 110.80226,171.930781 110.80226,171.930781 L104.538244,173.789836 C104.538244,173.789836 95.6075285,169.823712 94.6146829,170.815068 C93.6225366,171.806425 93.870748,173.913493 94.6146829,174.904849 C95.3593171,175.896904 97.7778049,176.763904 97.7778049,176.763904"/>
    <path fill="#E2BD9F" d="M123.472927,51.8222877 C123.472927,51.8222877 126.989837,55.6368082 128.26026,57.023589 C129.409724,58.2776301 149.33935,40.3116575 149.33935,40.3116575 C149.406472,40.225726 150.451057,39.4830822 150.451057,39.4830822 C151.246033,38.9325616 152.306,39.6374795 152.104634,40.5834247 C152.045203,40.8628767 149.565886,42.5801096 149.565886,42.5801096 C149.482683,42.6332055 149.407171,42.6981781 149.341447,42.7722329 L128.470016,66.2937123 C128.241382,66.5522055 124.632878,66.3412192 124.632878,66.3412192 C124.369984,66.3139726 120.095854,61.7176849 120.095854,61.7176849 C120.028732,61.6429315 119.972098,61.5590959 119.928049,61.468274 L116.569854,55.3643425 L123.472927,51.8222877"/>
    <path fill="#EC6D54" d="M122.735984,67.0426438 C122.735984,67.0426438 121.604699,65.2352877 122.712911,62.8788082 C123.821122,60.5216301 119.196,60.3553562 118.505902,62.3485479 C117.816504,64.3424384 115.544846,69.837863 112.899821,71.6948219 C110.254797,73.5517808 108.11039,73.8731507 104.952163,76.3225479 C101.793935,78.7719452 97.8386341,82.5005342 97.2289431,85.5996575 C96.6185528,88.6980822 95.9941789,93.1308904 99.3621626,96.6645616 C102.730146,100.198932 104.565512,103.353945 108.240439,105.688767 C111.852439,107.983068 114.84426,109.299986 117.327772,108.365918 C122.003236,106.606767 126.017967,101.946904 125.401984,98.5634384 C124.785301,95.1771781 126.960472,90.8973699 128.661593,89.0536849 C130.362715,87.2086027 135.852033,86.2577671 137.095187,84.2240548 C138.337642,82.1903425 138.691431,79.388137 136.925285,78.7936027 C135.159138,78.1983699 133.928569,81.1752329 132.028179,80.2572329 C130.127789,79.3392329 129.023772,77.1413425 130.724894,75.2969589 C132.426016,73.4525753 134.199154,67.2152055 134.199154,67.2152055 L126.364764,65.725726 L122.735984,67.0426438"/>
    <path fill="#C74C39" d="M102.567935,100.266 C102.568634,100.266 107.849593,105.661521 110.883366,106.108644 C113.917138,106.556466 117.895512,106.991712 119.718293,104.527644 C121.541073,102.063575 122.634602,101.040082 122.813593,97.3617945 C122.992585,93.6835068 124.845431,88.5506712 126.424195,87.3259726 C128.003659,86.101274 132.320439,85.068 133.697138,83.3584521 C135.074537,81.6482055 135.791902,79.2637808 135.791902,79.2637808 L136.925285,78.7936027 L138.205496,79.5893425 C138.205496,79.5893425 138.606829,82.837274 137.095187,84.2240548 C135.582846,85.610137 130.997577,85.9964795 129.174797,88.4612466 C127.351317,90.9253151 126.013772,93.1874795 125.52574,95.6669178 C125.038407,98.1456575 126.736732,98.5788082 124.953805,101.594795 C123.170878,104.611479 122.359122,107.225055 118.042341,108.258329 C113.725561,109.291603 110.505106,107.025247 108.240439,105.688767 C105.976472,104.352288 102.567935,100.266 102.567935,100.266"/>
    <path fill="#422918" d="M121.961984,72.4856712 C122.083642,71.8659863 157.604439,32.6476849 157.604439,32.6476849 L161.323415,35.6559863 L126.08439,76.4650685 L121.961984,72.4856712"/>
    <path fill="#E2BD9F" d="M84.4436098 63.7304384C84.4436098 63.7304384 98.4119675 75.8768219 100.817171 76.6201644 103.222374 77.3635068 113.220748 82.3216849 113.220748 82.3216849 113.220748 82.3216849 116.446098 84.3043973 118.182179 85.5437671 119.918959 86.783137 122.243057 87.0486164 123.640033 86.2878082 125.037008 85.5263014 127.609317 84.552411 127.609317 82.5696986 127.609317 80.5862877 127.361106 78.8508904 125.625024 78.8508904 123.888244 78.8508904 119.918959 76.6201644 119.918959 76.6201644L123.391821 74.6374521C123.391821 74.6374521 120.522358 73.1507671 118.926813 73.893411 117.330569 74.6360548 115.453951 76.3721507 113.964683 75.8768219 112.476813 75.3807945 97.5918211 62.4910685 97.5918211 62.4910685 97.5918211 62.4910685 94.1623089 55.0562466 91.6382439 55.3021644 89.1134797 55.5487808 84.4436098 63.7304384 84.4436098 63.7304384M153.161805 39.6856849C153.161805 39.6856849 149.688244 41.9171096 149.440033 43.4044932 149.19252 44.8911781 149.688244 47.8659452 149.688244 47.8659452L152.665382 48.1139589 155.890033 46.1305479 158.370748 41.9171096 153.161805 39.6856849"/>
    <path fill="#A38F76" d="M93.033122,19.9486849 C93.033122,19.9486849 94.3357073,23.4809589 95.4523089,24.1313836 C96.5689106,24.7818082 98.2434634,26.5479452 100.382976,26.176274 C101.684862,25.9499178 103.453106,23.2022055 103.453106,23.2022055 C103.453106,23.2022055 101.778553,28.3147808 100.661951,29.3368767 C99.5453496,30.3596712 97.684813,31.7534384 95.9172683,30.5455068 C94.9831545,29.9069589 92.3821789,23.8526301 92.5681626,22.7369178 C92.7541463,21.6219041 93.033122,19.9486849 93.033122,19.9486849"/>
    <polyline fill="#422918" points="108.15 86.914 112.578 90.872 110.713 92.735 106.286 87.146 108.15 86.914"/>
    <path fill="#C74C39" d="M115.723837 95.8031507C115.723837 96.6030822 115.249789 97.251411 114.665967 97.251411 114.082146 97.251411 113.608098 96.6030822 113.608098 95.8031507 113.608098 95.0039178 114.082146 94.355589 114.665967 94.355589 115.249789 94.355589 115.723837 95.0039178 115.723837 95.8031507M119.802195 93.2419726C119.802195 94.0412055 119.328846 94.6895342 118.744325 94.6895342 118.160504 94.6895342 117.687154 94.0412055 117.687154 93.2419726 117.687154 92.4420411 118.160504 91.7937123 118.744325 91.7937123 119.328846 91.7937123 119.802195 92.4420411 119.802195 93.2419726M119.335837 98.7143425C119.335837 99.514274 118.862488 100.162603 118.278667 100.162603 117.694146 100.162603 117.220797 99.514274 117.220797 98.7143425 117.220797 97.914411 117.694146 97.2667808 118.278667 97.2667808 118.862488 97.2667808 119.335837 97.914411 119.335837 98.7143425"/>
    <polyline fill="#1D1D1B" points="66.751 159.888 26.896 182.83 26.917 126.33 66.751 103.452 66.751 159.888"/>
    <polyline fill="#EC6D54" points="64.887 115.603 29.226 135.983 29.247 127.494 64.887 107.178 64.887 115.603"/>
    <polyline fill="#575756" points=".428 110.808 27.062 126.034 26.896 182.83 .428 167.244 .428 110.808"/>
    <polyline fill="#9C9B9B" points="27.113 126.325 66.751 103.452 40.191 87.869 .428 110.808 27.113 126.325"/>
    <path fill="#575756" d="M33.0309919 127.664877C33.7378699 127.252685 34.3216911 127.578945 34.3356748 128.393548 34.3496585 129.208151 33.7875122 130.204397 33.0806341 130.617288 32.3730569 131.030877 31.7878374 130.703918 31.775252 129.887219 31.7619675 129.071918 32.3241138 128.07637 33.0309919 127.664877M36.9939837 125.311192C37.7008618 124.899 38.2846829 125.22526 38.2986667 126.039863 38.3126504 126.855164 37.7512033 127.850712 37.043626 128.263603 36.3360488 128.677192 35.7515285 128.350233 35.7382439 127.533534 35.7249593 126.718233 36.2878049 125.723384 36.9939837 125.311192"/>
    <path fill="#DA4453" d="M53.5996748 116.316329C54.3065528 115.904137 54.890374 116.230397 54.9043577 117.045 54.9183415 117.860301 54.3568943 118.855849 53.6493171 119.26874 52.9417398 119.682329 52.3572195 119.35537 52.343935 118.53937 52.3306504 117.72337 52.8934959 116.728521 53.5996748 116.316329M57.309561 114.321041C58.0157398 113.909548 58.599561 114.23511 58.6135447 115.049712 58.6275285 115.865014 58.0660813 116.86126 57.3585041 117.274151 56.6509268 117.687041 56.0664065 117.360082 56.053122 116.544082 56.0398374 115.728082 56.6026829 114.733233 57.309561 114.321041M61.0180488 112.326452C61.7249268 111.91426 62.308748 112.240521 62.3227317 113.055123 62.3367154 113.869726 61.7752683 114.865973 61.0676911 115.278863 60.3601138 115.692452 59.7755935 115.365493 59.7623089 114.548795 59.7490244 113.733493 60.3118699 112.737945 61.0180488 112.326452"/>
    <path stroke="#E85740" stroke-width="1.4" d="M104.761285,99.4381233 C91.3529756,107.542233 82.8424715,127.167452 84.6743415,142.657479 C86.2111545,155.654795 95.392878,170.169534 90.8922114,183.558082 C88.6261463,190.299863 82.5341301,191.514082 75.7576098,191.215767 C71.9085854,191.046 57.3242439,191.062767 57.672439,185.126507 C58.0695772,178.343507 72.3462764,181.350411 74.5871707,185.694493 C79.5954472,195.404055 51.5615447,197.193247 47.2713333,194.834671 C40.6814959,191.212274 46.5504715,186.571274 50.4743089,186.077342 C56.1363252,185.365438 63.146374,185.195671 67.5582439,189.309205 C72.0246504,193.47374 70.9451057,196.812493 66.2661463,199.446329 C59.0840976,203.487904 48.3634634,205.251945 43.3488943,197.194644 C37.6169593,187.982507 41.4533984,180.68811 44.1802276,171.241932 C47.1189106,161.06289 51.5902114,146.077274 44.3843902,136.343959 C41.2191707,132.067644 37.645626,130.402808 32.8617886,128.89726"/>
    <path fill="#CBD1D8" d="M31.0068455,118.640671 L14.6346829,109.213356 C14.2319512,108.981411 14.2864878,108.57411 14.7549431,108.30863 L37.1114472,95.4433562 C37.5806016,95.1778767 38.2930732,95.1499315 38.6958049,95.3818767 L55.0679675,104.80989 C55.47,105.041836 55.4161626,105.449137 54.9470081,105.714616 L32.5905041,118.579192 C32.1220488,118.84537 31.408878,118.872616 31.0068455,118.640671"/>
    <path fill="#B8BEC6" d="M38.0175935,112.630356 L33.5358049,110.049616 C33.4253333,109.986041 33.4400163,109.874959 33.5686667,109.802301 L39.6893496,106.280507 C39.8173008,106.207849 40.012374,106.200164 40.1228455,106.26374 L44.6053333,108.844479 C44.7151057,108.908055 44.7004228,109.019836 44.5724715,109.092493 L38.4517886,112.613589 C38.3231382,112.686945 38.128065,112.693932 38.0175935,112.630356"/>
    <path fill="#868C96" d="M31.7633659,119.895411 C32.0542276,119.88563 32.3534797,119.812274 32.5905041,119.678137 L54.9470081,106.812863 C55.2050081,106.667548 55.3322602,106.478918 55.3322602,106.300068 L55.3371545,106.304959 L55.3371545,105.238849 C55.1812358,105.630082 54.8393333,105.776795 54.8393333,105.776795 L32.5905041,118.579192 C32.347187,118.717521 32.036748,118.791575 31.7388943,118.797863 L31.7633659,119.895411"/>
    <path fill="#B8BEC6" d="M31.7388943,118.797863 C31.4641138,118.803452 31.1998211,118.752452 31.0068455,118.640671 L14.8633171,109.344699 C14.8633171,109.344699 14.4976423,109.189603 14.3647967,108.895479 L14.3647967,109.896616 L14.3689919,109.898712 C14.3599024,110.05311 14.4445041,110.201918 14.6346829,110.311603 L31.0068455,119.739616 C31.2054146,119.854192 31.4801951,119.905192 31.7633659,119.895411 L31.7388943,118.797863"/>
    <path fill="#5B5E67" d="M11.7882927,88.8643562 L34.3503577,75.9620548 C34.7523902,75.7287123 35.0789106,75.9788219 35.0761138,76.5174658 L37.9315935,93.9573699 C37.9287967,94.4960137 37.5980813,95.1275753 37.1960488,95.3609178 L14.6339837,108.363123 C14.2319512,108.596466 13.9054309,108.346356 13.9082276,107.807712 L11.052748,90.2679041 C11.0555447,89.7292603 11.3862602,89.0976986 11.7882927,88.8643562"/>
    <polyline fill="#FEFEFE" points="34.055 77.527 12.484 89.97 15.365 106.798 36.928 94.365 34.055 77.527"/>
    <polyline fill="#5B5E67" points="45.488 102.037 26.887 112.674 18.879 108.054 37.481 97.417 45.488 102.037"/>
    <path stroke="#ECF0F3" stroke-width=".7" d="M36.8240813,126.918041 C41.3443252,128.684178 44.4438211,143.171671 38.2371382,141.32589 C35.7613171,140.590233 33.7805203,137.146685 32.8023577,134.955082 C31.7395935,132.572753 31.4039837,129.899795 30.036374,127.65789 C28.2779187,124.775342 26.6809756,121.88511 23.5150569,120.539548 C21.7265366,119.779438 19.1493333,119.320438 17.7971057,117.837945 C15.943561,115.806329 18.243187,113.202534 20.0435935,112.130137"/>
  </g>
</svg>
