<svg xmlns="http://www.w3.org/2000/svg" width="335" height="180" viewBox="0 0 335 180" xmlns:xlink="http://www.w3.org/1999/xlink">
  <defs>
    <rect id="a" width="105.969" height="151.692" rx="4.094"/>
    <mask id="k" width="105.969" height="151.692" x="0" y="0" fill="white">
      <use xlink:href="#a"/>
    </mask>
    <rect id="b" width="34.417" height="21.67" y="66.817" rx="3.071"/>
    <mask id="l" width="34.417" height="21.67" x="0" y="0" fill="white">
      <use xlink:href="#b"/>
    </mask>
    <rect id="c" width="82.421" height="21.67" x="38.946" y="66.817" rx="3.071"/>
    <mask id="m" width="82.421" height="21.67" x="0" y="0" fill="white">
      <use xlink:href="#c"/>
    </mask>
    <rect id="d" width="121.366" height="49.661" y="12.641" rx="3.071"/>
    <mask id="n" width="121.366" height="49.661" x="0" y="0" fill="white">
      <use xlink:href="#d"/>
    </mask>
    <ellipse id="e" cx="5.887" cy="6.772" rx="5.887" ry="5.869"/>
    <mask id="o" width="15.869" height="15.832" x="-2.047" y="-2.047">
      <rect width="15.869" height="15.832" x="-2.047" y="-1.144" fill="white"/>
      <use fill="black" xlink:href="#e"/>
    </mask>
    <ellipse id="f" cx="5.887" cy="6.772" rx="5.887" ry="5.869"/>
    <mask id="p" width="15.869" height="15.832" x="-2.047" y="-2.047">
      <rect width="15.869" height="15.832" x="-2.047" y="-1.144" fill="white"/>
      <use fill="black" xlink:href="#f"/>
    </mask>
    <ellipse id="g" cx="5.887" cy="6.772" rx="5.887" ry="5.869"/>
    <mask id="q" width="15.869" height="15.832" x="-2.047" y="-2.047">
      <rect width="15.869" height="15.832" x="-2.047" y="-1.144" fill="white"/>
      <use fill="black" xlink:href="#g"/>
    </mask>
    <ellipse id="h" cx="5.887" cy="6.772" rx="5.887" ry="5.869"/>
    <mask id="r" width="15.869" height="15.832" x="-2.047" y="-2.047">
      <rect width="15.869" height="15.832" x="-2.047" y="-1.144" fill="white"/>
      <use fill="black" xlink:href="#h"/>
    </mask>
    <ellipse id="i" cx="5.887" cy="6.772" rx="5.887" ry="5.869"/>
    <mask id="s" width="15.869" height="15.832" x="-2.047" y="-2.047">
      <rect width="15.869" height="15.832" x="-2.047" y="-1.144" fill="white"/>
      <use fill="black" xlink:href="#i"/>
    </mask>
    <ellipse id="j" cx="5.887" cy="6.772" rx="5.887" ry="5.869"/>
    <mask id="t" width="15.869" height="15.832" x="-2.047" y="-2.047">
      <rect width="15.869" height="15.832" x="-2.047" y="-1.144" fill="white"/>
      <use fill="black" xlink:href="#j"/>
    </mask>
  </defs>
  <g fill="none" fill-rule="evenodd">
    <path fill="#2591BF" d="M124.769942,97.5548617 C123.79243,97.5548617 123,96.6634251 123,95.5637823 C123,94.4641396 123.79243,93.5727029 124.769942,93.5727029 C125.747454,93.5727029 126.539884,94.4641396 126.539884,95.5637823 C126.539884,96.6634251 125.747454,97.5548617 124.769942,97.5548617 Z M133.619652,97.5548617 C132.64214,97.5548617 131.84971,96.6634251 131.84971,95.5637823 C131.84971,94.4641396 132.64214,93.5727029 133.619652,93.5727029 C134.597164,93.5727029 135.389594,94.4641396 135.389594,95.5637823 C135.389594,96.6634251 134.597164,97.5548617 133.619652,97.5548617 Z M142.469362,97.5548617 C141.49185,97.5548617 140.69942,96.6634251 140.69942,95.5637823 C140.69942,94.4641396 141.49185,93.5727029 142.469362,93.5727029 C143.446873,93.5727029 144.239303,94.4641396 144.239303,95.5637823 C144.239303,96.6634251 143.446873,97.5548617 142.469362,97.5548617 Z M151.319071,97.5548617 C150.341559,97.5548617 149.549129,96.6634251 149.549129,95.5637823 C149.549129,94.4641396 150.341559,93.5727029 151.319071,93.5727029 C152.296583,93.5727029 153.089013,94.4641396 153.089013,95.5637823 C153.089013,96.6634251 152.296583,97.5548617 151.319071,97.5548617 Z M160.168781,97.5548617 C159.191269,97.5548617 158.398839,96.6634251 158.398839,95.5637823 C158.398839,94.4641396 159.191269,93.5727029 160.168781,93.5727029 C161.146293,93.5727029 161.938723,94.4641396 161.938723,95.5637823 C161.938723,96.6634251 161.146293,97.5548617 160.168781,97.5548617 Z"/>
    <g transform="rotate(90 142 193)">
      <use fill="#171615" stroke="#4E4B49" stroke-width="2.047" mask="url(#k)" xlink:href="#a"/>
      <polygon fill="#5B5E67" points="6.34 10.835 100.535 10.835 100.535 140.857 6.34 140.857"/>
      <g transform="rotate(-90 71.504 65.026)">
        <rect width="118.649" height="6.321" x="1.811" fill="#E85740"/>
        <use stroke="#979797" stroke-width="2.047" mask="url(#l)" xlink:href="#b"/>
        <use fill="#171615" stroke="#979797" stroke-width="2.047" mask="url(#m)" xlink:href="#c"/>
        <use stroke="#979797" stroke-width="2.047" mask="url(#n)" xlink:href="#d"/>
        <rect width=".906" height="21.67" x="10.869" y="37.02" fill="#171615" transform="matrix(-1 0 0 1 22.643 0)" rx=".453"/>
        <g transform="translate(2.264 18.059)">
          <g transform="rotate(133 6.883 8.364)">
            <use fill="#777675" xlink:href="#e"/>
            <use stroke="#3E3D3B" stroke-width="4.094" mask="url(#o)" xlink:href="#e"/>
            <use stroke="#DBD9DB" stroke-width="1.024" xlink:href="#e"/>
            <rect width=".906" height="3.612" x="5.434" fill="#171615" transform="matrix(-1 0 0 1 11.774 0)" rx=".453"/>
          </g>
          <g transform="rotate(56 14.888 29.393)">
            <use fill="#777675" xlink:href="#f"/>
            <use stroke="#3E3D3B" stroke-width="4.094" mask="url(#p)" xlink:href="#f"/>
            <use stroke="#DBD9DB" stroke-width="1.024" xlink:href="#f"/>
            <rect width=".906" height="3.612" x="5.434" fill="#171615" transform="matrix(-1 0 0 1 11.774 0)" rx=".453"/>
          </g>
          <g transform="rotate(115 26.535 21.379)">
            <use fill="#777675" xlink:href="#g"/>
            <use stroke="#3E3D3B" stroke-width="4.094" mask="url(#q)" xlink:href="#g"/>
            <use stroke="#DBD9DB" stroke-width="1.024" xlink:href="#g"/>
            <rect width=".906" height="3.612" x="5.434" fill="#171615" transform="matrix(-1 0 0 1 11.774 0)" rx=".453"/>
          </g>
          <g transform="rotate(19 28.362 190.342)">
            <use fill="#777675" xlink:href="#h"/>
            <use stroke="#3E3D3B" stroke-width="4.094" mask="url(#r)" xlink:href="#h"/>
            <use stroke="#DBD9DB" stroke-width="1.024" xlink:href="#h"/>
            <rect width=".906" height="3.612" x="5.434" fill="#171615" transform="matrix(-1 0 0 1 11.774 0)" rx=".453"/>
          </g>
          <g transform="rotate(-141 46.898 -6.678)">
            <use fill="#777675" xlink:href="#i"/>
            <use stroke="#3E3D3B" stroke-width="4.094" mask="url(#s)" xlink:href="#i"/>
            <use stroke="#DBD9DB" stroke-width="1.024" xlink:href="#i"/>
            <rect width=".906" height="3.612" x="5.434" fill="#171615" transform="matrix(-1 0 0 1 11.774 0)" rx=".453"/>
          </g>
          <g transform="rotate(91 55.05 57.295)">
            <use fill="#777675" xlink:href="#j"/>
            <use stroke="#3E3D3B" stroke-width="4.094" mask="url(#t)" xlink:href="#j"/>
            <use stroke="#DBD9DB" stroke-width="1.024" xlink:href="#j"/>
            <rect width=".906" height="3.612" x="5.434" fill="#171615" transform="matrix(-1 0 0 1 11.774 0)" rx=".453"/>
          </g>
          <rect width=".906" height="21.67" x="28.53" y="18.059" fill="#171615" transform="matrix(-1 0 0 1 57.966 0)" rx=".453"/>
          <rect width=".906" height="21.67" x="48.456" y="18.059" fill="#171615" transform="matrix(-1 0 0 1 97.818 0)" rx=".453"/>
          <rect width=".906" height="21.67" x="66.57" y="18.059" fill="#171615" transform="matrix(-1 0 0 1 134.047 0)" rx=".453"/>
          <rect width=".906" height="21.67" x="86.496" y="18.059" fill="#171615" transform="matrix(-1 0 0 1 173.898 0)" rx=".453"/>
          <rect width=".906" height="21.67" x="106.422" y="18.059" fill="#171615" transform="matrix(-1 0 0 1 213.75 0)" rx=".453"/>
          <rect width=".906" height="17.156" x="8.604" y="23.476" fill="#E85740" transform="matrix(-1 0 0 1 18.114 0)" rx=".453"/>
          <rect width=".906" height="10.835" x="28.53" y="28.894" fill="#E85740" transform="matrix(-1 0 0 1 57.966 0)" rx=".453"/>
          <rect width=".906" height="12.641" x="48.456" y="27.088" fill="#E85740" transform="matrix(-1 0 0 1 97.818 0)" rx=".453"/>
          <rect width=".906" height="6.321" x="66.57" y="33.408" fill="#E85740" transform="matrix(-1 0 0 1 134.047 0)" rx=".453"/>
          <rect width=".906" height="17.156" x="86.496" y="22.573" fill="#E85740" transform="matrix(-1 0 0 1 173.898 0)" rx=".453"/>
          <rect width=".906" height="12.641" x="106.422" y="27.088" fill="#E85740" transform="matrix(-1 0 0 1 213.75 0)" rx=".453"/>
        </g>
        <rect width="9.963" height="6.321" x="6.34" y="77.652" fill="#171615" rx="2.047"/>
        <ellipse cx="11.322" cy="73.589" fill="#EC6D54" rx="1.359" ry="1.354"/>
        <ellipse cx="24.002" cy="73.589" fill="#EC6D54" rx="1.359" ry="1.354"/>
        <rect width="9.963" height="6.321" x="19.02" y="77.652" fill="#171615" rx="2.047"/>
      </g>
    </g>
    <polygon fill="#2C2E33" points="12.651 151.906 61.316 179.907 61.316 179.999 61.395 179.953 61.458 179.989 61.458 179.917 100.864 157.232 100.874 90.002 61.395 112.728 12.64 84.675"/>
    <path stroke="#FFFFFF" stroke-width=".587" d="M66.0508583,25.3033288 C66.0508583,25.3033288 68.4623375,29.4574219 69.3979551,35.9834766 C70.3335728,42.5091797 69.9592551,48.7553906 69.5849375,52.8574219"/>
    <path fill="#F4D2B3" d="M79.2191178,24.8097656 L77.9984402,23.6513672 L77.7747669,23.2751953 C77.6033075,22.9464844 77.3697559,22.4033203 77.201119,21.6203906 C76.9054751,20.2492969 75.9822054,17.6927344 75.9822054,17.6927344 C75.9822054,17.6927344 76.9904992,15.5130469 76.5766683,13.9517578 C76.3702821,13.1723438 75.1171472,11.1902344 75.1171472,11.1902344 C75.1171472,11.1902344 75.369397,10.0300781 74.450008,8.61082031 C73.5302663,7.19121094 71.6879604,5.29207031 69.4480523,4.52109375 C67.2081442,3.74976563 63.4677905,4.9359375 61.583149,6.33234375 C59.6985075,7.72910156 59.5214034,10.8323438 59.6812204,12.2603906 C59.8410375,13.6884375 60.531814,17.5630078 60.531814,17.5630078 C60.531814,17.5630078 61.0631262,19.7310938 61.7980024,21.1665234 C62.5332313,22.6019531 64.5487605,24.1379297 65.5016652,25.4851172 C66.4274045,26.7943359 67.6918289,27.6166406 68.9163872,27.6110156 C69.2917632,29.3382422 70.8186686,42.1041797 71.9924242,42.3379688 C73.7564092,42.6895313 79.1016364,29.9661328 79.5719147,29.6145703 C80.0421931,29.2630078 79.2191178,24.8097656 79.2191178,24.8097656"/>
    <path fill="#2C2E33" d="M59.0123526,17.3591367 C59.4477041,16.0945664 59.5210859,14.6134336 60.1878722,13.3942148 C60.355098,13.7429648 60.5226765,14.0917148 60.6899023,14.4401133 C60.9809598,14.0706211 61.2720173,13.7011289 61.5630749,13.3312852 C61.8728306,13.6441758 62.2602017,13.8800742 62.6807357,14.0119102 C62.7061371,13.7338242 62.8507839,13.4690977 63.0709292,13.2964805 C63.2857826,13.4110898 63.5002831,13.5256992 63.7151365,13.639957 C63.7419491,13.1147227 64.1790645,12.6394102 64.7019097,12.5666367 C65.2247548,12.4942148 65.7754709,12.832418 65.9458719,13.3302305 C65.980446,11.5762852 66.5897264,9.83816016 67.6583485,8.44421484 C67.2649798,9.49679297 67.4173881,10.7360508 68.0538339,11.6627695 C68.8980771,11.1653086 70.0129156,11.6371055 70.6892274,12.3448008 C71.365892,13.0524961 71.791718,13.9693711 72.4740274,14.6714414 C74.0090471,16.249957 76.200622,17.8323398 76.7329926,19.9652695 C76.8444765,18.1831992 78.4281822,17.1773789 78.9252731,15.4621055 C80.0824473,11.4701133 78.0707988,5.44187109 75.517607,3.52480078 C73.336616,2.13929297 71.5458185,1.58558203 68.9622861,1.71355078 C67.7666571,1.77261328 66.6165389,2.16882422 65.4882942,2.56749609 C64.2640886,2.99991797 63.0218904,3.45026953 61.9864312,4.23073828 C60.1405974,5.62222266 59.1587634,7.53226172 58.7459909,9.71616797 C58.4993858,11.021168 58.3124034,12.2878477 58.3646173,13.6223789 C58.4104809,14.7980039 58.7085944,16.0594102 59.0123526,17.3591367"/>
    <polygon fill="#00364C" points="89.081 74.604 89.199 81.401 79.908 76.127"/>
    <path fill="#EC6D54" d="M59.7989135,42.8462227 C59.7989135,42.8462227 57.9174471,40.9713398 58.3877255,40.3852852 C58.8580039,39.7992305 60.3845565,35.0703633 60.8827059,34.5961055 C61.3805024,34.1221992 62.3207064,30.6550898 64.3200069,29.7174727 C66.3193075,28.780207 69.0231436,27.6109102 69.0231436,27.6109102 C69.0231436,27.6109102 71.1674437,39.4968867 73.2842257,39.0279023 C75.4010076,38.5592695 78.2784199,28.442707 78.7486983,27.2705977 C79.2189766,26.0988398 79.2189766,24.8096602 79.2189766,24.8096602 C79.2189766,24.8096602 85.5693225,26.0988398 87.8039386,26.8019648 C90.0382019,27.5050898 91.1978457,28.7837227 92.020921,30.307043 C92.8443492,31.8307148 97.1953945,38.8619648 97.1953945,38.8619648 L89.0810637,42.963293 L85.5530938,54.916418 C85.5530938,54.916418 87.9051913,69.5649727 88.1401541,71.6743477 C88.3754697,73.7837227 82.0251239,75.8930977 81.6723269,76.2446602 C81.3195299,76.5962227 76.8506504,73.900793 76.8506504,73.900793 L64.9014164,68.6231367 C64.9014164,68.6231367 67.2316405,53.4504023 66.8347439,52.3468477 C64.7003221,46.4100117 66.0317779,43.3148555 66.0317779,43.3148555 C66.0317779,43.3148555 64.62059,45.8932148 64.62059,45.5416523 C64.62059,45.1900898 59.7989135,42.8462227 59.7989135,42.8462227"/>
    <path fill="#E85740" d="M89.6690705,74.7211641 C89.6690705,74.7211641 88.6106795,71.6741719 88.6106795,71.0884688 C88.6106795,70.5024141 86.6113789,59.0179219 86.6113789,55.7367891 C86.6113789,52.4556563 89.1987921,43.6665938 89.1987921,43.6665938 L87.0820101,37.9241719 C87.0820101,37.9241719 87.4348071,45.7759688 85.7883036,49.2915938 C84.1418,52.8072188 81.5547397,53.7444844 81.5547397,56.0883516 C81.5547397,58.4322188 86.0564293,64.3124531 86.5101262,67.8175313 C86.9641759,71.3226094 84.006326,72.3460078 84.006326,72.3460078 L80.1597804,72.2707734 C80.1597804,72.2707734 70.1477546,68.0414766 70.0299204,67.6899141 C69.912439,67.3383516 67.2241259,63.2472188 67.2241259,63.2472188 L67.3253787,55.3852266 L64.5569807,67.1836641 L78.1939955,75.0203438 C78.1939955,75.0203438 79.2326299,75.7909688 80.9666271,76.8305391 C82.7006243,77.8701094 89.6690705,74.7211641 89.6690705,74.7211641"/>
    <path stroke="#FFFFFF" stroke-width=".587" d="M73.9271629,18.4816406 C73.9271629,18.4816406 73.233564,23.4907031 73.9821992,26.7535547 C74.7304816,30.0167578 75.3856257,34.4917969 74.2626728,38.8733203 C73.7426501,40.9032422 69.9592551,48.3827344 69.3044639,54.6289453 C68.6496727,60.8751563 69.2779104,66.0628584 69.7457193,72.2159052"/>
    <polygon fill="#5B5E67" points="108.448 99.949 73.658 119.786 73.668 112.086 108.459 92.249"/>
    <polygon fill="#5B5E67" points="12.551 151.905 61.358 179.989 61.347 112.758 12.54 84.675"/>
    <polygon fill="#868C96" points=".083 77.521 73.652 119.786 73.641 112.098 .072 69.833"/>
    <polygon fill="#B8BEC6" points="43.594 94.874 78.194 75.02 108.237 92.187 73.641 112.097"/>
    <path fill="#5B5E67" d="M75.6817282,81.3584531 C74.5922911,80.7551719 74.5905271,78.0804844 75.6782002,77.4613828 C76.7669317,76.8419297 78.5347974,76.8282188 79.6270569,77.4318516 C80.7193164,78.0354844 80.720022,80.7119297 79.6291737,81.3313828 C78.539031,81.9501328 76.7718709,81.9620859 75.6817282,81.3584531"/>
    <path fill="#868C96" d="M75.6817282,79.6528125 C74.5922911,79.0495313 74.5905271,78.0591797 75.6782002,77.4400781 C76.7669317,76.820625 78.5347974,76.8072656 79.6270569,77.4105469 C80.7193164,78.0145313 80.720022,79.0062891 79.6291737,79.6257422 C78.539031,80.2444922 76.7718709,80.2564453 75.6817282,79.6528125"/>
    <path fill="#5B5E67" d="M65.8307189,100.673086 C58.8065308,96.7844531 58.7955941,90.4000781 65.8081399,86.4087891 C72.8256249,82.4150391 84.222026,82.3278516 91.2610316,86.2185937 C98.3025067,90.1107422 98.3088571,96.5056641 91.2769075,100.497305 C84.2495442,104.486484 72.8577294,104.563477 65.8307189,100.673086"/>
    <path fill="#2C2E33" d="M67.7544151,98.0410078 C61.7924987,94.7405391 61.783326,89.3215547 67.735364,85.9338984 C73.6916356,82.5441328 83.3642707,82.4703047 89.338535,85.7725313 C95.3156216,89.0761641 95.3209135,94.5035859 89.352294,97.8919453 C83.3879081,101.277844 73.718801,101.343234 67.7544151,98.0410078"/>
    <path fill="#00AAD6" d="M74.8409071,94.0160742 C72.792215,92.8819336 72.7890398,91.0200586 74.834204,89.8560352 C76.8811321,88.690957 80.2048326,88.6656445 82.2577582,89.8001367 C84.3117423,90.935332 84.3135063,92.8003711 82.2623446,93.9647461 C80.2129469,95.128418 76.8903048,95.150918 74.8409071,94.0160742"/>
    <path fill="#B8BEC6" d="M78.5471806,92.2110469 L78.5471806,92.2110469 C78.3478503,92.2110469 78.1862693,92.0500313 78.1862693,91.8513984 L78.1862693,91.13175 C78.1862693,90.9327656 78.3478503,90.77175 78.5471806,90.77175 C78.7465109,90.77175 78.9080919,90.9327656 78.9080919,91.13175 L78.9080919,91.8513984 C78.9080919,92.0500313 78.7465109,92.2110469 78.5471806,92.2110469"/>
    <path fill="#5B5E67" d="M49.5473738,97.5483633 C47.2922955,96.2999648 47.2887675,94.2503555 49.5399651,92.9689102 C51.7929267,91.6867617 55.4517843,91.6589883 57.711449,92.9077383 C59.9721721,94.1571914 59.9742889,96.2103164 57.7167409,97.4921133 C55.4606042,98.7725039 51.8035106,98.7974648 49.5473738,97.5483633"/>
    <path fill="#868C96" d="M53.0182259,89.9760234 C60.8997107,86.0634844 74.1313618,84.0490313 74.5705941,84.1928203 C75.6935469,84.5602031 76.690904,85.543875 75.9101642,86.0796563 C75.1294245,86.6154375 72.3169269,86.8516875 72.3169269,86.8516875 C72.3169269,86.8516875 72.5698823,85.6542656 71.6321479,85.7330156 C70.6947663,85.8117656 67.9404802,85.3371563 65.2366441,86.8573125 C62.5328079,88.3781719 56.5733612,91.9307109 56.5733612,91.9307109 L53.0182259,89.9760234 Z"/>
    <path fill="#2C2E33" d="M50.1479754,96.0444141 C48.2199399,94.9763672 49.4113353,91.8010547 51.3351373,90.7038281 C53.2603505,89.60625 53.5570527,89.4839063 55.4889691,90.5523047 C57.4219438,91.6214063 59.0596274,94.8969141 57.1305335,95.9941406 C55.2028507,97.0910156 52.0770694,97.1128125 50.1479754,96.0444141"/>
    <polygon fill="#B8BEC6" points="0 69.937 34.6 50.083 64.643 67.249 30.047 87.16"/>
    <path fill="#5B5E67" d="M32.0876977,56.4210352 C30.9979078,55.8177539 30.9964966,53.1430664 32.0841698,52.5239648 C33.1729013,51.9045117 34.940767,51.8908008 36.0326737,52.4944336 C37.125286,53.0980664 37.1259915,55.7745117 36.0351433,56.3939648 C34.9450005,57.0127148 33.1778404,57.024668 32.0876977,56.4210352"/>
    <path fill="#868C96" d="M32.0876977,54.7153945 C30.9979078,54.1121133 30.9964966,53.1217617 32.0841698,52.5030117 C33.1729013,51.883207 34.940767,51.8698477 36.0326737,52.4734805 C37.125286,53.0771133 37.1259915,54.0692227 36.0351433,54.6883242 C34.9450005,55.3070742 33.1778404,55.3190273 32.0876977,54.7153945"/>
    <path fill="#5B5E67" d="M22.2366179,75.735668 C15.2124298,71.8470352 15.2014931,65.4626602 22.2140389,61.4713711 C29.2315238,57.4776211 40.627925,57.3904336 47.6669306,61.2811758 C54.7087585,65.1733242 54.7151089,71.5682461 47.6828065,75.5598867 C40.6554432,79.549418 29.2639812,79.6260586 22.2366179,75.735668"/>
    <path fill="#2C2E33" d="M24.1603846,73.1037656 C18.1984683,69.8032969 18.1892956,64.3843125 24.1413336,60.9966563 C30.0972524,57.6068906 39.7702403,57.5327109 45.7445045,60.8352891 C51.7215911,64.1389219 51.7268831,69.5663438 45.7582636,72.9547031 C39.7938777,76.3406016 30.1247705,76.4056406 24.1603846,73.1037656"/>
    <path fill="#00AAD6" d="M31.2468767,69.078832 C29.1981845,67.9446914 29.1950094,66.0824648 31.2401735,64.9184414 C33.2871017,63.7537148 36.6108021,63.7280508 38.6637278,64.8628945 C40.7173591,65.9980898 40.7194759,67.8631289 38.6683141,69.0275039 C36.6189164,70.1911758 33.2962744,70.2133242 31.2468767,69.078832"/>
    <path fill="#B8BEC6" d="M34.9531502,67.2736289 L34.9531502,67.2736289 C34.7538199,67.2736289 34.5922388,67.1126133 34.5922388,66.9139805 L34.5922388,66.194332 C34.5922388,65.9953477 34.7538199,65.834332 34.9531502,65.834332 C35.1524805,65.834332 35.3140615,65.9953477 35.3140615,66.194332 L35.3140615,66.9139805 C35.3140615,67.1126133 35.1524805,67.2736289 34.9531502,67.2736289"/>
    <path fill="#5B5E67" d="M5.95327282,72.6110859 C3.69819445,71.3626875 3.69466648,69.3130781 5.94621688,68.0316328 C8.19917846,66.7494844 11.8576833,66.7213594 14.117348,67.9704609 C16.3780711,69.2199141 16.3801879,71.2730391 14.1226399,72.5544844 C11.8665032,73.8352266 8.20940957,73.8598359 5.95327282,72.6110859"/>
    <path fill="#868C96" d="M10.3680332,65.6402695 C18.2932648,61.8110508 31.5506701,59.9368711 31.9884912,60.0852305 C33.1079161,60.4645664 34.095042,61.4584336 33.3083048,61.9861289 C32.5215675,62.5138242 29.7058947,62.7198398 29.7058947,62.7198398 C29.7058947,62.7198398 29.9715508,61.525582 29.0331108,61.5941367 C28.094318,61.663043 25.3439127,61.1592539 22.6231423,62.6512852 C19.9023719,64.1429648 13.9034119,67.6322227 13.9034119,67.6322227 L10.3680332,65.6402695 Z"/>
    <path fill="#2C2E33" d="M6.55387441,71.1069961 C4.62583886,70.0389492 5.8172343,66.8636367 7.74103629,65.7667617 C9.66624946,64.668832 9.96295173,64.5464883 11.8948681,65.6148867 C13.8278428,66.6839883 15.4658792,69.9594961 13.5364325,71.0567227 C11.6087497,72.1535977 8.48296836,72.1753945 6.55387441,71.1069961"/>
    <polygon fill="#5B5E67" points="30.048 87.16 64.557 67.184 78.033 75.017 43.594 94.874"/>
    <g transform="translate(38.836 75.522)">
      <path fill="#2C2E33" d="M1.64593118,7.49271399 L0.298952273,7.49271399 L0.298952273,9.22872962 L0.298952273,9.23857337 L0.298952273,9.26986243 L0.304597025,9.26986243 C0.319061702,9.35318274 0.380448378,9.43404212 0.494754603,9.49767493 C0.757235564,9.64251868 1.18306153,9.64005774 1.44589529,9.49204993 C1.55702634,9.42947181 1.61841302,9.35072181 1.63570007,9.26986243 L1.64593118,9.26986243 L1.64593118,7.49271399 Z"/>
      <path fill="#868C96" d="M0.494789883,7.76942884 C0.232661719,7.62458509 0.232661719,7.3872804 0.49514268,7.23927259 C0.757623641,7.09091321 1.18380241,7.08845228 1.44628337,7.23329603 C1.70911712,7.37813978 1.70911712,7.61579603 1.44593057,7.76380384 C1.18274401,7.91181165 0.756918047,7.91427259 0.494789883,7.76942884"/>
      <path fill="#2C2E33" d="M3.66555284,8.60885462 L2.31857393,8.60885462 L2.31857393,10.3448702 L2.31857393,10.354714 L2.31857393,10.3860031 L2.32386588,10.3860031 C2.33868335,10.4693234 2.40007003,10.5501827 2.51437626,10.6138156 C2.77650442,10.7586593 3.20233039,10.7561984 3.46551694,10.6081906 C3.57664799,10.5456124 3.63803467,10.4668624 3.65532172,10.3860031 L3.66555284,10.3860031 L3.66555284,8.60885462 Z"/>
      <path fill="#868C96" d="M2.51434098,8.88556946 C2.25221281,8.74072571 2.25221281,8.50342103 2.51469377,8.35541321 C2.77717473,8.20705384 3.2033535,8.2045929 3.46618726,8.34943665 C3.72902101,8.4942804 3.72866822,8.73193665 3.46548166,8.87994446 C3.20229511,9.02795228 2.77682194,9.03041321 2.51434098,8.88556946"/>
      <path fill="#2C2E33" d="M5.71163426,9.79537806 L4.36465535,9.79537806 L4.36465535,11.5313937 L4.36465535,11.5412374 L4.36465535,11.5725265 L4.3703001,11.5725265 C4.38476478,11.6558468 4.44615146,11.7367062 4.56045768,11.800339 C4.82293864,11.9451827 5.24876461,11.9427218 5.51159837,11.794714 C5.62272942,11.7321359 5.6841161,11.6533859 5.70140315,11.5725265 L5.71163426,11.5725265 L5.71163426,9.79537806 Z"/>
      <path fill="#868C96" d="M4.56049296,10.0720929 C4.2983648,9.92724915 4.2983648,9.68994446 4.56084576,9.54193665 C4.82332672,9.39357728 5.24950548,9.39111634 5.51233924,9.53596009 C5.775173,9.68080384 5.7748202,9.91846009 5.51163365,10.0664679 C5.24844709,10.2144757 4.82297392,10.2169367 4.56049296,10.0720929"/>
      <path fill="#2C2E33" d="M7.81384569,11.0287648 L6.46686678,11.0287648 L6.46686678,12.7647804 L6.46686678,12.7746242 L6.46686678,12.8062648 L6.47251153,12.8062648 C6.48697621,12.8892335 6.54836288,12.9704445 6.66266911,13.0337257 C6.92515007,13.1785695 7.35097604,13.1761085 7.6138098,13.0281007 C7.72494085,12.9655226 7.78632752,12.8867726 7.80361458,12.8062648 L7.81384569,12.8062648 L7.81384569,11.0287648 Z"/>
      <path fill="#868C96" d="M6.66270439,11.3054796 C6.40057622,11.1606359 6.40057622,10.9233312 6.66305719,10.7753234 C6.92553815,10.626964 7.35171691,10.6245031 7.61455067,10.7693468 C7.87738443,10.9141906 7.87703163,11.1518468 7.61384508,11.2998546 C7.35065852,11.448214 6.92518535,11.4503234 6.66270439,11.3054796"/>
      <path fill="#2C2E33" d="M9.98076008,12.2388077 L8.63378117,12.2388077 L8.63378117,13.9748234 L8.63378117,13.9846671 L8.63378117,14.0159562 L8.63942593,14.0159562 C8.6538906,14.0992765 8.71527728,14.1801359 8.8295835,14.2437687 C9.09206447,14.3886124 9.51789043,14.3861515 9.78072419,14.2381437 C9.89185524,14.1755656 9.95324192,14.0968156 9.97052897,14.0159562 L9.98076008,14.0159562 L9.98076008,12.2388077 Z"/>
      <path fill="#868C96" d="M8.82961878,12.5155226 C8.56749062,12.3706788 8.56749062,12.1333742 8.82997158,11.9853663 C9.09245254,11.837007 9.51863131,11.834546 9.78111227,11.9793898 C10.043946,12.1242335 10.043946,12.3618898 9.78075947,12.5098976 C9.51757292,12.6579054 9.09174695,12.6603663 8.82961878,12.5155226"/>
      <path fill="#2C2E33" d="M4.8211041,5.65681946 L3.47412519,5.65681946 L3.47412519,7.39283509 L3.47412519,7.40267884 L3.47412519,7.43431946 L3.47976994,7.43431946 C3.49423462,7.51728821 3.55562129,7.59849915 3.66992752,7.6617804 C3.93240848,7.80662415 4.35823445,7.80416321 4.6210682,7.6561554 C4.73219926,7.59357728 4.79358593,7.51482728 4.81087299,7.43431946 L4.8211041,7.43431946 L4.8211041,5.65681946 Z"/>
      <path fill="#868C96" d="M3.6699628,5.93353431 C3.40783463,5.78869056 3.40783463,5.55138587 3.67031559,5.40337806 C3.93279656,5.25501868 4.35897532,5.25255774 4.62145628,5.39740149 C4.88429004,5.54224524 4.88429004,5.77990149 4.62110348,5.92790931 C4.35791693,6.07626868 3.93209096,6.07837806 3.6699628,5.93353431"/>
      <path fill="#2C2E33" d="M6.84072575,6.77296009 L5.49374684,6.77296009 L5.49374684,8.50897571 L5.49374684,8.51881946 L5.49374684,8.55010853 L5.4990388,8.55010853 C5.51385627,8.63342884 5.57524295,8.71463978 5.68954917,8.77792103 C5.95167733,8.92276478 6.3775033,8.92030384 6.64068986,8.77229603 C6.75182091,8.7097179 6.81320758,8.6309679 6.83049464,8.55010853 L6.84072575,8.55010853 L6.84072575,6.77296009 Z"/>
      <path fill="#868C96" d="M5.68951389,7.04967493 C5.42738573,6.90483118 5.42738573,6.66752649 5.68986669,6.51951868 C5.95234765,6.37115931 6.37852641,6.36869837 6.64136017,6.51354212 C6.90419393,6.65838587 6.90384113,6.89604212 6.64065458,7.04404993 C6.37746802,7.19205774 5.95199485,7.19451868 5.68951389,7.04967493"/>
      <path fill="#2C2E33" d="M8.88680718,7.95948353 L7.53982827,7.95948353 L7.53982827,9.69549915 L7.53982827,9.7053429 L7.53982827,9.73663196 L7.54547302,9.73663196 C7.5599377,9.81995228 7.62132437,9.90116321 7.7356306,9.96444446 C7.99811156,10.1092882 8.42393752,10.1068273 8.68677128,9.95881946 C8.79790233,9.89624134 8.85928901,9.81749134 8.87657606,9.73663196 L8.88680718,9.73663196 L8.88680718,7.95948353 Z"/>
      <path fill="#868C96" d="M7.73566588,8.23619837 C7.47353771,8.09135462 7.47353771,7.85404993 7.73601867,7.70604212 C7.99849963,7.55768274 8.4246784,7.55522181 8.68751216,7.70006556 C8.95034591,7.84490931 8.94999312,8.08256556 8.68680656,8.23057337 C8.42362001,8.37858118 7.99814684,8.38104212 7.73566588,8.23619837"/>
      <path fill="#2C2E33" d="M10.9890186,9.19304603 L9.64203969,9.19304603 L9.64203969,10.9287101 L9.64203969,10.9385538 L9.64203969,10.9701945 L9.64768445,10.9701945 C9.66214912,11.0535148 9.7235358,11.1343742 9.83784202,11.1976554 C10.100323,11.3424992 10.526149,11.3403898 10.7889827,11.192382 C10.9001138,11.1298038 10.9615004,11.0510538 10.9787875,10.9701945 L10.9890186,10.9701945 L10.9890186,9.19304603 Z"/>
      <path fill="#868C96" d="M9.8378773,9.46976087 C9.57574914,9.32491712 9.57574914,9.08761243 9.8382301,8.93960462 C10.1007111,8.79124524 10.5268898,8.78843274 10.7897236,8.93362806 C11.0525573,9.07847181 11.0522045,9.31612806 10.789018,9.46413587 C10.5258314,9.61214368 10.1003583,9.61460462 9.8378773,9.46976087"/>
      <path fill="#2C2E33" d="M13.155933,10.4029132 L11.8089541,10.4029132 L11.8089541,12.1389288 L11.8089541,12.1487726 L11.8089541,12.1804132 L11.8145988,12.1804132 C11.8290635,12.263382 11.8904502,12.3445929 12.0047564,12.4078742 C12.2672374,12.5527179 12.6930633,12.550257 12.9558971,12.4022492 C13.0670282,12.339671 13.1284148,12.260921 13.1457019,12.1804132 L13.155933,12.1804132 L13.155933,10.4029132 Z"/>
      <path fill="#868C96" d="M12.0047917,10.6796281 C11.7426635,10.5347843 11.7426635,10.2974796 12.0051445,10.1494718 C12.2676255,10.0011124 12.6938042,9.99865149 12.9562852,10.1434952 C13.2191189,10.288339 13.2191189,10.5259952 12.9559324,10.6740031 C12.6927458,10.8223624 12.2669199,10.8244718 12.0047917,10.6796281"/>
      <path fill="#2C2E33" d="M7.81987852,3.92199915 L6.47289961,3.92199915 L6.47289961,5.65766321 L6.47289961,5.66785853 L6.47289961,5.69914759 L6.47854436,5.69914759 C6.49300904,5.7824679 6.55439571,5.86332728 6.66870194,5.92660853 C6.9311829,6.07180384 7.35700887,6.0693429 7.61984262,5.92133509 C7.73097368,5.85875696 7.79236035,5.78000696 7.8096474,5.69914759 L7.81987852,5.69914759 L7.81987852,3.92199915 Z"/>
      <path fill="#868C96" d="M6.66873722,4.19871399 C6.40660905,4.05387024 6.40660905,3.81656556 6.66909001,3.66855774 C6.93157098,3.52019837 7.35774974,3.51738587 7.6202307,3.66258118 C7.88306446,3.80742493 7.88306446,4.04508118 7.6198779,4.19308899 C7.35669135,4.34109681 6.93086538,4.34355774 6.66873722,4.19871399"/>
      <path fill="#2C2E33" d="M9.83950017,5.03813978 L8.49252126,5.03813978 L8.49252126,6.77380384 L8.49252126,6.78364759 L8.49252126,6.81528821 L8.49781321,6.81528821 C8.51263069,6.89860853 8.57401736,6.9794679 8.68832359,7.04274915 C8.95045175,7.1875929 9.37627772,7.18548353 9.63946428,7.03747571 C9.75059533,6.97489759 9.811982,6.89614759 9.82926906,6.81528821 L9.83950017,6.81528821 L9.83950017,5.03813978 Z"/>
      <path fill="#868C96" d="M8.68828831,5.31485462 C8.42616015,5.17001087 8.42616015,4.93270618 8.68864111,4.78469837 C8.95112207,4.63633899 9.37730083,4.63352649 9.64013459,4.77872181 C9.90296835,4.92356556 9.90261555,5.16122181 9.639429,5.30922962 C9.37624244,5.45723743 8.95076927,5.45969837 8.68828831,5.31485462"/>
      <path fill="#2C2E33" d="M11.8855816,6.22466321 L10.5386027,6.22466321 L10.5386027,7.96032728 L10.5386027,7.97017103 L10.5386027,8.00181165 L10.5442474,8.00181165 C10.5587121,8.08513196 10.6200988,8.16599134 10.734405,8.22927259 C10.996886,8.37411634 11.4227119,8.37200696 11.6855457,8.22399915 C11.7966768,8.16142103 11.8580634,8.08267103 11.8753505,8.00181165 L11.8855816,8.00181165 L11.8855816,6.22466321 Z"/>
      <path fill="#868C96" d="M10.7344403,6.50137806 C10.4723121,6.35653431 10.4723121,6.11922962 10.7347931,5.97122181 C10.9972741,5.82286243 11.4234528,5.82004993 11.6862866,5.96524524 C11.9491203,6.11008899 11.9487675,6.34774524 11.685581,6.49575306 C11.4223944,6.64376087 10.9969213,6.64622181 10.7344403,6.50137806"/>
      <path fill="#2C2E33" d="M13.987793,7.45804993 L12.6408141,7.45804993 L12.6408141,9.19406556 L12.6408141,9.20390931 L12.6408141,9.23519837 L12.6464589,9.23519837 C12.6609235,9.31851868 12.7223102,9.39937806 12.8366164,9.46301087 C13.0990974,9.60785462 13.5249234,9.60539368 13.7877571,9.45738587 C13.8988882,9.39480774 13.9602749,9.31605774 13.9775619,9.23519837 L13.987793,9.23519837 L13.987793,7.45804993 Z"/>
      <path fill="#868C96" d="M12.8366517,7.73476478 C12.5745236,7.58992103 12.5745236,7.35261634 12.8370045,7.20460853 C13.0994855,7.05624915 13.5256642,7.05378821 13.788498,7.19863196 C14.0513318,7.34347571 14.050979,7.58113196 13.7877924,7.72913978 C13.5246059,7.87714759 13.0991327,7.87960853 12.8366517,7.73476478"/>
      <path fill="#2C2E33" d="M16.1547074,8.6680929 L14.8077285,8.6680929 L14.8077285,10.403757 L14.8077285,10.4139523 L14.8077285,10.4452413 L14.8133733,10.4452413 C14.8278379,10.5285617 14.8892246,10.609421 15.0035308,10.6727023 C15.2660118,10.8178976 15.6918378,10.8154367 15.9546715,10.6674288 C16.0658026,10.6048507 16.1271893,10.5261007 16.1444763,10.4452413 L16.1547074,10.4452413 L16.1547074,8.6680929 Z"/>
      <path fill="#868C96" d="M15.0035661,8.94480774 C14.741438,8.79996399 14.741438,8.56265931 15.0039189,8.41465149 C15.2663999,8.26629212 15.6925786,8.26347962 15.9550596,8.40867493 C16.2178934,8.55351868 16.2178934,8.79117493 15.9547068,8.93918274 C15.6915203,9.08719056 15.2656943,9.08965149 15.0035661,8.94480774"/>
      <path fill="#2C2E33" d="M10.9950514,2.06325306 L9.64807252,2.06325306 L9.64807252,3.79891712 L9.64807252,3.80876087 L9.64807252,3.84040149 L9.65371727,3.84040149 C9.66818195,3.92372181 9.72956863,4.00458118 9.84387485,4.06786243 C10.1063558,4.21270618 10.5321818,4.21059681 10.7950155,4.06258899 C10.9061466,4.00001087 10.9675333,3.92126087 10.9848203,3.84040149 L10.9950514,3.84040149 L10.9950514,2.06325306 Z"/>
      <path fill="#868C96" d="M9.84391013,2.3399679 C9.58178197,2.19512415 9.58178197,1.95781946 9.84426293,1.80981165 C10.1067439,1.66145228 10.5329227,1.65863978 10.7954036,1.80383509 C11.0582374,1.94867884 11.0582374,2.18633509 10.7950508,2.3343429 C10.5318643,2.48235071 10.1060383,2.48481165 9.84391013,2.3399679"/>
      <path fill="#2C2E33" d="M13.0146731,3.17939368 L11.6676942,3.17939368 L11.6676942,4.91505774 L11.6676942,4.92490149 L11.6676942,4.95654212 L11.6729861,4.95654212 C11.6878036,5.03986243 11.7491903,5.12072181 11.8634965,5.18400306 C12.1256247,5.32884681 12.5514506,5.32673743 12.8146372,5.17872962 C12.9257682,5.11615149 12.9871549,5.03740149 13.004442,4.95654212 L13.0146731,4.95654212 L13.0146731,3.17939368 Z"/>
      <path fill="#868C96" d="M11.8634612,3.45593274 C11.6013331,3.31108899 11.6013331,3.07378431 11.863814,2.92577649 C12.126295,2.77741712 12.5524737,2.77495618 12.8153075,2.91979993 C13.0781413,3.06464368 13.0777885,3.30229993 12.8146019,3.45065931 C12.5514154,3.59866712 12.1259422,3.60112806 11.8634612,3.45593274"/>
      <path fill="#2C2E33" d="M15.0607545,4.36591712 L13.7137756,4.36591712 L13.7137756,6.10158118 L13.7137756,6.11142493 L13.7137756,6.14306556 L13.7194204,6.14306556 C13.733885,6.22638587 13.7952717,6.30724524 13.9095779,6.37052649 C14.1720589,6.51537024 14.5978849,6.51326087 14.8607186,6.36525306 C14.9718497,6.30267493 15.0332363,6.22392493 15.0505234,6.14306556 L15.0607545,6.14306556 L15.0607545,4.36591712 Z"/>
      <path fill="#868C96" d="M13.9096132,4.64245618 C13.647485,4.49761243 13.647485,4.26030774 13.909966,4.11229993 C14.172447,3.96394056 14.5986257,3.96147962 14.8614595,4.10632337 C15.1242932,4.25116712 15.1239405,4.48882337 14.8607539,4.63718274 C14.5975673,4.78519056 14.1720942,4.78765149 13.9096132,4.64245618"/>
      <path fill="#2C2E33" d="M17.1629659,5.59930384 L15.815987,5.59930384 L15.815987,7.33531946 L15.815987,7.34516321 L15.815987,7.37645228 L15.8216318,7.37645228 C15.8360965,7.45977259 15.8974831,7.54063196 16.0117894,7.60426478 C16.2742703,7.74910853 16.7000963,7.74664759 16.96293,7.59863978 C17.0740611,7.53606165 17.1354478,7.45731165 17.1527348,7.37645228 L17.1629659,7.37645228 L17.1629659,5.59930384 Z"/>
      <path fill="#868C96" d="M16.0118246,5.87601868 C15.7496965,5.73117493 15.7496965,5.49387024 16.0121774,5.34586243 C16.2746584,5.19750306 16.7008372,5.19504212 16.9636709,5.33988587 C17.2265047,5.48472962 17.2261519,5.72238587 16.9629653,5.87039368 C16.6997788,6.01840149 16.2743056,6.02086243 16.0118246,5.87601868"/>
      <path fill="#2C2E33" d="M19.3298803,6.80934681 L17.9829014,6.80934681 L17.9829014,8.54501087 L17.9829014,8.55485462 L17.9829014,8.58649524 L17.9885462,8.58649524 C18.0030109,8.66981556 18.0643975,8.75067493 18.1787038,8.81395618 C18.4411847,8.95879993 18.8670107,8.95669056 19.1298444,8.80868274 C19.2409755,8.74610462 19.3023622,8.66735462 19.3196492,8.58649524 L19.3298803,8.58649524 L19.3298803,6.80934681 Z"/>
      <path fill="#868C96" d="M18.178739,7.08606165 C17.9166109,6.9412179 17.9166109,6.70391321 18.1790918,6.5559054 C18.4415728,6.40754603 18.8677516,6.40473353 19.1302325,6.54992884 C19.3930663,6.69477259 19.3930663,6.93242884 19.1298797,7.08043665 C18.8666932,7.22844446 18.4408672,7.2309054 18.178739,7.08606165"/>
      <path fill="#2C2E33" d="M13.7529361,0.48860462 L12.4059572,0.48860462 L12.4059572,2.22426868 L12.4059572,2.23446399 L12.4059572,2.26575306 L12.4112491,2.26575306 C12.4260666,2.34907337 12.4874533,2.42993274 12.6017595,2.49321399 C12.8638877,2.63840931 13.2897136,2.63594837 13.5529002,2.48794056 C13.6640312,2.42536243 13.7254179,2.34661243 13.742705,2.26575306 L13.7529361,2.26575306 L13.7529361,0.48860462 Z"/>
      <path fill="#868C96" d="M12.6016889,0.765319463 C12.3395608,0.620475713 12.3395608,0.383171026 12.6020417,0.235163213 C12.8645227,0.0868038383 13.2907015,0.0839913383 13.5535352,0.229186651 C13.816369,0.374030401 13.8160162,0.611686651 13.5528296,0.759694463 C13.2896431,0.907702276 12.8641699,0.910163213 12.6016889,0.765319463"/>
      <path fill="#2C2E33" d="M15.7724519,1.60474524 L14.425473,1.60474524 L14.425473,3.34040931 L14.425473,3.35025306 L14.425473,3.38189368 L14.4307649,3.38189368 C14.4455824,3.46521399 14.5069691,3.54607337 14.6212753,3.60935462 C14.8834035,3.75419837 15.3095822,3.75208899 15.572416,3.60408118 C15.683547,3.54150306 15.7449337,3.46275306 15.7622208,3.38189368 L15.7724519,3.38189368 L15.7724519,1.60474524 Z"/>
      <path fill="#868C96" d="M14.6213106,1.88146009 C14.3591824,1.73661634 14.3591824,1.49931165 14.6216634,1.35130384 C14.8841443,1.20294446 15.3099703,1.20013196 15.5728041,1.34532728 C15.8356378,1.49017103 15.8356378,1.72782728 15.5724513,1.87583509 C15.3092647,2.0238429 14.8834387,2.02630384 14.6213106,1.88146009"/>
      <path fill="#2C2E33" d="M17.8186039,2.79126868 L16.471625,2.79126868 L16.471625,4.52693274 L16.471625,4.53677649 L16.471625,4.56841712 L16.4769169,4.56841712 C16.4917344,4.65173743 16.5531211,4.73259681 16.6674273,4.79587806 C16.9295554,4.94072181 17.3553814,4.93861243 17.618568,4.79060462 C17.729699,4.72802649 17.7910857,4.64927649 17.8083728,4.56841712 L17.8186039,4.56841712 L17.8186039,2.79126868 Z"/>
      <path fill="#868C96" d="M16.667392,3.06798353 C16.4052638,2.92313978 16.4052638,2.68583509 16.6677448,2.53782728 C16.9302258,2.3894679 17.3564045,2.3866554 17.6192383,2.53185071 C17.882072,2.67669446 17.8817192,2.91435071 17.6185327,3.06235853 C17.3553461,3.21036634 16.929873,3.21282728 16.667392,3.06798353"/>
      <path fill="#2C2E33" d="M19.9208506,4.0246554 L18.5738717,4.0246554 L18.5738717,5.76067103 L18.5738717,5.77051478 L18.5738717,5.80180384 L18.5791636,5.80180384 C18.5939811,5.88512415 18.6553678,5.96598353 18.769674,6.02961634 C19.0318022,6.17446009 19.4576281,6.17199915 19.7208147,6.02399134 C19.8319457,5.96141321 19.8933324,5.88266321 19.9106195,5.80180384 L19.9208506,5.80180384 L19.9208506,4.0246554 Z"/>
      <path fill="#868C96" d="M18.7696034,4.30137024 C18.5074753,4.15652649 18.5074753,3.91922181 18.7699562,3.77121399 C19.0324372,3.62285462 19.458616,3.62039368 19.7214497,3.76523743 C19.9842835,3.91008118 19.9839307,4.14773743 19.7207441,4.29574524 C19.4579104,4.44375306 19.0320844,4.44621399 18.7696034,4.30137024"/>
      <path fill="#2C2E33" d="M22.087765,5.23469837 L20.7407861,5.23469837 L20.7407861,6.97036243 L20.7407861,6.98055774 L20.7407861,7.01184681 L20.746078,7.01184681 C20.7608955,7.09516712 20.8222822,7.17602649 20.9365884,7.23930774 C21.1987166,7.38450306 21.6245425,7.38204212 21.8877291,7.23403431 C21.9988601,7.17145618 22.0602468,7.09270618 22.0775339,7.01184681 L22.087765,7.01184681 L22.087765,5.23469837 Z"/>
      <path fill="#868C96" d="M20.9365178,5.51141321 C20.6743897,5.36656946 20.6743897,5.12926478 20.9368706,4.98125696 C21.1993516,4.83289759 21.6255304,4.83008509 21.8883641,4.9752804 C22.1511979,5.12012415 22.1508451,5.3577804 21.8876585,5.50578821 C21.624472,5.65379603 21.1989988,5.65625696 20.9365178,5.51141321"/>
    </g>
    <polygon fill="#2C2E33" points="55.736 73.889 64.901 68.623 65.137 68.799 56.03 74.065"/>
    <polygon fill="#868C96" points="63.233 69.407 63.916 69.78 65.328 69.034 65.306 68.726 64.556 68.418 63.145 69.055"/>
    <polygon fill="#2C2E33" points="57.544 74.878 66.709 69.612 66.945 69.788 57.838 75.054"/>
    <polygon fill="#868C96" points="61.69 72.395 62.373 72.769 63.784 72.022 63.762 71.714 63.013 71.406 61.601 72.044"/>
    <polygon fill="#2C2E33" points="62.836 77.998 72.001 72.732 72.237 72.908 63.13 78.174"/>
    <polygon fill="#868C96" points="68.79 74.527 69.473 74.9 70.884 74.153 70.862 73.846 70.113 73.538 68.701 74.175"/>
    <polygon fill="#2C2E33" points="64.931 79.163 74.096 73.897 74.331 74.072 65.225 79.339"/>
    <polygon fill="#868C96" points="69.076 76.68 69.76 77.053 71.171 76.306 71.149 75.999 70.399 75.691 68.988 76.328"/>
    <path fill="#EC6D54"/>
    <path fill="#EC6D54"/>
    <path fill="#EC6D54"/>
    <path fill="#F4D2B3" d="M101.199217 46.2378867C100.439998 44.5215586 96.3722486 38.7446836 96.3722486 38.7446836 96.3722486 38.7446836 94.845696 38.6328867 92.6089631 39.2133164 90.3722301 39.7937461 88.4928806 42.3773789 88.4928806 42.3773789L94.020151 49.2915586C94.020151 49.2915586 91.2521058 52.2288633 90.4921811 53.1587461 89.7322564 54.0886289 82.0052967 61.0847227 82.0052967 61.0847227L79.5967517 61.6669102C79.5967517 61.6669102 78.2346025 62.1211289 77.2993377 62.8263633 76.3644256 63.5315977 73.8211121 68.0920664 73.8211121 68.0920664L73.9696397 69.8983945 75.3776524 69.3116367 75.1497456 70.874332C75.1497456 70.874332 76.6928796 71.6565586 77.1635108 71.5749961 77.634142 71.4937852 78.1382889 70.4190586 78.1382889 70.4190586L80.237431 68.7948398C80.237431 68.7948398 80.5979895 68.8198008 81.0725015 69.1168711 81.5470134 69.4139414 82.7112435 67.3115977 83.3187599 66.6351914 84.3432824 65.4943711 84.6121137 64.1742539 84.6121137 64.1742539 84.6121137 64.1742539 90.7740659 59.4460898 93.667354 57.9635508 96.5606422 56.4803086 100.315813 53.1295664 101.193572 51.9869883 102.071684 50.8440586 101.958436 47.9542148 101.199217 46.2378867M58.7405225 40.853918L54.6389047 48.7250508C54.5895131 48.8143477 54.515073 48.8860664 54.4233458 48.931418 53.2023154 49.5322383 42.4998659 54.8735273 40.3329867 55.4493867 38.003821 56.0684883 36.6063921 55.9134492 36.6063921 55.9134492 36.6063921 55.9134492 32.8515738 55.3994648 32.0750676 55.8635273 31.2989142 56.3279414 29.1771931 60.2313398 29.1532029 61.0198945 29.1189816 62.1579023 30.7199744 63.0290742 31.5137676 63.3904805 31.7540223 63.4998164 32.0380239 63.3996211 32.1593861 63.165832L33.0653687 61.4203242C33.1380449 61.2807539 33.2728134 61.1833711 33.4287496 61.1584102 33.8690403 61.0884492 34.1727985 61.5869648 33.9067896 61.9438008L33.3648934 62.670832C33.1959036 62.8972383 33.2428256 63.2291133 33.4841388 63.3767695 33.6146737 63.4565742 33.7836634 63.5173945 33.9953416 63.5173945 34.5481745 63.5173945 37.9089186 62.0285273 38.639914 61.7015742 38.7326996 61.6600898 38.8081982 61.5922383 38.8604121 61.5054023L39.5797652 60.310793C39.6626725 60.173332 39.8066136 60.0840352 39.9671363 60.0717305 41.3483365 59.965207 47.9015406 59.4561445 48.8731435 59.3179805 49.8514496 59.1784102 57.2404297 56.539582 58.2554267 56.2629023 58.3683217 56.2319648 60.0850319 54.6604805 60.1517105 54.5648555L64.62059 45.5413008 58.7405225 40.853918z"/>
    <path fill="#B5937F" d="M73.9271629,18.4816406 C73.9271629,18.4816406 73.6918473,22.8174609 73.1040875,23.9895703 C72.5159749,25.1613281 71.457584,26.2160156 71.457584,26.2160156 L69.0229319,27.6106641 L69.9289146,29.6145703 C69.9289146,29.6145703 71.5750654,29.9661328 72.8687719,28.7940234 C74.1624785,27.6222656 75.6911479,20.4739453 73.9271629,18.4816406"/>
    <polygon fill="#ECF0F3" points="74.291 10.092 74.398 8.352 76.527 8.289 76.397 10.396"/>
    <path fill="#FFFFFF" d="M72.2869391,11.3266055 C73.2236151,9.54875391 74.8588292,9.47562891 75.9408576,11.1641836 C77.0235915,12.853793 77.1424841,15.6676992 76.2054553,17.449418 C75.2680737,19.2314883 73.6300373,19.303207 72.5476561,17.610082 C71.4663333,15.9183633 71.3499103,13.1051602 72.2869391,11.3266055"/>
    <path fill="#1D1D1B" d="M73.0264722,11.1434414 C73.9631482,9.36558984 75.5983622,9.29246484 76.6803906,10.9810195 C77.7631246,12.6706289 77.8820172,15.4845352 76.9449884,17.2662539 C76.0076068,19.0483242 74.3695703,19.120043 73.2871892,17.426918 C72.2058664,15.7351992 72.0894434,12.9219961 73.0264722,11.1434414"/>
    <path fill="#ECF0F3" d="M73.5614183 11.5351875C74.3781433 9.98514844 76.434597 9.97776563 77.3779761 11.4501094 78.3217081 12.9231563 78.4254304 15.3770625 77.6083525 16.9302656 76.7912747 18.4841719 74.7323515 18.4905 73.7886195 17.0139375 72.8455932 15.5387813 72.7443404 13.0859297 73.5614183 11.5351875M76.5142938 8.11054688C76.5142938 8.11054688 77.1024064 5.29804688 75.1620229 3.07160156 73.2216395.844804688 71.117911.248554688 69.2360919.365625 67.3546255.483046875 64.0323363 3.00234375 64.0323363 3.00234375 64.0323363 3.00234375 70.516745.376171875 72.4571284 2.30976563 74.3975118 4.24335938 74.4564289 7.81769531 74.4564289 7.81769531L76.5142938 8.11054688z"/>
    <path stroke="#FFFFFF" stroke-width=".587" d="M73.9271629,18.4816406 C73.9271629,18.4816406 73.233564,23.4907031 73.9821992,26.7535547 C74.7304816,30.0167578 75.3856257,34.4917969 74.2626728,38.8733203 C73.7426501,40.9032422 69.9592551,48.3827344 69.3044639,54.6289453 C68.6496727,60.8751563 69.0236375,63.7653516 69.4914463,69.9183984"/>
    <path stroke="#FFFFFF" stroke-width=".587" d="M67.1579758,27.9427225 C67.1579758,27.9427225 68.4623375,29.4574219 69.3979551,35.9834766 C70.3335728,42.5091797 69.9592551,48.7553906 69.5849375,52.8574219"/>
    <path fill="#2C2E33" d="M76.9497864,5.16002344 C76.9497864,5.16002344 78.0685057,2.5588125 80.1817596,3.54986719 C82.2946608,4.54057031 83.6621019,5.16002344 84.0350084,6.77053125 C84.4079148,8.3806875 84.5320993,14.0784609 84.5320993,14.0784609 L83.165011,12.5920547 C83.165011,12.5920547 83.5449733,13.8147891 83.3343535,16.0173281 C83.1240865,18.2198672 81.3347002,19.6883438 81.3347002,19.6883438 C81.3347002,19.6883438 81.2962453,16.7883047 80.9138134,14.0246719 C80.4925738,10.9829531 80.4301287,11.6013516 79.3114095,10.2386953 C78.1926902,8.87603906 77.4468774,7.63748438 77.4468774,7.63748438 L76.9497864,5.16002344 Z"/>
  </g>
</svg>
