<svg xmlns="http://www.w3.org/2000/svg" width="46" height="6" viewBox="0 0 46 6">
  <path fill="#2591BF" fill-rule="evenodd" d="M3,5 C1.8954305,5 1,4.1045695 1,3 C1,1.8954305 1.8954305,1 3,1 C4.1045695,1 5,1.8954305 5,3 C5,4.1045695 4.1045695,5 3,5 Z M13,5 C11.8954305,5 11,4.1045695 11,3 C11,1.8954305 11.8954305,1 13,1 C14.1045695,1 15,1.8954305 15,3 C15,4.1045695 14.1045695,5 13,5 Z M23,5 C21.8954305,5 21,4.1045695 21,3 C21,1.8954305 21.8954305,1 23,1 C24.1045695,1 25,1.8954305 25,3 C25,4.1045695 24.1045695,5 23,5 Z M33,5 C31.8954305,5 31,4.1045695 31,3 C31,1.8954305 31.8954305,1 33,1 C34.1045695,1 35,1.8954305 35,3 C35,4.1045695 34.1045695,5 33,5 Z M43,5 C41.8954305,5 41,4.1045695 41,3 C41,1.8954305 41.8954305,1 43,1 C44.1045695,1 45,1.8954305 45,3 C45,4.1045695 44.1045695,5 43,5 Z"/>
</svg>
