<svg xmlns="http://www.w3.org/2000/svg" width="80" height="165" viewBox="0 0 80 165">
  <g fill="none" fill-rule="evenodd">
    <path fill="#1D1D1B" d="M68.6552567,0 L11.3447433,0 C4.88997555,0 0,4.76878613 0,11.0635838 L0,153.936416 C0,160.231214 4.88997555,165 11.3447433,165 L68.6552567,165 C75.1100244,165 80,160.231214 80,153.936416 L80,11.0635838 C80,4.76878613 75.1100244,0 68.6552567,0 L68.6552567,0 Z"/>
    <polygon fill="#FFFFFF" points="6 16 74 16 74 144 6 144"/>
    <g transform="translate(11 20)">
      <rect width="59" height="23" fill="#D8D8D8"/>
      <rect width="47" height="4" x="6" y="5" fill="#777675"/>
      <rect width="30" height="4" x="6" y="12" fill="#777675"/>
    </g>
    <g transform="translate(11 46)">
      <rect width="59" height="60" fill="#EC6D54"/>
      <rect width="47" height="4" x="6" y="9" fill="#D8D8D8"/>
      <rect width="47" height="4" x="6" y="40" fill="#D8D8D8"/>
      <rect width="47" height="4" x="6" y="47" fill="#D8D8D8"/>
      <rect width="10.487" height="16" x="6" y="17" fill="#FFFFFF"/>
      <rect width="10.487" height="16" x="30.342" y="17" fill="#FFFFFF"/>
      <rect width="10.487" height="16" x="18.171" y="17" fill="#FFFFFF"/>
      <rect width="10.487" height="16" x="42.513" y="17" fill="#FFFFFF"/>
    </g>
    <g transform="translate(11 109)">
      <rect width="59" height="30" fill="#7BCAEC"/>
      <rect width="6.327" height="5.384" x="6" y="19.616" fill="#777675"/>
      <rect width="6.327" height="5.384" x="22.269" y="19.616" fill="#777675"/>
      <rect width="6.327" height="13.46" x="38.538" y="11.54" fill="#777675"/>
      <rect width="6.327" height="13.46" x="14.135" y="11.54" fill="#777675"/>
      <rect width="6.327" height="8.749" x="30.404" y="16.251" fill="#777675"/>
      <rect width="6.327" height="17.498" x="46.673" y="7.502" fill="#777675"/>
    </g>
  </g>
</svg>
