<svg xmlns="http://www.w3.org/2000/svg" width="375" height="102" viewBox="0 0 375 102">
  <path fill="#2691BF" fill-rule="evenodd" d="M374.675202,19.530926 C369.452419,11.6425218 360.822581,5.64853596 351.03871,3.11408915 C349.796371,4.29420972 348.554637,5.47433028 347.313508,6.65445085 C347.651613,5.21056433 345.359274,4.21447922 343.91129,4.89819553 C342.462702,5.58191184 341.834274,7.13010333 341.43871,8.56252177 C339.733065,6.60584801 338.028024,4.64972035 336.322984,2.69304659 C334.01371,3.50127355 332.025,5.03635865 330.782661,6.97009624 C330.740927,4.67265652 327.120363,3.2304083 325.213911,4.75184092 C325.774597,2.02680546 320.904435,0.128564325 319.093548,2.36702532 C315.95504,-0.145577519 310.14375,1.26772745 308.827621,4.86379128 C309.390726,2.93496858 307.577419,0.968465034 305.467137,0.3786778 C303.356855,-0.211655533 301.081452,0.199011134 298.920363,0.612954396 C296.936492,0.993039503 294.952016,1.37367071 292.968145,1.75320972 C292.146169,0.639713261 290.352823,-0.72225837 288.590323,0.450216808 C286.14375,1.91977 286.524194,2.51720262 286.578629,5.17015298 C284.04254,4.57654305 283.458266,4.89055014 280.922782,4.29748631 C278.765927,5.08332319 277.404435,6.05974872 275.739315,7.52493312 C274.697177,8.44237993 271.216935,8.7700395 270.439718,9.88025936 C269.485282,11.242231 268.751613,12.7287133 268.288306,14.2872806 C267.714315,13.1322806 264.053831,13.8351104 263.479839,12.6801104 C262.155847,12.688848 260.889919,13.5342097 260.49254,14.674465 C257.576613,13.1688693 255.968952,20.185153 253.053629,18.6790111 C245.857258,22.1593019 240.954435,16.1287274 235.022177,21.1932523 C233.063105,18.562692 227.657056,19.393309 226.772177,22.4607487 C223.466734,22.3957629 221.542742,19.2087274 219.832863,16.654075 C218.122379,14.0999686 214.600403,11.5507771 211.865927,13.227848 C212.911089,9.96654305 210.416129,10.3094934 206.84879,9.23477 C204.453629,7.50527355 200.799798,9.76830901 201.703427,13.6538055 C195.265524,11.7981601 187.884073,12.8548622 182.398185,16.4181601 C181.044556,18.7565572 179.692137,21.0949544 178.339113,23.4333516 C177.224395,21.846387 174.476008,21.4701246 172.890726,22.687926 C171.305444,23.9062735 171.276411,26.4155998 172.833871,27.6634367 C171.136089,26.4652948 169.735282,29.0002877 168.038105,27.8021459 C165.958065,30.1361743 163.581653,28.7365218 161.501613,31.0705501 C158.256048,26.0180395 150.494758,23.8199899 144.635081,26.2927274 C144.740927,23.0767487 141.754234,20.025692 138.20625,19.7258835 C139.036089,17.2296636 136.400202,14.3577274 133.529637,14.630231 C130.659073,14.9032806 128.742944,18.2071813 130.129839,20.493153 C128.54879,16.9932026 122.55,16.8839828 119.533669,19.5047133 C116.517339,22.1254438 115.81875,26.2108126 115.645161,29.9870891 C113.597782,29.0112097 110.700605,30.7237771 110.872379,32.8082381 C109.390524,30.7942239 106.665726,29.5829757 103.994153,29.7506282 C103.175202,31.2190891 102.935685,32.9442168 103.328831,34.5492026 C103.719556,32.1430891 102.030242,29.5933516 99.4971774,28.7660111 C96.9647177,27.9386707 93.858871,28.9227416 92.4544355,30.9979189 C89.6340726,29.7074863 86.9788306,28.1227062 84.5594758,26.2856282 C82.4612903,26.9840891 80.8203629,28.7059402 80.3679435,30.6833657 C79.5683468,28.2887204 77.4816532,26.273614 74.8887097,25.3916636 C73.6100806,26.8076991 72.3314516,28.2237345 71.0534274,29.63977 C70.9185484,27.5946282 68.6879032,25.8607629 66.427621,26.0442523 C64.1667339,26.2277416 62.3147177,28.2930891 62.5862903,30.3278551 C60.4403226,26.0961317 54.4784274,23.8101601 49.616129,25.355075 C48.6641129,27.4914154 47.7120968,29.6277558 46.7600806,31.7640962 C43.0820565,30.728692 38.696371,32.582153 37.2217742,35.7959473 C35.5288306,34.7649118 33.8358871,33.7327842 32.1435484,32.7017487 C32.7018145,35.7812026 31.9554435,39.039231 30.0889113,41.6654225 C29.9879032,38.3101884 24.2358871,36.6107274 21.9580645,39.2625856 C21.4729839,37.1333445 19.8538306,35.2394721 17.6951613,34.2756069 C16.3082661,35.827075 14.9207661,37.3779969 13.5332661,38.9289189 C12.9387097,37.0448764 9.77177419,36.8362665 8.15564516,38.1436282 C6.54012097,39.4509899 6.09133065,41.5387274 5.73387097,43.4702806 L2.32681452,39.105309 C1.55141129,41.2645856 0.775403226,43.4233161 0,45.5831388 L0,102 L374.675202,102 L374.675202,19.530926 Z"/>
</svg>
