<svg xmlns="http://www.w3.org/2000/svg" width="188" height="199" viewBox="0 0 188 199">
  <g fill="none" fill-rule="evenodd" transform="translate(0 1)">
    <path fill="#DBD9DB" d="M152.165485,154.517817 L187.1875,134.780161 L120.811403,96.6711837 L102.269446,106.948225 L96.8153098,103.816803 L0,159.772735 L67.421875,197.996097 L108.14493,174.153915 L112.720703,176.74805 L124.134452,170.315506 L141.029297,179.89367 L168.242187,163.748047 L152.165485,154.517817 Z" style="mix-blend-mode:multiply"/>
    <g transform="matrix(-1 0 0 1 182.496 0)">
      <polygon fill="#A33F40" points="116.752 189.998 117.064 148.792 169.289 119.332 169.026 159.846"/>
      <polyline fill="#A33F40" points="69.533 171.653 69.533 100.099 136.482 62.449 135.462 137.416"/>
      <polyline fill="#EC6D54" points="78 112 117.031 150.064 116.83 190.061 78 167.061 78 112"/>
      <polygon fill="#EC6D54" points="33.653 42.5 69.485 100.134 69.485 171.531 6.071 135.098 6.071 63.516"/>
      <polygon fill="#5B5E67" points="131.599 78.929 167.398 117.712 117.299 148.221 78.061 109.974"/>
      <polyline stroke="#FFFFFF" stroke-width="3" points="78.061 110.153 117.187 148.316 170 118.396" stroke-linecap="round" stroke-linejoin="round"/>
      <polyline fill="#ECF0F3" points="82.398 169.853 82.398 137 111.02 153.807 111.02 186.664"/>
      <polyline stroke="#868C96" points="82.398 169.643 82.398 137.306 111.02 154.113 110.884 186.745"/>
      <polygon fill="#634E42" points="39.898 124.898 52.041 131.735 51.907 155.255 39.898 148.127"/>
      <polygon stroke="#ECF0F3" points="39.898 124.898 52.041 131.735 51.907 155.255 39.898 148.127"/>
      <polyline fill="#5B5E67" points="66.526 98.01 29.49 41.741 102.945 0 142.245 55.655 66.526 98.01"/>
      <polygon fill="#4DC1EB" points="21.684 137.908 11.276 131.651 11.276 112.755 21.684 119.014"/>
      <polygon stroke="#ECF0F3" stroke-width=".456" points="21.684 137.908 11.276 131.651 11.276 112.755 21.684 119.014"/>
      <polyline fill="#FFFFFF" points="69.666 110.256 69.666 115.318 6 78.916 6.155 74"/>
      <polyline fill="#868C96" points="25.308 153.71 45.062 165.623 45.102 169.133 25.308 157.431"/>
      <polyline fill="#868C96" points="20.786 159.899 40.781 171.702 40.781 175.191 20.786 163.467"/>
      <polygon fill="#B8BEC6" points="38.056 146.37 58.08 157.75 44.97 165.62 25.351 153.736"/>
      <polyline fill="#B8BEC6" points="20.777 159.92 25.263 157.405 45.102 169.161 40.824 171.735"/>
      <polyline fill="#5B5E67" points="44.865 165.61 44.972 169.148 40.788 171.667 40.765 175.204 57.992 165.464 57.992 157.76"/>
      <polyline fill="#FFFFFF" points="45.102 164.796 43.367 163.534 43.367 130.102 45.102 131.362 45.102 164.796"/>
      <polyline fill="#FFFFFF" points="28.622 155.255 26.888 154.1 26.888 121.429 28.622 122.585 28.622 155.255"/>
      <polyline fill="#ECECEC" points="30.357 154.1 28.622 155.255 28.622 122.585 30.357 121.429 30.357 154.1"/>
      <polyline fill="#ECECEC" points="46.837 163.773 45.102 164.929 45.102 132.257 46.837 131.102 46.837 163.773"/>
      <polygon fill="#5B5E67" points="44.452 135.053 30.668 123.262 51.501 111.888 64.184 124.07"/>
      <polyline fill="#868C96" points="37.171 114.908 20.816 123.163 31.182 123.09 52.041 111.888 37.171 114.908"/>
      <polyline stroke="#FFFFFF" stroke-width="2" points="20.816 124.105 31.196 124.031 44.318 135.306 64.024 124.692" stroke-linecap="round" stroke-linejoin="round"/>
      <polygon fill="#4DC1EB" points="21.684 111.02 11.276 104.763 11.276 85.867 21.684 92.125"/>
      <polygon stroke="#ECF0F3" stroke-width=".456" points="21.684 111.02 11.276 104.763 11.276 85.867 21.684 92.125"/>
      <polygon fill="#4DC1EB" points="32.092 116.224 26.02 112.988 26.02 94.541 32.092 97.778"/>
      <polygon stroke="#ECF0F3" stroke-width=".456" points="32.092 116.224 26.02 112.988 26.02 94.541 32.092 97.778"/>
      <polygon fill="#4DC1EB" points="35.561 84.133 25.153 77.875 25.153 58.98 35.561 65.237"/>
      <polygon stroke="#ECF0F3" stroke-width=".456" points="35.561 84.133 25.153 77.875 25.153 58.98 35.561 65.237"/>
      <polyline stroke="#FFFFFF" stroke-width="3" points="0 65.98 29.858 43.367 66.51 99.745 143.112 56.997" stroke-linecap="round" stroke-linejoin="round"/>
      <g fill="#6597D0" stroke="#3C3C3B" transform="rotate(-3 594.73 -938.62)" stroke-linecap="round" stroke-linejoin="round">
        <polygon points="27.535 47.999 13.342 55.053 .05 32.046 14.331 25.106 27.571 47.324"/>
        <polygon points="44.486 39.893 30.292 46.947 17 23.94 31.281 17 44.521 39.218"/>
        <polygon points="61.384 31.785 47.19 38.84 33.898 15.833 48.179 8.893 61.419 31.111"/>
        <polygon points="78.381 23.89 64.188 30.945 50.895 7.938 65.176 .997 78.416 23.215"/>
      </g>
    </g>
  </g>
</svg>
