<svg xmlns="http://www.w3.org/2000/svg" width="308" height="250" viewBox="0 0 308 250">
  <g fill="none" fill-rule="evenodd">
    <path fill="#2591BF" d="M95.3826859,69.2320508 C94.2781164,69.2320508 93.3826859,68.3366203 93.3826859,67.2320508 C93.3826859,66.1274813 94.2781164,65.2320508 95.3826859,65.2320508 C96.4872554,65.2320508 97.3826859,66.1274813 97.3826859,67.2320508 C97.3826859,68.3366203 96.4872554,69.2320508 95.3826859,69.2320508 Z M105.382686,69.2320508 C104.278116,69.2320508 103.382686,68.3366203 103.382686,67.2320508 C103.382686,66.1274813 104.278116,65.2320508 105.382686,65.2320508 C106.487255,65.2320508 107.382686,66.1274813 107.382686,67.2320508 C107.382686,68.3366203 106.487255,69.2320508 105.382686,69.2320508 Z M115.382686,69.2320508 C114.278116,69.2320508 113.382686,68.3366203 113.382686,67.2320508 C113.382686,66.1274813 114.278116,65.2320508 115.382686,65.2320508 C116.487255,65.2320508 117.382686,66.1274813 117.382686,67.2320508 C117.382686,68.3366203 116.487255,69.2320508 115.382686,69.2320508 Z M125.382686,69.2320508 C124.278116,69.2320508 123.382686,68.3366203 123.382686,67.2320508 C123.382686,66.1274813 124.278116,65.2320508 125.382686,65.2320508 C126.487255,65.2320508 127.382686,66.1274813 127.382686,67.2320508 C127.382686,68.3366203 126.487255,69.2320508 125.382686,69.2320508 Z M135.382686,69.2320508 C134.278116,69.2320508 133.382686,68.3366203 133.382686,67.2320508 C133.382686,66.1274813 134.278116,65.2320508 135.382686,65.2320508 C136.487255,65.2320508 137.382686,66.1274813 137.382686,67.2320508 C137.382686,68.3366203 136.487255,69.2320508 135.382686,69.2320508 Z M145.382686,69.2320508 C144.278116,69.2320508 143.382686,68.3366203 143.382686,67.2320508 C143.382686,66.1274813 144.278116,65.2320508 145.382686,65.2320508 C146.487255,65.2320508 147.382686,66.1274813 147.382686,67.2320508 C147.382686,68.3366203 146.487255,69.2320508 145.382686,69.2320508 Z" transform="scale(-1 1) rotate(-30 0 516.506)"/>
    <g transform="translate(0 .421)">
      <path fill="#1D1D1B" d="M68.6552567,0 L11.3447433,0 C4.88997555,0 0,4.76878613 0,11.0635838 L0,153.936416 C0,160.231214 4.88997555,165 11.3447433,165 L68.6552567,165 C75.1100244,165 80,160.231214 80,153.936416 L80,11.0635838 C80,4.76878613 75.1100244,0 68.6552567,0 L68.6552567,0 Z"/>
      <polygon fill="#FFFFFF" points="6 16 74 16 74 144 6 144"/>
      <g transform="translate(9 22.579)">
        <rect width="29" height="29" y="9" fill="#7BCAEC"/>
        <path fill="#FFFFFF" stroke="#FFFFFF" stroke-width=".5" d="M8.81481481,28.6666667 L7.92592593,29.5555556 C7.77777778,29.7037037 7.77777778,29.9259259 7.92592593,30.0740741 C8.07407407,30.2222222 8.2962963,30.2222222 8.44444444,30.0740741 L9.33333333,29.1851852 C9.48148148,29.037037 9.48148148,28.8148148 9.33333333,28.6666667 C9.18518519,28.5185185 8.96296296,28.5185185 8.81481481,28.6666667 L8.81481481,28.6666667 Z M6.85185185,22.6296296 L5.37037037,22.6296296 C5.14814815,22.6296296 5,22.7777778 5,23 C5,23.2222222 5.14814815,23.3703704 5.37037037,23.3703704 L6.85185185,23.3703704 C7.07407407,23.3703704 7.22222222,23.2222222 7.22222222,23 C7.22222222,22.7777778 7.07407407,22.6296296 6.85185185,22.6296296 L6.85185185,22.6296296 Z M15,30.7777778 C14.7777778,30.7777778 14.6296296,30.9259259 14.6296296,31.1481481 L14.6296296,32.6296296 C14.6296296,32.8518519 14.7777778,33 15,33 C15.2222222,33 15.3703704,32.8518519 15.3703704,32.6296296 L15.3703704,31.1481481 C15.3703704,30.9259259 15.2222222,30.7777778 15,30.7777778 L15,30.7777778 Z M8.81481481,17.3333333 C8.96296296,17.4814815 9.18518519,17.4814815 9.33333333,17.3333333 C9.48148148,17.1851852 9.48148148,16.962963 9.33333333,16.8148148 L8.44444444,15.9259259 C8.2962963,15.7777778 8.07407407,15.7777778 7.92592593,15.9259259 C7.77777778,16.0740741 7.77777778,16.2962963 7.92592593,16.4444444 L8.81481481,17.3333333 L8.81481481,17.3333333 Z M24.6296296,22.6296296 L23.1481481,22.6296296 C22.9259259,22.6296296 22.7777778,22.7777778 22.7777778,23 C22.7777778,23.2222222 22.9259259,23.3703704 23.1481481,23.3703704 L24.6296296,23.3703704 C24.8518519,23.3703704 25,23.2222222 25,23 C25,22.7777778 24.8518519,22.6296296 24.6296296,22.6296296 L24.6296296,22.6296296 Z M21.5555556,15.9259259 L20.6666667,16.8148148 C20.5185185,16.962963 20.5185185,17.1851852 20.6666667,17.3333333 C20.8148148,17.4814815 21.037037,17.4814815 21.1851852,17.3333333 L22.0740741,16.4444444 C22.2222222,16.2962963 22.2222222,16.0740741 22.0740741,15.9259259 C21.9259259,15.7777778 21.7037037,15.7777778 21.5555556,15.9259259 L21.5555556,15.9259259 Z M21.1851852,28.6666667 C21.037037,28.5185185 20.8148148,28.5185185 20.6666667,28.6666667 C20.5185185,28.8148148 20.5185185,29.037037 20.6666667,29.1851852 L21.5555556,30.0740741 C21.7037037,30.2222222 21.9259259,30.2222222 22.0740741,30.0740741 C22.2222222,29.9259259 22.2222222,29.7037037 22.0740741,29.5555556 L21.1851852,28.6666667 L21.1851852,28.6666667 Z M15,15.2222222 C15.2222222,15.2222222 15.3703704,15.0740741 15.3703704,14.8518519 L15.3703704,13.3703704 C15.3703704,13.1481481 15.2222222,13 15,13 C14.7777778,13 14.6296296,13.1481481 14.6296296,13.3703704 L14.6296296,14.8518519 C14.6296296,15.0740741 14.7777778,15.2222222 15,15.2222222 L15,15.2222222 Z M15,16.3333333 C11.3333333,16.3333333 8.33333333,19.3333333 8.33333333,23 C8.33333333,26.6666667 11.3333333,29.6666667 15,29.6666667 C18.6666667,29.6666667 21.6666667,26.6666667 21.6666667,23 C21.6666667,19.3333333 18.6666667,16.3333333 15,16.3333333 L15,16.3333333 Z M15,28.9259259 C11.7407407,28.9259259 9.07407407,26.2592593 9.07407407,23 C9.07407407,19.7407407 11.7407407,17.0740741 15,17.0740741 C18.2592593,17.0740741 20.9259259,19.7407407 20.9259259,23 C20.9259259,26.2592593 18.2592593,28.9259259 15,28.9259259 L15,28.9259259 Z"/>
        <rect width="33" height="4" x="15" fill="#D8D8D8"/>
        <rect width="29" height="29" y="42" fill="#7BCAEC"/>
        <path fill="#FFFFFF" stroke="#FFFFFF" stroke-width=".5" d="M15,54.3962264 L14.7037037,54.7735849 C14.5185185,55 10.5555556,60.1320755 10.5555556,62.509434 C10.5555556,65 12.5555556,67 15,67 C17.4444444,67 19.4444444,65 19.4444444,62.509434 C19.4444444,60.1320755 15.4444444,55 15.2962963,54.7735849 L15,54.3962264 L15,54.3962264 Z M15,66.245283 C12.962963,66.245283 11.2962963,64.5471698 11.2962963,62.509434 C11.2962963,60.8867925 13.7407407,57.3018868 15,55.6415094 C16.2592593,57.3018868 18.7037037,60.8867925 18.7037037,62.509434 C18.7037037,64.5849057 17.037037,66.245283 15,66.245283 L15,66.245283 Z M21.962963,47.754717 L21.6666667,47.3773585 L21.3703704,47.754717 C21.0740741,48.1698113 18.3333333,51.7169811 18.3333333,53.4528302 C18.3333333,55.3018868 19.8148148,56.8113208 21.6666667,56.8113208 C23.5185185,56.8113208 25,55.3018868 25,53.4528302 C25,51.6792453 22.2592593,48.1320755 21.962963,47.754717 L21.962963,47.754717 Z M21.6666667,56.0566038 C20.2222222,56.0566038 19.0740741,54.8867925 19.0740741,53.4528302 C19.0740741,52.3207547 20.7407407,49.8679245 21.6666667,48.6226415 C22.5925926,49.8679245 24.2592593,52.3207547 24.2592593,53.4528302 C24.2592593,54.8867925 23.1111111,56.0566038 21.6666667,56.0566038 L21.6666667,56.0566038 Z M11.6666667,53.4150943 C11.6666667,51.6792453 8.92592593,48.1320755 8.62962963,47.7169811 L8.33333333,47.3396226 L8.03703704,47.7169811 C7.74074074,48.1320755 5,51.6792453 5,53.4150943 C5,55.2641509 6.48148148,56.7735849 8.33333333,56.7735849 C10.1851852,56.7735849 11.6666667,55.3018868 11.6666667,53.4150943 L11.6666667,53.4150943 Z M8.33333333,56.0566038 C6.88888889,56.0566038 5.74074074,54.8867925 5.74074074,53.4528302 C5.74074074,52.3207547 7.40740741,49.8679245 8.33333333,48.6226415 C9.25925926,49.8679245 10.9259259,52.3207547 10.9259259,53.4528302 C10.9259259,54.8867925 9.77777778,56.0566038 8.33333333,56.0566038 L8.33333333,56.0566038 Z"/>
        <rect width="29" height="29" y="75" fill="#7BCAEC"/>
        <path fill="#FFFFFF" stroke="#FFFFFF" stroke-width=".5" d="M23.1896552,81 L5.81034483,81 C4.72413793,81 4,81.8680851 4,82.9531915 L4,92.3574468 C4,93.4425532 4.72413793,94.3829787 5.81034483,94.3829787 L14.5,94.3829787 L14.5,96.5531915 L10.5172414,96.5531915 C9.90172414,96.5531915 9.25,96.987234 9.25,97.6382979 C9.25,97.8553191 9.39482759,98 9.61206897,98 C9.82931034,98 9.97413793,97.8553191 9.97413793,97.6382979 C9.97413793,97.4212766 10.3,97.2765957 10.5172414,97.2765957 L18.8448276,97.2765957 C19.062069,97.2765957 19.4241379,97.4212766 19.4241379,97.6382979 C19.4241379,97.8553191 19.5689655,98 19.7862069,98 C20.0034483,98 20.1482759,97.8553191 20.1482759,97.6382979 C20.1482759,97.0234043 19.4603448,96.5531915 18.8448276,96.5531915 L15.2241379,96.5531915 L15.2241379,94.3829787 L23.1896552,94.3829787 C24.2758621,94.3829787 25,93.4425532 25,92.3574468 L25,82.9531915 C25,81.8680851 24.2758621,81 23.1896552,81 L23.1896552,81 Z M24.2758621,92.393617 C24.2758621,93.0808511 23.8775862,93.6957447 23.1896552,93.6957447 L15.0068966,93.6957447 C14.9706897,93.6595745 14.8982759,93.6595745 14.862069,93.6595745 C14.8258621,93.6595745 14.7534483,93.6595745 14.7172414,93.6957447 L5.81034483,93.6957447 C5.12241379,93.6957447 4.72413793,93.0808511 4.72413793,92.393617 L4.72413793,82.9893617 C4.72413793,82.3021277 5.26724138,81.7595745 5.99137931,81.7595745 L23.0448276,81.7595745 C23.7327586,81.7595745 24.312069,82.3021277 24.312069,82.9893617 L24.312069,92.393617 L24.2758621,92.393617 Z"/>
        <rect width="62" height="10" y="108" fill="#E85740"/>
        <rect width="29" height="29" x="33" y="9" fill="#7BCAEC"/>
        <path fill="#FFFFFF" stroke="#FFFFFF" stroke-width=".5" d="M56.3853659,15.6146341 C56.2536585,15.4829268 55.9902439,15.395122 55.4634146,15.395122 C53.4439024,15.395122 47.7804878,16.1853659 45.804878,18.1170732 C43.9170732,20.004878 42.8634146,26.3707317 43.1268293,28.2146341 L39.0439024,32.297561 L39.6585366,32.9121951 L43.7414634,28.8292683 C43.8731707,28.8292683 44.0487805,28.8731707 44.2243902,28.8731707 C46.2439024,28.8731707 51.9073171,28.0829268 53.8829268,26.1512195 C55.1560976,24.8780488 55.8585366,22.2439024 56.2097561,20.2243902 C56.1658537,20.2243902 56.9121951,16.1853659 56.3853659,15.6146341 L56.3853659,15.6146341 Z M53.2243902,25.5804878 C51.4682927,27.3365854 46.0682927,28.0829268 44.1804878,28.0829268 L43.9170732,28.0829268 C43.8292683,26.7658537 44.5756098,20.6634146 46.4195122,18.8195122 C48.1756098,17.0634146 53.5756098,16.3170732 55.4634146,16.3170732 L55.7268293,16.3170732 C55.7707317,17.6341463 55.0682927,23.7365854 53.2243902,25.5804878 L53.2243902,25.5804878 Z"/>
        <rect width="29" height="29" x="33" y="42" fill="#7BCAEC"/>
        <path fill="#FFFFFF" stroke="#FFFFFF" stroke-width=".5" d="M55.4901961,64.9 C54.9803922,64.2127273 54.9019608,63.2581818 55.2156863,62.1127273 C55.5686275,60.8145455 55.4509804,59.7454545 54.8235294,58.9054545 C54,57.7981818 52.5490196,57.3781818 51.6862745,57.2254545 C53.1372549,54.7436364 51.7647059,50.62 49.4117647,48.6345455 C48.8235294,48.1381818 48.2745098,47.9090909 47.8039216,47.9090909 C47.0196078,47.9090909 46.4705882,48.4818182 45.9215686,49.2836364 L42,46 L41.4901961,46.5727273 L45.4901961,49.8945455 C45.4901961,49.9327273 45.4509804,49.9709091 45.4509804,49.9709091 C45.0980392,50.5436364 44.6666667,51.1927273 44.1568627,51.8036364 C43.6470588,52.4145455 43.0588235,52.9109091 42.5882353,53.3690909 L42.5098039,53.4454545 L38.5098039,50.1236364 L38,50.6963636 L41.9215686,53.98 C41.2941176,54.5527273 40.8627451,55.1254545 40.8627451,55.8127273 C40.8627451,56.3854545 41.2156863,56.92 41.8823529,57.4545455 C43.254902,58.5618182 45.372549,59.2872727 47.2941176,59.2872727 L47.2941176,59.2872727 C48.9019608,59.2872727 50.2352941,58.7909091 51.1372549,57.9127273 C51.6470588,57.9509091 53.3333333,58.2181818 54.1568627,59.3254545 C54.627451,59.9745455 54.745098,60.8527273 54.4313725,61.8836364 C54.0392157,63.2581818 54.1568627,64.4418182 54.8235294,65.32 C55.8431373,66.7709091 57.8039216,66.9618182 57.9215686,67 L58,66.2363636 C58,66.2363636 56.3137255,66.0836364 55.4901961,64.9 L55.4901961,64.9 Z M50.745098,57.2636364 C50.0392157,58.1036364 48.8235294,58.5618182 47.3333333,58.5618182 L47.3333333,58.5618182 C45.5686275,58.5618182 43.6470588,57.9127273 42.3921569,56.8818182 C41.8823529,56.4618182 41.6470588,56.1181818 41.6470588,55.7745455 C41.6470588,55.24 42.3137255,54.6290909 43.0980392,53.9418182 C43.6078431,53.4836364 44.2352941,52.9490909 44.745098,52.3 C45.2941176,51.6509091 45.7254902,51.0018182 46.0784314,50.3909091 C46.7058824,49.3981818 47.1764706,48.6345455 47.7647059,48.6345455 C48.0784314,48.6345455 48.4313725,48.8254545 48.8627451,49.1690909 C51.1372549,51.0781818 52.4313725,55.24 50.745098,57.2636364 L50.745098,57.2636364 Z"/>
        <rect width="29" height="29" x="33" y="75" fill="#7BCAEC"/>
        <path fill="#FFFFFF" stroke="#FFFFFF" stroke-width=".5" d="M47.5,84.922 C43.3857143,84.922 40,88.198 40,92.272 C40,96.304 43.3428571,99.622 47.5,99.622 C51.6571429,99.622 55,96.346 55,92.272 C55,88.198 51.6571429,84.922 47.5,84.922 L47.5,84.922 Z M47.5,98.74 C43.8571429,98.74 40.8571429,95.842 40.8571429,92.23 C40.8571429,88.66 43.8142857,85.72 47.5,85.72 C51.1428571,85.72 54.1428571,88.618 54.1428571,92.23 C54.1428571,95.842 51.1857143,98.74 47.5,98.74 L47.5,98.74 Z M44.5428571,84.46 C44.8,84.46 44.9714286,84.292 44.9714286,84.04 L44.9714286,81.772 C44.9714286,80.638 45.7857143,79.84 46.9428571,79.84 L48.1428571,79.84 C49.3,79.84 50.1571429,80.68 50.1571429,81.772 L50.1571429,84.04 C50.1571429,84.292 50.3285714,84.46 50.5857143,84.46 C50.8428571,84.46 51.0142857,84.292 51.0142857,84.04 L51.0142857,81.772 C51.0142857,80.176 49.7714286,79 48.1428571,79 L46.9428571,79 C45.3571429,79 44.1142857,80.176 44.1142857,81.772 L44.1142857,84.04 C44.1142857,84.292 44.2857143,84.46 44.5428571,84.46 L44.5428571,84.46 Z M47.5428571,90.34 C47.2857143,90.34 47.1142857,90.508 47.1142857,90.76 L47.1142857,93.7 C47.1142857,93.952 47.2857143,94.12 47.5428571,94.12 C47.8,94.12 47.9714286,93.952 47.9714286,93.7 L47.9714286,90.76 C47.9714286,90.55 47.7571429,90.34 47.5428571,90.34 L47.5428571,90.34 Z"/>
      </g>
    </g>
    <g transform="translate(120 52)">
      <path fill="#207BA4" d="M152.816383,154.075109 L187.555378,134.44406 L121.048833,96.1570206 L102.470435,106.482081 L97.0055802,103.336028 L0,159.55341 L67.5543787,197.955369 L108.357466,174.001786 L112.942232,176.608041 L124.378412,170.145442 L141.30646,179.768359 L168.651855,163.066162 L152.816383,154.075109 Z"/>
      <g transform="matrix(-1 0 0 1 179.48 0)">
        <polygon fill="#A33F40" points="113.592 188.897 113.592 148.403 165.222 120.159 165.207 158.182"/>
        <polygon fill="#A33F40" points="66.553 171.629 66.553 99.101 139.15 58.797 139.15 137.201"/>
        <polygon fill="#EC6D54" points="113.948 148.815 113.747 188.999 74.84 165.892 74.84 110.573"/>
        <polyline fill="#EC6D54" points="2.709 62.846 30.345 41.733 67.019 100.145 66.817 171.571 2.709 134.764 2.709 62.846"/>
        <polygon fill="#5B5E67" points="128.843 78.717 165.994 118.572 114.131 148.552 75.2 109.907"/>
        <polyline stroke="#FFFFFF" stroke-width="1.446" points="74.84 110.185 114.043 148.526 166.96 118.466" stroke-linecap="round" stroke-linejoin="round"/>
        <polyline fill="#ECF0F3" points="79.186 168.583 79.186 135.455 107.864 152.341 107.864 185.462"/>
        <polyline stroke="#868C96" stroke-width=".5" points="79.186 168.677 79.186 135.455 107.864 152.341 107.864 185.384"/>
        <polygon fill="#634E42" points="36.602 124.516 48.769 131.385 48.635 155.015 36.602 147.853"/>
        <polygon stroke="#ECF0F3" stroke-width=".5" points="36.602 124.516 48.769 131.385 48.635 155.015 36.602 147.853"/>
        <polyline fill="#5B5E67" points="66.996 98.468 29.887 41.937 103.486 0 142.864 55.915 66.996 98.468"/>
        <polyline stroke="#FFFFFF" stroke-width="1.446" points="0 65.323 29.917 42.604 66.641 99.245 143.394 56.298" stroke-linecap="round" stroke-linejoin="round"/>
        <polygon fill="#FFFFFF" points="66.959 114.957 2.539 78.001 2.539 73 66.959 109.528"/>
        <polygon fill="#868C96" points="41.776 164.949 41.816 168.474 21.828 156.811 21.828 152.789"/>
        <polyline fill="#868C96" points="17.578 158.889 37.526 171.048 37.566 174.574 17.578 162.493 17.578 158.889"/>
        <polygon fill="#4DC1EB" points="18.352 137.587 7.923 131.3 7.923 112.316 18.352 118.604"/>
        <polygon stroke="#ECF0F3" stroke-width=".5" points="18.352 137.587 7.923 131.3 7.923 112.316 18.352 118.604"/>
        <polygon fill="#B8BEC6" points="34.579 145.854 54.711 157.564 41.615 164.903 21.782 152.85"/>
        <polyline fill="#B8BEC6" points="17.518 158.914 21.935 156.789 41.816 168.502 37.53 171.088"/>
        <polyline fill="#5B5E67" points="41.686 164.788 41.686 168.49 37.493 171.021 37.471 174.574 54.731 164.788 54.731 157.554"/>
        <polyline fill="#FFFFFF" points="43.545 163.333 41.816 164.374 40.078 163.333 40.078 134.242 41.812 134.893 43.545 134.159"/>
        <polyline fill="#FFFFFF" points="26.961 153.405 25.304 154.455 23.566 153.405 23.566 121.03 26.961 124.189"/>
        <polyline fill="#ECECEC" points="27.042 153.715 25.304 154.475 25.304 122.192 27.042 121.03"/>
        <polyline fill="#ECECEC" points="43.554 163.352 41.816 164.384 41.816 131.905 43.554 130.744 43.554 163.568"/>
        <polygon fill="#5B5E67" points="41.004 134.945 27.264 123.436 48.71 111.928 60.901 124.151"/>
        <polyline fill="#868C96" points="33.87 114.962 17.483 123.256 27.869 123.182 48.769 111.928 33.87 114.962"/>
        <polyline stroke="#FFFFFF" stroke-width=".964" points="17.483 123.719 27.883 123.644 41.031 134.972 60.776 124.309" stroke-linecap="round" stroke-linejoin="round"/>
        <polygon fill="#4DC1EB" points="18.352 110.573 7.923 104.286 7.923 85.303 18.352 91.59"/>
        <polygon stroke="#ECF0F3" stroke-width=".5" points="18.352 110.573 7.923 104.286 7.923 85.303 18.352 91.59"/>
        <polygon fill="#4DC1EB" points="28.781 115.802 22.697 112.55 22.697 94.017 28.781 97.269"/>
        <polygon stroke="#ECF0F3" stroke-width=".5" points="28.781 115.802 22.697 112.55 22.697 94.017 28.781 97.269"/>
        <polygon fill="#4DC1EB" points="32.257 83.56 21.828 77.273 21.828 58.289 32.257 64.576"/>
        <polygon stroke="#ECF0F3" stroke-width=".5" points="32.257 83.56 21.828 77.273 21.828 58.289 32.257 64.576"/>
        <g fill="#6597D0" stroke="#3C3C3B" stroke-width=".5" transform="rotate(-3 596.052 -876.897)" stroke-linecap="round" stroke-linejoin="round">
          <polygon points="27.589 47.236 13.368 54.323 .05 31.209 14.359 24.236 27.625 46.558"/>
          <polygon points="44.573 39.092 30.352 46.18 17.033 23.065 31.343 16.092 44.608 38.414"/>
          <polygon points="61.504 30.947 47.283 38.034 33.965 14.92 48.274 7.947 61.54 30.269"/>
          <polygon points="78.535 23.015 64.314 30.102 50.995 6.988 65.305 .015 78.57 22.337"/>
        </g>
      </g>
    </g>
  </g>
</svg>
