<svg xmlns="http://www.w3.org/2000/svg" width="188" height="199" viewBox="0 0 188 199">
  <g fill="none" fill-rule="evenodd">
    <path fill="#DBD9DB" d="M152.669392,155.267817 L187.691406,135.530161 L121.31531,97.4211837 L102.773353,107.698225 L97.3192164,104.566803 L0.50390658,160.522735 L67.9257816,198.746097 L108.648836,174.903915 L113.224609,177.49805 L124.638358,171.065506 L141.533203,180.64367 L168.746094,164.498047 L152.669392,155.267817 Z" style="mix-blend-mode:multiply"/>
    <g transform="matrix(-1 0 0 1 183 .75)">
      <polyline fill="#A33F40" points="168.251 158.407 116.224 188.214 116.238 150.367 168.265 120.561 168.251 158.407"/>
      <polyline fill="#A33F40" points="142.245 137.525 68.52 170.867 68.533 100.099 135.482 62.449 142.245 137.525"/>
      <polyline fill="#EC6D54" points="78.061 111.02 117.092 149.085 116.891 189.082 78.061 166.082 78.061 111.02"/>
      <polyline fill="#EC6D54" points="6.071 63.516 33.653 42.5 70.255 100.64 70.053 171.735 6.071 135.098 6.071 63.516"/>
      <polyline fill="#5B5E67" points="78.061 109.974 131.599 78.929 167.398 117.712 115.294 147.449 78.061 109.974"/>
      <polyline stroke="#FFFFFF" stroke-width="3" points="78.061 110.153 117.187 148.316 170 118.396" stroke-linecap="round" stroke-linejoin="round"/>
      <polyline fill="#ECF0F3" points="82.398 167.643 82.398 135.306 111.02 152.113 110.884 184.745"/>
      <polyline stroke="#868C96" points="82.398 167.643 82.398 135.306 111.02 152.113 110.884 184.745"/>
      <polygon fill="#634E42" points="39.898 124.898 52.041 131.735 51.907 155.255 39.898 148.127"/>
      <polygon stroke="#ECF0F3" points="39.898 124.898 52.041 131.735 51.907 155.255 39.898 148.127"/>
      <polyline fill="#5B5E67" points="66.526 98.01 29.49 41.741 102.945 0 142.245 55.655 66.526 98.01"/>
      <polyline stroke="#FFFFFF" stroke-width="3" points="0 65.98 29.858 43.367 66.51 99.745 143.112 56.997" stroke-linecap="round" stroke-linejoin="round"/>
      <polyline fill="#FFFFFF" points="69.233 109.98 69.388 115.357 5.204 78.641 5.359 73.724 69.233 109.98"/>
      <polyline fill="#868C96" points="25.153 153.52 45.062 165.623 45.102 169.133 25.153 157.107 25.153 153.52"/>
      <polyline fill="#868C96" points="19.949 159.592 39.858 171.695 39.898 175.204 19.949 163.18 19.949 159.592"/>
      <polyline fill="#B8BEC6" points="25.153 153.268 38.054 145.714 58.112 157.272 45.144 164.796 25.153 153.268"/>
      <polyline fill="#B8BEC6" points="19.949 159.596 24.156 156.99 45.102 169.161 40.824 171.735 19.949 159.596"/>
      <polyline fill="#5B5E67" points="58.112 157.857 44.865 165.61 44.972 169.148 40.788 171.667 40.765 175.204 57.992 165.464 58.112 157.857"/>
      <polyline fill="#FFFFFF" points="45.102 164.796 43.367 163.534 43.367 130.102 45.102 131.362 45.102 164.796"/>
      <polyline fill="#FFFFFF" points="28.622 155.255 26.888 154.1 26.888 121.429 28.622 122.585 28.622 155.255"/>
      <polyline fill="#ECECEC" points="30.357 154.1 28.622 155.255 28.622 122.585 30.357 121.429 30.357 154.1"/>
      <polyline fill="#ECECEC" points="46.837 162.773 45.102 163.929 45.102 131.257 46.837 130.102 46.837 162.773"/>
      <polyline fill="#5B5E67" points="64.184 124.07 43.907 136.173 31.224 123.991 51.501 111.888 64.184 124.07"/>
      <polyline fill="#868C96" points="37.171 114.908 20.816 123.163 31.182 123.09 52.041 111.888 37.171 114.908"/>
      <polyline stroke="#FFFFFF" stroke-width="2" points="20.816 124.105 31.196 124.031 44.318 135.306 65.051 124.031" stroke-linecap="round" stroke-linejoin="round"/>
      <polygon fill="#4DC1EB" points="21.684 137.908 11.276 131.651 11.276 112.755 21.684 119.014"/>
      <polygon stroke="#ECF0F3" stroke-width=".456" points="21.684 137.908 11.276 131.651 11.276 112.755 21.684 119.014"/>
      <polygon fill="#4DC1EB" points="21.684 111.02 11.276 104.763 11.276 85.867 21.684 92.125"/>
      <polygon stroke="#ECF0F3" stroke-width=".456" points="21.684 111.02 11.276 104.763 11.276 85.867 21.684 92.125"/>
      <polygon fill="#4DC1EB" points="32.092 116.224 26.02 112.988 26.02 94.541 32.092 97.778"/>
      <polygon stroke="#ECF0F3" stroke-width=".456" points="32.092 116.224 26.02 112.988 26.02 94.541 32.092 97.778"/>
      <polygon fill="#4DC1EB" points="35.561 84.133 25.153 77.875 25.153 58.98 35.561 65.237"/>
      <polygon stroke="#ECF0F3" stroke-width=".456" points="35.561 84.133 25.153 77.875 25.153 58.98 35.561 65.237"/>
      <polygon fill="#6597D0" points="79.796 78.596 66.148 85.867 52.908 63.649 66.556 56.378"/>
      <polygon stroke="#3C3C3B" points="79.796 78.596 66.148 85.867 52.908 63.649 66.556 56.378" stroke-linecap="round" stroke-linejoin="round"/>
      <polygon fill="#6597D0" points="95.408 69.922 81.76 77.194 68.52 54.976 82.167 47.704"/>
      <polygon stroke="#3C3C3B" points="95.408 69.922 81.76 77.194 68.52 54.976 82.167 47.704" stroke-linecap="round" stroke-linejoin="round"/>
      <polygon fill="#6597D0" points="111.888 61.249 98.241 68.52 85 46.302 98.648 39.031"/>
      <polygon stroke="#3C3C3B" points="111.888 61.249 98.241 68.52 85 46.302 98.648 39.031" stroke-linecap="round" stroke-linejoin="round"/>
      <polygon fill="#6597D0" points="128.367 52.575 114.719 59.847 101.48 37.629 115.128 30.357"/>
      <polygon stroke="#3C3C3B" points="128.367 52.575 114.719 59.847 101.48 37.629 115.128 30.357" stroke-linecap="round" stroke-linejoin="round"/>
    </g>
  </g>
</svg>
