<svg xmlns="http://www.w3.org/2000/svg" width="1118" height="293" viewBox="0 0 1118 293">
  <path fill="#2691BF" fill-rule="evenodd" d="M1122.00199,214.313 L1104.66366,88.5468332 C1104.66366,88.5468332 1077.99262,79.6002243 1062.8588,79.0290242 C1047.72498,78.4578241 1036.32205,87.5732052 1032.31893,86.5160709 C1028.64106,90.0776446 1024.96498,93.6392184 1021.29069,97.2007922 C1022.29163,92.8431795 1015.5053,89.83702 1011.21863,91.9004584 C1006.93016,93.9638968 1005.06974,98.6362993 1003.8987,102.959302 C998.849235,97.0541101 993.801564,91.1505667 988.753892,85.2453752 C981.917423,87.6845835 976.029965,92.3174312 972.352095,98.153402 C972.228544,91.2197875 961.510077,86.8671191 955.86614,91.458764 C957.526016,83.2346764 943.108191,77.505833 937.747167,84.2614513 C928.455799,76.6784799 911.251818,80.9437983 907.355496,91.7966273 C909.022534,85.9754895 903.654348,80.040632 897.406982,78.2606691 C891.159616,76.4790582 884.423419,77.7184397 878.025644,78.9677099 C872.152511,80.1147971 866.277588,81.2635324 860.404455,82.4089714 C857.971044,79.0484675 852.661947,74.9380718 847.44417,78.476572 C840.201236,82.9116461 841.327517,84.7146825 841.48867,92.7212191 C833.980729,90.9297194 832.25102,91.8773848 824.74487,90.0875333 C818.359629,92.459169 814.329012,95.4059964 809.39952,99.8278855 C806.314335,102.596717 796.011284,103.585585 793.710377,106.9362 C790.884827,111.046596 788.712842,115.532761 787.341251,120.236478 C785.641982,116.750717 774.805336,118.87184 773.106067,115.386079 C769.186467,115.412449 765.438763,117.963729 764.262346,121.404991 C755.629915,116.861141 750.870529,138.036106 742.239889,133.490609 C720.935458,143.994038 706.420942,125.793917 688.858842,141.078524 C683.059124,133.13956 667.054837,135.646341 664.435205,144.903796 C654.649635,144.707671 648.95377,135.089279 643.891774,127.379403 C638.827988,119.671175 628.401387,111.97778 620.306133,117.039137 C623.400271,107.196602 616.01409,108.231617 605.453195,104.98813 C598.362462,99.7685534 587.545512,106.598337 590.220652,118.324666 C571.16162,112.724376 549.309269,115.913476 533.068625,126.667418 C529.061286,133.724641 525.057528,140.781864 521.05198,147.839087 C517.751924,143.049668 509.615486,141.914118 504.922352,145.589412 C500.229218,149.266353 500.143269,156.839436 504.754037,160.605376 C499.727853,156.989414 495.580848,164.639958 490.556455,161.023997 C484.398618,168.068035 477.363393,163.843919 471.205556,170.887958 C461.597255,155.639609 438.620413,149.005951 421.273185,156.46861 C421.586538,146.762869 412.744608,137.554857 402.241011,136.650043 C404.6977,129.116515 396.894312,120.449085 388.396175,121.271493 C379.898039,122.09555 374.225452,132.066638 378.331273,138.965642 C373.650673,128.402882 355.891609,128.073259 346.96194,135.982557 C338.032272,143.891854 335.964141,156.221393 335.450242,167.6181 C329.389097,164.672921 320.812175,169.841405 321.320702,176.132255 C316.933758,170.054012 308.867154,166.398496 300.958121,166.904467 C298.533663,171.336244 297.82459,176.542636 298.988473,181.386442 C300.145194,174.124853 295.144078,166.42981 287.64509,163.932918 C280.147893,161.436025 270.953217,164.405926 266.795469,170.668758 C258.445951,166.774266 250.585264,161.99144 243.422907,156.447185 C237.211353,158.555122 232.353485,163.751625 231.014124,169.719445 C228.646965,162.492466 222.469432,156.410926 214.793176,153.749223 C211.00787,158.022782 207.222564,162.296341 203.439049,166.5699 C203.039748,160.397714 196.436055,155.164952 189.744623,155.718719 C183.0514,156.272485 177.568616,162.505651 178.37259,168.646523 C172.01958,155.875289 154.369741,148.976285 139.975194,153.638799 C137.156807,160.08622 134.338419,166.533641 131.520032,172.981062 C120.631459,169.856238 107.647896,175.449936 103.28244,185.149086 C98.2705802,182.037447 93.2587209,178.922512 88.2486522,175.810873 C89.901366,185.104587 87.6917789,194.937233 82.1660205,202.863012 C81.8669921,192.737001 64.8384883,187.608071 58.0951292,195.611312 C56.6590766,189.185316 51.8656692,183.469658 45.4750561,180.560737 C41.369235,185.243028 37.2616232,189.923671 33.1540115,194.604314 C31.3938623,188.918322 22.018337,188.288742 17.2338825,192.234327 C12.4512186,196.179911 11.1226014,202.48065 10.0643631,208.310028 L-0.0220261373,195.136655 C-2.31756156,201.653297 -4.61488757,208.16829 -6.91042299,214.68658 L14.9018575,372.905246 L1122.00199,214.313 Z" transform="rotate(8 557.546 225.012)"/>
</svg>
