<svg xmlns="http://www.w3.org/2000/svg" width="1120" height="100" viewBox="0 0 1120 100">
  <path fill="#2691BF" fill-rule="evenodd" d="M1126.17625,127.312036 L1102.92486,-38.1301905 C1102.92486,-38.1301905 1095.25433,-23.5555316 1087.69813,-20.2541779 C1080.14192,-16.9528243 1079.26907,-27.4910945 1065.14217,-22.9522937 C1053.61535,-18.7743913 1047.07544,-7.57825886 1043.36577,-4.01668507 C1044.37635,-8.3742978 1037.52465,-11.3804573 1033.19669,-9.31701886 C1028.86693,-7.25358046 1026.98859,-2.58117801 1025.80627,1.74182433 C1020.70817,-4.16336719 1022.55794,-15.8082213 1010.5156,-15.9721021 C998.47325,-16.1359829 984.519955,4.51189662 980.806662,10.3478674 C980.681922,3.41425286 967.101544,-3.81875288 961.403248,0.772891998 C953.514765,-14.8270175 943.502941,-5.98378501 938.090283,0.771833211 C928.709428,-6.8111381 919.117911,-6.8617363 915.184062,3.99109267 C916.867156,-1.83004505 911.447267,-7.76490263 905.139731,-9.54486547 C898.832195,-11.3264764 892.03112,-10.0870949 885.571725,-8.83782467 C879.642027,-7.69073751 873.71052,-6.54200224 867.780822,-5.39656319 C865.323974,-8.7570671 859.963743,-12.8674628 854.695712,-9.32896257 C847.38302,-4.8938885 848.520148,-3.09085206 848.682853,4.91568448 C841.102601,3.12418485 839.356233,4.07185025 831.777789,2.28199873 C825.331049,4.6536344 821.15355,17.2062193 821.15355,17.2062193 C821.15355,17.2062193 811.691802,11.4070341 802.401038,16.6189457 C793.110273,21.8308574 795.398726,27.7272267 794.013925,32.4309434 C792.298289,28.9451828 787.039538,23.7997626 774.130404,27.0923738 C761.221271,30.3849849 768.699757,33.6120223 757.610326,41.7160669 C736.393029,30.2990917 739.667994,53.0665388 730.95423,48.5210411 C722.240465,43.9755434 712.314248,37.9883829 694.583003,53.2729897 C688.727425,45.3340258 672.568997,47.8408068 669.924134,57.0982617 C660.044316,56.9021362 663.202722,45.9502871 649.182844,39.5738683 C635.162966,33.1974495 619.645959,38.961043 619.645959,38.961043 C619.645959,38.961043 611.624277,21.837883 600.961667,18.5943952 C593.80264,13.374819 578.7344,18.4290667 581.435305,30.155396 C562.19271,24.5551055 563.933161,23.0855638 547.536098,33.839506 C543.490164,40.896729 536.429412,48.9314716 532.385286,55.9886946 C529.053446,51.1992761 517.446948,50.3148133 512.708613,53.990107 C507.970277,57.6670487 504.049854,69.0339014 508.705029,72.7998413 C503.630437,69.1838798 496.556446,64.299975 485.498208,67.6569836 C474.43997,71.0139921 481.050578,76.0383848 474.833434,83.0824229 C465.132592,67.8340746 441.934454,61.2004168 424.420149,68.6630758 C424.73652,58.957334 415.809431,49.7493225 405.204671,48.8445081 C407.685021,41.3109802 399.806476,32.64355 391.226491,33.4659588 C382.646507,34.2900157 376.919285,44.2611038 381.064651,51.1601079 C376.33897,40.5973469 358.408863,40.2677242 349.393191,48.177022 C340.377518,56.0863199 338.289468,68.4158587 337.77062,79.8125653 C331.651098,76.867386 322.991569,82.0358707 323.504994,88.3267208 C319.075799,82.2484774 316.520633,78.3380631 308.535426,78.8440341 C300.550219,79.350005 299.118311,80.1548979 296.34413,84.398152 C291.027621,78.6534532 291.318327,78.3979128 283.747114,75.9010205 C276.17771,73.4041282 272.652405,76.6003916 268.454612,82.8632238 C260.024678,78.968731 252.088283,74.185905 244.856943,68.6416503 C238.585563,70.7495878 233.680907,75.9460904 232.328647,81.9139103 C229.938689,74.6869315 223.701658,68.6053918 215.95147,65.9436881 C212.129707,70.2172471 208.307944,74.490806 204.487988,78.7643649 C204.084841,72.592179 197.417546,67.3594178 190.661667,67.9131841 C183.90398,68.4669503 178.368389,74.7001164 179.180107,80.8409882 C172.765909,68.0697549 154.94608,61.1707508 140.412895,65.8332645 C125.411173,70.8238655 134.72183,78.7281064 131.876298,85.1755274 C113.186593,83.1725669 110.03293,99.1014524 110.03293,99.1014524 C110.03293,99.1014524 96.6040576,92.2154959 88.2949305,95.0942343 C79.9858033,97.9729727 82.0469434,115.057478 82.0469434,115.057478 C82.0469434,115.057478 64.5525246,99.8025368 57.7442182,107.805777 C56.2943346,101.379782 51.4547604,95.6641232 45.0025975,92.7552025 C40.857232,97.4374936 36.7100586,102.118137 32.5628853,106.79878 C30.7857835,101.112787 21.3199598,100.483208 16.4894248,104.428792 C11.6606976,108.374376 10.3192841,114.675115 9.25085367,120.504493 C9.25085367,120.504493 5.51452131,103.990145 -0.932680573,107.33112 C-7.37988246,110.672096 -6.17537914,117.743683 -6.17537914,117.743683 L17.0760095,283.185909 L1126.17625,127.312036 Z" transform="rotate(8 559.956 122.528)"/>
</svg>
