<svg xmlns="http://www.w3.org/2000/svg" width="1118" height="293" viewBox="0 0 1118 293">
  <path fill="#2691BF" fill-rule="evenodd" d="M1122.54357,214.243944 L1104.90939,88.7702327 C1104.90939,88.7702327 1078.20377,79.5776072 1063.06995,79.0064071 C1047.93613,78.435207 1036.5332,87.5505881 1032.53008,86.4934537 C1028.85221,90.0550275 1025.17613,93.6166013 1021.50184,97.1781751 C1022.50278,92.8205624 1015.71645,89.8144029 1011.42978,91.8778413 C1007.14132,93.9412797 1005.2809,98.6136822 1004.10985,102.936685 C999.06039,97.031493 994.012719,91.1279496 988.965047,85.222758 C982.128578,87.6619664 976.24112,92.2948141 972.56325,98.1307848 C972.439699,91.1971703 961.721232,86.844502 956.077295,91.4361468 C957.737171,83.2120593 943.319346,77.4832159 937.958322,84.2388341 C928.666954,76.6558628 911.462973,80.9211812 907.566651,91.7740102 C909.233689,85.9528724 903.865503,80.0180148 897.618137,78.238052 C891.370771,76.4564411 884.634574,77.6958226 878.236799,78.9450928 C872.363666,80.09218 866.488743,81.2409152 860.61561,82.3863543 C858.182199,79.0258504 852.873102,74.9154547 847.655325,78.4539549 C840.412391,82.889029 841.538672,84.6920654 841.699825,92.698602 C834.191884,90.9071023 832.462175,91.8547677 824.956025,90.0649162 C818.570784,92.4365519 814.540167,95.3833792 809.610675,99.8052684 C806.52549,102.574099 796.222439,103.562968 793.921532,106.913583 C791.095982,111.023979 788.923997,115.510144 787.552406,120.213861 C785.853137,116.7281 775.016491,118.849223 773.317222,115.363462 C769.397622,115.389832 765.649918,117.941112 764.473501,121.382373 C755.84107,116.838524 751.081684,138.013489 742.451044,133.467992 C721.146613,143.97142 706.632097,125.7713 689.069997,141.055907 C683.270279,133.116943 667.265992,135.623724 664.64636,144.881179 C654.86079,144.685054 649.164925,135.066662 644.102929,127.356786 C639.039143,119.648558 628.612542,111.955163 620.517288,117.01652 C623.611426,107.173985 616.225245,108.209 605.66435,104.965513 C598.573617,99.7459363 587.756667,106.57572 590.431807,118.302049 C571.372775,112.701758 549.520424,115.890859 533.27978,126.644801 C529.272441,133.702024 525.268683,140.759247 521.263135,147.81647 C517.963079,143.027051 509.826642,141.891501 505.133507,145.566794 C500.440373,149.243736 500.354424,156.816819 504.965192,160.582759 C499.939008,156.966797 495.792003,164.617341 490.76761,161.00138 C484.609773,168.045418 477.574548,163.821302 471.416711,170.86534 C461.80841,155.616992 438.831568,148.983334 421.48434,156.445993 C421.797693,146.740251 412.955763,137.53224 402.452166,136.627426 C404.908855,129.093898 397.105467,120.426468 388.60733,121.248876 C380.109194,122.072933 374.436607,132.044021 378.542428,138.943025 C373.861828,128.380264 356.102764,128.050642 347.173095,135.95994 C338.243427,143.869237 336.175296,156.198776 335.661397,167.595483 C329.600252,164.650303 321.02333,169.818788 321.531857,176.109638 C317.144913,170.031395 314.614123,166.120981 306.70509,166.626952 C298.796057,167.132922 297.377809,167.937815 294.630092,172.181069 C289.364299,166.436371 289.652232,166.18083 282.153244,163.683938 C274.656047,161.187046 271.164372,164.383309 267.006624,170.646141 C258.657106,166.751649 250.796419,161.968822 243.634062,156.424568 C237.422508,158.532505 232.56464,163.729008 231.225279,169.696828 C228.85812,162.469849 222.680587,156.388309 215.004331,153.726606 C211.219025,158.000165 207.433719,162.273723 203.650204,166.547282 C203.250903,160.375096 196.64721,155.142335 189.955778,155.696102 C183.262555,156.249868 177.779771,162.483034 178.583745,168.623906 C172.230735,155.852672 154.580896,148.953668 140.186349,153.616182 C137.367962,160.063603 134.549575,166.511024 131.731187,172.958445 C120.842614,169.833621 107.859051,175.427319 103.493595,185.126469 C98.4817352,182.01483 93.4698759,178.899895 88.4598072,175.788256 C90.1125211,185.08197 87.9029339,194.914616 82.3771755,202.840395 C82.0781471,192.714384 65.0496433,187.585454 58.3062842,195.588695 C56.8702316,189.162699 52.0768242,183.447041 45.6862112,180.53812 C41.58039,185.220411 37.4727783,189.901054 33.3651665,194.581697 C31.6050173,188.895705 22.229492,188.266125 17.4450375,192.21171 C12.6623736,196.157294 11.3337564,202.458033 10.2755181,208.287411 C10.2755181,208.287411 6.57482821,191.773063 0.189128886,195.114038 C-6.19657044,198.455013 -8.30777221,203.361003 -7.34097288,210.240137 L15.0957321,369.885588 L1122.54357,214.243944 Z" transform="rotate(8 557.49 223.49)"/>
</svg>
