<svg xmlns="http://www.w3.org/2000/svg" width="335" height="272" viewBox="0 0 335 272">
  <g fill="none" fill-rule="evenodd">
    <path fill="#2591BF" d="M103.744155,75.3010942 C102.542756,75.3010942 101.56883,74.3271682 101.56883,73.1257695 C101.56883,71.9243709 102.542756,70.9504449 103.744155,70.9504449 C104.945554,70.9504449 105.91948,71.9243709 105.91948,73.1257695 C105.91948,74.3271682 104.945554,75.3010942 103.744155,75.3010942 Z M114.620778,75.3010942 C113.41938,75.3010942 112.445454,74.3271682 112.445454,73.1257695 C112.445454,71.9243709 113.41938,70.9504449 114.620778,70.9504449 C115.822177,70.9504449 116.796103,71.9243709 116.796103,73.1257695 C116.796103,74.3271682 115.822177,75.3010942 114.620778,75.3010942 Z M125.497402,75.3010942 C124.296003,75.3010942 123.322077,74.3271682 123.322077,73.1257695 C123.322077,71.9243709 124.296003,70.9504449 125.497402,70.9504449 C126.698801,70.9504449 127.672727,71.9243709 127.672727,73.1257695 C127.672727,74.3271682 126.698801,75.3010942 125.497402,75.3010942 Z M136.374025,75.3010942 C135.172627,75.3010942 134.198701,74.3271682 134.198701,73.1257695 C134.198701,71.9243709 135.172627,70.9504449 136.374025,70.9504449 C137.575424,70.9504449 138.54935,71.9243709 138.54935,73.1257695 C138.54935,74.3271682 137.575424,75.3010942 136.374025,75.3010942 Z M147.250649,75.3010942 C146.04925,75.3010942 145.075324,74.3271682 145.075324,73.1257695 C145.075324,71.9243709 146.04925,70.9504449 147.250649,70.9504449 C148.452047,70.9504449 149.425973,71.9243709 149.425973,73.1257695 C149.425973,74.3271682 148.452047,75.3010942 147.250649,75.3010942 Z M158.127272,75.3010942 C156.925873,75.3010942 155.951947,74.3271682 155.951947,73.1257695 C155.951947,71.9243709 156.925873,70.9504449 158.127272,70.9504449 C159.328671,70.9504449 160.302597,71.9243709 160.302597,73.1257695 C160.302597,74.3271682 159.328671,75.3010942 158.127272,75.3010942 Z" transform="scale(-1 1) rotate(-30 0 561.785)"/>
    <path fill="#1D1D1B" d="M74.6625917,0 L12.3374083,0 C5.31784841,0 0,5.20231214 0,12.0693642 L0,167.930636 C0,174.797688 5.31784841,180 12.3374083,180 L74.6625917,180 C81.6821516,180 87,174.797688 87,167.930636 L87,12.0693642 C87,5.20231214 81.6821516,0 74.6625917,0 L74.6625917,0 Z"/>
    <polygon fill="#FFFFFF" points="6.525 17.455 80.475 17.455 80.475 157.091 6.525 157.091"/>
    <g transform="translate(9.787 24.631)">
      <rect width="31.538" height="31.636" y="9.818" fill="#7BCAEC"/>
      <path fill="#FFFFFF" stroke="#FFFFFF" stroke-width=".545" d="M9.58611111,31.2727273 L8.61944444,32.2424242 C8.45833333,32.4040404 8.45833333,32.6464646 8.61944444,32.8080808 C8.78055556,32.969697 9.02222222,32.969697 9.18333333,32.8080808 L10.15,31.8383838 C10.3111111,31.6767677 10.3111111,31.4343434 10.15,31.2727273 C9.98888889,31.1111111 9.74722222,31.1111111 9.58611111,31.2727273 L9.58611111,31.2727273 Z M7.45138889,24.6868687 L5.84027778,24.6868687 C5.59861111,24.6868687 5.4375,24.8484848 5.4375,25.0909091 C5.4375,25.3333333 5.59861111,25.4949495 5.84027778,25.4949495 L7.45138889,25.4949495 C7.69305556,25.4949495 7.85416667,25.3333333 7.85416667,25.0909091 C7.85416667,24.8484848 7.69305556,24.6868687 7.45138889,24.6868687 L7.45138889,24.6868687 Z M16.3125,33.5757576 C16.0708333,33.5757576 15.9097222,33.7373737 15.9097222,33.979798 L15.9097222,35.5959596 C15.9097222,35.8383838 16.0708333,36 16.3125,36 C16.5541667,36 16.7152778,35.8383838 16.7152778,35.5959596 L16.7152778,33.979798 C16.7152778,33.7373737 16.5541667,33.5757576 16.3125,33.5757576 L16.3125,33.5757576 Z M9.58611111,18.9090909 C9.74722222,19.0707071 9.98888889,19.0707071 10.15,18.9090909 C10.3111111,18.7474747 10.3111111,18.5050505 10.15,18.3434343 L9.18333333,17.3737374 C9.02222222,17.2121212 8.78055556,17.2121212 8.61944444,17.3737374 C8.45833333,17.5353535 8.45833333,17.7777778 8.61944444,17.9393939 L9.58611111,18.9090909 L9.58611111,18.9090909 Z M26.7847222,24.6868687 L25.1736111,24.6868687 C24.9319444,24.6868687 24.7708333,24.8484848 24.7708333,25.0909091 C24.7708333,25.3333333 24.9319444,25.4949495 25.1736111,25.4949495 L26.7847222,25.4949495 C27.0263889,25.4949495 27.1875,25.3333333 27.1875,25.0909091 C27.1875,24.8484848 27.0263889,24.6868687 26.7847222,24.6868687 L26.7847222,24.6868687 Z M23.4416667,17.3737374 L22.475,18.3434343 C22.3138889,18.5050505 22.3138889,18.7474747 22.475,18.9090909 C22.6361111,19.0707071 22.8777778,19.0707071 23.0388889,18.9090909 L24.0055556,17.9393939 C24.1666667,17.7777778 24.1666667,17.5353535 24.0055556,17.3737374 C23.8444444,17.2121212 23.6027778,17.2121212 23.4416667,17.3737374 L23.4416667,17.3737374 Z M23.0388889,31.2727273 C22.8777778,31.1111111 22.6361111,31.1111111 22.475,31.2727273 C22.3138889,31.4343434 22.3138889,31.6767677 22.475,31.8383838 L23.4416667,32.8080808 C23.6027778,32.969697 23.8444444,32.969697 24.0055556,32.8080808 C24.1666667,32.6464646 24.1666667,32.4040404 24.0055556,32.2424242 L23.0388889,31.2727273 L23.0388889,31.2727273 Z M16.3125,16.6060606 C16.5541667,16.6060606 16.7152778,16.4444444 16.7152778,16.2020202 L16.7152778,14.5858586 C16.7152778,14.3434343 16.5541667,14.1818182 16.3125,14.1818182 C16.0708333,14.1818182 15.9097222,14.3434343 15.9097222,14.5858586 L15.9097222,16.2020202 C15.9097222,16.4444444 16.0708333,16.6060606 16.3125,16.6060606 L16.3125,16.6060606 Z M16.3125,17.8181818 C12.325,17.8181818 9.0625,21.0909091 9.0625,25.0909091 C9.0625,29.0909091 12.325,32.3636364 16.3125,32.3636364 C20.3,32.3636364 23.5625,29.0909091 23.5625,25.0909091 C23.5625,21.0909091 20.3,17.8181818 16.3125,17.8181818 L16.3125,17.8181818 Z M16.3125,31.5555556 C12.7680556,31.5555556 9.86805556,28.6464646 9.86805556,25.0909091 C9.86805556,21.5353535 12.7680556,18.6262626 16.3125,18.6262626 C19.8569444,18.6262626 22.7569444,21.5353535 22.7569444,25.0909091 C22.7569444,28.6464646 19.8569444,31.5555556 16.3125,31.5555556 L16.3125,31.5555556 Z"/>
      <rect width="35.888" height="4.364" x="16.313" fill="#D8D8D8"/>
      <rect width="31.538" height="31.636" y="45.818" fill="#7BCAEC"/>
      <path fill="#FFFFFF" stroke="#FFFFFF" stroke-width=".545" d="M16.3125,59.3413379 L15.9902778,59.7530017 C15.7888889,60 11.4791667,65.5986278 11.4791667,68.1921098 C11.4791667,70.9090909 13.6541667,73.0909091 16.3125,73.0909091 C18.9708333,73.0909091 21.1458333,70.9090909 21.1458333,68.1921098 C21.1458333,65.5986278 16.7958333,60 16.6347222,59.7530017 L16.3125,59.3413379 L16.3125,59.3413379 Z M16.3125,72.2675815 C14.0972222,72.2675815 12.2847222,70.4150943 12.2847222,68.1921098 C12.2847222,66.4219554 14.9430556,62.5111492 16.3125,60.6998285 C17.6819444,62.5111492 20.3402778,66.4219554 20.3402778,68.1921098 C20.3402778,70.4562607 18.5277778,72.2675815 16.3125,72.2675815 L16.3125,72.2675815 Z M23.8847222,52.0960549 L23.5625,51.6843911 L23.2402778,52.0960549 C22.9180556,52.5488851 19.9375,56.4185249 19.9375,58.3121784 C19.9375,60.329331 21.5486111,61.9759863 23.5625,61.9759863 C25.5763889,61.9759863 27.1875,60.329331 27.1875,58.3121784 C27.1875,56.3773585 24.2069444,52.5077187 23.8847222,52.0960549 L23.8847222,52.0960549 Z M23.5625,61.1526587 C21.9916667,61.1526587 20.7430556,59.8765009 20.7430556,58.3121784 C20.7430556,57.077187 22.5555556,54.4013722 23.5625,53.0428816 C24.5694444,54.4013722 26.3819444,57.077187 26.3819444,58.3121784 C26.3819444,59.8765009 25.1333333,61.1526587 23.5625,61.1526587 L23.5625,61.1526587 Z M12.6875,58.271012 C12.6875,56.3773585 9.70694444,52.5077187 9.38472222,52.0548885 L9.0625,51.6432247 L8.74027778,52.0548885 C8.41805556,52.5077187 5.4375,56.3773585 5.4375,58.271012 C5.4375,60.2881647 7.04861111,61.9348199 9.0625,61.9348199 C11.0763889,61.9348199 12.6875,60.329331 12.6875,58.271012 L12.6875,58.271012 Z M9.0625,61.1526587 C7.49166667,61.1526587 6.24305556,59.8765009 6.24305556,58.3121784 C6.24305556,57.077187 8.05555556,54.4013722 9.0625,53.0428816 C10.0694444,54.4013722 11.8819444,57.077187 11.8819444,58.3121784 C11.8819444,59.8765009 10.6333333,61.1526587 9.0625,61.1526587 L9.0625,61.1526587 Z"/>
      <rect width="31.538" height="31.636" y="81.818" fill="#7BCAEC"/>
      <path fill="#FFFFFF" stroke="#FFFFFF" stroke-width=".545" d="M25.21875,88.3636364 L6.31875,88.3636364 C5.1375,88.3636364 4.35,89.3106383 4.35,90.4943907 L4.35,100.753578 C4.35,101.937331 5.1375,102.96325 6.31875,102.96325 L15.76875,102.96325 L15.76875,105.330754 L11.4375,105.330754 C10.768125,105.330754 10.059375,105.804255 10.059375,106.514507 C10.059375,106.751257 10.216875,106.909091 10.453125,106.909091 C10.689375,106.909091 10.846875,106.751257 10.846875,106.514507 C10.846875,106.277756 11.20125,106.119923 11.4375,106.119923 L20.49375,106.119923 C20.73,106.119923 21.12375,106.277756 21.12375,106.514507 C21.12375,106.751257 21.28125,106.909091 21.5175,106.909091 C21.75375,106.909091 21.91125,106.751257 21.91125,106.514507 C21.91125,105.843714 21.163125,105.330754 20.49375,105.330754 L16.55625,105.330754 L16.55625,102.96325 L25.21875,102.96325 C26.4,102.96325 27.1875,101.937331 27.1875,100.753578 L27.1875,90.4943907 C27.1875,89.3106383 26.4,88.3636364 25.21875,88.3636364 L25.21875,88.3636364 Z M26.4,100.793037 C26.4,101.542747 25.966875,102.21354 25.21875,102.21354 L16.32,102.21354 C16.280625,102.174081 16.201875,102.174081 16.1625,102.174081 C16.123125,102.174081 16.044375,102.174081 16.005,102.21354 L6.31875,102.21354 C5.570625,102.21354 5.1375,101.542747 5.1375,100.793037 L5.1375,90.5338491 C5.1375,89.7841393 5.728125,89.1922631 6.515625,89.1922631 L25.06125,89.1922631 C25.809375,89.1922631 26.439375,89.7841393 26.439375,90.5338491 L26.439375,100.793037 L26.4,100.793037 Z"/>
      <rect width="67.425" height="10.909" y="117.818" fill="#E85740"/>
      <rect width="31.538" height="31.636" x="35.888" y="9.818" fill="#7BCAEC"/>
      <path fill="#FFFFFF" stroke="#FFFFFF" stroke-width=".545" d="M61.3190854,17.0341463 C61.1758537,16.8904656 60.8893902,16.7946785 60.3164634,16.7946785 C58.1202439,16.7946785 51.9612805,17.6567627 49.8128049,19.7640798 C47.7598171,21.8235033 46.6139634,28.768071 46.9004268,30.7796009 L42.4602439,35.2337029 L43.1286585,35.9042129 L47.5688415,31.4501109 C47.7120732,31.4501109 47.9030488,31.4980044 48.0940244,31.4980044 C50.2902439,31.4980044 56.4492073,30.6359202 58.5976829,28.5286031 C59.9822561,27.1396896 60.7461585,24.2660754 61.1281098,22.0629712 C61.0803659,22.0629712 61.8920122,17.6567627 61.3190854,17.0341463 L61.3190854,17.0341463 Z M57.8815244,27.9059867 C55.9717683,29.8217295 50.0992683,30.6359202 48.0462805,30.6359202 L47.7598171,30.6359202 C47.6643293,29.1991131 48.4759756,22.5419069 50.4812195,20.5303769 C52.3909756,18.6146341 58.2634756,17.8004435 60.3164634,17.8004435 L60.6029268,17.8004435 C60.6506707,19.2372506 59.8867683,25.8944568 57.8815244,27.9059867 L57.8815244,27.9059867 Z"/>
      <rect width="31.538" height="31.636" x="35.888" y="45.818" fill="#7BCAEC"/>
      <path fill="#FFFFFF" stroke="#FFFFFF" stroke-width=".545" d="M60.3455882,70.8 C59.7911765,70.0502479 59.7058824,69.0089256 60.0470588,67.7593388 C60.4308824,66.3431405 60.3029412,65.1768595 59.6205882,64.2604959 C58.725,63.052562 57.1470588,62.5943802 56.2088235,62.4277686 C57.7867647,59.7203306 56.2941176,55.2218182 53.7352941,53.0558678 C53.0955882,52.5143802 52.4985294,52.2644628 51.9867647,52.2644628 C51.1338235,52.2644628 50.5367647,52.8892562 49.9397059,53.7639669 L45.675,50.1818182 L45.1205882,50.8066116 L49.4705882,54.4304132 C49.4705882,54.4720661 49.4279412,54.513719 49.4279412,54.513719 C49.0441176,55.1385124 48.575,55.8466116 48.0205882,56.5130579 C47.4661765,57.1795041 46.8264706,57.7209917 46.3147059,58.2208264 C46.2720588,58.2624793 46.2720588,58.2624793 46.2294118,58.3041322 L41.8794118,54.6803306 L41.325,55.305124 L45.5897059,58.8872727 C44.9073529,59.5120661 44.4382353,60.1368595 44.4382353,60.8866116 C44.4382353,61.511405 44.8220588,62.0945455 45.5470588,62.677686 C47.0397059,63.8856198 49.3426471,64.6770248 51.4323529,64.6770248 L51.4323529,64.6770248 C53.1808824,64.6770248 54.6308824,64.1355372 55.6117647,63.1775207 C56.1661765,63.2191736 58,63.5107438 58.8955882,64.7186777 C59.4073529,65.4267769 59.5352941,66.3847934 59.1941176,67.5094215 C58.7676471,69.0089256 58.8955882,70.3001653 59.6205882,71.2581818 C60.7294118,72.8409917 62.8617647,73.0492562 62.9897059,73.0909091 L63.075,72.2578512 C63.075,72.2578512 61.2411765,72.0912397 60.3455882,70.8 L60.3455882,70.8 Z M55.1852941,62.4694215 C54.4176471,63.3857851 53.0955882,63.8856198 51.475,63.8856198 L51.475,63.8856198 C49.5558824,63.8856198 47.4661765,63.1775207 46.1014706,62.0528926 C45.5470588,61.5947107 45.2911765,61.2198347 45.2911765,60.8449587 C45.2911765,60.2618182 46.0161765,59.5953719 46.8691176,58.8456198 C47.4235294,58.3457851 48.1058824,57.7626446 48.6602941,57.0545455 C49.2573529,56.3464463 49.7264706,55.6383471 50.1102941,54.9719008 C50.7926471,53.8889256 51.3044118,53.0558678 51.9441176,53.0558678 C52.2852941,53.0558678 52.6691176,53.2641322 53.1382353,53.6390083 C55.6117647,55.7216529 57.0191176,60.2618182 55.1852941,62.4694215 L55.1852941,62.4694215 Z"/>
      <rect width="31.538" height="31.636" x="35.888" y="81.818" fill="#7BCAEC"/>
      <path fill="#FFFFFF" stroke="#FFFFFF" stroke-width=".545" d="M51.65625,92.6421818 C47.1819643,92.6421818 43.5,96.216 43.5,100.660364 C43.5,105.058909 47.1353571,108.678545 51.65625,108.678545 C56.1771429,108.678545 59.8125,105.104727 59.8125,100.660364 C59.8125,96.216 56.1771429,92.6421818 51.65625,92.6421818 L51.65625,92.6421818 Z M51.65625,107.716364 C47.6946429,107.716364 44.4321429,104.554909 44.4321429,100.614545 C44.4321429,96.72 47.6480357,93.5127273 51.65625,93.5127273 C55.6178571,93.5127273 58.8803571,96.6741818 58.8803571,100.614545 C58.8803571,104.554909 55.6644643,107.716364 51.65625,107.716364 L51.65625,107.716364 Z M48.4403571,92.1381818 C48.72,92.1381818 48.9064286,91.9549091 48.9064286,91.68 L48.9064286,89.2058182 C48.9064286,87.9687273 49.7919643,87.0981818 51.0503571,87.0981818 L52.3553571,87.0981818 C53.61375,87.0981818 54.5458929,88.0145455 54.5458929,89.2058182 L54.5458929,91.68 C54.5458929,91.9549091 54.7323214,92.1381818 55.0119643,92.1381818 C55.2916071,92.1381818 55.4780357,91.9549091 55.4780357,91.68 L55.4780357,89.2058182 C55.4780357,87.4647273 54.1264286,86.1818182 52.3553571,86.1818182 L51.0503571,86.1818182 C49.3258929,86.1818182 47.9742857,87.4647273 47.9742857,89.2058182 L47.9742857,91.68 C47.9742857,91.9549091 48.1607143,92.1381818 48.4403571,92.1381818 L48.4403571,92.1381818 Z M51.7028571,98.5527273 C51.4232143,98.5527273 51.2367857,98.736 51.2367857,99.0109091 L51.2367857,102.218182 C51.2367857,102.493091 51.4232143,102.676364 51.7028571,102.676364 C51.9825,102.676364 52.1689286,102.493091 52.1689286,102.218182 L52.1689286,99.0109091 C52.1689286,98.7818182 51.9358929,98.5527273 51.7028571,98.5527273 L51.7028571,98.5527273 Z"/>
    </g>
    <g transform="translate(130 56)">
      <path fill="#207BA4" d="M166.634885,168.081937 L204.515173,146.666247 L131.994738,104.898568 L111.736379,116.16227 L105.777361,112.730212 L0,174.058265 L73.6630193,215.951311 L118.155748,189.82013 L123.155093,192.663318 L135.625396,185.613209 L154.084172,196.110937 L183.902289,177.890359 L166.634885,168.081937 Z"/>
      <g transform="matrix(-1 0 0 1 195.71 0)">
        <polygon fill="#A33F40" points="123.864 206.069 123.864 161.895 180.162 131.082 180.146 172.562"/>
        <polygon fill="#A33F40" points="72.571 187.232 72.571 108.11 151.733 64.143 151.733 149.674"/>
        <polygon fill="#EC6D54" points="124.251 162.344 124.032 206.181 81.608 180.973 81.608 120.625"/>
        <polyline fill="#EC6D54" points="2.954 68.56 33.088 45.527 73.079 109.249 72.858 187.169 2.954 147.015 2.954 68.56"/>
        <polygon fill="#5B5E67" points="140.494 85.873 181.004 129.351 124.452 162.057 82 119.899"/>
        <polyline stroke="#FFFFFF" stroke-width="1.577" points="81.608 120.202 124.355 162.029 182.057 129.236" stroke-linecap="round" stroke-linejoin="round"/>
        <polyline fill="#ECF0F3" points="86.346 183.909 86.346 147.77 117.618 166.19 117.618 202.322"/>
        <polyline stroke="#868C96" stroke-width=".545" points="86.346 184.011 86.346 147.77 117.618 166.19 117.618 202.237"/>
        <polygon fill="#634E42" points="39.912 135.835 53.179 143.329 53.032 169.107 39.912 161.294"/>
        <polygon stroke="#ECF0F3" stroke-width=".545" points="39.912 135.835 53.179 143.329 53.032 169.107 39.912 161.294"/>
        <polyline fill="#5B5E67" points="73.054 107.42 32.59 45.749 112.844 0 155.782 60.998 73.054 107.42"/>
        <polyline stroke="#FFFFFF" stroke-width="1.577" points="0 71.261 32.622 46.477 72.667 108.267 156.36 61.416" stroke-linecap="round" stroke-linejoin="round"/>
        <polygon fill="#FFFFFF" points="73.013 125.408 2.769 85.092 2.769 79.636 73.013 119.485"/>
        <polygon fill="#868C96" points="45.554 179.944 45.598 183.79 23.802 171.067 23.802 166.679"/>
        <polyline fill="#868C96" points="19.167 173.333 40.919 186.598 40.963 190.444 19.167 177.265 19.167 173.333"/>
        <polygon fill="#4DC1EB" points="20.011 150.095 8.64 143.236 8.64 122.527 20.011 129.386"/>
        <polygon stroke="#ECF0F3" stroke-width=".545" points="20.011 150.095 8.64 143.236 8.64 122.527 20.011 129.386"/>
        <polygon fill="#B8BEC6" points="37.706 159.113 59.659 171.888 45.378 179.894 23.752 166.746"/>
        <polyline fill="#B8BEC6" points="19.102 173.361 23.919 171.043 45.598 183.821 40.924 186.642"/>
        <polyline fill="#5B5E67" points="45.456 179.769 45.456 183.807 40.884 186.568 40.859 190.444 59.68 179.769 59.68 171.877"/>
        <polyline fill="#FFFFFF" points="47.483 178.181 45.598 179.317 43.702 178.181 43.702 146.446 45.593 147.156 47.483 146.356"/>
        <polyline fill="#FFFFFF" points="29.399 167.351 27.593 168.496 25.697 167.351 25.697 132.033 29.399 135.478"/>
        <polyline fill="#ECECEC" points="29.488 167.689 27.593 168.519 27.593 133.3 29.488 132.033"/>
        <polyline fill="#ECECEC" points="47.493 178.202 45.598 179.328 45.598 143.896 47.493 142.63 47.493 178.438"/>
        <polygon fill="#5B5E67" points="44.712 147.212 29.729 134.658 53.114 122.103 66.408 135.438"/>
        <polyline fill="#868C96" points="36.933 125.413 19.064 134.461 30.389 134.38 53.179 122.103 36.933 125.413"/>
        <polyline stroke="#FFFFFF" stroke-width="1.051" points="19.064 134.966 30.405 134.885 44.741 147.243 66.272 135.61" stroke-linecap="round" stroke-linejoin="round"/>
        <polygon fill="#4DC1EB" points="20.011 120.625 8.64 113.767 8.64 93.057 20.011 99.916"/>
        <polygon stroke="#ECF0F3" stroke-width=".545" points="20.011 120.625 8.64 113.767 8.64 93.057 20.011 99.916"/>
        <polygon fill="#4DC1EB" points="31.383 126.329 24.75 122.782 24.75 102.564 31.383 106.111"/>
        <polygon stroke="#ECF0F3" stroke-width=".545" points="31.383 126.329 24.75 122.782 24.75 102.564 31.383 106.111"/>
        <polygon fill="#4DC1EB" points="35.174 91.156 23.802 84.298 23.802 63.588 35.174 70.447"/>
        <polygon stroke="#ECF0F3" stroke-width=".545" points="35.174 91.156 23.802 84.298 23.802 63.588 35.174 70.447"/>
        <g fill="#6597D0" stroke="#3C3C3B" stroke-width=".545" transform="rotate(-3 650.208 -956.171)" stroke-linecap="round" stroke-linejoin="round">
          <polygon points="30.084 51.53 14.577 59.262 .054 34.046 15.657 26.44 30.123 50.791"/>
          <polygon points="48.604 42.646 33.096 50.378 18.574 25.162 34.177 17.555 48.642 41.907"/>
          <polygon points="67.066 33.76 51.559 41.492 37.036 16.276 52.639 8.669 67.104 33.021"/>
          <polygon points="85.636 25.107 70.129 32.839 55.607 7.623 71.21 .016 85.675 24.367"/>
        </g>
      </g>
    </g>
  </g>
</svg>
