<svg xmlns="http://www.w3.org/2000/svg" width="375" height="50" viewBox="0 0 375 50">
  <path fill="#2691BF" fill-rule="evenodd" d="M377.06794,42.6267978 L369.282877,-12.7668049 C369.282877,-12.7668049 366.714621,-7.88689673 364.18464,-6.78153279 C361.65466,-5.67616885 361.362411,-9.20460753 356.632423,-7.68491976 C352.772997,-6.28606851 350.583296,-2.53736346 349.341216,-1.34487223 C349.67958,-2.80389435 347.385486,-3.81042096 345.936393,-3.11953756 C344.486695,-2.42865417 343.857787,-0.864233707 343.461919,0.583200112 C341.754968,-1.39398455 342.374312,-5.29293125 338.342276,-5.34780206 C334.31024,-5.40267286 329.638378,1.51067967 328.395088,3.46468773 C328.353322,1.14316502 323.806321,-1.27860029 321.898409,0.258780803 C319.257176,-4.9644032 315.905003,-2.00349944 314.092729,0.258426298 C310.951817,-2.28051499 307.740372,-2.29745635 306.423235,1.33630335 C306.986771,-0.612738299 305.172076,-2.59985579 303.060178,-3.19582549 C300.948279,-3.79234702 298.671134,-3.37737552 296.50839,-2.95909308 C294.523,-2.57502372 292.537005,-2.19040253 290.551614,-1.806885 C289.729009,-2.93205372 287.934289,-4.30830227 286.170439,-3.12353657 C283.721993,-1.63857874 284.102728,-1.0348835 284.157205,1.6458765 C281.619175,1.04604403 281.034453,1.36334272 278.497028,0.764062073 C276.338521,1.55813652 274.939805,5.76101093 274.939805,5.76101093 C274.939805,5.76101093 271.771809,3.81931945 268.661062,5.56437915 C265.550315,7.30943885 266.316538,9.28366967 265.852877,10.8585748 C265.278445,9.69146746 263.517702,7.96867053 259.195448,9.07110729 C254.873193,10.1735441 257.377151,11.2540253 253.664172,13.9674331 C246.560166,10.1447852 247.656694,17.7678143 244.739139,16.2458843 C241.821584,14.7239543 238.498074,12.7193246 232.561273,17.8369385 C230.6007,15.1788033 225.190512,16.0181273 224.304956,19.1177216 C220.996981,19.0520545 222.054483,15.3851408 217.360327,13.2501791 C212.666172,11.1152175 207.470745,13.0449921 207.470745,13.0449921 C207.470745,13.0449921 204.784914,7.31179119 201.214844,6.22580196 C198.817848,4.47817599 193.772679,6.17044645 194.677,10.0966728 C188.234166,8.2215755 188.816907,7.72954146 183.326819,11.3301917 C181.972153,13.6931012 179.608062,16.3833052 178.254002,18.7462147 C177.13843,17.1426148 173.252326,16.8464777 171.66583,18.0770447 C170.079334,19.3081636 168.766692,23.1140295 170.325345,24.3749469 C168.626262,23.1642455 166.257739,21.5290095 162.555204,22.6530079 C158.852669,23.7770063 161.066042,25.4592806 158.984409,27.8177755 C155.736359,22.7123018 147.969125,20.491211 142.10496,22.9898691 C142.210888,19.7401788 139.221908,16.6571392 135.671207,16.354188 C136.501681,13.8318014 133.863775,10.9297601 130.991013,11.2051201 C128.11825,11.481032 126.200654,14.819566 127.588611,17.1295004 C126.006352,13.5928617 120.002968,13.4824969 116.984327,16.1306993 C113.965687,18.7789017 113.266563,22.9070956 113.092841,26.7229571 C111.043895,25.736848 108.144499,27.4673674 108.316404,29.5736789 C106.833415,27.5385527 105.97789,26.2292622 103.304272,26.3986721 C100.630654,26.568082 100.15122,26.8375774 99.222365,28.2583098 C97.4422837,26.3348616 97.5396185,26.2493012 95.0046142,25.4132881 C92.4702152,24.5772751 91.2898678,25.6474525 89.8843568,27.744383 C87.0618341,26.4404233 84.4045589,24.8390307 81.9833514,22.9826954 C79.8835592,23.6884781 78.2413752,25.4283785 77.7886094,27.4265325 C76.9884003,25.0067851 74.9001088,22.9705553 72.3051796,22.0793599 C71.0255715,23.510239 69.7459633,24.9411181 68.4669604,26.3719972 C68.3319781,24.3054171 66.0996248,22.5533765 63.8376117,22.7387893 C61.5749932,22.9242021 59.7215589,25.0111997 59.9933394,27.0672952 C57.8457284,22.7912126 51.8792677,20.4812782 47.0132459,22.0423877 C41.9903482,23.7133478 45.1077556,26.3598571 44.1550105,28.5185918 C37.8972967,27.8479577 36.8413829,33.1812898 36.8413829,33.1812898 C36.8413829,33.1812898 32.3451086,30.8757241 29.5630348,31.8395874 C26.7809609,32.8034507 27.4710748,38.523709 27.4710748,38.523709 C27.4710748,38.523709 21.6135685,33.4160279 19.3340016,36.0956843 C18.8485495,33.9441233 17.2281564,32.0303984 15.067834,31.0564294 C13.6798768,32.6241608 12.2913143,34.1913404 10.9027518,35.75852 C10.30774,33.8547279 7.13837938,33.6439312 5.52101276,34.9649973 C3.90425145,36.2860635 3.45511745,38.3956859 3.09738404,40.3474867 C3.09738404,40.3474867 1.8463799,34.818129 -0.312281442,35.9367591 C-2.47094279,37.0553891 -2.06764927,39.423108 -2.06764927,39.423108 L5.71741389,94.8167107 L377.06794,42.6267978 Z" transform="rotate(8 187.485 41.025)"/>
</svg>
