<svg xmlns="http://www.w3.org/2000/svg" width="160" height="80" viewBox="0 0 160 80">
  <g fill="none" fill-rule="evenodd" transform="translate(0 8)">
    <ellipse cx="31.5" cy="32.188" fill="#4E4B49" rx="31.5" ry="31.683"/>
    <path fill="#FFFFFF" d="M19.54008 21.221977C19.9029618 21.8872604 20.3212776 22.7087721 20.79504 23.686537 21.2688024 24.6643019 21.7627174 25.7226913 22.2768 26.861737 22.7908826 28.0007827 23.2999175 29.1650111 23.80392 30.354457 24.3079225 31.543903 24.7816778 32.6627718 25.2252 33.711097 25.6687222 32.6627718 26.1424775 31.543903 26.64648 30.354457 27.1504825 29.1650111 27.6595174 28.0007827 28.1736 26.861737 28.6876826 25.7226913 29.1815976 24.6643019 29.65536 23.686537 30.1291224 22.7087721 30.5474382 21.8872604 30.91032 21.221977L35.2044 21.221977C35.406001 22.613024 35.5924791 24.1703684 35.76384 25.894057 35.9352009 27.6177456 36.0863993 29.4119677 36.21744 31.276777 36.3484807 33.1415864 36.4694394 35.0114077 36.58032 36.886297 36.6912006 38.7611864 36.7869596 40.5251688 36.8676 42.178297L32.27112 42.178297C32.2106397 40.1421268 32.1300005 37.924549 32.0292 35.525497 31.9283995 33.126445 31.777201 30.7072692 31.5756 28.267897 31.2127182 29.1146213 30.8095222 30.0520519 30.366 31.080217 29.9224778 32.1083822 29.4840022 33.1365319 29.05056 34.164697 28.6171178 35.1928622 28.198802 36.1756523 27.7956 37.113097 27.392398 38.0505417 27.0496814 38.8518937 26.76744 39.517177L23.47128 39.517177C23.1890386 38.8518937 22.846322 38.0505417 22.44312 37.113097 22.039918 36.1756523 21.6216022 35.1928622 21.18816 34.164697 20.7547178 33.1365319 20.3162422 32.1083822 19.87272 31.080217 19.4291978 30.0520519 19.0260018 29.1146213 18.66312 28.267897 18.461519 30.7072692 18.3103205 33.126445 18.20952 35.525497 18.1087195 37.924549 18.0280803 40.1421268 17.9676 42.178297L13.37112 42.178297C13.4517604 40.5251688 13.5475194 38.7611864 13.6584 36.886297 13.7692806 35.0114077 13.8902393 33.1415864 14.02128 31.276777 14.1523207 29.4119677 14.3035191 27.6177456 14.47488 25.894057 14.6462409 24.1703684 14.832719 22.613024 15.03432 21.221977L19.54008 21.221977zM50.38488 30.263737C49.981678 30.1629365 49.5079227 30.0570976 48.9636 29.946217 48.4192773 29.8353365 47.8346431 29.779897 47.20968 29.779897 46.9274386 29.779897 46.589762 29.8050968 46.19664 29.855497 45.803518 29.9058973 45.506161 29.9613367 45.30456 30.021817L45.30456 42.178297 40.7988 42.178297 40.7988 27.118777C41.605204 26.8365356 42.5577545 26.5694183 43.65648 26.317417 44.7552055 26.0654158 45.9799132 25.939417 47.33064 25.939417 47.5725612 25.939417 47.8648783 25.9545369 48.2076 25.984777 48.5503217 26.0150172 48.8930383 26.0553368 49.23576 26.105737 49.5784817 26.1561373 49.9211983 26.2166167 50.26392 26.287177 50.6066417 26.3577374 50.8989588 26.4434165 51.14088 26.544217L50.38488 30.263737zM71.12 17.93C71.4186682 17.855333 71.8129976 17.7760004 72.303 17.692 72.7930025 17.6079996 73.3599968 17.566 74.004 17.566 74.470669 17.566 74.8626651 17.6289994 75.18 17.755 75.4973349 17.8810006 75.7633323 18.0653321 75.978 18.308 76.0433337 18.2613331 76.1459993 18.1960004 76.286 18.112 76.4260007 18.0279996 76.5986656 17.9463337 76.804 17.867 77.0093344 17.7876663 77.2379987 17.717667 77.49 17.657 77.7420013 17.596333 78.0126652 17.566 78.302 17.566 78.8620028 17.566 79.3193316 17.6476658 79.674 17.811 80.0286684 17.9743341 80.3063323 18.2053318 80.507 18.504 80.7076677 18.8026682 80.8429996 19.1573313 80.913 19.568 80.9830003 19.9786687 81.018 20.4266642 81.018 20.912L81.018 25 79.716 25 79.716 21.192C79.716 20.7626645 79.6950002 20.3940015 79.653 20.086 79.6109998 19.7779985 79.5316672 19.5213344 79.415 19.316 79.2983328 19.1106656 79.1396677 18.9590005 78.939 18.861 78.7383323 18.7629995 78.4793349 18.714 78.162 18.714 77.7233311 18.714 77.3616681 18.7723327 77.077 18.889 76.7923319 19.0056672 76.5986672 19.1106662 76.496 19.204 76.570667 19.4466679 76.6266665 19.7126652 76.664 20.002 76.7013335 20.2913348 76.72 20.5946651 76.72 20.912L76.72 25 75.418 25 75.418 21.192C75.418 20.7626645 75.3946669 20.3940015 75.348 20.086 75.3013331 19.7779985 75.2196673 19.5213344 75.103 19.316 74.9863328 19.1106656 74.8276677 18.9590005 74.627 18.861 74.4263323 18.7629995 74.1720015 18.714 73.864 18.714 73.7333327 18.714 73.5933341 18.7186666 73.444 18.728 73.2946659 18.7373334 73.152334 18.7489999 73.017 18.763 72.881666 18.7770001 72.7580006 18.7933332 72.646 18.812 72.5339994 18.8306668 72.4593335 18.8446666 72.422 18.854L72.422 25 71.12 25 71.12 17.93zM85.638 24.062C85.9460015 24.062 86.2189988 24.0550001 86.457 24.041 86.6950012 24.0269999 86.8933325 24.0013335 87.052 23.964L87.052 21.794C86.9586662 21.7473331 86.807001 21.7076668 86.597 21.675 86.3869989 21.6423332 86.1326682 21.626 85.834 21.626 85.637999 21.626 85.4303344 21.6399999 85.211 21.668 84.9916656 21.6960001 84.7910009 21.7543329 84.609 21.843 84.4269991 21.9316671 84.2753339 22.0529992 84.154 22.207 84.0326661 22.3610008 83.972 22.5639987 83.972 22.816 83.972 23.282669 84.1213318 23.6069991 84.42 23.789 84.7186682 23.9710009 85.1246641 24.062 85.638 24.062zM85.526 17.538C86.0486693 17.538 86.4896649 17.605666 86.849 17.741 87.2083351 17.876334 87.4976656 18.0676654 87.717 18.315 87.9363344 18.5623346 88.0926662 18.8563316 88.186 19.197 88.2793338 19.5376684 88.326 19.9133313 88.326 20.324L88.326 24.874C88.2139994 24.8926668 88.0576677 24.9183332 87.857 24.951 87.6563323 24.9836668 87.4300013 25.0139999 87.178 25.042 86.9259987 25.0700001 86.6530015 25.0956665 86.359 25.119 86.0649985 25.1423334 85.7733348 25.154 85.484 25.154 85.0733313 25.154 84.6953351 25.1120004 84.35 25.028 84.0046649 24.9439996 83.7060013 24.8110009 83.454 24.629 83.2019987 24.4469991 83.0060007 24.2066682 82.866 23.908 82.7259993 23.6093318 82.656 23.2500021 82.656 22.83 82.656 22.4286647 82.7376658 22.0833348 82.901 21.794 83.0643342 21.5046652 83.2859986 21.2713342 83.566 21.094 83.8460014 20.9166658 84.1726648 20.7860004 84.546 20.702 84.9193352 20.6179996 85.3113313 20.576 85.722 20.576 85.8526673 20.576 85.9879993 20.5829999 86.128 20.597 86.2680007 20.6110001 86.4009994 20.6296665 86.527 20.653 86.6530006 20.6763334 86.7626662 20.6973332 86.856 20.716 86.9493338 20.7346668 87.0146665 20.7486666 87.052 20.758L87.052 20.394C87.052 20.1793323 87.0286669 19.967001 86.982 19.757 86.9353331 19.5469989 86.8513339 19.3603341 86.73 19.197 86.6086661 19.0336658 86.443001 18.9030005 86.233 18.805 86.022999 18.7069995 85.7500017 18.658 85.414 18.658 84.9846645 18.658 84.6090016 18.688333 84.287 18.749 83.9649984 18.809667 83.7246675 18.8726663 83.566 18.938L83.412 17.86C83.5800008 17.785333 83.859998 17.7130003 84.252 17.643 84.644002 17.5729996 85.0686644 17.538 85.526 17.538zM93.17 17.566C93.2820006 17.566 93.4103326 17.5729999 93.555 17.587 93.6996674 17.6010001 93.8419993 17.6196665 93.982 17.643 94.1220007 17.6663334 94.2503327 17.6896665 94.367 17.713 94.4836672 17.7363334 94.5699997 17.7573332 94.626 17.776L94.402 18.91C94.2993328 18.8726665 94.1290012 18.8283336 93.891 18.777 93.6529988 18.7256664 93.3473352 18.7 92.974 18.7 92.7313321 18.7 92.4910012 18.7256664 92.253 18.777 92.0149988 18.8283336 91.858667 18.8633332 91.784 18.882L91.784 25 90.482 25 90.482 18.028C90.7900015 17.9159994 91.1726644 17.8110005 91.63 17.713 92.0873356 17.6149995 92.6006638 17.566 93.17 17.566zM98.518 20.996C98.7980014 21.2106677 99.0943318 21.4766651 99.407 21.794 99.7196682 22.1113349 100.027665 22.4543315 100.331 22.823 100.634335 23.1916685 100.921332 23.5649981 101.192 23.943 101.462668 24.3210019 101.691332 24.6733317 101.878 25L100.352 25C100.155999 24.6733317 99.929668 24.3396684 99.673 23.999 99.416332 23.6583316 99.1480014 23.3316682 98.868 23.019 98.5879986 22.7063318 98.3033348 22.4193346 98.014 22.158 97.7246652 21.8966654 97.4493346 21.6773342 97.188 21.5L97.188 25 95.886 25 95.886 14.36 97.188 14.136 97.188 20.772 97.93 20.03C98.200668 19.759332 98.4666654 19.4840014 98.728 19.204 98.9893346 18.9239986 99.2366655 18.6556679 99.47 18.399 99.7033345 18.142332 99.9039992 17.916001 100.072 17.72L101.598 17.72C101.383332 17.9533345 101.150001 18.2099986 100.898 18.49 100.645999 18.7700014 100.384668 19.0523319 100.114 19.337 99.843332 19.6216681 99.5703347 19.9063319 99.295 20.191 99.0196653 20.4756681 98.7606679 20.7439987 98.518 20.996zM102.788 21.374C102.788 20.7299968 102.881332 20.1676691 103.068 19.687 103.254668 19.2063309 103.501998 18.8073349 103.81 18.49 104.118002 18.1726651 104.472665 17.9346675 104.874 17.776 105.275335 17.6173325 105.685998 17.538 106.106 17.538 107.086005 17.538 107.837331 17.8436636 108.36 18.455 108.882669 19.0663364 109.144 19.9973271 109.144 21.248L109.144 21.465C109.144 21.5536671 109.139333 21.635333 109.13 21.71L104.146 21.71C104.202 22.4660038 104.421331 23.039998 104.804 23.432 105.186669 23.824002 105.783996 24.02 106.596 24.02 107.053336 24.02 107.438332 23.9803337 107.751 23.901 108.063668 23.8216663 108.299333 23.744667 108.458 23.67L108.64 24.762C108.481333 24.8460004 108.203669 24.9346662 107.807 25.028 107.410331 25.1213338 106.960003 25.168 106.456 25.168 105.82133 25.168 105.273002 25.0723343 104.811 24.881 104.348998 24.6896657 103.968668 24.4260017 103.67 24.09 103.371332 23.7539983 103.149667 23.3550023 103.005 22.893 102.860333 22.4309977 102.788 21.9246694 102.788 21.374zM107.786 20.66C107.795333 20.0719971 107.648335 19.5890019 107.345 19.211 107.041665 18.8329981 106.624003 18.644 106.092 18.644 105.793332 18.644 105.529668 18.7023327 105.301 18.819 105.072332 18.9356672 104.878667 19.0873324 104.72 19.274 104.561333 19.4606676 104.437667 19.6753321 104.349 19.918 104.260333 20.1606679 104.202 20.4079987 104.174 20.66L107.786 20.66zM112.238 17.72L114.996 17.72 114.996 18.812 112.238 18.812 112.238 22.172C112.238 22.5360018 112.266 22.8369988 112.322 23.075 112.378 23.3130012 112.461999 23.499666 112.574 23.635 112.686001 23.770334 112.825999 23.8659997 112.994 23.922 113.162001 23.9780003 113.357999 24.006 113.582 24.006 113.974002 24.006 114.288999 23.9616671 114.527 23.873 114.765001 23.7843329 114.930666 23.7213335 115.024 23.684L115.276 24.762C115.145333 24.8273337 114.916668 24.9089995 114.59 25.007 114.263332 25.1050005 113.890002 25.154 113.47 25.154 112.975331 25.154 112.567002 25.0910006 112.245 24.965 111.922998 24.8389994 111.664001 24.6500013 111.468 24.398 111.271999 24.1459987 111.134334 23.8356685 111.055 23.467 110.975666 23.0983315 110.936 22.6713358 110.936 22.186L110.936 15.69 112.238 15.466 112.238 17.72zM73.808 37.9579983C73.9200006 37.9579983 74.0483326 37.9649982 74.193 37.9789983 74.3376674 37.9929984 74.4799993 38.0116648 74.62 38.0349983 74.7600007 38.0583317 74.8883328 38.0816648 75.005 38.1049983 75.1216673 38.1283317 75.2079997 38.1493315 75.264 38.1679983L75.04 39.3019983C74.9373328 39.2646648 74.7670012 39.2203319 74.529 39.1689983 74.2909988 39.1176647 73.9853352 39.0919983 73.612 39.0919983 73.3693321 39.0919983 73.1290012 39.1176647 72.891 39.1689983 72.6529988 39.2203319 72.496667 39.2553315 72.422 39.2739983L72.422 45.3919983 71.12 45.3919983 71.12 38.4199983C71.4280015 38.3079977 71.8106644 38.2029988 72.268 38.1049983 72.7253356 38.0069978 73.2386638 37.9579983 73.808 37.9579983zM76.118 41.7659983C76.118 41.1219951 76.2113324 40.5596674 76.398 40.0789983 76.5846676 39.5983292 76.8319985 39.1993332 77.14 38.8819983 77.4480015 38.5646634 77.8026647 38.3266658 78.204 38.1679983 78.6053353 38.0093308 79.0159979 37.9299983 79.436 37.9299983 80.4160049 37.9299983 81.1673307 38.2356619 81.69 38.8469983 82.2126693 39.4583347 82.474 40.3893254 82.474 41.6399983L82.474 41.8569983C82.474 41.9456654 82.4693334 42.0273313 82.46 42.1019983L77.476 42.1019983C77.5320003 42.8580021 77.7513314 43.4319963 78.134 43.8239983 78.5166686 44.2160003 79.1139959 44.4119983 79.926 44.4119983 80.3833356 44.4119983 80.7683318 44.372332 81.081 44.2929983 81.3936682 44.2136646 81.6293325 44.1366653 81.788 44.0619983L81.97 45.1539983C81.8113325 45.2379987 81.5336686 45.3266645 81.137 45.4199983 80.7403314 45.5133321 80.2900025 45.5599983 79.786 45.5599983 79.1513302 45.5599983 78.6030023 45.4643326 78.141 45.2729983 77.6789977 45.081664 77.2986682 44.818 77 44.4819983 76.7013318 44.1459966 76.4796674 43.7470006 76.335 43.2849983 76.1903326 42.822996 76.118 42.3166677 76.118 41.7659983zM81.116 41.0519983C81.1253334 40.4639954 80.9783348 39.9810002 80.675 39.6029983 80.3716651 39.2249964 79.9540027 39.0359983 79.422 39.0359983 79.1233318 39.0359983 78.8596678 39.094331 78.631 39.2109983 78.4023322 39.3276655 78.2086675 39.4793307 78.05 39.6659983 77.8913325 39.8526659 77.7676671 40.0673304 77.679 40.3099983 77.5903329 40.5526662 77.5320001 40.799997 77.504 41.0519983L81.116 41.0519983zM86.044 44.4539983C86.5760027 44.4539983 86.970332 44.383999 87.227 44.2439983 87.4836679 44.1039976 87.612 43.8799998 87.612 43.5719983 87.612 43.2546634 87.4860013 43.0026659 87.234 42.8159983 86.9819987 42.6293307 86.5666696 42.4193328 85.988 42.1859983 85.7079986 42.0739977 85.439668 41.9596655 85.183 41.8429983 84.926332 41.726331 84.7046676 41.5886658 84.518 41.4299983 84.3313324 41.2713308 84.1820006 41.0799994 84.07 40.8559983 83.9579994 40.6319972 83.902 40.3566666 83.902 40.0299983 83.902 39.3859951 84.1399976 38.8750002 84.616 38.4969983 85.0920024 38.1189964 85.7406626 37.9299983 86.562 37.9299983 86.7673344 37.9299983 86.9726656 37.9416648 87.178 37.9649983 87.3833344 37.9883317 87.5746658 38.0163315 87.752 38.0489983 87.9293342 38.0816651 88.085666 38.1166648 88.221 38.1539983 88.356334 38.1913318 88.461333 38.2239982 88.536 38.2519983L88.298 39.3719983C88.1579993 39.2973313 87.9386682 39.220332 87.64 39.1409983 87.3413318 39.0616646 86.9820021 39.0219983 86.562 39.0219983 86.1979982 39.0219983 85.880668 39.0943309 85.61 39.2389983 85.339332 39.3836657 85.204 39.6099968 85.204 39.9179983 85.204 40.0766658 85.234333 40.2166644 85.295 40.3379983 85.355667 40.4593322 85.4489994 40.5689978 85.575 40.6669983 85.7010006 40.7649988 85.8573324 40.8559979 86.044 40.9399983 86.2306676 41.0239987 86.4546654 41.1126645 86.716 41.2059983 87.0613351 41.3366656 87.369332 41.4649977 87.64 41.5909983 87.910668 41.7169989 88.1416657 41.8639975 88.333 42.0319983 88.5243343 42.1999991 88.6713328 42.4029971 88.774 42.6409983 88.8766672 42.8789995 88.928 43.1706632 88.928 43.5159983 88.928 44.1880017 88.6783358 44.6966632 88.179 45.0419983 87.6796642 45.3873334 86.9680046 45.5599983 86.044 45.5599983 85.3999968 45.5599983 84.8960018 45.5063322 84.532 45.3989983 84.1679982 45.2916644 83.9206673 45.2099986 83.79 45.1539983L84.028 44.0339983C84.1773341 44.0899986 84.4153317 44.1739977 84.742 44.2859983 85.0686683 44.3979989 85.502664 44.4539983 86.044 44.4539983zM90.188 41.7659983C90.188 41.1219951 90.2813324 40.5596674 90.468 40.0789983 90.6546676 39.5983292 90.9019985 39.1993332 91.21 38.8819983 91.5180015 38.5646634 91.8726647 38.3266658 92.274 38.1679983 92.6753353 38.0093308 93.0859979 37.9299983 93.506 37.9299983 94.4860049 37.9299983 95.2373307 38.2356619 95.76 38.8469983 96.2826693 39.4583347 96.544 40.3893254 96.544 41.6399983L96.544 41.8569983C96.544 41.9456654 96.5393334 42.0273313 96.53 42.1019983L91.546 42.1019983C91.6020003 42.8580021 91.8213314 43.4319963 92.204 43.8239983 92.5866686 44.2160003 93.1839959 44.4119983 93.996 44.4119983 94.4533356 44.4119983 94.8383318 44.372332 95.151 44.2929983 95.4636682 44.2136646 95.6993325 44.1366653 95.858 44.0619983L96.04 45.1539983C95.8813325 45.2379987 95.6036687 45.3266645 95.207 45.4199983 94.8103313 45.5133321 94.3600025 45.5599983 93.856 45.5599983 93.2213302 45.5599983 92.6730023 45.4643326 92.211 45.2729983 91.7489977 45.081664 91.3686682 44.818 91.07 44.4819983 90.7713318 44.1459966 90.5496674 43.7470006 90.405 43.2849983 90.2603326 42.822996 90.188 42.3166677 90.188 41.7659983zM95.186 41.0519983C95.1953334 40.4639954 95.0483349 39.9810002 94.745 39.6029983 94.4416652 39.2249964 94.0240027 39.0359983 93.492 39.0359983 93.1933318 39.0359983 92.9296678 39.094331 92.701 39.2109983 92.4723322 39.3276655 92.2786675 39.4793307 92.12 39.6659983 91.9613325 39.8526659 91.8376671 40.0673304 91.749 40.3099983 91.6603329 40.5526662 91.6020001 40.799997 91.574 41.0519983L95.186 41.0519983zM100.884 44.4539983C101.192002 44.4539983 101.464999 44.4469984 101.703 44.4329983 101.941001 44.4189982 102.139333 44.3933318 102.298 44.3559983L102.298 42.1859983C102.204666 42.1393314 102.053001 42.0996651 101.843 42.0669983 101.632999 42.0343315 101.378668 42.0179983 101.08 42.0179983 100.883999 42.0179983 100.676334 42.0319982 100.457 42.0599983 100.237666 42.0879984 100.037001 42.1463312 99.855 42.2349983 99.6729991 42.3236654 99.5213339 42.4449975 99.4 42.5989983 99.2786661 42.7529991 99.218 42.955997 99.218 43.2079983 99.218 43.6746673 99.3673318 43.9989974 99.666 44.1809983 99.9646682 44.3629992 100.370664 44.4539983 100.884 44.4539983zM100.772 37.9299983C101.294669 37.9299983 101.735665 37.9976643 102.095 38.1329983 102.454335 38.2683323 102.743666 38.4596637 102.963 38.7069983 103.182334 38.9543329 103.338666 39.2483299 103.432 39.5889983 103.525334 39.9296667 103.572 40.3053296 103.572 40.7159983L103.572 45.2659983C103.459999 45.2846651 103.303668 45.3103315 103.103 45.3429983 102.902332 45.3756651 102.676001 45.4059982 102.424 45.4339983 102.171999 45.4619984 101.899001 45.4876648 101.605 45.5109983 101.310999 45.5343317 101.019335 45.5459983 100.73 45.5459983 100.319331 45.5459983 99.9413351 45.5039987 99.596 45.4199983 99.2506649 45.3359979 98.9520013 45.2029992 98.7 45.0209983 98.4479987 44.8389974 98.2520007 44.5986665 98.112 44.2999983 97.9719993 44.0013301 97.902 43.6420004 97.902 43.2219983 97.902 42.820663 97.9836658 42.4753331 98.147 42.1859983 98.3103342 41.8966635 98.5319986 41.6633325 98.812 41.4859983 99.0920014 41.3086641 99.4186648 41.1779987 99.792 41.0939983 100.165335 41.0099979 100.557331 40.9679983 100.968 40.9679983 101.098667 40.9679983 101.233999 40.9749982 101.374 40.9889983 101.514001 41.0029984 101.646999 41.0216648 101.773 41.0449983 101.899001 41.0683317 102.008666 41.0893315 102.102 41.1079983 102.195334 41.1266651 102.260666 41.1406649 102.298 41.1499983L102.298 40.7859983C102.298 40.5713306 102.274667 40.3589993 102.228 40.1489983 102.181333 39.9389972 102.097334 39.7523324 101.976 39.5889983 101.854666 39.4256641 101.689001 39.2949988 101.479 39.1969983 101.268999 39.0989978 100.996002 39.0499983 100.66 39.0499983 100.230665 39.0499983 99.8550016 39.0803313 99.533 39.1409983 99.2109984 39.2016653 98.9706675 39.2646646 98.812 39.3299983L98.658 38.2519983C98.8260008 38.1773313 99.105998 38.1049986 99.498 38.0349983 99.890002 37.9649979 100.314664 37.9299983 100.772 37.9299983zM108.416 37.9579983C108.528001 37.9579983 108.656333 37.9649982 108.801 37.9789983 108.945667 37.9929984 109.087999 38.0116648 109.228 38.0349983 109.368001 38.0583317 109.496333 38.0816648 109.613 38.1049983 109.729667 38.1283317 109.816 38.1493315 109.872 38.1679983L109.648 39.3019983C109.545333 39.2646648 109.375001 39.2203319 109.137 39.1689983 108.898999 39.1176647 108.593335 39.0919983 108.22 39.0919983 107.977332 39.0919983 107.737001 39.1176647 107.499 39.1689983 107.260999 39.2203319 107.104667 39.2553315 107.03 39.2739983L107.03 45.3919983 105.728 45.3919983 105.728 38.4199983C106.036002 38.3079977 106.418664 38.2029988 106.876 38.1049983 107.333336 38.0069978 107.846664 37.9579983 108.416 37.9579983zM114.296 45.5599983C113.707997 45.5599983 113.192336 45.4666659 112.749 45.2799983 112.305664 45.0933307 111.932335 44.832 111.629 44.4959983 111.325665 44.1599966 111.099334 43.7610006 110.95 43.2989983 110.800666 42.836996 110.726 42.3260011 110.726 41.7659983 110.726 41.2059955 110.807666 40.6926673 110.971 40.2259983 111.134334 39.7593293 111.365332 39.3556667 111.664 39.0149983 111.962668 38.6743299 112.328998 38.4083326 112.763 38.2169983 113.197002 38.025664 113.679997 37.9299983 114.212 37.9299983 114.538668 37.9299983 114.865332 37.957998 115.192 38.0139983 115.518668 38.0699986 115.831332 38.1586644 116.13 38.2799983L115.836 39.3859983C115.639999 39.2926645 115.413668 39.2179986 115.157 39.1619983 114.900332 39.105998 114.627335 39.0779983 114.338 39.0779983 113.609996 39.0779983 113.052335 39.3066627 112.665 39.7639983 112.277665 40.2213339 112.084 40.8886606 112.084 41.7659983 112.084 42.1580003 112.128333 42.51733 112.217 42.8439983 112.305667 43.1706666 112.445666 43.4506638 112.637 43.6839983 112.828334 43.9173328 113.073332 44.0969977 113.372 44.2229983 113.670668 44.3489989 114.034665 44.4119983 114.464 44.4119983 114.809335 44.4119983 115.121999 44.379332 115.402 44.3139983 115.682001 44.2486646 115.901333 44.1786653 116.06 44.1039983L116.242 45.1959983C116.167333 45.2426652 116.060001 45.2869981 115.92 45.3289983 115.779999 45.3709985 115.621334 45.4083315 115.444 45.4409983 115.266666 45.4736651 115.077668 45.5016648 114.877 45.5249983 114.676332 45.5483317 114.482668 45.5599983 114.296 45.5599983zM117.642 45.3919983L117.642 34.7519983 118.944 34.5279983 118.944 38.2519983C119.186668 38.1586645 119.445665 38.0863319 119.721 38.0349983 119.996335 37.9836647 120.269332 37.9579983 120.54 37.9579983 121.11867 37.9579983 121.599331 38.0396641 121.982 38.2029983 122.364669 38.3663324 122.670332 38.5949968 122.899 38.8889983 123.127668 39.1829998 123.288666 39.5353296 123.382 39.9459983 123.475334 40.356667 123.522 40.8093292 123.522 41.3039983L123.522 45.3919983 122.22 45.3919983 122.22 41.5839983C122.22 41.1359961 122.189667 40.7533332 122.129 40.4359983 122.068333 40.1186634 121.968001 39.8619993 121.828 39.6659983 121.687999 39.4699973 121.501335 39.3276654 121.268 39.2389983 121.034666 39.1503312 120.745335 39.1059983 120.4 39.1059983 120.259999 39.1059983 120.115334 39.1153315 119.966 39.1339983 119.816666 39.1526651 119.674334 39.1736648 119.539 39.1969983 119.403666 39.2203317 119.282334 39.2459982 119.175 39.2739983 119.067666 39.3019984 118.990667 39.3253315 118.944 39.3439983L118.944 45.3919983 117.642 45.3919983z"/>
  </g>
</svg>
