<svg xmlns="http://www.w3.org/2000/svg" width="160" height="80" viewBox="0 0 160 80">
  <g fill="none" fill-rule="evenodd" transform="translate(0 8)">
    <ellipse cx="31.5" cy="32.188" fill="#4E4B49" rx="31.5" ry="31.683"/>
    <path fill="#FFFFFF" d="M27.05472 42.601657C25.5830326 42.601657 24.3129653 42.3950191 23.24448 41.981737 22.1759947 41.568455 21.2940035 40.9939007 20.59848 40.258057 19.9029565 39.5222134 19.3888817 38.6452621 19.05624 37.627177 18.7235983 36.6090919 18.55728 35.4851832 18.55728 34.255417L18.55728 21.221977 23.27472 21.221977 23.27472 33.862297C23.27472 34.7090213 23.370479 35.4297341 23.562 36.024457 23.753521 36.61918 24.0155983 37.1030152 24.34824 37.475977 24.6808817 37.8489389 25.0840776 38.1160562 25.55784 38.277337 26.0316024 38.4386178 26.5507172 38.519257 27.1152 38.519257 28.2643257 38.519257 29.1967164 38.1664606 29.9124 37.460857 30.6280836 36.7552535 30.98592 35.5557455 30.98592 33.862297L30.98592 21.221977 35.70336 21.221977 35.70336 34.255417C35.70336 35.4851832 35.5320017 36.6141319 35.18928 37.642297 34.8465583 38.6704622 34.3224035 39.5524534 33.6168 40.288297 32.9111965 41.0241407 32.0140854 41.593655 30.92544 41.996857 29.8367946 42.400059 28.5465675 42.601657 27.05472 42.601657zM44.44272 42.178297L39.93696 42.178297 39.93696 26.272057 44.44272 26.272057 44.44272 42.178297zM44.86608 21.675577C44.86608 22.5021412 44.5989627 23.1522947 44.06472 23.626057 43.5304773 24.0998194 42.9004836 24.336697 42.17472 24.336697 41.4489564 24.336697 40.8189627 24.0998194 40.28472 23.626057 39.7504773 23.1522947 39.48336 22.5021412 39.48336 21.675577 39.48336 20.8490129 39.7504773 20.1988594 40.28472 19.725097 40.8189627 19.2513347 41.4489564 19.014457 42.17472 19.014457 42.9004836 19.014457 43.5304773 19.2513347 44.06472 19.725097 44.5989627 20.1988594 44.86608 20.8490129 44.86608 21.675577zM76.916 14.79C76.6173318 14.864667 76.2230024 14.9439996 75.733 15.028 75.2429975 15.1120004 74.6760032 15.154 74.032 15.154 73.4719972 15.154 73.0006686 15.0723342 72.618 14.909 72.2353314 14.7456659 71.9273345 14.5146682 71.694 14.216 71.4606655 13.9173318 71.2926672 13.565002 71.19 13.159 71.0873328 12.752998 71.036 12.3026691 71.036 11.808L71.036 7.72 72.338 7.72 72.338 11.528C72.338 12.4146711 72.4779986 13.0493314 72.758 13.432 73.0380014 13.8146686 73.50933 14.006 74.172 14.006 74.3120007 14.006 74.4566659 14.0013334 74.606 13.992 74.7553341 13.9826666 74.8953327 13.9710001 75.026 13.957 75.1566673 13.9429999 75.2756661 13.9290001 75.383 13.915 75.4903339 13.9009999 75.5673331 13.8846668 75.614 13.866L75.614 7.72 76.916 7.72 76.916 14.79zM80.85 14.062C81.3820027 14.062 81.776332 13.9920007 82.033 13.852 82.2896679 13.7119993 82.418 13.4880015 82.418 13.18 82.418 12.8626651 82.2920013 12.6106676 82.04 12.424 81.7879987 12.2373324 81.3726696 12.0273345 80.794 11.794 80.5139986 11.6819994 80.2456679 11.5676673 79.989 11.451 79.732332 11.3343328 79.5106676 11.1966675 79.324 11.038 79.1373324 10.8793325 78.9880006 10.6880011 78.876 10.464 78.7639994 10.2399989 78.708 9.9646683 78.708 9.638 78.708 8.99399678 78.9459976 8.48300189 79.422 8.105 79.8980024 7.72699811 80.5466626 7.538 81.368 7.538 81.5733344 7.538 81.7786656 7.54966655 81.984 7.573 82.1893344 7.59633345 82.3806658 7.62433317 82.558 7.657 82.7353342 7.68966683 82.891666 7.72466648 83.027 7.762 83.162334 7.79933352 83.267333 7.83199986 83.342 7.86L83.104 8.98C82.9639993 8.90533296 82.7446682 8.82833373 82.446 8.749 82.1473318 8.66966627 81.7880021 8.63 81.368 8.63 81.0039982 8.63 80.686668 8.70233261 80.416 8.847 80.145332 8.99166739 80.01 9.21799846 80.01 9.526 80.01 9.68466746 80.040333 9.82466606 80.101 9.946 80.161667 10.0673339 80.2549994 10.1769995 80.381 10.275 80.5070006 10.3730005 80.6633324 10.4639996 80.85 10.548 81.0366676 10.6320004 81.2606654 10.7206662 81.522 10.814 81.8673351 10.9446673 82.175332 11.0729994 82.446 11.199 82.716668 11.3250006 82.9476657 11.4719992 83.139 11.64 83.3303343 11.8080008 83.4773328 12.0109988 83.58 12.249 83.6826672 12.4870012 83.734 12.7786649 83.734 13.124 83.734 13.7960034 83.4843358 14.3046649 82.985 14.65 82.4856642 14.9953351 81.7740046 15.168 80.85 15.168 80.2059968 15.168 79.7020018 15.1143339 79.338 15.007 78.9739982 14.8996661 78.7266673 14.8180003 78.596 14.762L78.834 13.642C78.9833341 13.6980003 79.2213317 13.7819994 79.548 13.894 79.8746683 14.0060006 80.308664 14.062 80.85 14.062zM84.994 11.374C84.994 10.7299968 85.0873324 10.1676691 85.274 9.687 85.4606676 9.20633093 85.7079985 8.80733492 86.016 8.49 86.3240015 8.17266508 86.6786647 7.93466746 87.08 7.776 87.4813353 7.61733254 87.8919979 7.538 88.312 7.538 89.2920049 7.538 90.0433307 7.84366361 90.566 8.455 91.0886693 9.06633639 91.35 9.99732708 91.35 11.248L91.35 11.465C91.35 11.5536671 91.3453334 11.635333 91.336 11.71L86.352 11.71C86.4080003 12.4660038 86.6273314 13.039998 87.01 13.432 87.3926686 13.824002 87.9899959 14.02 88.802 14.02 89.2593356 14.02 89.6443318 13.9803337 89.957 13.901 90.2696682 13.8216663 90.5053325 13.744667 90.664 13.67L90.846 14.762C90.6873325 14.8460004 90.4096687 14.9346662 90.013 15.028 89.6163313 15.1213338 89.1660025 15.168 88.662 15.168 88.0273302 15.168 87.4790023 15.0723343 87.017 14.881 86.5549977 14.6896657 86.1746682 14.4260017 85.876 14.09 85.5773318 13.7539983 85.3556674 13.3550023 85.211 12.893 85.0663326 12.4309977 84.994 11.9246694 84.994 11.374zM89.992 10.66C90.0013334 10.0719971 89.8543349 9.58900189 89.551 9.211 89.2476652 8.83299811 88.8300027 8.644 88.298 8.644 87.9993318 8.644 87.7356678 8.70233275 87.507 8.819 87.2783322 8.93566725 87.0846675 9.0873324 86.926 9.274 86.7673325 9.4606676 86.6436671 9.67533212 86.555 9.918 86.4663329 10.1606679 86.4080001 10.4079987 86.38 10.66L89.992 10.66zM95.914 7.566C96.0260006 7.566 96.1543326 7.57299993 96.299 7.587 96.4436674 7.60100007 96.5859993 7.61966655 96.726 7.643 96.8660007 7.66633345 96.9943327 7.68966655 97.111 7.713 97.2276672 7.73633345 97.3139997 7.75733324 97.37 7.776L97.146 8.91C97.0433328 8.87266648 96.8730012 8.82833359 96.635 8.777 96.3969988 8.72566641 96.0913352 8.7 95.718 8.7 95.4753321 8.7 95.2350012 8.72566641 94.997 8.777 94.7589988 8.82833359 94.602667 8.86333324 94.528 8.882L94.528 15 93.226 15 93.226 8.028C93.5340015 7.91599944 93.9166644 7.81100049 94.374 7.713 94.8313356 7.61499951 95.3446638 7.566 95.914 7.566zM72.422 35.3919983L71.12 35.3919983 71.12 28.1119983 72.422 28.1119983 72.422 35.3919983zM71.764 26.7959983C71.5306655 26.7959983 71.3323341 26.7189991 71.169 26.5649983 71.0056658 26.4109975 70.924 26.2033329 70.924 25.9419983 70.924 25.6806637 71.0056658 25.4729991 71.169 25.3189983 71.3323341 25.1649975 71.5306655 25.0879983 71.764 25.0879983 71.9973345 25.0879983 72.1956658 25.1649975 72.359 25.3189983 72.5223342 25.4729991 72.604 25.6806637 72.604 25.9419983 72.604 26.2033329 72.5223342 26.4109975 72.359 26.5649983 72.1956658 26.7189991 71.9973345 26.7959983 71.764 26.7959983zM74.662 28.3219983C74.9606682 28.2473313 75.3573309 28.1679987 75.852 28.0839983 76.3466691 27.9999979 76.9159968 27.9579983 77.56 27.9579983 78.1386696 27.9579983 78.6193314 28.0396641 79.002 28.2029983 79.3846686 28.3663324 79.6903322 28.5949968 79.919 28.8889983 80.1476678 29.1829998 80.3086662 29.5353296 80.402 29.9459983 80.4953338 30.356667 80.542 30.8093292 80.542 31.3039983L80.542 35.3919983 79.24 35.3919983 79.24 31.5839983C79.24 31.1359961 79.209667 30.7533332 79.149 30.4359983 79.088333 30.1186634 78.9880007 29.8619993 78.848 29.6659983 78.7079993 29.4699973 78.5213345 29.3276654 78.288 29.2389983 78.0546655 29.1503312 77.7653351 29.1059983 77.42 29.1059983 77.2799993 29.1059983 77.1353341 29.1106649 76.986 29.1199983 76.8366659 29.1293317 76.694334 29.1409982 76.559 29.1549983 76.423666 29.1689984 76.3023339 29.1853315 76.195 29.2039983 76.0876661 29.2226651 76.0106669 29.2366649 75.964 29.2459983L75.964 35.3919983 74.662 35.3919983 74.662 28.3219983zM83.916 28.1119983L86.674 28.1119983 86.674 29.2039983 83.916 29.2039983 83.916 32.5639983C83.916 32.9280001 83.9439997 33.2289971 84 33.4669983 84.0560003 33.7049995 84.1399994 33.8916643 84.252 34.0269983 84.3640006 34.1623323 84.5039992 34.257998 84.672 34.3139983 84.8400008 34.3699986 85.0359989 34.3979983 85.26 34.3979983 85.652002 34.3979983 85.9669988 34.3536654 86.205 34.2649983 86.4430012 34.1763312 86.6086662 34.1133318 86.702 34.0759983L86.954 35.1539983C86.8233327 35.219332 86.5946683 35.3009978 86.268 35.3989983 85.9413317 35.4969988 85.5680021 35.5459983 85.148 35.5459983 84.6533309 35.5459983 84.2450016 35.4829989 83.923 35.3569983 83.6009984 35.2309977 83.342001 35.0419996 83.146 34.7899983 82.949999 34.537997 82.8123337 34.2276668 82.733 33.8589983 82.6536663 33.4903298 82.614 33.0633341 82.614 32.5779983L82.614 26.0819983 83.916 25.8579983 83.916 28.1119983zM87.92 31.7659983C87.92 31.1219951 88.0133324 30.5596674 88.2 30.0789983 88.3866676 29.5983292 88.6339985 29.1993332 88.942 28.8819983 89.2500015 28.5646634 89.6046647 28.3266658 90.006 28.1679983 90.4073353 28.0093308 90.8179979 27.9299983 91.238 27.9299983 92.2180049 27.9299983 92.9693307 28.2356619 93.492 28.8469983 94.0146693 29.4583347 94.276 30.3893254 94.276 31.6399983L94.276 31.8569983C94.276 31.9456654 94.2713334 32.0273313 94.262 32.1019983L89.278 32.1019983C89.3340003 32.8580021 89.5533314 33.4319963 89.936 33.8239983 90.3186686 34.2160003 90.9159959 34.4119983 91.728 34.4119983 92.1853356 34.4119983 92.5703318 34.372332 92.883 34.2929983 93.1956682 34.2136646 93.4313325 34.1366653 93.59 34.0619983L93.772 35.1539983C93.6133325 35.2379987 93.3356687 35.3266645 92.939 35.4199983 92.5423313 35.5133321 92.0920025 35.5599983 91.588 35.5599983 90.9533302 35.5599983 90.4050023 35.4643326 89.943 35.2729983 89.4809977 35.081664 89.1006682 34.818 88.802 34.4819983 88.5033318 34.1459966 88.2816674 33.7470006 88.137 33.2849983 87.9923326 32.822996 87.92 32.3166677 87.92 31.7659983zM92.918 31.0519983C92.9273334 30.4639954 92.7803349 29.9810002 92.477 29.6029983 92.1736652 29.2249964 91.7560027 29.0359983 91.224 29.0359983 90.9253318 29.0359983 90.6616678 29.094331 90.433 29.2109983 90.2043322 29.3276655 90.0106675 29.4793307 89.852 29.6659983 89.6933325 29.8526659 89.5696671 30.0673304 89.481 30.3099983 89.3923329 30.5526662 89.3340001 30.799997 89.306 31.0519983L92.918 31.0519983zM98.84 27.9579983C98.9520006 27.9579983 99.0803326 27.9649982 99.225 27.9789983 99.3696674 27.9929984 99.5119993 28.0116648 99.652 28.0349983 99.7920007 28.0583317 99.9203328 28.0816648 100.037 28.1049983 100.153667 28.1283317 100.24 28.1493315 100.296 28.1679983L100.072 29.3019983C99.9693328 29.2646648 99.7990012 29.2203319 99.561 29.1689983 99.3229988 29.1176647 99.0173352 29.0919983 98.644 29.0919983 98.4013321 29.0919983 98.1610012 29.1176647 97.923 29.1689983 97.6849988 29.2203319 97.528667 29.2553315 97.454 29.2739983L97.454 35.3919983 96.152 35.3919983 96.152 28.4199983C96.4600015 28.3079977 96.8426644 28.2029988 97.3 28.1049983 97.7573356 28.0069978 98.2706638 27.9579983 98.84 27.9579983zM104.398 24.5279983C104.780669 24.5279983 105.109665 24.555998 105.385 24.6119983 105.660335 24.6679986 105.853999 24.7193314 105.966 24.7659983L105.728 25.8859983C105.615999 25.829998 105.457334 25.7763319 105.252 25.7249983 105.046666 25.6736647 104.794668 25.6479983 104.496 25.6479983 103.88933 25.6479983 103.464668 25.8136633 103.222 26.1449983 102.979332 26.4763333 102.858 26.9219955 102.858 27.4819983L102.858 28.1119983 105.658 28.1119983 105.658 29.2039983 102.858 29.2039983 102.858 35.3919983 101.556 35.3919983 101.556 27.4539983C101.556 26.5206603 101.784664 25.7996675 102.242 25.2909983 102.699336 24.7823291 103.417995 24.5279983 104.398 24.5279983zM109.424 34.4539983C109.732002 34.4539983 110.004999 34.4469984 110.243 34.4329983 110.481001 34.4189982 110.679333 34.3933318 110.838 34.3559983L110.838 32.1859983C110.744666 32.1393314 110.593001 32.0996651 110.383 32.0669983 110.172999 32.0343315 109.918668 32.0179983 109.62 32.0179983 109.423999 32.0179983 109.216334 32.0319982 108.997 32.0599983 108.777666 32.0879984 108.577001 32.1463312 108.395 32.2349983 108.212999 32.3236654 108.061334 32.4449975 107.94 32.5989983 107.818666 32.7529991 107.758 32.955997 107.758 33.2079983 107.758 33.6746673 107.907332 33.9989974 108.206 34.1809983 108.504668 34.3629992 108.910664 34.4539983 109.424 34.4539983zM109.312 27.9299983C109.834669 27.9299983 110.275665 27.9976643 110.635 28.1329983 110.994335 28.2683323 111.283666 28.4596637 111.503 28.7069983 111.722334 28.9543329 111.878666 29.2483299 111.972 29.5889983 112.065334 29.9296667 112.112 30.3053296 112.112 30.7159983L112.112 35.2659983C111.999999 35.2846651 111.843668 35.3103315 111.643 35.3429983 111.442332 35.3756651 111.216001 35.4059982 110.964 35.4339983 110.711999 35.4619984 110.439001 35.4876648 110.145 35.5109983 109.850999 35.5343317 109.559335 35.5459983 109.27 35.5459983 108.859331 35.5459983 108.481335 35.5039987 108.136 35.4199983 107.790665 35.3359979 107.492001 35.2029992 107.24 35.0209983 106.987999 34.8389974 106.792001 34.5986665 106.652 34.2999983 106.511999 34.0013301 106.442 33.6420004 106.442 33.2219983 106.442 32.820663 106.523666 32.4753331 106.687 32.1859983 106.850334 31.8966635 107.071999 31.6633325 107.352 31.4859983 107.632001 31.3086641 107.958665 31.1779987 108.332 31.0939983 108.705335 31.0099979 109.097331 30.9679983 109.508 30.9679983 109.638667 30.9679983 109.773999 30.9749982 109.914 30.9889983 110.054001 31.0029984 110.186999 31.0216648 110.313 31.0449983 110.439001 31.0683317 110.548666 31.0893315 110.642 31.1079983 110.735334 31.1266651 110.800666 31.1406649 110.838 31.1499983L110.838 30.7859983C110.838 30.5713306 110.814667 30.3589993 110.768 30.1489983 110.721333 29.9389972 110.637334 29.7523324 110.516 29.5889983 110.394666 29.4256641 110.229001 29.2949988 110.019 29.1969983 109.808999 29.0989978 109.536002 29.0499983 109.2 29.0499983 108.770665 29.0499983 108.395002 29.0803313 108.073 29.1409983 107.750998 29.2016653 107.510667 29.2646646 107.352 29.3299983L107.198 28.2519983C107.366001 28.1773313 107.645998 28.1049986 108.038 28.0349983 108.430002 27.9649979 108.854664 27.9299983 109.312 27.9299983zM117.432 35.5599983C116.843997 35.5599983 116.328336 35.4666659 115.885 35.2799983 115.441664 35.0933307 115.068335 34.832 114.765 34.4959983 114.461665 34.1599966 114.235334 33.7610006 114.086 33.2989983 113.936666 32.836996 113.862 32.3260011 113.862 31.7659983 113.862 31.2059955 113.943666 30.6926673 114.107 30.2259983 114.270334 29.7593293 114.501332 29.3556667 114.8 29.0149983 115.098668 28.6743299 115.464998 28.4083326 115.899 28.2169983 116.333002 28.025664 116.815997 27.9299983 117.348 27.9299983 117.674668 27.9299983 118.001332 27.957998 118.328 28.0139983 118.654668 28.0699986 118.967332 28.1586644 119.266 28.2799983L118.972 29.3859983C118.775999 29.2926645 118.549668 29.2179986 118.293 29.1619983 118.036332 29.105998 117.763335 29.0779983 117.474 29.0779983 116.745996 29.0779983 116.188335 29.3066627 115.801 29.7639983 115.413665 30.2213339 115.22 30.8886606 115.22 31.7659983 115.22 32.1580003 115.264333 32.51733 115.353 32.8439983 115.441667 33.1706666 115.581666 33.4506638 115.773 33.6839983 115.964334 33.9173328 116.209332 34.0969977 116.508 34.2229983 116.806668 34.3489989 117.170665 34.4119983 117.6 34.4119983 117.945335 34.4119983 118.257999 34.379332 118.538 34.3139983 118.818001 34.2486646 119.037333 34.1786653 119.196 34.1039983L119.378 35.1959983C119.303333 35.2426652 119.196001 35.2869981 119.056 35.3289983 118.915999 35.3709985 118.757334 35.4083315 118.58 35.4409983 118.402666 35.4736651 118.213668 35.5016648 118.013 35.5249983 117.812332 35.5483317 117.618668 35.5599983 117.432 35.5599983zM120.372 31.7659983C120.372 31.1219951 120.465332 30.5596674 120.652 30.0789983 120.838668 29.5983292 121.085998 29.1993332 121.394 28.8819983 121.702002 28.5646634 122.056665 28.3266658 122.458 28.1679983 122.859335 28.0093308 123.269998 27.9299983 123.69 27.9299983 124.670005 27.9299983 125.421331 28.2356619 125.944 28.8469983 126.466669 29.4583347 126.728 30.3893254 126.728 31.6399983L126.728 31.8569983C126.728 31.9456654 126.723333 32.0273313 126.714 32.1019983L121.73 32.1019983C121.786 32.8580021 122.005331 33.4319963 122.388 33.8239983 122.770669 34.2160003 123.367996 34.4119983 124.18 34.4119983 124.637336 34.4119983 125.022332 34.372332 125.335 34.2929983 125.647668 34.2136646 125.883333 34.1366653 126.042 34.0619983L126.224 35.1539983C126.065333 35.2379987 125.787669 35.3266645 125.391 35.4199983 124.994331 35.5133321 124.544003 35.5599983 124.04 35.5599983 123.40533 35.5599983 122.857002 35.4643326 122.395 35.2729983 121.932998 35.081664 121.552668 34.818 121.254 34.4819983 120.955332 34.1459966 120.733667 33.7470006 120.589 33.2849983 120.444333 32.822996 120.372 32.3166677 120.372 31.7659983zM125.37 31.0519983C125.379333 30.4639954 125.232335 29.9810002 124.929 29.6029983 124.625665 29.2249964 124.208003 29.0359983 123.676 29.0359983 123.377332 29.0359983 123.113668 29.094331 122.885 29.2109983 122.656332 29.3276655 122.462667 29.4793307 122.304 29.6659983 122.145333 29.8526659 122.021667 30.0673304 121.933 30.3099983 121.844333 30.5526662 121.786 30.799997 121.758 31.0519983L125.37 31.0519983zM75.824 50.0439966C75.6653325 49.9133293 75.4366682 49.7873305 75.138 49.6659966 74.8393318 49.5446626 74.5126684 49.4839966 74.158 49.4839966 73.7846648 49.4839966 73.4650013 49.5516626 73.199 49.6869966 72.9329987 49.8223306 72.7160008 50.0089954 72.548 50.2469966 72.3799992 50.4849978 72.258667 50.7673283 72.184 51.0939966 72.109333 51.4206649 72.072 51.7706614 72.072 52.1439966 72.072 52.9933342 72.2819979 53.6489943 72.702 54.1109966 73.1220021 54.5729989 73.6819965 54.8039966 74.382 54.8039966 74.7366684 54.8039966 75.0329988 54.7876634 75.271 54.7549966 75.5090012 54.7223298 75.6933327 54.6873301 75.824 54.6499966L75.824 50.0439966zM75.824 45.1439966L77.126 44.9199966 77.126 55.5739966C76.8273318 55.657997 76.444669 55.7419962 75.978 55.8259966 75.511331 55.909997 74.9746697 55.9519966 74.368 55.9519966 73.8079972 55.9519966 73.3040022 55.8633308 72.856 55.6859966 72.4079978 55.5086624 72.0253349 55.2566649 71.708 54.9299966 71.3906651 54.6033283 71.1456675 54.2043323 70.973 53.7329966 70.8003325 53.2616609 70.714 52.7319995 70.714 52.1439966 70.714 51.5839938 70.7863326 51.0706656 70.931 50.6039966 71.0756674 50.1373276 71.2879986 49.7359983 71.568 49.3999966 71.8480014 49.0639949 72.190998 48.8026642 72.597 48.6159966 73.003002 48.429329 73.4673307 48.3359966 73.99 48.3359966 74.4100021 48.3359966 74.7809984 48.391996 75.103 48.5039966 75.4250016 48.6159971 75.6653325 48.7233294 75.824 48.8259966L75.824 45.1439966zM78.96 52.1579966C78.96 51.5139934 79.0533324 50.9516657 79.24 50.4709966 79.4266676 49.9903275 79.6739985 49.5913315 79.982 49.2739966 80.2900015 48.9566617 80.6446647 48.718664 81.046 48.5599966 81.4473353 48.4013291 81.8579979 48.3219966 82.278 48.3219966 83.2580049 48.3219966 84.0093307 48.6276602 84.532 49.2389966 85.0546693 49.850333 85.316 50.7813237 85.316 52.0319966L85.316 52.2489966C85.316 52.3376637 85.3113334 52.4193295 85.302 52.4939966L80.318 52.4939966C80.3740003 53.2500004 80.5933314 53.8239946 80.976 54.2159966 81.3586686 54.6079985 81.9559959 54.8039966 82.768 54.8039966 83.2253356 54.8039966 83.6103318 54.7643303 83.923 54.6849966 84.2356682 54.6056629 84.4713325 54.5286636 84.63 54.4539966L84.812 55.5459966C84.6533325 55.629997 84.3756686 55.7186628 83.979 55.8119966 83.5823314 55.9053304 83.1320025 55.9519966 82.628 55.9519966 81.9933302 55.9519966 81.4450023 55.8563309 80.983 55.6649966 80.5209977 55.4736623 80.1406682 55.2099983 79.842 54.8739966 79.5433318 54.5379949 79.3216674 54.1389989 79.177 53.6769966 79.0323326 53.2149943 78.96 52.708666 78.96 52.1579966zM83.958 51.4439966C83.9673334 50.8559936 83.8203348 50.3729985 83.517 49.9949966 83.2136651 49.6169947 82.7960027 49.4279966 82.264 49.4279966 81.9653318 49.4279966 81.7016678 49.4863293 81.473 49.6029966 81.2443322 49.7196638 81.0506675 49.871329 80.892 50.0579966 80.7333325 50.2446642 80.6096671 50.4593287 80.521 50.7019966 80.4323329 50.9446645 80.3740001 51.1919953 80.346 51.4439966L83.958 51.4439966zM88.886 54.8459966C89.4180027 54.8459966 89.8123321 54.7759973 90.069 54.6359966 90.3256679 54.4959959 90.454 54.2719981 90.454 53.9639966 90.454 53.6466617 90.3280013 53.3946642 90.076 53.2079966 89.8239987 53.021329 89.4086696 52.8113311 88.83 52.5779966 88.5499986 52.465996 88.2816679 52.3516638 88.025 52.2349966 87.768332 52.1183293 87.5466676 51.980664 87.36 51.8219966 87.1733324 51.6633291 87.0240006 51.4719977 86.912 51.2479966 86.7999994 51.0239955 86.744 50.7486649 86.744 50.4219966 86.744 49.7779934 86.9819976 49.2669985 87.458 48.8889966 87.9340024 48.5109947 88.5826626 48.3219966 89.404 48.3219966 89.6093344 48.3219966 89.8146656 48.3336631 90.02 48.3569966 90.2253344 48.38033 90.4166658 48.4083298 90.594 48.4409966 90.7713342 48.4736634 90.927666 48.5086631 91.063 48.5459966 91.198334 48.5833301 91.303333 48.6159964 91.378 48.6439966L91.14 49.7639966C90.9999993 49.6893295 90.7806682 49.6123303 90.482 49.5329966 90.1833318 49.4536629 89.8240021 49.4139966 89.404 49.4139966 89.0399982 49.4139966 88.722668 49.4863292 88.452 49.6309966 88.181332 49.775664 88.046 50.001995 88.046 50.3099966 88.046 50.468664 88.076333 50.6086626 88.137 50.7299966 88.197667 50.8513305 88.2909994 50.9609961 88.417 51.0589966 88.5430006 51.1569971 88.6993324 51.2479962 88.886 51.3319966 89.0726676 51.415997 89.2966654 51.5046628 89.558 51.5979966 89.9033351 51.7286639 90.211332 51.856996 90.482 51.9829966 90.752668 52.1089972 90.9836657 52.2559957 91.175 52.4239966 91.3663343 52.5919974 91.5133328 52.7949954 91.616 53.0329966 91.7186672 53.2709978 91.77 53.5626615 91.77 53.9079966 91.77 54.5799999 91.5203358 55.0886615 91.021 55.4339966 90.5216642 55.7793316 89.8100046 55.9519966 88.886 55.9519966 88.2419968 55.9519966 87.7380018 55.8983305 87.374 55.7909966 87.0099982 55.6836627 86.7626673 55.6019969 86.632 55.5459966L86.87 54.4259966C87.0193341 54.4819969 87.2573317 54.565996 87.584 54.6779966 87.9106683 54.7899971 88.344664 54.8459966 88.886 54.8459966zM94.738 55.7839966L93.436 55.7839966 93.436 48.5039966 94.738 48.5039966 94.738 55.7839966zM94.08 47.1879966C93.8466655 47.1879966 93.6483342 47.1109974 93.485 46.9569966 93.3216659 46.8029958 93.24 46.5953312 93.24 46.3339966 93.24 46.0726619 93.3216659 45.8649974 93.485 45.7109966 93.6483342 45.5569958 93.8466655 45.4799966 94.08 45.4799966 94.3133345 45.4799966 94.5116658 45.5569958 94.675 45.7109966 94.8383342 45.8649974 94.92 46.0726619 94.92 46.3339966 94.92 46.5953312 94.8383342 46.8029958 94.675 46.9569966 94.5116658 47.1109974 94.3133345 47.1879966 94.08 47.1879966zM101.542 55.0559966C101.429999 55.1306636 101.213002 55.2263293 100.891 55.3429966 100.568998 55.4596638 100.193335 55.5179966 99.764 55.5179966 99.3253311 55.5179966 98.9123353 55.4479973 98.525 55.3079966 98.1376647 55.1679959 97.7993348 54.9509981 97.51 54.6569966 97.2206652 54.3629951 96.9920008 53.9966654 96.824 53.5579966 96.6559992 53.1193277 96.572 52.5966663 96.572 51.9899966 96.572 51.4579939 96.6513325 50.9703321 96.81 50.5269966 96.9686675 50.083661 97.1996652 49.7009982 97.503 49.3789966 97.8063349 49.056995 98.1773311 48.8049975 98.616 48.6229966 99.0546689 48.4409957 99.5493306 48.3499966 100.1 48.3499966 100.70667 48.3499966 101.236331 48.3943295 101.689 48.4829966 102.141669 48.5716637 102.521998 48.6533295 102.83 48.7279966L102.83 55.2239966C102.83 56.3440022 102.54067 57.1559941 101.962 57.6599966 101.38333 58.1639991 100.506006 58.4159966 99.33 58.4159966 98.8726644 58.4159966 98.441002 58.3786636 98.035 58.3039966 97.628998 58.2293295 97.2766682 58.1406638 96.978 58.0379966L97.216 56.9039966C97.4773346 57.0066638 97.7969981 57.0976629 98.175 57.1769966 98.5530019 57.2563303 98.9473313 57.2959966 99.358 57.2959966 100.132671 57.2959966 100.690332 57.1419981 101.031 56.8339966 101.371668 56.525995 101.542 56.0359999 101.542 55.3639966L101.542 55.0559966zM101.528 49.6519966C101.397333 49.6146631 101.222334 49.5796634 101.003 49.5469966 100.783666 49.5143298 100.487335 49.4979966 100.114 49.4979966 99.4139965 49.4979966 98.8750019 49.726661 98.497 50.1839966 98.1189981 50.6413322 97.93 51.2479928 97.93 52.0039966 97.93 52.4239987 97.9836661 52.7833284 98.091 53.0819966 98.1983339 53.3806647 98.3429991 53.6279956 98.525 53.8239966 98.7070009 54.0199976 98.9169988 54.1646628 99.155 54.2579966 99.3930012 54.3513304 99.6379987 54.3979966 99.89 54.3979966 100.235335 54.3979966 100.552665 54.3489971 100.842 54.2509966 101.131335 54.1529961 101.359999 54.0386639 101.528 53.9079966L101.528 49.6519966zM105.07 48.7139966C105.368668 48.6393295 105.765331 48.559997 106.26 48.4759966 106.754669 48.3919962 107.323997 48.3499966 107.968 48.3499966 108.54667 48.3499966 109.027331 48.4316624 109.41 48.5949966 109.792669 48.7583307 110.098332 48.9869951 110.327 49.2809966 110.555668 49.5749981 110.716666 49.9273279 110.81 50.3379966 110.903334 50.7486653 110.95 51.2013274 110.95 51.6959966L110.95 55.7839966 109.648 55.7839966 109.648 51.9759966C109.648 51.5279943 109.617667 51.1453315 109.557 50.8279966 109.496333 50.5106617 109.396001 50.2539976 109.256 50.0579966 109.115999 49.8619956 108.929335 49.7196637 108.696 49.6309966 108.462666 49.5423295 108.173335 49.4979966 107.828 49.4979966 107.687999 49.4979966 107.543334 49.5026632 107.394 49.5119966 107.244666 49.52133 107.102334 49.5329965 106.967 49.5469966 106.831666 49.5609967 106.710334 49.5773298 106.603 49.5959966 106.495666 49.6146633 106.418667 49.6286632 106.372 49.6379966L106.372 55.7839966 105.07 55.7839966 105.07 48.7139966z"/>
  </g>
</svg>
