<svg xmlns="http://www.w3.org/2000/svg" width="160" height="80" viewBox="0 0 160 80">
  <g fill="none" fill-rule="evenodd" transform="translate(0 8)">
    <ellipse cx="31.5" cy="31.721" fill="#4E4B49" rx="31.5" ry="31.683"/>
    <path fill="#FFFFFF" d="M21.33936 20.5124154C24.4641756 20.5124154 26.8631916 21.0617699 28.53648 22.1604954 30.2097684 23.2592209 31.0464 25.0584829 31.0464 27.5583354 31.0464 30.078348 30.1996885 31.8977698 28.50624 33.0166554 26.8127915 34.135541 24.3936157 34.6949754 21.24864 34.6949754L19.76688 34.6949754 19.76688 41.7106554 15.04944 41.7106554 15.04944 21.0567354C16.0776051 20.8551344 17.1662343 20.7140158 18.31536 20.6333754 19.4644857 20.552735 20.4724757 20.5124154 21.33936 20.5124154zM21.64176 24.5343354C21.2990383 24.5343354 20.9613617 24.5444153 20.62872 24.5645754 20.2960783 24.5847355 20.0088012 24.6048953 19.76688 24.6250554L19.76688 30.6730554 21.24864 30.6730554C22.8816082 30.6730554 24.1113559 30.4512976 24.93792 30.0077754 25.7644841 29.5642532 26.17776 28.7377014 26.17776 27.5280954 26.17776 26.9434525 26.0719211 26.4596173 25.86024 26.0765754 25.6485589 25.6935335 25.346162 25.3860966 24.95304 25.1542554 24.559918 24.9224142 24.0811228 24.7611359 23.51664 24.6704154 22.9521572 24.5796949 22.3272034 24.5343354 21.64176 24.5343354zM38.06208 33.6365754C38.06208 35.0276224 38.3745569 36.1464912 38.99952 36.9932154 39.6244831 37.8399396 40.5518339 38.2632954 41.7816 38.2632954 42.184802 38.2632954 42.5577583 38.2481756 42.90048 38.2179354 43.2432017 38.1876952 43.5254389 38.1524156 43.7472 38.1120954L43.7472 29.9170554C43.4649586 29.7356145 43.0970423 29.584416 42.64344 29.4634554 42.1898377 29.3424948 41.7312023 29.2820154 41.26752 29.2820154 39.1305493 29.2820154 38.06208 30.7335209 38.06208 33.6365754zM48.25296 41.1965754C47.849758 41.317536 47.3860826 41.4334548 46.86192 41.5443354 46.3377574 41.655216 45.7884029 41.750975 45.21384 41.8316154 44.6392771 41.9122558 44.054643 41.9777751 43.45992 42.0281754 42.865197 42.0785757 42.2956827 42.1037754 41.75136 42.1037754 40.4409534 42.1037754 39.2716851 41.9122573 38.24352 41.5292154 37.2153549 41.1461735 36.3484835 40.596819 35.64288 39.8811354 34.9372765 39.1654518 34.3980019 38.2985805 34.02504 37.2804954 33.6520781 36.2624103 33.4656 35.1183417 33.4656 33.8482554 33.4656 32.5580089 33.6268784 31.3937806 33.94944 30.3555354 34.2720016 29.3172902 34.735677 28.435299 35.34048 27.7095354 35.945283 26.9837718 36.6861556 26.4293773 37.56312 26.0463354 38.4400844 25.6632935 39.4430344 25.4717754 40.572 25.4717754 41.1969631 25.4717754 41.7563975 25.5322548 42.25032 25.6532154 42.7442425 25.774176 43.2431975 25.9455343 43.7472 26.1672954L43.7472 18.9701754 48.25296 18.2444154 48.25296 41.1965754zM78.174 21.374C78.174 20.5246624 77.9640021 19.8713356 77.544 19.414 77.1239979 18.9566644 76.5640035 18.728 75.864 18.728 75.471998 18.728 75.1663344 18.7419999 74.947 18.77 74.7276656 18.7980001 74.5526673 18.8306665 74.422 18.868L74.422 23.46C74.5806675 23.5906673 74.8093318 23.7166661 75.108 23.838 75.4066682 23.9593339 75.7333316 24.02 76.088 24.02 76.4613352 24.02 76.7809987 23.952334 77.047 23.817 77.3130013 23.681666 77.5299992 23.4950012 77.698 23.257 77.8660008 23.0189988 77.987333 22.7390016 78.062 22.417 78.136667 22.0949984 78.174 21.7473352 78.174 21.374zM79.532 21.374C79.532 21.9246694 79.4596674 22.433331 79.315 22.9 79.1703326 23.366669 78.9580014 23.7679983 78.678 24.104 78.3979986 24.4400017 78.055002 24.7013324 77.649 24.888 77.242998 25.0746676 76.7786693 25.168 76.256 25.168 75.8359979 25.168 75.4650016 25.1120006 75.143 25 74.8209984 24.8879994 74.5806675 24.7806672 74.422 24.678L74.422 27.59 73.12 27.59 73.12 17.944C73.4280015 17.869333 73.8129977 17.7876671 74.275 17.699 74.7370023 17.6103329 75.2713303 17.566 75.878 17.566 76.4380028 17.566 76.9419978 17.6546658 77.39 17.832 77.8380022 18.0093342 78.2206651 18.2613317 78.538 18.588 78.8553349 18.9146683 79.1003325 19.3136643 79.273 19.785 79.4456675 20.2563357 79.532 20.7859971 79.532 21.374zM84.054 17.566C84.1660006 17.566 84.2943326 17.5729999 84.439 17.587 84.5836674 17.6010001 84.7259993 17.6196665 84.866 17.643 85.0060007 17.6663334 85.1343327 17.6896665 85.251 17.713 85.3676672 17.7363334 85.4539997 17.7573332 85.51 17.776L85.286 18.91C85.1833328 18.8726665 85.0130012 18.8283336 84.775 18.777 84.5369988 18.7256664 84.2313352 18.7 83.858 18.7 83.6153321 18.7 83.3750012 18.7256664 83.137 18.777 82.8989988 18.8283336 82.742667 18.8633332 82.668 18.882L82.668 25 81.366 25 81.366 18.028C81.6740015 17.9159994 82.0566644 17.8110005 82.514 17.713 82.9713356 17.6149995 83.4846638 17.566 84.054 17.566zM93.196 21.36C93.196 21.9386696 93.1120008 22.461331 92.944 22.928 92.7759992 23.394669 92.5403348 23.7959983 92.237 24.132 91.9336651 24.4680017 91.5720021 24.7269991 91.152 24.909 90.7319979 25.0910009 90.2746691 25.182 89.78 25.182 89.2853309 25.182 88.8280021 25.0910009 88.408 24.909 87.9879979 24.7269991 87.6263349 24.4680017 87.323 24.132 87.0196651 23.7959983 86.7840008 23.394669 86.616 22.928 86.4479992 22.461331 86.364 21.9386696 86.364 21.36 86.364 20.7906638 86.4479992 20.2703357 86.616 19.799 86.7840008 19.3276643 87.0196651 18.9240017 87.323 18.588 87.6263349 18.2519983 87.9879979 17.9930009 88.408 17.811 88.8280021 17.6289991 89.2853309 17.538 89.78 17.538 90.2746691 17.538 90.7319979 17.6289991 91.152 17.811 91.5720021 17.9930009 91.9336651 18.2519983 92.237 18.588 92.5403348 18.9240017 92.7759992 19.3276643 92.944 19.799 93.1120008 20.2703357 93.196 20.7906638 93.196 21.36zM91.838 21.36C91.838 20.5386626 91.6536685 19.8876691 91.285 19.407 90.9163315 18.9263309 90.4146698 18.686 89.78 18.686 89.1453302 18.686 88.6436685 18.9263309 88.275 19.407 87.9063315 19.8876691 87.722 20.5386626 87.722 21.36 87.722 22.1813374 87.9063315 22.8323309 88.275 23.313 88.6436685 23.7936691 89.1453302 24.034 89.78 24.034 90.4146698 24.034 90.9163315 23.7936691 91.285 23.313 91.6536685 22.8323309 91.838 22.1813374 91.838 21.36zM99.734 19.26C99.5753325 19.1293327 99.3466682 19.0033339 99.048 18.882 98.7493318 18.7606661 98.4226684 18.7 98.068 18.7 97.6946648 18.7 97.3750013 18.767666 97.109 18.903 96.8429987 19.038334 96.6260008 19.2249988 96.458 19.463 96.2899992 19.7010012 96.168667 19.9833317 96.094 20.31 96.019333 20.6366683 95.982 20.9866648 95.982 21.36 95.982 22.2093376 96.1919979 22.8649977 96.612 23.327 97.0320021 23.7890023 97.5919965 24.02 98.292 24.02 98.6466684 24.02 98.9429988 24.0036668 99.181 23.971 99.4190012 23.9383332 99.6033327 23.9033335 99.734 23.866L99.734 19.26zM99.734 14.36L101.036 14.136 101.036 24.79C100.737332 24.8740004 100.354669 24.9579996 99.888 25.042 99.421331 25.1260004 98.8846697 25.168 98.278 25.168 97.7179972 25.168 97.2140022 25.0793342 96.766 24.902 96.3179978 24.7246658 95.9353349 24.4726683 95.618 24.146 95.3006651 23.8193317 95.0556675 23.4203357 94.883 22.949 94.7103325 22.4776643 94.624 21.9480029 94.624 21.36 94.624 20.7999972 94.6963326 20.286669 94.841 19.82 94.9856674 19.353331 95.1979986 18.9520017 95.478 18.616 95.7580014 18.2799983 96.100998 18.0186676 96.507 17.832 96.913002 17.6453324 97.3773307 17.552 97.9 17.552 98.3200021 17.552 98.6909984 17.6079994 99.013 17.72 99.3350016 17.8320006 99.5753325 17.9393328 99.734 18.042L99.734 14.36zM109.072 24.79C108.773332 24.864667 108.379002 24.9439996 107.889 25.028 107.398998 25.1120004 106.832003 25.154 106.188 25.154 105.627997 25.154 105.156669 25.0723341 104.774 24.909 104.391331 24.7456658 104.083335 24.5146682 103.85 24.216 103.616665 23.9173318 103.448667 23.565002 103.346 23.159 103.243333 22.752998 103.192 22.3026691 103.192 21.808L103.192 17.72 104.494 17.72 104.494 21.528C104.494 22.4146711 104.633999 23.0493314 104.914 23.432 105.194001 23.8146686 105.66533 24.006 106.328 24.006 106.468001 24.006 106.612666 24.0013334 106.762 23.992 106.911334 23.9826666 107.051333 23.9710001 107.182 23.957 107.312667 23.9429999 107.431666 23.9290001 107.539 23.915 107.646334 23.9009999 107.723333 23.8846668 107.77 23.866L107.77 17.72 109.072 17.72 109.072 24.79zM114.476 25.168C113.887997 25.168 113.372336 25.0746676 112.929 24.888 112.485664 24.7013324 112.112335 24.4400017 111.809 24.104 111.505665 23.7679983 111.279334 23.3690023 111.13 22.907 110.980666 22.4449977 110.906 21.9340028 110.906 21.374 110.906 20.8139972 110.987666 20.300669 111.151 19.834 111.314334 19.367331 111.545332 18.9636684 111.844 18.623 112.142668 18.2823316 112.508998 18.0163343 112.943 17.825 113.377002 17.6336657 113.859997 17.538 114.392 17.538 114.718668 17.538 115.045332 17.5659997 115.372 17.622 115.698668 17.6780003 116.011332 17.7666661 116.31 17.888L116.016 18.994C115.819999 18.9006662 115.593668 18.8260003 115.337 18.77 115.080332 18.7139997 114.807335 18.686 114.518 18.686 113.789996 18.686 113.232335 18.9146644 112.845 19.372 112.457665 19.8293356 112.264 20.4966623 112.264 21.374 112.264 21.766002 112.308333 22.1253317 112.397 22.452 112.485667 22.7786683 112.625666 23.0586655 112.817 23.292 113.008334 23.5253345 113.253332 23.7049994 113.552 23.831 113.850668 23.9570006 114.214665 24.02 114.644 24.02 114.989335 24.02 115.301999 23.9873337 115.582 23.922 115.862001 23.8566663 116.081333 23.786667 116.24 23.712L116.422 24.804C116.347333 24.8506669 116.240001 24.8949998 116.1 24.937 115.959999 24.9790002 115.801334 25.0163332 115.624 25.049 115.446666 25.0816668 115.257668 25.1096665 115.057 25.133 114.856332 25.1563334 114.662668 25.168 114.476 25.168zM119.04 17.72L121.798 17.72 121.798 18.812 119.04 18.812 119.04 22.172C119.04 22.5360018 119.068 22.8369988 119.124 23.075 119.18 23.3130012 119.263999 23.499666 119.376 23.635 119.488001 23.770334 119.627999 23.8659997 119.796 23.922 119.964001 23.9780003 120.159999 24.006 120.384 24.006 120.776002 24.006 121.090999 23.9616671 121.329 23.873 121.567001 23.7843329 121.732666 23.7213335 121.826 23.684L122.078 24.762C121.947333 24.8273337 121.718668 24.9089995 121.392 25.007 121.065332 25.1050005 120.692002 25.154 120.272 25.154 119.777331 25.154 119.369002 25.0910006 119.047 24.965 118.724998 24.8389994 118.466001 24.6500013 118.27 24.398 118.073999 24.1459987 117.936334 23.8356685 117.857 23.467 117.777666 23.0983315 117.738 22.6713358 117.738 22.186L117.738 15.69 119.04 15.466 119.04 17.72zM77.824 39.6519983C77.6653325 39.521331 77.4366682 39.3953322 77.138 39.2739983 76.8393318 39.1526644 76.5126684 39.0919983 76.158 39.0919983 75.7846648 39.0919983 75.4650013 39.1596643 75.199 39.2949983 74.9329987 39.4303323 74.7160008 39.6169971 74.548 39.8549983 74.3799992 40.0929995 74.258667 40.37533 74.184 40.7019983 74.109333 41.0286666 74.072 41.3786631 74.072 41.7519983 74.072 42.6013359 74.2819979 43.256996 74.702 43.7189983 75.1220021 44.1810006 75.6819965 44.4119983 76.382 44.4119983 76.7366684 44.4119983 77.0329988 44.3956651 77.271 44.3629983 77.5090012 44.3303315 77.6933327 44.2953318 77.824 44.2579983L77.824 39.6519983zM77.824 34.7519983L79.126 34.5279983 79.126 45.1819983C78.8273318 45.2659987 78.444669 45.3499979 77.978 45.4339983 77.511331 45.5179987 76.9746697 45.5599983 76.368 45.5599983 75.8079972 45.5599983 75.3040022 45.4713325 74.856 45.2939983 74.4079978 45.1166641 74.0253349 44.8646666 73.708 44.5379983 73.3906651 44.21133 73.1456675 43.812334 72.973 43.3409983 72.8003325 42.8696626 72.714 42.3400012 72.714 41.7519983 72.714 41.1919955 72.7863326 40.6786673 72.931 40.2119983 73.0756674 39.7453293 73.2879986 39.344 73.568 39.0079983 73.8480014 38.6719966 74.190998 38.4106659 74.597 38.2239983 75.003002 38.0373307 75.4673307 37.9439983 75.99 37.9439983 76.4100021 37.9439983 76.7809984 37.9999977 77.103 38.1119983 77.4250016 38.2239989 77.6653325 38.3313311 77.824 38.4339983L77.824 34.7519983zM80.96 41.7659983C80.96 41.1219951 81.0533324 40.5596674 81.24 40.0789983 81.4266676 39.5983292 81.6739985 39.1993332 81.982 38.8819983 82.2900015 38.5646634 82.6446647 38.3266658 83.046 38.1679983 83.4473353 38.0093308 83.8579979 37.9299983 84.278 37.9299983 85.2580049 37.9299983 86.0093307 38.2356619 86.532 38.8469983 87.0546693 39.4583347 87.316 40.3893254 87.316 41.6399983L87.316 41.8569983C87.316 41.9456654 87.3113334 42.0273313 87.302 42.1019983L82.318 42.1019983C82.3740003 42.8580021 82.5933314 43.4319963 82.976 43.8239983 83.3586686 44.2160003 83.9559959 44.4119983 84.768 44.4119983 85.2253356 44.4119983 85.6103318 44.372332 85.923 44.2929983 86.2356682 44.2136646 86.4713325 44.1366653 86.63 44.0619983L86.812 45.1539983C86.6533325 45.2379987 86.3756686 45.3266645 85.979 45.4199983 85.5823314 45.5133321 85.1320025 45.5599983 84.628 45.5599983 83.9933302 45.5599983 83.4450023 45.4643326 82.983 45.2729983 82.5209977 45.081664 82.1406682 44.818 81.842 44.4819983 81.5433318 44.1459966 81.3216674 43.7470006 81.177 43.2849983 81.0323326 42.822996 80.96 42.3166677 80.96 41.7659983zM85.958 41.0519983C85.9673334 40.4639954 85.8203348 39.9810002 85.517 39.6029983 85.2136651 39.2249964 84.7960027 39.0359983 84.264 39.0359983 83.9653318 39.0359983 83.7016678 39.094331 83.473 39.2109983 83.2443322 39.3276655 83.0506675 39.4793307 82.892 39.6659983 82.7333325 39.8526659 82.6096671 40.0673304 82.521 40.3099983 82.4323329 40.5526662 82.3740001 40.799997 82.346 41.0519983L85.958 41.0519983zM90.886 44.4539983C91.4180027 44.4539983 91.8123321 44.383999 92.069 44.2439983 92.3256679 44.1039976 92.454 43.8799998 92.454 43.5719983 92.454 43.2546634 92.3280013 43.0026659 92.076 42.8159983 91.8239987 42.6293307 91.4086696 42.4193328 90.83 42.1859983 90.5499986 42.0739977 90.2816679 41.9596655 90.025 41.8429983 89.768332 41.726331 89.5466676 41.5886658 89.36 41.4299983 89.1733324 41.2713308 89.0240006 41.0799994 88.912 40.8559983 88.7999994 40.6319972 88.744 40.3566666 88.744 40.0299983 88.744 39.3859951 88.9819976 38.8750002 89.458 38.4969983 89.9340024 38.1189964 90.5826626 37.9299983 91.404 37.9299983 91.6093344 37.9299983 91.8146656 37.9416648 92.02 37.9649983 92.2253344 37.9883317 92.4166658 38.0163315 92.594 38.0489983 92.7713342 38.0816651 92.927666 38.1166648 93.063 38.1539983 93.198334 38.1913318 93.303333 38.2239982 93.378 38.2519983L93.14 39.3719983C92.9999993 39.2973313 92.7806682 39.220332 92.482 39.1409983 92.1833318 39.0616646 91.8240021 39.0219983 91.404 39.0219983 91.0399982 39.0219983 90.722668 39.0943309 90.452 39.2389983 90.181332 39.3836657 90.046 39.6099968 90.046 39.9179983 90.046 40.0766658 90.076333 40.2166644 90.137 40.3379983 90.197667 40.4593322 90.2909994 40.5689978 90.417 40.6669983 90.5430006 40.7649988 90.6993324 40.8559979 90.886 40.9399983 91.0726676 41.0239987 91.2966654 41.1126645 91.558 41.2059983 91.9033351 41.3366656 92.211332 41.4649977 92.482 41.5909983 92.752668 41.7169989 92.9836657 41.8639975 93.175 42.0319983 93.3663343 42.1999991 93.5133328 42.4029971 93.616 42.6409983 93.7186672 42.8789995 93.77 43.1706632 93.77 43.5159983 93.77 44.1880017 93.5203358 44.6966632 93.021 45.0419983 92.5216642 45.3873334 91.8100046 45.5599983 90.886 45.5599983 90.2419968 45.5599983 89.7380018 45.5063322 89.374 45.3989983 89.0099982 45.2916644 88.7626673 45.2099986 88.632 45.1539983L88.87 44.0339983C89.0193341 44.0899986 89.2573317 44.1739977 89.584 44.2859983 89.9106683 44.3979989 90.344664 44.4539983 90.886 44.4539983zM96.738 45.3919983L95.436 45.3919983 95.436 38.1119983 96.738 38.1119983 96.738 45.3919983zM96.08 36.7959983C95.8466655 36.7959983 95.6483342 36.7189991 95.485 36.5649983 95.3216659 36.4109975 95.24 36.2033329 95.24 35.9419983 95.24 35.6806637 95.3216659 35.4729991 95.485 35.3189983 95.6483342 35.1649975 95.8466655 35.0879983 96.08 35.0879983 96.3133345 35.0879983 96.5116658 35.1649975 96.675 35.3189983 96.8383342 35.4729991 96.92 35.6806637 96.92 35.9419983 96.92 36.2033329 96.8383342 36.4109975 96.675 36.5649983 96.5116658 36.7189991 96.3133345 36.7959983 96.08 36.7959983zM103.542 44.6639983C103.429999 44.7386653 103.213002 44.834331 102.891 44.9509983 102.568998 45.0676655 102.193335 45.1259983 101.764 45.1259983 101.325331 45.1259983 100.912335 45.055999 100.525 44.9159983 100.137665 44.7759976 99.7993348 44.5589998 99.51 44.2649983 99.2206652 43.9709968 98.9920008 43.6046672 98.824 43.1659983 98.6559992 42.7273294 98.572 42.204668 98.572 41.5979983 98.572 41.0659956 98.6513325 40.5783338 98.81 40.1349983 98.9686675 39.6916627 99.1996652 39.3089999 99.503 38.9869983 99.8063349 38.6649967 100.177331 38.4129992 100.616 38.2309983 101.054669 38.0489974 101.549331 37.9579983 102.1 37.9579983 102.70667 37.9579983 103.236331 38.0023312 103.689 38.0909983 104.141669 38.1796654 104.521998 38.2613313 104.83 38.3359983L104.83 44.8319983C104.83 45.9520039 104.54067 46.7639958 103.962 47.2679983 103.38333 47.7720008 102.506006 48.0239983 101.33 48.0239983 100.872664 48.0239983 100.441002 47.9866653 100.035 47.9119983 99.628998 47.8373313 99.2766682 47.7486655 98.978 47.6459983L99.216 46.5119983C99.4773346 46.6146655 99.7969981 46.7056646 100.175 46.7849983 100.553002 46.864332 100.947331 46.9039983 101.358 46.9039983 102.132671 46.9039983 102.690332 46.7499998 103.031 46.4419983 103.371668 46.1339968 103.542 45.6440017 103.542 44.9719983L103.542 44.6639983zM103.528 39.2599983C103.397333 39.2226648 103.222334 39.1876651 103.003 39.1549983 102.783666 39.1223315 102.487335 39.1059983 102.114 39.1059983 101.413996 39.1059983 100.875002 39.3346627 100.497 39.7919983 100.118998 40.2493339 99.93 40.8559945 99.93 41.6119983 99.93 42.0320004 99.9836661 42.3913301 100.091 42.6899983 100.198334 42.9886665 100.342999 43.2359973 100.525 43.4319983 100.707001 43.6279993 100.916999 43.7726645 101.155 43.8659983 101.393001 43.9593321 101.637999 44.0059983 101.89 44.0059983 102.235335 44.0059983 102.552665 43.9569988 102.842 43.8589983 103.131335 43.7609978 103.359999 43.6466656 103.528 43.5159983L103.528 39.2599983zM107.07 38.3219983C107.368668 38.2473313 107.765331 38.1679987 108.26 38.0839983 108.754669 37.9999979 109.323997 37.9579983 109.968 37.9579983 110.54667 37.9579983 111.027331 38.0396641 111.41 38.2029983 111.792669 38.3663324 112.098332 38.5949968 112.327 38.8889983 112.555668 39.1829998 112.716666 39.5353296 112.81 39.9459983 112.903334 40.356667 112.95 40.8093292 112.95 41.3039983L112.95 45.3919983 111.648 45.3919983 111.648 41.5839983C111.648 41.1359961 111.617667 40.7533332 111.557 40.4359983 111.496333 40.1186634 111.396001 39.8619993 111.256 39.6659983 111.115999 39.4699973 110.929335 39.3276654 110.696 39.2389983 110.462666 39.1503312 110.173335 39.1059983 109.828 39.1059983 109.687999 39.1059983 109.543334 39.1106649 109.394 39.1199983 109.244666 39.1293317 109.102334 39.1409982 108.967 39.1549983 108.831666 39.1689984 108.710334 39.1853315 108.603 39.2039983 108.495666 39.2226651 108.418667 39.2366649 108.372 39.2459983L108.372 45.3919983 107.07 45.3919983 107.07 38.3219983z"/>
  </g>
</svg>
