<svg xmlns="http://www.w3.org/2000/svg" width="160" height="80" viewBox="0 0 160 80">
  <g fill="none" fill-rule="evenodd" transform="translate(0 8)">
    <ellipse cx="31.5" cy="32.188" fill="#00AAD6" rx="31.5" ry="31.683"/>
    <text fill="#FFFFFF" font-family="Ubuntu-Bold, Ubuntu" font-size="30.24" font-weight="bold">
      <tspan x="7.489" y="41.087">Pp</tspan>
    </text>
    <path fill="#2591BF" d="M76.174,11.374 C76.174,10.5246624 75.9640021,9.87133562 75.544,9.414 C75.1239979,8.95666438 74.5640035,8.728 73.864,8.728 C73.471998,8.728 73.1663344,8.74199986 72.947,8.77 C72.7276656,8.79800014 72.5526673,8.83066648 72.422,8.868 L72.422,13.46 C72.5806675,13.5906673 72.8093318,13.7166661 73.108,13.838 C73.4066682,13.9593339 73.7333316,14.02 74.088,14.02 C74.4613352,14.02 74.7809987,13.952334 75.047,13.817 C75.3130013,13.681666 75.5299992,13.4950012 75.698,13.257 C75.8660008,13.0189988 75.987333,12.7390016 76.062,12.417 C76.136667,12.0949984 76.174,11.7473352 76.174,11.374 Z M77.532,11.374 C77.532,11.9246694 77.4596674,12.433331 77.315,12.9 C77.1703326,13.366669 76.9580014,13.7679983 76.678,14.104 C76.3979986,14.4400017 76.055002,14.7013324 75.649,14.888 C75.242998,15.0746676 74.7786693,15.168 74.256,15.168 C73.8359979,15.168 73.4650016,15.1120006 73.143,15 C72.8209984,14.8879994 72.5806675,14.7806672 72.422,14.678 L72.422,17.59 L71.12,17.59 L71.12,7.944 C71.4280015,7.86933296 71.8129977,7.78766711 72.275,7.699 C72.7370023,7.61033289 73.2713303,7.566 73.878,7.566 C74.4380028,7.566 74.9419978,7.65466578 75.39,7.832 C75.8380022,8.00933422 76.2206651,8.2613317 76.538,8.588 C76.8553349,8.9146683 77.1003325,9.31366431 77.273,9.785 C77.4456675,10.2563357 77.532,10.7859971 77.532,11.374 Z M82.054,7.566 C82.1660006,7.566 82.2943326,7.57299993 82.439,7.587 C82.5836674,7.60100007 82.7259993,7.61966655 82.866,7.643 C83.0060007,7.66633345 83.1343327,7.68966655 83.251,7.713 C83.3676672,7.73633345 83.4539997,7.75733324 83.51,7.776 L83.286,8.91 C83.1833328,8.87266648 83.0130012,8.82833359 82.775,8.777 C82.5369988,8.72566641 82.2313352,8.7 81.858,8.7 C81.6153321,8.7 81.3750012,8.72566641 81.137,8.777 C80.8989988,8.82833359 80.742667,8.86333324 80.668,8.882 L80.668,15 L79.366,15 L79.366,8.028 C79.6740015,7.91599944 80.0566644,7.81100049 80.514,7.713 C80.9713356,7.61499951 81.4846638,7.566 82.054,7.566 Z M91.196,11.36 C91.196,11.9386696 91.1120008,12.461331 90.944,12.928 C90.7759992,13.394669 90.5403348,13.7959983 90.237,14.132 C89.9336651,14.4680017 89.5720021,14.7269991 89.152,14.909 C88.7319979,15.0910009 88.2746691,15.182 87.78,15.182 C87.2853309,15.182 86.8280021,15.0910009 86.408,14.909 C85.9879979,14.7269991 85.6263349,14.4680017 85.323,14.132 C85.0196651,13.7959983 84.7840008,13.394669 84.616,12.928 C84.4479992,12.461331 84.364,11.9386696 84.364,11.36 C84.364,10.7906638 84.4479992,10.2703357 84.616,9.799 C84.7840008,9.32766431 85.0196651,8.92400168 85.323,8.588 C85.6263349,8.25199832 85.9879979,7.99300091 86.408,7.811 C86.8280021,7.62899909 87.2853309,7.538 87.78,7.538 C88.2746691,7.538 88.7319979,7.62899909 89.152,7.811 C89.5720021,7.99300091 89.9336651,8.25199832 90.237,8.588 C90.5403348,8.92400168 90.7759992,9.32766431 90.944,9.799 C91.1120008,10.2703357 91.196,10.7906638 91.196,11.36 Z M89.838,11.36 C89.838,10.5386626 89.6536685,9.88766907 89.285,9.407 C88.9163315,8.92633093 88.4146698,8.686 87.78,8.686 C87.1453302,8.686 86.6436685,8.92633093 86.275,9.407 C85.9063315,9.88766907 85.722,10.5386626 85.722,11.36 C85.722,12.1813374 85.9063315,12.8323309 86.275,13.313 C86.6436685,13.7936691 87.1453302,14.034 87.78,14.034 C88.4146698,14.034 88.9163315,13.7936691 89.285,13.313 C89.6536685,12.8323309 89.838,12.1813374 89.838,11.36 Z M97.734,9.26 C97.5753325,9.12933268 97.3466682,9.00333394 97.048,8.882 C96.7493318,8.76066606 96.4226684,8.7 96.068,8.7 C95.6946648,8.7 95.3750013,8.76766599 95.109,8.903 C94.8429987,9.03833401 94.6260008,9.22499881 94.458,9.463 C94.2899992,9.70100119 94.168667,9.9833317 94.094,10.31 C94.019333,10.6366683 93.982,10.9866648 93.982,11.36 C93.982,12.2093376 94.1919979,12.8649977 94.612,13.327 C95.0320021,13.7890023 95.5919965,14.02 96.292,14.02 C96.6466684,14.02 96.9429988,14.0036668 97.181,13.971 C97.4190012,13.9383332 97.6033327,13.9033335 97.734,13.866 L97.734,9.26 Z M97.734,4.36 L99.036,4.136 L99.036,14.79 C98.7373318,14.8740004 98.354669,14.9579996 97.888,15.042 C97.421331,15.1260004 96.8846697,15.168 96.278,15.168 C95.7179972,15.168 95.2140022,15.0793342 94.766,14.902 C94.3179978,14.7246658 93.9353349,14.4726683 93.618,14.146 C93.3006651,13.8193317 93.0556675,13.4203357 92.883,12.949 C92.7103325,12.4776643 92.624,11.9480029 92.624,11.36 C92.624,10.7999972 92.6963326,10.286669 92.841,9.82 C92.9856674,9.353331 93.1979986,8.95200168 93.478,8.616 C93.7580014,8.27999832 94.100998,8.0186676 94.507,7.832 C94.913002,7.6453324 95.3773307,7.552 95.9,7.552 C96.3200021,7.552 96.6909984,7.60799944 97.013,7.72 C97.3350016,7.83200056 97.5753325,7.93933282 97.734,8.042 L97.734,4.36 Z M107.072,14.79 C106.773332,14.864667 106.379002,14.9439996 105.889,15.028 C105.398998,15.1120004 104.832003,15.154 104.188,15.154 C103.627997,15.154 103.156669,15.0723341 102.774,14.909 C102.391331,14.7456658 102.083335,14.5146682 101.85,14.216 C101.616666,13.9173318 101.448667,13.565002 101.346,13.159 C101.243333,12.752998 101.192,12.3026691 101.192,11.808 L101.192,7.72 L102.494,7.72 L102.494,11.528 C102.494,12.4146711 102.633999,13.0493314 102.914,13.432 C103.194001,13.8146686 103.66533,14.006 104.328,14.006 C104.468001,14.006 104.612666,14.0013334 104.762,13.992 C104.911334,13.9826666 105.051333,13.9710001 105.182,13.957 C105.312667,13.9429999 105.431666,13.9290001 105.539,13.915 C105.646334,13.9009999 105.723333,13.8846668 105.77,13.866 L105.77,7.72 L107.072,7.72 L107.072,14.79 Z M112.476,15.168 C111.887997,15.168 111.372336,15.0746676 110.929,14.888 C110.485664,14.7013324 110.112335,14.4400017 109.809,14.104 C109.505665,13.7679983 109.279334,13.3690023 109.13,12.907 C108.980666,12.4449977 108.906,11.9340028 108.906,11.374 C108.906,10.8139972 108.987666,10.300669 109.151,9.834 C109.314334,9.367331 109.545332,8.96366837 109.844,8.623 C110.142668,8.28233163 110.508998,8.01633429 110.943,7.825 C111.377002,7.63366571 111.859997,7.538 112.392,7.538 C112.718668,7.538 113.045332,7.56599972 113.372,7.622 C113.698668,7.67800028 114.011332,7.76666606 114.31,7.888 L114.016,8.994 C113.819999,8.9006662 113.593668,8.82600028 113.337,8.77 C113.080332,8.71399972 112.807335,8.686 112.518,8.686 C111.789996,8.686 111.232335,8.91466438 110.845,9.372 C110.457665,9.82933562 110.264,10.4966623 110.264,11.374 C110.264,11.766002 110.308333,12.1253317 110.397,12.452 C110.485667,12.7786683 110.625666,13.0586655 110.817,13.292 C111.008334,13.5253345 111.253332,13.7049994 111.552,13.831 C111.850668,13.9570006 112.214665,14.02 112.644,14.02 C112.989335,14.02 113.301999,13.9873337 113.582,13.922 C113.862001,13.8566663 114.081333,13.786667 114.24,13.712 L114.422,14.804 C114.347333,14.8506669 114.240001,14.8949998 114.1,14.937 C113.959999,14.9790002 113.801334,15.0163332 113.624,15.049 C113.446666,15.0816668 113.257668,15.1096665 113.057,15.133 C112.856332,15.1563334 112.662668,15.168 112.476,15.168 Z M117.04,7.72 L119.798,7.72 L119.798,8.812 L117.04,8.812 L117.04,12.172 C117.04,12.5360018 117.068,12.8369988 117.124,13.075 C117.18,13.3130012 117.263999,13.499666 117.376,13.635 C117.488001,13.770334 117.627999,13.8659997 117.796,13.922 C117.964001,13.9780003 118.159999,14.006 118.384,14.006 C118.776002,14.006 119.090999,13.9616671 119.329,13.873 C119.567001,13.7843329 119.732666,13.7213335 119.826,13.684 L120.078,14.762 C119.947333,14.8273337 119.718668,14.9089995 119.392,15.007 C119.065332,15.1050005 118.692002,15.154 118.272,15.154 C117.777331,15.154 117.369002,15.0910006 117.047,14.965 C116.724998,14.8389994 116.466001,14.6500013 116.27,14.398 C116.073999,14.1459987 115.936334,13.8356685 115.857,13.467 C115.777666,13.0983315 115.738,12.6713358 115.738,12.186 L115.738,5.69 L117.04,5.466 L117.04,7.72 Z M76.174,31.7659983 C76.174,30.9166607 75.9640021,30.2633339 75.544,29.8059983 C75.1239979,29.3486627 74.5640035,29.1199983 73.864,29.1199983 C73.471998,29.1199983 73.1663344,29.1339982 72.947,29.1619983 C72.7276656,29.1899984 72.5526673,29.2226648 72.422,29.2599983 L72.422,33.8519983 C72.5806675,33.9826656 72.8093318,34.1086644 73.108,34.2299983 C73.4066682,34.3513322 73.7333316,34.4119983 74.088,34.4119983 C74.4613352,34.4119983 74.7809987,34.3443323 75.047,34.2089983 C75.3130013,34.0736643 75.5299992,33.8869995 75.698,33.6489983 C75.8660008,33.4109971 75.987333,33.1309999 76.062,32.8089983 C76.136667,32.4869967 76.174,32.1393335 76.174,31.7659983 Z M77.532,31.7659983 C77.532,32.3166677 77.4596674,32.8253293 77.315,33.2919983 C77.1703326,33.7586673 76.9580014,34.1599966 76.678,34.4959983 C76.3979986,34.832 76.055002,35.0933307 75.649,35.2799983 C75.242998,35.4666659 74.7786693,35.5599983 74.256,35.5599983 C73.8359979,35.5599983 73.4650016,35.5039989 73.143,35.3919983 C72.8209984,35.2799977 72.5806675,35.1726655 72.422,35.0699983 L72.422,37.9819983 L71.12,37.9819983 L71.12,28.3359983 C71.4280015,28.2613313 71.8129977,28.1796654 72.275,28.0909983 C72.7370023,28.0023312 73.2713303,27.9579983 73.878,27.9579983 C74.4380028,27.9579983 74.9419978,28.0466641 75.39,28.2239983 C75.8380022,28.4013325 76.2206651,28.65333 76.538,28.9799983 C76.8553349,29.3066666 77.1003325,29.7056626 77.273,30.1769983 C77.4456675,30.648334 77.532,31.1779954 77.532,31.7659983 Z M81.55,35.5319983 C80.7473293,35.5133315 80.1780017,35.3406666 79.842,35.0139983 C79.5059983,34.68733 79.338,34.1786684 79.338,33.4879983 L79.338,24.7519983 L80.64,24.5279983 L80.64,33.2779983 C80.64,33.492666 80.6586665,33.6699976 80.696,33.8099983 C80.7333335,33.949999 80.7939996,34.0619979 80.878,34.1459983 C80.9620004,34.2299987 81.0739993,34.2929981 81.214,34.3349983 C81.3540007,34.3769985 81.5266656,34.4119982 81.732,34.4399983 L81.55,35.5319983 Z M85.652,34.4539983 C85.9600015,34.4539983 86.2329988,34.4469984 86.471,34.4329983 C86.7090012,34.4189982 86.9073325,34.3933318 87.066,34.3559983 L87.066,32.1859983 C86.9726662,32.1393314 86.8210011,32.0996651 86.611,32.0669983 C86.400999,32.0343315 86.1466682,32.0179983 85.848,32.0179983 C85.651999,32.0179983 85.4443344,32.0319982 85.225,32.0599983 C85.0056656,32.0879984 84.8050009,32.1463312 84.623,32.2349983 C84.4409991,32.3236654 84.2893339,32.4449975 84.168,32.5989983 C84.0466661,32.7529991 83.986,32.955997 83.986,33.2079983 C83.986,33.6746673 84.1353318,33.9989974 84.434,34.1809983 C84.7326682,34.3629992 85.1386641,34.4539983 85.652,34.4539983 Z M85.54,27.9299983 C86.0626693,27.9299983 86.5036649,27.9976643 86.863,28.1329983 C87.2223351,28.2683323 87.5116656,28.4596637 87.731,28.7069983 C87.9503344,28.9543329 88.1066662,29.2483299 88.2,29.5889983 C88.2933338,29.9296667 88.34,30.3053296 88.34,30.7159983 L88.34,35.2659983 C88.2279994,35.2846651 88.0716677,35.3103315 87.871,35.3429983 C87.6703323,35.3756651 87.4440013,35.4059982 87.192,35.4339983 C86.9399987,35.4619984 86.6670015,35.4876648 86.373,35.5109983 C86.0789985,35.5343317 85.7873348,35.5459983 85.498,35.5459983 C85.0873313,35.5459983 84.7093351,35.5039987 84.364,35.4199983 C84.0186649,35.3359979 83.7200013,35.2029992 83.468,35.0209983 C83.2159987,34.8389974 83.0200007,34.5986665 82.88,34.2999983 C82.7399993,34.0013301 82.67,33.6420004 82.67,33.2219983 C82.67,32.820663 82.7516658,32.4753331 82.915,32.1859983 C83.0783342,31.8966635 83.2999986,31.6633325 83.58,31.4859983 C83.8600014,31.3086641 84.1866648,31.1779987 84.56,31.0939983 C84.9333352,31.0099979 85.3253313,30.9679983 85.736,30.9679983 C85.8666673,30.9679983 86.0019993,30.9749982 86.142,30.9889983 C86.2820007,31.0029984 86.4149994,31.0216648 86.541,31.0449983 C86.6670006,31.0683317 86.7766662,31.0893315 86.87,31.1079983 C86.9633338,31.1266651 87.0286665,31.1406649 87.066,31.1499983 L87.066,30.7859983 C87.066,30.5713306 87.0426669,30.3589993 86.996,30.1489983 C86.9493331,29.9389972 86.8653339,29.7523324 86.744,29.5889983 C86.6226661,29.4256641 86.4570011,29.2949988 86.247,29.1969983 C86.0369989,29.0989978 85.7640017,29.0499983 85.428,29.0499983 C84.9986645,29.0499983 84.6230016,29.0803313 84.301,29.1409983 C83.9789984,29.2016653 83.7386675,29.2646646 83.58,29.3299983 L83.426,28.2519983 C83.5940008,28.1773313 83.873998,28.1049986 84.266,28.0349983 C84.658002,27.9649979 85.0826644,27.9299983 85.54,27.9299983 Z M90.496,28.3219983 C90.7946682,28.2473313 91.1913309,28.1679987 91.686,28.0839983 C92.1806691,27.9999979 92.7499968,27.9579983 93.394,27.9579983 C93.9726696,27.9579983 94.4533314,28.0396641 94.836,28.2029983 C95.2186686,28.3663324 95.5243322,28.5949968 95.753,28.8889983 C95.9816678,29.1829998 96.1426662,29.5353296 96.236,29.9459983 C96.3293338,30.356667 96.376,30.8093292 96.376,31.3039983 L96.376,35.3919983 L95.074,35.3919983 L95.074,31.5839983 C95.074,31.1359961 95.043667,30.7533332 94.983,30.4359983 C94.922333,30.1186634 94.8220007,29.8619993 94.682,29.6659983 C94.5419993,29.4699973 94.3553345,29.3276654 94.122,29.2389983 C93.8886655,29.1503312 93.5993351,29.1059983 93.254,29.1059983 C93.1139993,29.1059983 92.9693341,29.1106649 92.82,29.1199983 C92.6706659,29.1293317 92.528334,29.1409982 92.393,29.1549983 C92.257666,29.1689984 92.1363339,29.1853315 92.029,29.2039983 C91.9216661,29.2226651 91.8446669,29.2366649 91.798,29.2459983 L91.798,35.3919983 L90.496,35.3919983 L90.496,28.3219983 Z M98.532,28.3219983 C98.8306682,28.2473313 99.2273309,28.1679987 99.722,28.0839983 C100.216669,27.9999979 100.785997,27.9579983 101.43,27.9579983 C102.00867,27.9579983 102.489331,28.0396641 102.872,28.2029983 C103.254669,28.3663324 103.560332,28.5949968 103.789,28.8889983 C104.017668,29.1829998 104.178666,29.5353296 104.272,29.9459983 C104.365334,30.356667 104.412,30.8093292 104.412,31.3039983 L104.412,35.3919983 L103.11,35.3919983 L103.11,31.5839983 C103.11,31.1359961 103.079667,30.7533332 103.019,30.4359983 C102.958333,30.1186634 102.858001,29.8619993 102.718,29.6659983 C102.577999,29.4699973 102.391334,29.3276654 102.158,29.2389983 C101.924666,29.1503312 101.635335,29.1059983 101.29,29.1059983 C101.149999,29.1059983 101.005334,29.1106649 100.856,29.1199983 C100.706666,29.1293317 100.564334,29.1409982 100.429,29.1549983 C100.293666,29.1689984 100.172334,29.1853315 100.065,29.2039983 C99.9576661,29.2226651 99.8806669,29.2366649 99.834,29.2459983 L99.834,35.3919983 L98.532,35.3919983 L98.532,28.3219983 Z M107.87,35.3919983 L106.568,35.3919983 L106.568,28.1119983 L107.87,28.1119983 L107.87,35.3919983 Z M107.212,26.7959983 C106.978666,26.7959983 106.780334,26.7189991 106.617,26.5649983 C106.453666,26.4109975 106.372,26.2033329 106.372,25.9419983 C106.372,25.6806637 106.453666,25.4729991 106.617,25.3189983 C106.780334,25.1649975 106.978666,25.0879983 107.212,25.0879983 C107.445335,25.0879983 107.643666,25.1649975 107.807,25.3189983 C107.970334,25.4729991 108.052,25.6806637 108.052,25.9419983 C108.052,26.2033329 107.970334,26.4109975 107.807,26.5649983 C107.643666,26.7189991 107.445335,26.7959983 107.212,26.7959983 Z M110.11,28.3219983 C110.408668,28.2473313 110.805331,28.1679987 111.3,28.0839983 C111.794669,27.9999979 112.363997,27.9579983 113.008,27.9579983 C113.58667,27.9579983 114.067331,28.0396641 114.45,28.2029983 C114.832669,28.3663324 115.138332,28.5949968 115.367,28.8889983 C115.595668,29.1829998 115.756666,29.5353296 115.85,29.9459983 C115.943334,30.356667 115.99,30.8093292 115.99,31.3039983 L115.99,35.3919983 L114.688,35.3919983 L114.688,31.5839983 C114.688,31.1359961 114.657667,30.7533332 114.597,30.4359983 C114.536333,30.1186634 114.436001,29.8619993 114.296,29.6659983 C114.155999,29.4699973 113.969335,29.3276654 113.736,29.2389983 C113.502666,29.1503312 113.213335,29.1059983 112.868,29.1059983 C112.727999,29.1059983 112.583334,29.1106649 112.434,29.1199983 C112.284666,29.1293317 112.142334,29.1409982 112.007,29.1549983 C111.871666,29.1689984 111.750334,29.1853315 111.643,29.2039983 C111.535666,29.2226651 111.458667,29.2366649 111.412,29.2459983 L111.412,35.3919983 L110.11,35.3919983 L110.11,28.3219983 Z M122.71,34.6639983 C122.597999,34.7386653 122.381002,34.834331 122.059,34.9509983 C121.736998,35.0676655 121.361335,35.1259983 120.932,35.1259983 C120.493331,35.1259983 120.080335,35.055999 119.693,34.9159983 C119.305665,34.7759976 118.967335,34.5589998 118.678,34.2649983 C118.388665,33.9709968 118.160001,33.6046672 117.992,33.1659983 C117.823999,32.7273294 117.74,32.204668 117.74,31.5979983 C117.74,31.0659956 117.819333,30.5783338 117.978,30.1349983 C118.136667,29.6916627 118.367665,29.3089999 118.671,28.9869983 C118.974335,28.6649967 119.345331,28.4129992 119.784,28.2309983 C120.222669,28.0489974 120.717331,27.9579983 121.268,27.9579983 C121.87467,27.9579983 122.404331,28.0023312 122.857,28.0909983 C123.309669,28.1796654 123.689998,28.2613313 123.998,28.3359983 L123.998,34.8319983 C123.998,35.9520039 123.70867,36.7639958 123.13,37.2679983 C122.55133,37.7720008 121.674006,38.0239983 120.498,38.0239983 C120.040664,38.0239983 119.609002,37.9866653 119.203,37.9119983 C118.796998,37.8373313 118.444668,37.7486655 118.146,37.6459983 L118.384,36.5119983 C118.645335,36.6146655 118.964998,36.7056646 119.343,36.7849983 C119.721002,36.864332 120.115331,36.9039983 120.526,36.9039983 C121.300671,36.9039983 121.858332,36.7499998 122.199,36.4419983 C122.539668,36.1339968 122.71,35.6440017 122.71,34.9719983 L122.71,34.6639983 Z M122.696,29.2599983 C122.565333,29.2226648 122.390334,29.1876651 122.171,29.1549983 C121.951666,29.1223315 121.655335,29.1059983 121.282,29.1059983 C120.581997,29.1059983 120.043002,29.3346627 119.665,29.7919983 C119.286998,30.2493339 119.098,30.8559945 119.098,31.6119983 C119.098,32.0320004 119.151666,32.3913301 119.259,32.6899983 C119.366334,32.9886665 119.510999,33.2359973 119.693,33.4319983 C119.875001,33.6279993 120.084999,33.7726645 120.323,33.8659983 C120.561001,33.9593321 120.805999,34.0059983 121.058,34.0059983 C121.403335,34.0059983 121.720665,33.9569988 122.01,33.8589983 C122.299335,33.7609978 122.527999,33.6466656 122.696,33.5159983 L122.696,29.2599983 Z M77.07,55.7839966 C76.8086654,55.1119932 76.5310015,54.3443342 76.237,53.4809966 C75.9429985,52.6176589 75.6746679,51.7193346 75.432,50.7859966 C75.1893321,51.7193346 74.9233348,52.6176589 74.634,53.4809966 C74.3446652,54.3443342 74.0693346,55.1119932 73.808,55.7839966 L72.674,55.7839966 C72.2446645,54.8226584 71.8246687,53.7260027 71.414,52.4939966 C71.0033313,51.2619904 70.6160018,49.9320037 70.252,48.5039966 L71.652,48.5039966 C71.7453338,48.9426654 71.8573327,49.4186607 71.988,49.9319966 C72.1186673,50.4453325 72.2563326,50.9586607 72.401,51.4719966 C72.5456674,51.9853325 72.6973325,52.4799942 72.856,52.9559966 C73.0146675,53.431999 73.1639993,53.8473281 73.304,54.2019966 C73.4626675,53.7633277 73.6189992,53.298999 73.773,52.8089966 C73.9270008,52.3189941 74.0739993,51.8243324 74.214,51.3249966 C74.3540007,50.8256608 74.4869994,50.3356657 74.613,49.8549966 C74.7390006,49.3743275 74.8486662,48.9239987 74.942,48.5039966 L76.02,48.5039966 C76.1040004,48.9239987 76.2066661,49.3743275 76.328,49.8549966 C76.4493339,50.3356657 76.5799993,50.8256608 76.72,51.3249966 C76.8600007,51.8243324 77.0069992,52.3189941 77.161,52.8089966 C77.3150008,53.298999 77.4713325,53.7633277 77.63,54.2019966 C77.7700007,53.8473281 77.9169992,53.431999 78.071,52.9559966 C78.2250008,52.4799942 78.3766659,51.9853325 78.526,51.4719966 C78.6753341,50.9586607 78.8153327,50.4453325 78.946,49.9319966 C79.0766673,49.4186607 79.1886662,48.9426654 79.282,48.5039966 L80.626,48.5039966 C80.2619982,49.9320037 79.8746687,51.2619904 79.464,52.4939966 C79.0533313,53.7260027 78.6333355,54.8226584 78.204,55.7839966 L77.07,55.7839966 Z M88.424,52.1439966 C88.424,52.7226661 88.3400008,53.2453276 88.172,53.7119966 C88.0039992,54.1786656 87.7683349,54.5799949 87.465,54.9159966 C87.1616652,55.2519983 86.8000021,55.5109957 86.38,55.6929966 C85.9599979,55.8749975 85.5026691,55.9659966 85.008,55.9659966 C84.5133309,55.9659966 84.0560021,55.8749975 83.636,55.6929966 C83.2159979,55.5109957 82.8543349,55.2519983 82.551,54.9159966 C82.2476652,54.5799949 82.0120008,54.1786656 81.844,53.7119966 C81.6759992,53.2453276 81.592,52.7226661 81.592,52.1439966 C81.592,51.5746604 81.6759992,51.0543323 81.844,50.5829966 C82.0120008,50.1116609 82.2476652,49.7079983 82.551,49.3719966 C82.8543349,49.0359949 83.2159979,48.7769975 83.636,48.5949966 C84.0560021,48.4129957 84.5133309,48.3219966 85.008,48.3219966 C85.5026691,48.3219966 85.9599979,48.4129957 86.38,48.5949966 C86.8000021,48.7769975 87.1616652,49.0359949 87.465,49.3719966 C87.7683349,49.7079983 88.0039992,50.1116609 88.172,50.5829966 C88.3400008,51.0543323 88.424,51.5746604 88.424,52.1439966 Z M87.066,52.1439966 C87.066,51.3226591 86.8816685,50.6716657 86.513,50.1909966 C86.1443315,49.7103275 85.6426698,49.4699966 85.008,49.4699966 C84.3733302,49.4699966 83.8716685,49.7103275 83.503,50.1909966 C83.1343315,50.6716657 82.95,51.3226591 82.95,52.1439966 C82.95,52.965334 83.1343315,53.6163275 83.503,54.0969966 C83.8716685,54.5776657 84.3733302,54.8179966 85.008,54.8179966 C85.6426698,54.8179966 86.1443315,54.5776657 86.513,54.0969966 C86.8816685,53.6163275 87.066,52.965334 87.066,52.1439966 Z M92.946,48.3499966 C93.0580006,48.3499966 93.1863326,48.3569965 93.331,48.3709966 C93.4756674,48.3849967 93.6179993,48.4036631 93.758,48.4269966 C93.8980007,48.45033 94.0263327,48.4736631 94.143,48.4969966 C94.2596673,48.52033 94.3459997,48.5413298 94.402,48.5599966 L94.178,49.6939966 C94.0753328,49.6566631 93.9050012,49.6123302 93.667,49.5609966 C93.4289988,49.509663 93.1233352,49.4839966 92.75,49.4839966 C92.5073321,49.4839966 92.2670012,49.509663 92.029,49.5609966 C91.7909988,49.6123302 91.634667,49.6473298 91.56,49.6659966 L91.56,55.7839966 L90.258,55.7839966 L90.258,48.8119966 C90.5660015,48.699996 90.9486644,48.5949971 91.406,48.4969966 C91.8633356,48.3989961 92.3766638,48.3499966 92.946,48.3499966 Z M98.294,51.7799966 C98.5740014,51.9946643 98.8703318,52.2606617 99.183,52.5779966 C99.4956682,52.8953315 99.8036652,53.2383281 100.107,53.6069966 C100.410335,53.9756651 100.697332,54.3489947 100.968,54.7269966 C101.238668,55.1049985 101.467332,55.4573283 101.654,55.7839966 L100.128,55.7839966 C99.931999,55.4573283 99.7056679,55.123665 99.449,54.7829966 C99.1923321,54.4423282 98.9240014,54.1156648 98.644,53.8029966 C98.3639986,53.4903284 98.0793348,53.2033312 97.79,52.9419966 C97.5006652,52.6806619 97.2253346,52.4613308 96.964,52.2839966 L96.964,55.7839966 L95.662,55.7839966 L95.662,45.1439966 L96.964,44.9199966 L96.964,51.5559966 L97.706,50.8139966 C97.976668,50.5433286 98.2426654,50.267998 98.504,49.9879966 C98.7653346,49.7079952 99.0126655,49.4396645 99.246,49.1829966 C99.4793345,48.9263286 99.6799992,48.6999976 99.848,48.5039966 L101.374,48.5039966 C101.159332,48.7373311 100.926001,48.9939952 100.674,49.2739966 C100.421999,49.553998 100.160668,49.8363285 99.89,50.1209966 C99.619332,50.4056647 99.3463347,50.6903285 99.071,50.9749966 C98.7956653,51.2596647 98.5366679,51.5279953 98.294,51.7799966 Z M104.664,54.8459966 C105.196003,54.8459966 105.590332,54.7759973 105.847,54.6359966 C106.103668,54.4959959 106.232,54.2719981 106.232,53.9639966 C106.232,53.6466617 106.106001,53.3946642 105.854,53.2079966 C105.601999,53.021329 105.18667,52.8113311 104.608,52.5779966 C104.327999,52.465996 104.059668,52.3516638 103.803,52.2349966 C103.546332,52.1183293 103.324668,51.980664 103.138,51.8219966 C102.951332,51.6633291 102.802001,51.4719977 102.69,51.2479966 C102.577999,51.0239955 102.522,50.7486649 102.522,50.4219966 C102.522,49.7779934 102.759998,49.2669985 103.236,48.8889966 C103.712002,48.5109947 104.360663,48.3219966 105.182,48.3219966 C105.387334,48.3219966 105.592666,48.3336631 105.798,48.3569966 C106.003334,48.38033 106.194666,48.4083298 106.372,48.4409966 C106.549334,48.4736634 106.705666,48.5086631 106.841,48.5459966 C106.976334,48.5833301 107.081333,48.6159964 107.156,48.6439966 L106.918,49.7639966 C106.777999,49.6893295 106.558668,49.6123303 106.26,49.5329966 C105.961332,49.4536629 105.602002,49.4139966 105.182,49.4139966 C104.817998,49.4139966 104.500668,49.4863292 104.23,49.6309966 C103.959332,49.775664 103.824,50.001995 103.824,50.3099966 C103.824,50.468664 103.854333,50.6086626 103.915,50.7299966 C103.975667,50.8513305 104.068999,50.9609961 104.195,51.0589966 C104.321001,51.1569971 104.477332,51.2479962 104.664,51.3319966 C104.850668,51.415997 105.074665,51.5046628 105.336,51.5979966 C105.681335,51.7286639 105.989332,51.856996 106.26,51.9829966 C106.530668,52.1089972 106.761666,52.2559957 106.953,52.4239966 C107.144334,52.5919974 107.291333,52.7949954 107.394,53.0329966 C107.496667,53.2709978 107.548,53.5626615 107.548,53.9079966 C107.548,54.5799999 107.298336,55.0886615 106.799,55.4339966 C106.299664,55.7793316 105.588005,55.9519966 104.664,55.9519966 C104.019997,55.9519966 103.516002,55.8983305 103.152,55.7909966 C102.787998,55.6836627 102.540667,55.6019969 102.41,55.5459966 L102.648,54.4259966 C102.797334,54.4819969 103.035332,54.565996 103.362,54.6779966 C103.688668,54.7899971 104.122664,54.8459966 104.664,54.8459966 Z M109.214,55.7839966 L109.214,45.1439966 L110.516,44.9199966 L110.516,48.6439966 C110.758668,48.5506628 111.017665,48.4783302 111.293,48.4269966 C111.568335,48.375663 111.841332,48.3499966 112.112,48.3499966 C112.69067,48.3499966 113.171331,48.4316624 113.554,48.5949966 C113.936669,48.7583307 114.242332,48.9869951 114.471,49.2809966 C114.699668,49.5749981 114.860666,49.9273279 114.954,50.3379966 C115.047334,50.7486653 115.094,51.2013274 115.094,51.6959966 L115.094,55.7839966 L113.792,55.7839966 L113.792,51.9759966 C113.792,51.5279943 113.761667,51.1453315 113.701,50.8279966 C113.640333,50.5106617 113.540001,50.2539976 113.4,50.0579966 C113.259999,49.8619956 113.073335,49.7196637 112.84,49.6309966 C112.606665,49.5423295 112.317335,49.4979966 111.972,49.4979966 C111.831999,49.4979966 111.687334,49.5073298 111.538,49.5259966 C111.388666,49.5446633 111.246334,49.5656631 111.111,49.5889966 C110.975666,49.61233 110.854334,49.6379964 110.747,49.6659966 C110.639666,49.6939967 110.562667,49.7173298 110.516,49.7359966 L110.516,55.7839966 L109.214,55.7839966 Z M123.634,52.1439966 C123.634,52.7226661 123.550001,53.2453276 123.382,53.7119966 C123.213999,54.1786656 122.978335,54.5799949 122.675,54.9159966 C122.371665,55.2519983 122.010002,55.5109957 121.59,55.6929966 C121.169998,55.8749975 120.712669,55.9659966 120.218,55.9659966 C119.723331,55.9659966 119.266002,55.8749975 118.846,55.6929966 C118.425998,55.5109957 118.064335,55.2519983 117.761,54.9159966 C117.457665,54.5799949 117.222001,54.1786656 117.054,53.7119966 C116.885999,53.2453276 116.802,52.7226661 116.802,52.1439966 C116.802,51.5746604 116.885999,51.0543323 117.054,50.5829966 C117.222001,50.1116609 117.457665,49.7079983 117.761,49.3719966 C118.064335,49.0359949 118.425998,48.7769975 118.846,48.5949966 C119.266002,48.4129957 119.723331,48.3219966 120.218,48.3219966 C120.712669,48.3219966 121.169998,48.4129957 121.59,48.5949966 C122.010002,48.7769975 122.371665,49.0359949 122.675,49.3719966 C122.978335,49.7079983 123.213999,50.1116609 123.382,50.5829966 C123.550001,51.0543323 123.634,51.5746604 123.634,52.1439966 Z M122.276,52.1439966 C122.276,51.3226591 122.091669,50.6716657 121.723,50.1909966 C121.354331,49.7103275 120.85267,49.4699966 120.218,49.4699966 C119.58333,49.4699966 119.081669,49.7103275 118.713,50.1909966 C118.344331,50.6716657 118.16,51.3226591 118.16,52.1439966 C118.16,52.965334 118.344331,53.6163275 118.713,54.0969966 C119.081669,54.5776657 119.58333,54.8179966 120.218,54.8179966 C120.85267,54.8179966 121.354331,54.5776657 121.723,54.0969966 C122.091669,53.6163275 122.276,52.965334 122.276,52.1439966 Z M130.522,52.1579966 C130.522,51.308659 130.312002,50.6553322 129.892,50.1979966 C129.471998,49.740661 128.912003,49.5119966 128.212,49.5119966 C127.819998,49.5119966 127.514334,49.5259964 127.295,49.5539966 C127.075666,49.5819967 126.900667,49.6146631 126.77,49.6519966 L126.77,54.2439966 C126.928667,54.3746639 127.157332,54.5006626 127.456,54.6219966 C127.754668,54.7433305 128.081332,54.8039966 128.436,54.8039966 C128.809335,54.8039966 129.128999,54.7363306 129.395,54.6009966 C129.661001,54.4656626 129.877999,54.2789978 130.046,54.0409966 C130.214001,53.8029954 130.335333,53.5229982 130.41,53.2009966 C130.484667,52.878995 130.522,52.5313318 130.522,52.1579966 Z M131.88,52.1579966 C131.88,52.708666 131.807667,53.2173276 131.663,53.6839966 C131.518333,54.1506656 131.306001,54.5519949 131.026,54.8879966 C130.745999,55.2239983 130.403002,55.485329 129.997,55.6719966 C129.590998,55.8586642 129.126669,55.9519966 128.604,55.9519966 C128.183998,55.9519966 127.813002,55.8959971 127.491,55.7839966 C127.168998,55.671996 126.928667,55.5646638 126.77,55.4619966 L126.77,58.3739966 L125.468,58.3739966 L125.468,48.7279966 C125.776002,48.6533295 126.160998,48.5716637 126.623,48.4829966 C127.085002,48.3943295 127.61933,48.3499966 128.226,48.3499966 C128.786003,48.3499966 129.289998,48.4386624 129.738,48.6159966 C130.186002,48.7933308 130.568665,49.0453283 130.886,49.3719966 C131.203335,49.6986649 131.448332,50.0976609 131.621,50.5689966 C131.793668,51.0403323 131.88,51.5699936 131.88,52.1579966 Z"/>
  </g>
</svg>
