<svg xmlns="http://www.w3.org/2000/svg" width="160" height="80" viewBox="0 0 160 80">
  <g fill="none" fill-rule="evenodd" transform="translate(0 8)">
    <ellipse cx="31.5" cy="32.188" fill="#4E4B49" rx="31.5" ry="31.683"/>
    <path fill="#FFFFFF" d="M22.47336 38.579737C23.1386433 38.579737 23.6879978 38.5242976 24.12144 38.413417 24.5548822 38.3025365 24.9026387 38.151338 25.16472 37.959817 25.4268013 37.7682961 25.6082395 37.5414983 25.70904 37.279417 25.8098405 37.0173357 25.86024 36.7250186 25.86024 36.402457 25.86024 35.7170136 25.5376832 35.1474993 24.89256 34.693897 24.2474368 34.2402948 23.1386479 33.7514197 21.56616 33.227257 20.8807166 32.9853358 20.1952834 32.7081386 19.50984 32.395657 18.8243966 32.0831755 18.2095227 31.6900594 17.6652 31.216297 17.1208773 30.7425347 16.6773617 30.1679804 16.33464 29.492617 15.9919183 28.8172537 15.82056 27.9957419 15.82056 27.028057 15.82056 26.0603722 16.0019982 25.1884609 16.36488 24.412297 16.7277618 23.6361331 17.2418367 22.9758998 17.90712 22.431577 18.5724033 21.8872543 19.3787953 21.4689385 20.32632 21.176617 21.2738447 20.8842956 22.3423141 20.738137 23.53176 20.738137 24.9429671 20.738137 26.1626349 20.8893355 27.1908 21.191737 28.2189651 21.4941385 29.0656767 21.8267752 29.73096 22.189657L28.37016 25.909177C27.7855171 25.6067755 27.1353636 25.3396582 26.41968 25.107817 25.7039964 24.8759759 24.842165 24.760057 23.83416 24.760057 22.7051944 24.760057 21.8937625 24.9162955 21.39984 25.228777 20.9059175 25.5412586 20.65896 26.0200538 20.65896 26.665177 20.65896 27.0482189 20.7496791 27.3707757 20.93112 27.632857 21.1125609 27.8949383 21.3695983 28.131816 21.70224 28.343497 22.0348817 28.5551781 22.4179178 28.7466962 22.85136 28.918057 23.2848022 29.0894179 23.7635974 29.2658161 24.28776 29.447257 25.3764054 29.850459 26.323916 30.2486151 27.13032 30.641737 27.936724 31.034859 28.6070373 31.4934944 29.14128 32.017657 29.6755227 32.5418197 30.0736787 33.1566935 30.33576 33.862297 30.5978413 34.5679006 30.72888 35.424692 30.72888 36.432697 30.72888 38.3882268 30.0434469 39.9052516 28.67256 40.983817 27.3016731 42.0623824 25.2352938 42.601657 22.47336 42.601657 21.5459954 42.601657 20.7093637 42.5462176 19.96344 42.435337 19.2175163 42.3244565 18.5572829 42.1883778 17.98272 42.027097 17.4081571 41.8658162 16.9142421 41.6944579 16.50096 41.513017 16.0876779 41.3315761 15.7399214 41.1602178 15.45768 40.998937L16.78824 37.249177C17.4132031 37.5918987 18.1843154 37.8993357 19.1016 38.171497 20.0188846 38.4436584 21.1427933 38.579737 22.47336 38.579737zM40.13352 39.033337C40.5770422 39.033337 41.000398 39.0232571 41.4036 39.003097 41.806802 38.9829369 42.1293588 38.9526972 42.37128 38.912377L42.37128 35.495257C42.1898391 35.4549368 41.9176818 35.4146172 41.5548 35.374297 41.1919182 35.3339768 40.8592815 35.313817 40.55688 35.313817 40.1335179 35.313817 39.7353619 35.3390168 39.3624 35.389417 38.9894381 35.4398173 38.6618414 35.5355763 38.3796 35.676697 38.0973586 35.8178177 37.8756008 36.0093358 37.71432 36.251257 37.5530392 36.4931782 37.4724 36.7955752 37.4724 37.158457 37.4724 37.8640606 37.7092776 38.3529357 38.18304 38.625097 38.6568024 38.8972584 39.3069559 39.033337 40.13352 39.033337zM39.77064 25.848697C41.1012067 25.848697 42.2099956 25.9998955 43.09704 26.302297 43.9840844 26.6046985 44.6947173 27.0381342 45.22896 27.602617 45.7632027 28.1670999 46.1411989 28.852533 46.36296 29.658937 46.5847211 30.4653411 46.6956 31.3624521 46.6956 32.350297L46.6956 41.724697C46.0504768 41.8658177 45.1533657 42.0321361 44.00424 42.223657 42.8551143 42.415178 41.4640882 42.510937 39.83112 42.510937 38.8029549 42.510937 37.8705642 42.4202179 37.03392 42.238777 36.1972758 42.0573361 35.476563 41.7599791 34.87176 41.346697 34.266957 40.933415 33.8032816 40.3941404 33.48072 39.728857 33.1581584 39.0635737 32.99688 38.2471019 32.99688 37.279417 32.99688 36.3520524 33.1833581 35.5658203 33.55632 34.920697 33.9292819 34.2755738 34.4282369 33.7614989 35.0532 33.378457 35.6781631 32.9954151 36.393836 32.7182179 37.20024 32.546857 38.006644 32.3754962 38.8432757 32.289817 39.71016 32.289817 40.2948029 32.289817 40.8139177 32.3150168 41.26752 32.365417 41.7211223 32.4158173 42.0890386 32.4813366 42.37128 32.561977L42.37128 32.138617C42.37128 31.3725332 42.1394423 30.7576593 41.67576 30.293977 41.2120777 29.8302947 40.4056857 29.598457 39.25656 29.598457 38.4904762 29.598457 37.7344837 29.6538965 36.98856 29.764777 36.2426363 29.8756576 35.5975227 30.031896 35.0532 30.233497L34.47864 26.604697C34.7407213 26.5240566 35.068318 26.4383775 35.46144 26.347657 35.854562 26.2569366 36.2829577 26.1762974 36.74664 26.105737 37.2103223 26.0351767 37.6991974 25.9746973 38.21328 25.924297 38.7273626 25.8738968 39.2464774 25.848697 39.77064 25.848697zM72.814 24.062C73.3460027 24.062 73.7403321 23.9920007 73.997 23.852 74.2536679 23.7119993 74.382 23.4880015 74.382 23.18 74.382 22.8626651 74.2560013 22.6106676 74.004 22.424 73.7519987 22.2373324 73.3366696 22.0273345 72.758 21.794 72.4779986 21.6819994 72.2096679 21.5676672 71.953 21.451 71.696332 21.3343327 71.4746676 21.1966675 71.288 21.038 71.1013324 20.8793325 70.9520006 20.6880011 70.84 20.464 70.7279994 20.2399989 70.672 19.9646683 70.672 19.638 70.672 18.9939968 70.9099976 18.4830019 71.386 18.105 71.8620024 17.7269981 72.5106626 17.538 73.332 17.538 73.5373344 17.538 73.7426656 17.5496665 73.948 17.573 74.1533344 17.5963334 74.3446658 17.6243332 74.522 17.657 74.6993342 17.6896668 74.855666 17.7246665 74.991 17.762 75.126334 17.7993335 75.231333 17.8319999 75.306 17.86L75.068 18.98C74.9279993 18.905333 74.7086682 18.8283337 74.41 18.749 74.1113318 18.6696663 73.7520021 18.63 73.332 18.63 72.9679982 18.63 72.650668 18.7023326 72.38 18.847 72.109332 18.9916674 71.974 19.2179985 71.974 19.526 71.974 19.6846675 72.004333 19.8246661 72.065 19.946 72.125667 20.0673339 72.2189994 20.1769995 72.345 20.275 72.4710006 20.3730005 72.6273324 20.4639996 72.814 20.548 73.0006676 20.6320004 73.2246654 20.7206662 73.486 20.814 73.8313351 20.9446673 74.139332 21.0729994 74.41 21.199 74.680668 21.3250006 74.9116657 21.4719992 75.103 21.64 75.2943343 21.8080008 75.4413328 22.0109988 75.544 22.249 75.6466672 22.4870012 75.698 22.7786649 75.698 23.124 75.698 23.7960034 75.4483358 24.3046649 74.949 24.65 74.4496642 24.9953351 73.7380046 25.168 72.814 25.168 72.1699968 25.168 71.6660018 25.1143339 71.302 25.007 70.9379982 24.8996661 70.6906673 24.8180003 70.56 24.762L70.798 23.642C70.9473341 23.6980003 71.1853317 23.7819994 71.512 23.894 71.8386683 24.0060006 72.272664 24.062 72.814 24.062zM76.51 26.358C76.6126672 26.4046669 76.7456658 26.4489998 76.909 26.491 77.0723342 26.5330002 77.2333325 26.554 77.392 26.554 77.9053359 26.554 78.3066652 26.4396678 78.596 26.211 78.8853348 25.9823322 79.1466655 25.6113359 79.38 25.098 78.7919971 23.9779944 78.2436692 22.7903396 77.735 21.535 77.2263308 20.2796604 76.8040017 19.0080064 76.468 17.72L77.868 17.72C77.9706672 18.1400021 78.0943326 18.5926642 78.239 19.078 78.3836674 19.5633358 78.5446658 20.0626641 78.722 20.576 78.8993342 21.0893359 79.0906656 21.6026641 79.296 22.116 79.5013344 22.6293359 79.7159989 23.1239976 79.94 23.6 80.2946684 22.6199951 80.6026654 21.6493381 80.864 20.688 81.1253346 19.7266619 81.3726655 18.7373384 81.606 17.72L82.95 17.72C82.6139983 19.0920069 82.2406687 20.410327 81.83 21.675 81.4193313 22.939673 80.9760024 24.1226612 80.5 25.224 80.3133324 25.6440021 80.1196677 26.0056651 79.919 26.309 79.7183323 26.6123348 79.4966679 26.861999 79.254 27.058 79.0113321 27.254001 78.7383349 27.3986662 78.435 27.492 78.1316652 27.5853338 77.7886686 27.632 77.406 27.632 77.3033328 27.632 77.1960006 27.6250001 77.084 27.611 76.9719994 27.5969999 76.8623339 27.5783334 76.755 27.555 76.6476661 27.5316665 76.5496671 27.5060001 76.461 27.478 76.3723329 27.4499999 76.3093335 27.4266668 76.272 27.408L76.51 26.358zM86.016 24.062C86.5480027 24.062 86.9423321 23.9920007 87.199 23.852 87.4556679 23.7119993 87.584 23.4880015 87.584 23.18 87.584 22.8626651 87.4580013 22.6106676 87.206 22.424 86.9539987 22.2373324 86.5386696 22.0273345 85.96 21.794 85.6799986 21.6819994 85.4116679 21.5676672 85.155 21.451 84.898332 21.3343327 84.6766676 21.1966675 84.49 21.038 84.3033324 20.8793325 84.1540006 20.6880011 84.042 20.464 83.9299994 20.2399989 83.874 19.9646683 83.874 19.638 83.874 18.9939968 84.1119976 18.4830019 84.588 18.105 85.0640024 17.7269981 85.7126626 17.538 86.534 17.538 86.7393344 17.538 86.9446656 17.5496665 87.15 17.573 87.3553344 17.5963334 87.5466658 17.6243332 87.724 17.657 87.9013342 17.6896668 88.057666 17.7246665 88.193 17.762 88.328334 17.7993335 88.433333 17.8319999 88.508 17.86L88.27 18.98C88.1299993 18.905333 87.9106682 18.8283337 87.612 18.749 87.3133318 18.6696663 86.9540021 18.63 86.534 18.63 86.1699982 18.63 85.852668 18.7023326 85.582 18.847 85.311332 18.9916674 85.176 19.2179985 85.176 19.526 85.176 19.6846675 85.206333 19.8246661 85.267 19.946 85.327667 20.0673339 85.4209994 20.1769995 85.547 20.275 85.6730006 20.3730005 85.8293324 20.4639996 86.016 20.548 86.2026676 20.6320004 86.4266654 20.7206662 86.688 20.814 87.0333351 20.9446673 87.341332 21.0729994 87.612 21.199 87.882668 21.3250006 88.1136657 21.4719992 88.305 21.64 88.4963343 21.8080008 88.6433328 22.0109988 88.746 22.249 88.8486672 22.4870012 88.9 22.7786649 88.9 23.124 88.9 23.7960034 88.6503358 24.3046649 88.151 24.65 87.6516642 24.9953351 86.9400046 25.168 86.016 25.168 85.3719968 25.168 84.8680018 25.1143339 84.504 25.007 84.1399982 24.8996661 83.8926673 24.8180003 83.762 24.762L84 23.642C84.1493341 23.6980003 84.3873317 23.7819994 84.714 23.894 85.0406683 24.0060006 85.474664 24.062 86.016 24.062zM91.784 17.72L94.542 17.72 94.542 18.812 91.784 18.812 91.784 22.172C91.784 22.5360018 91.8119997 22.8369988 91.868 23.075 91.9240003 23.3130012 92.0079994 23.499666 92.12 23.635 92.2320006 23.770334 92.3719992 23.8659997 92.54 23.922 92.7080008 23.9780003 92.9039989 24.006 93.128 24.006 93.520002 24.006 93.8349988 23.9616671 94.073 23.873 94.3110012 23.7843329 94.4766662 23.7213335 94.57 23.684L94.822 24.762C94.6913327 24.8273337 94.4626683 24.9089995 94.136 25.007 93.8093317 25.1050005 93.4360021 25.154 93.016 25.154 92.5213309 25.154 92.1130016 25.0910006 91.791 24.965 91.4689984 24.8389994 91.210001 24.6500013 91.014 24.398 90.817999 24.1459987 90.6803337 23.8356685 90.601 23.467 90.5216663 23.0983315 90.482 22.6713358 90.482 22.186L90.482 15.69 91.784 15.466 91.784 17.72zM95.788 21.374C95.788 20.7299968 95.8813324 20.1676691 96.068 19.687 96.2546676 19.2063309 96.5019985 18.8073349 96.81 18.49 97.1180015 18.1726651 97.4726647 17.9346675 97.874 17.776 98.2753353 17.6173325 98.6859979 17.538 99.106 17.538 100.086005 17.538 100.837331 17.8436636 101.36 18.455 101.882669 19.0663364 102.144 19.9973271 102.144 21.248L102.144 21.465C102.144 21.5536671 102.139333 21.635333 102.13 21.71L97.146 21.71C97.2020003 22.4660038 97.4213314 23.039998 97.804 23.432 98.1866686 23.824002 98.7839959 24.02 99.596 24.02 100.053336 24.02 100.438332 23.9803337 100.751 23.901 101.063668 23.8216663 101.299333 23.744667 101.458 23.67L101.64 24.762C101.481333 24.8460004 101.203669 24.9346662 100.807 25.028 100.410331 25.1213338 99.9600025 25.168 99.456 25.168 98.8213302 25.168 98.2730023 25.0723343 97.811 24.881 97.3489977 24.6896657 96.9686682 24.4260017 96.67 24.09 96.3713318 23.7539983 96.1496674 23.3550023 96.005 22.893 95.8603326 22.4309977 95.788 21.9246694 95.788 21.374zM100.786 20.66C100.795333 20.0719971 100.648335 19.5890019 100.345 19.211 100.041665 18.8329981 99.6240027 18.644 99.092 18.644 98.7933318 18.644 98.5296678 18.7023327 98.301 18.819 98.0723322 18.9356672 97.8786675 19.0873324 97.72 19.274 97.5613325 19.4606676 97.4376671 19.6753321 97.349 19.918 97.2603329 20.1606679 97.2020001 20.4079987 97.174 20.66L100.786 20.66zM104.02 17.93C104.318668 17.855333 104.712998 17.7760004 105.203 17.692 105.693002 17.6079996 106.259997 17.566 106.904 17.566 107.370669 17.566 107.762665 17.6289994 108.08 17.755 108.397335 17.8810006 108.663332 18.0653321 108.878 18.308 108.943334 18.2613331 109.045999 18.1960004 109.186 18.112 109.326001 18.0279996 109.498666 17.9463337 109.704 17.867 109.909334 17.7876663 110.137999 17.717667 110.39 17.657 110.642001 17.596333 110.912665 17.566 111.202 17.566 111.762003 17.566 112.219332 17.6476658 112.574 17.811 112.928668 17.9743341 113.206332 18.2053318 113.407 18.504 113.607668 18.8026682 113.743 19.1573313 113.813 19.568 113.883 19.9786687 113.918 20.4266642 113.918 20.912L113.918 25 112.616 25 112.616 21.192C112.616 20.7626645 112.595 20.3940015 112.553 20.086 112.511 19.7779985 112.431667 19.5213344 112.315 19.316 112.198333 19.1106656 112.039668 18.9590005 111.839 18.861 111.638332 18.7629995 111.379335 18.714 111.062 18.714 110.623331 18.714 110.261668 18.7723327 109.977 18.889 109.692332 19.0056672 109.498667 19.1106662 109.396 19.204 109.470667 19.4466679 109.526666 19.7126652 109.564 20.002 109.601334 20.2913348 109.62 20.5946651 109.62 20.912L109.62 25 108.318 25 108.318 21.192C108.318 20.7626645 108.294667 20.3940015 108.248 20.086 108.201333 19.7779985 108.119667 19.5213344 108.003 19.316 107.886333 19.1106656 107.727668 18.9590005 107.527 18.861 107.326332 18.7629995 107.072002 18.714 106.764 18.714 106.633333 18.714 106.493334 18.7186666 106.344 18.728 106.194666 18.7373334 106.052334 18.7489999 105.917 18.763 105.781666 18.7770001 105.658001 18.7933332 105.546 18.812 105.433999 18.8306668 105.359334 18.8446666 105.322 18.854L105.322 25 104.02 25 104.02 17.93zM73.584 44.4539983C73.8920015 44.4539983 74.1649988 44.4469984 74.403 44.4329983 74.6410012 44.4189982 74.8393325 44.3933318 74.998 44.3559983L74.998 42.1859983C74.9046662 42.1393314 74.753001 42.0996651 74.543 42.0669983 74.332999 42.0343315 74.0786682 42.0179983 73.78 42.0179983 73.583999 42.0179983 73.3763344 42.0319982 73.157 42.0599983 72.9376656 42.0879984 72.7370009 42.1463312 72.555 42.2349983 72.3729991 42.3236654 72.2213339 42.4449975 72.1 42.5989983 71.9786661 42.7529991 71.918 42.955997 71.918 43.2079983 71.918 43.6746673 72.0673318 43.9989974 72.366 44.1809983 72.6646682 44.3629992 73.0706641 44.4539983 73.584 44.4539983zM73.472 37.9299983C73.9946693 37.9299983 74.4356649 37.9976643 74.795 38.1329983 75.1543351 38.2683323 75.4436656 38.4596637 75.663 38.7069983 75.8823344 38.9543329 76.0386662 39.2483299 76.132 39.5889983 76.2253338 39.9296667 76.272 40.3053296 76.272 40.7159983L76.272 45.2659983C76.1599994 45.2846651 76.0036677 45.3103315 75.803 45.3429983 75.6023323 45.3756651 75.3760013 45.4059982 75.124 45.4339983 74.8719987 45.4619984 74.5990015 45.4876648 74.305 45.5109983 74.0109985 45.5343317 73.7193348 45.5459983 73.43 45.5459983 73.0193313 45.5459983 72.6413351 45.5039987 72.296 45.4199983 71.9506649 45.3359979 71.6520013 45.2029992 71.4 45.0209983 71.1479987 44.8389974 70.9520007 44.5986665 70.812 44.2999983 70.6719993 44.0013301 70.602 43.6420004 70.602 43.2219983 70.602 42.820663 70.6836658 42.4753331 70.847 42.1859983 71.0103342 41.8966635 71.2319986 41.6633325 71.512 41.4859983 71.7920014 41.3086641 72.1186648 41.1779987 72.492 41.0939983 72.8653352 41.0099979 73.2573313 40.9679983 73.668 40.9679983 73.7986673 40.9679983 73.9339993 40.9749982 74.074 40.9889983 74.2140007 41.0029984 74.3469994 41.0216648 74.473 41.0449983 74.5990006 41.0683317 74.7086662 41.0893315 74.802 41.1079983 74.8953338 41.1266651 74.9606665 41.1406649 74.998 41.1499983L74.998 40.7859983C74.998 40.5713306 74.9746669 40.3589993 74.928 40.1489983 74.8813331 39.9389972 74.7973339 39.7523324 74.676 39.5889983 74.5546661 39.4256641 74.3890011 39.2949988 74.179 39.1969983 73.9689989 39.0989978 73.6960017 39.0499983 73.36 39.0499983 72.9306645 39.0499983 72.5550016 39.0803313 72.233 39.1409983 71.9109984 39.2016653 71.6706675 39.2646646 71.512 39.3299983L71.358 38.2519983C71.5260008 38.1773313 71.805998 38.1049986 72.198 38.0349983 72.590002 37.9649979 73.0146644 37.9299983 73.472 37.9299983zM81.116 37.9579983C81.2280006 37.9579983 81.3563326 37.9649982 81.501 37.9789983 81.6456674 37.9929984 81.7879993 38.0116648 81.928 38.0349983 82.0680007 38.0583317 82.1963327 38.0816648 82.313 38.1049983 82.4296672 38.1283317 82.5159997 38.1493315 82.572 38.1679983L82.348 39.3019983C82.2453328 39.2646648 82.0750012 39.2203319 81.837 39.1689983 81.5989988 39.1176647 81.2933352 39.0919983 80.92 39.0919983 80.6773321 39.0919983 80.4370012 39.1176647 80.199 39.1689983 79.9609988 39.2203319 79.804667 39.2553315 79.73 39.2739983L79.73 45.3919983 78.428 45.3919983 78.428 38.4199983C78.7360015 38.3079977 79.1186644 38.2029988 79.576 38.1049983 80.0333356 38.0069978 80.5466638 37.9579983 81.116 37.9579983zM86.996 45.5599983C86.4079971 45.5599983 85.8923355 45.4666659 85.449 45.2799983 85.0056644 45.0933307 84.6323349 44.832 84.329 44.4959983 84.0256651 44.1599966 83.7993341 43.7610006 83.65 43.2989983 83.5006659 42.836996 83.426 42.3260011 83.426 41.7659983 83.426 41.2059955 83.5076658 40.6926673 83.671 40.2259983 83.8343342 39.7593293 84.0653318 39.3556667 84.364 39.0149983 84.6626682 38.6743299 85.0289978 38.4083326 85.463 38.2169983 85.8970022 38.025664 86.3799973 37.9299983 86.912 37.9299983 87.2386683 37.9299983 87.5653317 37.957998 87.892 38.0139983 88.2186683 38.0699986 88.5313318 38.1586644 88.83 38.2799983L88.536 39.3859983C88.339999 39.2926645 88.113668 39.2179986 87.857 39.1619983 87.6003321 39.105998 87.3273348 39.0779983 87.038 39.0779983 86.3099964 39.0779983 85.7523353 39.3066627 85.365 39.7639983 84.9776647 40.2213339 84.784 40.8886606 84.784 41.7659983 84.784 42.1580003 84.8283329 42.51733 84.917 42.8439983 85.0056671 43.1706666 85.1456657 43.4506638 85.337 43.6839983 85.5283343 43.9173328 85.7733318 44.0969977 86.072 44.2229983 86.3706682 44.3489989 86.7346645 44.4119983 87.164 44.4119983 87.5093351 44.4119983 87.8219986 44.379332 88.102 44.3139983 88.3820014 44.2486646 88.6013325 44.1786653 88.76 44.1039983L88.942 45.1959983C88.867333 45.2426652 88.7600007 45.2869981 88.62 45.3289983 88.4799993 45.3709985 88.3213342 45.4083315 88.144 45.4409983 87.9666658 45.4736651 87.7776677 45.5016648 87.577 45.5249983 87.3763323 45.5483317 87.1826676 45.5599983 86.996 45.5599983zM90.342 45.3919983L90.342 34.7519983 91.644 34.5279983 91.644 38.2519983C91.8866679 38.1586645 92.1456653 38.0863319 92.421 38.0349983 92.6963347 37.9836647 92.969332 37.9579983 93.24 37.9579983 93.8186696 37.9579983 94.2993314 38.0396641 94.682 38.2029983 95.0646686 38.3663324 95.3703322 38.5949968 95.599 38.8889983 95.8276678 39.1829998 95.9886662 39.5353296 96.082 39.9459983 96.1753338 40.356667 96.222 40.8093292 96.222 41.3039983L96.222 45.3919983 94.92 45.3919983 94.92 41.5839983C94.92 41.1359961 94.889667 40.7533332 94.829 40.4359983 94.768333 40.1186634 94.6680007 39.8619993 94.528 39.6659983 94.3879993 39.4699973 94.2013345 39.3276654 93.968 39.2389983 93.7346655 39.1503312 93.4453351 39.1059983 93.1 39.1059983 92.9599993 39.1059983 92.8153341 39.1153315 92.666 39.1339983 92.5166659 39.1526651 92.374334 39.1736648 92.239 39.1969983 92.103666 39.2203317 91.9823339 39.2459982 91.875 39.2739983 91.7676661 39.3019984 91.6906669 39.3253315 91.644 39.3439983L91.644 45.3919983 90.342 45.3919983zM99.638 45.3919983L98.336 45.3919983 98.336 38.1119983 99.638 38.1119983 99.638 45.3919983zM98.98 36.7959983C98.7466655 36.7959983 98.5483342 36.7189991 98.385 36.5649983 98.2216658 36.4109975 98.14 36.2033329 98.14 35.9419983 98.14 35.6806637 98.2216658 35.4729991 98.385 35.3189983 98.5483342 35.1649975 98.7466655 35.0879983 98.98 35.0879983 99.2133345 35.0879983 99.4116659 35.1649975 99.575 35.3189983 99.7383342 35.4729991 99.82 35.6806637 99.82 35.9419983 99.82 36.2033329 99.7383342 36.4109975 99.575 36.5649983 99.4116659 36.7189991 99.2133345 36.7959983 98.98 36.7959983zM103.096 38.1119983L105.854 38.1119983 105.854 39.2039983 103.096 39.2039983 103.096 42.5639983C103.096 42.9280001 103.124 43.2289971 103.18 43.4669983 103.236 43.7049995 103.319999 43.8916643 103.432 44.0269983 103.544001 44.1623323 103.683999 44.257998 103.852 44.3139983 104.020001 44.3699986 104.215999 44.3979983 104.44 44.3979983 104.832002 44.3979983 105.146999 44.3536654 105.385 44.2649983 105.623001 44.1763312 105.788666 44.1133318 105.882 44.0759983L106.134 45.1539983C106.003333 45.219332 105.774668 45.3009978 105.448 45.3989983 105.121332 45.4969988 104.748002 45.5459983 104.328 45.5459983 103.833331 45.5459983 103.425002 45.4829989 103.103 45.3569983 102.780998 45.2309977 102.522001 45.0419996 102.326 44.7899983 102.129999 44.537997 101.992334 44.2276668 101.913 43.8589983 101.833666 43.4903298 101.794 43.0633341 101.794 42.5779983L101.794 36.0819983 103.096 35.8579983 103.096 38.1119983zM107.1 41.7659983C107.1 41.1219951 107.193332 40.5596674 107.38 40.0789983 107.566668 39.5983292 107.813998 39.1993332 108.122 38.8819983 108.430002 38.5646634 108.784665 38.3266658 109.186 38.1679983 109.587335 38.0093308 109.997998 37.9299983 110.418 37.9299983 111.398005 37.9299983 112.149331 38.2356619 112.672 38.8469983 113.194669 39.4583347 113.456 40.3893254 113.456 41.6399983L113.456 41.8569983C113.456 41.9456654 113.451333 42.0273313 113.442 42.1019983L108.458 42.1019983C108.514 42.8580021 108.733331 43.4319963 109.116 43.8239983 109.498669 44.2160003 110.095996 44.4119983 110.908 44.4119983 111.365336 44.4119983 111.750332 44.372332 112.063 44.2929983 112.375668 44.2136646 112.611333 44.1366653 112.77 44.0619983L112.952 45.1539983C112.793333 45.2379987 112.515669 45.3266645 112.119 45.4199983 111.722331 45.5133321 111.272003 45.5599983 110.768 45.5599983 110.13333 45.5599983 109.585002 45.4643326 109.123 45.2729983 108.660998 45.081664 108.280668 44.818 107.982 44.4819983 107.683332 44.1459966 107.461667 43.7470006 107.317 43.2849983 107.172333 42.822996 107.1 42.3166677 107.1 41.7659983zM112.098 41.0519983C112.107333 40.4639954 111.960335 39.9810002 111.657 39.6029983 111.353665 39.2249964 110.936003 39.0359983 110.404 39.0359983 110.105332 39.0359983 109.841668 39.094331 109.613 39.2109983 109.384332 39.3276655 109.190667 39.4793307 109.032 39.6659983 108.873333 39.8526659 108.749667 40.0673304 108.661 40.3099983 108.572333 40.5526662 108.514 40.799997 108.486 41.0519983L112.098 41.0519983zM118.496 45.5599983C117.907997 45.5599983 117.392336 45.4666659 116.949 45.2799983 116.505664 45.0933307 116.132335 44.832 115.829 44.4959983 115.525665 44.1599966 115.299334 43.7610006 115.15 43.2989983 115.000666 42.836996 114.926 42.3260011 114.926 41.7659983 114.926 41.2059955 115.007666 40.6926673 115.171 40.2259983 115.334334 39.7593293 115.565332 39.3556667 115.864 39.0149983 116.162668 38.6743299 116.528998 38.4083326 116.963 38.2169983 117.397002 38.025664 117.879997 37.9299983 118.412 37.9299983 118.738668 37.9299983 119.065332 37.957998 119.392 38.0139983 119.718668 38.0699986 120.031332 38.1586644 120.33 38.2799983L120.036 39.3859983C119.839999 39.2926645 119.613668 39.2179986 119.357 39.1619983 119.100332 39.105998 118.827335 39.0779983 118.538 39.0779983 117.809996 39.0779983 117.252335 39.3066627 116.865 39.7639983 116.477665 40.2213339 116.284 40.8886606 116.284 41.7659983 116.284 42.1580003 116.328333 42.51733 116.417 42.8439983 116.505667 43.1706666 116.645666 43.4506638 116.837 43.6839983 117.028334 43.9173328 117.273332 44.0969977 117.572 44.2229983 117.870668 44.3489989 118.234665 44.4119983 118.664 44.4119983 119.009335 44.4119983 119.321999 44.379332 119.602 44.3139983 119.882001 44.2486646 120.101333 44.1786653 120.26 44.1039983L120.442 45.1959983C120.367333 45.2426652 120.260001 45.2869981 120.12 45.3289983 119.979999 45.3709985 119.821334 45.4083315 119.644 45.4409983 119.466666 45.4736651 119.277668 45.5016648 119.077 45.5249983 118.876332 45.5483317 118.682668 45.5599983 118.496 45.5599983zM123.06 38.1119983L125.818 38.1119983 125.818 39.2039983 123.06 39.2039983 123.06 42.5639983C123.06 42.9280001 123.088 43.2289971 123.144 43.4669983 123.2 43.7049995 123.283999 43.8916643 123.396 44.0269983 123.508001 44.1623323 123.647999 44.257998 123.816 44.3139983 123.984001 44.3699986 124.179999 44.3979983 124.404 44.3979983 124.796002 44.3979983 125.110999 44.3536654 125.349 44.2649983 125.587001 44.1763312 125.752666 44.1133318 125.846 44.0759983L126.098 45.1539983C125.967333 45.219332 125.738668 45.3009978 125.412 45.3989983 125.085332 45.4969988 124.712002 45.5459983 124.292 45.5459983 123.797331 45.5459983 123.389002 45.4829989 123.067 45.3569983 122.744998 45.2309977 122.486001 45.0419996 122.29 44.7899983 122.093999 44.537997 121.956334 44.2276668 121.877 43.8589983 121.797666 43.4903298 121.758 43.0633341 121.758 42.5779983L121.758 36.0819983 123.06 35.8579983 123.06 38.1119983zM133.266 45.1819983C132.967332 45.2566653 132.573002 45.3359979 132.083 45.4199983 131.592998 45.5039987 131.026003 45.5459983 130.382 45.5459983 129.821997 45.5459983 129.350669 45.4643324 128.968 45.3009983 128.585331 45.1376641 128.277334 44.9066665 128.044 44.6079983 127.810665 44.3093301 127.642667 43.9570003 127.54 43.5509983 127.437333 43.1449963 127.386 42.6946674 127.386 42.1999983L127.386 38.1119983 128.688 38.1119983 128.688 41.9199983C128.688 42.8066694 128.827999 43.4413297 129.108 43.8239983 129.388001 44.2066669 129.85933 44.3979983 130.522 44.3979983 130.662001 44.3979983 130.806666 44.3933317 130.956 44.3839983 131.105334 44.3746649 131.245333 44.3629984 131.376 44.3489983 131.506667 44.3349982 131.625666 44.3209984 131.733 44.3069983 131.840334 44.2929982 131.917333 44.2766651 131.964 44.2579983L131.964 38.1119983 133.266 38.1119983 133.266 45.1819983zM138.194 37.9579983C138.306001 37.9579983 138.434333 37.9649982 138.579 37.9789983 138.723667 37.9929984 138.865999 38.0116648 139.006 38.0349983 139.146001 38.0583317 139.274333 38.0816648 139.391 38.1049983 139.507667 38.1283317 139.594 38.1493315 139.65 38.1679983L139.426 39.3019983C139.323333 39.2646648 139.153001 39.2203319 138.915 39.1689983 138.676999 39.1176647 138.371335 39.0919983 137.998 39.0919983 137.755332 39.0919983 137.515001 39.1176647 137.277 39.1689983 137.038999 39.2203319 136.882667 39.2553315 136.808 39.2739983L136.808 45.3919983 135.506 45.3919983 135.506 38.4199983C135.814002 38.3079977 136.196664 38.2029988 136.654 38.1049983 137.111336 38.0069978 137.624664 37.9579983 138.194 37.9579983zM140.504 41.7659983C140.504 41.1219951 140.597332 40.5596674 140.784 40.0789983 140.970668 39.5983292 141.217998 39.1993332 141.526 38.8819983 141.834002 38.5646634 142.188665 38.3266658 142.59 38.1679983 142.991335 38.0093308 143.401998 37.9299983 143.822 37.9299983 144.802005 37.9299983 145.553331 38.2356619 146.076 38.8469983 146.598669 39.4583347 146.86 40.3893254 146.86 41.6399983L146.86 41.8569983C146.86 41.9456654 146.855333 42.0273313 146.846 42.1019983L141.862 42.1019983C141.918 42.8580021 142.137331 43.4319963 142.52 43.8239983 142.902669 44.2160003 143.499996 44.4119983 144.312 44.4119983 144.769336 44.4119983 145.154332 44.372332 145.467 44.2929983 145.779668 44.2136646 146.015333 44.1366653 146.174 44.0619983L146.356 45.1539983C146.197333 45.2379987 145.919669 45.3266645 145.523 45.4199983 145.126331 45.5133321 144.676003 45.5599983 144.172 45.5599983 143.53733 45.5599983 142.989002 45.4643326 142.527 45.2729983 142.064998 45.081664 141.684668 44.818 141.386 44.4819983 141.087332 44.1459966 140.865667 43.7470006 140.721 43.2849983 140.576333 42.822996 140.504 42.3166677 140.504 41.7659983zM145.502 41.0519983C145.511333 40.4639954 145.364335 39.9810002 145.061 39.6029983 144.757665 39.2249964 144.340003 39.0359983 143.808 39.0359983 143.509332 39.0359983 143.245668 39.094331 143.017 39.2109983 142.788332 39.3276655 142.594667 39.4793307 142.436 39.6659983 142.277333 39.8526659 142.153667 40.0673304 142.065 40.3099983 141.976333 40.5526662 141.918 40.799997 141.89 41.0519983L145.502 41.0519983z"/>
  </g>
</svg>
