<svg xmlns="http://www.w3.org/2000/svg" width="160" height="80" viewBox="0 0 160 80">
  <g fill="none" fill-rule="evenodd" transform="translate(0 8)">
    <ellipse cx="31.5" cy="31.721" fill="#4E4B49" rx="31.5" ry="31.683"/>
    <path fill="#FFFFFF" d="M27.91656 41.7106554C27.6947989 40.9848918 27.4478414 40.2389792 27.17568 39.4728954 26.9035186 38.7068116 26.6364013 37.9407392 26.37432 37.1746554L18.20952 37.1746554C17.9474387 37.9407392 17.6803214 38.7068116 17.40816 39.4728954 17.1359986 40.2389792 16.8890411 40.9848918 16.66728 41.7106554L11.7684 41.7106554C12.5546439 39.4527241 13.3005565 37.366185 14.00616 35.4509754 14.7117635 33.5357658 15.4022366 31.7314639 16.0776 30.0380154 16.7529634 28.3445669 17.4182367 26.736823 18.07344 25.2147354 18.7286433 23.6926478 19.4090365 22.2058627 20.11464 20.7543354L24.6204 20.7543354C25.3058434 22.2058627 25.9811967 23.6926478 26.64648 25.2147354 27.3117633 26.736823 27.9820766 28.3445669 28.65744 30.0380154 29.3328034 31.7314639 30.0232765 33.5357658 30.72888 35.4509754 31.4344835 37.366185 32.1803961 39.4527241 32.96664 41.7106554L27.91656 41.7106554zM22.26168 25.5020154C22.1608795 25.8044169 22.009681 26.2176928 21.80808 26.7418554 21.606479 27.266018 21.3746413 27.870812 21.11256 28.5562554 20.8504787 29.2416988 20.5632016 29.9976913 20.25072 30.8242554 19.9382384 31.6508195 19.6207216 32.5176909 19.29816 33.4248954L25.25544 33.4248954C24.9328784 32.5176909 24.6204015 31.6508195 24.318 30.8242554 24.0155985 29.9976913 23.7283214 29.2416988 23.45616 28.5562554 23.1839986 27.870812 22.947121 27.266018 22.74552 26.7418554 22.543919 26.2176928 22.3826406 25.8044169 22.26168 25.5020154zM39.22632 33.6365754C39.22632 35.0276224 39.5387969 36.1464912 40.16376 36.9932154 40.7887231 37.8399396 41.7160739 38.2632954 42.94584 38.2632954 43.349042 38.2632954 43.7219983 38.2481756 44.06472 38.2179354 44.4074417 38.1876952 44.6896789 38.1524156 44.91144 38.1120954L44.91144 29.9170554C44.6291986 29.7356145 44.2612823 29.584416 43.80768 29.4634554 43.3540777 29.3424948 42.8954423 29.2820154 42.43176 29.2820154 40.2947893 29.2820154 39.22632 30.7335209 39.22632 33.6365754zM49.4172 41.1965754C49.013998 41.317536 48.5503226 41.4334548 48.02616 41.5443354 47.5019974 41.655216 46.9526429 41.750975 46.37808 41.8316154 45.8035171 41.9122558 45.218883 41.9777751 44.62416 42.0281754 44.029437 42.0785757 43.4599227 42.1037754 42.9156 42.1037754 41.6051934 42.1037754 40.4359251 41.9122573 39.40776 41.5292154 38.3795949 41.1461735 37.5127235 40.596819 36.80712 39.8811354 36.1015165 39.1654518 35.5622419 38.2985805 35.18928 37.2804954 34.8163181 36.2624103 34.62984 35.1183417 34.62984 33.8482554 34.62984 32.5580089 34.7911184 31.3937806 35.11368 30.3555354 35.4362416 29.3172902 35.899917 28.435299 36.50472 27.7095354 37.109523 26.9837718 37.8503956 26.4293773 38.72736 26.0463354 39.6043244 25.6632935 40.6072744 25.4717754 41.73624 25.4717754 42.3612031 25.4717754 42.9206375 25.5322548 43.41456 25.6532154 43.9084825 25.774176 44.4074375 25.9455343 44.91144 26.1672954L44.91144 18.9701754 49.4172 18.2444154 49.4172 41.1965754zM75.584 24.062C75.8920015 24.062 76.1649988 24.0550001 76.403 24.041 76.6410012 24.0269999 76.8393325 24.0013335 76.998 23.964L76.998 21.794C76.9046662 21.7473331 76.753001 21.7076668 76.543 21.675 76.332999 21.6423332 76.0786682 21.626 75.78 21.626 75.583999 21.626 75.3763344 21.6399999 75.157 21.668 74.9376656 21.6960001 74.7370009 21.7543329 74.555 21.843 74.3729991 21.9316671 74.2213339 22.0529992 74.1 22.207 73.9786661 22.3610008 73.918 22.5639987 73.918 22.816 73.918 23.282669 74.0673318 23.6069991 74.366 23.789 74.6646682 23.9710009 75.0706641 24.062 75.584 24.062zM75.472 17.538C75.9946693 17.538 76.4356649 17.605666 76.795 17.741 77.1543351 17.876334 77.4436656 18.0676654 77.663 18.315 77.8823344 18.5623346 78.0386662 18.8563316 78.132 19.197 78.2253338 19.5376684 78.272 19.9133313 78.272 20.324L78.272 24.874C78.1599994 24.8926668 78.0036677 24.9183332 77.803 24.951 77.6023323 24.9836668 77.3760013 25.0139999 77.124 25.042 76.8719987 25.0700001 76.5990015 25.0956665 76.305 25.119 76.0109985 25.1423334 75.7193348 25.154 75.43 25.154 75.0193313 25.154 74.6413351 25.1120004 74.296 25.028 73.9506649 24.9439996 73.6520013 24.8110009 73.4 24.629 73.1479987 24.4469991 72.9520007 24.2066682 72.812 23.908 72.6719993 23.6093318 72.602 23.2500021 72.602 22.83 72.602 22.4286647 72.6836658 22.0833348 72.847 21.794 73.0103342 21.5046652 73.2319986 21.2713342 73.512 21.094 73.7920014 20.9166658 74.1186648 20.7860004 74.492 20.702 74.8653352 20.6179996 75.2573313 20.576 75.668 20.576 75.7986673 20.576 75.9339993 20.5829999 76.074 20.597 76.2140007 20.6110001 76.3469994 20.6296665 76.473 20.653 76.5990006 20.6763334 76.7086662 20.6973332 76.802 20.716 76.8953338 20.7346668 76.9606665 20.7486666 76.998 20.758L76.998 20.394C76.998 20.1793323 76.9746669 19.967001 76.928 19.757 76.8813331 19.5469989 76.7973339 19.3603341 76.676 19.197 76.5546661 19.0336658 76.3890011 18.9030005 76.179 18.805 75.9689989 18.7069995 75.6960017 18.658 75.36 18.658 74.9306645 18.658 74.5550016 18.688333 74.233 18.749 73.9109984 18.809667 73.6706675 18.8726663 73.512 18.938L73.358 17.86C73.5260008 17.785333 73.805998 17.7130003 74.198 17.643 74.590002 17.5729996 75.0146644 17.538 75.472 17.538zM84.992 24.272C84.8799994 24.346667 84.6630016 24.4423327 84.341 24.559 84.0189984 24.6756672 83.6433355 24.734 83.214 24.734 82.7753311 24.734 82.3623353 24.6640007 81.975 24.524 81.5876647 24.3839993 81.2493348 24.1670015 80.96 23.873 80.6706652 23.5789985 80.4420008 23.2126689 80.274 22.774 80.1059992 22.3353311 80.022 21.8126697 80.022 21.206 80.022 20.6739973 80.1013325 20.1863355 80.26 19.743 80.4186675 19.2996644 80.6496652 18.9170016 80.953 18.595 81.2563349 18.2729984 81.6273311 18.0210009 82.066 17.839 82.5046689 17.6569991 82.9993306 17.566 83.55 17.566 84.1566697 17.566 84.6863311 17.6103329 85.139 17.699 85.5916689 17.7876671 85.9719985 17.869333 86.28 17.944L86.28 24.44C86.28 25.5600056 85.9906696 26.3719975 85.412 26.876 84.8333304 27.3800025 83.9560059 27.632 82.78 27.632 82.3226644 27.632 81.891002 27.594667 81.485 27.52 81.078998 27.445333 80.7266682 27.3566672 80.428 27.254L80.666 26.12C80.9273346 26.2226672 81.2469981 26.3136663 81.625 26.393 82.0030019 26.4723337 82.3973313 26.512 82.808 26.512 83.5826705 26.512 84.1403316 26.3580015 84.481 26.05 84.8216684 25.7419985 84.992 25.2520034 84.992 24.58L84.992 24.272zM84.978 18.868C84.8473327 18.8306665 84.6723344 18.7956668 84.453 18.763 84.2336656 18.7303332 83.9373352 18.714 83.564 18.714 82.8639965 18.714 82.3250019 18.9426644 81.947 19.4 81.5689981 19.8573356 81.38 20.4639962 81.38 21.22 81.38 21.6400021 81.4336661 21.9993318 81.541 22.298 81.6483339 22.5966682 81.7929991 22.843999 81.975 23.04 82.1570009 23.236001 82.3669988 23.3806662 82.605 23.474 82.8430012 23.5673338 83.0879987 23.614 83.34 23.614 83.6853351 23.614 84.0026652 23.5650005 84.292 23.467 84.5813348 23.3689995 84.8099992 23.2546673 84.978 23.124L84.978 18.868zM89.822 25L88.52 25 88.52 17.72 89.822 17.72 89.822 25zM89.164 16.404C88.9306655 16.404 88.7323341 16.3270008 88.569 16.173 88.4056659 16.0189992 88.324 15.8113346 88.324 15.55 88.324 15.2886654 88.4056659 15.0810008 88.569 14.927 88.7323341 14.7729992 88.9306655 14.696 89.164 14.696 89.3973345 14.696 89.5956659 14.7729992 89.759 14.927 89.9223341 15.0810008 90.004 15.2886654 90.004 15.55 90.004 15.8113346 89.9223341 16.0189992 89.759 16.173 89.5956659 16.3270008 89.3973345 16.404 89.164 16.404zM94.246 25.14C93.4433293 25.1213332 92.8740017 24.9486683 92.538 24.622 92.2019983 24.2953317 92.034 23.7866701 92.034 23.096L92.034 14.36 93.336 14.136 93.336 22.886C93.336 23.1006677 93.3546665 23.2779993 93.392 23.418 93.4293335 23.5580007 93.4899996 23.6699996 93.574 23.754 93.6580004 23.8380004 93.7699993 23.9009998 93.91 23.943 94.0500007 23.9850002 94.2226656 24.0199999 94.428 24.048L94.246 25.14zM95.478 21.374C95.478 20.7299968 95.5713324 20.1676691 95.758 19.687 95.9446676 19.2063309 96.1919985 18.8073349 96.5 18.49 96.8080015 18.1726651 97.1626647 17.9346675 97.564 17.776 97.9653353 17.6173325 98.3759979 17.538 98.796 17.538 99.7760049 17.538 100.527331 17.8436636 101.05 18.455 101.572669 19.0663364 101.834 19.9973271 101.834 21.248L101.834 21.465C101.834 21.5536671 101.829333 21.635333 101.82 21.71L96.836 21.71C96.8920003 22.4660038 97.1113314 23.039998 97.494 23.432 97.8766686 23.824002 98.4739959 24.02 99.286 24.02 99.7433356 24.02 100.128332 23.9803337 100.441 23.901 100.753668 23.8216663 100.989333 23.744667 101.148 23.67L101.33 24.762C101.171333 24.8460004 100.893669 24.9346662 100.497 25.028 100.100331 25.1213338 99.6500025 25.168 99.146 25.168 98.5113302 25.168 97.9630023 25.0723343 97.501 24.881 97.0389977 24.6896657 96.6586682 24.4260017 96.36 24.09 96.0613318 23.7539983 95.8396674 23.3550023 95.695 22.893 95.5503326 22.4309977 95.478 21.9246694 95.478 21.374zM100.476 20.66C100.485333 20.0719971 100.338335 19.5890019 100.035 19.211 99.7316651 18.8329981 99.3140027 18.644 98.782 18.644 98.4833318 18.644 98.2196678 18.7023327 97.991 18.819 97.7623322 18.9356672 97.5686675 19.0873324 97.41 19.274 97.2513325 19.4606676 97.1276671 19.6753321 97.039 19.918 96.9503329 20.1606679 96.8920001 20.4079987 96.864 20.66L100.476 20.66zM77.824 39.6519983C77.6653325 39.521331 77.4366682 39.3953322 77.138 39.2739983 76.8393318 39.1526644 76.5126684 39.0919983 76.158 39.0919983 75.7846648 39.0919983 75.4650013 39.1596643 75.199 39.2949983 74.9329987 39.4303323 74.7160008 39.6169971 74.548 39.8549983 74.3799992 40.0929995 74.258667 40.37533 74.184 40.7019983 74.109333 41.0286666 74.072 41.3786631 74.072 41.7519983 74.072 42.6013359 74.2819979 43.256996 74.702 43.7189983 75.1220021 44.1810006 75.6819965 44.4119983 76.382 44.4119983 76.7366684 44.4119983 77.0329988 44.3956651 77.271 44.3629983 77.5090012 44.3303315 77.6933327 44.2953318 77.824 44.2579983L77.824 39.6519983zM77.824 34.7519983L79.126 34.5279983 79.126 45.1819983C78.8273318 45.2659987 78.444669 45.3499979 77.978 45.4339983 77.511331 45.5179987 76.9746697 45.5599983 76.368 45.5599983 75.8079972 45.5599983 75.3040022 45.4713325 74.856 45.2939983 74.4079978 45.1166641 74.0253349 44.8646666 73.708 44.5379983 73.3906651 44.21133 73.1456675 43.812334 72.973 43.3409983 72.8003325 42.8696626 72.714 42.3400012 72.714 41.7519983 72.714 41.1919955 72.7863326 40.6786673 72.931 40.2119983 73.0756674 39.7453293 73.2879986 39.344 73.568 39.0079983 73.8480014 38.6719966 74.190998 38.4106659 74.597 38.2239983 75.003002 38.0373307 75.4673307 37.9439983 75.99 37.9439983 76.4100021 37.9439983 76.7809984 37.9999977 77.103 38.1119983 77.4250016 38.2239989 77.6653325 38.3313311 77.824 38.4339983L77.824 34.7519983zM80.96 41.7659983C80.96 41.1219951 81.0533324 40.5596674 81.24 40.0789983 81.4266676 39.5983292 81.6739985 39.1993332 81.982 38.8819983 82.2900015 38.5646634 82.6446647 38.3266658 83.046 38.1679983 83.4473353 38.0093308 83.8579979 37.9299983 84.278 37.9299983 85.2580049 37.9299983 86.0093307 38.2356619 86.532 38.8469983 87.0546693 39.4583347 87.316 40.3893254 87.316 41.6399983L87.316 41.8569983C87.316 41.9456654 87.3113334 42.0273313 87.302 42.1019983L82.318 42.1019983C82.3740003 42.8580021 82.5933314 43.4319963 82.976 43.8239983 83.3586686 44.2160003 83.9559959 44.4119983 84.768 44.4119983 85.2253356 44.4119983 85.6103318 44.372332 85.923 44.2929983 86.2356682 44.2136646 86.4713325 44.1366653 86.63 44.0619983L86.812 45.1539983C86.6533325 45.2379987 86.3756686 45.3266645 85.979 45.4199983 85.5823314 45.5133321 85.1320025 45.5599983 84.628 45.5599983 83.9933302 45.5599983 83.4450023 45.4643326 82.983 45.2729983 82.5209977 45.081664 82.1406682 44.818 81.842 44.4819983 81.5433318 44.1459966 81.3216674 43.7470006 81.177 43.2849983 81.0323326 42.822996 80.96 42.3166677 80.96 41.7659983zM85.958 41.0519983C85.9673334 40.4639954 85.8203348 39.9810002 85.517 39.6029983 85.2136651 39.2249964 84.7960027 39.0359983 84.264 39.0359983 83.9653318 39.0359983 83.7016678 39.094331 83.473 39.2109983 83.2443322 39.3276655 83.0506675 39.4793307 82.892 39.6659983 82.7333325 39.8526659 82.6096671 40.0673304 82.521 40.3099983 82.4323329 40.5526662 82.3740001 40.799997 82.346 41.0519983L85.958 41.0519983zM94.876 38.1119983C94.5119982 39.4746718 94.0850025 40.7813254 93.595 42.0319983 93.1049976 43.2826712 92.6313356 44.40266 92.174 45.3919983L90.998 45.3919983C90.5406644 44.40266 90.0670025 43.2826712 89.577 42.0319983 89.0869976 40.7813254 88.6600018 39.4746718 88.296 38.1119983L89.696 38.1119983C89.8080006 38.5693339 89.9409992 39.0569957 90.095 39.5749983 90.2490008 40.0930009 90.4123325 40.6063291 90.585 41.1149983 90.7576675 41.6236675 90.9326658 42.1159959 91.11 42.5919983 91.2873342 43.0680007 91.4553325 43.4926631 91.614 43.8659983 91.7726675 43.4926631 91.9406658 43.0680007 92.118 42.5919983 92.2953342 42.1159959 92.4703325 41.6236675 92.643 41.1149983 92.8156675 40.6063291 92.9789992 40.0930009 93.133 39.5749983 93.2870008 39.0569957 93.4199994 38.5693339 93.532 38.1119983L94.876 38.1119983zM95.814 41.7659983C95.814 41.1219951 95.9073324 40.5596674 96.094 40.0789983 96.2806676 39.5983292 96.5279985 39.1993332 96.836 38.8819983 97.1440015 38.5646634 97.4986647 38.3266658 97.9 38.1679983 98.3013353 38.0093308 98.7119979 37.9299983 99.132 37.9299983 100.112005 37.9299983 100.863331 38.2356619 101.386 38.8469983 101.908669 39.4583347 102.17 40.3893254 102.17 41.6399983L102.17 41.8569983C102.17 41.9456654 102.165333 42.0273313 102.156 42.1019983L97.172 42.1019983C97.2280003 42.8580021 97.4473314 43.4319963 97.83 43.8239983 98.2126686 44.2160003 98.8099959 44.4119983 99.622 44.4119983 100.079336 44.4119983 100.464332 44.372332 100.777 44.2929983 101.089668 44.2136646 101.325333 44.1366653 101.484 44.0619983L101.666 45.1539983C101.507333 45.2379987 101.229669 45.3266645 100.833 45.4199983 100.436331 45.5133321 99.9860025 45.5599983 99.482 45.5599983 98.8473302 45.5599983 98.2990023 45.4643326 97.837 45.2729983 97.3749977 45.081664 96.9946682 44.818 96.696 44.4819983 96.3973318 44.1459966 96.1756674 43.7470006 96.031 43.2849983 95.8863326 42.822996 95.814 42.3166677 95.814 41.7659983zM100.812 41.0519983C100.821333 40.4639954 100.674335 39.9810002 100.371 39.6029983 100.067665 39.2249964 99.6500027 39.0359983 99.118 39.0359983 98.8193318 39.0359983 98.5556678 39.094331 98.327 39.2109983 98.0983322 39.3276655 97.9046675 39.4793307 97.746 39.6659983 97.5873325 39.8526659 97.4636671 40.0673304 97.375 40.3099983 97.2863329 40.5526662 97.2280001 40.799997 97.2 41.0519983L100.812 41.0519983zM106.23 45.5319983C105.427329 45.5133315 104.858002 45.3406666 104.522 45.0139983 104.185998 44.68733 104.018 44.1786684 104.018 43.4879983L104.018 34.7519983 105.32 34.5279983 105.32 43.2779983C105.32 43.492666 105.338666 43.6699976 105.376 43.8099983 105.413334 43.949999 105.474 44.0619979 105.558 44.1459983 105.642 44.2299987 105.753999 44.2929981 105.894 44.3349983 106.034001 44.3769985 106.206666 44.4119982 106.412 44.4399983L106.23 45.5319983zM114.294 41.7519983C114.294 42.3306679 114.210001 42.8533293 114.042 43.3199983 113.873999 43.7866673 113.638335 44.1879966 113.335 44.5239983 113.031665 44.86 112.670002 45.1189974 112.25 45.3009983 111.829998 45.4829992 111.372669 45.5739983 110.878 45.5739983 110.383331 45.5739983 109.926002 45.4829992 109.506 45.3009983 109.085998 45.1189974 108.724335 44.86 108.421 44.5239983 108.117665 44.1879966 107.882001 43.7866673 107.714 43.3199983 107.545999 42.8533293 107.462 42.3306679 107.462 41.7519983 107.462 41.1826621 107.545999 40.662334 107.714 40.1909983 107.882001 39.7196626 108.117665 39.316 108.421 38.9799983 108.724335 38.6439966 109.085998 38.3849992 109.506 38.2029983 109.926002 38.0209974 110.383331 37.9299983 110.878 37.9299983 111.372669 37.9299983 111.829998 38.0209974 112.25 38.2029983 112.670002 38.3849992 113.031665 38.6439966 113.335 38.9799983 113.638335 39.316 113.873999 39.7196626 114.042 40.1909983 114.210001 40.662334 114.294 41.1826621 114.294 41.7519983zM112.936 41.7519983C112.936 40.9306609 112.751669 40.2796674 112.383 39.7989983 112.014331 39.3183292 111.51267 39.0779983 110.878 39.0779983 110.24333 39.0779983 109.741669 39.3183292 109.373 39.7989983 109.004331 40.2796674 108.82 40.9306609 108.82 41.7519983 108.82 42.5733357 109.004331 43.2243292 109.373 43.7049983 109.741669 44.1856674 110.24333 44.4259983 110.878 44.4259983 111.51267 44.4259983 112.014331 44.1856674 112.383 43.7049983 112.751669 43.2243292 112.936 42.5733357 112.936 41.7519983zM121.182 41.7659983C121.182 40.9166607 120.972002 40.2633339 120.552 39.8059983 120.131998 39.3486627 119.572003 39.1199983 118.872 39.1199983 118.479998 39.1199983 118.174334 39.1339982 117.955 39.1619983 117.735666 39.1899984 117.560667 39.2226648 117.43 39.2599983L117.43 43.8519983C117.588667 43.9826656 117.817332 44.1086644 118.116 44.2299983 118.414668 44.3513322 118.741332 44.4119983 119.096 44.4119983 119.469335 44.4119983 119.788999 44.3443323 120.055 44.2089983 120.321001 44.0736643 120.537999 43.8869995 120.706 43.6489983 120.874001 43.4109971 120.995333 43.1309999 121.07 42.8089983 121.144667 42.4869967 121.182 42.1393335 121.182 41.7659983zM122.54 41.7659983C122.54 42.3166677 122.467667 42.8253293 122.323 43.2919983 122.178333 43.7586673 121.966001 44.1599966 121.686 44.4959983 121.405999 44.832 121.063002 45.0933307 120.657 45.2799983 120.250998 45.4666659 119.786669 45.5599983 119.264 45.5599983 118.843998 45.5599983 118.473002 45.5039989 118.151 45.3919983 117.828998 45.2799977 117.588667 45.1726655 117.43 45.0699983L117.43 47.9819983 116.128 47.9819983 116.128 38.3359983C116.436002 38.2613313 116.820998 38.1796654 117.283 38.0909983 117.745002 38.0023312 118.27933 37.9579983 118.886 37.9579983 119.446003 37.9579983 119.949998 38.0466641 120.398 38.2239983 120.846002 38.4013325 121.228665 38.65333 121.546 38.9799983 121.863335 39.3066666 122.108332 39.7056626 122.281 40.1769983 122.453668 40.648334 122.54 41.1779954 122.54 41.7659983zM124.374 38.3219983C124.672668 38.2473313 125.066998 38.1679987 125.557 38.0839983 126.047002 37.9999979 126.613997 37.9579983 127.258 37.9579983 127.724669 37.9579983 128.116665 38.0209977 128.434 38.1469983 128.751335 38.2729989 129.017332 38.4573304 129.232 38.6999983 129.297334 38.6533314 129.399999 38.5879987 129.54 38.5039983 129.680001 38.4199979 129.852666 38.338332 130.058 38.2589983 130.263334 38.1796646 130.491999 38.1096653 130.744 38.0489983 130.996001 37.9883313 131.266665 37.9579983 131.556 37.9579983 132.116003 37.9579983 132.573332 38.0396641 132.928 38.2029983 133.282668 38.3663324 133.560332 38.5973301 133.761 38.8959983 133.961668 39.1946665 134.097 39.5493296 134.167 39.9599983 134.237 40.370667 134.272 40.8186625 134.272 41.3039983L134.272 45.3919983 132.97 45.3919983 132.97 41.5839983C132.97 41.1546628 132.949 40.7859998 132.907 40.4779983 132.865 40.1699968 132.785667 39.9133327 132.669 39.7079983 132.552333 39.5026639 132.393668 39.3509988 132.193 39.2529983 131.992332 39.1549978 131.733335 39.1059983 131.416 39.1059983 130.977331 39.1059983 130.615668 39.164331 130.331 39.2809983 130.046332 39.3976655 129.852667 39.5026645 129.75 39.5959983 129.824667 39.8386662 129.880666 40.1046635 129.918 40.3939983 129.955334 40.6833331 129.974 40.9866634 129.974 41.3039983L129.974 45.3919983 128.672 45.3919983 128.672 41.5839983C128.672 41.1546628 128.648667 40.7859998 128.602 40.4779983 128.555333 40.1699968 128.473667 39.9133327 128.357 39.7079983 128.240333 39.5026639 128.081668 39.3509988 127.881 39.2529983 127.680332 39.1549978 127.426002 39.1059983 127.118 39.1059983 126.987333 39.1059983 126.847334 39.1106649 126.698 39.1199983 126.548666 39.1293317 126.406334 39.1409982 126.271 39.1549983 126.135666 39.1689984 126.012001 39.1853315 125.9 39.2039983 125.787999 39.2226651 125.713334 39.2366649 125.676 39.2459983L125.676 45.3919983 124.374 45.3919983 124.374 38.3219983zM136.022 41.7659983C136.022 41.1219951 136.115332 40.5596674 136.302 40.0789983 136.488668 39.5983292 136.735998 39.1993332 137.044 38.8819983 137.352002 38.5646634 137.706665 38.3266658 138.108 38.1679983 138.509335 38.0093308 138.919998 37.9299983 139.34 37.9299983 140.320005 37.9299983 141.071331 38.2356619 141.594 38.8469983 142.116669 39.4583347 142.378 40.3893254 142.378 41.6399983L142.378 41.8569983C142.378 41.9456654 142.373333 42.0273313 142.364 42.1019983L137.38 42.1019983C137.436 42.8580021 137.655331 43.4319963 138.038 43.8239983 138.420669 44.2160003 139.017996 44.4119983 139.83 44.4119983 140.287336 44.4119983 140.672332 44.372332 140.985 44.2929983 141.297668 44.2136646 141.533333 44.1366653 141.692 44.0619983L141.874 45.1539983C141.715333 45.2379987 141.437669 45.3266645 141.041 45.4199983 140.644331 45.5133321 140.194003 45.5599983 139.69 45.5599983 139.05533 45.5599983 138.507002 45.4643326 138.045 45.2729983 137.582998 45.081664 137.202668 44.818 136.904 44.4819983 136.605332 44.1459966 136.383667 43.7470006 136.239 43.2849983 136.094333 42.822996 136.022 42.3166677 136.022 41.7659983zM141.02 41.0519983C141.029333 40.4639954 140.882335 39.9810002 140.579 39.6029983 140.275665 39.2249964 139.858003 39.0359983 139.326 39.0359983 139.027332 39.0359983 138.763668 39.094331 138.535 39.2109983 138.306332 39.3276655 138.112667 39.4793307 137.954 39.6659983 137.795333 39.8526659 137.671667 40.0673304 137.583 40.3099983 137.494333 40.5526662 137.436 40.799997 137.408 41.0519983L141.02 41.0519983zM144.254 38.3219983C144.552668 38.2473313 144.949331 38.1679987 145.444 38.0839983 145.938669 37.9999979 146.507997 37.9579983 147.152 37.9579983 147.73067 37.9579983 148.211331 38.0396641 148.594 38.2029983 148.976669 38.3663324 149.282332 38.5949968 149.511 38.8889983 149.739668 39.1829998 149.900666 39.5353296 149.994 39.9459983 150.087334 40.356667 150.134 40.8093292 150.134 41.3039983L150.134 45.3919983 148.832 45.3919983 148.832 41.5839983C148.832 41.1359961 148.801667 40.7533332 148.741 40.4359983 148.680333 40.1186634 148.580001 39.8619993 148.44 39.6659983 148.299999 39.4699973 148.113335 39.3276654 147.88 39.2389983 147.646666 39.1503312 147.357335 39.1059983 147.012 39.1059983 146.871999 39.1059983 146.727334 39.1106649 146.578 39.1199983 146.428666 39.1293317 146.286334 39.1409982 146.151 39.1549983 146.015666 39.1689984 145.894334 39.1853315 145.787 39.2039983 145.679666 39.2226651 145.602667 39.2366649 145.556 39.2459983L145.556 45.3919983 144.254 45.3919983 144.254 38.3219983zM153.508 38.1119983L156.266 38.1119983 156.266 39.2039983 153.508 39.2039983 153.508 42.5639983C153.508 42.9280001 153.536 43.2289971 153.592 43.4669983 153.648 43.7049995 153.731999 43.8916643 153.844 44.0269983 153.956001 44.1623323 154.095999 44.257998 154.264 44.3139983 154.432001 44.3699986 154.627999 44.3979983 154.852 44.3979983 155.244002 44.3979983 155.558999 44.3536654 155.797 44.2649983 156.035001 44.1763312 156.200666 44.1133318 156.294 44.0759983L156.546 45.1539983C156.415333 45.219332 156.186668 45.3009978 155.86 45.3989983 155.533332 45.4969988 155.160002 45.5459983 154.74 45.5459983 154.245331 45.5459983 153.837002 45.4829989 153.515 45.3569983 153.192998 45.2309977 152.934001 45.0419996 152.738 44.7899983 152.541999 44.537997 152.404334 44.2276668 152.325 43.8589983 152.245666 43.4903298 152.206 43.0633341 152.206 42.5779983L152.206 36.0819983 153.508 35.8579983 153.508 38.1119983z"/>
  </g>
</svg>
