<svg xmlns="http://www.w3.org/2000/svg" width="160" height="80" viewBox="0 0 160 80">
  <g fill="none" fill-rule="evenodd" transform="translate(0 8)">
    <ellipse cx="31.5" cy="31.721" fill="#4E4B49" rx="31.5" ry="31.683"/>
    <path fill="#FFFFFF" d="M22.51872 38.1120954C23.1840033 38.1120954 23.7333578 38.056656 24.1668 37.9457754 24.6002422 37.8348948 24.9479987 37.6836964 25.21008 37.4921754 25.4721613 37.3006544 25.6535995 37.0738567 25.7544 36.8117754 25.8552005 36.5496941 25.9056 36.257377 25.9056 35.9348154 25.9056 35.249372 25.5830432 34.6798577 24.93792 34.2262554 24.2927968 33.7726531 23.1840079 33.283778 21.61152 32.7596154 20.9260766 32.5176942 20.2406434 32.240497 19.5552 31.9280154 18.8697566 31.6155338 18.2548827 31.2224178 17.71056 30.7486554 17.1662373 30.274893 16.7227217 29.7003388 16.38 29.0249754 16.0372783 28.349612 15.86592 27.5281002 15.86592 26.5604154 15.86592 25.5927306 16.0473582 24.7208193 16.41024 23.9446554 16.7731218 23.1684915 17.2871967 22.5082581 17.95248 21.9639354 18.6177633 21.4196127 19.4241553 21.0012969 20.37168 20.7089754 21.3192047 20.4166539 22.3876741 20.2704954 23.57712 20.2704954 24.9883271 20.2704954 26.2079949 20.4216939 27.23616 20.7240954 28.2643251 21.0264969 29.1110367 21.3591336 29.77632 21.7220154L28.41552 25.4415354C27.8308771 25.1391339 27.1807236 24.8720166 26.46504 24.6401754 25.7493564 24.4083342 24.887525 24.2924154 23.87952 24.2924154 22.7505544 24.2924154 21.9391225 24.4486538 21.4452 24.7611354 20.9512775 25.073617 20.70432 25.5524122 20.70432 26.1975354 20.70432 26.5805773 20.7950391 26.9031341 20.97648 27.1652154 21.1579209 27.4272967 21.4149583 27.6641743 21.7476 27.8758554 22.0802417 28.0875365 22.4632778 28.2790545 22.89672 28.4504154 23.3301622 28.6217763 23.8089574 28.7981745 24.33312 28.9796154 25.4217654 29.3828174 26.369276 29.7809734 27.17568 30.1740954 27.982084 30.5672174 28.6523973 31.0258528 29.18664 31.5500154 29.7208827 32.074178 30.1190387 32.6890519 30.38112 33.3946554 30.6432013 34.1002589 30.77424 34.9570504 30.77424 35.9650554 30.77424 37.9205852 30.0888069 39.43761 28.71792 40.5161754 27.3470331 41.5947408 25.2806538 42.1340154 22.51872 42.1340154 21.5913554 42.1340154 20.7547237 42.078576 20.0088 41.9676954 19.2628763 41.8568148 18.6026429 41.7207362 18.02808 41.5594554 17.4535171 41.3981746 16.9596021 41.2268163 16.54632 41.0453754 16.1330379 40.8639345 15.7852814 40.6925762 15.50304 40.5312954L16.8336 36.7815354C17.4585631 37.1242571 18.2296754 37.431694 19.14696 37.7038554 20.0642446 37.9760168 21.1881533 38.1120954 22.51872 38.1120954zM38.42496 41.7106554C37.3967949 39.6946453 36.3535253 37.3359489 35.29512 34.6344954 34.2367147 31.9330419 33.2337647 28.9897113 32.28624 25.8044154L37.06416 25.8044154C37.265761 26.5906593 37.5026386 27.4424108 37.7748 28.3596954 38.0469614 29.27698 38.3291985 30.2043307 38.62152 31.1417754 38.9138415 32.0792201 39.2061585 32.991451 39.49848 33.8784954 39.7908015 34.7655398 40.0780786 35.5719318 40.36032 36.2976954 40.6224013 35.5719318 40.9046385 34.7655398 41.20704 33.8784954 41.5094415 32.991451 41.8067985 32.0792201 42.09912 31.1417754 42.3914415 30.2043307 42.6736786 29.27698 42.94584 28.3596954 43.2180014 27.4424108 43.454879 26.5906593 43.65648 25.8044154L48.31344 25.8044154C47.3659153 28.9897113 46.3629653 31.9330419 45.30456 34.6344954 44.2461547 37.3359489 43.2028851 39.6946453 42.17472 41.7106554L38.42496 41.7106554zM74.814 24.062C75.3460027 24.062 75.740332 23.9920007 75.997 23.852 76.2536679 23.7119993 76.382 23.4880015 76.382 23.18 76.382 22.8626651 76.2560013 22.6106676 76.004 22.424 75.7519987 22.2373324 75.3366696 22.0273345 74.758 21.794 74.4779986 21.6819994 74.2096679 21.5676672 73.953 21.451 73.696332 21.3343327 73.4746676 21.1966675 73.288 21.038 73.1013324 20.8793325 72.9520006 20.6880011 72.84 20.464 72.7279994 20.2399989 72.672 19.9646683 72.672 19.638 72.672 18.9939968 72.9099976 18.4830019 73.386 18.105 73.8620024 17.7269981 74.5106626 17.538 75.332 17.538 75.5373344 17.538 75.7426656 17.5496665 75.948 17.573 76.1533344 17.5963334 76.3446658 17.6243332 76.522 17.657 76.6993342 17.6896668 76.855666 17.7246665 76.991 17.762 77.126334 17.7993335 77.231333 17.8319999 77.306 17.86L77.068 18.98C76.9279993 18.905333 76.7086682 18.8283337 76.41 18.749 76.1113318 18.6696663 75.7520021 18.63 75.332 18.63 74.9679982 18.63 74.650668 18.7023326 74.38 18.847 74.109332 18.9916674 73.974 19.2179985 73.974 19.526 73.974 19.6846675 74.004333 19.8246661 74.065 19.946 74.125667 20.0673339 74.2189994 20.1769995 74.345 20.275 74.4710006 20.3730005 74.6273324 20.4639996 74.814 20.548 75.0006676 20.6320004 75.2246654 20.7206662 75.486 20.814 75.8313351 20.9446673 76.139332 21.0729994 76.41 21.199 76.680668 21.3250006 76.9116657 21.4719992 77.103 21.64 77.2943343 21.8080008 77.4413328 22.0109988 77.544 22.249 77.6466672 22.4870012 77.698 22.7786649 77.698 23.124 77.698 23.7960034 77.4483358 24.3046649 76.949 24.65 76.4496642 24.9953351 75.7380046 25.168 74.814 25.168 74.1699968 25.168 73.6660018 25.1143339 73.302 25.007 72.9379982 24.8996661 72.6906673 24.8180003 72.56 24.762L72.798 23.642C72.9473341 23.6980003 73.1853317 23.7819994 73.512 23.894 73.8386683 24.0060006 74.272664 24.062 74.814 24.062zM78.51 26.358C78.6126672 26.4046669 78.7456658 26.4489998 78.909 26.491 79.0723341 26.5330002 79.2333325 26.554 79.392 26.554 79.9053359 26.554 80.3066652 26.4396678 80.596 26.211 80.8853348 25.9823322 81.1466655 25.6113359 81.38 25.098 80.7919971 23.9779944 80.2436692 22.7903396 79.735 21.535 79.2263308 20.2796604 78.8040017 19.0080064 78.468 17.72L79.868 17.72C79.9706672 18.1400021 80.0943326 18.5926642 80.239 19.078 80.3836674 19.5633358 80.5446658 20.0626641 80.722 20.576 80.8993342 21.0893359 81.0906656 21.6026641 81.296 22.116 81.5013344 22.6293359 81.7159989 23.1239976 81.94 23.6 82.2946684 22.6199951 82.6026654 21.6493381 82.864 20.688 83.1253346 19.7266619 83.3726655 18.7373384 83.606 17.72L84.95 17.72C84.6139983 19.0920069 84.2406687 20.410327 83.83 21.675 83.4193313 22.939673 82.9760024 24.1226612 82.5 25.224 82.3133324 25.6440021 82.1196677 26.0056651 81.919 26.309 81.7183323 26.6123348 81.4966679 26.861999 81.254 27.058 81.0113321 27.254001 80.7383348 27.3986662 80.435 27.492 80.1316651 27.5853338 79.7886686 27.632 79.406 27.632 79.3033328 27.632 79.1960006 27.6250001 79.084 27.611 78.9719994 27.5969999 78.8623339 27.5783334 78.755 27.555 78.6476661 27.5316665 78.5496671 27.5060001 78.461 27.478 78.3723329 27.4499999 78.3093335 27.4266668 78.272 27.408L78.51 26.358zM88.016 24.062C88.5480027 24.062 88.942332 23.9920007 89.199 23.852 89.4556679 23.7119993 89.584 23.4880015 89.584 23.18 89.584 22.8626651 89.4580013 22.6106676 89.206 22.424 88.9539987 22.2373324 88.5386696 22.0273345 87.96 21.794 87.6799986 21.6819994 87.4116679 21.5676672 87.155 21.451 86.898332 21.3343327 86.6766676 21.1966675 86.49 21.038 86.3033324 20.8793325 86.1540006 20.6880011 86.042 20.464 85.9299994 20.2399989 85.874 19.9646683 85.874 19.638 85.874 18.9939968 86.1119976 18.4830019 86.588 18.105 87.0640024 17.7269981 87.7126626 17.538 88.534 17.538 88.7393344 17.538 88.9446656 17.5496665 89.15 17.573 89.3553344 17.5963334 89.5466658 17.6243332 89.724 17.657 89.9013342 17.6896668 90.057666 17.7246665 90.193 17.762 90.328334 17.7993335 90.433333 17.8319999 90.508 17.86L90.27 18.98C90.1299993 18.905333 89.9106682 18.8283337 89.612 18.749 89.3133318 18.6696663 88.9540021 18.63 88.534 18.63 88.1699982 18.63 87.852668 18.7023326 87.582 18.847 87.311332 18.9916674 87.176 19.2179985 87.176 19.526 87.176 19.6846675 87.206333 19.8246661 87.267 19.946 87.327667 20.0673339 87.4209994 20.1769995 87.547 20.275 87.6730006 20.3730005 87.8293324 20.4639996 88.016 20.548 88.2026676 20.6320004 88.4266654 20.7206662 88.688 20.814 89.0333351 20.9446673 89.341332 21.0729994 89.612 21.199 89.882668 21.3250006 90.1136657 21.4719992 90.305 21.64 90.4963343 21.8080008 90.6433328 22.0109988 90.746 22.249 90.8486672 22.4870012 90.9 22.7786649 90.9 23.124 90.9 23.7960034 90.6503358 24.3046649 90.151 24.65 89.6516642 24.9953351 88.9400046 25.168 88.016 25.168 87.3719968 25.168 86.8680018 25.1143339 86.504 25.007 86.1399982 24.8996661 85.8926673 24.8180003 85.762 24.762L86 23.642C86.1493341 23.6980003 86.3873317 23.7819994 86.714 23.894 87.0406683 24.0060006 87.474664 24.062 88.016 24.062zM93.784 17.72L96.542 17.72 96.542 18.812 93.784 18.812 93.784 22.172C93.784 22.5360018 93.8119997 22.8369988 93.868 23.075 93.9240003 23.3130012 94.0079994 23.499666 94.12 23.635 94.2320006 23.770334 94.3719992 23.8659997 94.54 23.922 94.7080008 23.9780003 94.9039989 24.006 95.128 24.006 95.520002 24.006 95.8349988 23.9616671 96.073 23.873 96.3110012 23.7843329 96.4766662 23.7213335 96.57 23.684L96.822 24.762C96.6913327 24.8273337 96.4626683 24.9089995 96.136 25.007 95.8093317 25.1050005 95.4360021 25.154 95.016 25.154 94.5213309 25.154 94.1130016 25.0910006 93.791 24.965 93.4689984 24.8389994 93.210001 24.6500013 93.014 24.398 92.817999 24.1459987 92.6803337 23.8356685 92.601 23.467 92.5216663 23.0983315 92.482 22.6713358 92.482 22.186L92.482 15.69 93.784 15.466 93.784 17.72zM97.788 21.374C97.788 20.7299968 97.8813324 20.1676691 98.068 19.687 98.2546676 19.2063309 98.5019985 18.8073349 98.81 18.49 99.1180015 18.1726651 99.4726647 17.9346675 99.874 17.776 100.275335 17.6173325 100.685998 17.538 101.106 17.538 102.086005 17.538 102.837331 17.8436636 103.36 18.455 103.882669 19.0663364 104.144 19.9973271 104.144 21.248L104.144 21.465C104.144 21.5536671 104.139333 21.635333 104.13 21.71L99.146 21.71C99.2020003 22.4660038 99.4213314 23.039998 99.804 23.432 100.186669 23.824002 100.783996 24.02 101.596 24.02 102.053336 24.02 102.438332 23.9803337 102.751 23.901 103.063668 23.8216663 103.299333 23.744667 103.458 23.67L103.64 24.762C103.481333 24.8460004 103.203669 24.9346662 102.807 25.028 102.410331 25.1213338 101.960003 25.168 101.456 25.168 100.82133 25.168 100.273002 25.0723343 99.811 24.881 99.3489977 24.6896657 98.9686682 24.4260017 98.67 24.09 98.3713318 23.7539983 98.1496674 23.3550023 98.005 22.893 97.8603326 22.4309977 97.788 21.9246694 97.788 21.374zM102.786 20.66C102.795333 20.0719971 102.648335 19.5890019 102.345 19.211 102.041665 18.8329981 101.624003 18.644 101.092 18.644 100.793332 18.644 100.529668 18.7023327 100.301 18.819 100.072332 18.9356672 99.8786675 19.0873324 99.72 19.274 99.5613325 19.4606676 99.4376671 19.6753321 99.349 19.918 99.2603329 20.1606679 99.2020001 20.4079987 99.174 20.66L102.786 20.66zM106.02 17.93C106.318668 17.855333 106.712998 17.7760004 107.203 17.692 107.693002 17.6079996 108.259997 17.566 108.904 17.566 109.370669 17.566 109.762665 17.6289994 110.08 17.755 110.397335 17.8810006 110.663332 18.0653321 110.878 18.308 110.943334 18.2613331 111.045999 18.1960004 111.186 18.112 111.326001 18.0279996 111.498666 17.9463337 111.704 17.867 111.909334 17.7876663 112.137999 17.717667 112.39 17.657 112.642001 17.596333 112.912665 17.566 113.202 17.566 113.762003 17.566 114.219332 17.6476658 114.574 17.811 114.928668 17.9743341 115.206332 18.2053318 115.407 18.504 115.607668 18.8026682 115.743 19.1573313 115.813 19.568 115.883 19.9786687 115.918 20.4266642 115.918 20.912L115.918 25 114.616 25 114.616 21.192C114.616 20.7626645 114.595 20.3940015 114.553 20.086 114.511 19.7779985 114.431667 19.5213344 114.315 19.316 114.198333 19.1106656 114.039668 18.9590005 113.839 18.861 113.638332 18.7629995 113.379335 18.714 113.062 18.714 112.623331 18.714 112.261668 18.7723327 111.977 18.889 111.692332 19.0056672 111.498667 19.1106662 111.396 19.204 111.470667 19.4466679 111.526666 19.7126652 111.564 20.002 111.601334 20.2913348 111.62 20.5946651 111.62 20.912L111.62 25 110.318 25 110.318 21.192C110.318 20.7626645 110.294667 20.3940015 110.248 20.086 110.201333 19.7779985 110.119667 19.5213344 110.003 19.316 109.886333 19.1106656 109.727668 18.9590005 109.527 18.861 109.326332 18.7629995 109.072002 18.714 108.764 18.714 108.633333 18.714 108.493334 18.7186666 108.344 18.728 108.194666 18.7373334 108.052334 18.7489999 107.917 18.763 107.781666 18.7770001 107.658001 18.7933332 107.546 18.812 107.433999 18.8306668 107.359334 18.8446666 107.322 18.854L107.322 25 106.02 25 106.02 17.93zM78.804 38.1119983C78.4399982 39.4746718 78.0130024 40.7813254 77.523 42.0319983 77.0329975 43.2826712 76.5593356 44.40266 76.102 45.3919983L74.926 45.3919983C74.4686644 44.40266 73.9950024 43.2826712 73.505 42.0319983 73.0149975 40.7813254 72.5880018 39.4746718 72.224 38.1119983L73.624 38.1119983C73.7360006 38.5693339 73.8689992 39.0569957 74.023 39.5749983 74.1770008 40.0930009 74.3403325 40.6063291 74.513 41.1149983 74.6856675 41.6236675 74.8606658 42.1159959 75.038 42.5919983 75.2153342 43.0680007 75.3833325 43.4926631 75.542 43.8659983 75.7006675 43.4926631 75.8686658 43.0680007 76.046 42.5919983 76.2233342 42.1159959 76.3983325 41.6236675 76.571 41.1149983 76.7436675 40.6063291 76.9069992 40.0930009 77.061 39.5749983 77.2150008 39.0569957 77.3479994 38.5693339 77.46 38.1119983L78.804 38.1119983zM82.612 44.4539983C82.9200015 44.4539983 83.1929988 44.4469984 83.431 44.4329983 83.6690012 44.4189982 83.8673325 44.3933318 84.026 44.3559983L84.026 42.1859983C83.9326662 42.1393314 83.781001 42.0996651 83.571 42.0669983 83.3609989 42.0343315 83.1066682 42.0179983 82.808 42.0179983 82.611999 42.0179983 82.4043344 42.0319982 82.185 42.0599983 81.9656656 42.0879984 81.7650009 42.1463312 81.583 42.2349983 81.4009991 42.3236654 81.2493339 42.4449975 81.128 42.5989983 81.0066661 42.7529991 80.946 42.955997 80.946 43.2079983 80.946 43.6746673 81.0953318 43.9989974 81.394 44.1809983 81.6926682 44.3629992 82.0986641 44.4539983 82.612 44.4539983zM82.5 37.9299983C83.0226693 37.9299983 83.4636649 37.9976643 83.823 38.1329983 84.1823351 38.2683323 84.4716656 38.4596637 84.691 38.7069983 84.9103344 38.9543329 85.0666662 39.2483299 85.16 39.5889983 85.2533338 39.9296667 85.3 40.3053296 85.3 40.7159983L85.3 45.2659983C85.1879994 45.2846651 85.0316677 45.3103315 84.831 45.3429983 84.6303323 45.3756651 84.4040013 45.4059982 84.152 45.4339983 83.8999987 45.4619984 83.6270015 45.4876648 83.333 45.5109983 83.0389985 45.5343317 82.7473348 45.5459983 82.458 45.5459983 82.0473313 45.5459983 81.6693351 45.5039987 81.324 45.4199983 80.9786649 45.3359979 80.6800013 45.2029992 80.428 45.0209983 80.1759987 44.8389974 79.9800007 44.5986665 79.84 44.2999983 79.6999993 44.0013301 79.63 43.6420004 79.63 43.2219983 79.63 42.820663 79.7116658 42.4753331 79.875 42.1859983 80.0383341 41.8966635 80.2599986 41.6633325 80.54 41.4859983 80.8200014 41.3086641 81.1466648 41.1779987 81.52 41.0939983 81.8933352 41.0099979 82.2853313 40.9679983 82.696 40.9679983 82.8266673 40.9679983 82.9619993 40.9749982 83.102 40.9889983 83.2420007 41.0029984 83.3749994 41.0216648 83.501 41.0449983 83.6270006 41.0683317 83.7366662 41.0893315 83.83 41.1079983 83.9233338 41.1266651 83.9886665 41.1406649 84.026 41.1499983L84.026 40.7859983C84.026 40.5713306 84.0026669 40.3589993 83.956 40.1489983 83.9093331 39.9389972 83.8253339 39.7523324 83.704 39.5889983 83.5826661 39.4256641 83.417001 39.2949988 83.207 39.1969983 82.9969989 39.0989978 82.7240017 39.0499983 82.388 39.0499983 81.9586645 39.0499983 81.5830016 39.0803313 81.261 39.1409983 80.9389984 39.2016653 80.6986675 39.2646646 80.54 39.3299983L80.386 38.2519983C80.5540008 38.1773313 80.833998 38.1049986 81.226 38.0349983 81.618002 37.9649979 82.0426644 37.9299983 82.5 37.9299983zM89.64 45.5319983C88.8373293 45.5133315 88.2680017 45.3406666 87.932 45.0139983 87.5959983 44.68733 87.428 44.1786684 87.428 43.4879983L87.428 34.7519983 88.73 34.5279983 88.73 43.2779983C88.73 43.492666 88.7486665 43.6699976 88.786 43.8099983 88.8233335 43.949999 88.8839996 44.0619979 88.968 44.1459983 89.0520004 44.2299987 89.1639993 44.2929981 89.304 44.3349983 89.4440007 44.3769985 89.6166656 44.4119982 89.822 44.4399983L89.64 45.5319983zM92.58 45.3919983L91.278 45.3919983 91.278 38.1119983 92.58 38.1119983 92.58 45.3919983zM91.922 36.7959983C91.6886655 36.7959983 91.4903341 36.7189991 91.327 36.5649983 91.1636658 36.4109975 91.082 36.2033329 91.082 35.9419983 91.082 35.6806637 91.1636658 35.4729991 91.327 35.3189983 91.4903341 35.1649975 91.6886655 35.0879983 91.922 35.0879983 92.1553345 35.0879983 92.3536658 35.1649975 92.517 35.3189983 92.6803341 35.4729991 92.762 35.6806637 92.762 35.9419983 92.762 36.2033329 92.6803341 36.4109975 92.517 36.5649983 92.3536658 36.7189991 92.1553345 36.7959983 91.922 36.7959983zM99.524 39.6519983C99.3653325 39.521331 99.1366682 39.3953322 98.838 39.2739983 98.5393318 39.1526644 98.2126684 39.0919983 97.858 39.0919983 97.4846648 39.0919983 97.1650013 39.1596643 96.899 39.2949983 96.6329987 39.4303323 96.4160008 39.6169971 96.248 39.8549983 96.0799992 40.0929995 95.958667 40.37533 95.884 40.7019983 95.809333 41.0286666 95.772 41.3786631 95.772 41.7519983 95.772 42.6013359 95.9819979 43.256996 96.402 43.7189983 96.8220021 44.1810006 97.3819965 44.4119983 98.082 44.4119983 98.4366684 44.4119983 98.7329988 44.3956651 98.971 44.3629983 99.2090012 44.3303315 99.3933327 44.2953318 99.524 44.2579983L99.524 39.6519983zM99.524 34.7519983L100.826 34.5279983 100.826 45.1819983C100.527332 45.2659987 100.144669 45.3499979 99.678 45.4339983 99.211331 45.5179987 98.6746697 45.5599983 98.068 45.5599983 97.5079972 45.5599983 97.0040022 45.4713325 96.556 45.2939983 96.1079978 45.1166641 95.7253349 44.8646666 95.408 44.5379983 95.0906651 44.21133 94.8456675 43.812334 94.673 43.3409983 94.5003325 42.8696626 94.414 42.3400012 94.414 41.7519983 94.414 41.1919955 94.4863326 40.6786673 94.631 40.2119983 94.7756674 39.7453293 94.9879986 39.344 95.268 39.0079983 95.5480014 38.6719966 95.890998 38.4106659 96.297 38.2239983 96.703002 38.0373307 97.1673307 37.9439983 97.69 37.9439983 98.1100021 37.9439983 98.4809984 37.9999977 98.803 38.1119983 99.1250016 38.2239989 99.3653325 38.3313311 99.524 38.4339983L99.524 34.7519983zM105.53 44.4539983C105.838002 44.4539983 106.110999 44.4469984 106.349 44.4329983 106.587001 44.4189982 106.785333 44.3933318 106.944 44.3559983L106.944 42.1859983C106.850666 42.1393314 106.699001 42.0996651 106.489 42.0669983 106.278999 42.0343315 106.024668 42.0179983 105.726 42.0179983 105.529999 42.0179983 105.322334 42.0319982 105.103 42.0599983 104.883666 42.0879984 104.683001 42.1463312 104.501 42.2349983 104.318999 42.3236654 104.167334 42.4449975 104.046 42.5989983 103.924666 42.7529991 103.864 42.955997 103.864 43.2079983 103.864 43.6746673 104.013332 43.9989974 104.312 44.1809983 104.610668 44.3629992 105.016664 44.4539983 105.53 44.4539983zM105.418 37.9299983C105.940669 37.9299983 106.381665 37.9976643 106.741 38.1329983 107.100335 38.2683323 107.389666 38.4596637 107.609 38.7069983 107.828334 38.9543329 107.984666 39.2483299 108.078 39.5889983 108.171334 39.9296667 108.218 40.3053296 108.218 40.7159983L108.218 45.2659983C108.105999 45.2846651 107.949668 45.3103315 107.749 45.3429983 107.548332 45.3756651 107.322001 45.4059982 107.07 45.4339983 106.817999 45.4619984 106.545001 45.4876648 106.251 45.5109983 105.956999 45.5343317 105.665335 45.5459983 105.376 45.5459983 104.965331 45.5459983 104.587335 45.5039987 104.242 45.4199983 103.896665 45.3359979 103.598001 45.2029992 103.346 45.0209983 103.093999 44.8389974 102.898001 44.5986665 102.758 44.2999983 102.617999 44.0013301 102.548 43.6420004 102.548 43.2219983 102.548 42.820663 102.629666 42.4753331 102.793 42.1859983 102.956334 41.8966635 103.177999 41.6633325 103.458 41.4859983 103.738001 41.3086641 104.064665 41.1779987 104.438 41.0939983 104.811335 41.0099979 105.203331 40.9679983 105.614 40.9679983 105.744667 40.9679983 105.879999 40.9749982 106.02 40.9889983 106.160001 41.0029984 106.292999 41.0216648 106.419 41.0449983 106.545001 41.0683317 106.654666 41.0893315 106.748 41.1079983 106.841334 41.1266651 106.906666 41.1406649 106.944 41.1499983L106.944 40.7859983C106.944 40.5713306 106.920667 40.3589993 106.874 40.1489983 106.827333 39.9389972 106.743334 39.7523324 106.622 39.5889983 106.500666 39.4256641 106.335001 39.2949988 106.125 39.1969983 105.914999 39.0989978 105.642002 39.0499983 105.306 39.0499983 104.876665 39.0499983 104.501002 39.0803313 104.179 39.1409983 103.856998 39.2016653 103.616667 39.2646646 103.458 39.3299983L103.304 38.2519983C103.472001 38.1773313 103.751998 38.1049986 104.144 38.0349983 104.536002 37.9649979 104.960664 37.9299983 105.418 37.9299983zM111.592 38.1119983L114.35 38.1119983 114.35 39.2039983 111.592 39.2039983 111.592 42.5639983C111.592 42.9280001 111.62 43.2289971 111.676 43.4669983 111.732 43.7049995 111.815999 43.8916643 111.928 44.0269983 112.040001 44.1623323 112.179999 44.257998 112.348 44.3139983 112.516001 44.3699986 112.711999 44.3979983 112.936 44.3979983 113.328002 44.3979983 113.642999 44.3536654 113.881 44.2649983 114.119001 44.1763312 114.284666 44.1133318 114.378 44.0759983L114.63 45.1539983C114.499333 45.219332 114.270668 45.3009978 113.944 45.3989983 113.617332 45.4969988 113.244002 45.5459983 112.824 45.5459983 112.329331 45.5459983 111.921002 45.4829989 111.599 45.3569983 111.276998 45.2309977 111.018001 45.0419996 110.822 44.7899983 110.625999 44.537997 110.488334 44.2276668 110.409 43.8589983 110.329666 43.4903298 110.29 43.0633341 110.29 42.5779983L110.29 36.0819983 111.592 35.8579983 111.592 38.1119983zM117.304 45.3919983L116.002 45.3919983 116.002 38.1119983 117.304 38.1119983 117.304 45.3919983zM116.646 36.7959983C116.412666 36.7959983 116.214334 36.7189991 116.051 36.5649983 115.887666 36.4109975 115.806 36.2033329 115.806 35.9419983 115.806 35.6806637 115.887666 35.4729991 116.051 35.3189983 116.214334 35.1649975 116.412666 35.0879983 116.646 35.0879983 116.879334 35.0879983 117.077666 35.1649975 117.241 35.3189983 117.404334 35.4729991 117.486 35.6806637 117.486 35.9419983 117.486 36.2033329 117.404334 36.4109975 117.241 36.5649983 117.077666 36.7189991 116.879334 36.7959983 116.646 36.7959983zM125.97 41.7519983C125.97 42.3306679 125.886001 42.8533293 125.718 43.3199983 125.549999 43.7866673 125.314335 44.1879966 125.011 44.5239983 124.707665 44.86 124.346002 45.1189974 123.926 45.3009983 123.505998 45.4829992 123.048669 45.5739983 122.554 45.5739983 122.059331 45.5739983 121.602002 45.4829992 121.182 45.3009983 120.761998 45.1189974 120.400335 44.86 120.097 44.5239983 119.793665 44.1879966 119.558001 43.7866673 119.39 43.3199983 119.221999 42.8533293 119.138 42.3306679 119.138 41.7519983 119.138 41.1826621 119.221999 40.662334 119.39 40.1909983 119.558001 39.7196626 119.793665 39.316 120.097 38.9799983 120.400335 38.6439966 120.761998 38.3849992 121.182 38.2029983 121.602002 38.0209974 122.059331 37.9299983 122.554 37.9299983 123.048669 37.9299983 123.505998 38.0209974 123.926 38.2029983 124.346002 38.3849992 124.707665 38.6439966 125.011 38.9799983 125.314335 39.316 125.549999 39.7196626 125.718 40.1909983 125.886001 40.662334 125.97 41.1826621 125.97 41.7519983zM124.612 41.7519983C124.612 40.9306609 124.427669 40.2796674 124.059 39.7989983 123.690331 39.3183292 123.18867 39.0779983 122.554 39.0779983 121.91933 39.0779983 121.417669 39.3183292 121.049 39.7989983 120.680331 40.2796674 120.496 40.9306609 120.496 41.7519983 120.496 42.5733357 120.680331 43.2243292 121.049 43.7049983 121.417669 44.1856674 121.91933 44.4259983 122.554 44.4259983 123.18867 44.4259983 123.690331 44.1856674 124.059 43.7049983 124.427669 43.2243292 124.612 42.5733357 124.612 41.7519983zM127.804 38.3219983C128.102668 38.2473313 128.499331 38.1679987 128.994 38.0839983 129.488669 37.9999979 130.057997 37.9579983 130.702 37.9579983 131.28067 37.9579983 131.761331 38.0396641 132.144 38.2029983 132.526669 38.3663324 132.832332 38.5949968 133.061 38.8889983 133.289668 39.1829998 133.450666 39.5353296 133.544 39.9459983 133.637334 40.356667 133.684 40.8093292 133.684 41.3039983L133.684 45.3919983 132.382 45.3919983 132.382 41.5839983C132.382 41.1359961 132.351667 40.7533332 132.291 40.4359983 132.230333 40.1186634 132.130001 39.8619993 131.99 39.6659983 131.849999 39.4699973 131.663335 39.3276654 131.43 39.2389983 131.196665 39.1503312 130.907335 39.1059983 130.562 39.1059983 130.421999 39.1059983 130.277334 39.1106649 130.128 39.1199983 129.978666 39.1293317 129.836334 39.1409982 129.701 39.1549983 129.565666 39.1689984 129.444334 39.1853315 129.337 39.2039983 129.229666 39.2226651 129.152667 39.2366649 129.106 39.2459983L129.106 45.3919983 127.804 45.3919983 127.804 38.3219983z"/>
  </g>
</svg>
