<svg xmlns="http://www.w3.org/2000/svg" width="160" height="80" viewBox="0 0 160 80">
  <g fill="none" fill-rule="evenodd" transform="translate(0 8)">
    <ellipse cx="31.5" cy="32.188" fill="#4E4B49" rx="31.5" ry="31.683"/>
    <path fill="#FFFFFF" d="M21.33936 20.980057C24.4641756 20.980057 26.8631916 21.5294115 28.53648 22.628137 30.2097684 23.7268625 31.0464 25.5261245 31.0464 28.025977 31.0464 30.5459896 30.1996885 32.3654114 28.50624 33.484297 26.8127915 34.6031826 24.3936157 35.162617 21.24864 35.162617L19.76688 35.162617 19.76688 42.178297 15.04944 42.178297 15.04944 21.524377C16.0776051 21.322776 17.1662343 21.1816574 18.31536 21.101017 19.4644857 21.0203766 20.4724757 20.980057 21.33936 20.980057zM21.64176 25.001977C21.2990383 25.001977 20.9613617 25.0120569 20.62872 25.032217 20.2960783 25.0523771 20.0088012 25.0725369 19.76688 25.092697L19.76688 31.140697 21.24864 31.140697C22.8816082 31.140697 24.1113559 30.9189392 24.93792 30.475417 25.7644841 30.0318948 26.17776 29.2053431 26.17776 27.995737 26.17776 27.4110941 26.0719211 26.9272589 25.86024 26.544217 25.6485589 26.1611751 25.346162 25.8537382 24.95304 25.621897 24.559918 25.3900559 24.0811228 25.2287775 23.51664 25.138057 22.9521572 25.0473366 22.3272034 25.001977 21.64176 25.001977zM44.41248 34.346137C44.41248 32.9550901 44.1000031 31.8412612 43.47504 31.004617 42.8500769 30.1679728 41.9227261 29.749657 40.69296 29.749657 40.289758 29.749657 39.9168017 29.7647769 39.57408 29.795017 39.2313583 29.8252572 38.9491211 29.8605368 38.72736 29.900857L38.72736 38.035417C39.0096014 38.2168579 39.3775177 38.3680564 39.83112 38.489017 40.2847223 38.6099776 40.7433577 38.670457 41.20704 38.670457 43.3440107 38.670457 44.41248 37.2290314 44.41248 34.346137zM49.00896 34.225177C49.00896 35.4549432 48.8577615 36.573812 48.55536 37.581817 48.2529585 38.5898221 47.8094429 39.4566934 47.2248 40.182457 46.6401571 40.9082207 45.9144043 41.472695 45.04752 41.875897 44.1806357 42.279099 43.1827256 42.480697 42.05376 42.480697 41.4287969 42.480697 40.8441627 42.4202176 40.29984 42.299257 39.7555173 42.1782964 39.2313625 42.0069381 38.72736 41.785177L38.72736 47.772697 34.2216 47.772697 34.2216 26.816377C34.624802 26.6954164 35.0884774 26.5794976 35.61264 26.468617 36.1368026 26.3577365 36.6861571 26.2619774 37.26072 26.181337 37.8352829 26.1006966 38.419917 26.0351773 39.01464 25.984777 39.609363 25.9343768 40.1788773 25.909177 40.7232 25.909177 42.0336066 25.909177 43.2028749 26.1057351 44.23104 26.498857 45.2592051 26.891979 46.1260765 27.4463735 46.83168 28.162057 47.5372835 28.8777406 48.0765581 29.7496519 48.44952 30.777817 48.8224819 31.8059822 49.00896 32.9550907 49.00896 34.225177zM76.174 11.374C76.174 10.5246624 75.9640021 9.87133562 75.544 9.414 75.1239979 8.95666438 74.5640035 8.728 73.864 8.728 73.471998 8.728 73.1663344 8.74199986 72.947 8.77 72.7276656 8.79800014 72.5526673 8.83066648 72.422 8.868L72.422 13.46C72.5806675 13.5906673 72.8093318 13.7166661 73.108 13.838 73.4066682 13.9593339 73.7333316 14.02 74.088 14.02 74.4613352 14.02 74.7809987 13.952334 75.047 13.817 75.3130013 13.681666 75.5299992 13.4950012 75.698 13.257 75.8660008 13.0189988 75.987333 12.7390016 76.062 12.417 76.136667 12.0949984 76.174 11.7473352 76.174 11.374zM77.532 11.374C77.532 11.9246694 77.4596674 12.433331 77.315 12.9 77.1703326 13.366669 76.9580014 13.7679983 76.678 14.104 76.3979986 14.4400017 76.055002 14.7013324 75.649 14.888 75.242998 15.0746676 74.7786693 15.168 74.256 15.168 73.8359979 15.168 73.4650016 15.1120006 73.143 15 72.8209984 14.8879994 72.5806675 14.7806672 72.422 14.678L72.422 17.59 71.12 17.59 71.12 7.944C71.4280015 7.86933296 71.8129977 7.78766711 72.275 7.699 72.7370023 7.61033289 73.2713303 7.566 73.878 7.566 74.4380028 7.566 74.9419978 7.65466578 75.39 7.832 75.8380022 8.00933422 76.2206651 8.2613317 76.538 8.588 76.8553349 8.9146683 77.1003325 9.31366431 77.273 9.785 77.4456675 10.2563357 77.532 10.7859971 77.532 11.374zM82.054 7.566C82.1660006 7.566 82.2943326 7.57299993 82.439 7.587 82.5836674 7.60100007 82.7259993 7.61966655 82.866 7.643 83.0060007 7.66633345 83.1343327 7.68966655 83.251 7.713 83.3676672 7.73633345 83.4539997 7.75733324 83.51 7.776L83.286 8.91C83.1833328 8.87266648 83.0130012 8.82833359 82.775 8.777 82.5369988 8.72566641 82.2313352 8.7 81.858 8.7 81.6153321 8.7 81.3750012 8.72566641 81.137 8.777 80.8989988 8.82833359 80.742667 8.86333324 80.668 8.882L80.668 15 79.366 15 79.366 8.028C79.6740015 7.91599944 80.0566644 7.81100049 80.514 7.713 80.9713356 7.61499951 81.4846638 7.566 82.054 7.566zM91.196 11.36C91.196 11.9386696 91.1120008 12.461331 90.944 12.928 90.7759992 13.394669 90.5403348 13.7959983 90.237 14.132 89.9336651 14.4680017 89.5720021 14.7269991 89.152 14.909 88.7319979 15.0910009 88.2746691 15.182 87.78 15.182 87.2853309 15.182 86.8280021 15.0910009 86.408 14.909 85.9879979 14.7269991 85.6263349 14.4680017 85.323 14.132 85.0196651 13.7959983 84.7840008 13.394669 84.616 12.928 84.4479992 12.461331 84.364 11.9386696 84.364 11.36 84.364 10.7906638 84.4479992 10.2703357 84.616 9.799 84.7840008 9.32766431 85.0196651 8.92400168 85.323 8.588 85.6263349 8.25199832 85.9879979 7.99300091 86.408 7.811 86.8280021 7.62899909 87.2853309 7.538 87.78 7.538 88.2746691 7.538 88.7319979 7.62899909 89.152 7.811 89.5720021 7.99300091 89.9336651 8.25199832 90.237 8.588 90.5403348 8.92400168 90.7759992 9.32766431 90.944 9.799 91.1120008 10.2703357 91.196 10.7906638 91.196 11.36zM89.838 11.36C89.838 10.5386626 89.6536685 9.88766907 89.285 9.407 88.9163315 8.92633093 88.4146698 8.686 87.78 8.686 87.1453302 8.686 86.6436685 8.92633093 86.275 9.407 85.9063315 9.88766907 85.722 10.5386626 85.722 11.36 85.722 12.1813374 85.9063315 12.8323309 86.275 13.313 86.6436685 13.7936691 87.1453302 14.034 87.78 14.034 88.4146698 14.034 88.9163315 13.7936691 89.285 13.313 89.6536685 12.8323309 89.838 12.1813374 89.838 11.36zM97.734 9.26C97.5753325 9.12933268 97.3466682 9.00333394 97.048 8.882 96.7493318 8.76066606 96.4226684 8.7 96.068 8.7 95.6946648 8.7 95.3750013 8.76766599 95.109 8.903 94.8429987 9.03833401 94.6260008 9.22499881 94.458 9.463 94.2899992 9.70100119 94.168667 9.9833317 94.094 10.31 94.019333 10.6366683 93.982 10.9866648 93.982 11.36 93.982 12.2093376 94.1919979 12.8649977 94.612 13.327 95.0320021 13.7890023 95.5919965 14.02 96.292 14.02 96.6466684 14.02 96.9429988 14.0036668 97.181 13.971 97.4190012 13.9383332 97.6033327 13.9033335 97.734 13.866L97.734 9.26zM97.734 4.36L99.036 4.136 99.036 14.79C98.7373318 14.8740004 98.354669 14.9579996 97.888 15.042 97.421331 15.1260004 96.8846697 15.168 96.278 15.168 95.7179972 15.168 95.2140022 15.0793342 94.766 14.902 94.3179978 14.7246658 93.9353349 14.4726683 93.618 14.146 93.3006651 13.8193317 93.0556675 13.4203357 92.883 12.949 92.7103325 12.4776643 92.624 11.9480029 92.624 11.36 92.624 10.7999972 92.6963326 10.286669 92.841 9.82 92.9856674 9.353331 93.1979986 8.95200168 93.478 8.616 93.7580014 8.27999832 94.100998 8.0186676 94.507 7.832 94.913002 7.6453324 95.3773307 7.552 95.9 7.552 96.3200021 7.552 96.6909984 7.60799944 97.013 7.72 97.3350016 7.83200056 97.5753325 7.93933282 97.734 8.042L97.734 4.36zM107.072 14.79C106.773332 14.864667 106.379002 14.9439996 105.889 15.028 105.398998 15.1120004 104.832003 15.154 104.188 15.154 103.627997 15.154 103.156669 15.0723341 102.774 14.909 102.391331 14.7456658 102.083335 14.5146682 101.85 14.216 101.616666 13.9173318 101.448667 13.565002 101.346 13.159 101.243333 12.752998 101.192 12.3026691 101.192 11.808L101.192 7.72 102.494 7.72 102.494 11.528C102.494 12.4146711 102.633999 13.0493314 102.914 13.432 103.194001 13.8146686 103.66533 14.006 104.328 14.006 104.468001 14.006 104.612666 14.0013334 104.762 13.992 104.911334 13.9826666 105.051333 13.9710001 105.182 13.957 105.312667 13.9429999 105.431666 13.9290001 105.539 13.915 105.646334 13.9009999 105.723333 13.8846668 105.77 13.866L105.77 7.72 107.072 7.72 107.072 14.79zM112.476 15.168C111.887997 15.168 111.372336 15.0746676 110.929 14.888 110.485664 14.7013324 110.112335 14.4400017 109.809 14.104 109.505665 13.7679983 109.279334 13.3690023 109.13 12.907 108.980666 12.4449977 108.906 11.9340028 108.906 11.374 108.906 10.8139972 108.987666 10.300669 109.151 9.834 109.314334 9.367331 109.545332 8.96366837 109.844 8.623 110.142668 8.28233163 110.508998 8.01633429 110.943 7.825 111.377002 7.63366571 111.859997 7.538 112.392 7.538 112.718668 7.538 113.045332 7.56599972 113.372 7.622 113.698668 7.67800028 114.011332 7.76666606 114.31 7.888L114.016 8.994C113.819999 8.9006662 113.593668 8.82600028 113.337 8.77 113.080332 8.71399972 112.807335 8.686 112.518 8.686 111.789996 8.686 111.232335 8.91466438 110.845 9.372 110.457665 9.82933562 110.264 10.4966623 110.264 11.374 110.264 11.766002 110.308333 12.1253317 110.397 12.452 110.485667 12.7786683 110.625666 13.0586655 110.817 13.292 111.008334 13.5253345 111.253332 13.7049994 111.552 13.831 111.850668 13.9570006 112.214665 14.02 112.644 14.02 112.989335 14.02 113.301999 13.9873337 113.582 13.922 113.862001 13.8566663 114.081333 13.786667 114.24 13.712L114.422 14.804C114.347333 14.8506669 114.240001 14.8949998 114.1 14.937 113.959999 14.9790002 113.801334 15.0163332 113.624 15.049 113.446666 15.0816668 113.257668 15.1096665 113.057 15.133 112.856332 15.1563334 112.662668 15.168 112.476 15.168zM117.04 7.72L119.798 7.72 119.798 8.812 117.04 8.812 117.04 12.172C117.04 12.5360018 117.068 12.8369988 117.124 13.075 117.18 13.3130012 117.263999 13.499666 117.376 13.635 117.488001 13.770334 117.627999 13.8659997 117.796 13.922 117.964001 13.9780003 118.159999 14.006 118.384 14.006 118.776002 14.006 119.090999 13.9616671 119.329 13.873 119.567001 13.7843329 119.732666 13.7213335 119.826 13.684L120.078 14.762C119.947333 14.8273337 119.718668 14.9089995 119.392 15.007 119.065332 15.1050005 118.692002 15.154 118.272 15.154 117.777331 15.154 117.369002 15.0910006 117.047 14.965 116.724998 14.8389994 116.466001 14.6500013 116.27 14.398 116.073999 14.1459987 115.936334 13.8356685 115.857 13.467 115.777666 13.0983315 115.738 12.6713358 115.738 12.186L115.738 5.69 117.04 5.466 117.04 7.72zM76.174 31.7659983C76.174 30.9166607 75.9640021 30.2633339 75.544 29.8059983 75.1239979 29.3486627 74.5640035 29.1199983 73.864 29.1199983 73.471998 29.1199983 73.1663344 29.1339982 72.947 29.1619983 72.7276656 29.1899984 72.5526673 29.2226648 72.422 29.2599983L72.422 33.8519983C72.5806675 33.9826656 72.8093318 34.1086644 73.108 34.2299983 73.4066682 34.3513322 73.7333316 34.4119983 74.088 34.4119983 74.4613352 34.4119983 74.7809987 34.3443323 75.047 34.2089983 75.3130013 34.0736643 75.5299992 33.8869995 75.698 33.6489983 75.8660008 33.4109971 75.987333 33.1309999 76.062 32.8089983 76.136667 32.4869967 76.174 32.1393335 76.174 31.7659983zM77.532 31.7659983C77.532 32.3166677 77.4596674 32.8253293 77.315 33.2919983 77.1703326 33.7586673 76.9580014 34.1599966 76.678 34.4959983 76.3979986 34.832 76.055002 35.0933307 75.649 35.2799983 75.242998 35.4666659 74.7786693 35.5599983 74.256 35.5599983 73.8359979 35.5599983 73.4650016 35.5039989 73.143 35.3919983 72.8209984 35.2799977 72.5806675 35.1726655 72.422 35.0699983L72.422 37.9819983 71.12 37.9819983 71.12 28.3359983C71.4280015 28.2613313 71.8129977 28.1796654 72.275 28.0909983 72.7370023 28.0023312 73.2713303 27.9579983 73.878 27.9579983 74.4380028 27.9579983 74.9419978 28.0466641 75.39 28.2239983 75.8380022 28.4013325 76.2206651 28.65333 76.538 28.9799983 76.8553349 29.3066666 77.1003325 29.7056626 77.273 30.1769983 77.4456675 30.648334 77.532 31.1779954 77.532 31.7659983zM81.55 35.5319983C80.7473293 35.5133315 80.1780017 35.3406666 79.842 35.0139983 79.5059983 34.68733 79.338 34.1786684 79.338 33.4879983L79.338 24.7519983 80.64 24.5279983 80.64 33.2779983C80.64 33.492666 80.6586665 33.6699976 80.696 33.8099983 80.7333335 33.949999 80.7939996 34.0619979 80.878 34.1459983 80.9620004 34.2299987 81.0739993 34.2929981 81.214 34.3349983 81.3540007 34.3769985 81.5266656 34.4119982 81.732 34.4399983L81.55 35.5319983zM85.652 34.4539983C85.9600015 34.4539983 86.2329988 34.4469984 86.471 34.4329983 86.7090012 34.4189982 86.9073325 34.3933318 87.066 34.3559983L87.066 32.1859983C86.9726662 32.1393314 86.8210011 32.0996651 86.611 32.0669983 86.400999 32.0343315 86.1466682 32.0179983 85.848 32.0179983 85.651999 32.0179983 85.4443344 32.0319982 85.225 32.0599983 85.0056656 32.0879984 84.8050009 32.1463312 84.623 32.2349983 84.4409991 32.3236654 84.2893339 32.4449975 84.168 32.5989983 84.0466661 32.7529991 83.986 32.955997 83.986 33.2079983 83.986 33.6746673 84.1353318 33.9989974 84.434 34.1809983 84.7326682 34.3629992 85.1386641 34.4539983 85.652 34.4539983zM85.54 27.9299983C86.0626693 27.9299983 86.5036649 27.9976643 86.863 28.1329983 87.2223351 28.2683323 87.5116656 28.4596637 87.731 28.7069983 87.9503344 28.9543329 88.1066662 29.2483299 88.2 29.5889983 88.2933338 29.9296667 88.34 30.3053296 88.34 30.7159983L88.34 35.2659983C88.2279994 35.2846651 88.0716677 35.3103315 87.871 35.3429983 87.6703323 35.3756651 87.4440013 35.4059982 87.192 35.4339983 86.9399987 35.4619984 86.6670015 35.4876648 86.373 35.5109983 86.0789985 35.5343317 85.7873348 35.5459983 85.498 35.5459983 85.0873313 35.5459983 84.7093351 35.5039987 84.364 35.4199983 84.0186649 35.3359979 83.7200013 35.2029992 83.468 35.0209983 83.2159987 34.8389974 83.0200007 34.5986665 82.88 34.2999983 82.7399993 34.0013301 82.67 33.6420004 82.67 33.2219983 82.67 32.820663 82.7516658 32.4753331 82.915 32.1859983 83.0783342 31.8966635 83.2999986 31.6633325 83.58 31.4859983 83.8600014 31.3086641 84.1866648 31.1779987 84.56 31.0939983 84.9333352 31.0099979 85.3253313 30.9679983 85.736 30.9679983 85.8666673 30.9679983 86.0019993 30.9749982 86.142 30.9889983 86.2820007 31.0029984 86.4149994 31.0216648 86.541 31.0449983 86.6670006 31.0683317 86.7766662 31.0893315 86.87 31.1079983 86.9633338 31.1266651 87.0286665 31.1406649 87.066 31.1499983L87.066 30.7859983C87.066 30.5713306 87.0426669 30.3589993 86.996 30.1489983 86.9493331 29.9389972 86.8653339 29.7523324 86.744 29.5889983 86.6226661 29.4256641 86.4570011 29.2949988 86.247 29.1969983 86.0369989 29.0989978 85.7640017 29.0499983 85.428 29.0499983 84.9986645 29.0499983 84.6230016 29.0803313 84.301 29.1409983 83.9789984 29.2016653 83.7386675 29.2646646 83.58 29.3299983L83.426 28.2519983C83.5940008 28.1773313 83.873998 28.1049986 84.266 28.0349983 84.658002 27.9649979 85.0826644 27.9299983 85.54 27.9299983zM90.496 28.3219983C90.7946682 28.2473313 91.1913309 28.1679987 91.686 28.0839983 92.1806691 27.9999979 92.7499968 27.9579983 93.394 27.9579983 93.9726696 27.9579983 94.4533314 28.0396641 94.836 28.2029983 95.2186686 28.3663324 95.5243322 28.5949968 95.753 28.8889983 95.9816678 29.1829998 96.1426662 29.5353296 96.236 29.9459983 96.3293338 30.356667 96.376 30.8093292 96.376 31.3039983L96.376 35.3919983 95.074 35.3919983 95.074 31.5839983C95.074 31.1359961 95.043667 30.7533332 94.983 30.4359983 94.922333 30.1186634 94.8220007 29.8619993 94.682 29.6659983 94.5419993 29.4699973 94.3553345 29.3276654 94.122 29.2389983 93.8886655 29.1503312 93.5993351 29.1059983 93.254 29.1059983 93.1139993 29.1059983 92.9693341 29.1106649 92.82 29.1199983 92.6706659 29.1293317 92.528334 29.1409982 92.393 29.1549983 92.257666 29.1689984 92.1363339 29.1853315 92.029 29.2039983 91.9216661 29.2226651 91.8446669 29.2366649 91.798 29.2459983L91.798 35.3919983 90.496 35.3919983 90.496 28.3219983zM98.532 28.3219983C98.8306682 28.2473313 99.2273309 28.1679987 99.722 28.0839983 100.216669 27.9999979 100.785997 27.9579983 101.43 27.9579983 102.00867 27.9579983 102.489331 28.0396641 102.872 28.2029983 103.254669 28.3663324 103.560332 28.5949968 103.789 28.8889983 104.017668 29.1829998 104.178666 29.5353296 104.272 29.9459983 104.365334 30.356667 104.412 30.8093292 104.412 31.3039983L104.412 35.3919983 103.11 35.3919983 103.11 31.5839983C103.11 31.1359961 103.079667 30.7533332 103.019 30.4359983 102.958333 30.1186634 102.858001 29.8619993 102.718 29.6659983 102.577999 29.4699973 102.391334 29.3276654 102.158 29.2389983 101.924666 29.1503312 101.635335 29.1059983 101.29 29.1059983 101.149999 29.1059983 101.005334 29.1106649 100.856 29.1199983 100.706666 29.1293317 100.564334 29.1409982 100.429 29.1549983 100.293666 29.1689984 100.172334 29.1853315 100.065 29.2039983 99.9576661 29.2226651 99.8806669 29.2366649 99.834 29.2459983L99.834 35.3919983 98.532 35.3919983 98.532 28.3219983zM107.87 35.3919983L106.568 35.3919983 106.568 28.1119983 107.87 28.1119983 107.87 35.3919983zM107.212 26.7959983C106.978666 26.7959983 106.780334 26.7189991 106.617 26.5649983 106.453666 26.4109975 106.372 26.2033329 106.372 25.9419983 106.372 25.6806637 106.453666 25.4729991 106.617 25.3189983 106.780334 25.1649975 106.978666 25.0879983 107.212 25.0879983 107.445335 25.0879983 107.643666 25.1649975 107.807 25.3189983 107.970334 25.4729991 108.052 25.6806637 108.052 25.9419983 108.052 26.2033329 107.970334 26.4109975 107.807 26.5649983 107.643666 26.7189991 107.445335 26.7959983 107.212 26.7959983zM110.11 28.3219983C110.408668 28.2473313 110.805331 28.1679987 111.3 28.0839983 111.794669 27.9999979 112.363997 27.9579983 113.008 27.9579983 113.58667 27.9579983 114.067331 28.0396641 114.45 28.2029983 114.832669 28.3663324 115.138332 28.5949968 115.367 28.8889983 115.595668 29.1829998 115.756666 29.5353296 115.85 29.9459983 115.943334 30.356667 115.99 30.8093292 115.99 31.3039983L115.99 35.3919983 114.688 35.3919983 114.688 31.5839983C114.688 31.1359961 114.657667 30.7533332 114.597 30.4359983 114.536333 30.1186634 114.436001 29.8619993 114.296 29.6659983 114.155999 29.4699973 113.969335 29.3276654 113.736 29.2389983 113.502666 29.1503312 113.213335 29.1059983 112.868 29.1059983 112.727999 29.1059983 112.583334 29.1106649 112.434 29.1199983 112.284666 29.1293317 112.142334 29.1409982 112.007 29.1549983 111.871666 29.1689984 111.750334 29.1853315 111.643 29.2039983 111.535666 29.2226651 111.458667 29.2366649 111.412 29.2459983L111.412 35.3919983 110.11 35.3919983 110.11 28.3219983zM122.71 34.6639983C122.597999 34.7386653 122.381002 34.834331 122.059 34.9509983 121.736998 35.0676655 121.361335 35.1259983 120.932 35.1259983 120.493331 35.1259983 120.080335 35.055999 119.693 34.9159983 119.305665 34.7759976 118.967335 34.5589998 118.678 34.2649983 118.388665 33.9709968 118.160001 33.6046672 117.992 33.1659983 117.823999 32.7273294 117.74 32.204668 117.74 31.5979983 117.74 31.0659956 117.819333 30.5783338 117.978 30.1349983 118.136667 29.6916627 118.367665 29.3089999 118.671 28.9869983 118.974335 28.6649967 119.345331 28.4129992 119.784 28.2309983 120.222669 28.0489974 120.717331 27.9579983 121.268 27.9579983 121.87467 27.9579983 122.404331 28.0023312 122.857 28.0909983 123.309669 28.1796654 123.689998 28.2613313 123.998 28.3359983L123.998 34.8319983C123.998 35.9520039 123.70867 36.7639958 123.13 37.2679983 122.55133 37.7720008 121.674006 38.0239983 120.498 38.0239983 120.040664 38.0239983 119.609002 37.9866653 119.203 37.9119983 118.796998 37.8373313 118.444668 37.7486655 118.146 37.6459983L118.384 36.5119983C118.645335 36.6146655 118.964998 36.7056646 119.343 36.7849983 119.721002 36.864332 120.115331 36.9039983 120.526 36.9039983 121.300671 36.9039983 121.858332 36.7499998 122.199 36.4419983 122.539668 36.1339968 122.71 35.6440017 122.71 34.9719983L122.71 34.6639983zM122.696 29.2599983C122.565333 29.2226648 122.390334 29.1876651 122.171 29.1549983 121.951666 29.1223315 121.655335 29.1059983 121.282 29.1059983 120.581997 29.1059983 120.043002 29.3346627 119.665 29.7919983 119.286998 30.2493339 119.098 30.8559945 119.098 31.6119983 119.098 32.0320004 119.151666 32.3913301 119.259 32.6899983 119.366334 32.9886665 119.510999 33.2359973 119.693 33.4319983 119.875001 33.6279993 120.084999 33.7726645 120.323 33.8659983 120.561001 33.9593321 120.805999 34.0059983 121.058 34.0059983 121.403335 34.0059983 121.720665 33.9569988 122.01 33.8589983 122.299335 33.7609978 122.527999 33.6466656 122.696 33.5159983L122.696 29.2599983zM77.07 55.7839966C76.8086654 55.1119932 76.5310015 54.3443342 76.237 53.4809966 75.9429985 52.6176589 75.6746679 51.7193346 75.432 50.7859966 75.1893321 51.7193346 74.9233348 52.6176589 74.634 53.4809966 74.3446652 54.3443342 74.0693346 55.1119932 73.808 55.7839966L72.674 55.7839966C72.2446645 54.8226584 71.8246687 53.7260027 71.414 52.4939966 71.0033313 51.2619904 70.6160018 49.9320037 70.252 48.5039966L71.652 48.5039966C71.7453338 48.9426654 71.8573327 49.4186607 71.988 49.9319966 72.1186673 50.4453325 72.2563326 50.9586607 72.401 51.4719966 72.5456674 51.9853325 72.6973325 52.4799942 72.856 52.9559966 73.0146675 53.431999 73.1639993 53.8473281 73.304 54.2019966 73.4626675 53.7633277 73.6189992 53.298999 73.773 52.8089966 73.9270008 52.3189941 74.0739993 51.8243324 74.214 51.3249966 74.3540007 50.8256608 74.4869994 50.3356657 74.613 49.8549966 74.7390006 49.3743275 74.8486662 48.9239987 74.942 48.5039966L76.02 48.5039966C76.1040004 48.9239987 76.2066661 49.3743275 76.328 49.8549966 76.4493339 50.3356657 76.5799993 50.8256608 76.72 51.3249966 76.8600007 51.8243324 77.0069992 52.3189941 77.161 52.8089966 77.3150008 53.298999 77.4713325 53.7633277 77.63 54.2019966 77.7700007 53.8473281 77.9169992 53.431999 78.071 52.9559966 78.2250008 52.4799942 78.3766659 51.9853325 78.526 51.4719966 78.6753341 50.9586607 78.8153327 50.4453325 78.946 49.9319966 79.0766673 49.4186607 79.1886662 48.9426654 79.282 48.5039966L80.626 48.5039966C80.2619982 49.9320037 79.8746687 51.2619904 79.464 52.4939966 79.0533313 53.7260027 78.6333355 54.8226584 78.204 55.7839966L77.07 55.7839966zM88.424 52.1439966C88.424 52.7226661 88.3400008 53.2453276 88.172 53.7119966 88.0039992 54.1786656 87.7683349 54.5799949 87.465 54.9159966 87.1616652 55.2519983 86.8000021 55.5109957 86.38 55.6929966 85.9599979 55.8749975 85.5026691 55.9659966 85.008 55.9659966 84.5133309 55.9659966 84.0560021 55.8749975 83.636 55.6929966 83.2159979 55.5109957 82.8543349 55.2519983 82.551 54.9159966 82.2476652 54.5799949 82.0120008 54.1786656 81.844 53.7119966 81.6759992 53.2453276 81.592 52.7226661 81.592 52.1439966 81.592 51.5746604 81.6759992 51.0543323 81.844 50.5829966 82.0120008 50.1116609 82.2476652 49.7079983 82.551 49.3719966 82.8543349 49.0359949 83.2159979 48.7769975 83.636 48.5949966 84.0560021 48.4129957 84.5133309 48.3219966 85.008 48.3219966 85.5026691 48.3219966 85.9599979 48.4129957 86.38 48.5949966 86.8000021 48.7769975 87.1616652 49.0359949 87.465 49.3719966 87.7683349 49.7079983 88.0039992 50.1116609 88.172 50.5829966 88.3400008 51.0543323 88.424 51.5746604 88.424 52.1439966zM87.066 52.1439966C87.066 51.3226591 86.8816685 50.6716657 86.513 50.1909966 86.1443315 49.7103275 85.6426698 49.4699966 85.008 49.4699966 84.3733302 49.4699966 83.8716685 49.7103275 83.503 50.1909966 83.1343315 50.6716657 82.95 51.3226591 82.95 52.1439966 82.95 52.965334 83.1343315 53.6163275 83.503 54.0969966 83.8716685 54.5776657 84.3733302 54.8179966 85.008 54.8179966 85.6426698 54.8179966 86.1443315 54.5776657 86.513 54.0969966 86.8816685 53.6163275 87.066 52.965334 87.066 52.1439966zM92.946 48.3499966C93.0580006 48.3499966 93.1863326 48.3569965 93.331 48.3709966 93.4756674 48.3849967 93.6179993 48.4036631 93.758 48.4269966 93.8980007 48.45033 94.0263327 48.4736631 94.143 48.4969966 94.2596673 48.52033 94.3459997 48.5413298 94.402 48.5599966L94.178 49.6939966C94.0753328 49.6566631 93.9050012 49.6123302 93.667 49.5609966 93.4289988 49.509663 93.1233352 49.4839966 92.75 49.4839966 92.5073321 49.4839966 92.2670012 49.509663 92.029 49.5609966 91.7909988 49.6123302 91.634667 49.6473298 91.56 49.6659966L91.56 55.7839966 90.258 55.7839966 90.258 48.8119966C90.5660015 48.699996 90.9486644 48.5949971 91.406 48.4969966 91.8633356 48.3989961 92.3766638 48.3499966 92.946 48.3499966zM98.294 51.7799966C98.5740014 51.9946643 98.8703318 52.2606617 99.183 52.5779966 99.4956682 52.8953315 99.8036652 53.2383281 100.107 53.6069966 100.410335 53.9756651 100.697332 54.3489947 100.968 54.7269966 101.238668 55.1049985 101.467332 55.4573283 101.654 55.7839966L100.128 55.7839966C99.931999 55.4573283 99.7056679 55.123665 99.449 54.7829966 99.1923321 54.4423282 98.9240014 54.1156648 98.644 53.8029966 98.3639986 53.4903284 98.0793348 53.2033312 97.79 52.9419966 97.5006652 52.6806619 97.2253346 52.4613308 96.964 52.2839966L96.964 55.7839966 95.662 55.7839966 95.662 45.1439966 96.964 44.9199966 96.964 51.5559966 97.706 50.8139966C97.976668 50.5433286 98.2426654 50.267998 98.504 49.9879966 98.7653346 49.7079952 99.0126655 49.4396645 99.246 49.1829966 99.4793345 48.9263286 99.6799992 48.6999976 99.848 48.5039966L101.374 48.5039966C101.159332 48.7373311 100.926001 48.9939952 100.674 49.2739966 100.421999 49.553998 100.160668 49.8363285 99.89 50.1209966 99.619332 50.4056647 99.3463347 50.6903285 99.071 50.9749966 98.7956653 51.2596647 98.5366679 51.5279953 98.294 51.7799966zM104.664 54.8459966C105.196003 54.8459966 105.590332 54.7759973 105.847 54.6359966 106.103668 54.4959959 106.232 54.2719981 106.232 53.9639966 106.232 53.6466617 106.106001 53.3946642 105.854 53.2079966 105.601999 53.021329 105.18667 52.8113311 104.608 52.5779966 104.327999 52.465996 104.059668 52.3516638 103.803 52.2349966 103.546332 52.1183293 103.324668 51.980664 103.138 51.8219966 102.951332 51.6633291 102.802001 51.4719977 102.69 51.2479966 102.577999 51.0239955 102.522 50.7486649 102.522 50.4219966 102.522 49.7779934 102.759998 49.2669985 103.236 48.8889966 103.712002 48.5109947 104.360663 48.3219966 105.182 48.3219966 105.387334 48.3219966 105.592666 48.3336631 105.798 48.3569966 106.003334 48.38033 106.194666 48.4083298 106.372 48.4409966 106.549334 48.4736634 106.705666 48.5086631 106.841 48.5459966 106.976334 48.5833301 107.081333 48.6159964 107.156 48.6439966L106.918 49.7639966C106.777999 49.6893295 106.558668 49.6123303 106.26 49.5329966 105.961332 49.4536629 105.602002 49.4139966 105.182 49.4139966 104.817998 49.4139966 104.500668 49.4863292 104.23 49.6309966 103.959332 49.775664 103.824 50.001995 103.824 50.3099966 103.824 50.468664 103.854333 50.6086626 103.915 50.7299966 103.975667 50.8513305 104.068999 50.9609961 104.195 51.0589966 104.321001 51.1569971 104.477332 51.2479962 104.664 51.3319966 104.850668 51.415997 105.074665 51.5046628 105.336 51.5979966 105.681335 51.7286639 105.989332 51.856996 106.26 51.9829966 106.530668 52.1089972 106.761666 52.2559957 106.953 52.4239966 107.144334 52.5919974 107.291333 52.7949954 107.394 53.0329966 107.496667 53.2709978 107.548 53.5626615 107.548 53.9079966 107.548 54.5799999 107.298336 55.0886615 106.799 55.4339966 106.299664 55.7793316 105.588005 55.9519966 104.664 55.9519966 104.019997 55.9519966 103.516002 55.8983305 103.152 55.7909966 102.787998 55.6836627 102.540667 55.6019969 102.41 55.5459966L102.648 54.4259966C102.797334 54.4819969 103.035332 54.565996 103.362 54.6779966 103.688668 54.7899971 104.122664 54.8459966 104.664 54.8459966zM109.214 55.7839966L109.214 45.1439966 110.516 44.9199966 110.516 48.6439966C110.758668 48.5506628 111.017665 48.4783302 111.293 48.4269966 111.568335 48.375663 111.841332 48.3499966 112.112 48.3499966 112.69067 48.3499966 113.171331 48.4316624 113.554 48.5949966 113.936669 48.7583307 114.242332 48.9869951 114.471 49.2809966 114.699668 49.5749981 114.860666 49.9273279 114.954 50.3379966 115.047334 50.7486653 115.094 51.2013274 115.094 51.6959966L115.094 55.7839966 113.792 55.7839966 113.792 51.9759966C113.792 51.5279943 113.761667 51.1453315 113.701 50.8279966 113.640333 50.5106617 113.540001 50.2539976 113.4 50.0579966 113.259999 49.8619956 113.073335 49.7196637 112.84 49.6309966 112.606665 49.5423295 112.317335 49.4979966 111.972 49.4979966 111.831999 49.4979966 111.687334 49.5073298 111.538 49.5259966 111.388666 49.5446633 111.246334 49.5656631 111.111 49.5889966 110.975666 49.61233 110.854334 49.6379964 110.747 49.6659966 110.639666 49.6939967 110.562667 49.7173298 110.516 49.7359966L110.516 55.7839966 109.214 55.7839966zM123.634 52.1439966C123.634 52.7226661 123.550001 53.2453276 123.382 53.7119966 123.213999 54.1786656 122.978335 54.5799949 122.675 54.9159966 122.371665 55.2519983 122.010002 55.5109957 121.59 55.6929966 121.169998 55.8749975 120.712669 55.9659966 120.218 55.9659966 119.723331 55.9659966 119.266002 55.8749975 118.846 55.6929966 118.425998 55.5109957 118.064335 55.2519983 117.761 54.9159966 117.457665 54.5799949 117.222001 54.1786656 117.054 53.7119966 116.885999 53.2453276 116.802 52.7226661 116.802 52.1439966 116.802 51.5746604 116.885999 51.0543323 117.054 50.5829966 117.222001 50.1116609 117.457665 49.7079983 117.761 49.3719966 118.064335 49.0359949 118.425998 48.7769975 118.846 48.5949966 119.266002 48.4129957 119.723331 48.3219966 120.218 48.3219966 120.712669 48.3219966 121.169998 48.4129957 121.59 48.5949966 122.010002 48.7769975 122.371665 49.0359949 122.675 49.3719966 122.978335 49.7079983 123.213999 50.1116609 123.382 50.5829966 123.550001 51.0543323 123.634 51.5746604 123.634 52.1439966zM122.276 52.1439966C122.276 51.3226591 122.091669 50.6716657 121.723 50.1909966 121.354331 49.7103275 120.85267 49.4699966 120.218 49.4699966 119.58333 49.4699966 119.081669 49.7103275 118.713 50.1909966 118.344331 50.6716657 118.16 51.3226591 118.16 52.1439966 118.16 52.965334 118.344331 53.6163275 118.713 54.0969966 119.081669 54.5776657 119.58333 54.8179966 120.218 54.8179966 120.85267 54.8179966 121.354331 54.5776657 121.723 54.0969966 122.091669 53.6163275 122.276 52.965334 122.276 52.1439966zM130.522 52.1579966C130.522 51.308659 130.312002 50.6553322 129.892 50.1979966 129.471998 49.740661 128.912003 49.5119966 128.212 49.5119966 127.819998 49.5119966 127.514334 49.5259964 127.295 49.5539966 127.075666 49.5819967 126.900667 49.6146631 126.77 49.6519966L126.77 54.2439966C126.928667 54.3746639 127.157332 54.5006626 127.456 54.6219966 127.754668 54.7433305 128.081332 54.8039966 128.436 54.8039966 128.809335 54.8039966 129.128999 54.7363306 129.395 54.6009966 129.661001 54.4656626 129.877999 54.2789978 130.046 54.0409966 130.214001 53.8029954 130.335333 53.5229982 130.41 53.2009966 130.484667 52.878995 130.522 52.5313318 130.522 52.1579966zM131.88 52.1579966C131.88 52.708666 131.807667 53.2173276 131.663 53.6839966 131.518333 54.1506656 131.306001 54.5519949 131.026 54.8879966 130.745999 55.2239983 130.403002 55.485329 129.997 55.6719966 129.590998 55.8586642 129.126669 55.9519966 128.604 55.9519966 128.183998 55.9519966 127.813002 55.8959971 127.491 55.7839966 127.168998 55.671996 126.928667 55.5646638 126.77 55.4619966L126.77 58.3739966 125.468 58.3739966 125.468 48.7279966C125.776002 48.6533295 126.160998 48.5716637 126.623 48.4829966 127.085002 48.3943295 127.61933 48.3499966 128.226 48.3499966 128.786003 48.3499966 129.289998 48.4386624 129.738 48.6159966 130.186002 48.7933308 130.568665 49.0453283 130.886 49.3719966 131.203335 49.6986649 131.448332 50.0976609 131.621 50.5689966 131.793668 51.0403323 131.88 51.5699936 131.88 52.1579966z"/>
  </g>
</svg>
