<svg xmlns="http://www.w3.org/2000/svg" width="160" height="80" viewBox="0 0 160 80">
  <g fill="none" fill-rule="evenodd" transform="translate(0 8)">
    <ellipse cx="31.5" cy="32.188" fill="#4E4B49" rx="31.5" ry="31.683"/>
    <text fill="#FFFFFF" font-family="Ubuntu-Bold, Ubuntu" font-size="30.24" font-weight="bold">
      <tspan x="9.289" y="41.087">Ur</tspan>
    </text>
    <path fill="#FFFFFF" d="M76.916,24.79 C76.6173318,24.864667 76.2230024,24.9439996 75.733,25.028 C75.2429975,25.1120004 74.6760032,25.154 74.032,25.154 C73.4719972,25.154 73.0006686,25.0723342 72.618,24.909 C72.2353314,24.7456659 71.9273345,24.5146682 71.694,24.216 C71.4606655,23.9173318 71.2926672,23.565002 71.19,23.159 C71.0873328,22.752998 71.036,22.3026691 71.036,21.808 L71.036,17.72 L72.338,17.72 L72.338,21.528 C72.338,22.4146711 72.4779986,23.0493314 72.758,23.432 C73.0380014,23.8146686 73.50933,24.006 74.172,24.006 C74.3120007,24.006 74.4566659,24.0013334 74.606,23.992 C74.7553341,23.9826666 74.8953327,23.9710001 75.026,23.957 C75.1566673,23.9429999 75.2756661,23.9290001 75.383,23.915 C75.4903339,23.9009999 75.5673331,23.8846668 75.614,23.866 L75.614,17.72 L76.916,17.72 L76.916,24.79 Z M80.85,24.062 C81.3820027,24.062 81.776332,23.9920007 82.033,23.852 C82.2896679,23.7119993 82.418,23.4880015 82.418,23.18 C82.418,22.8626651 82.2920013,22.6106676 82.04,22.424 C81.7879987,22.2373324 81.3726696,22.0273345 80.794,21.794 C80.5139986,21.6819994 80.2456679,21.5676673 79.989,21.451 C79.732332,21.3343328 79.5106676,21.1966675 79.324,21.038 C79.1373324,20.8793325 78.9880006,20.6880011 78.876,20.464 C78.7639994,20.2399989 78.708,19.9646683 78.708,19.638 C78.708,18.9939968 78.9459976,18.4830019 79.422,18.105 C79.8980024,17.7269981 80.5466626,17.538 81.368,17.538 C81.5733344,17.538 81.7786656,17.5496666 81.984,17.573 C82.1893344,17.5963335 82.3806658,17.6243332 82.558,17.657 C82.7353342,17.6896668 82.891666,17.7246665 83.027,17.762 C83.162334,17.7993335 83.267333,17.8319999 83.342,17.86 L83.104,18.98 C82.9639993,18.905333 82.7446682,18.8283337 82.446,18.749 C82.1473318,18.6696663 81.7880021,18.63 81.368,18.63 C81.0039982,18.63 80.686668,18.7023326 80.416,18.847 C80.145332,18.9916674 80.01,19.2179985 80.01,19.526 C80.01,19.6846675 80.040333,19.8246661 80.101,19.946 C80.161667,20.0673339 80.2549994,20.1769995 80.381,20.275 C80.5070006,20.3730005 80.6633324,20.4639996 80.85,20.548 C81.0366676,20.6320004 81.2606654,20.7206662 81.522,20.814 C81.8673351,20.9446673 82.175332,21.0729994 82.446,21.199 C82.716668,21.3250006 82.9476657,21.4719992 83.139,21.64 C83.3303343,21.8080008 83.4773328,22.0109988 83.58,22.249 C83.6826672,22.4870012 83.734,22.7786649 83.734,23.124 C83.734,23.7960034 83.4843358,24.3046649 82.985,24.65 C82.4856642,24.9953351 81.7740046,25.168 80.85,25.168 C80.2059968,25.168 79.7020018,25.1143339 79.338,25.007 C78.9739982,24.8996661 78.7266673,24.8180003 78.596,24.762 L78.834,23.642 C78.9833341,23.6980003 79.2213317,23.7819994 79.548,23.894 C79.8746683,24.0060006 80.308664,24.062 80.85,24.062 Z M84.994,21.374 C84.994,20.7299968 85.0873324,20.1676691 85.274,19.687 C85.4606676,19.2063309 85.7079985,18.8073349 86.016,18.49 C86.3240015,18.1726651 86.6786647,17.9346675 87.08,17.776 C87.4813353,17.6173325 87.8919979,17.538 88.312,17.538 C89.2920049,17.538 90.0433307,17.8436636 90.566,18.455 C91.0886693,19.0663364 91.35,19.9973271 91.35,21.248 L91.35,21.465 C91.35,21.5536671 91.3453334,21.635333 91.336,21.71 L86.352,21.71 C86.4080003,22.4660038 86.6273314,23.039998 87.01,23.432 C87.3926686,23.824002 87.9899959,24.02 88.802,24.02 C89.2593356,24.02 89.6443318,23.9803337 89.957,23.901 C90.2696682,23.8216663 90.5053325,23.744667 90.664,23.67 L90.846,24.762 C90.6873325,24.8460004 90.4096687,24.9346662 90.013,25.028 C89.6163313,25.1213338 89.1660025,25.168 88.662,25.168 C88.0273302,25.168 87.4790023,25.0723343 87.017,24.881 C86.5549977,24.6896657 86.1746682,24.4260017 85.876,24.09 C85.5773318,23.7539983 85.3556674,23.3550023 85.211,22.893 C85.0663326,22.4309977 84.994,21.9246694 84.994,21.374 Z M89.992,20.66 C90.0013334,20.0719971 89.8543349,19.5890019 89.551,19.211 C89.2476652,18.8329981 88.8300027,18.644 88.298,18.644 C87.9993318,18.644 87.7356678,18.7023328 87.507,18.819 C87.2783322,18.9356673 87.0846675,19.0873324 86.926,19.274 C86.7673325,19.4606676 86.6436671,19.6753321 86.555,19.918 C86.4663329,20.1606679 86.4080001,20.4079987 86.38,20.66 L89.992,20.66 Z M95.914,17.566 C96.0260006,17.566 96.1543326,17.5729999 96.299,17.587 C96.4436674,17.6010001 96.5859993,17.6196666 96.726,17.643 C96.8660007,17.6663335 96.9943327,17.6896666 97.111,17.713 C97.2276672,17.7363335 97.3139997,17.7573332 97.37,17.776 L97.146,18.91 C97.0433328,18.8726665 96.8730012,18.8283336 96.635,18.777 C96.3969988,18.7256664 96.0913352,18.7 95.718,18.7 C95.4753321,18.7 95.2350012,18.7256664 94.997,18.777 C94.7589988,18.8283336 94.602667,18.8633332 94.528,18.882 L94.528,25 L93.226,25 L93.226,18.028 C93.5340015,17.9159994 93.9166644,17.8110005 94.374,17.713 C94.8313356,17.6149995 95.3446638,17.566 95.914,17.566 Z M73.808,37.9579983 C73.9200006,37.9579983 74.0483326,37.9649982 74.193,37.9789983 C74.3376674,37.9929984 74.4799993,38.0116648 74.62,38.0349983 C74.7600007,38.0583317 74.8883328,38.0816648 75.005,38.1049983 C75.1216673,38.1283317 75.2079997,38.1493315 75.264,38.1679983 L75.04,39.3019983 C74.9373328,39.2646648 74.7670012,39.2203319 74.529,39.1689983 C74.2909988,39.1176647 73.9853352,39.0919983 73.612,39.0919983 C73.3693321,39.0919983 73.1290012,39.1176647 72.891,39.1689983 C72.6529988,39.2203319 72.496667,39.2553315 72.422,39.2739983 L72.422,45.3919983 L71.12,45.3919983 L71.12,38.4199983 C71.4280015,38.3079977 71.8106644,38.2029988 72.268,38.1049983 C72.7253356,38.0069978 73.2386638,37.9579983 73.808,37.9579983 Z M76.118,41.7659983 C76.118,41.1219951 76.2113324,40.5596674 76.398,40.0789983 C76.5846676,39.5983292 76.8319985,39.1993332 77.14,38.8819983 C77.4480015,38.5646634 77.8026647,38.3266658 78.204,38.1679983 C78.6053353,38.0093308 79.0159979,37.9299983 79.436,37.9299983 C80.4160049,37.9299983 81.1673307,38.2356619 81.69,38.8469983 C82.2126693,39.4583347 82.474,40.3893254 82.474,41.6399983 L82.474,41.8569983 C82.474,41.9456654 82.4693334,42.0273313 82.46,42.1019983 L77.476,42.1019983 C77.5320003,42.8580021 77.7513314,43.4319963 78.134,43.8239983 C78.5166686,44.2160003 79.1139959,44.4119983 79.926,44.4119983 C80.3833356,44.4119983 80.7683318,44.372332 81.081,44.2929983 C81.3936682,44.2136646 81.6293325,44.1366653 81.788,44.0619983 L81.97,45.1539983 C81.8113325,45.2379987 81.5336686,45.3266645 81.137,45.4199983 C80.7403314,45.5133321 80.2900025,45.5599983 79.786,45.5599983 C79.1513302,45.5599983 78.6030023,45.4643326 78.141,45.2729983 C77.6789977,45.081664 77.2986682,44.818 77,44.4819983 C76.7013318,44.1459966 76.4796674,43.7470006 76.335,43.2849983 C76.1903326,42.822996 76.118,42.3166677 76.118,41.7659983 Z M81.116,41.0519983 C81.1253334,40.4639954 80.9783348,39.9810002 80.675,39.6029983 C80.3716651,39.2249964 79.9540027,39.0359983 79.422,39.0359983 C79.1233318,39.0359983 78.8596678,39.094331 78.631,39.2109983 C78.4023322,39.3276655 78.2086675,39.4793307 78.05,39.6659983 C77.8913325,39.8526659 77.7676671,40.0673304 77.679,40.3099983 C77.5903329,40.5526662 77.5320001,40.799997 77.504,41.0519983 L81.116,41.0519983 Z M86.044,44.4539983 C86.5760027,44.4539983 86.970332,44.383999 87.227,44.2439983 C87.4836679,44.1039976 87.612,43.8799998 87.612,43.5719983 C87.612,43.2546634 87.4860013,43.0026659 87.234,42.8159983 C86.9819987,42.6293307 86.5666696,42.4193328 85.988,42.1859983 C85.7079986,42.0739977 85.439668,41.9596655 85.183,41.8429983 C84.926332,41.726331 84.7046676,41.5886658 84.518,41.4299983 C84.3313324,41.2713308 84.1820006,41.0799994 84.07,40.8559983 C83.9579994,40.6319972 83.902,40.3566666 83.902,40.0299983 C83.902,39.3859951 84.1399976,38.8750002 84.616,38.4969983 C85.0920024,38.1189964 85.7406626,37.9299983 86.562,37.9299983 C86.7673344,37.9299983 86.9726656,37.9416648 87.178,37.9649983 C87.3833344,37.9883317 87.5746658,38.0163315 87.752,38.0489983 C87.9293342,38.0816651 88.085666,38.1166648 88.221,38.1539983 C88.356334,38.1913318 88.461333,38.2239982 88.536,38.2519983 L88.298,39.3719983 C88.1579993,39.2973313 87.9386682,39.220332 87.64,39.1409983 C87.3413318,39.0616646 86.9820021,39.0219983 86.562,39.0219983 C86.1979982,39.0219983 85.880668,39.0943309 85.61,39.2389983 C85.339332,39.3836657 85.204,39.6099968 85.204,39.9179983 C85.204,40.0766658 85.234333,40.2166644 85.295,40.3379983 C85.355667,40.4593322 85.4489994,40.5689978 85.575,40.6669983 C85.7010006,40.7649988 85.8573324,40.8559979 86.044,40.9399983 C86.2306676,41.0239987 86.4546654,41.1126645 86.716,41.2059983 C87.0613351,41.3366656 87.369332,41.4649977 87.64,41.5909983 C87.910668,41.7169989 88.1416657,41.8639975 88.333,42.0319983 C88.5243343,42.1999991 88.6713328,42.4029971 88.774,42.6409983 C88.8766672,42.8789995 88.928,43.1706632 88.928,43.5159983 C88.928,44.1880017 88.6783358,44.6966632 88.179,45.0419983 C87.6796642,45.3873334 86.9680046,45.5599983 86.044,45.5599983 C85.3999968,45.5599983 84.8960018,45.5063322 84.532,45.3989983 C84.1679982,45.2916644 83.9206673,45.2099986 83.79,45.1539983 L84.028,44.0339983 C84.1773341,44.0899986 84.4153317,44.1739977 84.742,44.2859983 C85.0686683,44.3979989 85.502664,44.4539983 86.044,44.4539983 Z M90.188,41.7659983 C90.188,41.1219951 90.2813324,40.5596674 90.468,40.0789983 C90.6546676,39.5983292 90.9019985,39.1993332 91.21,38.8819983 C91.5180015,38.5646634 91.8726647,38.3266658 92.274,38.1679983 C92.6753353,38.0093308 93.0859979,37.9299983 93.506,37.9299983 C94.4860049,37.9299983 95.2373307,38.2356619 95.76,38.8469983 C96.2826693,39.4583347 96.544,40.3893254 96.544,41.6399983 L96.544,41.8569983 C96.544,41.9456654 96.5393334,42.0273313 96.53,42.1019983 L91.546,42.1019983 C91.6020003,42.8580021 91.8213314,43.4319963 92.204,43.8239983 C92.5866686,44.2160003 93.1839959,44.4119983 93.996,44.4119983 C94.4533356,44.4119983 94.8383318,44.372332 95.151,44.2929983 C95.4636682,44.2136646 95.6993325,44.1366653 95.858,44.0619983 L96.04,45.1539983 C95.8813325,45.2379987 95.6036687,45.3266645 95.207,45.4199983 C94.8103313,45.5133321 94.3600025,45.5599983 93.856,45.5599983 C93.2213302,45.5599983 92.6730023,45.4643326 92.211,45.2729983 C91.7489977,45.081664 91.3686682,44.818 91.07,44.4819983 C90.7713318,44.1459966 90.5496674,43.7470006 90.405,43.2849983 C90.2603326,42.822996 90.188,42.3166677 90.188,41.7659983 Z M95.186,41.0519983 C95.1953334,40.4639954 95.0483349,39.9810002 94.745,39.6029983 C94.4416652,39.2249964 94.0240027,39.0359983 93.492,39.0359983 C93.1933318,39.0359983 92.9296678,39.094331 92.701,39.2109983 C92.4723322,39.3276655 92.2786675,39.4793307 92.12,39.6659983 C91.9613325,39.8526659 91.8376671,40.0673304 91.749,40.3099983 C91.6603329,40.5526662 91.6020001,40.799997 91.574,41.0519983 L95.186,41.0519983 Z M100.884,44.4539983 C101.192002,44.4539983 101.464999,44.4469984 101.703,44.4329983 C101.941001,44.4189982 102.139333,44.3933318 102.298,44.3559983 L102.298,42.1859983 C102.204666,42.1393314 102.053001,42.0996651 101.843,42.0669983 C101.632999,42.0343315 101.378668,42.0179983 101.08,42.0179983 C100.883999,42.0179983 100.676334,42.0319982 100.457,42.0599983 C100.237666,42.0879984 100.037001,42.1463312 99.855,42.2349983 C99.6729991,42.3236654 99.5213339,42.4449975 99.4,42.5989983 C99.2786661,42.7529991 99.218,42.955997 99.218,43.2079983 C99.218,43.6746673 99.3673318,43.9989974 99.666,44.1809983 C99.9646682,44.3629992 100.370664,44.4539983 100.884,44.4539983 Z M100.772,37.9299983 C101.294669,37.9299983 101.735665,37.9976643 102.095,38.1329983 C102.454335,38.2683323 102.743666,38.4596637 102.963,38.7069983 C103.182334,38.9543329 103.338666,39.2483299 103.432,39.5889983 C103.525334,39.9296667 103.572,40.3053296 103.572,40.7159983 L103.572,45.2659983 C103.459999,45.2846651 103.303668,45.3103315 103.103,45.3429983 C102.902332,45.3756651 102.676001,45.4059982 102.424,45.4339983 C102.171999,45.4619984 101.899001,45.4876648 101.605,45.5109983 C101.310999,45.5343317 101.019335,45.5459983 100.73,45.5459983 C100.319331,45.5459983 99.9413351,45.5039987 99.596,45.4199983 C99.2506649,45.3359979 98.9520013,45.2029992 98.7,45.0209983 C98.4479987,44.8389974 98.2520007,44.5986665 98.112,44.2999983 C97.9719993,44.0013301 97.902,43.6420004 97.902,43.2219983 C97.902,42.820663 97.9836658,42.4753331 98.147,42.1859983 C98.3103342,41.8966635 98.5319986,41.6633325 98.812,41.4859983 C99.0920014,41.3086641 99.4186648,41.1779987 99.792,41.0939983 C100.165335,41.0099979 100.557331,40.9679983 100.968,40.9679983 C101.098667,40.9679983 101.233999,40.9749982 101.374,40.9889983 C101.514001,41.0029984 101.646999,41.0216648 101.773,41.0449983 C101.899001,41.0683317 102.008666,41.0893315 102.102,41.1079983 C102.195334,41.1266651 102.260666,41.1406649 102.298,41.1499983 L102.298,40.7859983 C102.298,40.5713306 102.274667,40.3589993 102.228,40.1489983 C102.181333,39.9389972 102.097334,39.7523324 101.976,39.5889983 C101.854666,39.4256641 101.689001,39.2949988 101.479,39.1969983 C101.268999,39.0989978 100.996002,39.0499983 100.66,39.0499983 C100.230665,39.0499983 99.8550016,39.0803313 99.533,39.1409983 C99.2109984,39.2016653 98.9706675,39.2646646 98.812,39.3299983 L98.658,38.2519983 C98.8260008,38.1773313 99.105998,38.1049986 99.498,38.0349983 C99.890002,37.9649979 100.314664,37.9299983 100.772,37.9299983 Z M108.416,37.9579983 C108.528001,37.9579983 108.656333,37.9649982 108.801,37.9789983 C108.945667,37.9929984 109.087999,38.0116648 109.228,38.0349983 C109.368001,38.0583317 109.496333,38.0816648 109.613,38.1049983 C109.729667,38.1283317 109.816,38.1493315 109.872,38.1679983 L109.648,39.3019983 C109.545333,39.2646648 109.375001,39.2203319 109.137,39.1689983 C108.898999,39.1176647 108.593335,39.0919983 108.22,39.0919983 C107.977332,39.0919983 107.737001,39.1176647 107.499,39.1689983 C107.260999,39.2203319 107.104667,39.2553315 107.03,39.2739983 L107.03,45.3919983 L105.728,45.3919983 L105.728,38.4199983 C106.036002,38.3079977 106.418664,38.2029988 106.876,38.1049983 C107.333336,38.0069978 107.846664,37.9579983 108.416,37.9579983 Z M114.296,45.5599983 C113.707997,45.5599983 113.192336,45.4666659 112.749,45.2799983 C112.305664,45.0933307 111.932335,44.832 111.629,44.4959983 C111.325665,44.1599966 111.099334,43.7610006 110.95,43.2989983 C110.800666,42.836996 110.726,42.3260011 110.726,41.7659983 C110.726,41.2059955 110.807666,40.6926673 110.971,40.2259983 C111.134334,39.7593293 111.365332,39.3556667 111.664,39.0149983 C111.962668,38.6743299 112.328998,38.4083326 112.763,38.2169983 C113.197002,38.025664 113.679997,37.9299983 114.212,37.9299983 C114.538668,37.9299983 114.865332,37.957998 115.192,38.0139983 C115.518668,38.0699986 115.831332,38.1586644 116.13,38.2799983 L115.836,39.3859983 C115.639999,39.2926645 115.413668,39.2179986 115.157,39.1619983 C114.900332,39.105998 114.627335,39.0779983 114.338,39.0779983 C113.609996,39.0779983 113.052335,39.3066627 112.665,39.7639983 C112.277665,40.2213339 112.084,40.8886606 112.084,41.7659983 C112.084,42.1580003 112.128333,42.51733 112.217,42.8439983 C112.305667,43.1706666 112.445666,43.4506638 112.637,43.6839983 C112.828334,43.9173328 113.073332,44.0969977 113.372,44.2229983 C113.670668,44.3489989 114.034665,44.4119983 114.464,44.4119983 C114.809335,44.4119983 115.121999,44.379332 115.402,44.3139983 C115.682001,44.2486646 115.901333,44.1786653 116.06,44.1039983 L116.242,45.1959983 C116.167333,45.2426652 116.060001,45.2869981 115.92,45.3289983 C115.779999,45.3709985 115.621334,45.4083315 115.444,45.4409983 C115.266666,45.4736651 115.077668,45.5016648 114.877,45.5249983 C114.676332,45.5483317 114.482668,45.5599983 114.296,45.5599983 Z M117.642,45.3919983 L117.642,34.7519983 L118.944,34.5279983 L118.944,38.2519983 C119.186668,38.1586645 119.445665,38.0863319 119.721,38.0349983 C119.996335,37.9836647 120.269332,37.9579983 120.54,37.9579983 C121.11867,37.9579983 121.599331,38.0396641 121.982,38.2029983 C122.364669,38.3663324 122.670332,38.5949968 122.899,38.8889983 C123.127668,39.1829998 123.288666,39.5353296 123.382,39.9459983 C123.475334,40.356667 123.522,40.8093292 123.522,41.3039983 L123.522,45.3919983 L122.22,45.3919983 L122.22,41.5839983 C122.22,41.1359961 122.189667,40.7533332 122.129,40.4359983 C122.068333,40.1186634 121.968001,39.8619993 121.828,39.6659983 C121.687999,39.4699973 121.501335,39.3276654 121.268,39.2389983 C121.034666,39.1503312 120.745335,39.1059983 120.4,39.1059983 C120.259999,39.1059983 120.115334,39.1153315 119.966,39.1339983 C119.816666,39.1526651 119.674334,39.1736648 119.539,39.1969983 C119.403666,39.2203317 119.282334,39.2459982 119.175,39.2739983 C119.067666,39.3019984 118.990667,39.3253315 118.944,39.3439983 L118.944,45.3919983 L117.642,45.3919983 Z"/>
  </g>
</svg>
