<svg xmlns="http://www.w3.org/2000/svg" width="160" height="80" viewBox="0 0 160 80">
  <g fill="none" fill-rule="evenodd" transform="translate(0 8)">
    <ellipse cx="31.5" cy="31.721" fill="#4E4B49" rx="31.5" ry="31.683"/>
    <text fill="#FFFFFF" font-family="Ubuntu-Bold, Ubuntu" font-size="30.24" font-weight="bold">
      <tspan x="7.489" y="40.62">Pd</tspan>
    </text>
    <path fill="#FFFFFF" d="M78.174,21.374 C78.174,20.5246624 77.9640021,19.8713356 77.544,19.414 C77.1239979,18.9566644 76.5640035,18.728 75.864,18.728 C75.471998,18.728 75.1663344,18.7419999 74.947,18.77 C74.7276656,18.7980001 74.5526673,18.8306665 74.422,18.868 L74.422,23.46 C74.5806675,23.5906673 74.8093318,23.7166661 75.108,23.838 C75.4066682,23.9593339 75.7333316,24.02 76.088,24.02 C76.4613352,24.02 76.7809987,23.952334 77.047,23.817 C77.3130013,23.681666 77.5299992,23.4950012 77.698,23.257 C77.8660008,23.0189988 77.987333,22.7390016 78.062,22.417 C78.136667,22.0949984 78.174,21.7473352 78.174,21.374 Z M79.532,21.374 C79.532,21.9246694 79.4596674,22.433331 79.315,22.9 C79.1703326,23.366669 78.9580014,23.7679983 78.678,24.104 C78.3979986,24.4400017 78.055002,24.7013324 77.649,24.888 C77.242998,25.0746676 76.7786693,25.168 76.256,25.168 C75.8359979,25.168 75.4650016,25.1120006 75.143,25 C74.8209984,24.8879994 74.5806675,24.7806672 74.422,24.678 L74.422,27.59 L73.12,27.59 L73.12,17.944 C73.4280015,17.869333 73.8129977,17.7876671 74.275,17.699 C74.7370023,17.6103329 75.2713303,17.566 75.878,17.566 C76.4380028,17.566 76.9419978,17.6546658 77.39,17.832 C77.8380022,18.0093342 78.2206651,18.2613317 78.538,18.588 C78.8553349,18.9146683 79.1003325,19.3136643 79.273,19.785 C79.4456675,20.2563357 79.532,20.7859971 79.532,21.374 Z M84.054,17.566 C84.1660006,17.566 84.2943326,17.5729999 84.439,17.587 C84.5836674,17.6010001 84.7259993,17.6196665 84.866,17.643 C85.0060007,17.6663334 85.1343327,17.6896665 85.251,17.713 C85.3676672,17.7363334 85.4539997,17.7573332 85.51,17.776 L85.286,18.91 C85.1833328,18.8726665 85.0130012,18.8283336 84.775,18.777 C84.5369988,18.7256664 84.2313352,18.7 83.858,18.7 C83.6153321,18.7 83.3750012,18.7256664 83.137,18.777 C82.8989988,18.8283336 82.742667,18.8633332 82.668,18.882 L82.668,25 L81.366,25 L81.366,18.028 C81.6740015,17.9159994 82.0566644,17.8110005 82.514,17.713 C82.9713356,17.6149995 83.4846638,17.566 84.054,17.566 Z M93.196,21.36 C93.196,21.9386696 93.1120008,22.461331 92.944,22.928 C92.7759992,23.394669 92.5403348,23.7959983 92.237,24.132 C91.9336651,24.4680017 91.5720021,24.7269991 91.152,24.909 C90.7319979,25.0910009 90.2746691,25.182 89.78,25.182 C89.2853309,25.182 88.8280021,25.0910009 88.408,24.909 C87.9879979,24.7269991 87.6263349,24.4680017 87.323,24.132 C87.0196651,23.7959983 86.7840008,23.394669 86.616,22.928 C86.4479992,22.461331 86.364,21.9386696 86.364,21.36 C86.364,20.7906638 86.4479992,20.2703357 86.616,19.799 C86.7840008,19.3276643 87.0196651,18.9240017 87.323,18.588 C87.6263349,18.2519983 87.9879979,17.9930009 88.408,17.811 C88.8280021,17.6289991 89.2853309,17.538 89.78,17.538 C90.2746691,17.538 90.7319979,17.6289991 91.152,17.811 C91.5720021,17.9930009 91.9336651,18.2519983 92.237,18.588 C92.5403348,18.9240017 92.7759992,19.3276643 92.944,19.799 C93.1120008,20.2703357 93.196,20.7906638 93.196,21.36 Z M91.838,21.36 C91.838,20.5386626 91.6536685,19.8876691 91.285,19.407 C90.9163315,18.9263309 90.4146698,18.686 89.78,18.686 C89.1453302,18.686 88.6436685,18.9263309 88.275,19.407 C87.9063315,19.8876691 87.722,20.5386626 87.722,21.36 C87.722,22.1813374 87.9063315,22.8323309 88.275,23.313 C88.6436685,23.7936691 89.1453302,24.034 89.78,24.034 C90.4146698,24.034 90.9163315,23.7936691 91.285,23.313 C91.6536685,22.8323309 91.838,22.1813374 91.838,21.36 Z M99.734,19.26 C99.5753325,19.1293327 99.3466682,19.0033339 99.048,18.882 C98.7493318,18.7606661 98.4226684,18.7 98.068,18.7 C97.6946648,18.7 97.3750013,18.767666 97.109,18.903 C96.8429987,19.038334 96.6260008,19.2249988 96.458,19.463 C96.2899992,19.7010012 96.168667,19.9833317 96.094,20.31 C96.019333,20.6366683 95.982,20.9866648 95.982,21.36 C95.982,22.2093376 96.1919979,22.8649977 96.612,23.327 C97.0320021,23.7890023 97.5919965,24.02 98.292,24.02 C98.6466684,24.02 98.9429988,24.0036668 99.181,23.971 C99.4190012,23.9383332 99.6033327,23.9033335 99.734,23.866 L99.734,19.26 Z M99.734,14.36 L101.036,14.136 L101.036,24.79 C100.737332,24.8740004 100.354669,24.9579996 99.888,25.042 C99.421331,25.1260004 98.8846697,25.168 98.278,25.168 C97.7179972,25.168 97.2140022,25.0793342 96.766,24.902 C96.3179978,24.7246658 95.9353349,24.4726683 95.618,24.146 C95.3006651,23.8193317 95.0556675,23.4203357 94.883,22.949 C94.7103325,22.4776643 94.624,21.9480029 94.624,21.36 C94.624,20.7999972 94.6963326,20.286669 94.841,19.82 C94.9856674,19.353331 95.1979986,18.9520017 95.478,18.616 C95.7580014,18.2799983 96.100998,18.0186676 96.507,17.832 C96.913002,17.6453324 97.3773307,17.552 97.9,17.552 C98.3200021,17.552 98.6909984,17.6079994 99.013,17.72 C99.3350016,17.8320006 99.5753325,17.9393328 99.734,18.042 L99.734,14.36 Z M109.072,24.79 C108.773332,24.864667 108.379002,24.9439996 107.889,25.028 C107.398998,25.1120004 106.832003,25.154 106.188,25.154 C105.627997,25.154 105.156669,25.0723341 104.774,24.909 C104.391331,24.7456658 104.083335,24.5146682 103.85,24.216 C103.616665,23.9173318 103.448667,23.565002 103.346,23.159 C103.243333,22.752998 103.192,22.3026691 103.192,21.808 L103.192,17.72 L104.494,17.72 L104.494,21.528 C104.494,22.4146711 104.633999,23.0493314 104.914,23.432 C105.194001,23.8146686 105.66533,24.006 106.328,24.006 C106.468001,24.006 106.612666,24.0013334 106.762,23.992 C106.911334,23.9826666 107.051333,23.9710001 107.182,23.957 C107.312667,23.9429999 107.431666,23.9290001 107.539,23.915 C107.646334,23.9009999 107.723333,23.8846668 107.77,23.866 L107.77,17.72 L109.072,17.72 L109.072,24.79 Z M114.476,25.168 C113.887997,25.168 113.372336,25.0746676 112.929,24.888 C112.485664,24.7013324 112.112335,24.4400017 111.809,24.104 C111.505665,23.7679983 111.279334,23.3690023 111.13,22.907 C110.980666,22.4449977 110.906,21.9340028 110.906,21.374 C110.906,20.8139972 110.987666,20.300669 111.151,19.834 C111.314334,19.367331 111.545332,18.9636684 111.844,18.623 C112.142668,18.2823316 112.508998,18.0163343 112.943,17.825 C113.377002,17.6336657 113.859997,17.538 114.392,17.538 C114.718668,17.538 115.045332,17.5659997 115.372,17.622 C115.698668,17.6780003 116.011332,17.7666661 116.31,17.888 L116.016,18.994 C115.819999,18.9006662 115.593668,18.8260003 115.337,18.77 C115.080332,18.7139997 114.807335,18.686 114.518,18.686 C113.789996,18.686 113.232335,18.9146644 112.845,19.372 C112.457665,19.8293356 112.264,20.4966623 112.264,21.374 C112.264,21.766002 112.308333,22.1253317 112.397,22.452 C112.485667,22.7786683 112.625666,23.0586655 112.817,23.292 C113.008334,23.5253345 113.253332,23.7049994 113.552,23.831 C113.850668,23.9570006 114.214665,24.02 114.644,24.02 C114.989335,24.02 115.301999,23.9873337 115.582,23.922 C115.862001,23.8566663 116.081333,23.786667 116.24,23.712 L116.422,24.804 C116.347333,24.8506669 116.240001,24.8949998 116.1,24.937 C115.959999,24.9790002 115.801334,25.0163332 115.624,25.049 C115.446666,25.0816668 115.257668,25.1096665 115.057,25.133 C114.856332,25.1563334 114.662668,25.168 114.476,25.168 Z M119.04,17.72 L121.798,17.72 L121.798,18.812 L119.04,18.812 L119.04,22.172 C119.04,22.5360018 119.068,22.8369988 119.124,23.075 C119.18,23.3130012 119.263999,23.499666 119.376,23.635 C119.488001,23.770334 119.627999,23.8659997 119.796,23.922 C119.964001,23.9780003 120.159999,24.006 120.384,24.006 C120.776002,24.006 121.090999,23.9616671 121.329,23.873 C121.567001,23.7843329 121.732666,23.7213335 121.826,23.684 L122.078,24.762 C121.947333,24.8273337 121.718668,24.9089995 121.392,25.007 C121.065332,25.1050005 120.692002,25.154 120.272,25.154 C119.777331,25.154 119.369002,25.0910006 119.047,24.965 C118.724998,24.8389994 118.466001,24.6500013 118.27,24.398 C118.073999,24.1459987 117.936334,23.8356685 117.857,23.467 C117.777666,23.0983315 117.738,22.6713358 117.738,22.186 L117.738,15.69 L119.04,15.466 L119.04,17.72 Z M77.824,39.6519983 C77.6653325,39.521331 77.4366682,39.3953322 77.138,39.2739983 C76.8393318,39.1526644 76.5126684,39.0919983 76.158,39.0919983 C75.7846648,39.0919983 75.4650013,39.1596643 75.199,39.2949983 C74.9329987,39.4303323 74.7160008,39.6169971 74.548,39.8549983 C74.3799992,40.0929995 74.258667,40.37533 74.184,40.7019983 C74.109333,41.0286666 74.072,41.3786631 74.072,41.7519983 C74.072,42.6013359 74.2819979,43.256996 74.702,43.7189983 C75.1220021,44.1810006 75.6819965,44.4119983 76.382,44.4119983 C76.7366684,44.4119983 77.0329988,44.3956651 77.271,44.3629983 C77.5090012,44.3303315 77.6933327,44.2953318 77.824,44.2579983 L77.824,39.6519983 Z M77.824,34.7519983 L79.126,34.5279983 L79.126,45.1819983 C78.8273318,45.2659987 78.444669,45.3499979 77.978,45.4339983 C77.511331,45.5179987 76.9746697,45.5599983 76.368,45.5599983 C75.8079972,45.5599983 75.3040022,45.4713325 74.856,45.2939983 C74.4079978,45.1166641 74.0253349,44.8646666 73.708,44.5379983 C73.3906651,44.21133 73.1456675,43.812334 72.973,43.3409983 C72.8003325,42.8696626 72.714,42.3400012 72.714,41.7519983 C72.714,41.1919955 72.7863326,40.6786673 72.931,40.2119983 C73.0756674,39.7453293 73.2879986,39.344 73.568,39.0079983 C73.8480014,38.6719966 74.190998,38.4106659 74.597,38.2239983 C75.003002,38.0373307 75.4673307,37.9439983 75.99,37.9439983 C76.4100021,37.9439983 76.7809984,37.9999977 77.103,38.1119983 C77.4250016,38.2239989 77.6653325,38.3313311 77.824,38.4339983 L77.824,34.7519983 Z M80.96,41.7659983 C80.96,41.1219951 81.0533324,40.5596674 81.24,40.0789983 C81.4266676,39.5983292 81.6739985,39.1993332 81.982,38.8819983 C82.2900015,38.5646634 82.6446647,38.3266658 83.046,38.1679983 C83.4473353,38.0093308 83.8579979,37.9299983 84.278,37.9299983 C85.2580049,37.9299983 86.0093307,38.2356619 86.532,38.8469983 C87.0546693,39.4583347 87.316,40.3893254 87.316,41.6399983 L87.316,41.8569983 C87.316,41.9456654 87.3113334,42.0273313 87.302,42.1019983 L82.318,42.1019983 C82.3740003,42.8580021 82.5933314,43.4319963 82.976,43.8239983 C83.3586686,44.2160003 83.9559959,44.4119983 84.768,44.4119983 C85.2253356,44.4119983 85.6103318,44.372332 85.923,44.2929983 C86.2356682,44.2136646 86.4713325,44.1366653 86.63,44.0619983 L86.812,45.1539983 C86.6533325,45.2379987 86.3756686,45.3266645 85.979,45.4199983 C85.5823314,45.5133321 85.1320025,45.5599983 84.628,45.5599983 C83.9933302,45.5599983 83.4450023,45.4643326 82.983,45.2729983 C82.5209977,45.081664 82.1406682,44.818 81.842,44.4819983 C81.5433318,44.1459966 81.3216674,43.7470006 81.177,43.2849983 C81.0323326,42.822996 80.96,42.3166677 80.96,41.7659983 Z M85.958,41.0519983 C85.9673334,40.4639954 85.8203348,39.9810002 85.517,39.6029983 C85.2136651,39.2249964 84.7960027,39.0359983 84.264,39.0359983 C83.9653318,39.0359983 83.7016678,39.094331 83.473,39.2109983 C83.2443322,39.3276655 83.0506675,39.4793307 82.892,39.6659983 C82.7333325,39.8526659 82.6096671,40.0673304 82.521,40.3099983 C82.4323329,40.5526662 82.3740001,40.799997 82.346,41.0519983 L85.958,41.0519983 Z M90.886,44.4539983 C91.4180027,44.4539983 91.8123321,44.383999 92.069,44.2439983 C92.3256679,44.1039976 92.454,43.8799998 92.454,43.5719983 C92.454,43.2546634 92.3280013,43.0026659 92.076,42.8159983 C91.8239987,42.6293307 91.4086696,42.4193328 90.83,42.1859983 C90.5499986,42.0739977 90.2816679,41.9596655 90.025,41.8429983 C89.768332,41.726331 89.5466676,41.5886658 89.36,41.4299983 C89.1733324,41.2713308 89.0240006,41.0799994 88.912,40.8559983 C88.7999994,40.6319972 88.744,40.3566666 88.744,40.0299983 C88.744,39.3859951 88.9819976,38.8750002 89.458,38.4969983 C89.9340024,38.1189964 90.5826626,37.9299983 91.404,37.9299983 C91.6093344,37.9299983 91.8146656,37.9416648 92.02,37.9649983 C92.2253344,37.9883317 92.4166658,38.0163315 92.594,38.0489983 C92.7713342,38.0816651 92.927666,38.1166648 93.063,38.1539983 C93.198334,38.1913318 93.303333,38.2239982 93.378,38.2519983 L93.14,39.3719983 C92.9999993,39.2973313 92.7806682,39.220332 92.482,39.1409983 C92.1833318,39.0616646 91.8240021,39.0219983 91.404,39.0219983 C91.0399982,39.0219983 90.722668,39.0943309 90.452,39.2389983 C90.181332,39.3836657 90.046,39.6099968 90.046,39.9179983 C90.046,40.0766658 90.076333,40.2166644 90.137,40.3379983 C90.197667,40.4593322 90.2909994,40.5689978 90.417,40.6669983 C90.5430006,40.7649988 90.6993324,40.8559979 90.886,40.9399983 C91.0726676,41.0239987 91.2966654,41.1126645 91.558,41.2059983 C91.9033351,41.3366656 92.211332,41.4649977 92.482,41.5909983 C92.752668,41.7169989 92.9836657,41.8639975 93.175,42.0319983 C93.3663343,42.1999991 93.5133328,42.4029971 93.616,42.6409983 C93.7186672,42.8789995 93.77,43.1706632 93.77,43.5159983 C93.77,44.1880017 93.5203358,44.6966632 93.021,45.0419983 C92.5216642,45.3873334 91.8100046,45.5599983 90.886,45.5599983 C90.2419968,45.5599983 89.7380018,45.5063322 89.374,45.3989983 C89.0099982,45.2916644 88.7626673,45.2099986 88.632,45.1539983 L88.87,44.0339983 C89.0193341,44.0899986 89.2573317,44.1739977 89.584,44.2859983 C89.9106683,44.3979989 90.344664,44.4539983 90.886,44.4539983 Z M96.738,45.3919983 L95.436,45.3919983 L95.436,38.1119983 L96.738,38.1119983 L96.738,45.3919983 Z M96.08,36.7959983 C95.8466655,36.7959983 95.6483342,36.7189991 95.485,36.5649983 C95.3216659,36.4109975 95.24,36.2033329 95.24,35.9419983 C95.24,35.6806637 95.3216659,35.4729991 95.485,35.3189983 C95.6483342,35.1649975 95.8466655,35.0879983 96.08,35.0879983 C96.3133345,35.0879983 96.5116658,35.1649975 96.675,35.3189983 C96.8383342,35.4729991 96.92,35.6806637 96.92,35.9419983 C96.92,36.2033329 96.8383342,36.4109975 96.675,36.5649983 C96.5116658,36.7189991 96.3133345,36.7959983 96.08,36.7959983 Z M103.542,44.6639983 C103.429999,44.7386653 103.213002,44.834331 102.891,44.9509983 C102.568998,45.0676655 102.193335,45.1259983 101.764,45.1259983 C101.325331,45.1259983 100.912335,45.055999 100.525,44.9159983 C100.137665,44.7759976 99.7993348,44.5589998 99.51,44.2649983 C99.2206652,43.9709968 98.9920008,43.6046672 98.824,43.1659983 C98.6559992,42.7273294 98.572,42.204668 98.572,41.5979983 C98.572,41.0659956 98.6513325,40.5783338 98.81,40.1349983 C98.9686675,39.6916627 99.1996652,39.3089999 99.503,38.9869983 C99.8063349,38.6649967 100.177331,38.4129992 100.616,38.2309983 C101.054669,38.0489974 101.549331,37.9579983 102.1,37.9579983 C102.70667,37.9579983 103.236331,38.0023312 103.689,38.0909983 C104.141669,38.1796654 104.521998,38.2613313 104.83,38.3359983 L104.83,44.8319983 C104.83,45.9520039 104.54067,46.7639958 103.962,47.2679983 C103.38333,47.7720008 102.506006,48.0239983 101.33,48.0239983 C100.872664,48.0239983 100.441002,47.9866653 100.035,47.9119983 C99.628998,47.8373313 99.2766682,47.7486655 98.978,47.6459983 L99.216,46.5119983 C99.4773346,46.6146655 99.7969981,46.7056646 100.175,46.7849983 C100.553002,46.864332 100.947331,46.9039983 101.358,46.9039983 C102.132671,46.9039983 102.690332,46.7499998 103.031,46.4419983 C103.371668,46.1339968 103.542,45.6440017 103.542,44.9719983 L103.542,44.6639983 Z M103.528,39.2599983 C103.397333,39.2226648 103.222334,39.1876651 103.003,39.1549983 C102.783666,39.1223315 102.487335,39.1059983 102.114,39.1059983 C101.413996,39.1059983 100.875002,39.3346627 100.497,39.7919983 C100.118998,40.2493339 99.93,40.8559945 99.93,41.6119983 C99.93,42.0320004 99.9836661,42.3913301 100.091,42.6899983 C100.198334,42.9886665 100.342999,43.2359973 100.525,43.4319983 C100.707001,43.6279993 100.916999,43.7726645 101.155,43.8659983 C101.393001,43.9593321 101.637999,44.0059983 101.89,44.0059983 C102.235335,44.0059983 102.552665,43.9569988 102.842,43.8589983 C103.131335,43.7609978 103.359999,43.6466656 103.528,43.5159983 L103.528,39.2599983 Z M107.07,38.3219983 C107.368668,38.2473313 107.765331,38.1679987 108.26,38.0839983 C108.754669,37.9999979 109.323997,37.9579983 109.968,37.9579983 C110.54667,37.9579983 111.027331,38.0396641 111.41,38.2029983 C111.792669,38.3663324 112.098332,38.5949968 112.327,38.8889983 C112.555668,39.1829998 112.716666,39.5353296 112.81,39.9459983 C112.903334,40.356667 112.95,40.8093292 112.95,41.3039983 L112.95,45.3919983 L111.648,45.3919983 L111.648,41.5839983 C111.648,41.1359961 111.617667,40.7533332 111.557,40.4359983 C111.496333,40.1186634 111.396001,39.8619993 111.256,39.6659983 C111.115999,39.4699973 110.929335,39.3276654 110.696,39.2389983 C110.462666,39.1503312 110.173335,39.1059983 109.828,39.1059983 C109.687999,39.1059983 109.543334,39.1106649 109.394,39.1199983 C109.244666,39.1293317 109.102334,39.1409982 108.967,39.1549983 C108.831666,39.1689984 108.710334,39.1853315 108.603,39.2039983 C108.495666,39.2226651 108.418667,39.2366649 108.372,39.2459983 L108.372,45.3919983 L107.07,45.3919983 L107.07,38.3219983 Z"/>
  </g>
</svg>
