<svg xmlns="http://www.w3.org/2000/svg" width="160" height="80" viewBox="0 0 160 80">
  <g fill="none" fill-rule="evenodd" transform="translate(0 8)">
    <ellipse cx="31.5" cy="31.721" fill="#4E4B49" rx="31.5" ry="31.683"/>
    <path fill="#FFFFFF" d="M24.71112 42.1340154C23.2394326 42.1340154 21.9693653 41.9273775 20.90088 41.5140954 19.8323947 41.1008133 18.9504035 40.5262591 18.25488 39.7904154 17.5593565 39.0545717 17.0452817 38.1776205 16.71264 37.1595354 16.3799983 36.1414503 16.21368 35.0175415 16.21368 33.7877754L16.21368 20.7543354 20.93112 20.7543354 20.93112 33.3946554C20.93112 34.2413796 21.026879 34.9620924 21.2184 35.5568154 21.409921 36.1515384 21.6719983 36.6353735 22.00464 37.0083354 22.3372817 37.3812973 22.7404776 37.6484146 23.21424 37.8096954 23.6880024 37.9709762 24.2071172 38.0516154 24.7716 38.0516154 25.9207257 38.0516154 26.8531164 37.6988189 27.5688 36.9932154 28.2844836 36.2876119 28.64232 35.0881039 28.64232 33.3946554L28.64232 20.7543354 33.35976 20.7543354 33.35976 33.7877754C33.35976 35.0175415 33.1884017 36.1464903 32.84568 37.1746554 32.5029583 38.2028205 31.9788035 39.0848117 31.2732 39.8206554 30.5675965 40.5564991 29.6704854 41.1260134 28.58184 41.5292154 27.4931946 41.9324174 26.2029675 42.1340154 24.71112 42.1340154zM37.44216 21.8429754L41.94792 21.1172154 41.94792 25.8044154 47.36088 25.8044154 47.36088 29.5541754 41.94792 29.5541754 41.94792 35.1485754C41.94792 36.0961001 42.1142383 36.8520926 42.44688 37.4165754 42.7795217 37.9810582 43.449835 38.2632954 44.45784 38.2632954 44.9416824 38.2632954 45.4406374 38.2179359 45.95472 38.1272154 46.4688026 38.0364949 46.9375179 37.9104962 47.36088 37.7492154L47.99592 41.2570554C47.4515973 41.4788165 46.8468033 41.6703346 46.18152 41.8316154 45.5162367 41.9928962 44.6997648 42.0735354 43.73208 42.0735354 42.5023139 42.0735354 41.484244 41.9072171 40.67784 41.5745754 39.871436 41.2419337 39.2263224 40.7782584 38.74248 40.1835354 38.2586376 39.5888124 37.920961 38.8680996 37.72944 38.0213754 37.537919 37.1746512 37.44216 36.2372205 37.44216 35.2090554L37.44216 21.8429754zM78.916 24.79C78.6173318 24.864667 78.2230024 24.9439996 77.733 25.028 77.2429975 25.1120004 76.6760032 25.154 76.032 25.154 75.4719972 25.154 75.0006686 25.0723342 74.618 24.909 74.2353314 24.7456659 73.9273345 24.5146682 73.694 24.216 73.4606655 23.9173318 73.2926672 23.565002 73.19 23.159 73.0873328 22.752998 73.036 22.3026691 73.036 21.808L73.036 17.72 74.338 17.72 74.338 21.528C74.338 22.4146711 74.4779986 23.0493314 74.758 23.432 75.0380014 23.8146686 75.50933 24.006 76.172 24.006 76.3120007 24.006 76.4566659 24.0013334 76.606 23.992 76.7553341 23.9826666 76.8953327 23.9710001 77.026 23.957 77.1566673 23.9429999 77.2756661 23.9290001 77.383 23.915 77.4903339 23.9009999 77.5673331 23.8846668 77.614 23.866L77.614 17.72 78.916 17.72 78.916 24.79zM82.85 24.062C83.3820027 24.062 83.776332 23.9920007 84.033 23.852 84.2896679 23.7119993 84.418 23.4880015 84.418 23.18 84.418 22.8626651 84.2920013 22.6106676 84.04 22.424 83.7879987 22.2373324 83.3726696 22.0273345 82.794 21.794 82.5139986 21.6819994 82.2456679 21.5676673 81.989 21.451 81.732332 21.3343328 81.5106676 21.1966675 81.324 21.038 81.1373324 20.8793325 80.9880006 20.6880011 80.876 20.464 80.7639994 20.2399989 80.708 19.9646683 80.708 19.638 80.708 18.9939968 80.9459976 18.4830019 81.422 18.105 81.8980024 17.7269981 82.5466626 17.538 83.368 17.538 83.5733344 17.538 83.7786656 17.5496666 83.984 17.573 84.1893344 17.5963335 84.3806658 17.6243332 84.558 17.657 84.7353342 17.6896668 84.891666 17.7246665 85.027 17.762 85.162334 17.7993335 85.267333 17.8319999 85.342 17.86L85.104 18.98C84.9639993 18.905333 84.7446682 18.8283337 84.446 18.749 84.1473318 18.6696663 83.7880021 18.63 83.368 18.63 83.0039982 18.63 82.686668 18.7023326 82.416 18.847 82.145332 18.9916674 82.01 19.2179985 82.01 19.526 82.01 19.6846675 82.040333 19.8246661 82.101 19.946 82.161667 20.0673339 82.2549994 20.1769995 82.381 20.275 82.5070006 20.3730005 82.6633324 20.4639996 82.85 20.548 83.0366676 20.6320004 83.2606654 20.7206662 83.522 20.814 83.8673351 20.9446673 84.175332 21.0729994 84.446 21.199 84.716668 21.3250006 84.9476657 21.4719992 85.139 21.64 85.3303343 21.8080008 85.4773328 22.0109988 85.58 22.249 85.6826672 22.4870012 85.734 22.7786649 85.734 23.124 85.734 23.7960034 85.4843358 24.3046649 84.985 24.65 84.4856642 24.9953351 83.7740046 25.168 82.85 25.168 82.2059968 25.168 81.7020018 25.1143339 81.338 25.007 80.9739982 24.8996661 80.7266673 24.8180003 80.596 24.762L80.834 23.642C80.9833341 23.6980003 81.2213317 23.7819994 81.548 23.894 81.8746683 24.0060006 82.308664 24.062 82.85 24.062zM86.994 21.374C86.994 20.7299968 87.0873324 20.1676691 87.274 19.687 87.4606676 19.2063309 87.7079985 18.8073349 88.016 18.49 88.3240015 18.1726651 88.6786647 17.9346675 89.08 17.776 89.4813353 17.6173325 89.8919979 17.538 90.312 17.538 91.2920049 17.538 92.0433307 17.8436636 92.566 18.455 93.0886693 19.0663364 93.35 19.9973271 93.35 21.248L93.35 21.465C93.35 21.5536671 93.3453334 21.635333 93.336 21.71L88.352 21.71C88.4080003 22.4660038 88.6273314 23.039998 89.01 23.432 89.3926686 23.824002 89.9899959 24.02 90.802 24.02 91.2593356 24.02 91.6443318 23.9803337 91.957 23.901 92.2696682 23.8216663 92.5053325 23.744667 92.664 23.67L92.846 24.762C92.6873325 24.8460004 92.4096687 24.9346662 92.013 25.028 91.6163313 25.1213338 91.1660025 25.168 90.662 25.168 90.0273302 25.168 89.4790023 25.0723343 89.017 24.881 88.5549977 24.6896657 88.1746682 24.4260017 87.876 24.09 87.5773318 23.7539983 87.3556674 23.3550023 87.211 22.893 87.0663326 22.4309977 86.994 21.9246694 86.994 21.374zM91.992 20.66C92.0013334 20.0719971 91.8543349 19.5890019 91.551 19.211 91.2476652 18.8329981 90.8300027 18.644 90.298 18.644 89.9993318 18.644 89.7356678 18.7023328 89.507 18.819 89.2783322 18.9356673 89.0846675 19.0873324 88.926 19.274 88.7673325 19.4606676 88.6436671 19.6753321 88.555 19.918 88.4663329 20.1606679 88.4080001 20.4079987 88.38 20.66L91.992 20.66zM97.914 17.566C98.0260006 17.566 98.1543326 17.5729999 98.299 17.587 98.4436674 17.6010001 98.5859993 17.6196666 98.726 17.643 98.8660007 17.6663335 98.9943327 17.6896666 99.111 17.713 99.2276672 17.7363335 99.3139997 17.7573332 99.37 17.776L99.146 18.91C99.0433328 18.8726665 98.8730012 18.8283336 98.635 18.777 98.3969988 18.7256664 98.0913352 18.7 97.718 18.7 97.4753321 18.7 97.2350012 18.7256664 96.997 18.777 96.7589988 18.8283336 96.602667 18.8633332 96.528 18.882L96.528 25 95.226 25 95.226 18.028C95.5340015 17.9159994 95.9166644 17.8110005 96.374 17.713 96.8313356 17.6149995 97.3446638 17.566 97.914 17.566zM74.338 38.1119983L77.096 38.1119983 77.096 39.2039983 74.338 39.2039983 74.338 42.5639983C74.338 42.9280001 74.3659997 43.2289971 74.422 43.4669983 74.4780003 43.7049995 74.5619994 43.8916643 74.674 44.0269983 74.7860006 44.1623323 74.9259992 44.257998 75.094 44.3139983 75.2620008 44.3699986 75.4579989 44.3979983 75.682 44.3979983 76.074002 44.3979983 76.3889988 44.3536654 76.627 44.2649983 76.8650012 44.1763312 77.0306662 44.1133318 77.124 44.0759983L77.376 45.1539983C77.2453327 45.219332 77.0166683 45.3009978 76.69 45.3989983 76.3633317 45.4969988 75.9900021 45.5459983 75.57 45.5459983 75.0753309 45.5459983 74.6670016 45.4829989 74.345 45.3569983 74.0229984 45.2309977 73.764001 45.0419996 73.568 44.7899983 73.371999 44.537997 73.2343337 44.2276668 73.155 43.8589983 73.0756663 43.4903298 73.036 43.0633341 73.036 42.5779983L73.036 36.0819983 74.338 35.8579983 74.338 38.1119983zM78.342 41.7659983C78.342 41.1219951 78.4353324 40.5596674 78.622 40.0789983 78.8086676 39.5983292 79.0559985 39.1993332 79.364 38.8819983 79.6720015 38.5646634 80.0266647 38.3266658 80.428 38.1679983 80.8293353 38.0093308 81.2399979 37.9299983 81.66 37.9299983 82.6400049 37.9299983 83.3913307 38.2356619 83.914 38.8469983 84.4366693 39.4583347 84.698 40.3893254 84.698 41.6399983L84.698 41.8569983C84.698 41.9456654 84.6933334 42.0273313 84.684 42.1019983L79.7 42.1019983C79.7560003 42.8580021 79.9753314 43.4319963 80.358 43.8239983 80.7406686 44.2160003 81.3379959 44.4119983 82.15 44.4119983 82.6073356 44.4119983 82.9923318 44.372332 83.305 44.2929983 83.6176682 44.2136646 83.8533325 44.1366653 84.012 44.0619983L84.194 45.1539983C84.0353325 45.2379987 83.7576686 45.3266645 83.361 45.4199983 82.9643313 45.5133321 82.5140025 45.5599983 82.01 45.5599983 81.3753302 45.5599983 80.8270023 45.4643326 80.365 45.2729983 79.9029977 45.081664 79.5226682 44.818 79.224 44.4819983 78.9253318 44.1459966 78.7036674 43.7470006 78.559 43.2849983 78.4143326 42.822996 78.342 42.3166677 78.342 41.7659983zM83.34 41.0519983C83.3493334 40.4639954 83.2023348 39.9810002 82.899 39.6029983 82.5956652 39.2249964 82.1780027 39.0359983 81.646 39.0359983 81.3473318 39.0359983 81.0836678 39.094331 80.855 39.2109983 80.6263322 39.3276655 80.4326675 39.4793307 80.274 39.6659983 80.1153325 39.8526659 79.9916671 40.0673304 79.903 40.3099983 79.8143329 40.5526662 79.7560001 40.799997 79.728 41.0519983L83.34 41.0519983zM88.268 44.4539983C88.8000027 44.4539983 89.194332 44.383999 89.451 44.2439983 89.707668 44.1039976 89.836 43.8799998 89.836 43.5719983 89.836 43.2546634 89.7100013 43.0026659 89.458 42.8159983 89.2059987 42.6293307 88.7906696 42.4193328 88.212 42.1859983 87.9319986 42.0739977 87.663668 41.9596655 87.407 41.8429983 87.1503321 41.726331 86.9286676 41.5886658 86.742 41.4299983 86.5553324 41.2713308 86.4060006 41.0799994 86.294 40.8559983 86.1819994 40.6319972 86.126 40.3566666 86.126 40.0299983 86.126 39.3859951 86.3639976 38.8750002 86.84 38.4969983 87.3160024 38.1189964 87.9646626 37.9299983 88.786 37.9299983 88.9913344 37.9299983 89.1966656 37.9416648 89.402 37.9649983 89.6073344 37.9883317 89.7986658 38.0163315 89.976 38.0489983 90.1533342 38.0816651 90.309666 38.1166648 90.445 38.1539983 90.580334 38.1913318 90.685333 38.2239982 90.76 38.2519983L90.522 39.3719983C90.3819993 39.2973313 90.1626682 39.220332 89.864 39.1409983 89.5653318 39.0616646 89.2060021 39.0219983 88.786 39.0219983 88.4219982 39.0219983 88.104668 39.0943309 87.834 39.2389983 87.563332 39.3836657 87.428 39.6099968 87.428 39.9179983 87.428 40.0766658 87.458333 40.2166644 87.519 40.3379983 87.579667 40.4593322 87.6729994 40.5689978 87.799 40.6669983 87.9250006 40.7649988 88.0813324 40.8559979 88.268 40.9399983 88.4546676 41.0239987 88.6786654 41.1126645 88.94 41.2059983 89.2853351 41.3366656 89.593332 41.4649977 89.864 41.5909983 90.134668 41.7169989 90.3656657 41.8639975 90.557 42.0319983 90.7483343 42.1999991 90.8953328 42.4029971 90.998 42.6409983 91.1006672 42.8789995 91.152 43.1706632 91.152 43.5159983 91.152 44.1880017 90.9023358 44.6966632 90.403 45.0419983 89.9036642 45.3873334 89.1920046 45.5599983 88.268 45.5599983 87.6239968 45.5599983 87.1200018 45.5063322 86.756 45.3989983 86.3919982 45.2916644 86.1446673 45.2099986 86.014 45.1539983L86.252 44.0339983C86.4013341 44.0899986 86.6393317 44.1739977 86.966 44.2859983 87.2926683 44.3979989 87.726664 44.4539983 88.268 44.4539983zM94.036 38.1119983L96.794 38.1119983 96.794 39.2039983 94.036 39.2039983 94.036 42.5639983C94.036 42.9280001 94.0639997 43.2289971 94.12 43.4669983 94.1760003 43.7049995 94.2599994 43.8916643 94.372 44.0269983 94.4840006 44.1623323 94.6239992 44.257998 94.792 44.3139983 94.9600008 44.3699986 95.1559989 44.3979983 95.38 44.3979983 95.772002 44.3979983 96.0869988 44.3536654 96.325 44.2649983 96.5630012 44.1763312 96.7286662 44.1133318 96.822 44.0759983L97.074 45.1539983C96.9433327 45.219332 96.7146683 45.3009978 96.388 45.3989983 96.0613317 45.4969988 95.6880021 45.5459983 95.268 45.5459983 94.7733309 45.5459983 94.3650016 45.4829989 94.043 45.3569983 93.7209984 45.2309977 93.462001 45.0419996 93.266 44.7899983 93.069999 44.537997 92.9323337 44.2276668 92.853 43.8589983 92.7736663 43.4903298 92.734 43.0633341 92.734 42.5779983L92.734 36.0819983 94.036 35.8579983 94.036 38.1119983zM99.748 45.3919983L98.446 45.3919983 98.446 38.1119983 99.748 38.1119983 99.748 45.3919983zM99.09 36.7959983C98.8566655 36.7959983 98.6583342 36.7189991 98.495 36.5649983 98.3316659 36.4109975 98.25 36.2033329 98.25 35.9419983 98.25 35.6806637 98.3316659 35.4729991 98.495 35.3189983 98.6583342 35.1649975 98.8566655 35.0879983 99.09 35.0879983 99.3233345 35.0879983 99.5216659 35.1649975 99.685 35.3189983 99.8483341 35.4729991 99.93 35.6806637 99.93 35.9419983 99.93 36.2033329 99.8483341 36.4109975 99.685 36.5649983 99.5216659 36.7189991 99.3233345 36.7959983 99.09 36.7959983zM101.988 38.3219983C102.286668 38.2473313 102.683331 38.1679987 103.178 38.0839983 103.672669 37.9999979 104.241997 37.9579983 104.886 37.9579983 105.46467 37.9579983 105.945331 38.0396641 106.328 38.2029983 106.710669 38.3663324 107.016332 38.5949968 107.245 38.8889983 107.473668 39.1829998 107.634666 39.5353296 107.728 39.9459983 107.821334 40.356667 107.868 40.8093292 107.868 41.3039983L107.868 45.3919983 106.566 45.3919983 106.566 41.5839983C106.566 41.1359961 106.535667 40.7533332 106.475 40.4359983 106.414333 40.1186634 106.314001 39.8619993 106.174 39.6659983 106.033999 39.4699973 105.847335 39.3276654 105.614 39.2389983 105.380666 39.1503312 105.091335 39.1059983 104.746 39.1059983 104.605999 39.1059983 104.461334 39.1106649 104.312 39.1199983 104.162666 39.1293317 104.020334 39.1409982 103.885 39.1549983 103.749666 39.1689984 103.628334 39.1853315 103.521 39.2039983 103.413666 39.2226651 103.336667 39.2366649 103.29 39.2459983L103.29 45.3919983 101.988 45.3919983 101.988 38.3219983zM114.588 44.6639983C114.475999 44.7386653 114.259002 44.834331 113.937 44.9509983 113.614998 45.0676655 113.239335 45.1259983 112.81 45.1259983 112.371331 45.1259983 111.958335 45.055999 111.571 44.9159983 111.183665 44.7759976 110.845335 44.5589998 110.556 44.2649983 110.266665 43.9709968 110.038001 43.6046672 109.87 43.1659983 109.701999 42.7273294 109.618 42.204668 109.618 41.5979983 109.618 41.0659956 109.697333 40.5783338 109.856 40.1349983 110.014667 39.6916627 110.245665 39.3089999 110.549 38.9869983 110.852335 38.6649967 111.223331 38.4129992 111.662 38.2309983 112.100669 38.0489974 112.595331 37.9579983 113.146 37.9579983 113.75267 37.9579983 114.282331 38.0023312 114.735 38.0909983 115.187669 38.1796654 115.567998 38.2613313 115.876 38.3359983L115.876 44.8319983C115.876 45.9520039 115.58667 46.7639958 115.008 47.2679983 114.42933 47.7720008 113.552006 48.0239983 112.376 48.0239983 111.918664 48.0239983 111.487002 47.9866653 111.081 47.9119983 110.674998 47.8373313 110.322668 47.7486655 110.024 47.6459983L110.262 46.5119983C110.523335 46.6146655 110.842998 46.7056646 111.221 46.7849983 111.599002 46.864332 111.993331 46.9039983 112.404 46.9039983 113.178671 46.9039983 113.736332 46.7499998 114.077 46.4419983 114.417668 46.1339968 114.588 45.6440017 114.588 44.9719983L114.588 44.6639983zM114.574 39.2599983C114.443333 39.2226648 114.268334 39.1876651 114.049 39.1549983 113.829666 39.1223315 113.533335 39.1059983 113.16 39.1059983 112.459997 39.1059983 111.921002 39.3346627 111.543 39.7919983 111.164998 40.2493339 110.976 40.8559945 110.976 41.6119983 110.976 42.0320004 111.029666 42.3913301 111.137 42.6899983 111.244334 42.9886665 111.388999 43.2359973 111.571 43.4319983 111.753001 43.6279993 111.962999 43.7726645 112.201 43.8659983 112.439001 43.9593321 112.683999 44.0059983 112.936 44.0059983 113.281335 44.0059983 113.598665 43.9569988 113.888 43.8589983 114.177335 43.7609978 114.405999 43.6466656 114.574 43.5159983L114.574 39.2599983z"/>
  </g>
</svg>
