<svg xmlns="http://www.w3.org/2000/svg" width="96" height="172" viewBox="0 0 96 172">
  <g fill="none" fill-rule="evenodd">
    <g transform="translate(.25 .829)">
      <path fill="#171615" d="M80.8598816 34.0991461C74.6866568 30.3471287 73.2529281 22.1121716 72.9738649 17.1427094L72.9738649 13.0999929C72.9738649 4.11463236 71.494092 1.84343479 62.9695622.745153781 62.0937056.553631384 61.1860505.449900628 60.254483.449900628 55.9805163.0544587435 50.5411998-.0320678876 45.5.00942441501 40.4588002-.0320678876 35.0194837.0544587435 30.745517.449900628 29.8139495.449900628 28.9062944.553631384 28.0304378.745153781 19.505908 1.84343479 18.0261351 4.11463236 18.0261351 13.0999929L18.0261351 17.1427094C17.7470719 22.1121716 16.3133432 30.3471287 10.1401184 34.0991461.982163431 39.6651867 23.749857 37.6411719 30.745517 37.6411719L60.254483 37.6411719C67.250143 37.6411719 90.0178366 39.6651867 80.8598816 34.0991461M80.8598816 136.900853C74.6866568 140.653121 73.2529281 148.887823 72.9738649 153.857283L72.9738649 157.899998C72.9738649 166.885355 71.494092 169.156552 62.9695622 170.255086 62.0937056 170.446355 61.1860505 170.550086 60.254483 170.550086 55.9805163 170.94578 50.5411998 171.032054 45.5 170.990562 40.4588002 171.032054 35.0194837 170.94578 30.745517 170.550086 29.8139495 170.550086 28.9062944 170.446355 28.0304378 170.255086 19.505908 169.156552 18.0261351 166.885355 18.0261351 157.899998L18.0261351 153.857283C17.7470719 148.887823 16.3133432 140.653121 10.1401184 136.900853.982163431 131.334814 23.749857 133.358828 30.745517 133.358828L60.254483 133.358828C67.250143 133.358828 90.0178366 131.334814 80.8598816 136.900853"/>
      <path fill="#9B9B9B" d="M91.697861,56.4735577 C91.0437834,56.4735577 90.4341578,56.6671514 89.9197861,56.9965385 L89.9197861,48.1442308 C89.9197861,39.8149038 83.0614973,33 74.6791444,33 L15.2406417,33 C6.85828877,33 0,39.8149038 0,48.1442308 L0,122.855769 C0,131.185096 6.85828877,138 15.2406417,138 L74.6791444,138 C83.0614973,138 89.9197861,131.185096 89.9197861,122.855769 L89.9197861,115.536058 L91.1898396,115.536058 L91.1898396,87.5192308 L89.9197861,87.5192308 L89.9197861,74.1234014 C90.4341578,74.4527885 91.0437834,74.6466346 91.697861,74.6466346 C93.5140374,74.6466346 95,73.1700721 95,71.3653846 L95,59.7548077 C95,57.9501202 93.5140374,56.4735577 91.697861,56.4735577"/>
      <path fill="#FFFFFF" stroke="#9B9B9B" stroke-width="4" d="M16.7300613,134 C9.72852761,134 4,128.287565 4,121.305699 L4,48.6943005 C4,41.7124352 9.72852761,36 16.7300613,36 L74.2699387,36 C81.2714724,36 87,41.7124352 87,48.6943005 L87,121.305699 C87,128.287565 81.2714724,134 74.2699387,134 L16.7300613,134 Z"/>
    </g>
    <path fill="#2591BF" d="M61.252,93.8358163 C61.247,93.8358163 61.242,93.8338163 61.236,93.8338163 L61.236,93.8358163 L34.236,93.8358163 L34.236,93.8348163 C30.382,93.8258163 27.259,90.6958163 27.259,86.8358163 C27.259,82.9698163 30.39,79.8358163 34.252,79.8358163 C34.304,79.8358163 34.354,79.8428163 34.405,79.8438163 C34.321,79.5158163 34.262,79.1778163 34.262,78.8218163 C34.262,76.6148163 35.994,74.8258163 38.13,74.8258163 C40.194,74.8258163 42.107,76.6698163 42.235,78.7858163 L42.251,78.7858163 C42.38,73.9138163 46.564,69.8218163 51.389,69.8218163 C56.29,69.8218163 60.263,73.8548163 60.263,78.8268163 C60.263,79.9728163 60.044,81.0638163 59.66,82.0708163 C60.17,81.9298163 60.697,81.8288163 61.252,81.8288163 C64.56,81.8288163 67.241,84.5168163 67.241,87.8318163 C67.241,91.1478163 64.56,93.8358163 61.252,93.8358163 M62.188,79.8958163 C62.221,79.5438163 62.241,79.1878163 62.241,78.8268163 C62.241,72.7528163 57.316,67.8288163 51.241,67.8288163 C46.986,67.8288163 43.303,70.2488163 41.474,73.7818163 C40.542,73.1888163 39.443,72.8328163 38.257,72.8328163 C35.211,72.8328163 32.722,75.1108163 32.334,78.0528163 C28.284,78.9328163 25.25,82.5278163 25.25,86.8368163 C25.25,91.7978163 29.273,95.8198163 34.236,95.8278163 L34.236,95.8288163 L61.236,95.8288163 L61.236,95.8278163 C61.242,95.8278163 61.247,95.8288163 61.252,95.8288163 C65.669,95.8288163 69.25,92.2488163 69.25,87.8328163 C69.25,83.7328163 66.163,80.3588163 62.188,79.8958163"/>
  </g>
</svg>
