<svg xmlns="http://www.w3.org/2000/svg" width="58" height="6" viewBox="0 0 58 6">
  <path fill="#2591BF" fill-rule="evenodd" d="M4,5 C2.8954305,5 2,4.1045695 2,3 C2,1.8954305 2.8954305,1 4,1 C5.1045695,1 6,1.8954305 6,3 C6,4.1045695 5.1045695,5 4,5 Z M14,5 C12.8954305,5 12,4.1045695 12,3 C12,1.8954305 12.8954305,1 14,1 C15.1045695,1 16,1.8954305 16,3 C16,4.1045695 15.1045695,5 14,5 Z M24,5 C22.8954305,5 22,4.1045695 22,3 C22,1.8954305 22.8954305,1 24,1 C25.1045695,1 26,1.8954305 26,3 C26,4.1045695 25.1045695,5 24,5 Z M34,5 C32.8954305,5 32,4.1045695 32,3 C32,1.8954305 32.8954305,1 34,1 C35.1045695,1 36,1.8954305 36,3 C36,4.1045695 35.1045695,5 34,5 Z M44,5 C42.8954305,5 42,4.1045695 42,3 C42,1.8954305 42.8954305,1 44,1 C45.1045695,1 46,1.8954305 46,3 C46,4.1045695 45.1045695,5 44,5 Z M54,5 C52.8954305,5 52,4.1045695 52,3 C52,1.8954305 52.8954305,1 54,1 C55.1045695,1 56,1.8954305 56,3 C56,4.1045695 55.1045695,5 54,5 Z"/>
</svg>
