<svg xmlns="http://www.w3.org/2000/svg" width="365" height="219" viewBox="0 0 365 219">
  <g fill="none" fill-rule="evenodd">
    <path fill="#D8D8D8" d="M98.4921875,218.996094 C74.1131859,216.96451 49.4921874,179.996095 15.999998,185.996095 C-10.7117438,190.781403 2.62499789,142.821148 15.9999979,140.996094 C22.6520785,140.088399 43.73584,139.844824 49.4921875,140.996094 C74.2666783,145.950992 60.0145551,138.517505 90.4921875,149.996094 C108.105226,156.629576 125.599504,163.697933 142.492188,171.996094 C144.828895,173.14395 146.616564,175.544347 147.492188,177.996094 C148.389085,180.507406 148.138949,183.409047 147.492188,185.996094 C145.114252,195.507837 120.781758,190.218433 119.492188,189.996094 C103.70694,187.274499 104.308414,173.54144 76.4921875,171.996094 C68.1115817,171.530505 76.5346637,171.171764 71.4921895,179.996094 C69.4978938,183.486111 74.5109104,185.306953 76.4921895,185.996094 C92.7623954,191.655296 85.4521743,191.805743 101.492188,198.996094 C112.236527,203.812522 114.763985,213.238828 103.492188,216.996094 L98.4921875,218.996094 Z" style="mix-blend-mode:multiply"/>
    <g transform="matrix(-1 0 0 1 167.75 0)">
      <path fill="#5B5E67" d="M61.4864865,50.8543689 C62.1891892,51.2038835 72.027027,56.2718447 71.8513514,56.7961165 C71.6756757,57.3203883 88.8918919,100.660194 88.8918919,100.660194 L79.7567568,97.1650485 L62.1891892,63.4368932 L61.4864865,50.8543689"/>
      <path fill="#868C96" d="M88.8918919,100.660194 L71.8513514,56.7961165 L74.1351351,56.9708738 L87.1351351,44.7378641 C87.1351351,44.7378641 104.351351,85.9805825 103.824324,86.8543689 C103.297297,87.7281553 88.8918919,100.660194 88.8918919,100.660194"/>
      <polyline fill="#868C96" points="71.851 56.796 69.568 46.66 41.811 31.631 40.405 29.709 43.216 40.194 61.486 50.854 71.851 56.796"/>
      <path fill="#323637" d="M47.6081081,180.174757 C47.6081081,180.174757 35.8828108,185.76699 34.2567568,186.291262 C32.6307027,186.815534 26.0147568,191.259262 22.6621622,190.135922 C19.3095676,189.012583 16.9140541,189.708117 15.8108108,188.038835 C14.7075676,186.369553 13.527027,181.572816 14.5810811,179.126214 C15.6351351,176.679612 18.3201622,174.144233 19.5,173.533981 C20.6805405,172.923728 23.8918919,172.660194 26,170.912621 C28.1081081,169.165049 30.2162162,164.970874 30.2162162,164.970874 L46.027027,164.796117 L48.4864865,166.019417 C48.4864865,166.019417 49.3648649,172.660194 49.3648649,175.805825 C49.3648649,178.951456 47.6081081,180.174757 47.6081081,180.174757"/>
      <path fill="#5B5E67" d="M21.0810811 174.582524C21.0810811 174.582524 20.9054054 175.281553 23.5405405 177.203883 26.1756757 179.126214 27.5810811 180.873786 27.5810811 180.873786 27.5810811 180.873786 26.7027027 184.543689 26 185.592233 25.2972973 186.640777 24.4189189 189.61165 23.0135135 188.912621 21.6081081 188.213592 17.9189189 189.961165 16.6891892 186.640777 15.4594595 183.320388 15.9864865 179.300971 15.9864865 179.300971 15.9864865 179.300971 18.4459459 174.407767 21.0810811 174.582524M22.8378378 173.708738C22.8378378 173.708738 28.2837838 179.650485 29.3378378 179.650485 30.3918919 179.650485 32.8513514 179.300971 34.2567568 177.902913 35.6621622 176.504854 38.472973 175.106796 38.2972973 173.708738 38.1216216 172.31068 36.8918919 170.38835 36.8918919 170.38835L30.3918919 166.194175C30.3918919 166.194175 31.2702703 167.067961 29.3378378 169.165049 27.4054054 171.262136 27.0540541 172.834951 22.8378378 173.708738"/>
      <path fill="#323637" d="M66.5810811,188.912621 C66.5810811,188.912621 67.2837838,192.932039 66.5810811,193.805825 C65.8783784,194.679612 60.9594595,199.572816 60.4324324,200.271845 C59.9054054,200.970874 56.9154054,205.40132 57.4459459,208.31068 C57.9764865,211.220039 57.0945946,212.679612 59.027027,213.902913 C60.9594595,215.126214 63.1863243,215.960155 64.472973,215.825243 C65.7596216,215.69033 67.2837838,214.951456 68.8648649,214.776699 C70.4459459,214.601942 77.1216216,210.058252 78.527027,208.834951 C79.9324324,207.61165 85.7297297,203.242718 86.9594595,200.970874 C88.1891892,198.699029 88.3648649,199.92233 88.5405405,195.203883 C88.7162162,190.485437 85.5442162,186.640777 85.7297297,185.941748 C85.9152432,185.242718 84.3243243,183.84466 84.3243243,183.84466 L66.5810811,188.912621"/>
      <path fill="#868C96" d="M64.472973,186.640777 C64.472973,186.640777 68.1621622,190.660194 70.972973,190.660194 C73.7837838,190.660194 76.0675676,191.184466 77.8243243,190.135922 C79.5810811,189.087379 83.6216216,186.116505 83.6216216,186.116505 C83.6216216,186.116505 86.2469189,183.145631 86.0810811,179.650485 C85.9152432,176.15534 77.2972973,156.407767 77.2972973,154.834951 C77.2972973,153.262136 79.5810811,143.825243 80.1081081,140.330097 C80.6351351,136.834951 81.1621622,128.446602 81.1621622,128.446602 C81.1621622,128.446602 84.8513514,117.786408 83.6216216,112.543689 C82.3918919,107.300971 81.1621622,103.106796 81.1621622,103.106796 C81.1621622,103.106796 76.9459459,80.7378641 76.5945946,79.8640777 C76.2432432,78.9902913 69.7432432,70.0776699 69.5675676,69.5533981 C69.3918919,69.0291262 62.5405405,61.8640777 62.5405405,61.8640777 L28.6351351,67.631068 C28.6351351,67.631068 26.6359459,70.8326214 27.2297297,73.9223301 C27.8235135,77.0120388 30.2162162,85.631068 30.2162162,85.631068 L31.7972973,102.23301 C31.7972973,102.23301 32.8513514,107.126214 33.5540541,108.873786 C34.2567568,110.621359 33.027027,111.145631 33.027027,111.145631 C33.027027,111.145631 25.472973,124.427184 25.2972973,126.349515 C25.1216216,128.271845 22.6277297,136.553243 22.8378378,138.757282 C23.0479459,140.960621 24.0675676,144.699029 24.4189189,146.097087 C24.7702703,147.495146 27.8024324,158.264388 28.1081081,160.951456 C28.4137838,163.638524 30.9189189,168.116505 32.1486486,168.640777 C33.3783784,169.165049 34.5069189,170.091961 37.5945946,170.38835 C40.6822703,170.684738 45.1486486,170.38835 47.4324324,168.116505 C49.7162162,165.84466 49.5405405,160.427184 50.0675676,157.805825 C50.5945946,155.184466 48.6621622,142.427184 48.4864865,139.631068 C48.3108108,136.834951 50.0675676,130.893204 50.0675676,130.893204 L51.1216216,130.368932 C51.1216216,130.368932 52.8783784,137.708738 52.7027027,142.07767 C52.527027,146.446602 50.9459459,157.106796 52.7027027,161.300971 C54.4594595,165.495146 57.6216216,168.291262 57.972973,171.262136 C58.3243243,174.23301 64.472973,186.640777 64.472973,186.640777"/>
      <path fill="#E85740" d="M64.472973 92.9708738C65.7027027 93.6699029 67.6351351 94.7184466 70.6216216 93.8446602 73.6081081 92.9708738 75.3648649 92.0970874 75.3648649 90.5242718 75.3648649 88.9514563 76.9459459 88.0776699 73.4324324 86.1553398 69.9189189 84.2330097 67.6351351 83.3592233 65.7027027 84.407767 63.7702703 85.4563107 62.5405405 88.0776699 62.7162162 89.1262136 62.8918919 90.1747573 64.472973 92.9708738 64.472973 92.9708738M72.5540541 135.786408C72.5540541 135.786408 64.5706486 133.547417 63.9459459 133.339806 63.3212432 133.132194 60.4324324 132.640777 60.4324324 132.640777 60.4324324 132.640777 65.1756757 135.786408 66.9324324 136.660194 68.6891892 137.533981 71.3243243 138.23301 71.3243243 138.23301L72.5540541 135.786408M1.22972973 100.135922L5.7972973 98.038835 9.31081081 95.7669903C9.31081081 95.7669903 8.95945946 94.8932039 7.90540541 94.8932039 6.85135135 94.8932039 1.93243243 96.1165049 1.93243243 96.1165049L1.22972973 100.135922M34.2567568 181.048544C34.2567568 181.048544 41.4952973 176.604117 41.9864865 176.15534 42.4776757 175.705864 45.6756757 173.359223 45.6756757 173.359223L48.4864865 172.660194C48.4864865 172.660194 49.1891892 175.631068 48.4864865 176.504854 47.7837838 177.378641 47.0810811 178.427184 45.1486486 179.475728 43.2162162 180.524272 38.8243243 182.446602 37.2432432 182.097087 35.6621622 181.747573 34.2567568 181.048544 34.2567568 181.048544M78.527027 202.194175C78.527027 202.194175 80.1081081 198.699029 80.2837838 197.126214 80.4594595 195.553398 82.2162162 192.582524 82.2162162 192.582524L85.7297297 188.912621C85.7297297 188.912621 86.5982703 189.61165 86.2567568 192.407767 85.9152432 195.203883 86.7837838 196.427184 84.8513514 198 82.9189189 199.572816 80.9864865 201.145631 80.1081081 202.019417 79.2297297 202.893204 78.527027 202.194175 78.527027 202.194175"/>
      <path fill="#5B5E67" d="M71.6756757 211.805825C71.8513514 211.106796 72.9054054 206.737864 71.3243243 205.864078 69.7432432 204.990291 61.3108108 200.097087 61.3108108 200.097087 61.3108108 200.097087 59.3783784 204.466019 58.8513514 206.038835 58.3243243 207.61165 57.4459459 211.106796 59.2027027 212.504854 60.9594595 213.902913 63.2432432 215.126214 65.1756757 214.427184 67.1081081 213.728155 71.6756757 211.805825 71.6756757 211.805825M62.5405405 199.048544L71.6756757 204.116505C71.6756757 204.116505 74.4864865 203.242718 75.3648649 202.019417 76.2432432 200.796117 78.1756757 200.796117 78.1756757 197.126214L78.1756757 191.359223C78.1756757 191.359223 76.9459459 192.058252 73.7837838 191.883495 70.6216216 191.708738 67.8108108 190.485437 67.8108108 190.485437 67.8108108 190.485437 68.5135135 192.582524 68.1621622 193.456311 67.8108108 194.330097 62.5405405 199.048544 62.5405405 199.048544"/>
      <path fill="#B8BEC6" d="M52.7027027 161.300971C52.7027027 161.300971 52.1756757 163.92233 54.6351351 163.92233 57.0945946 163.92233 59.9054054 163.92233 61.1351351 160.427184 62.3648649 156.932039 65.8783784 146.621359 65.8783784 146.621359 65.8783784 146.621359 63.9459459 127.572816 62.8918919 124.07767 61.8378378 120.582524 54.4995135 115.974524 53.0540541 115.864078 51.6085946 115.753631 49.0135135 114.116505 49.5405405 114.815534 50.0675676 115.514563 52 119.708738 51.2972973 121.106796 50.5945946 122.504854 48.3108108 123.203883 48.3108108 123.203883 48.3108108 123.203883 50.4189189 127.048544 51.1216216 129.669903 51.8243243 132.291262 53.2297297 134.563107 52.8783784 143.300971 52.527027 152.038835 52.7027027 161.300971 52.7027027 161.300971M29.3378378 164.097087C29.5135135 161.650485 27.2297297 150.990291 28.6351351 148.368932 30.0405405 145.747573 31.2702703 145.92233 29.8648649 143.126214 28.4594595 140.330097 27.7567568 139.106796 28.6351351 136.660194 29.5135135 134.213592 37.5945946 123.728155 37.5945946 119.009709 37.5945946 114.291262 38.6486486 109.747573 35.8378378 110.796117 33.027027 111.84466 30.9189189 115.339806 30.0405405 116.213592 29.1621622 117.087379 23.5405405 130.019417 23.0135135 134.912621 22.4864865 139.805825 22.1351351 141.728155 24.5945946 148.893204 27.0540541 156.058252 29.3378378 164.097087 29.3378378 164.097087M40.4054054 109.92233C39.9071892 112.898097 41.8108108 119.359223 42.3378378 120.058252 42.8648649 120.757282 46.5540541 122.854369 47.4324324 121.456311 48.3108108 120.058252 47.6081081 115.68932 47.4324324 114.990291 47.2567568 114.291262 46.2027027 111.145631 45.3243243 110.621359 44.4459459 110.097087 40.5810811 108.873786 40.4054054 109.92233"/>
      <path fill="#2C2E33" d="M56.9189189,137.009709 C56.9189189,137.883495 56.0405405,149.067961 56.0405405,149.941748 C56.0405405,150.815534 56.2162162,151.864078 57.2702703,152.213592 C58.3243243,152.563107 59.9054054,152.038835 59.9054054,152.038835 L62.0135135,152.563107 C62.0135135,152.563107 65.1756757,154.135922 66.2297297,153.262136 C67.2837838,152.38835 67.9864865,152.563107 68.3378378,151.514563 C68.6891892,150.466019 71.1486486,140.330097 70.4459459,140.504854 C69.7432432,140.679612 69.2162162,141.553398 64.8243243,139.805825 C60.4324324,138.058252 56.9189189,137.009709 56.9189189,137.009709"/>
      <path fill="#B8BEC6" d="M59.7297297,123.029126 C59.9054054,121.631068 62.3648649,114.815534 61.3108108,111.84466 C60.2567568,108.873786 56.2162162,106.07767 55.8648649,103.106796 C55.5135135,100.135922 53.9324324,96.4660194 54.2837838,92.0970874 C54.6351351,87.7281553 55.8648649,83.184466 56.9189189,81.961165 C57.972973,80.7378641 60.4324324,79.3398058 61.6621622,78.815534 C62.8918919,78.2912621 66.2297297,77.2427184 68.5135135,76.1941748 C70.7972973,75.1456311 72.7297297,73.223301 75.5405405,76.7184466 C78.3513514,80.2135922 78.9957297,90.384466 79.0540541,91.9223301 C79.1123784,93.4601942 79.8354595,106.416699 79.7567568,111.495146 C79.6780541,116.573592 76.8581081,123.396117 76.7702703,124.427184 C76.6824324,125.458252 75.1891892,127.92233 75.1891892,127.92233 C75.1891892,127.92233 74.5497297,129.300816 71.3243243,129.84466 C68.0989189,130.388505 59.2027027,126.699029 59.2027027,126.699029 L59.7297297,123.029126"/>
      <path fill="#ECF0F3" d="M69.7432432,126 C69.9189189,124.776699 75.8918919,114.640777 73.9594595,112.019417 C72.027027,109.398058 68.1621622,109.223301 67.8108108,107.475728 C67.4594595,105.728155 67.2837838,109.572816 69.0405405,102.582524 C70.7972973,95.592233 72.027027,96.9902913 70.7972973,91.9223301 C69.5675676,86.8543689 68.3378378,81.0873786 65.527027,80.2135922 C62.7162162,79.3398058 58.6756757,80.9126214 57.7972973,82.6601942 C56.9189189,84.407767 54.8108108,87.9029126 55.5135135,93.3203883 C56.2162162,98.7378641 57.4459459,104.15534 59.5540541,106.427184 C61.6621622,108.699029 63.4189189,108 62.8918919,112.893204 C62.3648649,117.786408 61.4864865,119.359223 61.1351351,122.330097 L60.7837838,125.300971 L67.6351351,127.223301 L69.7432432,126"/>
      <path fill="#5B5E67" d="M31.7972973,102.23301 L32.8513514,106.601942 L40.7567568,110.621359 C40.7567568,110.621359 52.7027027,116.563107 55.3378378,116.563107 C57.972973,116.563107 60.7837838,116.912621 60.7837838,116.912621 C60.7837838,116.912621 61.6621622,112.893204 61.1351351,112.893204 C60.6081081,112.893204 45.5,106.601942 43.9189189,106.427184 C42.3378378,106.252427 31.7972973,102.23301 31.7972973,102.23301"/>
      <path fill="#B8BEC6" d="M24.9459459,87.3786408 C24.9459459,87.3786408 21.2567568,87.7281553 21.0810811,89.3009709 C20.9054054,90.8737864 19.3390811,95.0295146 19.3243243,96.1165049 C19.3095676,97.2034951 16.5135135,90.5242718 15.2837838,90.1747573 C14.0540541,89.8252427 7.02702703,87.2038835 7.02702703,87.2038835 C7.02702703,87.2038835 11.4189189,79.8640777 14.5810811,76.8932039 C17.7432432,73.9223301 15.9864865,70.776699 18.6216216,67.4563107 C21.2567568,64.1359223 23.5405405,62.2135922 23.5405405,62.2135922 L28.4594595,61.3398058 L33.9054054,73.5728155 C33.9054054,73.5728155 33.4233514,86.1553398 33.027027,86.3300971 C32.6307027,86.5048544 24.9459459,87.3786408 24.9459459,87.3786408"/>
      <path fill="#B8BEC6" d="M17.7432432,94.5436893 C17.7432432,95.2427184 15.6351351,99.961165 15.6351351,99.961165 C15.6351351,99.961165 10.3648649,98.5631068 9.66216216,98.7378641 C8.95945946,98.9126214 10.8918919,105.378641 10.8918919,105.378641 L3.86486486,107.126214 C3.86486486,107.126214 -0.527027027,109.048544 0.702702703,102.582524 C1.93243243,96.1165049 2.92113514,90.9772427 3.68918919,89.8252427 C4.45724324,88.6732427 7.02702703,87.2038835 7.02702703,87.2038835 C7.02702703,87.2038835 13.1756757,87.2038835 14.4054054,88.4271845 C15.6351351,89.6504854 17.7432432,94.5436893 17.7432432,94.5436893"/>
      <path fill="#2C2E33" d="M3.52124324,105.74633 L8.6052973,111.445515 L10.9171892,114.961631 C10.9171892,114.961631 14.8474054,115.076272 15.4348649,114.841398 C16.023027,114.606524 19.3791351,116.542835 19.9827568,114.526136 C20.5856757,112.508738 20.4887027,107.846913 20.4887027,107.846913 L18.857027,105.36466 C18.857027,105.36466 21.4359459,105.901515 20.3481622,104.246913 C19.2603784,102.592311 16.5163243,101.129243 16.5163243,101.129243 L13.676,98.8175534 C13.0407568,98.3002718 12.227027,98.0514175 11.4097838,98.1227184 L4.82335135,98.6973204 L2.20508108,102.616078 L3.52124324,105.74633"/>
      <path fill="#B8BEC6" d="M64.1216216,63.6116505 C64.1216216,63.6116505 67.8108108,65.8834951 68.3378378,68.6796117 C68.8648649,71.4757282 67.1081081,74.7961165 65.7027027,75.1456311 C64.2972973,75.4951456 60.4324324,76.7184466 58.5,78.2912621 C56.5675676,79.8640777 52.572,82.0597282 52.8783784,84.0582524 C53.1847568,86.0560777 52.7027027,96.1165049 53.0540541,97.8640777 C53.4054054,99.6116505 53.9324324,103.631068 53.9324324,103.631068 C53.9324324,103.631068 46.027027,103.631068 47.7837838,102.407767 C49.5405405,101.184466 53.0688108,103.131961 52,98.7378641 C50.9311892,94.343767 48.8378378,90 47.9594595,89.1262136 C47.0810811,88.2524272 44.4459459,85.631068 43.0405405,84.0582524 C41.6351351,82.4854369 39.8783784,80.038835 39.8783784,80.038835 C39.8783784,80.038835 45.8513514,82.4854369 52.3513514,76.5436893 C58.8513514,70.6019417 61.3108108,65.7087379 61.3108108,65.7087379 L64.1216216,63.6116505"/>
      <path fill="#ECF0F3" d="M52.3513514,78.815534 C52.3513514,78.815534 59.3783784,75.3203883 60.9594595,70.776699 C62.5405405,66.2330097 65.1756757,63.961165 64.1216216,59.9417476 C63.0675676,55.9223301 61.2405405,49.631068 60.2567568,48.407767 C59.272973,47.184466 52.4265405,41.7669903 49.1891892,41.4174757 C45.9518378,41.0679612 45.7206486,39.5356893 39.1756757,41.592233 C32.6307027,43.6487767 28.6351351,48.407767 26.8783784,50.5048544 C25.1216216,52.6019417 24.2432432,55.7475728 24.2432432,56.7961165 C24.2432432,57.8446602 36.3648649,76.368932 36.3648649,76.368932 C36.3648649,76.368932 38.472973,81.2621359 39.3513514,81.4368932 C40.2297297,81.6116505 43.3918919,84.2330097 46.2027027,82.4854369 C49.0135135,80.7378641 52.3513514,78.815534 52.3513514,78.815534"/>
      <path fill="#B8BEC6" d="M37.2432432 54.1747573C40.3140541 54.5375534 46.3783784 54.8737864 48.3108108 52.2524272 50.2432432 49.631068 51.1216216 47.5339806 48.3108108 45.7864078 45.5 44.038835 41.2837838 42.1165049 38.2972973 44.2135922 35.3108108 46.3106796 31.6216216 48.9320388 32.6756757 50.6796117 33.7297297 52.4271845 37.2432432 54.1747573 37.2432432 54.1747573M87.1351351 44.7378641C86.6081081 42.1165049 82.2162162 34.2524272 82.2162162 34.2524272L69.5675676 46.6601942 71.8513514 56.7961165 74.1351351 56.9708738 87.1351351 44.7378641"/>
      <path fill="#ECF0F3" d="M40.2297297,28.8349515 C40.2297297,28.8349515 50.1975676,19.0988738 50.7702703,18.3495146 C51.342973,17.6001553 54.4594595,18.1747573 54.4594595,18.1747573 L80.4594595,33.2038835 L82.2162162,34.2524272 L69.5675676,46.6601942 L41.8108108,31.631068 L40.2297297,28.8349515"/>
      <path fill="#E85740" d="M100.662162 83.184466C99.2363784 79.3398058 66.4054054.174757282 66.4054054.174757282L64.1216216.873786408 98.2027027 85.631068 100.310811 84.9320388 100.662162 83.184466M17.9189189 69.0291262C17.9189189 69.0291262 18.4459459 70.6019417 20.3783784 69.2038835 22.3108108 67.8058252 22.4864865 67.8058252 23.0135135 65.3592233 23.5405405 62.9126214 22.3108108 62.3883495 22.3108108 62.3883495 22.3108108 62.3883495 19.3243243 63.2621359 18.4459459 65.0097087 17.5675676 66.7572816 17.9189189 69.0291262 17.9189189 69.0291262"/>
      <path fill="#B8BEC6" d="M55.5135135,135.436893 C56.0405405,132.466019 58.1486486,124.252427 58.1486486,124.252427 C58.1486486,124.252427 60.2567568,123.902913 61.6621622,124.951456 C63.0675676,126 69.2162162,127.572816 69.2162162,127.572816 C69.2162162,127.572816 76.0675676,127.223301 76.0675676,127.92233 C76.0675676,128.621359 73.9594595,136.834951 73.0810811,138.23301 C72.2027027,139.631068 70.4459459,140.504854 70.4459459,140.504854 C70.4459459,140.504854 68.8648649,140.854369 64.8243243,139.805825 C60.7837838,138.757282 56.9189189,137.009709 56.9189189,137.009709 L55.5135135,135.436893"/>
      <path fill="#ECF0F3" d="M59.2027027,126.699029 C59.2027027,126.699029 67.8108108,126.699029 67.8108108,129.145631 C67.8108108,131.592233 66.4054054,138.23301 66.4054054,138.23301 C66.4054054,138.23301 62.9972973,138.212738 61.1351351,136.834951 C59.272973,135.457165 57.0945946,134.912621 57.0945946,134.912621 L59.2027027,126.699029"/>
      <path fill="#E85740" d="M28.1081081 95.2427184L27.2297297 97.6893204C27.2297297 97.6893204 28.6351351 100.135922 29.8648649 101.359223 31.0945946 102.582524 39 107.650485 39 107.650485 39 107.650485 41.9864865 109.223301 42.8648649 109.398058 43.7432432 109.572816 51.472973 112.543689 52.1756757 113.242718 52.8783784 113.941748 58.6756757 114.640777 58.6756757 114.640777L61.1351351 114.640777 61.6621622 111.145631C61.6621622 111.145631 59.9054054 109.048544 59.027027 108.174757 58.1486486 107.300971 57.0945946 104.854369 56.3918919 104.854369 55.6891892 104.854369 52.1756757 104.330097 48.8378378 103.281553 45.5 102.23301 36.9368649 98.9126214 34.7837838 98.2135922 32.6307027 97.5145631 28.1081081 95.2427184 28.1081081 95.2427184M44.0945946 87.2038835C44.0945946 87.2038835 43.9189189 84.2330097 46.5540541 84.2330097 49.1891892 84.2330097 53.2297297 86.5048544 53.4054054 88.0776699 53.5810811 89.6504854 54.6351351 92.6213592 53.0540541 94.0194175 51.472973 95.4174757 49.8918919 95.4174757 48.8378378 94.5436893 47.7837838 93.6699029 44.0945946 87.2038835 44.0945946 87.2038835"/>
      <polyline fill="#B8BEC6" points="40.405 95.068 42.689 102.757 27.054 95.942 24.77 86.505 40.405 95.068"/>
      <path fill="#5B5E67" d="M45.8513514,90 C45.3243243,90.3495146 40.4054054,95.0679612 40.4054054,95.0679612 L42.6891892,102.757282 L49.0135135,98.038835 L45.8513514,90"/>
      <polyline fill="#ECF0F3" points="30.919 81.087 24.77 86.505 40.405 95.068 45.851 90 30.919 81.087"/>
      <path fill="#ECF0F3" d="M26.4687027,70.369165 C26.4687027,70.369165 23.4231892,73.3980583 22.2524865,75.7279223 C21.0810811,78.0584854 16.3961622,84.5825243 16.3961622,84.5825243 L9.83783784,84.3497476 C9.83783784,84.3497476 16.6308649,76.8932039 17.5675676,73.630835 C18.5042703,70.369165 20.3783784,65.0097087 20.3783784,65.0097087 C20.3783784,65.0097087 25.5312973,60.3492816 26.234,62.6798447 C26.9367027,65.0097087 26.4687027,70.369165 26.4687027,70.369165"/>
      <path fill="#EC6D54" d="M23.7162162,60.815534 C23.7162162,60.815534 22.3108108,57.6699029 23.1891892,56.0970874 C24.0675676,54.5242718 25.2972973,53.3009709 25.2972973,53.3009709 L34.6081081,56.9708738 L52.8783784,65.5339806 L55.1621622,66.5825243 L54.6351351,68.3300971 L51.2972973,67.631068 L23.7162162,60.815534"/>
      <path fill="#16546E" d="M25.1216216,58.7184466 C25.1216216,58.7184466 23.7162162,60.815534 24.4189189,64.3106796 C25.1216216,67.8058252 26,71.1262136 27.4054054,73.0485437 C28.8108108,74.9708738 29.1621622,76.5436893 32.3243243,78.2912621 C35.4864865,80.038835 40.2381622,81.6766602 44.6216216,80.9126214 C49.0050811,80.1485825 50.5945946,79.1650485 51.6486486,77.2427184 C52.7027027,75.3203883 53.0252432,73.1561942 52.8783784,71.8252427 C52.7315135,70.4942913 53.5810811,68.5048544 53.0540541,67.9805825 C52.527027,67.4563107 44.6216216,64.8349515 39,62.7378641 C33.3783784,60.6407767 25.1216216,58.7184466 25.1216216,58.7184466"/>
      <path fill="#E85740" d="M79.7567568 103.631068C79.7567568 103.631068 83.0847568 102.932039 84.5 98.3883495 85.9152432 93.8446602 88.3648649 89.6504854 89.0675676 85.9805825 89.7702703 82.3106796 90.2972973 80.038835 88.7162162 75.3203883 87.1351351 70.6019417 86.7837838 67.9805825 84.8513514 67.9805825 82.9189189 67.9805825 82.0405405 68.6796117 82.0405405 69.2038835 82.0405405 69.7281553 83.4459459 74.2718447 84.3243243 75.8446602 85.2027027 77.4174757 86.2469189 78.9902913 86.0810811 81.2621359 85.9152432 83.5339806 84.8513514 87.3786408 83.4459459 90 82.0405405 92.6213592 79.9324324 97.1650485 79.5810811 98.2135922 79.2297297 99.2621359 79.7567568 103.631068 79.7567568 103.631068M2.01886486 102.220427C2.01886486 102.220427 2.98227027 98.4925049 4.63713514 98.3016699 6.2927027 98.1101359 11.2235676 97.727068 11.2235676 97.727068L13.4897838 98.4219029 16.3301081 100.733592C16.3301081 100.733592 11.0640541 100.17367 9.37264865 100.535767 7.68124324 100.898563 6.06924324 100.027573 5.54572973 100.811184 5.02221622 101.595495 3.60908108 102.666408 3.35118919 103.568854 3.09259459 104.470602 3.97940541 106.555806 3.97940541 106.555806L1.59513514 103.382214 2.01886486 102.220427"/>
      <path fill="#1D1D1B" d="M5.67783784,97.6459806 C5.67783784,97.6459806 7.92227027,101.304 8.48091892,101.420738 C9.04027027,101.536777 14.2641622,101.656311 14.1362703,101.33965 C14.0083784,101.02299 11.4645946,97.3992233 11.0921622,97.3216311 C10.7197297,97.2440388 6.14724324,97.2601165 5.67783784,97.6459806"/>
      <path fill="#FFFFFF" d="M6.59697297,97.9717282 L8.64254054,100.811184 L13.0196757,100.906252 C13.0196757,100.906252 11.3071892,97.7822913 10.9263243,97.7347573 C10.5454595,97.6879223 6.78740541,97.7822913 6.59697297,97.9717282"/>
    </g>
    <g transform="translate(192.25 19.829)">
      <path fill="#2591BF" d="M2.75,87.1711837 C1.6454305,87.1711837 0.75,86.2757532 0.75,85.1711837 C0.75,84.0666142 1.6454305,83.1711837 2.75,83.1711837 C3.8545695,83.1711837 4.75,84.0666142 4.75,85.1711837 C4.75,86.2757532 3.8545695,87.1711837 2.75,87.1711837 Z M12.75,87.1711837 C11.6454305,87.1711837 10.75,86.2757532 10.75,85.1711837 C10.75,84.0666142 11.6454305,83.1711837 12.75,83.1711837 C13.8545695,83.1711837 14.75,84.0666142 14.75,85.1711837 C14.75,86.2757532 13.8545695,87.1711837 12.75,87.1711837 Z M22.75,87.1711837 C21.6454305,87.1711837 20.75,86.2757532 20.75,85.1711837 C20.75,84.0666142 21.6454305,83.1711837 22.75,83.1711837 C23.8545695,83.1711837 24.75,84.0666142 24.75,85.1711837 C24.75,86.2757532 23.8545695,87.1711837 22.75,87.1711837 Z M32.75,87.1711837 C31.6454305,87.1711837 30.75,86.2757532 30.75,85.1711837 C30.75,84.0666142 31.6454305,83.1711837 32.75,83.1711837 C33.8545695,83.1711837 34.75,84.0666142 34.75,85.1711837 C34.75,86.2757532 33.8545695,87.1711837 32.75,87.1711837 Z M42.75,87.1711837 C41.6454305,87.1711837 40.75,86.2757532 40.75,85.1711837 C40.75,84.0666142 41.6454305,83.1711837 42.75,83.1711837 C43.8545695,83.1711837 44.75,84.0666142 44.75,85.1711837 C44.75,86.2757532 43.8545695,87.1711837 42.75,87.1711837 Z M52.75,87.1711837 C51.6454305,87.1711837 50.75,86.2757532 50.75,85.1711837 C50.75,84.0666142 51.6454305,83.1711837 52.75,83.1711837 C53.8545695,83.1711837 54.75,84.0666142 54.75,85.1711837 C54.75,86.2757532 53.8545695,87.1711837 52.75,87.1711837 Z"/>
      <g transform="translate(77)">
        <path fill="#171615" d="M80.8598816 34.0991461C74.6866568 30.3471287 73.2529281 22.1121716 72.9738649 17.1427094L72.9738649 13.0999929C72.9738649 4.11463236 71.494092 1.84343479 62.9695622.745153781 62.0937056.553631384 61.1860505.449900628 60.254483.449900628 55.9805163.0544587435 50.5411998-.0320678876 45.5.00942441501 40.4588002-.0320678876 35.0194837.0544587435 30.745517.449900628 29.8139495.449900628 28.9062944.553631384 28.0304378.745153781 19.505908 1.84343479 18.0261351 4.11463236 18.0261351 13.0999929L18.0261351 17.1427094C17.7470719 22.1121716 16.3133432 30.3471287 10.1401184 34.0991461.982163431 39.6651867 23.749857 37.6411719 30.745517 37.6411719L60.254483 37.6411719C67.250143 37.6411719 90.0178366 39.6651867 80.8598816 34.0991461M80.8598816 136.900853C74.6866568 140.653121 73.2529281 148.887823 72.9738649 153.857283L72.9738649 157.899998C72.9738649 166.885355 71.494092 169.156552 62.9695622 170.255086 62.0937056 170.446355 61.1860505 170.550086 60.254483 170.550086 55.9805163 170.94578 50.5411998 171.032054 45.5 170.990562 40.4588002 171.032054 35.0194837 170.94578 30.745517 170.550086 29.8139495 170.550086 28.9062944 170.446355 28.0304378 170.255086 19.505908 169.156552 18.0261351 166.885355 18.0261351 157.899998L18.0261351 153.857283C17.7470719 148.887823 16.3133432 140.653121 10.1401184 136.900853.982163431 131.334814 23.749857 133.358828 30.745517 133.358828L60.254483 133.358828C67.250143 133.358828 90.0178366 131.334814 80.8598816 136.900853"/>
        <path fill="#9B9B9B" d="M91.697861,56.4735577 C91.0437834,56.4735577 90.4341578,56.6671514 89.9197861,56.9965385 L89.9197861,48.1442308 C89.9197861,39.8149038 83.0614973,33 74.6791444,33 L15.2406417,33 C6.85828877,33 0,39.8149038 0,48.1442308 L0,122.855769 C0,131.185096 6.85828877,138 15.2406417,138 L74.6791444,138 C83.0614973,138 89.9197861,131.185096 89.9197861,122.855769 L89.9197861,115.536058 L91.1898396,115.536058 L91.1898396,87.5192308 L89.9197861,87.5192308 L89.9197861,74.1234014 C90.4341578,74.4527885 91.0437834,74.6466346 91.697861,74.6466346 C93.5140374,74.6466346 95,73.1700721 95,71.3653846 L95,59.7548077 C95,57.9501202 93.5140374,56.4735577 91.697861,56.4735577"/>
        <path fill="#282828" stroke="#9B9B9B" stroke-width="4" d="M16.7300613,134 C9.72852761,134 4,128.287565 4,121.305699 L4,48.6943005 C4,41.7124352 9.72852761,36 16.7300613,36 L74.2699387,36 C81.2714724,36 87,41.7124352 87,48.6943005 L87,121.305699 C87,128.287565 81.2714724,134 74.2699387,134 L16.7300613,134 Z"/>
        <g transform="translate(10.75 45.171)">
          <rect width="37" height="7" fill="#E85740"/>
          <rect width="69" height="7" y="10" fill="#4E4B49"/>
          <rect width="57" height="14" x="3" y="22" fill="#FFFFFF" rx="2"/>
          <rect width="18" height="7" x="51" fill="#E85740"/>
          <circle cx="11" cy="51" r="8" fill="#7BCAEC"/>
          <circle cx="35" cy="51" r="8" fill="#7BCAEC"/>
          <circle cx="59" cy="51" r="8" fill="#7BCAEC"/>
          <rect width="69" height="18" y="63" fill="#7BCAEC" rx="7"/>
          <rect width="4.828" height="4.828" x="1" y="26" fill="#FFFFFF" transform="rotate(-45 3.414 28.414)"/>
        </g>
      </g>
    </g>
  </g>
</svg>
