<svg xmlns="http://www.w3.org/2000/svg" width="355" height="219" viewBox="0 0 355 219">
  <g fill="none" fill-rule="evenodd">
    <path fill="#D8D8D8" d="M85.4549864,207 C66.4201257,205.198247 47.1963164,172.412025 21.0459773,177.733252 C0.189738271,181.977204 10.6029219,139.442636 21.0459772,137.824047 C26.2398498,137.019039 42.7018227,136.80302 47.1963165,137.824047 C66.5399709,142.218404 55.4120673,135.625858 79.208673,145.805888 C92.9607431,151.688932 106.620086,157.957655 119.80971,165.317054 C121.634187,166.335055 123.029979,168.463898 123.713656,170.638281 C124.413944,172.865491 124.218641,175.438874 123.713656,177.733251 C121.85699,186.168942 102.858442,181.477922 101.851559,181.280736 C89.5266089,178.867032 93.2762256,166.687577 71.5576172,165.317054 C65.0141308,164.904137 69.1054688,166.90332 69.1054688,170.638281 C69.1054688,173.8744 67.5585075,175.319485 69.1054688,175.930664 C81.8090696,180.949647 75.2734852,182.885661 87.797354,189.262576 C96.1864179,193.534127 98.15983,201.894047 89.3589323,205.226258 L85.4549864,207 Z" style="mix-blend-mode:multiply"/>
    <g transform="matrix(-1 0 0 1 141 13)">
      <path fill="#5B5E67" d="M54.5158294,45.1159313 C55.1388675,45.4260064 63.8614002,49.9220958 63.7056407,50.3872085 C63.5498812,50.8523212 78.8143134,89.3016372 78.8143134,89.3016372 L70.7148188,86.200886 L55.1388675,56.278636 L54.5158294,45.1159313"/>
      <path fill="#868C96" d="M78.8143134,89.3016372 L63.7056407,50.3872085 L65.7305144,50.5422461 L77.2567183,39.6896166 C77.2567183,39.6896166 92.5211505,76.2784818 92.053872,77.0536696 C91.5865935,77.8288575 78.8143134,89.3016372 78.8143134,89.3016372"/>
      <polyline fill="#868C96" points="63.706 50.387 61.681 41.395 37.071 28.062 35.825 26.356 38.317 35.659 54.516 45.116 63.706 50.387"/>
      <path fill="#323637" d="M42.2108279,159.843729 C42.2108279,159.843729 31.814815,164.804931 30.373105,165.270044 C28.9313949,165.735157 23.0654917,169.677452 20.0929771,168.68087 C17.1204626,167.684289 14.9965259,168.301338 14.0183561,166.82042 C13.0401864,165.339501 11.9934825,161.08403 12.9280396,158.913504 C13.8625966,156.742978 16.243225,154.493693 17.2893059,153.952302 C18.3360098,153.410911 21.1832937,153.177114 23.0524079,151.626738 C24.921522,150.076363 26.7906362,146.355461 26.7906362,146.355461 L40.8089923,146.200423 L42.9896255,147.285686 C42.9896255,147.285686 43.7684231,153.177114 43.7684231,155.96779 C43.7684231,158.758466 42.2108279,159.843729 42.2108279,159.843729"/>
      <path fill="#5B5E67" d="M18.6911415 154.882527C18.6911415 154.882527 18.535382 155.502677 20.8717747 157.208091 23.2081674 158.913504 24.4542435 160.463879 24.4542435 160.463879 24.4542435 160.463879 23.6754459 163.719668 23.0524079 164.649894 22.4293698 165.580119 21.6505723 168.215758 20.4044962 167.595607 19.1584201 166.975457 15.8874703 168.525833 14.7971537 165.580119 13.7068371 162.634405 14.1741157 159.068541 14.1741157 159.068541 14.1741157 159.068541 16.3547488 154.72749 18.6911415 154.882527M20.2487366 154.107339C20.2487366 154.107339 25.0772815 159.378616 26.0118386 159.378616 26.9463957 159.378616 29.1270289 159.068541 30.373105 157.828241 31.6191811 156.58794 34.1113333 155.34764 33.9555738 154.107339 33.7998143 152.867039 32.7094977 151.161626 32.7094977 151.161626L26.9463957 147.440724C26.9463957 147.440724 27.7251933 148.215912 26.0118386 150.076363 24.298484 151.936813 23.986965 153.332151 20.2487366 154.107339"/>
      <path fill="#323637" d="M59.0328553,167.595607 C59.0328553,167.595607 59.6558934,171.161471 59.0328553,171.936659 C58.4098173,172.711847 54.0485509,177.052899 53.5812724,177.673049 C53.1139938,178.293199 50.4629669,182.223712 50.9333606,184.804777 C51.4037544,187.385842 50.6218416,188.680716 52.3351963,189.765979 C54.0485509,190.851242 56.0229585,191.591081 57.1637412,191.471392 C58.3045238,191.351703 59.6558934,190.696205 61.057729,190.541167 C62.4595646,190.386129 68.3784261,186.355153 69.6245022,185.26989 C70.8705783,184.184627 76.0106422,180.308688 77.1009588,178.293199 C78.1912754,176.277711 78.3470349,177.362974 78.5027944,173.17696 C78.6585539,168.990945 75.8461601,165.580119 76.0106422,164.959969 C76.1751242,164.339819 74.7645661,163.099518 74.7645661,163.099518 L59.0328553,167.595607"/>
      <path fill="#868C96" d="M57.1637412,165.580119 C57.1637412,165.580119 60.4346909,169.145983 62.9268431,169.145983 C65.4189953,169.145983 67.443869,169.611096 69.0014641,168.68087 C70.5590592,167.750645 74.141528,165.115006 74.141528,165.115006 C74.141528,165.115006 76.4691982,162.479368 76.3221612,159.378616 C76.1751242,156.277865 68.5341856,138.75862 68.5341856,137.363282 C68.5341856,135.967944 70.5590592,127.595916 71.0263378,124.495164 C71.4936163,121.394413 71.9608949,113.95261 71.9608949,113.95261 C71.9608949,113.95261 75.2318446,104.495319 74.141528,99.8441916 C73.0512114,95.1930647 71.9608949,91.4721632 71.9608949,91.4721632 C71.9608949,91.4721632 68.2226666,71.6273549 67.9111475,70.8521671 C67.5996285,70.0769792 61.8365265,62.1700634 61.680767,61.7049507 C61.5250075,61.239838 55.4503865,54.8832979 55.4503865,54.8832979 L25.3888006,59.9995375 C25.3888006,59.9995375 23.6162573,62.8398257 24.1427245,65.5808899 C24.6691916,68.321954 26.7906362,75.9684067 26.7906362,75.9684067 L28.1924718,90.6969753 C28.1924718,90.6969753 29.1270289,95.0380271 29.7500669,96.5884028 C30.373105,98.1387784 29.2827884,98.6038911 29.2827884,98.6038911 C29.2827884,98.6038911 22.5851293,110.386746 22.4293698,112.092159 C22.2736103,113.797572 20.0624483,121.144493 20.2487366,123.099826 C20.435025,125.05454 21.3390532,128.371104 21.6505723,129.611404 C21.9620913,130.851705 24.6505005,140.405739 24.921522,142.789597 C25.1925436,145.173455 27.4136742,149.146137 28.5039908,149.61125 C29.5943074,150.076363 30.5949065,150.898682 33.3325357,151.161626 C36.0701649,151.424569 40.0301948,151.161626 42.0550684,149.146137 C44.0799421,147.130649 43.9241826,142.324484 44.3914611,139.998921 C44.8587397,137.673357 43.145385,126.355615 42.9896255,123.875014 C42.833866,121.394413 44.3914611,116.123136 44.3914611,116.123136 L45.3260182,115.658023 C45.3260182,115.658023 46.8836133,122.169601 46.7278538,126.04554 C46.5720943,129.921479 45.1702587,139.378771 46.7278538,143.099672 C48.2854489,146.820574 51.0891202,149.301175 51.4006392,151.936813 C51.7121582,154.572452 57.1637412,165.580119 57.1637412,165.580119"/>
      <path fill="#E85740" d="M57.1637412 82.4799844C58.2540577 83.1001347 59.9674124 84.03036 62.6153241 83.2551722 65.2632358 82.4799844 66.8208309 81.7047966 66.8208309 80.3094585 66.8208309 78.9141204 68.2226666 78.1389326 65.1074763 76.4335194 61.992286 74.7281062 59.9674124 73.9529183 58.2540577 74.8831437 56.5407031 75.8133691 55.4503865 78.1389326 55.606146 79.069158 55.7619055 79.9993834 57.1637412 82.4799844 57.1637412 82.4799844M64.3286787 120.464188C64.3286787 120.464188 57.2503434 118.477846 56.6964626 118.293662 56.1425818 118.109477 53.5812724 117.673512 53.5812724 117.673512 53.5812724 117.673512 57.7867792 120.464188 59.3443743 121.239376 60.9019695 122.014563 63.2383622 122.634714 63.2383622 122.634714L64.3286787 120.464188M1.09031659 88.8365246L5.14006392 86.9760738 8.25525417 84.9605854C8.25525417 84.9605854 7.94373515 84.1853976 7.00917807 84.1853976 6.07462099 84.1853976 1.71335464 85.2706606 1.71335464 85.2706606L1.09031659 88.8365246M30.373105 160.618917C30.373105 160.618917 36.7910199 156.676002 37.2265235 156.277865 37.6620271 155.879109 40.4974733 153.797264 40.4974733 153.797264L42.9896255 153.177114C42.9896255 153.177114 43.6126636 155.812752 42.9896255 156.58794 42.3665875 157.363128 41.7435494 158.293354 40.0301948 159.223579 38.3168401 160.153804 34.4228523 161.859218 33.0210167 161.549142 31.6191811 161.239067 30.373105 160.618917 30.373105 160.618917M69.6245022 179.378462C69.6245022 179.378462 71.0263378 176.277711 71.1820973 174.882373 71.3378568 173.487035 72.8954519 170.851396 72.8954519 170.851396L76.0106422 167.595607C76.0106422 167.595607 76.7807172 168.215758 76.4779207 170.696359 76.1751242 173.17696 76.9451993 174.262223 75.2318446 175.657561 73.51849 177.052899 71.8051353 178.448237 71.0263378 179.223425 70.2475402 179.998613 69.6245022 179.378462 69.6245022 179.378462"/>
      <path fill="#5B5E67" d="M63.5498812 187.905528C63.7056407 187.285378 64.6401978 183.409439 63.2383622 182.634251 61.8365265 181.859063 54.3600699 177.518012 54.3600699 177.518012 54.3600699 177.518012 52.6467153 181.393951 52.1794367 182.789289 51.7121582 184.184627 50.9333606 187.285378 52.4909558 188.525679 54.0485509 189.765979 56.0734246 190.851242 57.7867792 190.231092 59.5001338 189.610942 63.5498812 187.905528 63.5498812 187.905528M55.4503865 176.587786L63.5498812 181.083876C63.5498812 181.083876 66.0420334 180.308688 66.8208309 179.223425 67.5996285 178.138162 69.3129831 178.138162 69.3129831 174.882373L69.3129831 169.766133C69.3129831 169.766133 68.2226666 170.386284 65.4189953 170.231246 62.6153241 170.076208 60.1231719 168.990945 60.1231719 168.990945 60.1231719 168.990945 60.7462099 170.851396 60.4346909 171.626584 60.1231719 172.401772 55.4503865 176.587786 55.4503865 176.587786"/>
      <path fill="#B8BEC6" d="M46.7278538 143.099672C46.7278538 143.099672 46.2605753 145.425236 48.4412084 145.425236 50.6218416 145.425236 53.1139938 145.425236 54.2043104 142.324484 55.294627 139.223733 58.4098173 130.076517 58.4098173 130.076517 58.4098173 130.076517 56.6964626 113.177422 55.7619055 110.076671 54.8273485 106.97592 48.3209621 102.887889 47.0393728 102.789905 45.7577836 102.691922 43.456904 101.23953 43.9241826 101.85968 44.3914611 102.47983 46.1048158 106.200732 45.4817777 107.441032 44.8587397 108.681333 42.833866 109.301483 42.833866 109.301483 42.833866 109.301483 44.7029801 112.71231 45.3260182 115.037873 45.9490562 117.363436 47.1951323 119.378925 46.8836133 127.130803 46.5720943 134.882681 46.7278538 143.099672 46.7278538 143.099672M26.0118386 145.580273C26.1675981 143.409747 24.1427245 133.952456 25.3888006 131.626892 26.6348767 129.301329 27.7251933 129.456366 26.4791172 126.975765 25.2330411 124.495164 24.610003 123.409901 25.3888006 121.239376 26.1675981 119.06885 33.3325357 109.766596 33.3325357 105.580582 33.3325357 101.394567 34.2670928 97.3635906 31.7749406 98.293816 29.2827884 99.2240414 27.4136742 102.324793 26.6348767 103.099981 25.8560791 103.875168 20.8717747 115.347948 20.4044962 119.689 19.9372176 124.030052 19.6256986 125.735465 21.8063318 132.092005 23.986965 138.448545 26.0118386 145.580273 26.0118386 145.580273M35.8246879 97.5186282C35.3829539 100.158608 37.070764 105.890657 37.5380426 106.510807 38.0053211 107.130957 41.2762709 108.991408 42.0550684 107.751107 42.833866 106.510807 42.2108279 102.634868 42.0550684 102.014718 41.8993089 101.394567 40.9647518 98.6038911 40.1859543 98.1387784 39.4071567 97.6736657 35.9804474 96.5884028 35.8246879 97.5186282"/>
      <path fill="#2C2E33" d="M50.4660821,121.549451 C50.4660821,122.324639 49.6872845,132.247043 49.6872845,133.02223 C49.6872845,133.797418 49.8430441,134.727644 50.7776011,135.037719 C51.7121582,135.347794 53.1139938,134.882681 53.1139938,134.882681 L54.983108,135.347794 C54.983108,135.347794 57.7867792,136.743132 58.7213363,135.967944 C59.6558934,135.192756 60.2789314,135.347794 60.5904504,134.417569 C60.9019695,133.487343 63.0826026,124.495164 62.4595646,124.650202 C61.8365265,124.80524 61.369248,125.580427 57.4752602,124.030052 C53.5812724,122.479676 50.4660821,121.549451 50.4660821,121.549451"/>
      <path fill="#B8BEC6" d="M52.9582343,109.146446 C53.1139938,107.906145 55.294627,101.85968 54.3600699,99.2240414 C53.4255129,96.5884028 49.8430441,94.1078018 49.531525,91.4721632 C49.220006,88.8365246 47.8181704,85.5807357 48.1296894,81.7047966 C48.4412084,77.8288575 49.531525,73.7978808 50.4660821,72.7126178 C51.4006392,71.6273549 53.5812724,70.3870544 54.671589,69.9219417 C55.7619055,69.456829 58.7213363,68.5266036 60.7462099,67.5963782 C62.7710836,66.6661528 64.4844383,64.9607396 66.9765905,68.0614909 C69.4687427,71.1622422 70.0400686,80.1854284 70.0917807,81.549759 C70.1434929,82.9140896 70.784599,94.4085746 70.7148188,98.9139663 C70.6450385,103.419358 68.1447868,109.472024 68.066907,110.386746 C67.9890273,111.301468 66.6650714,113.487497 66.6650714,113.487497 C66.6650714,113.487497 66.0981068,114.710434 63.2383622,115.192911 C60.3786175,115.675387 52.4909558,112.402234 52.4909558,112.402234 L52.9582343,109.146446"/>
      <path fill="#ECF0F3" d="M61.8365265,111.782084 C61.992286,110.696821 67.2881095,101.704642 65.5747548,99.3790789 C63.8614002,97.0535155 60.4346909,96.8984779 60.1231719,95.3481023 C59.8116529,93.7977266 59.6558934,97.208553 61.2134885,91.0070505 C62.7710836,84.8055479 63.8614002,86.0458484 62.7710836,81.549759 C61.680767,77.0536696 60.5904504,71.93743 58.0982982,71.1622422 C55.606146,70.3870544 52.0236772,71.7823924 51.2448797,73.3327681 C50.4660821,74.8831437 48.596968,77.983895 49.220006,82.7900595 C49.8430441,87.596224 50.9333606,92.4023885 52.8024748,94.4178769 C54.671589,96.4333652 56.2291841,95.813215 55.7619055,100.154267 C55.294627,104.495319 54.5158294,105.890657 54.2043104,108.526295 L53.8927914,111.161934 L59.9674124,112.867347 L61.8365265,111.782084"/>
      <path fill="#5B5E67" d="M28.1924718,90.6969753 L29.1270289,94.5729144 L36.1362069,98.1387784 C36.1362069,98.1387784 46.7278538,103.410056 49.0642465,103.410056 C51.4006392,103.410056 53.8927914,103.720131 53.8927914,103.720131 C53.8927914,103.720131 54.671589,100.154267 54.2043104,100.154267 C53.7370319,100.154267 40.3417138,94.5729144 38.9398782,94.4178769 C37.5380426,94.2628393 28.1924718,90.6969753 28.1924718,90.6969753"/>
      <path fill="#B8BEC6" d="M22.1178508,77.5187823 C22.1178508,77.5187823 18.846901,77.8288575 18.6911415,79.2241955 C18.535382,80.6195336 17.1466302,84.3063269 17.1335464,85.2706606 C17.1204626,86.2349942 14.6413942,80.3094585 13.5510776,79.9993834 C12.460761,79.6893082 6.23038051,77.3637448 6.23038051,77.3637448 C6.23038051,77.3637448 10.1243683,70.8521671 12.9280396,68.2165285 C15.7317108,65.5808899 14.1741157,62.7902137 16.5105083,59.8445 C18.846901,56.8987862 20.8717747,55.193373 20.8717747,55.193373 L25.2330411,54.4181852 L30.0615859,65.2708147 C30.0615859,65.2708147 29.6341818,76.4335194 29.2827884,76.5885569 C28.9313949,76.7435945 22.1178508,77.5187823 22.1178508,77.5187823"/>
      <path fill="#B8BEC6" d="M15.7317108,83.8753225 C15.7317108,84.4954727 13.8625966,88.681487 13.8625966,88.681487 C13.8625966,88.681487 9.18981125,87.4411865 8.5667732,87.596224 C7.94373515,87.7512616 9.65708979,93.4876515 9.65708979,93.4876515 L3.42670928,95.0380271 C3.42670928,95.0380271 -0.467278538,96.7434403 0.623038051,91.0070505 C1.71335464,85.2706606 2.58996918,80.7113159 3.27094977,79.6893082 C3.95193036,78.6673006 6.23038051,77.3637448 6.23038051,77.3637448 C6.23038051,77.3637448 11.6819635,77.3637448 12.77228,78.4490077 C13.8625966,79.5342707 15.7317108,83.8753225 15.7317108,83.8753225"/>
      <path fill="#2C2E33" d="M3.12204367,93.8138505 L7.62972397,98.8699356 L9.67951916,101.989291 C9.67951916,101.989291 13.164171,102.090996 13.6850308,101.882626 C14.2065136,101.674255 17.1821434,103.392071 17.717333,101.602938 C18.2518997,99.8131841 18.1659204,95.6774021 18.1659204,95.6774021 L16.7192261,93.4752485 C16.7192261,93.4752485 19.0057757,93.9515239 18.0413128,92.4836282 C17.0768499,91.0157326 14.6438863,89.7177581 14.6438863,89.7177581 L12.1255665,87.6669212 C11.5623401,87.20801 10.8408621,86.9872365 10.1162688,87.0504918 L4.27653318,87.5602553 L1.9550934,91.0368177 L3.12204367,93.8138505"/>
      <path fill="#B8BEC6" d="M56.8522221,56.4336735 C56.8522221,56.4336735 60.1231719,58.4491619 60.5904504,60.9297629 C61.057729,63.4103639 59.5001338,66.3560777 58.2540577,66.6661528 C57.0079816,66.9762279 53.5812724,68.0614909 51.8679177,69.456829 C50.1545631,70.8521671 46.6119687,72.800059 46.8836133,74.5730686 C47.1552579,76.345458 46.7278538,85.2706606 47.0393728,86.8210362 C47.3508919,88.3714119 47.8181704,91.9372758 47.8181704,91.9372758 C47.8181704,91.9372758 40.8089923,91.9372758 42.3665875,90.8520129 C43.9241826,89.7667499 47.0524566,91.4944886 46.1048158,87.596224 C45.1571749,83.6979595 43.3011445,79.8443458 42.522347,79.069158 C41.7435494,78.2939702 39.4071567,75.9684067 38.1610806,74.5730686 C36.9150045,73.1777305 35.3574094,71.0072046 35.3574094,71.0072046 C35.3574094,71.0072046 40.6532328,73.1777305 46.4163348,67.9064533 C52.1794367,62.6351761 54.3600699,58.2941243 54.3600699,58.2941243 L56.8522221,56.4336735"/>
      <path fill="#ECF0F3" d="M46.4163348,69.9219417 C46.4163348,69.9219417 52.6467153,66.8211904 54.0485509,62.7902137 C55.4503865,58.759237 57.7867792,56.7437487 56.8522221,53.1778847 C55.9176651,49.6120207 54.2977661,44.0306684 53.4255129,42.9454054 C52.5532596,41.8601425 46.4829999,37.053978 43.6126636,36.7439028 C40.7423273,36.4338277 40.5373477,35.0744583 34.7343713,36.8989404 C28.9313949,38.7234225 25.3888006,42.9454054 23.8312054,44.8058562 C22.2736103,46.666307 21.4948128,49.4569831 21.4948128,50.3872085 C21.4948128,51.3174339 32.2422191,67.7514158 32.2422191,67.7514158 C32.2422191,67.7514158 34.1113333,72.0924676 34.8901308,72.2475051 C35.6689284,72.4025427 38.4725996,74.7281062 40.9647518,73.1777305 C43.456904,71.6273549 46.4163348,69.9219417 46.4163348,69.9219417"/>
      <path fill="#B8BEC6" d="M33.0210167 48.061645C35.743693 48.383503 41.1205113 48.6817953 42.833866 46.3562318 44.5472206 44.0306684 45.3260182 42.1702176 42.833866 40.6198419 40.3417138 39.0694663 36.6034855 37.3640531 33.9555738 39.2245039 31.307662 41.0849546 28.0367123 43.4105181 28.9712694 44.9608938 29.9058264 46.5112694 33.0210167 48.061645 33.0210167 48.061645M77.2567183 39.6896166C76.7894398 37.3640531 72.8954519 30.3873627 72.8954519 30.3873627L61.680767 41.3950298 63.7056407 50.3872085 65.7305144 50.5422461 77.2567183 39.6896166"/>
      <path fill="#ECF0F3" d="M35.6689284,25.5811982 C35.6689284,25.5811982 44.5067232,16.9437454 45.0144992,16.2789443 C45.5222752,15.6141432 48.2854489,16.1239067 48.2854489,16.1239067 L71.3378568,29.4571373 L72.8954519,30.3873627 L61.680767,41.3950298 L37.070764,28.0617992 L35.6689284,25.5811982"/>
      <path fill="#E85740" d="M89.2502008 73.7978808C87.9860566 70.3870544 58.8770958.155037565 58.8770958.155037565L56.8522221.775187823 87.0695676 75.9684067 88.9386817 75.3482564 89.2502008 73.7978808M15.8874703 61.239838C15.8874703 61.239838 16.3547488 62.6351761 18.0681035 61.3948756 19.7814581 60.1545751 19.9372176 60.1545751 20.4044962 57.9840492 20.8717747 55.8135233 19.7814581 55.3484106 19.7814581 55.3484106 19.7814581 55.3484106 17.1335464 56.1235984 16.3547488 57.6739741 15.5759513 59.2243497 15.8874703 61.239838 15.8874703 61.239838"/>
      <path fill="#B8BEC6" d="M49.220006,120.154113 C49.6872845,117.518474 51.5563987,110.231708 51.5563987,110.231708 C51.5563987,110.231708 53.4255129,109.921633 54.671589,110.851859 C55.9176651,111.782084 61.369248,113.177422 61.369248,113.177422 C61.369248,113.177422 67.443869,112.867347 67.443869,113.487497 C67.443869,114.107648 65.5747548,121.394413 64.7959573,122.634714 C64.0171597,123.875014 62.4595646,124.650202 62.4595646,124.650202 C62.4595646,124.650202 61.057729,124.960277 57.4752602,124.030052 C53.8927914,123.099826 50.4660821,121.549451 50.4660821,121.549451 L49.220006,120.154113"/>
      <path fill="#ECF0F3" d="M52.4909558,112.402234 C52.4909558,112.402234 60.1231719,112.402234 60.1231719,114.57276 C60.1231719,116.743286 58.8770958,122.634714 58.8770958,122.634714 C58.8770958,122.634714 55.8553612,122.616729 54.2043104,121.394413 C52.5532596,120.172097 50.6218416,119.689 50.6218416,119.689 L52.4909558,112.402234"/>
      <path fill="#E85740" d="M24.921522 84.4954727L24.1427245 86.6659986C24.1427245 86.6659986 25.3888006 88.8365246 26.4791172 89.9217875 27.5694337 91.0070505 34.5786118 95.5031398 34.5786118 95.5031398 34.5786118 95.5031398 37.2265235 96.8984779 38.0053211 97.0535155 38.7841187 97.208553 45.6375372 99.8441916 46.2605753 100.464342 46.8836133 101.084492 52.0236772 101.704642 52.0236772 101.704642L54.2043104 101.704642 54.671589 98.6038911C54.671589 98.6038911 53.1139938 96.7434403 52.3351963 95.9682525 51.5563987 95.1930647 50.6218416 93.0225388 49.9988036 93.0225388 49.3757655 93.0225388 46.2605753 92.5574261 43.3011445 91.6272007 40.3417138 90.6969753 32.7493721 87.7512616 30.8403835 87.1311113 28.9313949 86.5109611 24.921522 84.4954727 24.921522 84.4954727M39.0956377 77.3637448C39.0956377 77.3637448 38.9398782 74.7281062 41.2762709 74.7281062 43.6126636 74.7281062 47.1951323 76.7435945 47.3508919 78.1389326 47.5066514 79.5342707 48.4412084 82.1699093 47.0393728 83.4102098 45.6375372 84.6505103 44.2357016 84.6505103 43.3011445 83.8753225 42.3665875 83.1001347 39.0956377 77.3637448 39.0956377 77.3637448"/>
      <polyline fill="#B8BEC6" points="35.825 84.34 37.85 91.162 23.987 85.116 21.962 76.744 35.825 84.34"/>
      <path fill="#5B5E67" d="M40.6532328,79.8443458 C40.1859543,80.1544209 35.8246879,84.3404352 35.8246879,84.3404352 L37.8495616,91.162088 L43.456904,86.9760738 L40.6532328,79.8443458"/>
      <polyline fill="#ECF0F3" points="27.414 71.937 21.962 76.744 35.825 84.34 40.653 79.844 27.414 71.937"/>
      <path fill="#ECF0F3" d="M23.4679743,62.4286661 C23.4679743,62.4286661 20.7677273,65.1157772 19.729746,67.182738 C18.6911415,69.2503189 14.5373468,75.0381813 14.5373468,75.0381813 L8.72253271,74.8316713 C8.72253271,74.8316713 14.7454415,68.2165285 15.5759513,65.3222872 C16.406461,62.4286661 18.0681035,57.6739741 18.0681035,57.6739741 C18.0681035,57.6739741 22.6368415,53.5394323 23.2598795,55.6070132 C23.8829176,57.6739741 23.4679743,62.4286661 23.4679743,62.4286661"/>
      <path fill="#EC6D54" d="M21.0275342,53.9530725 C21.0275342,53.9530725 19.7814581,51.1623963 20.5602557,49.7670583 C21.3390532,48.3717202 22.4293698,47.2864572 22.4293698,47.2864572 L30.684624,50.5422461 L46.8836133,58.1390867 L48.908487,59.0693121 L48.4412084,60.6196878 L45.4817777,59.9995375 L21.0275342,53.9530725"/>
      <path fill="#16546E" d="M22.2736103,52.0926217 C22.2736103,52.0926217 21.0275342,53.9530725 21.6505723,57.0538238 C22.2736103,60.1545751 23.0524079,63.1002888 24.298484,64.805702 C25.5445601,66.5111152 25.8560791,67.9064533 28.6597503,69.456829 C31.4634216,71.0072046 35.6764049,72.4602167 39.5629162,71.7823924 C43.4494276,71.1045682 44.8587397,70.2320168 45.7932967,68.5266036 C46.7278538,66.8211904 47.0138283,64.9012052 46.8836133,63.7204391 C46.7533984,62.539673 47.5066514,60.7747253 47.0393728,60.3096127 C46.5720943,59.8445 39.5629162,57.5189365 34.5786118,55.6584857 C29.5943074,53.7980349 22.2736103,52.0926217 22.2736103,52.0926217"/>
      <path fill="#E85740" d="M70.7148188 91.9372758C70.7148188 91.9372758 73.665527 91.3171256 74.9203256 87.2861489 76.1751242 83.2551722 78.3470349 79.5342707 78.9700729 76.2784818 79.593111 73.022693 80.0603895 71.0072046 78.6585539 66.8211904 77.2567183 62.6351761 76.9451993 60.3096127 75.2318446 60.3096127 73.51849 60.3096127 72.7396924 60.9297629 72.7396924 61.3948756 72.7396924 61.8599883 73.9857685 65.890965 74.7645661 67.2863031 75.5433637 68.6816411 76.4691982 70.0769792 76.3221612 72.0924676 76.1751242 74.1079559 75.2318446 77.5187823 73.9857685 79.8443458 72.7396924 82.1699093 70.8705783 86.200886 70.5590592 87.1311113 70.2475402 88.0613367 70.7148188 91.9372758 70.7148188 91.9372758M1.78998832 90.6858126C1.78998832 90.6858126 2.64417349 87.3785513 4.1114281 87.2092503 5.57930574 87.0393291 9.95116375 86.6994868 9.95116375 86.6994868L11.9604615 87.3159161 14.4787813 89.366753C14.4787813 89.366753 9.80973411 88.8700127 8.31008152 89.1912505 6.81042893 89.5131085 5.38117964 88.7404013 4.9170163 89.4355897 4.45285295 90.1313983 3.19992343 91.0814685 2.97126846 91.8820825 2.74199046 92.6820763 3.52826448 94.5319845 3.52826448 94.5319845L1.41429638 91.7165024 1.78998832 90.6858126"/>
      <path fill="#1D1D1B" d="M5.03414745,86.6275493 C5.03414745,86.6275493 7.02413098,89.8727956 7.51944623,89.9763607 C8.01538452,90.0793057 12.6470494,90.1853514 12.5336565,89.9044233 C12.4202635,89.6234952 10.1648658,86.4086363 9.83465563,86.3397996 C9.50444546,86.2709629 5.45033687,86.2852264 5.03414745,86.6275493"/>
      <path fill="#FFFFFF" d="M5.84908122,86.9165394 L7.66274499,89.4355897 L11.543649,89.5199301 C11.543649,89.5199301 10.0253053,86.7484786 9.68761865,86.7063084 C9.34993203,86.6647583 6.01792453,86.7484786 5.84908122,86.9165394"/>
    </g>
    <path fill="#2591BF" d="M170.694987,107.690476 C169.572124,107.690476 168.661863,106.785718 168.661863,105.669643 C168.661863,104.553567 169.572124,103.64881 170.694987,103.64881 C171.81785,103.64881 172.72811,104.553567 172.72811,105.669643 C172.72811,106.785718 171.81785,107.690476 170.694987,107.690476 Z M180.860604,107.690476 C179.737741,107.690476 178.82748,106.785718 178.82748,105.669643 C178.82748,104.553567 179.737741,103.64881 180.860604,103.64881 C181.983467,103.64881 182.893727,104.553567 182.893727,105.669643 C182.893727,106.785718 181.983467,107.690476 180.860604,107.690476 Z M191.026221,107.690476 C189.903358,107.690476 188.993097,106.785718 188.993097,105.669643 C188.993097,104.553567 189.903358,103.64881 191.026221,103.64881 C192.149084,103.64881 193.059344,104.553567 193.059344,105.669643 C193.059344,106.785718 192.149084,107.690476 191.026221,107.690476 Z M201.191838,107.690476 C200.068975,107.690476 199.158715,106.785718 199.158715,105.669643 C199.158715,104.553567 200.068975,103.64881 201.191838,103.64881 C202.314701,103.64881 203.224961,104.553567 203.224961,105.669643 C203.224961,106.785718 202.314701,107.690476 201.191838,107.690476 Z M211.357455,107.690476 C210.234592,107.690476 209.324332,106.785718 209.324332,105.669643 C209.324332,104.553567 210.234592,103.64881 211.357455,103.64881 C212.480318,103.64881 213.390578,104.553567 213.390578,105.669643 C213.390578,106.785718 212.480318,107.690476 211.357455,107.690476 Z M221.523072,107.690476 C220.400209,107.690476 219.489949,106.785718 219.489949,105.669643 C219.489949,104.553567 220.400209,103.64881 221.523072,103.64881 C222.645935,103.64881 223.556196,104.553567 223.556196,105.669643 C223.556196,106.785718 222.645935,107.690476 221.523072,107.690476 Z"/>
    <g transform="translate(250 21.004)">
      <path fill="#171615" d="M80.1679913 33.7347476C74.0475886 30.022826 72.6261278 21.8758713 72.3494524 16.9595149L72.3494524 12.9600006C72.3494524 4.07066159 70.8823415 1.82373504 62.4307532.737190741 61.562391.547715037 60.6625024.445092792 59.738906.445092792 55.5015101.0538767735 50.1087361-.0317251961 45.1106721.00932370158 40.1126081-.0317251961 34.719834.0538767735 30.4824381.445092792 29.5588417.445092792 28.6589531.547715037 27.7905909.737190741 19.3390026 1.82373504 17.8718917 4.07066159 17.8718917 12.9600006L17.8718917 16.9595149C17.5952163 21.8758713 16.1737555 30.022826 10.0533529 33.7347476.973759395 39.2413071 23.5466376 37.2389218 30.4824381 37.2389218L59.738906 37.2389218C66.6747065 37.2389218 89.2475847 39.2413071 80.1679913 33.7347476M80.1679913 135.43787C74.0475886 139.150041 72.6261278 147.296742 72.3494524 152.213097L72.3494524 156.212609C72.3494524 165.101945 70.8823415 167.348871 62.4307532 168.435665 61.562391 168.62489 60.6625024 168.727513 59.738906 168.727513 55.5015101 169.118979 50.1087361 169.20433 45.1106721 169.163282 40.1126081 169.20433 34.719834 169.118979 30.4824381 168.727513 29.5588417 168.727513 28.6589531 168.62489 27.7905909 168.435665 19.3390026 167.348871 17.8718917 165.101945 17.8718917 156.212609L17.8718917 152.213097C17.5952163 147.296742 16.1737555 139.150041 10.0533529 135.43787.973759395 129.931313 23.5466376 131.933697 30.4824381 131.933697L59.738906 131.933697C66.6747065 131.933697 89.2475847 129.931313 80.1679913 135.43787"/>
      <path fill="#9B9B9B" d="M90.9132337,55.8700565 C90.2647529,55.8700565 89.6603436,56.0615814 89.1503732,56.3874485 L89.1503732,47.6297404 C89.1503732,39.3894243 82.3507685,32.6473475 74.0401405,32.6473475 L15.1102328,32.6473475 C6.79960474,32.6473475 0,39.3894243 0,47.6297404 L0,121.542879 C0,129.783195 6.79960474,136.525272 15.1102328,136.525272 L74.0401405,136.525272 C82.3507685,136.525272 89.1503732,129.783195 89.1503732,121.542879 L89.1503732,114.301389 L90.4095593,114.301389 L90.4095593,86.5839619 L89.1503732,86.5839619 L89.1503732,73.3312863 C89.6603436,73.6571533 90.2647529,73.848928 90.9132337,73.848928 C92.7138698,73.848928 94.1871175,72.3881447 94.1871175,70.6027428 L94.1871175,59.1162416 C94.1871175,57.3308398 92.7138698,55.8700565 90.9132337,55.8700565"/>
      <path fill="#282828" stroke="#9B9B9B" stroke-width="3.494" d="M16.5869079,132.568017 C9.64528392,132.568017 3.96577337,126.916628 3.96577337,120.009374 L3.96577337,48.1739319 C3.96577337,41.2666779 9.64528392,35.6152882 16.5869079,35.6152882 L73.6344362,35.6152882 C80.5760602,35.6152882 86.2555708,41.2666779 86.2555708,48.1739319 L86.2555708,120.009374 C86.2555708,126.916628 80.5760602,132.568017 73.6344362,132.568017 L16.5869079,132.568017 Z"/>
      <g transform="translate(10.658 44.688)">
        <rect width="36.683" height="6.925" fill="#E85740"/>
        <rect width="68.41" height="6.925" y="9.893" fill="#4E4B49"/>
        <rect width="56.512" height="13.85" x="2.974" y="21.765" fill="#FFFFFF" rx="1.747"/>
        <rect width="17.846" height="6.925" x="50.564" fill="#E85740"/>
        <ellipse cx="10.906" cy="50.455" fill="#7BCAEC" rx="7.932" ry="7.915"/>
        <ellipse cx="34.701" cy="50.455" fill="#7BCAEC" rx="7.932" ry="7.915"/>
        <ellipse cx="58.495" cy="50.455" fill="#7BCAEC" rx="7.932" ry="7.915"/>
        <rect width="68.41" height="17.808" y="62.327" fill="#7BCAEC" rx="6.114"/>
        <rect width="4.787" height="4.777" x=".991" y="25.722" fill="#FFFFFF" transform="rotate(-45 3.385 28.11)"/>
      </g>
    </g>
  </g>
</svg>
