<svg xmlns="http://www.w3.org/2000/svg" width="210" height="210" viewBox="0 0 210 210" xmlns:xlink="http://www.w3.org/1999/xlink">
  <defs>
    <ellipse id="a" cx="105" cy="105" rx="105" ry="105"/>
  </defs>
  <g fill="none" fill-rule="evenodd">
    <mask id="b" fill="white">
      <use xlink:href="#a"/>
    </mask>
    <use fill="#7BCAEC" xlink:href="#a"/>
    <path fill="#EEBB8B" d="M64.4812615,114.621308 C67.890056,125.394687 71.6471706,136.243751 76.6140679,146.403934 C79.5180204,152.344162 82.4077437,156.408888 88.5672299,159.242176 C96.3328426,162.814801 105.827013,165.061011 114.410214,164.580486 C123.864364,164.051285 134.156262,159.340418 139.56219,151.343637 C143.714463,145.202176 146.544601,138.016559 149.330866,131.180578 C150.644404,127.95818 151.198752,125.242427 152.019898,121.405349 C153.312981,115.363911 154.159028,110.288865 154.75725,104.13939 C155.973554,91.6380205 161.032052,79.5284315 158.732546,66.5860114 C157.912586,61.9707146 156.611499,57.4400068 155.14974,52.9912169 C154.54974,51.164984 153.934918,47.1118333 152.535115,45.6925183 C150.935807,44.0707831 145.980175,43.4991393 143.831854,42.8417192 C131.406459,39.0384772 118.478594,34.4629521 105.522269,32.9430205 C98.3101153,32.0971301 90.242724,34.8577009 83.7206884,37.6835685 C80.9302734,38.8927466 77.388969,40.3895274 75.6740481,43.0658059 C74.6018149,44.7385913 74.0774078,46.9206918 73.4803722,48.7911484 C71.4426252,55.1750982 69.7967754,61.6923128 68.1607082,68.1887511 C66.9541864,72.9797557 65.3442062,77.9055091 64.6113999,82.798911 C64.1590283,85.822153 64.4812615,89.0760114 64.4812615,92.1321986 L64.4812615,110.9264 L64.4812615,114.621308 Z" mask="url(#b)"/>
    <path fill="#CAA077" d="M118.071103,126.050148 C118.071103,126.050148 121.614186,126.278984 122.414285,126.050148 C123.214384,125.821313 126.757467,126.323505 127.557269,125.157066 C128.357665,123.990628 129.500451,122.766906 128.700352,120.975696 C127.900254,119.184189 126.087507,113.576975 125.736815,114.492614 C125.385827,115.407957 125.728811,118.726518 124.586024,119.756427 C123.442941,120.786336 123.099957,121.485902 121.042645,121.285559 C118.985333,121.08492 117.728119,119.298756 117.385431,117.811176 C117.042447,116.323596 117.385431,111.174053 117.385431,111.174053 C117.385431,111.174053 117.728119,103.278185 117.385431,100.989532 C117.042447,98.700879 116.471202,96.1833904 116.356775,96.5264954 C116.242348,96.8698973 110.510333,97.6024087 110.413396,99.9596233 C110.222487,104.610537 106.870016,107.60113 106.412902,110.004053 C105.955787,112.407272 103.650056,117.712043 103.382961,118.527066 C103.116163,119.341792 105.95638,126.095856 109.956281,126.166792 C113.956182,126.237728 118.071103,126.050148 118.071103,126.050148" mask="url(#b)"/>
    <path fill="#E4D6CD" d="M141.353712,101.221098 C141.504601,101.24692 144.339186,100.576737 145.546005,99.5773995 C143.378119,96.9210068 143.117843,96.0270342 139.833554,95.0538151 C134.593337,93.5012352 132.284345,95.5325594 127.821103,98.1752991 C127.821103,99.8967603 138.155392,100.673792 141.353712,101.221098" mask="url(#b)"/>
    <path fill="#657B86" d="M133.950175,100.169078 C135.369542,100.475082 136.78387,100.635059 138.223099,100.800082 C139.370629,100.294032 140.246914,99.223758 140.246914,97.5868858 C140.246914,92.8122055 132.885649,92.8596941 132.885649,97.5868858 C132.885649,98.718895 133.309265,99.5778447 133.950175,100.169078" mask="url(#b)"/>
    <path fill="#E4D6CD" d="M101.243623,90.4113904 C96.4516271,89.2645411 92.3079513,91.1246096 88.0978722,93.1790845 C89.4638801,94.4405 101.676726,97.0161621 103.248465,96.5923265 C104.819611,96.1684909 106.533939,95.607532 108.234038,95.8141073 C106.555283,93.0167329 104.647675,91.2261164 101.243623,90.4113904" mask="url(#b)"/>
    <path fill="#EEBB8B" d="M118.185738,172.178482 C101.473485,156.150194 84.7612319,140.121906 68.0486825,124.093916 C65.6424572,121.786267 63.21222,117.863413 60.8059947,115.556062 C59.9205204,118.318116 59.059058,122.69508 58.1735837,125.457432 C57.4351449,127.761221 55.9028327,130.640514 55.7445323,133.061541 C55.5722991,135.691221 60.186726,151.538162 62.2923584,156.14129 C64.5156785,161.002043 81.9165679,198.654852 82.5835639,199.154372 C83.0089592,199.472842 84.3651845,199.233025 84.9230896,199.233025 L91.7789196,199.233025 L102.429513,199.233025 C100.881192,195.229737 117.730105,172.524852 118.185738,172.178482" mask="url(#b)"/>
    <path fill="#657B86" d="M101.638781,90.5437055 C99.5488603,90.0240023 97.6243544,89.9797785 95.7718841,90.2709429 C95.3375955,90.8313082 95.0678327,91.5623356 95.0678327,92.4649155 C95.0678327,97.1974498 102.429394,97.2099155 102.429394,92.4649155 C102.429394,91.7454635 102.259829,91.1373128 101.975837,90.6363082 C101.867042,90.6039566 101.75558,90.5727922 101.638781,90.5437055" mask="url(#b)"/>
    <path fill="#6A5438" d="M64.9259256,98.1753881 C66.1045817,96.234589 67.5755303,94.2736073 68.3018149,92.1197032 C69.338475,89.0463014 69.6402536,85.5060274 70.1928228,82.3183562 C70.6970718,79.4096804 70.4883762,75.5809132 71.5635738,72.8835616 C72.3224671,70.9795662 74.7420323,70.0021918 76.2082378,68.5018493 C78.6236528,66.0303653 79.0214789,60.5392009 79.3487516,57.0766895 C79.7302734,53.041347 80.1346212,49.9765525 83.3110046,47.2088584 C85.541143,45.2659817 88.6125856,42.7339498 91.4311627,41.6773288 C93.8699967,40.7631735 97.1035935,41.0620548 99.6610046,41.046621 C103.44391,41.0234703 107.171084,41.1552511 110.775827,42.3837215 C116.978594,44.4981507 123.179582,49.6105936 129.915352,48.8210959 C137.672961,47.9116895 144.85636,45.6687443 150.500036,53.0811187 C155.827704,60.0782648 156.819305,68.4591096 156.690649,76.9524429 C156.551914,86.0987443 155.033534,95.4450913 153.469503,104.435868 C152.890254,107.764521 152.806657,111.23 152.623752,114.596941 C152.555273,115.861918 151.837586,121.770982 151.837586,121.770982 C151.837586,121.770982 154.005767,113.996507 154.287684,112.763881 C155.34391,108.147397 156.455273,103.541598 157.665945,98.9628082 C159.87059,90.6238128 162.789068,82.2750228 163.708633,73.6546575 C164.818218,63.2475342 161.315748,52.3281279 156.213673,43.3708904 C155.040352,41.3110731 147.761499,33.5060274 145.628001,31.964726 C138.602309,26.8890868 131.838673,23.1395662 123.586597,20.4065982 C112.851222,16.8508904 100.448949,16.6134475 89.4645619,19.3876712 C80.4722694,21.6588128 73.0849177,27.5473973 67.2669335,34.4510502 C64.9428228,37.2089498 60.1457872,49.6242466 59.650135,52.3969863 C58.0612022,61.2815068 56.5306686,82.1853881 56.5306686,82.1853881 C56.5306686,82.1853881 58.6976647,86.8363014 59.5828426,89.2959132 C60.8293841,92.7602055 61.7299769,96.3705251 62.5543841,99.95621 C63.3449967,99.3626027 64.1353129,98.7689954 64.9259256,98.1753881" mask="url(#b)"/>
    <path fill="#EEBB8B" d="M56.9116864,81.9692854 C52.9701845,78.6192626 50.4756192,85.2430297 50.859809,88.3431438 C51.3530896,92.3203128 52.6251252,96.206363 53.1104018,100.209947 C53.6199868,104.409719 53.3866864,108.313874 55.2302635,112.274126 C56.1195916,114.184651 57.1286825,115.781454 59.1726548,116.615176 C60.9272991,117.331066 60.5158366,117.177619 61.6135639,115.966363 C64.845975,112.401158 64.2462714,105.204559 64.4238406,100.794947 C64.7330303,93.1136689 62.1744335,87.6186461 56.9116864,81.9692854" mask="url(#b)"/>
    <path fill="#655034" d="M115.795224 97.8679886C118.108366 92.9505457 118.481884 90.0623493 113.394335 87.5080571 110.122793 85.8655457 106.05975 84.1037192 102.424769 83.6374406 98.4020422 83.1212991 93.7458169 83.6715731 90.0482872 85.1306598 86.5588603 86.5072352 84.1360343 88.901847 82.6135046 91.3302945 81.43722 94.0724635 87.7016469 92.1414589 88.0588603 92.4035365 87.9343544 92.312121 92.4462121 88.4245868 95.7826746 87.5908653 99.9444335 86.5505685 104.105599 88.1898151 107.202536 90.8859795 110.079216 93.3907055 111.132773 94.5601119 110.852042 98.3971895 110.653426 101.115021 110.990184 98.4114361 110.653426 101.115021 112.812121 99.0391758 114.638801 100.700089 115.795224 97.8679886M127.821133 94.0695548C131.626568 90.5197831 137.306113 88.4590753 142.396627 90.8465639 144.149789 91.66871 146.600184 93.774532 147.649592 95.4025 148.583682 96.852089 148.257003 98.5964041 148.127457 100.302432 145.465698 95.9643493 142.40641 93.3501027 137.266094 92.3739155 134.16056 91.7838699 133.015698 92.8728425 130.373505 94.4188927 128.701271 95.3977511 127.130422 97.06371 127.821133 94.0695548" mask="url(#b)"/>
    <path fill="#886A46" d="M114.481212 89.1722945C114.96471 89.0713813 115.643564 88.3525228 115.773406 87.5131621 115.92637 86.5236187 115.24307 85.7869521 114.66975 85.1040068 113.442477 83.6431393 109.186449 80.5026598 99.3964295 79.8550342 95.4442556 79.5935502 91.1301252 79.6199658 87.4462319 81.2948288 84.6644137 82.5598059 77.7211331 87.0296689 80.0938603 87.2430708 82.4665876 87.4564726 90.5565086 84.9101941 96.6712319 85.2167922 105.402951 85.6542808 111.002754 87.9272032 114.481212 89.1722945M127.348692 88.727089C128.430708 85.276153 138.93308 85.8905365 141.443356 86.4862215 144.24059 87.150468 147.44721 87.9396689 149.822309 89.6376826 151.781795 91.0391895 152.151756 92.8692808 152.475175 95.1680251 150.081993 94.835605 147.657092 94.2859247 145.512625 93.1435274 142.719542 91.6553539 140.298198 91.0890525 137.12893 90.7213128 134.661933 90.4348973 132.654127 90.9468836 130.259167 91.6048973 127.82389 92.2738927 126.243258 92.2519292 127.348692 88.727089" mask="url(#b)"/>
    <path fill="#655034" d="M106.640688 93.5834795C105.510056 92.1588219 103.739107 90.9959452 102.092368 90.3186393 100.051064 89.4789817 97.5751746 89.6487534 95.4410837 90.1242329 92.8596607 90.6994384 90.3609453 91.8373836 88.0979018 93.1792329 90.8779414 92.1451689 94.3721113 90.362863 97.3753722 90.5314475 100.527151 90.7083425 103.720431 92.4965845 106.640688 93.5834795M131.082003 96.1471804C134.473307 91.9025913 143.559572 94.6658333 145.16303 99.1318379 141.452457 94.9650114 136.000876 94.734395 131.082003 96.1471804" mask="url(#b)"/>
    <path fill="#221F20" d="M137.939552 97.334395C137.939552 99.0822717 135.192714 99.0822717 135.192714 97.334395 135.192714 95.6069977 137.939552 95.5342808 137.939552 97.334395M100.121973 92.4649452C100.121973 94.2128219 97.375135 94.2128219 97.375135 92.4649452 97.375135 90.7375479 100.121973 90.6648311 100.121973 92.4649452" mask="url(#b)"/>
    <path fill="#886A46" d="M60.6842457 94.0724338C62.9321706 97.3812009 60.7343445 98.9756301 60.6317754 102.322685 60.5959058 103.495059 62.3781192 108.989489 60.2360244 108.496498 59.7030204 108.373918 57.5499572 105.702685 57.1316765 104.998667 56.3173485 103.628324 56.058554 101.236384 56.2035145 99.7125936 56.4872101 96.7291233 58.4911627 95.6244201 60.6842457 94.0724338M60.2650461 92.7614521L59.1382675 88.4245571C58.2791765 89.3701735 57.1408366 90.7188493 57.570975 92.0880046 58.0654414 93.6628447 59.0822398 93.6067489 60.2650461 92.7614521M56.9116864 85.7883174C56.5855995 85.1184315 55.7914295 83.1663539 54.8158366 83.421605 54.1938999 83.5845502 53.3442951 85.2588196 53.1388603 86.8858973 52.933722 88.5129749 53.5562516 92.6519018 54.356054 93.5221301 54.0385639 93.1766507 54.4621805 89.9293219 54.5445916 89.3932945 54.8196904 87.6041621 55.6322398 87.0467648 56.9116864 85.7883174" mask="url(#b)"/>
    <path fill="#AE8C65" d="M90.7314987,141.145374 C91.2621311,145.395603 93.3796212,152.242269 98.1947398,153.177795 C104.609167,154.424073 101.263218,145.948251 107.016281,145.802521 C109.479424,145.740192 114.293356,146.959758 116.705807,147.377064 C119.62725,147.882521 120.099483,147.938913 120.394443,150.941973 C121.042764,157.539027 123.971914,158.483457 128.944443,155.14768 C132.914404,152.484164 134.17221,149.491196 133.314898,144.478479 C132.853337,141.777269 133.10887,141.212155 130.653435,140.959575 L108.115491,138.643913 C105.569048,138.382132 89.8842655,134.360443 90.7314987,141.145374 M98.1274473,171.386995 C88.8793248,167.763616 80.3385145,162.329735 74.369641,154.30832 C68.8664789,146.912863 63.5874275,138.890854 61.9199374,129.700626 C61.2479018,125.995922 60.4543248,121.921402 60.9733959,118.151699 C61.3807082,115.191973 62.1132181,112.231059 62.6216173,109.282315 C63.1777437,106.058434 63.4652931,102.651128 64.2736924,99.4824521 C64.8019532,97.4107626 65.7173682,96.9032283 66.9707279,95.1135023 C66.6221113,96.8222009 66.6176647,97.5965616 66.2690481,99.3052603 C65.9210244,101.012475 65.8510639,105.807041 66.1492852,107.5101 C66.5142062,109.593959 79.6080797,132.237703 83.3210244,135.050215 C85.3836726,136.612589 91.7731983,130.427201 93.6825856,129.155991 C95.519641,127.93316 97.4198386,126.437863 99.4721113,125.602361 C102.371321,124.421379 105.533179,125.107589 108.567862,125.304073 C114.120234,125.664096 119.711439,125.813388 125.224681,126.617726 C130.217961,127.345785 132.489305,130.500511 135.754621,134.185032 C137.165985,135.777384 139.148001,139.178457 141.044937,140.16711 C143.142269,141.260534 145.183277,137.201744 146.276262,135.361858 C148.831005,131.061767 150.147507,126.03421 152.020135,121.40526 C149.967566,133.147703 148.123692,145.652635 140.530313,155.147977 C135.038416,162.01542 128.279819,169.776539 119.479918,172.31421 C116.404918,173.201059 112.672408,172.893868 109.512329,172.810763 C105.841479,172.714301 101.593752,172.744872 98.1274473,171.386995" mask="url(#b)"/>
    <path fill="#91655D" d="M94.8947101,137.312719 C101.754097,139.077811 108.53226,139.934683 115.573663,140.618815 C118.982457,140.949751 130.550244,141.740436 132.885323,142.587217 C132.66892,140.982696 132.180975,140.589728 130.305679,140.017194 C128.143722,139.357696 122.224651,136.876715 120.481271,137.438861 C116.502714,138.721053 114.294216,137.994477 112.62643,136.72297 C109.768129,134.543244 101.56556,137.010573 94.8947101,137.312719" mask="url(#b)"/>
    <path fill="#7B544D" d="M104.43892,144.437461 C108.031509,145.011479 111.363228,146.049699 115.04386,146.318009 C118.377062,146.560795 121.771627,146.757575 125.104236,146.509447 C121.573307,148.346959 117.196627,148.964014 113.288327,148.405726 C110.506805,148.008306 105.69139,147.289744 104.43892,144.437461" mask="url(#b)"/>
    <path fill="#404041" d="M41.6077141,134.021374 C39.3938801,135.132904 37.8544532,138.278429 35.6836034,139.402128 C26.8525758,143.972904 -2.47358675,153.183699 -2.85807292,153.75 C-3.41331007,154.567694 14.4135441,212.326489 14.4135441,212.326489 L145.546153,212.326489 C143.933801,207.230073 125.736074,193.127744 121.860679,189.783064 C118.480343,186.866078 115.080145,183.971945 111.67224,181.087904 C109.222141,184.468498 108.725303,185.449731 108.725303,185.449731 C102.564335,198.751877 86.4820224,191.378977 80.3068248,187.395872 C78.2198682,186.049571 77.8036627,185.664913 76.8185837,183.448977 C74.6601845,178.592379 72.3648287,173.790096 69.8714493,169.096443 C65.2244137,160.348155 61.2769829,151.666055 58.1509947,142.240758 C57.5032675,140.288384 56.7058366,138.456215 56.7019829,136.429342 C56.696054,133.387105 57.3150264,130.231489 57.6147299,127.20053 C55.7714493,127.214183 50.7200659,129.44763 41.6077141,134.021374 Z" mask="url(#b)"/>
    <path fill="#373637" d="M39.5038011,144.437461 C42.3546904,150.445064 45.7845323,156.995817 46.9178327,163.594356 C48.1359157,170.68737 46.5721805,189.275589 47.6796904,190.049059 C48.3294928,190.502872 74.1973781,199.997027 78.1877931,201.089858 C71.2608169,200.179858 39.6736627,193.516023 39.3300856,192.431205 C39.2782082,192.26737 43.3519236,169.457119 43.7206983,165.44463 C44.3527141,158.558489 41.6956983,150.887005 39.5038011,144.437461" mask="url(#b)"/>
    <path fill="#86ACCD" d="M77.3702931,184.601317 C78.480471,188.399811 80.0258267,193.30271 81.1360046,197.1015 C82.2206884,200.813326 85.137388,212.32634 85.137388,212.32634 L113.889957,212.32634 C113.889957,212.32634 109.425234,190.578053 108.725333,185.449582 C103.846182,196.490678 85.1507279,193.442505 77.3702931,184.601317" mask="url(#b)"/>
    <path fill="#FEFEFE" d="M138.65057 96.6429612C138.65057 97.0629384 138.310847 97.4030753 137.89138 97.4030753 137.47221 97.4030753 137.13219 97.0629384 137.13219 96.6429612 137.13219 96.222984 137.47221 95.882847 137.89138 95.882847 138.310847 95.882847 138.65057 96.222984 138.65057 96.6429612M100.859463 91.8532329C100.859463 92.27321 100.51974 92.613347 100.100273 92.613347 99.680807 92.613347 99.3410837 92.27321 99.3410837 91.8532329 99.3410837 91.4332557 99.680807 91.0931187 100.100273 91.0931187 100.51974 91.0931187 100.859463 91.4332557 100.859463 91.8532329" mask="url(#b)"/>
    <path fill="#886A46" d="M108.013307,114.492466 C108.013307,114.492466 106.655599,117.315068 106.423781,118.526918 C106.191667,119.738767 106.527536,121.548379 108.013307,121.053014 C109.499078,120.557648 113.156588,118.441735 114.413801,118.526918 C115.671014,118.6121 117.525264,118.726667 118.141271,119.642009 C118.756983,120.557648 119.216469,121.52879 119.927042,122.66347 C120.546607,123.652717 122.528623,123.221164 122.528623,123.221164 C122.528623,123.221164 123.557279,122.159498 124.128524,122.159498 C124.700066,122.159498 125.843149,122.909817 125.728722,123.221164 C125.614592,123.532808 125.04305,124.448151 124.357082,124.448151 C123.67141,124.448151 122.185639,124.676986 121.728524,124.448151 C121.27141,124.219018 120.261133,124.733379 119.918445,124.860411 C119.575461,124.987443 118.877339,125.916438 118.071014,126.05 C117.26469,126.183858 115.099473,126.965639 112.92803,127.309041 C110.756291,127.652146 106.984651,127.582397 105.041765,125.157215 C103.098584,122.731735 102.298781,120.443082 103.670125,117.925297 C105.041765,115.407808 108.013307,114.492466 108.013307,114.492466" mask="url(#b)"/>
    <path fill="#655034" d="M109.956252,126.166644 C109.956252,126.166644 117.72809,126.393699 118.071074,126.05 C118.414058,125.706895 117.385402,123.221164 117.385402,123.221164 C117.385402,123.221164 113.270777,121.358425 112.242121,121.930662 C111.213465,122.502603 107.670382,124.562717 107.098841,123.418242 C106.527596,122.274064 106.184611,122.81484 106.070481,121.285708 C105.956054,119.756279 107.098841,115.865776 107.098841,115.865776 C107.098841,115.865776 104.127299,118.901187 104.470283,120.988014 C104.812971,123.07484 106.527596,126.418037 109.956252,126.166644" mask="url(#b)"/>
    <path fill="#655034" d="M107.098959,123.418331 C107.098959,123.418331 108.570501,123.496687 109.027615,123.496687 C109.48473,123.496687 110.070501,122.502692 110.070501,122.502692 C110.070501,122.502692 110.527615,121.587349 111.785125,121.358514 C113.042042,121.129678 114.985224,121.472783 115.785323,121.930454 C116.585125,122.388422 117.385224,124.219107 117.385224,124.219107 C117.385224,124.219107 114.299552,122.429975 113.270896,122.7526 C112.24224,123.074929 111.556568,123.761436 110.756173,124.219107 C109.95637,124.677075 109.075935,124.777989 108.276133,124.320317 C107.476034,123.862349 107.098959,123.418331 107.098959,123.418331" mask="url(#b)"/>
    <path fill="#886A46" d="M117.385283,93.0553767 L117.385283,97.8680479 C117.385283,100.989532 111.847141,104.818299 111.847141,104.818299 L107.099018,108.269235 C107.099018,108.269235 111.600204,98.9430708 112.242003,96.4950342 C112.884097,94.0467009 117.385283,93.0553767 117.385283,93.0553767" mask="url(#b)"/>
  </g>
</svg>
