<svg xmlns="http://www.w3.org/2000/svg" xmlns:xlink="http://www.w3.org/1999/xlink" width="210" height="210" viewBox="0 0 210 210">
  <defs>
    <path id="stevebrown-a" d="M210,104.999866 C210,162.98973 162.98973,210 104.999866,210 C47.0100017,210 0,162.98973 0,104.999866 C0,47.0100017 47.0100017,0 104.999866,0 C162.98973,0 210,47.0100017 210,104.999866"/>
  </defs>
  <g fill="none" fill-rule="evenodd">
    <mask id="stevebrown-b" fill="#fff">
      <use xlink:href="#stevebrown-a"/>
    </mask>
    <use fill="#7BCAEC" xlink:href="#stevebrown-a"/>
    <path fill="#404041" d="M63.9051632,117.447507 C62.2657421,117.485467 57.8036368,119.544327 49.7619,123.742713 C47.8084263,124.76289 46.5370579,127.691986 44.5674789,128.614416 C25.4628474,137.559711 -18.0000474,160.819281 -18.0000474,160.819281 C-17.7428368,177.197161 -17.4482053,213.974793 -17.4482053,213.974793 C-17.4482053,213.974793 139.294847,214.154629 150.709689,213.974793 C148.837216,195.509108 125.423953,175.167245 121.929584,172.244793 C118.882374,169.695773 115.751795,165.834757 112.679953,163.315157 C110.5479,166.358132 63.6811105,120.149316 63.9051632,117.447507" mask="url(#stevebrown-b)"/>
    <path fill="#E9BC9C" d="M116.967079,154.92109 L65.9403947,105.958744 L62.2551316,122.055719 C62.2551316,122.055719 65.3525526,139.431475 70.0306579,146.167968 C74.7082895,152.90446 86.1619737,180.970726 86.1619737,180.970726 L103.791079,180.970726 C103.791079,180.970726 106.597184,179.845209 108.264553,172.926509 C110.228921,164.773631 116.967079,154.92109 116.967079,154.92109" mask="url(#stevebrown-b)"/>
    <path fill="#E9BC9C" d="M70.0307053,105.657768 C70.0307053,105.657768 79.8326526,136.899395 86.1624947,142.183439 C92.4918632,147.466535 107.249968,150.637151 114.7716,150.108557 C122.293232,149.579963 130.600705,145.881701 135.545968,140.069537 C140.490758,134.257373 147.853232,114.44363 147.853232,114.44363 L150.790074,92.0486013 C150.790074,92.0486013 154.995916,77.0742953 154.468232,67.6231823 C153.941021,58.1720692 148.3146,44.1704905 148.3146,44.1704905 C148.3146,44.1704905 111.398495,32.2818652 103.791126,32.8104594 C96.1837579,33.3385792 82.7334947,37.8302067 80.0964947,41.7927654 C77.4590211,45.7553242 70.0307053,77.8301756 70.0307053,77.8301756 L70.0307053,105.657768 Z" mask="url(#stevebrown-b)"/>
    <path fill="#C4BCBB" d="M126.381079 91.0191237C126.381079 91.0191237 128.013868 90.056361 129.281921 89.213647 130.549974 88.3714075 132.268026 87.1737667 134.161342 87.4964275 136.054658 87.8200373 140.094711 89.213647 140.094711 89.213647L142.477342 92.1346758C142.477342 92.1346758 140.299342 94.0046847 138.867395 93.8903299 137.435447 93.7759752 130.716237 94.328769 130.886763 93.4409774 131.056342 92.5541348 129.281921 91.8703787 129.281921 91.8703787 129.281921 91.8703787 127.950395 92.1346758 127.274447 92.1356248 127.274447 92.1356248 126.381079 91.7337224 126.381079 91.0191237M104.735937 89.9287676L107.5482 88.9171313 108.955042 88.9171313 107.5482 86.5721468C107.5482 86.5721468 103.219674 83.6193264 101.2572 83.9173131 99.2952 84.2152998 98.0498842 83.4954816 96.2119895 84.2152998 94.3736211 84.9355925 91.0412526 86.5721468 91.0412526 86.5721468 91.0412526 86.5721468 92.5039895 87.6962399 95.2182 88.3420359 97.9324105 88.9883064 102.725621 90.6519073 104.735937 89.9287676" mask="url(#stevebrown-b)"/>
    <path fill="#E4D6CD" d="M92.6449579 87.2787264C92.9684842 87.1705401 96.2037474 85.8742031 98.7919579 85.8742031 101.380168 85.8742031 103.752379 86.3059991 105.046958 86.9541676 106.341063 87.6028106 107.095642 89.1150457 107.095642 89.1150457 107.095642 89.1150457 102.8898 89.4391299 99.8705368 89.1150457 96.8508 88.7909614 92.6449579 87.2787264 92.6449579 87.2787264M128.232805 91.5997233C128.232805 91.5997233 131.683595 89.6547432 134.163805 89.763404 136.644489 89.8711157 137.507068 90.5197588 138.693647 91.0592665 139.879753 91.5997233 141.173384 93.1124328 141.173384 93.1124328 141.173384 93.1124328 136.320963 93.8683131 133.948279 93.3283308 131.576068 92.7878741 128.232805 91.5997233 128.232805 91.5997233" mask="url(#stevebrown-b)"/>
    <path fill="#657B86" d="M103.791316,85.9363153 C103.791316,87.7479605 102.324789,89.2165415 100.516737,89.2165415 C98.7082105,89.2165415 97.2421579,87.7479605 97.2421579,85.9363153 C97.2421579,84.1251446 98.7082105,82.6560891 100.516737,82.6560891 C102.324789,82.6560891 103.791316,84.1251446 103.791316,85.9363153" mask="url(#stevebrown-b)"/>
    <path stroke="#41515A" stroke-width=".5" d="M103.791316,85.9363153 C103.791316,87.7479605 102.324789,89.2165415 100.516737,89.2165415 C98.7082105,89.2165415 97.2421579,87.7479605 97.2421579,85.9363153 C97.2421579,84.1251446 98.7082105,82.6560891 100.516737,82.6560891 C102.324789,82.6560891 103.791316,84.1251446 103.791316,85.9363153 Z" mask="url(#stevebrown-b)"/>
    <path fill="#657B86" d="M137.4354,90.4955118 C137.4354,92.3066825 135.969347,93.7757379 134.161295,93.7757379 C132.352768,93.7757379 130.886716,92.3066825 130.886716,90.4955118 C130.886716,88.6838665 132.352768,87.2152856 134.161295,87.2152856 C135.969347,87.2152856 137.4354,88.6838665 137.4354,90.4955118" mask="url(#stevebrown-b)"/>
    <path fill="#D5AD90" d="M129.281921,89.2137894 C129.281921,89.2137894 132.267079,87.1734346 134.161342,87.4965698 C136.055132,87.8197051 140.094711,89.2137894 140.094711,89.2137894 L141.808974,91.8705211 L144.446921,92.9125255 C144.446921,92.9125255 142.827868,88.4944457 140.321605,87.4624058 C137.814868,86.4294169 136.100132,84.4146851 132.939237,85.0405521 C129.778342,85.6668936 126.381079,89.081878 126.381079,89.081878 L129.281921,89.2137894 Z" mask="url(#stevebrown-b)"/>
    <path fill="#DDB191" d="M63.2964316,76.5941002 C63.2964316,76.5941002 61.1080105,74.6396302 59.5254316,76.7530581 C57.9428526,78.866486 57.4156421,80.4517942 58.1185895,83.2693818 C58.8220105,86.0879184 60.2748,93.1323619 60.1639579,96.6550581 C60.0526421,100.177754 62.1624316,105.109244 63.5692737,106.341524 C64.9756421,107.574752 66.7822737,107.926832 66.7822737,107.926832 L68.8437474,104.757165 C68.8437474,104.757165 70.9535368,90.842894 69.5471684,86.2639583 C68.1408,81.6850226 63.2964316,76.5941002 63.2964316,76.5941002" mask="url(#stevebrown-b)"/>
    <path fill="#775844" d="M126.381079,87.3644213 C126.381079,87.3644213 129.545763,84.3266652 131.919395,83.9304568 C134.293026,83.5342483 138.380921,83.9304568 139.5675,84.5904878 C140.754553,85.2509933 144.182605,88.5535211 144.446921,89.0816408 C144.710289,89.6097605 144.446921,92.9122882 144.446921,92.9122882 C144.446921,92.9122882 141.017921,87.23251 139.303658,86.8363016 C137.589395,86.4400931 134.556868,85.2476718 132.710447,85.7117339 C130.8645,86.175796 126.776605,88.8178182 126.381079,89.0816408 C125.985553,89.3459379 126.381079,87.3644213 126.381079,87.3644213" mask="url(#stevebrown-b)"/>
    <path fill="#614632" d="M129.281921,89.2137894 C129.809605,88.5532838 132.710447,87.2322727 134.161342,87.4965698 C135.611289,87.760867 138.908132,88.1570754 140.094711,89.2137894 C141.281763,90.2709778 141.808974,91.8705211 141.808974,91.8705211 C141.808974,91.8705211 139.917553,89.6099978 137.039447,88.9494922 C134.161342,88.2894612 132.314921,88.3421308 132.314921,88.3421308 L129.281921,89.2137894 Z" mask="url(#stevebrown-b)"/>
    <path fill="#221F20" d="M135.382926,90.2707406 C135.382926,90.9464302 134.835821,91.4944789 134.161295,91.4944789 C133.486295,91.4944789 132.939189,90.9464302 132.939189,90.2707406 C132.939189,89.5945765 133.486295,89.0470022 134.161295,89.0470022 C134.835821,89.0470022 135.382926,89.5945765 135.382926,90.2707406" mask="url(#stevebrown-b)"/>
    <path fill="#E9BC9C" d="M91.4995895 87.1234696C91.4995895 87.1234696 97.6229053 88.981616 100.323853 89.1794829 103.174958 89.3882634 106.484589 89.4784186 106.484589 89.4784186 106.484589 89.4784186 102.083116 91.995647 101.354116 92.0578067 100.625116 92.1209153 95.6026421 90.0739175 94.8049579 89.5904009 94.0068 89.1078333 91.4995895 87.1234696 91.4995895 87.1234696M129.281921 91.8703313C129.281921 91.8703313 133.303974 93.7094976 137.435447 93.7759277 141.567395 93.8414089 139.762184 95.4490186 139.261026 95.5491384 138.759868 95.6497326 131.599658 95.1472359 131.599658 95.1472359L129.281921 91.8703313z" mask="url(#stevebrown-b)"/>
    <path fill="#9F755D" d="M66.6524368,87.3672208 C66.6524368,87.3672208 68.0199632,89.3705645 67.8958579,90.4002319 C67.7712789,91.4303738 66.7770158,93.3155667 66.6524368,93.6804581 C66.5283316,94.0448749 66.6524368,95.4674293 66.6524368,95.4674293 C66.6524368,95.4674293 67.3515947,99.0257131 67.2507,99.648733 C67.1498053,100.271278 65.9068579,100.644711 65.6581737,99.648733 C65.4094895,98.6522807 64.1665421,98.0297353 63.6691737,97.4071898 C63.1718053,96.7846443 62.3016474,93.0821122 62.7990158,91.3843472 C63.2963842,89.6870568 64.4147526,88.95158 64.4147526,88.95158 L66.6524368,87.3672208 Z" mask="url(#stevebrown-b)"/>
    <path fill="#A2785F" d="M66.2796,86.2004226 L65.2772842,82.3398816 C65.2772842,82.3398816 63.9178105,83.8279171 63.7937053,84.8272164 C63.6691263,85.8265157 64.6638632,87.1071942 65.0366526,86.8405246 C65.4094421,86.573855 66.2796,86.2004226 66.2796,86.2004226" mask="url(#stevebrown-b)"/>
    <path fill="#9F755D" d="M63.2964316,79.9934736 C63.2964316,79.9934736 62.0534842,77.4183561 61.4315368,77.8871632 C60.8100632,78.3554958 59.9399053,80.9704714 59.9399053,80.9704714 C59.9399053,80.9704714 60.9346421,87.4806266 61.0587474,86.8405246 C61.1833263,86.2004226 60.9346421,82.2155623 61.6181684,81.5930169 C62.3016947,80.9704714 63.2964316,79.9934736 63.2964316,79.9934736" mask="url(#stevebrown-b)"/>
    <path fill="#FEFEFE" d="M136.034716,89.5942443 C136.034716,89.9676767 135.732032,90.2708829 135.359242,90.2708829 C134.986453,90.2708829 134.683768,89.9676767 134.683768,89.5942443 C134.683768,89.2203375 134.986453,88.9171313 135.359242,88.9171313 C135.732032,88.9171313 136.034716,89.2203375 136.034716,89.5942443" mask="url(#stevebrown-b)"/>
    <path fill="#41515A" d="M103.872268,86.3894639 C103.872268,86.3894639 102.414742,85.6217211 100.684374,85.3996545 C99.0861632,85.1941956 97.1885842,85.5054683 97.1890579,85.6805592 C97.3837421,83.8319029 99.0378474,82.4919118 100.883321,82.6878807 C102.728795,82.8833752 104.066953,84.5408075 103.872268,86.3894639" mask="url(#stevebrown-b)"/>
    <path fill="#221F20" d="M101.738368,85.9363153 C101.738368,86.6124794 101.191263,87.1600537 100.516737,87.1600537 C99.8417368,87.1600537 99.2951053,86.6124794 99.2951053,85.9363153 C99.2951053,85.2601512 99.8417368,84.7125769 100.516737,84.7125769 C101.191263,84.7125769 101.738368,85.2601512 101.738368,85.9363153" mask="url(#stevebrown-b)"/>
    <path fill="#FEFEFE" d="M102.413747,85.3306621 C102.413747,85.7040945 102.111063,86.0073007 101.738274,86.0073007 C101.365484,86.0073007 101.0628,85.7040945 101.0628,85.3306621 C101.0628,84.9572297 101.365484,84.6540235 101.738274,84.6540235 C102.111063,84.6540235 102.413747,84.9572297 102.413747,85.3306621" mask="url(#stevebrown-b)"/>
    <path fill="#D5AD90" d="M91.0411579,86.5720519 C91.0411579,86.5720519 95.6453684,84.0163889 98.0298947,83.7724953 C100.414895,83.5276528 104.299579,84.4875685 104.299579,84.4875685 L107.548579,86.5720519 L109.883368,86.5720519 C109.883368,86.5720519 105.355895,81.2509965 103.791316,81.3966683 C102.226737,81.5418656 98.9071579,80.7817149 96.975,81.8170763 C95.0423684,82.8514887 91.0411579,85.0403623 91.0411579,85.0403623 L91.0411579,86.5720519 Z" mask="url(#stevebrown-b)"/>
    <path fill="#614632" d="M107.548437,86.5720519 C106.732753,86.3077548 104.359595,84.2745175 102.909174,83.7724953 C101.458753,83.2695242 99.4806474,83.614012 98.0297526,83.7724953 C96.5798053,83.9305042 92.4919105,85.7117814 92.4919105,85.7117814 L91.0410158,86.5720519 C91.0410158,86.5720519 98.3182263,83.8398745 99.2949632,84.2152049 C100.2717,84.5905353 103.436384,85.0403623 103.436384,85.0403623 L107.548437,86.5720519 Z" mask="url(#stevebrown-b)"/>
    <path fill="#86ACCD" d="M80.9240211,167.809963 C81.9642316,171.1756 84.3321789,176.701165 85.3733368,180.066327 C86.3898632,183.355094 90.5748632,214.729107 90.5748632,214.729107 L119.796442,213.974651 C119.796442,213.974651 111.890653,183.412034 108.3906,172.296846 C104.204653,182.192092 87.9686526,175.569954 80.9240211,167.809963" mask="url(#stevebrown-b)"/>
    <path fill="#373637" d="M55.9464632,173.521153 C54.9498316,172.848785 56.0814632,156.283477 54.8986737,149.987796 C53.7983053,144.131029 50.6558842,138.348759 48.0359368,133.041938 C50.0756211,138.75161 52.5468316,145.541721 52.0807263,151.679393 C51.8088316,155.255233 48.5039368,175.613703 48.5522526,175.758426 C48.8085158,176.525694 64.1203579,183.854364 73.4268316,187.141708 L72.8887263,211.413863 L78.9215684,212.587304 L78.2285684,188.564737 C78.5047263,188.619304 56.5305158,173.915938 55.9464632,173.521153" mask="url(#stevebrown-b)"/>
    <path fill="#886A46" d="M126.416226,82.667145 C127.378753,79.5952248 136.722174,80.1423246 138.955595,80.6723424 C141.444332,81.2635707 144.296858,81.9658324 146.409489,83.4775929 C148.153121,84.7250563 148.482332,86.3540186 148.769858,88.4000674 C146.640647,88.1039787 144.483963,87.6147681 142.575489,86.5979122 C140.090542,85.2731051 137.936226,84.7696594 135.116858,84.4417792 C132.922279,84.1869721 131.136489,84.6429676 129.005384,85.228502 C126.839226,85.8235264 125.432858,85.8040718 126.416226,82.667145" mask="url(#stevebrown-b)"/>
    <path fill="#AE8C65" d="M93.8397789,129.324412 C94.3115684,133.108084 96.1954105,139.201627 100.479411,140.034376 C106.185411,141.14376 103.209253,133.599667 108.327411,133.469654 C110.518674,133.414612 114.801253,134.499796 116.947516,134.87133 C119.547095,135.321157 119.966779,135.371454 120.229674,138.044793 C120.806147,143.916745 123.412358,144.757086 127.836095,141.788133 C131.367884,139.417525 132.486726,136.753201 131.724568,132.291467 C131.312937,129.88717 131.540779,129.383725 129.356147,129.159286 C122.672463,128.472208 115.989253,127.78513 109.305095,127.098053 C107.039937,126.865073 93.0856737,123.284962 93.8397789,129.324412 M100.419726,156.242385 C92.1918316,153.017676 84.5934632,148.180612 79.2834632,141.040793 C74.3874632,134.458039 69.6908842,127.317747 68.2073053,119.137822 C67.6095158,115.840039 66.9037263,112.213427 67.3650947,108.857756 C67.7274632,106.223325 68.3792526,103.587946 68.8316211,100.963006 C69.3261474,98.093698 68.3920421,94.3166692 69.1110947,91.4962346 C69.5809895,89.6523233 71.5860947,89.944616 72.7006737,88.3512412 C72.3908842,89.8720173 72.3866211,90.5619419 72.0768316,92.082718 C71.7670421,93.6020705 71.7049895,97.8697335 71.9702526,99.3857645 C72.2947263,101.240589 83.9435684,121.395973 87.2470421,123.898966 C89.0816211,125.289729 94.7663053,119.784567 96.4649368,118.652882 C98.0991474,117.564376 99.7902,116.233401 101.615779,115.489858 C104.194989,114.438838 107.007726,115.049046 109.707726,115.224137 C114.647779,115.544425 119.621937,115.677286 124.526463,116.393308 C128.968674,117.041476 130.989411,119.849574 133.894989,123.128851 C135.150253,124.54666 136.913779,127.573977 138.601042,128.453702 C140.467358,129.427379 142.282989,125.814527 143.254989,124.176549 C145.527726,120.349224 146.699147,115.873729 148.364621,111.75411 C146.539042,122.205472 144.898674,133.336319 138.142989,141.788607 C133.257411,147.90113 127.244463,154.808918 119.415411,157.068017 C116.680358,157.857113 113.359358,157.5838 110.548042,157.509778 C107.282463,157.424368 103.502937,157.451414 100.419726,156.242385" mask="url(#stevebrown-b)"/>
    <path fill="#83624C" d="M105.630111,132.283116 C107.000953,132.476238 111.161795,133.829041 115.8489,134.022163 C120.536953,134.215285 124.213689,133.938176 124.213689,133.938176 C124.213689,133.938176 121.535953,135.374965 117.260005,135.568087 C112.983584,135.761209 111.363584,134.795125 108.952532,134.408407 C106.541479,134.022163 105.630111,132.283116 105.630111,132.283116" mask="url(#stevebrown-b)"/>
    <path fill="#D79385" d="M99.3847737,126.716506 C99.3847737,126.716506 101.860721,129.926032 103.171405,130.65534 C104.482089,131.384648 108.559089,133.135083 112.054405,133.718719 C115.549247,134.301881 121.956774,134.301881 124.141405,134.010063 C126.325563,133.718719 127.927563,129.342396 127.927563,129.342396 L99.3847737,126.716506 Z" mask="url(#stevebrown-b)" opacity=".508"/>
    <path fill="#8C5845" d="M99.2566421,125.520526 C99.2566421,125.520526 103.866063,125.399054 106.049747,125.034637 C108.233432,124.669746 112.236063,125.034637 112.600326,125.034637 C112.964116,125.034637 116.603432,126.614251 118.059063,126.614251 C119.514695,126.614251 121.213326,125.885418 121.940905,126.127888 C122.668958,126.371307 126.065274,128.193866 126.671589,128.43681 C127.278379,128.679755 128.491484,128.558282 128.370221,129.044646 C128.248484,129.530535 126.186537,129.652008 124.002853,129.530535 C121.819642,129.408588 112.115274,128.072393 112.115274,128.072393 C112.115274,128.072393 104.038484,127.833719 102.217168,126.955892 C100.395853,126.078065 99.2566421,125.520526 99.2566421,125.520526" mask="url(#stevebrown-b)"/>
    <path fill="#6D342B" d="M98.8773158,125.353265 C98.8773158,125.353265 97.5007895,124.851717 97.5007895,125.353265 C97.5007895,125.854812 98.3766316,126.481628 98.3766316,126.481628 L103.383,127.73526 C103.383,127.73526 110.641263,127.860529 112.518474,128.362076 C114.396158,128.863149 120.413368,128.921988 121.289211,129.423061 C122.165526,129.924608 124.282421,129.740976 125.283789,129.866245 C126.284684,129.991513 128.662579,129.615234 128.662579,129.615234 C128.662579,129.615234 130.539789,129.866245 130.289211,129.49044 C130.039105,129.114161 128.537526,128.612613 128.537526,128.612613 C128.537526,128.612613 123.907263,129.364697 122.530737,129.114161 C121.153737,128.863149 118.255263,128.283309 115.146947,128.111065 C112.248474,127.950684 105.635842,127.233713 104.008737,126.857433 C102.381632,126.481628 98.8773158,125.353265 98.8773158,125.353265" mask="url(#stevebrown-b)"/>
    <path fill="#6A5438" d="M71.8708263,90.8689916 C72.8920895,89.1247255 73.1729842,87.1911335 73.7892474,85.26371 C74.6684053,82.5144506 75.5887737,80.2197632 76.0354579,77.375129 C76.4433,74.7791335 76.2040895,71.3741135 77.1230368,68.9584284 C77.7715105,67.2535459 79.9101947,66.3496213 81.1934053,64.9939716 C83.3074579,62.7604949 83.5845632,57.8674395 83.8270895,54.7812843 C84.1103526,51.1845659 84.4272474,48.4514395 87.2144053,45.9437011 C89.1702474,44.183302 91.8674053,41.8867166 94.3599316,40.9068718 C96.5161421,40.0594129 99.3970895,40.2795814 101.671721,40.2297588 C105.036774,40.1566856 108.353984,40.2216922 111.577405,41.2646457 C117.124721,43.0592089 122.7123,47.5218918 128.693037,46.7252044 C135.580879,45.8070448 141.939616,43.7102244 147.063458,50.2284461 C151.900247,56.380353 152.899721,63.8257499 152.903511,71.3864506 C152.908247,79.5284151 151.688511,87.8682466 150.422826,95.8915858 C149.954353,98.8624373 149.582984,98.8054971 149.466932,101.804344 C149.423826,102.931284 148.769195,107.051377 148.769195,107.051377 C148.769195,107.051377 150.805089,101.680974 151.038616,100.580131 C151.913511,96.4567166 153.066458,95.0536169 154.079195,90.9615193 C155.923247,83.5090049 158.403458,76.0379849 159.100247,68.3534395 C159.942458,59.0750448 156.674037,49.4061357 152.010142,41.5061667 C150.937721,39.689302 144.353984,32.8446235 142.434616,31.5032089 C136.113774,27.08418 130.044932,23.841914 122.665879,21.5249251 C113.067142,18.5113685 102.031247,18.4738829 92.2989316,21.0969251 C84.3320368,23.2440426 77.8425632,28.5883486 72.7641947,34.8142776 C70.7349316,37.3011379 66.6413526,48.4177499 66.2387211,50.8927477 C64.9503,58.8221357 63.9205105,76.7957632 63.9205105,76.7957632 C63.9205105,76.7957632 66.4158789,80.5652 67.2377211,82.7417366 C68.3949316,85.8074882 68.3693526,88.8101313 69.1533,91.9897632 C69.8477211,91.4507299 71.1759316,91.4084993 71.8708263,90.8689916" mask="url(#stevebrown-b)"/>
    <path fill="#C69C7D" d="M118.317789,116.400757 C118.317789,116.400757 121.469684,116.604318 122.181632,116.400757 C122.893105,116.196722 126.045474,116.644176 126.756947,115.605494 C127.468895,114.567285 128.485895,113.478305 127.773947,111.883507 C127.062474,110.289183 125.449579,105.29838 125.137421,106.113099 C124.825263,106.927817 125.130316,109.882061 124.113316,110.798323 C123.096789,111.715059 122.791737,112.337604 120.961421,112.159667 C119.131105,111.981254 118.012263,110.391201 117.707684,109.066868 C117.402632,107.74301 117.707684,103.159329 117.707684,103.159329 C117.707684,103.159329 118.012263,96.1310191 117.707684,94.0939858 C117.402632,92.056478 117.805263,89.4229969 117.703421,89.7281011 C117.602053,90.0336798 113.486211,91.4182741 112.394842,93.6047752 C110.545105,97.3111033 108.336316,100.362145 107.928947,102.501196 C107.522526,104.640722 105.488053,108.978611 105.250263,109.704123 C105.012947,110.429635 107.540053,116.44109 111.098368,116.504199 C114.656684,116.567307 118.317789,116.400757 118.317789,116.400757" mask="url(#stevebrown-b)"/>
    <path fill="#775844" d="M109.369611,106.113241 C109.369611,106.113241 108.162189,108.62525 107.955663,109.703791 C107.749137,110.782807 108.048032,112.393263 109.369611,111.952452 C110.691663,111.51164 113.9454,109.628345 115.063768,109.703791 C116.182611,109.780186 117.831979,109.881729 118.379558,110.696447 C118.928084,111.51164 119.336874,112.376181 119.968768,113.38592 C120.520137,114.266594 122.283189,113.882722 122.283189,113.882722 C122.283189,113.882722 123.198347,112.937516 123.707084,112.937516 C124.215347,112.937516 125.231874,113.605139 125.130032,113.882722 C125.028663,114.159831 124.519926,114.974549 123.909821,114.974549 C123.300189,114.974549 121.978137,115.17811 121.571716,114.974549 C121.164821,114.770988 120.266242,115.228408 119.961189,115.341339 C119.656137,115.454745 118.640084,115.641698 117.922926,115.760798 C117.205768,115.879898 116.186874,114.405623 114.254716,114.710727 C112.323032,115.01678 108.543032,116.449773 106.814084,114.290793 C105.085611,112.132288 104.286032,111.409623 105.505768,109.168554 C106.725979,106.92796 109.369611,106.113241 109.369611,106.113241" mask="url(#stevebrown-b)"/>
    <path fill="#3E2B21" d="M108.556389,114.057908 C108.556389,114.057908 109.865653,114.12766 110.272074,114.12766 C110.678968,114.12766 111.200021,113.242715 111.200021,113.242715 C111.200021,113.242715 111.606442,112.427997 112.725284,112.224436 C113.843653,112.020875 115.5726,112.326454 116.284074,112.733576 C116.995547,113.141172 117.707495,114.771083 117.707495,114.771083 C117.707495,114.771083 114.962021,113.178183 114.047337,113.465256 C113.131705,113.751855 112.522074,114.363487 111.810126,114.771083 C111.098179,115.178205 110.315179,115.268361 109.603705,114.86029 C108.891758,114.453168 108.556389,114.057908 108.556389,114.057908" mask="url(#stevebrown-b)"/>
    <path fill="#775844" d="M116.3592,91.8703313 C116.3592,91.8703313 118.073463,88.4211827 117.677937,85.779635 C117.281937,83.1376129 113.326674,81.4208678 113.326674,81.4208678 C113.326674,81.4208678 105.809779,78.1183401 103.041095,77.9859543 C100.271463,77.854043 89.1218842,80.5335508 88.5127263,80.9643978 C86.8373053,82.1492271 86.1623053,84.9260075 86.1623053,84.9260075 L90.7774105,84.0624155 C90.7774105,84.0624155 90.7774105,86.4401406 91.1729368,85.779635 C91.5684632,85.118655 95.5246737,82.345196 96.9750947,81.8170763 C98.4255158,81.2880075 103.501516,81.0241849 105.579095,82.7414044 C107.6562,84.4586239 111.084726,87.3644687 111.348568,88.5535685 C111.612411,89.7426683 110.514411,98.4559322 110.514411,98.4559322 C110.514411,98.4559322 115.689411,93.5116306 116.3592,91.8703313" mask="url(#stevebrown-b)"/>
    <path fill="#A2785F" d="M117.707637,87.0317486 L117.707637,91.3155446 C117.707637,94.0942231 112.780847,97.5016155 112.780847,97.5016155 L108.556532,100.573536 C108.556532,100.573536 112.561058,92.2726133 113.131847,90.0932297 C113.703111,87.9143206 117.707637,87.0317486 117.707637,87.0317486" mask="url(#stevebrown-b)"/>
    <path fill="#886A46" d="M114.9687,83.0633534 C115.398805,82.9736727 116.002753,82.3335707 116.118332,81.586706 C116.254279,80.7055574 115.646542,80.0497969 115.136384,79.441961 C114.044542,78.1418279 110.258384,75.3460674 101.548279,74.7695486 C98.0321211,74.537043 94.1943316,74.5607681 90.9169105,76.0516506 C88.4419105,77.1776417 82.2645947,81.155859 84.3758053,81.3461339 C86.4870158,81.5359344 93.6837,79.2697171 99.1239632,79.5425552 C106.891911,79.9316461 111.874121,81.9549188 114.9687,83.0633534" mask="url(#stevebrown-b)"/>
  </g>
</svg>
