<svg xmlns="http://www.w3.org/2000/svg" width="210" height="210" viewBox="0 0 210 210" xmlns:xlink="http://www.w3.org/1999/xlink">
  <defs>
    <path id="a" d="M209.9639,104.914847 C209.9639,162.857682 162.991755,209.829828 105.04892,209.829828 C47.1060843,209.829828 0.134206897,162.857682 0.134206897,104.914847 C0.134206897,46.9720115 47.1060843,0.000134099617 105.04892,0.000134099617 C162.991755,0.000134099617 209.9639,46.9720115 209.9639,104.914847"/>
  </defs>
  <g fill="none" fill-rule="evenodd">
    <mask id="b" fill="white">
      <use xlink:href="#a"/>
    </mask>
    <use fill="#7BCAEC" xlink:href="#a"/>
    <path fill="#EABD9D" d="M70.7423218,106.753594 C73.9792184,116.439073 77.5320536,126.187847 82.1694866,135.296966 C84.8809808,140.622866 87.5527816,144.254015 93.1648506,146.726544 C100.240751,149.844092 108.861211,151.738115 116.618874,151.181602 C125.163701,150.568766 134.40692,146.166276 139.183548,138.864284 C142.852245,133.255969 145.310291,126.723441 147.733739,120.507655 C148.876268,117.57731 149.33918,115.115778 150.027379,111.637234 C151.111172,106.160337 151.804467,101.562866 152.258261,95.998 C153.180598,84.6858927 157.584697,73.6725594 155.320559,62.0117931 C154.513011,57.853364 153.271785,53.7783448 151.886,49.7794943 C151.317149,48.1381149 150.70351,44.4849732 149.416958,43.2222912 C147.947494,41.7799157 143.45623,41.3339004 141.503471,40.7704138 C130.209333,37.5109885 118.449602,33.5609502 106.707571,32.3722912 C100.171287,31.7103755 92.9124751,34.3194176 87.0528582,36.9657395 C84.5457318,38.0978084 81.3638161,39.5007586 79.8500996,41.9429808 C78.9041609,43.4695709 78.4608276,45.448613 77.9472261,47.1471188 C76.1945441,52.9442452 74.798567,58.8558927 73.4109042,64.7487663 C72.3871877,69.0946667 71.0008659,73.5679617 70.4076092,77.9996858 C70.041249,80.7377318 70.3791801,83.6729042 70.4226284,86.4345517 L70.6897548,103.415318 C70.7071877,104.528077 70.7248889,105.640835 70.7423218,106.753594" mask="url(#b)"/>
    <path fill="#D3A788" d="M119.382881,116.317096 C119.382881,116.317096 122.59108,116.473456 123.311732,116.25541 C124.032115,116.037096 127.244337,116.440467 127.951579,115.374912 C128.65882,114.309625 129.675295,113.188015 128.926215,111.580697 C128.176866,109.973648 126.457441,104.933379 126.153034,105.765333 C125.848628,106.597556 126.20587,109.590927 125.186713,110.537939 C124.167287,111.484414 123.867172,112.121655 122.003456,111.969854 C120.139471,111.818054 118.976559,110.221732 118.645333,108.882613 C118.314107,107.543494 118.550927,102.885946 118.550927,102.885946 C118.550927,102.885946 118.748858,95.7470192 118.4061,93.6840307 C118.063609,91.6210421 117.510851,89.3547586 117.412153,89.6664061 C117.313724,89.9783218 112.13882,90.7217701 112.084912,92.8528812 C111.978169,97.0577088 108.988015,99.8075556 108.608782,101.985065 C108.22928,104.163111 106.218858,108.988552 105.989011,109.728782 C105.758897,110.469011 108.424529,116.530582 112.043609,116.537824 C115.662958,116.545065 119.382881,116.317096 119.382881,116.317096" mask="url(#b)"/>
    <path fill="#DACDC5" d="M140.09159,93.5523716 C140.22864,93.5735594 142.783238,92.9277356 143.860862,92.0075441 C141.861705,89.638272 141.613621,88.8342107 138.628563,88.0017203 C133.866418,86.6735977 131.806648,88.5416054 127.806456,90.9929464 C127.83113,92.5482337 137.190747,93.1034061 140.09159,93.5523716" mask="url(#b)"/>
    <path fill="#657B86" d="M133.379395,92.7071954 C134.667556,92.9635939 135.94928,93.0877701 137.253533,93.2162375 C138.28449,92.7428659 139.062,91.7634023 139.038935,90.2842835 C138.970812,85.970567 132.31223,86.1180766 132.379548,90.3891494 C132.39564,91.4120613 132.791234,92.1820613 133.379395,92.7071954" mask="url(#b)"/>
    <path fill="#41515A" d="M139.040008,90.3638582 C138.972153,86.0501418 132.313571,86.1973831 132.380621,90.4687241 C133.234031,89.2156973 138.111234,89.4965019 139.040008,90.3638582" mask="url(#b)"/>
    <path fill="#DACDC5" d="M103.653828,84.3563563 C99.3025632,83.3884253 95.5807625,85.1279655 91.8012989,87.044249 C93.0548621,88.1645172 104.139805,90.3178889 105.555092,89.9126398 C106.970648,89.5073908 108.51333,88.9760881 110.054402,89.1383487 C108.495897,86.6347088 106.744824,85.0440192 103.653828,84.3563563" mask="url(#b)"/>
    <path fill="#EABD9D" d="M120.142314,157.992897 C104.796222,143.749103 89.4501303,129.50531 74.1040383,115.261517 C71.894613,113.210598 69.6403985,109.701211 67.4309732,107.650291 C66.6692874,110.15849 65.9521226,114.125425 65.1901686,116.633893 C64.5550728,118.725847 63.2100536,121.349103 63.1008966,123.53895 C62.9826207,125.917341 67.3821609,140.169716 69.3523525,144.298644 C71.4325057,148.65849 87.7089808,182.430943 88.3196705,182.872667 C88.7088276,183.154276 89.9323525,182.918529 90.4371034,182.910483 C92.5043831,182.878031 94.5716628,182.845579 96.6389425,182.812858 C99.8503602,182.762437 103.061778,182.711747 106.273464,182.661326 C104.816069,179.066383 119.73492,158.312322 120.142314,157.992897" mask="url(#b)"/>
    <path fill="#657B86" d="M104.013295,84.4704215 C102.115249,84.0305747 100.373831,84.0179693 98.7021456,84.3076245 C98.3172797,84.8198851 98.0836782,85.4842146 98.0962835,86.2998084 C98.1636015,90.5757088 104.823257,90.4821073 104.75567,86.1949425 C104.745479,85.5448276 104.583487,84.9977011 104.31931,84.549272 C104.220345,84.5213793 104.119234,84.4948276 104.013295,84.4704215" mask="url(#b)"/>
    <path fill="#41515A" d="M104.059908,84.4904559 C102.161862,84.0506092 100.420444,84.0380038 98.7487586,84.327659 C98.3638927,84.8401877 98.1302912,85.504249 98.1428966,86.3198429 C98.1428966,86.3198429 99.7789119,85.8081188 101.377916,85.8641724 C103.105923,85.9247854 104.727724,86.5614904 104.736307,86.2447471 C104.755885,85.506931 104.6301,85.0180038 104.366192,84.5693065 C104.266958,84.5414138 104.165847,84.5148621 104.059908,84.4904559" mask="url(#b)"/>
    <path fill="#6A5438" d="M70.9107241,91.8881954 C71.9494598,90.1178123 73.2521034,88.3249004 73.8786169,86.3686552 C74.7725249,83.5769693 74.9953985,80.3741341 75.4499962,77.4861648 C75.8646322,74.8511073 75.6213755,71.3942874 76.5555134,68.9421418 C77.2150153,67.2111839 79.3901111,66.2934061 80.6949004,64.9172759 C82.8447854,62.6496513 83.1266628,57.6826015 83.3736743,54.5497663 C83.6614521,50.8982337 83.9835594,48.1234444 86.8176207,45.5776973 C88.8073908,43.7904176 91.5499962,41.4589617 94.0844789,40.4644789 C96.2778123,39.6038276 99.2070843,39.8275057 101.520571,39.7770843 C104.942257,39.7025249 108.315667,39.7682337 111.594134,40.8273525 C117.235437,42.6494981 122.917506,47.1801877 128.99946,46.3710307 C136.004287,45.4390383 142.470303,43.3100728 147.681414,49.9270843 C152.59992,56.1731762 153.616395,63.7312989 153.620686,71.4068927 C153.625245,79.6725249 152.384556,88.1390383 151.097199,96.2845172 C150.620877,99.3001494 150.594326,102.432448 150.476854,105.477046 C150.432602,106.620916 149.867506,111.969881 149.867506,111.969881 C149.867506,111.969881 151.718349,104.9149 151.955973,103.797314 C152.845858,99.6109923 153.785628,95.4337893 154.815782,91.2796513 C156.691567,83.713751 159.213176,76.1290766 159.922295,68.3274291 C160.778119,58.9088084 157.454594,49.0927165 152.711759,41.0722184 C151.620992,39.2278123 144.925667,32.2795747 142.973713,30.9173908 C136.54605,26.4314904 130.374249,23.1398812 122.870303,20.7880421 C113.108655,17.7284253 101.885858,17.690341 91.9887701,20.353023 C83.8864713,22.5332146 77.2876973,27.9586169 72.1227165,34.279 C70.0594598,36.8040958 65.8964713,48.0893831 65.4871992,50.6021418 C64.1765096,58.6518736 63.0886935,77.5607241 63.0886935,77.5607241 C63.0886935,77.5607241 65.1154751,81.7317586 65.9509157,83.9414521 C67.1280421,87.0539042 67.9940575,90.3028697 68.7906092,93.5309157 C69.4973142,92.9832529 70.2040192,92.4358582 70.9107241,91.8881954" mask="url(#b)"/>
    <path fill="#DCB193" d="M63.4306207,77.3597356 C59.8174406,74.3891609 57.6549502,80.4094291 58.0467893,83.2046015 C58.5493946,86.7914981 59.7552184,90.2842567 60.251387,93.8944866 C60.7716935,97.6819962 60.6161379,101.212571 62.3403908,104.764602 C63.1720766,106.477858 64.1075556,107.906556 65.9683218,108.630693 C67.5659847,109.252648 67.1913103,109.119621 68.1672874,108.009812 C71.0407739,104.742609 70.396023,98.2487011 70.4939157,94.2621877 C70.6644904,87.3174368 68.2716169,82.3890077 63.4306207,77.3597356" mask="url(#b)"/>
    <path fill="#997A5A" d="M116.923521,90.8864981 C118.94628,86.4105211 119.24264,83.7958467 114.604402,81.5604061 C111.62149,80.1228582 107.920877,78.5887586 104.62605,78.2191801 C100.979613,77.8101762 96.7753218,78.3736628 93.4512605,79.7444291 C90.3144023,81.037954 88.1564713,83.2361149 86.8138659,85.4517088 C85.7888084,87.9462299 91.4282337,86.1122835 91.7549004,86.3440077 C91.6409157,86.2632797 95.6673908,82.6865747 98.673636,81.8857318 C102.423866,80.8866897 106.211375,82.3084138 109.051069,84.7004828 C111.689077,86.9222452 112.658885,87.9641992 112.459345,91.4349655 C112.318272,93.8932797 112.584326,91.4456935 112.318272,93.8932797 C114.241529,91.9869195 115.917506,93.4617471 116.923521,90.8864981" mask="url(#b)"/>
    <path fill="#67513A" d="M127.748257,87.2833487 C131.140172,84.022046 136.248831,82.0792107 140.887874,84.1639234 C142.485268,84.8816245 144.731973,86.7496322 145.704195,88.2054176 C146.569943,89.5016245 146.299061,91.082659 146.206264,92.6258774 C143.736686,88.7442299 140.932126,86.4259157 136.26841,85.6167586 C133.450441,85.1278314 132.430211,86.1282146 130.062011,87.5628123 C128.563314,88.4706667 127.166264,89.9985977 127.748257,87.2833487" mask="url(#b)"/>
    <path fill="#886A46" d="M115.611222 83.0484828C116.047046 82.9503218 116.651031 82.2910881 116.756701 81.5310115 116.880877 80.6346897 116.252487 79.9789425 115.723866 79.3701303 114.59287 78.0677548 110.698349 75.2905517 101.832755 74.8448046 98.2539042 74.6648429 94.3516054 74.7501303 91.0428314 76.3158774 88.5445556 77.4983678 82.3268927 81.6358774 84.4765096 81.7949195 86.6261264 81.9536935 93.9080038 79.5382912 99.443636 79.7281762 107.348808 79.9990575 112.446739 81.9730038 115.611222 83.0484828M127.244874 82.4631111C128.17472 79.3294713 137.683992 79.7352567 139.963149 80.2378621 142.503264 80.7981303 145.415103 81.4656782 147.587785 82.9659847 149.380429 84.2042605 150.459126 87.1107356 150.066215 87.9249885 149.673571 88.7389732 145.695103 87.1962912 143.739126 86.1948352 141.191234 84.890046 138.992805 84.4129195 136.120659 84.1256782 133.88495 83.902 132.075946 84.393341 129.918552 85.022 127.725218 85.6608506 126.29518 85.6635326 127.244874 82.4631111" mask="url(#b)"/>
    <path fill="#655034" d="M108.581211 87.1456015C107.538184 85.8743372 105.91987 84.8490115 104.420368 84.2605824 102.562015 83.5308123 100.324697 83.7196245 98.4009042 84.1795862 96.0737395 84.7360996 93.8297165 85.7995096 91.8013257 87.0442222 94.3017471 86.0703908 97.4369962 84.4105057 100.156268 84.519931 103.009908 84.6349885 105.924161 86.205295 108.581211 87.1456015M130.727521 89.1141303C133.735107 85.2308736 141.994034 87.598 143.507751 91.6102605 140.092234 87.8983831 135.1571 87.7675019 130.727521 89.1141303" mask="url(#b)"/>
    <path fill="#221F20" d="M136.947839 90.0892222C136.972782 91.6683793 134.488184 91.7075364 134.463241 90.1283793 134.438567 88.5674598 136.92236 88.4625939 136.947839 90.0892222M102.668383 86.2278506C102.693326 87.8070077 100.20846 87.8461648 100.183785 86.2670077 100.159111 84.7060881 102.642904 84.6012222 102.668383 86.2278506" mask="url(#b)"/>
    <path fill="#886A46" d="M67.0154253 88.2414368C69.0958467 91.1991379 67.1304828 92.6707471 67.0851571 95.6963027 67.0696015 96.7562261 68.7597931 101.695383 66.8148123 101.280211 66.3309808 101.176954 64.3455019 98.7940038 63.9568812 98.1640038 63.2005594 96.9375287 62.9328966 94.7801341 63.0423218 93.4013218 63.2563448 90.7013602 65.0535479 89.6752299 67.0154253 88.2414368M66.6175785 87.0629693C66.2571188 85.7622031 65.896659 84.4614368 65.5364674 83.1606705 64.7729042 84.0272222 63.7623295 85.2620115 64.1707969 86.493046 64.6404138 87.9086015 65.5598008 87.8434291 66.6175785 87.0629693M63.4848238 80.8103065C63.1804176 80.2098084 62.4342874 78.4573946 61.5551303 78.7019923 60.9948621 78.8578161 60.2500728 80.3827969 60.0875441 81.8557471 59.9252835 83.3286973 60.5469693 87.0596169 61.2831762 87.8341762 60.9908391 87.5265517 61.3279655 84.5868199 61.3950153 84.1013793 61.6181571 82.4809195 62.3452452 81.9657088 63.4848238 80.8103065" mask="url(#b)"/>
    <path fill="#AE8C65" d="M94.8655824,130.344908 C95.4060038,134.177475 97.4188391,140.333184 101.788073,141.110157 C107.608264,142.14487 104.460946,134.53418 109.663207,134.320962 C111.890602,134.229506 116.262785,135.262877 118.451023,135.605636 C121.1011,136.020808 121.528877,136.064793 121.838648,138.774142 C122.518533,144.725483 125.182019,145.537054 129.632785,142.452226 C133.186157,139.989084 134.281215,137.267398 133.434778,132.750387 C132.978571,130.316479 133.201713,129.801805 130.977,129.608969 C124.170103,129.018395 117.362939,128.42782 110.556042,127.837245 C108.248724,127.637169 94.0027854,124.226479 94.8655824,130.344908 M101.986004,157.563107 C93.5685709,154.421153 85.7653142,149.632992 80.2516743,142.470464 C75.1682261,135.86713 70.2786858,128.694142 68.6397203,120.414563 C67.9788774,117.076824 67.2032452,113.406785 67.6192222,109.993146 C67.9456207,107.313299 68.5659655,104.627552 68.9843563,101.956287 C69.4413678,99.0355977 69.6532452,95.9526475 70.3392989,93.0783563 C70.787728,91.1990843 71.6084176,90.7273218 72.7168851,89.0926475 C72.4261571,90.6412299 72.4328621,91.3412299 72.1418659,92.8900805 C71.8511379,94.4373218 71.8562337,98.7703487 72.1501801,100.304985 C72.5098352,102.182379 84.6764253,122.455023 88.0753142,124.943107 C89.9634368,126.325406 95.6554291,120.646019 97.3646628,119.470502 C99.0092605,118.339506 100.70723,116.96123 102.551636,116.177015 C105.15746,115.068816 108.02746,115.643835 110.775697,115.778203 C115.80336,116.024142 120.863475,116.079659 125.862172,116.727897 C130.389375,117.314985 132.488839,120.132686 135.495352,123.415444 C136.79451,124.83395 138.635966,127.878548 140.365851,128.7451 C142.278916,129.702839 144.067268,126.006785 145.030103,124.328663 C147.280027,120.407322 148.399222,115.846057 150.02746,111.637207 C148.337805,122.275866 146.847421,133.60031 140.113475,142.287552 C135.242977,148.570923 129.239337,155.679008 121.315123,158.097092 C118.545966,158.94192 115.165046,158.717705 112.305238,158.687667 C108.983054,158.652801 105.1411,158.74077 101.986004,157.563107" mask="url(#b)"/>
    <path fill="#7C5142" d="M98.5772989,126.822701 C104.807299,128.320057 110.951475,128.997529 117.330862,129.515421 C120.419176,129.76592 130.89477,130.315728 133.019176,131.047375 C132.800594,129.600977 132.353506,129.253123 130.6491,128.762318 C128.683736,128.196954 123.294272,126.040096 121.725038,126.572471 C118.14431,127.787682 116.136034,127.162778 114.609176,126.037414 C111.992625,124.108793 104.60749,126.455 98.5772989,126.822701" mask="url(#b)"/>
    <path fill="#956454" d="M107.31236,133.124337 C110.570444,133.591808 113.59895,134.48223 116.932667,134.672115 C119.950981,134.844299 123.024812,134.973839 126.036153,134.702421 C122.867916,136.412728 118.917609,137.032268 115.374161,136.583571 C112.852015,136.264146 108.485732,135.683494 107.31236,133.124337" mask="url(#b)"/>
    <path fill="#404041" d="M64.7095287,118.216751 C63.0421341,118.255372 58.5044713,120.345448 50.3265402,124.60767 C48.3394521,125.643188 46.991751,128.507287 45.0438199,129.553264 C37.1201418,133.808782 -18.2300115,145.915563 -17.9685172,162.542038 C-17.7067548,179.168245 -16.6940345,212.718092 -16.6940345,212.718092 C-16.6940345,212.718092 139.561253,209.723379 151.169452,209.540736 C149.264969,190.794414 127.270487,176.813456 123.716847,173.846636 C120.617536,171.25905 117.500525,168.69292 114.37654,166.135103 C112.208418,169.224759 111.772862,170.118398 111.772862,170.118398 C106.388762,182.224644 91.7356973,175.792153 86.0927854,172.281157 C84.1858889,171.094644 83.803705,170.752958 82.8810996,168.764529 C80.859682,164.407632 78.7148927,160.101157 76.3928238,155.896061 C72.0646245,148.057939 68.3704483,140.269433 65.4084559,131.79836 C64.7948161,130.043264 64.0473448,128.399471 64.0151609,126.568207 C63.9666169,123.819433 64.4815594,120.959625 64.7095287,118.216751" mask="url(#b)"/>
    <path fill="#86ACCD" d="M83.396659,169.797981 C84.4549732,173.214303 85.9222912,177.622157 86.9808736,181.038479 C88.0147816,184.376755 91.6365441,210.477368 91.6365441,210.477368 L120.079073,211.102808 C120.079073,211.102808 112.479111,174.741697 111.772943,170.118479 C107.516084,180.163345 90.5607969,177.675529 83.396659,169.797981" mask="url(#b)"/>
    <path fill="#FEFEFE" d="M137.581272 89.4543678C137.587172 89.8336015 137.284644 90.1460536 136.905142 90.151954 136.525908 90.1578544 136.213724 89.8553257 136.207556 89.476092 136.201655 89.09659 136.504452 88.7844061 136.883686 88.7782375 137.26292 88.7723372 137.575372 89.0748659 137.581272 89.4543678M103.326812 85.6646054C103.332713 86.0441073 103.030184 86.3562912 102.650682 86.3621916 102.271448 86.3683602 101.959264 86.0655632 101.953364 85.6863295 101.947195 85.3070958 102.249992 84.9946437 102.629226 84.9884751 103.00846 84.9828429 103.320912 85.2853716 103.326812 85.6646054" mask="url(#b)"/>
    <path fill="#886A46" d="M110.120192,106.017628 C110.120192,106.017628 108.932337,108.587245 108.73977,109.685521 C108.546935,110.783797 108.876284,112.413912 110.213525,111.9451 C111.550498,111.476287 114.828966,109.512801 115.967471,109.571805 C117.105977,109.630808 118.785172,109.707782 119.355096,110.526326 C119.925287,111.344602 120.354674,112.215713 121.01364,113.230847 C121.588123,114.115636 123.374866,113.697782 123.374866,113.697782 C123.374866,113.697782 124.29023,112.723682 124.807318,112.715636 C125.324138,112.707322 126.368774,113.369238 126.269808,113.652188 C126.170843,113.935138 125.666897,114.77031 125.046552,114.779966 C124.426207,114.789889 123.085479,115.017858 122.668697,114.817513 C122.251648,114.617169 121.345402,115.096172 121.036973,115.215789 C120.728544,115.335674 120.110345,116.184793 119.382989,116.317015 C118.655364,116.449506 116.707701,117.186517 114.748238,117.527667 C112.788506,117.868816 109.37567,117.859161 107.583563,115.69533 C105.791456,113.531766 105.035134,111.475483 106.240153,109.181307 C107.444904,106.88713 110.120192,106.017628 110.120192,106.017628" mask="url(#b)"/>
    <path fill="#655034" d="M112.04369,116.53777 C112.04369,116.53777 119.077751,116.632176 119.382962,116.317042 C119.688172,116.001908 118.722387,113.771027 118.722387,113.771027 C118.722387,113.771027 114.973766,112.146276 114.051429,112.677847 C113.128824,113.209418 109.953077,115.120874 109.419897,114.09528 C108.886716,113.069418 108.584188,113.563172 108.458939,112.183019 C108.333958,110.802866 109.312617,107.271487 109.312617,107.271487 C109.312617,107.271487 106.667636,110.056199 107.007444,111.936812 C107.347253,113.817425 108.945452,116.813479 112.04369,116.53777" mask="url(#b)"/>
    <path fill="#655034" d="M109.419843,114.095172 C109.419843,114.095172 110.752257,114.145326 111.16582,114.138621 C111.579383,114.132184 112.09513,113.22567 112.09513,113.22567 C112.09513,113.22567 112.495552,112.392107 113.629766,112.167625 C114.763713,111.942874 116.526318,112.225287 117.256625,112.627586 C117.986663,113.029617 118.736548,114.672605 118.736548,114.672605 C118.736548,114.672605 115.919383,113.099885 114.993559,113.4059 C114.067736,113.711916 113.457046,114.341916 112.739881,114.767011 C112.022716,115.191839 111.227774,115.295632 110.497467,114.893602 C109.767161,114.491303 109.419843,114.095172 109.419843,114.095172" mask="url(#b)"/>
    <path fill="#B28E6A" d="M118.293456,86.5154406 C118.293456,86.5154406 118.317594,88.0436398 118.361847,90.8637548 C118.4061,93.6841379 113.450851,97.2222222 113.450851,97.2222222 L109.204452,100.407893 C109.204452,100.407893 113.143762,91.9175096 113.689816,89.6965517 C114.23587,87.4755939 118.293456,86.5154406 118.293456,86.5154406" mask="url(#b)"/>
    <path fill="#67513A" d="M109.247123,83.569567 C105.916088,81.4368467 104.390034,79.8925556 99.2030613,80.6850843 C97.4173908,80.9581111 94.3553602,82.6491073 93.1331762,83.6253525 C92.045092,84.4945862 91.8785402,85.0535134 91.7726015,86.2976897 C94.9006092,83.6722874 97.3055517,81.547613 102.349575,81.7734368 C105.397391,81.9099502 107.215782,83.6996437 109.532487,85.2812146 C110.999,86.2824023 109.969651,84.0348927 109.247123,83.569567" mask="url(#b)"/>
    <path fill="#373637" d="M56.6156245,175.142575 C55.602636,174.459739 56.7532107,157.642843 55.5503372,151.251387 C54.43141,145.30541 51.2352797,139.43587 48.5712567,134.048552 C50.6455096,139.844605 53.1585364,146.73813 52.6843602,152.968667 C52.4081149,156.599011 49.0470421,177.266713 49.0963908,177.413686 C49.3568123,178.192536 64.9284598,185.63292 74.3926743,188.970123 L73.8447433,213.610927 L79.9803372,214.802268 L79.2755096,190.414644 C79.5563142,190.470161 57.209954,175.543533 56.6156245,175.142575" mask="url(#b)"/>
  </g>
</svg>
