<svg xmlns="http://www.w3.org/2000/svg" width="210" height="210" viewBox="0 0 210 210" xmlns:xlink="http://www.w3.org/1999/xlink">
  <defs>
    <ellipse id="a" cx="105" cy="105" rx="105" ry="105"/>
  </defs>
  <g fill="none" fill-rule="evenodd">
    <mask id="b" fill="white">
      <use xlink:href="#a"/>
    </mask>
    <use fill="#7BCAEC" xlink:href="#a"/>
    <g transform="translate(-3.333 17.5)" mask="url(#b)">
      <path fill="#EEBB8B" d="M67.8145949,97.1213082 C71.2233893,107.894687 74.980504,118.743751 79.9474012,128.903934 C82.8513538,134.844162 85.7410771,138.908888 91.9005632,141.742176 C99.6661759,145.314801 109.160346,147.561011 117.743547,147.080486 C127.197698,146.551285 137.489595,141.840418 142.895524,133.843637 C147.047796,127.702176 149.877935,120.516559 152.6642,113.680578 C153.977737,110.45818 154.532085,107.742427 155.353231,103.905349 C156.646314,97.863911 157.492362,92.7888653 158.090583,86.6393904 C159.306887,74.1380205 164.365385,62.0284315 162.065879,49.0860114 C161.245919,44.4707146 159.944832,39.9400068 158.483073,35.4912169 C157.883073,33.664984 157.268251,29.6118333 155.868449,28.1925183 C154.26914,26.5707831 149.313508,25.9991393 147.165188,25.3417192 C134.739792,21.5384772 121.811927,16.9629521 108.855603,15.4430205 C101.643449,14.5971301 93.5760573,17.3577009 87.0540217,20.1835685 C84.2636067,21.3927466 80.7223024,22.8895274 79.0073814,25.5658059 C77.9351482,27.2385913 77.4107411,29.4206918 76.8137055,31.2911484 C74.7759585,37.6750982 73.1301087,44.1923128 71.4940415,50.6887511 C70.2875198,55.4797557 68.6775395,60.4055091 67.9447332,65.298911 C67.4923617,68.322153 67.8145949,71.5760114 67.8145949,74.6321986 L67.8145949,93.4263995 L67.8145949,97.1213082 Z"/>
      <path fill="#CAA077" d="M121.404437,108.550148 C121.404437,108.550148 124.94752,108.778984 125.747619,108.550148 C126.547717,108.321313 130.0908,108.823505 130.890603,107.657066 C131.690998,106.490628 132.833785,105.266906 132.033686,103.475696 C131.233587,101.684189 129.42084,96.0769749 129.070148,96.9926142 C128.71916,97.9079566 129.062144,101.226518 127.919358,102.256427 C126.776275,103.286336 126.433291,103.985902 124.375978,103.785559 C122.318666,103.58492 121.061453,101.798756 120.718765,100.311176 C120.375781,98.8235959 120.718765,93.6740525 120.718765,93.6740525 C120.718765,93.6740525 121.061453,85.7781849 120.718765,83.489532 C120.375781,81.200879 119.804536,78.6833904 119.690109,79.0264954 C119.575682,79.3698973 113.843666,80.1024087 113.746729,82.4596233 C113.55582,87.1105365 110.20335,90.1011301 109.746235,92.5040525 C109.289121,94.9072717 106.983389,100.212043 106.716294,101.027066 C106.449496,101.841792 109.289713,108.595856 113.289615,108.666792 C117.289516,108.737728 121.404437,108.550148 121.404437,108.550148"/>
      <path fill="#E4D6CD" d="M144.687045,83.7210982 C144.837935,83.7469201 147.67252,83.0767374 148.879338,82.0773995 C146.711453,79.4210068 146.451176,78.5270342 143.166887,77.5538151 C137.92667,76.0012352 135.617678,78.0325594 131.154437,80.6752991 C131.154437,82.3967603 141.488725,83.1737922 144.687045,83.7210982"/>
      <path fill="#657B86" d="M137.283508,82.6690776 C138.702875,82.9750822 140.117204,83.1350594 141.556433,83.3000822 C142.703962,82.794032 143.580247,81.723758 143.580247,80.0868858 C143.580247,75.3122055 136.218982,75.3596941 136.218982,80.0868858 C136.218982,81.218895 136.642599,82.0778447 137.283508,82.6690776"/>
      <path fill="#E4D6CD" d="M104.576957,72.9113904 C99.7849605,71.7645411 95.6412846,73.6246096 91.4312055,75.6790845 C92.7972134,76.9405 105.010059,79.5161621 106.581798,79.0923265 C108.152945,78.6684909 109.867273,78.107532 111.567372,78.3141073 C109.888617,75.5167329 107.981008,73.7261164 104.576957,72.9113904"/>
      <path fill="#EEBB8B" d="M121.519071,154.678482 C104.806818,138.650194 88.0945652,122.621906 71.3820158,106.593916 C68.9757905,104.286267 66.5455534,100.363413 64.1393281,98.0560616 C63.2538538,100.818116 62.3923913,105.19508 61.506917,107.957432 C60.7684783,110.261221 59.236166,113.140514 59.0778656,115.561541 C58.9056324,118.191221 63.5200593,134.038162 65.6256917,138.64129 C67.8490119,143.502043 85.2499012,181.154852 85.9168972,181.654372 C86.3422925,181.972842 87.6985178,181.733025 88.2564229,181.733025 L95.112253,181.733025 L105.762846,181.733025 C104.214526,177.729737 121.063439,155.024852 121.519071,154.678482"/>
      <path fill="#657B86" d="M104.972115,73.0437055 C102.882194,72.5240023 100.957688,72.4797785 99.1052174,72.7709429 C98.6709289,73.3313082 98.401166,74.0623356 98.401166,74.9649155 C98.401166,79.6974498 105.762727,79.7099155 105.762727,74.9649155 C105.762727,74.2454635 105.593162,73.6373128 105.30917,73.1363082 C105.200375,73.1039566 105.088913,73.0727922 104.972115,73.0437055"/>
      <path fill="#6A5438" d="M68.2592589,80.6753881 C69.437915,78.734589 70.9088636,76.7736073 71.6351482,74.6197032 C72.6718083,71.5463014 72.973587,68.0060274 73.5261561,64.8183562 C74.0304051,61.9096804 73.8217095,58.0809132 74.8969071,55.3835616 C75.6558004,53.4795662 78.0753656,52.5021918 79.5415711,51.0018493 C81.9569862,48.5303653 82.3548123,43.0392009 82.682085,39.5766895 C83.0636067,35.541347 83.4679545,32.4765525 86.6443379,29.7088584 C88.8744763,27.7659817 91.945919,25.2339498 94.764496,24.1773288 C97.20333,23.2631735 100.436927,23.5620548 102.994338,23.546621 C106.777243,23.5234703 110.504417,23.6552511 114.10916,24.8837215 C120.311927,26.9981507 126.512915,32.1105936 133.248686,31.3210959 C141.006294,30.4116895 148.189694,28.1687443 153.83337,35.5811187 C159.161038,42.5782648 160.152638,50.9591096 160.023982,59.4524429 C159.885247,68.5987443 158.366868,77.9450913 156.802836,86.9358676 C156.223587,90.2645205 156.13999,93.73 155.957085,97.0969406 C155.888607,98.3619178 155.170919,104.270982 155.170919,104.270982 C155.170919,104.270982 157.339101,96.4965068 157.621018,95.2638813 C158.677243,90.6473973 159.788607,86.0415982 160.999279,81.4628082 C163.203923,73.1238128 166.122401,64.7750228 167.041966,56.1546575 C168.151551,45.7475342 164.649081,34.8281279 159.547006,25.8708904 C158.373686,23.8110731 151.094832,16.0060274 148.961334,14.464726 C141.935642,9.38908676 135.172006,5.63956621 126.919931,2.90659817 C116.184555,-0.649109589 103.782283,-0.886552511 92.7978953,1.88767123 C83.8056028,4.15881279 76.418251,10.0473973 70.6002668,16.9510502 C68.2761561,19.7089498 63.4791206,32.1242466 62.9834684,34.8969863 C61.3945356,43.7815068 59.864002,64.6853881 59.864002,64.6853881 C59.864002,64.6853881 62.030998,69.3363014 62.9161759,71.7959132 C64.1627174,75.2602055 65.0633103,78.8705251 65.8877174,82.45621 C66.67833,81.8626027 67.4686462,81.2689954 68.2592589,80.6753881"/>
      <path fill="#EEBB8B" d="M60.2450198,64.4692854 C56.3035178,61.1192626 53.8089526,67.7430297 54.1931423,70.8431438 C54.6864229,74.8203128 55.9584585,78.706363 56.4437352,82.7099475 C56.9533202,86.9097192 56.7200198,90.8138744 58.5635968,94.7741256 C59.4529249,96.6846507 60.4620158,98.2814543 62.5059881,99.1151758 C64.2606324,99.8310662 63.84917,99.6776187 64.9468972,98.466363 C68.1793083,94.9011575 67.5796047,87.7045594 67.7571739,83.2949475 C68.0663636,75.6136689 65.5077668,70.1186461 60.2450198,64.4692854"/>
      <path fill="#655034" d="M119.128557 80.3679886C121.4417 75.4505457 121.815217 72.5623493 116.727668 70.0080571 113.456126 68.3655457 109.393083 66.6037192 105.758103 66.1374406 101.735375 65.6212991 97.0791502 66.1715731 93.3816206 67.6306598 89.8921937 69.0072352 87.4693676 71.401847 85.9468379 73.8302945 84.7705534 76.5724635 91.0349802 74.6414589 91.3921937 74.9035365 91.2676877 74.812121 95.7795455 70.9245868 99.1160079 70.0908653 103.277767 69.0505685 107.438933 70.6898151 110.53587 73.3859795 113.412549 75.8907055 114.466107 77.0601119 114.185375 80.8971895 113.986759 83.6150205 114.323518 80.9114361 113.986759 83.6150205 116.145455 81.5391758 117.972134 83.200089 119.128557 80.3679886M131.154466 76.5695548C134.959901 73.0197831 140.639447 70.9590753 145.72996 73.3465639 147.483123 74.16871 149.933518 76.274532 150.982925 77.9025 151.917016 79.352089 151.590336 81.0964041 151.460791 82.8024315 148.799032 78.4643493 145.739743 75.8501027 140.599427 74.8739155 137.493893 74.2838699 136.349032 75.3728425 133.706838 76.9188927 132.034605 77.8977511 130.463755 79.56371 131.154466 76.5695548"/>
      <path fill="#886A46" d="M117.814545 71.6722945C118.298043 71.5713813 118.976897 70.8525228 119.106739 70.0131621 119.259704 69.0236187 118.576403 68.2869521 118.003083 67.6040068 116.77581 66.1431393 112.519783 63.0026598 102.729763 62.3550342 98.7775889 62.0935502 94.4634585 62.1199658 90.7795652 63.7948288 87.997747 65.0598059 81.0544664 69.5296689 83.4271937 69.7430708 85.7999209 69.9564726 93.8898419 67.4101941 100.004565 67.7167922 108.736285 68.1542808 114.336087 70.4272032 117.814545 71.6722945M130.682026 71.227089C131.764042 67.776153 142.266413 68.3905365 144.77669 68.9862215 147.573923 69.650468 150.780543 70.4396689 153.155642 72.1376826 155.115128 73.5391895 155.485089 75.3692808 155.808508 77.6680251 153.415326 77.335605 150.990425 76.7859247 148.845958 75.6435274 146.052875 74.1553539 143.631532 73.5890525 140.462263 73.2213128 137.995267 72.9348973 135.98746 73.4468836 133.5925 74.1048973 131.157223 74.7738927 129.576591 74.7519292 130.682026 71.227089"/>
      <path fill="#655034" d="M109.974022 76.0834795C108.843389 74.6588219 107.072441 73.4959452 105.425702 72.8186393 103.384397 71.9789817 100.908508 72.1487534 98.774417 72.6242329 96.1929941 73.1994384 93.6942787 74.3373836 91.4312352 75.6792329 94.2112747 74.6451689 97.7054447 72.862863 100.708706 73.0314475 103.860484 73.2083425 107.053765 74.9965845 109.974022 76.0834795M134.415336 78.6471804C137.80664 74.4025913 146.892905 77.1658333 148.496364 81.6318379 144.785791 77.4650114 139.334209 77.234395 134.415336 78.6471804"/>
      <path fill="#221F20" d="M141.272885 79.834395C141.272885 81.5822717 138.526047 81.5822717 138.526047 79.834395 138.526047 78.1069977 141.272885 78.0342808 141.272885 79.834395M103.455306 74.9649452C103.455306 76.7128219 100.708468 76.7128219 100.708468 74.9649452 100.708468 73.2375479 103.455306 73.1648311 103.455306 74.9649452"/>
      <path fill="#886A46" d="M64.0175791 76.5724338C66.265504 79.8812009 64.0676779 81.4756301 63.9651087 84.8226849 63.9292391 85.9950594 65.7114526 91.4894886 63.5693577 90.9964977 63.0363538 90.8739178 60.8832905 88.2026849 60.4650099 87.4986667 59.6506818 86.1283242 59.3918874 83.7363836 59.5368478 82.2125936 59.8205435 79.2291233 61.824496 78.1244201 64.0175791 76.5724338M63.5983794 75.2614521L62.4716008 70.9245571C61.6125099 71.8701735 60.47417 73.2188493 60.9043083 74.5880046 61.3987747 76.1628447 62.4155731 76.1067489 63.5983794 75.2614521M60.2450198 68.2883174C59.9189328 67.6184315 59.1247628 65.6663539 58.14917 65.921605 57.5272332 66.0845502 56.6776285 67.7588196 56.4721937 69.3858973 56.2670553 71.0129749 56.889585 75.1519018 57.6893874 76.0221301 57.3718972 75.6766507 57.7955138 72.4293219 57.8779249 71.8932945 58.1530237 70.1041621 58.9655731 69.5467648 60.2450198 68.2883174"/>
      <path fill="#AE8C65" d="M94.064832,123.645374 C94.5954644,127.895603 96.7129545,134.742269 101.528073,135.677795 C107.9425,136.924073 104.596551,128.448251 110.349615,128.302521 C112.812757,128.240192 117.62669,129.459758 120.03914,129.877064 C122.960583,130.382521 123.432816,130.438913 123.727777,133.441973 C124.376097,140.039027 127.305247,140.983457 132.277777,137.64768 C136.247737,134.984164 137.505543,131.991196 136.648231,126.978479 C136.18667,124.277269 136.442204,123.712155 133.986769,123.459575 L111.448824,121.143913 C108.902381,120.882132 93.2175988,116.860443 94.064832,123.645374 M101.460781,153.886995 C92.2126581,150.263616 83.6718478,144.829735 77.7029743,136.80832 C72.1998123,129.412863 66.9207609,121.390854 65.2532708,112.200626 C64.5812352,108.495922 63.7876581,104.421402 64.3067292,100.651699 C64.7140415,97.6919726 65.4465514,94.7310594 65.9549506,91.7823151 C66.5110771,88.5584338 66.7986265,85.1511279 67.6070257,81.9824521 C68.1352866,79.9107626 69.0507016,79.4032283 70.3040613,77.6135023 C69.9554447,79.3222009 69.950998,80.0965616 69.6023814,81.8052603 C69.2543577,83.5124749 69.1843972,88.3070411 69.4826186,90.0101005 C69.8475395,92.0939589 82.941413,114.737703 86.6543577,117.550215 C88.7170059,119.112589 95.1065316,112.927201 97.015919,111.655991 C98.8529743,110.43316 100.753172,108.937863 102.805445,108.102361 C105.704654,106.921379 108.866512,107.607589 111.901196,107.804073 C117.453567,108.164096 123.044773,108.313388 128.558014,109.117726 C133.551294,109.845785 135.822638,113.000511 139.087955,116.685032 C140.499318,118.277384 142.481334,121.678457 144.378271,122.66711 C146.475603,123.760534 148.516611,119.701744 149.609595,117.861858 C152.164338,113.561767 153.48084,108.53421 155.353468,103.90526 C153.300899,115.647703 151.457026,128.152635 143.863646,137.647977 C138.371749,144.51542 131.613152,152.276539 122.813251,154.81421 C119.738251,155.701059 116.005741,155.393868 112.845662,155.310763 C109.174812,155.214301 104.927085,155.244872 101.460781,153.886995"/>
      <path fill="#91655D" d="M98.2280435,119.812719 C105.087431,121.577811 111.865593,122.434683 118.906996,123.118815 C122.315791,123.449751 133.883577,124.240436 136.218656,125.087217 C136.002253,123.482696 135.514308,123.089728 133.639012,122.517194 C131.477055,121.857696 125.557984,119.376715 123.814605,119.938861 C119.836047,121.221053 117.627549,120.494477 115.959763,119.22297 C113.101462,117.043244 104.898893,119.510573 98.2280435,119.812719"/>
      <path fill="#7B544D" d="M107.772253,126.937461 C111.364842,127.511479 114.696561,128.549699 118.377194,128.818009 C121.710395,129.060795 125.10496,129.257575 128.437569,129.009447 C124.90664,130.846959 120.52996,131.464014 116.62166,130.905726 C113.840138,130.508306 109.024723,129.789744 107.772253,126.937461"/>
      <path fill="#404041" d="M44.9410474,116.521374 C42.7272134,117.632904 41.1877866,120.778429 39.0169368,121.902128 C30.1859091,126.472904 0.859746583,135.683699 0.475260417,136.25 C-0.0799767375,137.067694 17.7468775,194.826489 17.7468775,194.826489 L148.879486,194.826489 C147.267134,189.730073 129.069407,175.627744 125.194012,172.283064 C121.813676,169.366078 118.413478,166.471945 115.005573,163.587904 C112.555474,166.968498 112.058636,167.949731 112.058636,167.949731 C105.897668,181.251877 89.8153557,173.878977 83.6401581,169.895872 C81.5532016,168.549571 81.136996,168.164913 80.151917,165.948977 C77.9935178,161.092379 75.6981621,156.290096 73.2047826,151.596443 C68.557747,142.848155 64.6103162,134.166055 61.4843281,124.740758 C60.8366008,122.788384 60.03917,120.956215 60.0353162,118.929342 C60.0293874,115.887105 60.6483597,112.731489 60.9480632,109.70053 C59.1047826,109.714183 54.0533992,111.94763 44.9410474,116.521374 Z"/>
      <path fill="#373637" d="M42.8371344,126.937461 C45.6880237,132.945064 49.1178656,139.495817 50.251166,146.094356 C51.469249,153.18737 49.9055138,171.775589 51.0130237,172.549059 C51.6628261,173.002872 77.5307115,182.497027 81.5211265,183.589858 C74.5941502,182.679858 43.006996,176.016023 42.663419,174.931205 C42.6115415,174.76737 46.6852569,151.957119 47.0540316,147.94463 C47.6860474,141.058489 45.0290316,133.387005 42.8371344,126.937461"/>
      <path fill="#86ACCD" d="M80.7036265,167.101317 C81.8138043,170.899811 83.3591601,175.80271 84.4693379,179.6015 C85.5540217,183.313326 88.4707213,194.82634 88.4707213,194.82634 L117.223291,194.82634 C117.223291,194.82634 112.758567,173.078053 112.058666,167.949582 C107.179516,178.990678 88.4840613,175.942505 80.7036265,167.101317"/>
      <path fill="#FEFEFE" d="M141.983903 79.1429612C141.983903 79.5629384 141.64418 79.9030753 141.224713 79.9030753 140.805543 79.9030753 140.465524 79.5629384 140.465524 79.1429612 140.465524 78.722984 140.805543 78.382847 141.224713 78.382847 141.64418 78.382847 141.983903 78.722984 141.983903 79.1429612M104.192796 74.3532329C104.192796 74.77321 103.853073 75.113347 103.433607 75.113347 103.01414 75.113347 102.674417 74.77321 102.674417 74.3532329 102.674417 73.9332557 103.01414 73.5931187 103.433607 73.5931187 103.853073 73.5931187 104.192796 73.9332557 104.192796 74.3532329"/>
      <path fill="#886A46" d="M111.34664,96.9924658 C111.34664,96.9924658 109.988933,99.8150685 109.757115,101.026918 C109.525,102.238767 109.86087,104.048379 111.34664,103.553014 C112.832411,103.057648 116.489921,100.941735 117.747134,101.026918 C119.004348,101.1121 120.858597,101.226667 121.474605,102.142009 C122.090316,103.057648 122.549802,104.02879 123.260375,105.16347 C123.879941,106.152717 125.861957,105.721164 125.861957,105.721164 C125.861957,105.721164 126.890613,104.659498 127.461858,104.659498 C128.033399,104.659498 129.176482,105.409817 129.062055,105.721164 C128.947925,106.032808 128.376383,106.948151 127.690415,106.948151 C127.004743,106.948151 125.518972,107.176986 125.061858,106.948151 C124.604743,106.719018 123.594466,107.233379 123.251779,107.360411 C122.908794,107.487443 122.210672,108.416438 121.404348,108.55 C120.598024,108.683858 118.432806,109.465639 116.261364,109.809041 C114.089625,110.152146 110.317984,110.082397 108.375099,107.657215 C106.431917,105.231735 105.632115,102.943082 107.003458,100.425297 C108.375099,97.9078082 111.34664,96.9924658 111.34664,96.9924658"/>
      <path fill="#655034" d="M113.289585,108.666644 C113.289585,108.666644 121.061423,108.893699 121.404407,108.55 C121.747391,108.206895 120.718735,105.721164 120.718735,105.721164 C120.718735,105.721164 116.604111,103.858425 115.575455,104.430662 C114.546798,105.002603 111.003715,107.062717 110.432174,105.918242 C109.860929,104.774064 109.517945,105.31484 109.403814,103.785708 C109.289387,102.256279 110.432174,98.3657763 110.432174,98.3657763 C110.432174,98.3657763 107.460632,101.401187 107.803617,103.488014 C108.146304,105.57484 109.860929,108.918037 113.289585,108.666644"/>
      <path fill="#655034" d="M110.432292,105.918331 C110.432292,105.918331 111.903834,105.996687 112.360949,105.996687 C112.818063,105.996687 113.403834,105.002692 113.403834,105.002692 C113.403834,105.002692 113.860949,104.087349 115.118458,103.858514 C116.375375,103.629678 118.318557,103.972783 119.118656,104.430454 C119.918458,104.888422 120.718557,106.719107 120.718557,106.719107 C120.718557,106.719107 117.632885,104.929975 116.604229,105.2526 C115.575573,105.574929 114.889901,106.261436 114.089506,106.719107 C113.289704,107.177075 112.409269,107.277989 111.609466,106.820317 C110.809368,106.362349 110.432292,105.918331 110.432292,105.918331"/>
      <path fill="#886A46" d="M120.718617,75.5553767 L120.718617,80.3680479 C120.718617,83.489532 115.180474,87.3182991 115.180474,87.3182991 L110.432352,90.7692352 C110.432352,90.7692352 114.933538,81.4430708 115.575336,78.9950342 C116.217431,76.5467009 120.718617,75.5553767 120.718617,75.5553767"/>
    </g>
  </g>
</svg>
