<svg xmlns="http://www.w3.org/2000/svg" width="444" height="336" viewBox="0 0 444 336">
  <g fill="none" fill-rule="evenodd">
    <path fill="#D8D8D8" d="M150.694613,336 C113.176446,332.879438 75.2858562,276.095053 23.7429102,285.311199 C-17.3652373,292.661549 3.15939752,218.993431 23.7429101,216.190103 C33.9801576,214.795862 66.4271012,214.421725 75.2858564,216.190103 C113.412663,223.800947 91.4792984,212.38293 138.382979,230.014322 C165.488639,240.203512 192.411532,251.060681 218.408598,263.806857 C222.004684,265.569992 224.755824,269.257061 226.103369,273.023003 C227.483653,276.880439 227.098706,281.337431 226.103369,285.311197 C222.443835,299.921466 184.997241,291.796814 183.012651,291.455295 C158.719878,287.274859 159.645519,266.180546 116.83762,263.806857 C103.940251,263.0917 116.902989,262.540666 109.142852,276.095051 C106.073722,281.455803 113.788525,284.252661 116.837623,285.311197 C141.876725,294.003869 130.62663,294.23496 155.311475,305.279514 C171.846522,312.677664 175.736164,327.1567 158.389384,332.927951 L150.694613,336 Z" style="mix-blend-mode:multiply"/>
    <g transform="matrix(-1 0 0 1 257 0)">
      <path fill="#5B5E67" d="M94.3449639,78.1389326 C95.4231921,78.6759699 110.518386,86.4630113 110.248829,87.2685673 C109.979272,88.0741233 136.395862,154.666753 136.395862,154.666753 L122.378896,149.29638 L95.4231921,97.4722767 L94.3449639,78.1389326"/>
      <path fill="#868C96" d="M136.395862,154.666753 L110.248829,87.2685673 L113.753071,87.537086 L133.700292,68.7407792 C133.700292,68.7407792 160.116882,132.111185 159.30821,133.453778 C158.499539,134.796372 136.395862,154.666753 136.395862,154.666753"/>
      <polyline fill="#868C96" points="110.249 87.269 106.745 71.694 64.155 48.602 61.998 45.648 66.311 61.759 94.345 78.139 110.249 87.269"/>
      <path fill="#323637" d="M73.0499578,276.842747 C73.0499578,276.842747 55.0586427,285.435345 52.5636227,286.240901 C50.0686028,287.046457 39.9170847,293.87435 34.7728581,292.148312 C29.6286316,290.422274 25.9529518,291.490978 24.2601336,288.926088 C22.5673154,286.361197 20.7558921,278.990897 22.3732343,275.231635 C23.9905765,271.472374 28.1104863,267.576705 29.9208314,266.639038 C31.7322547,265.701371 36.6597574,265.296445 39.8944419,262.611258 C43.1291264,259.926071 46.3638108,253.481623 46.3638108,253.481623 L70.6239444,253.213105 L74.397743,255.092735 C74.397743,255.092735 75.7455282,265.296445 75.7455282,270.129781 C75.7455282,274.963117 73.0499578,276.842747 73.0499578,276.842747"/>
      <path fill="#5B5E67" d="M32.3468448 268.25015C32.3468448 268.25015 32.0772877 269.324225 36.1206433 272.27793 40.1639989 275.231635 42.3204552 277.916822 42.3204552 277.916822 42.3204552 277.916822 40.97267 283.555714 39.8944419 285.166826 38.8162137 286.777938 37.4684285 291.342756 35.3119722 290.268681 33.1555159 289.194606 27.494818 291.879793 25.6079188 286.777938 23.7210195 281.676083 24.5296906 275.500154 24.5296906 275.500154 24.5296906 275.500154 28.3034892 267.981631 32.3468448 268.25015M35.0424152 266.907557C35.0424152 266.907557 43.3986834 276.037191 45.0160256 276.037191 46.6333679 276.037191 50.4071664 275.500154 52.5636227 273.352005 54.7200791 271.203855 59.0329917 269.055706 58.7634347 266.907557 58.4938776 264.759407 56.6069783 261.805702 56.6069783 261.805702L46.6333679 255.361254C46.6333679 255.361254 47.9811531 256.703847 45.0160256 259.926071 42.0508982 263.148295 41.5117841 265.564963 35.0424152 266.907557"/>
      <path fill="#323637" d="M102.162118,290.268681 C102.162118,290.268681 103.240346,296.44461 102.162118,297.787204 C101.08389,299.129797 93.5362928,306.64832 92.7276217,307.722394 C91.9189505,308.796469 87.3310897,315.603954 88.145152,320.074253 C88.9592142,324.544552 87.6060379,326.78722 90.5711653,328.66685 C93.5362928,330.546481 96.9531978,331.827852 98.9274336,331.620556 C100.901669,331.413259 103.240346,330.277962 105.66636,330.009444 C108.092373,329.740925 118.33554,322.75944 120.491997,320.879809 C122.648453,319.000178 131.543835,312.287212 133.430735,308.796469 C135.317634,305.305726 135.587191,307.185357 135.856748,299.935353 C136.126305,292.685349 131.259183,286.777938 131.543835,285.703863 C131.828488,284.629789 129.387379,282.481639 129.387379,282.481639 L102.162118,290.268681"/>
      <path fill="#868C96" d="M98.9274336,286.777938 C98.9274336,286.777938 104.588131,292.953868 108.901044,292.953868 C113.213957,292.953868 116.718198,293.759424 119.413769,292.148312 C122.109339,290.5372 128.309151,285.972382 128.309151,285.972382 C128.309151,285.972382 132.337411,281.407565 132.082949,276.037191 C131.828488,270.666818 118.605097,240.324208 118.605097,237.90754 C118.605097,235.490872 122.109339,220.990864 122.91801,215.620491 C123.726681,210.250118 124.535352,197.361221 124.535352,197.361221 C124.535352,197.361221 130.19605,180.981583 128.309151,172.926023 C126.422252,164.870463 124.535352,158.426015 124.535352,158.426015 C124.535352,158.426015 118.065983,124.055625 117.526869,122.713032 C116.987755,121.370438 107.014145,107.675986 106.744588,106.87043 C106.475031,106.064874 95.9623061,95.0556087 95.9623061,95.0556087 L43.9377975,103.916725 C43.9377975,103.916725 40.8702384,108.835987 41.7813412,113.583397 C42.6924439,118.330807 46.3638108,131.574148 46.3638108,131.574148 L48.7898242,157.083421 C48.7898242,157.083421 50.4071664,164.601944 51.4853946,167.287131 C52.5636227,169.972317 50.6767235,170.777873 50.6767235,170.777873 C50.6767235,170.777873 39.0857708,191.185292 38.8162137,194.138997 C38.5466567,197.092703 34.7200249,209.817265 35.0424152,213.203823 C35.3648054,216.589306 36.9293144,222.333458 37.4684285,224.481607 C38.0075426,226.629756 42.6600971,243.176951 43.1291264,247.305694 C43.5981556,251.434437 47.442039,258.314959 49.3289383,259.120515 C51.2158375,259.926071 52.947472,261.350294 57.6852065,261.805702 C62.422941,262.26111 69.2761592,261.805702 72.7804007,258.314959 C76.2846422,254.824217 76.0150852,246.500138 76.8237563,242.472358 C77.6324274,238.444578 74.6673,218.842715 74.397743,214.546416 C74.1281859,210.250118 76.8237563,201.120483 76.8237563,201.120483 L78.4410986,200.314927 C78.4410986,200.314927 81.1366689,211.592711 80.8671119,218.305678 C80.5975549,225.018644 78.1715415,241.398283 80.8671119,247.842731 C83.5626823,254.287179 88.414709,258.583478 88.9538231,263.148295 C89.4929372,267.713113 98.9274336,286.777938 98.9274336,286.777938"/>
      <path fill="#E85740" d="M98.9274336 142.851932C100.814333 143.926006 103.77946 145.537118 108.36193 144.194525 112.9444 142.851932 115.63997 141.509338 115.63997 139.09267 115.63997 136.676002 118.065983 135.333409 112.674843 132.379704 107.283702 129.425998 103.77946 128.083405 100.814333 129.694517 97.8492054 131.305629 95.9623061 135.333409 96.2318632 136.944521 96.5014202 138.555633 98.9274336 142.851932 98.9274336 142.851932M111.327057 208.639006C111.327057 208.639006 99.0773073 205.198744 98.1187624 204.879744 97.1602176 204.560744 92.7276217 203.80567 92.7276217 203.80567 92.7276217 203.80567 100.005662 208.639006 102.701232 209.981599 105.396803 211.324192 109.440158 212.398267 109.440158 212.398267L111.327057 208.639006M1.88689928 153.861197L8.89538231 150.638973 14.2865231 147.14823C14.2865231 147.14823 13.747409 145.805637 12.1300668 145.805637 10.5127245 145.805637 2.96512744 147.685268 2.96512744 147.685268L1.88689928 153.861197M52.5636227 278.185341C52.5636227 278.185341 63.670451 271.356374 64.4241325 270.666818 65.177814 269.976188 70.0848303 266.370519 70.0848303 266.370519L74.397743 265.296445C74.397743 265.296445 75.4759711 269.861262 74.397743 271.203855 73.3195148 272.546449 72.2412866 274.157561 69.2761592 275.768673 66.3110318 277.379785 59.5721058 280.33349 57.1460924 279.796453 54.7200791 279.259415 52.5636227 278.185341 52.5636227 278.185341M120.491997 310.6761C120.491997 310.6761 122.91801 305.305726 123.187567 302.889058 123.457124 300.47239 126.152695 295.907573 126.152695 295.907573L131.543835 290.268681C131.543835 290.268681 132.876525 291.342756 132.352506 295.639054 131.828488 299.935353 133.161178 301.814984 130.19605 304.231652 127.230923 306.64832 124.265795 309.064988 122.91801 310.407581 121.570225 311.750174 120.491997 310.6761 120.491997 310.6761"/>
      <path fill="#5B5E67" d="M109.979272 325.444626C110.248829 324.370552 111.866171 317.657585 109.440158 316.314992 107.014145 314.972398 94.0754069 307.453876 94.0754069 307.453876 94.0754069 307.453876 91.1102794 314.166842 90.3016083 316.58351 89.4929372 319.000178 88.145152 324.370552 90.8407224 326.518701 93.5362928 328.66685 97.0405343 330.546481 100.005662 329.472406 102.970789 328.398332 109.979272 325.444626 109.979272 325.444626M95.9623061 305.842764L109.979272 313.629805C109.979272 313.629805 114.292185 312.287212 115.63997 310.407581 116.987755 308.52795 119.952883 308.52795 119.952883 302.889058L119.952883 294.027942C119.952883 294.027942 118.065983 295.102017 113.213957 294.833498 108.36193 294.56498 104.049017 292.685349 104.049017 292.685349 104.049017 292.685349 105.127245 295.907573 104.588131 297.250166 104.049017 298.59276 95.9623061 305.842764 95.9623061 305.842764"/>
      <path fill="#B8BEC6" d="M80.8671119 247.842731C80.8671119 247.842731 80.0584408 251.870511 83.8322393 251.870511 87.6060379 251.870511 91.9189505 251.870511 93.8058498 246.500138 95.6927491 241.129764 101.08389 225.287163 101.08389 225.287163 101.08389 225.287163 98.1187624 196.018628 96.5014202 190.648255 94.884078 185.277881 83.6241413 178.197581 81.406226 178.027877 79.1883107 177.858174 75.2064141 175.342691 76.0150852 176.416765 76.8237563 177.49084 79.7888838 183.935288 78.7106556 186.083437 77.6324274 188.231587 74.1281859 189.305661 74.1281859 189.305661 74.1281859 189.305661 77.3628704 195.213072 78.4410986 199.240852 79.5193267 203.268632 81.675783 206.759375 81.1366689 220.185308 80.5975549 233.611242 80.8671119 247.842731 80.8671119 247.842731M45.0160256 252.13903C45.2855827 248.379769 41.7813412 232.00013 43.9377975 227.97235 46.0942538 223.94457 47.9811531 224.213088 45.8246967 219.91679 43.6682404 215.620491 42.5900123 213.74086 43.9377975 209.981599 45.2855827 206.222338 57.6852065 190.111217 57.6852065 182.861213 57.6852065 175.611209 59.3025487 168.629724 54.9896361 170.240836 50.6767235 171.851948 47.442039 177.222321 46.0942538 178.564915 44.7464686 179.907508 36.1206433 199.77789 35.3119722 207.296412 34.5033011 214.814935 33.964187 217.76864 37.7379856 228.777906 41.5117841 239.787171 45.0160256 252.13903 45.0160256 252.13903M61.9981191 168.898243C61.2336554 173.470578 64.1545754 183.398251 64.9632466 184.472325 65.7719177 185.5464 71.4326155 188.768624 72.7804007 186.620475 74.1281859 184.472325 73.0499578 177.759359 72.7804007 176.685284 72.5108437 175.611209 70.8935014 170.777873 69.5457162 169.972317 68.197931 169.166761 62.2676762 167.287131 61.9981191 168.898243"/>
      <path fill="#2C2E33" d="M87.3364809,210.518636 C87.3364809,211.86123 85.9886957,229.046424 85.9886957,230.389018 C85.9886957,231.731611 86.2582527,233.342723 87.8755949,233.87976 C89.4929372,234.416798 91.9189505,233.611242 91.9189505,233.611242 L95.153635,234.416798 C95.153635,234.416798 100.005662,236.833466 101.623004,235.490872 C103.240346,234.148279 104.318574,234.416798 104.857688,232.805686 C105.396803,231.194574 109.170601,215.620491 108.092373,215.88901 C107.014145,216.157528 106.205474,217.500122 99.4665476,214.814935 C92.7276217,212.129748 87.3364809,210.518636 87.3364809,210.518636"/>
      <path fill="#B8BEC6" d="M91.6493935,189.037143 C91.9189505,186.888993 95.6927491,176.416765 94.0754069,171.851948 C92.4580646,167.287131 86.2582527,162.990832 85.7191386,158.426015 C85.1800245,153.861197 82.7540112,148.222305 83.2931253,141.509338 C83.8322393,134.796372 85.7191386,127.814886 87.3364809,125.935256 C88.9538231,124.055625 92.7276217,121.907476 94.6145209,121.10192 C96.5014202,120.296364 101.623004,118.685252 105.127245,117.07414 C108.631487,115.463028 111.596614,112.509322 115.909527,117.879696 C120.22244,123.250069 121.211175,138.877855 121.300668,141.24082 C121.390161,143.603784 122.499658,163.511758 122.378896,171.314911 C122.258134,179.118063 117.931205,189.601032 117.796426,191.185292 C117.661648,192.769552 115.370413,196.555665 115.370413,196.555665 C115.370413,196.555665 114.389225,198.673741 109.440158,199.509371 C104.491091,200.345001 90.8407224,194.676035 90.8407224,194.676035 L91.6493935,189.037143"/>
      <path fill="#ECF0F3" d="M107.014145,193.60196 C107.283702,191.722329 116.448641,176.148247 113.483514,172.120467 C110.518386,168.092687 104.588131,167.824168 104.049017,165.138981 C103.509903,162.453795 103.240346,168.361205 105.935917,157.620459 C108.631487,146.879712 110.518386,149.027861 108.631487,141.24082 C106.744588,133.453778 104.857688,124.592662 100.544776,123.250069 C96.2318632,121.907476 90.0320513,124.324144 88.6842661,127.00933 C87.3364809,129.694517 84.1017964,135.06489 85.1800245,143.388969 C86.2582527,151.713048 88.145152,160.037127 91.3798365,163.527869 C94.6145209,167.018612 97.3100913,165.944537 96.5014202,173.46306 C95.6927491,180.981583 94.3449639,183.398251 93.8058498,187.963068 L93.2667357,192.527885 L103.77946,195.481591 L107.014145,193.60196"/>
      <path fill="#5B5E67" d="M48.7898242,157.083421 L50.4071664,163.796388 L62.5372332,169.972317 C62.5372332,169.972317 80.8671119,179.101952 84.9104675,179.101952 C88.9538231,179.101952 93.2667357,179.638989 93.2667357,179.638989 C93.2667357,179.638989 94.6145209,173.46306 93.8058498,173.46306 C92.9971787,173.46306 69.8152733,163.796388 67.3892599,163.527869 C64.9632466,163.259351 48.7898242,157.083421 48.7898242,157.083421"/>
      <path fill="#B8BEC6" d="M38.2770996,134.259334 C38.2770996,134.259334 32.6164018,134.796372 32.3468448,137.21304 C32.0772877,139.629708 29.6739172,146.015082 29.6512744,147.685268 C29.6286316,149.355454 25.3383617,139.09267 23.4514625,138.555633 C21.5645632,138.018596 10.7822816,133.990816 10.7822816,133.990816 C10.7822816,133.990816 17.5212076,122.713032 22.3732343,118.148214 C27.225261,113.583397 24.5296906,108.750061 28.5730462,103.648206 C32.6164018,98.5463514 36.1206433,95.5926461 36.1206433,95.5926461 L43.6682404,94.2500527 L52.0245087,113.04636 C52.0245087,113.04636 51.2848441,132.379704 50.6767235,132.648222 C50.0686028,132.916741 38.2770996,134.259334 38.2770996,134.259334"/>
      <path fill="#B8BEC6" d="M27.225261,145.2686 C27.225261,146.342674 23.9905765,153.592678 23.9905765,153.592678 C23.9905765,153.592678 15.9038653,151.444529 14.8256372,151.713048 C13.747409,151.981566 16.7125365,161.916757 16.7125365,161.916757 L5.93025487,164.601944 C5.93025487,164.601944 -0.808671119,167.555649 1.07822816,157.620459 C2.96512744,147.685268 4.48219446,139.788671 5.66069783,138.018596 C6.83920121,136.248521 10.7822816,133.990816 10.7822816,133.990816 C10.7822816,133.990816 20.216778,133.990816 22.1036773,135.870446 C23.9905765,137.750077 27.225261,145.2686 27.225261,145.2686"/>
      <path fill="#2C2E33" d="M5.4030013,162.481721 L13.203982,171.238651 L16.7513527,176.641247 C16.7513527,176.641247 22.7818828,176.817395 23.6832815,176.456506 C24.5857585,176.095617 29.7353762,179.070804 30.6615742,175.972098 C31.5866939,172.872319 31.4378984,165.709315 31.4378984,165.709315 L28.9342526,161.895276 C28.9342526,161.895276 32.89135,162.720165 31.2222528,160.17783 C29.5531556,157.635496 25.3426746,155.387457 25.3426746,155.387457 L20.9844764,151.835492 C20.0097582,151.040677 18.76117,150.658306 17.5071906,150.767862 L7.40095808,151.650751 L3.38347996,157.672014 L5.4030013,162.481721"/>
      <path fill="#B8BEC6" d="M98.3883195,97.7407954 C98.3883195,97.7407954 104.049017,101.231538 104.857688,105.527837 C105.66636,109.824135 102.970789,114.92599 100.814333,115.463028 C98.6578765,116.000065 92.7276217,117.879696 89.7624942,120.296364 C86.7973668,122.713032 80.6665615,126.0867 81.1366689,129.15748 C81.6067764,132.227185 80.8671119,147.685268 81.406226,150.370454 C81.9453401,153.055641 82.7540112,159.231571 82.7540112,159.231571 C82.7540112,159.231571 70.6239444,159.231571 73.3195148,157.35194 C76.0150852,155.472309 81.4288688,158.464681 79.7888838,151.713048 C78.1488987,144.961414 74.936857,138.287114 73.5890718,136.944521 C72.2412866,135.601928 68.197931,131.574148 66.0414747,129.15748 C63.8850184,126.740812 61.189448,122.98155 61.189448,122.98155 C61.189448,122.98155 70.3543874,126.740812 80.3279978,117.611177 C90.3016083,108.481542 94.0754069,100.963019 94.0754069,100.963019 L98.3883195,97.7407954"/>
      <path fill="#ECF0F3" d="M80.3279978,121.10192 C80.3279978,121.10192 91.1102794,115.731546 93.5362928,108.750061 C95.9623061,101.768575 100.005662,98.2778327 98.3883195,92.1019034 C96.7709773,85.925974 93.967584,76.2593019 92.4580646,74.3796712 C90.9485452,72.5000405 80.4433682,64.1759618 75.4759711,63.6389245 C70.508574,63.1018871 70.1538369,60.7475155 60.1112199,63.9074431 C50.0686028,67.0673708 43.9377975,74.3796712 41.2422271,77.6018953 C38.5466567,80.8241193 37.1988715,85.6574553 37.1988715,87.2685673 C37.1988715,88.8796793 55.7983072,117.342658 55.7983072,117.342658 C55.7983072,117.342658 59.0329917,124.861181 60.3807769,125.1297 C61.7285621,125.398218 66.5805888,129.425998 70.8935014,126.740812 C75.2064141,124.055625 80.3279978,121.10192 80.3279978,121.10192"/>
      <path fill="#B8BEC6" d="M57.1460924 83.2407873C61.8579495 83.7982321 71.1630585 84.314862 74.1281859 80.2870819 77.0933134 76.2593019 78.4410986 73.0370779 74.1281859 70.3518912 69.8152733 67.6667045 63.3459043 64.7129992 58.7634347 67.9352232 54.180965 71.1574472 48.5202671 75.1852272 50.1376094 77.8704139 51.7549516 80.5556006 57.1460924 83.2407873 57.1460924 83.2407873M133.700292 68.7407792C132.891621 64.7129992 126.152695 52.6296591 126.152695 52.6296591L106.744588 71.6944845 110.248829 87.2685673 113.753071 87.537086 133.700292 68.7407792"/>
      <path fill="#ECF0F3" d="M61.7285621,44.3055803 C61.7285621,44.3055803 77.0232285,29.3458683 77.9019845,28.1944602 C78.7807404,27.0430522 83.5626823,27.9259415 83.5626823,27.9259415 L123.457124,51.0185471 L126.152695,52.6296591 L106.744588,71.6944845 L64.1545754,48.601879 L61.7285621,44.3055803"/>
      <path fill="#E85740" d="M154.456184 127.814886C152.268459 121.907476 101.892561.268518669 101.892561.268518669L98.3883195 1.34259334 150.682385 131.574148 153.91707 130.500073 154.456184 127.814886M27.494818 106.064874C27.494818 106.064874 28.3034892 108.481542 31.2686166 106.333393 34.233744 104.185243 34.5033011 104.185243 35.3119722 100.425982 36.1206433 96.6667207 34.233744 95.8611647 34.233744 95.8611647 34.233744 95.8611647 29.6512744 97.2037581 28.3034892 99.8889448 26.955704 102.574131 27.494818 106.064874 27.494818 106.064874"/>
      <path fill="#B8BEC6" d="M85.1800245,208.101968 C85.9886957,203.537151 89.2233801,190.916773 89.2233801,190.916773 C89.2233801,190.916773 92.4580646,190.379736 94.6145209,191.990848 C96.7709773,193.60196 106.205474,196.018628 106.205474,196.018628 C106.205474,196.018628 116.718198,195.481591 116.718198,196.555665 C116.718198,197.62974 113.483514,210.250118 112.135729,212.398267 C110.787943,214.546416 108.092373,215.88901 108.092373,215.88901 C108.092373,215.88901 105.66636,216.426047 99.4665476,214.814935 C93.2667357,213.203823 87.3364809,210.518636 87.3364809,210.518636 L85.1800245,208.101968"/>
      <path fill="#ECF0F3" d="M90.8407224,194.676035 C90.8407224,194.676035 104.049017,194.676035 104.049017,198.435296 C104.049017,202.194558 101.892561,212.398267 101.892561,212.398267 C101.892561,212.398267 96.6631544,212.367119 93.8058498,210.250118 C90.9485452,208.133116 87.6060379,207.296412 87.6060379,207.296412 L90.8407224,194.676035"/>
      <path fill="#E85740" d="M43.1291264 146.342674L41.7813412 150.101936C41.7813412 150.101936 43.9377975 153.861197 45.8246967 155.740828 47.711596 157.620459 59.8416628 165.4075 59.8416628 165.4075 59.8416628 165.4075 64.4241325 167.824168 65.7719177 168.092687 67.1197029 168.361205 78.9802126 172.926023 80.0584408 174.000097 81.1366689 175.074172 90.0320513 176.148247 90.0320513 176.148247L93.8058498 176.148247 94.6145209 170.777873C94.6145209 170.777873 91.9189505 167.555649 90.5711653 166.213056 89.2233801 164.870463 87.6060379 161.111201 86.5278097 161.111201 85.4495816 161.111201 80.0584408 160.305645 74.936857 158.694533 69.8152733 157.083421 56.6759849 151.981566 53.3722939 150.907492 50.0686028 149.833417 43.1291264 146.342674 43.1291264 146.342674M67.658817 133.990816C67.658817 133.990816 67.3892599 129.425998 71.4326155 129.425998 75.4759711 129.425998 81.675783 132.916741 81.9453401 135.333409 82.2148971 137.750077 83.8322393 142.314894 81.406226 144.463044 78.9802126 146.611193 76.5541993 146.611193 74.936857 145.2686 73.3195148 143.926006 67.658817 133.990816 67.658817 133.990816"/>
      <polyline fill="#B8BEC6" points="61.998 146.074 65.502 157.889 41.512 147.417 38.008 132.917 61.998 146.074"/>
      <path fill="#5B5E67" d="M70.3543874,138.287114 C69.5457162,138.824152 61.9981191,146.074156 61.9981191,146.074156 L65.5023606,157.888977 L75.2064141,150.638973 L70.3543874,138.287114"/>
      <polyline fill="#ECF0F3" points="47.442 124.593 38.008 132.917 61.998 146.074 70.354 138.287 47.442 124.593"/>
      <path fill="#ECF0F3" d="M40.6136201,108.123875 C40.6136201,108.123875 35.9405792,112.777841 34.1442511,116.357732 C32.3468448,119.938697 25.1582976,129.963036 25.1582976,129.963036 L15.0951942,129.605369 C15.0951942,129.605369 25.5184258,118.148214 26.955704,113.135508 C28.3929821,108.123875 31.2686166,99.8889448 31.2686166,99.8889448 C31.2686166,99.8889448 39.1752637,92.7280889 40.2534919,96.3090539 C41.33172,99.8889448 40.6136201,108.123875 40.6136201,108.123875"/>
      <path fill="#EC6D54" d="M36.3902004,93.4444967 C36.3902004,93.4444967 34.233744,88.6111607 35.5815292,86.1944927 C36.9293144,83.7778246 38.8162137,81.898194 38.8162137,81.898194 L53.1027368,87.537086 L81.1366689,100.694501 L84.6409105,102.305613 L83.8322393,104.990799 L78.7106556,103.916725 L36.3902004,93.4444967"/>
      <path fill="#16546E" d="M38.5466567,90.2222727 C38.5466567,90.2222727 36.3902004,93.4444967 37.4684285,98.8148701 C38.5466567,104.185243 39.8944419,109.287098 42.0508982,112.240804 C44.2073545,115.194509 44.7464686,117.611177 49.5984953,120.296364 C54.450522,122.98155 61.7415008,125.498107 68.4674881,124.324144 C75.1934753,123.15018 77.6324274,121.638957 79.2497697,118.685252 C80.8671119,115.731546 81.3620186,112.406211 81.1366689,110.361173 C80.9113193,108.316135 82.2148971,105.259318 81.406226,104.453762 C80.5975549,103.648206 68.4674881,99.6204261 59.8416628,96.3982021 C51.2158375,93.175978 38.5466567,90.2222727 38.5466567,90.2222727"/>
      <path fill="#E85740" d="M122.378896 159.231571C122.378896 159.231571 127.485385 158.157496 129.656936 151.17601 131.828488 144.194525 135.587191 137.750077 136.665419 132.111185 137.743647 126.472293 138.552318 122.98155 136.126305 115.731546 133.700292 108.481542 133.161178 104.453762 130.19605 104.453762 127.230923 104.453762 125.883138 105.527837 125.883138 106.333393 125.883138 107.138949 128.039594 114.120434 129.387379 116.537102 130.735164 118.95377 132.337411 121.370438 132.082949 124.861181 131.828488 128.351924 130.19605 134.259334 128.039594 138.287114 125.883138 142.314894 122.648453 149.29638 122.109339 150.907492 121.570225 152.518604 122.378896 159.231571 122.378896 159.231571M3.0977495 157.064088C3.0977495 157.064088 4.57600031 151.336048 7.11522762 151.042825 9.65553316 150.748529 17.2214602 150.159936 17.2214602 150.159936L20.698746 151.227566 25.0569442 154.779531C25.0569442 154.779531 16.9767024 153.919197 14.3814072 154.475568 11.786112 155.033013 9.31265661 153.694716 8.50937663 154.898753 7.70609665 156.103865 5.53777982 157.749347 5.14207009 159.135978 4.74528213 160.521534 6.10600606 163.725499 6.10600606 163.725499L2.44757792 158.8492 3.0977495 157.064088"/>
      <path fill="#1D1D1B" d="M8.71208352,150.035343 C8.71208352,150.035343 12.1559443,155.655976 13.0131356,155.835346 C13.8714053,156.013643 21.8869534,156.19731 21.6907159,155.710754 C21.4944783,155.224198 17.5912924,149.656195 17.0198315,149.536973 C16.4483706,149.41775 9.43233993,149.442454 8.71208352,150.035343"/>
      <path fill="#FFFFFF" d="M10.122406,150.535862 L13.2611281,154.898753 L19.9774113,155.044827 C19.9774113,155.044827 17.3497693,150.244788 16.7653696,150.171751 C16.18097,150.099788 10.4146058,150.244788 10.122406,150.535862"/>
    </g>
    <g transform="translate(210 11)">
      <rect width="234" height="40" fill="#7BCAEC" rx="20"/>
      <path fill="#FFFFFF" d="M20.476,15.298 L21.428,15.298 L21.428,25 L20.476,25 L20.476,20.338 L15.212,20.338 L15.212,25 L14.26,25 L14.26,15.298 L15.212,15.298 L15.212,19.512 L20.476,19.512 L20.476,15.298 Z M30.4548889,21.388 C30.4548889,21.9573362 30.373223,22.475331 30.2098889,22.942 C30.0465547,23.408669 29.8178904,23.8053317 29.5238889,24.132 C29.2298874,24.4586683 28.8822242,24.7129991 28.4808889,24.895 C28.0795536,25.0770009 27.6362247,25.168 27.1508889,25.168 C26.6655531,25.168 26.2222242,25.0770009 25.8208889,24.895 C25.4195536,24.7129991 25.0718904,24.4586683 24.7778889,24.132 C24.4838874,23.8053317 24.255223,23.408669 24.0918889,22.942 C23.9285547,22.475331 23.8468889,21.9573362 23.8468889,21.388 C23.8468889,20.8186638 23.9285547,20.300669 24.0918889,19.834 C24.255223,19.367331 24.4838874,18.968335 24.7778889,18.637 C25.0718904,18.305665 25.4195536,18.0490009 25.8208889,17.867 C26.2222242,17.6849991 26.6655531,17.594 27.1508889,17.594 C27.6362247,17.594 28.0795536,17.6849991 28.4808889,17.867 C28.8822242,18.0490009 29.2298874,18.305665 29.5238889,18.637 C29.8178904,18.968335 30.0465547,19.367331 30.2098889,19.834 C30.373223,20.300669 30.4548889,20.8186638 30.4548889,21.388 Z M29.4888889,21.388 C29.4888889,20.4826621 29.278891,19.7616693 28.8588889,19.225 C28.4388868,18.6883306 27.8695592,18.42 27.1508889,18.42 C26.4322186,18.42 25.862891,18.6883306 25.4428889,19.225 C25.0228868,19.7616693 24.8128889,20.4826621 24.8128889,21.388 C24.8128889,22.2933379 25.0228868,23.0119973 25.4428889,23.544 C25.862891,24.0760027 26.4322186,24.342 27.1508889,24.342 C27.8695592,24.342 28.4388868,24.0760027 28.8588889,23.544 C29.278891,23.0119973 29.4888889,22.2933379 29.4888889,21.388 Z M38.3757778,24.748 C38.1051098,24.822667 37.7411134,24.9066662 37.2837778,25 C36.8264422,25.0933338 36.2664478,25.14 35.6037778,25.14 C35.0624418,25.14 34.6097796,25.0606675 34.2457778,24.902 C33.881776,24.7433325 33.5877789,24.5193348 33.3637778,24.23 C33.1397767,23.9406652 32.9787783,23.5906687 32.8807778,23.18 C32.7827773,22.7693313 32.7337778,22.3166691 32.7337778,21.822 L32.7337778,17.762 L33.6437778,17.762 L33.6437778,21.528 C33.6437778,22.0413359 33.6811108,22.4753316 33.7557778,22.83 C33.8304448,23.1846684 33.951777,23.4716656 34.1197778,23.691 C34.2877786,23.9103344 34.5047765,24.0689995 34.7707778,24.167 C35.0367791,24.2650005 35.3611092,24.314 35.7437778,24.314 C36.1731133,24.314 36.5464429,24.2906669 36.8637778,24.244 C37.1811127,24.1973331 37.3817774,24.1553335 37.4657778,24.118 L37.4657778,17.762 L38.3757778,17.762 L38.3757778,24.748 Z M42.6566667,24.356 C43.179336,24.356 43.6109983,24.2696675 43.9516667,24.097 C44.2923351,23.9243325 44.4626667,23.6326687 44.4626667,23.222 C44.4626667,23.025999 44.4323337,22.8580007 44.3716667,22.718 C44.3109997,22.5779993 44.2106674,22.4520006 44.0706667,22.34 C43.930666,22.2279994 43.7463345,22.1206672 43.5176667,22.018 C43.2889989,21.9153328 43.0066684,21.7940007 42.6706667,21.654 C42.3999987,21.5419994 42.1433346,21.4276672 41.9006667,21.311 C41.6579988,21.1943327 41.4433343,21.0590008 41.2566667,20.905 C41.0699991,20.7509992 40.9206672,20.5666677 40.8086667,20.352 C40.6966661,20.1373323 40.6406667,19.8760015 40.6406667,19.568 C40.6406667,18.9799971 40.8623311,18.5040018 41.3056667,18.14 C41.7490022,17.7759982 42.3579961,17.594 43.1326667,17.594 C43.6273358,17.594 44.0356651,17.6359996 44.3576667,17.72 C44.6796683,17.8040004 44.9059994,17.8786663 45.0366667,17.944 L44.8266667,18.756 C44.7146661,18.6999997 44.525668,18.6253338 44.2596667,18.532 C43.9936654,18.4386662 43.6040026,18.392 43.0906667,18.392 C42.8853323,18.392 42.6916676,18.4129998 42.5096667,18.455 C42.3276658,18.4970002 42.1666674,18.5623329 42.0266667,18.651 C41.886666,18.7396671 41.7746671,18.851666 41.6906667,18.987 C41.6066663,19.122334 41.5646667,19.287999 41.5646667,19.484 C41.5646667,19.680001 41.6019996,19.8479993 41.6766667,19.988 C41.7513337,20.1280007 41.8609993,20.2516661 42.0056667,20.359 C42.1503341,20.4663339 42.3276656,20.5666662 42.5376667,20.66 C42.7476677,20.7533338 42.9879987,20.8559994 43.2586667,20.968 C43.5386681,21.0800006 43.8069987,21.1943327 44.0636667,21.311 C44.3203346,21.4276672 44.5466657,21.5676658 44.7426667,21.731 C44.9386677,21.8943341 45.0973327,22.0903322 45.2186667,22.319 C45.3400006,22.5476678 45.4006667,22.8346649 45.4006667,23.18 C45.4006667,23.8333366 45.1556691,24.3279983 44.6656667,24.664 C44.1756642,25.0000017 43.5060043,25.168 42.6566667,25.168 C42.0219968,25.168 41.5366684,25.1143339 41.2006667,25.007 C40.864665,24.8996661 40.6406672,24.8180003 40.5286667,24.762 L40.7666667,23.936 C40.7946668,23.9546668 40.8553329,23.9849998 40.9486667,24.027 C41.0420005,24.0690002 41.1679992,24.1156664 41.3266667,24.167 C41.4853341,24.2183336 41.6743323,24.2626665 41.8936667,24.3 C42.1130011,24.3373335 42.3673319,24.356 42.6566667,24.356 Z M48.4075556,17.762 L51.2915556,17.762 L51.2915556,18.532 L48.4075556,18.532 L48.4075556,22.382 C48.4075556,22.7926687 48.4425552,23.126332 48.5125556,23.383 C48.5825559,23.6396679 48.6828883,23.8379993 48.8135556,23.978 C48.9442229,24.1180007 49.102888,24.2113331 49.2895556,24.258 C49.4762232,24.3046669 49.6815545,24.328 49.9055556,24.328 C50.2882242,24.328 50.5962211,24.2836671 50.8295556,24.195 C51.0628901,24.1063329 51.2448883,24.024667 51.3755556,23.95 L51.5995556,24.706 C51.4688883,24.7900004 51.2402239,24.8856661 50.9135556,24.993 C50.5868873,25.1003339 50.2322242,25.154 49.8495556,25.154 C49.4015533,25.154 49.0258904,25.0956672 48.7225556,24.979 C48.4192207,24.8623327 48.1765565,24.6850012 47.9945556,24.447 C47.8125547,24.2089988 47.6842226,23.9126684 47.6095556,23.558 C47.5348885,23.2033316 47.4975556,22.7833358 47.4975556,22.298 L47.4975556,15.634 L48.4075556,15.466 L48.4075556,17.762 Z M59.5344445,21.388 C59.5344445,21.9573362 59.4527786,22.475331 59.2894445,22.942 C59.1261103,23.408669 58.8974459,23.8053317 58.6034445,24.132 C58.309443,24.4586683 57.9617798,24.7129991 57.5604445,24.895 C57.1591091,25.0770009 56.7157802,25.168 56.2304445,25.168 C55.7451087,25.168 55.3017798,25.0770009 54.9004445,24.895 C54.4991091,24.7129991 54.1514459,24.4586683 53.8574445,24.132 C53.563443,23.8053317 53.3347786,23.408669 53.1714445,22.942 C53.0081103,22.475331 52.9264445,21.9573362 52.9264445,21.388 C52.9264445,20.8186638 53.0081103,20.300669 53.1714445,19.834 C53.3347786,19.367331 53.563443,18.968335 53.8574445,18.637 C54.1514459,18.305665 54.4991091,18.0490009 54.9004445,17.867 C55.3017798,17.6849991 55.7451087,17.594 56.2304445,17.594 C56.7157802,17.594 57.1591091,17.6849991 57.5604445,17.867 C57.9617798,18.0490009 58.309443,18.305665 58.6034445,18.637 C58.8974459,18.968335 59.1261103,19.367331 59.2894445,19.834 C59.4527786,20.300669 59.5344445,20.8186638 59.5344445,21.388 Z M58.5684445,21.388 C58.5684445,20.4826621 58.3584466,19.7616693 57.9384445,19.225 C57.5184424,18.6883306 56.9491147,18.42 56.2304445,18.42 C55.5117742,18.42 54.9424466,18.6883306 54.5224445,19.225 C54.1024424,19.7616693 53.8924445,20.4826621 53.8924445,21.388 C53.8924445,22.2933379 54.1024424,23.0119973 54.5224445,23.544 C54.9424466,24.0760027 55.5117742,24.342 56.2304445,24.342 C56.9491147,24.342 57.5184424,24.0760027 57.9384445,23.544 C58.3584466,23.0119973 58.5684445,22.2933379 58.5684445,21.388 Z M61.8973334,18.014 C62.1680014,17.939333 62.5319978,17.8553338 62.9893334,17.762 C63.446669,17.6686662 64.0066634,17.622 64.6693334,17.622 C65.2200028,17.622 65.6796649,17.7013325 66.0483334,17.86 C66.4170019,18.0186675 66.7109989,18.2449985 66.9303334,18.539 C67.1496678,18.8330015 67.3059996,19.1853313 67.3993334,19.596 C67.4926672,20.0066687 67.5393334,20.4593309 67.5393334,20.954 L67.5393334,25 L66.6293334,25 L66.6293334,21.248 C66.6293334,20.7346641 66.5943337,20.3006684 66.5243334,19.946 C66.454333,19.5913316 66.3376675,19.3020011 66.1743334,19.078 C66.0109992,18.8539989 65.7963347,18.6930005 65.5303334,18.595 C65.264332,18.4969995 64.9306687,18.448 64.5293334,18.448 C64.0999979,18.448 63.7290016,18.4713331 63.4163334,18.518 C63.1036651,18.5646669 62.9006672,18.6066665 62.8073334,18.644 L62.8073334,25 L61.8973334,25 L61.8973334,18.014 Z M71.3162223,23.67 C71.3255556,23.7540004 71.3302223,23.8286663 71.3302223,23.894 L71.3302223,24.062 C71.3302223,24.6406696 71.2485564,25.1959973 71.0852223,25.728 C70.9218881,26.2600027 70.695557,26.759331 70.4062223,27.226 L69.7342223,26.918 C69.94889,26.5073313 70.1005552,26.0756689 70.1892223,25.623 C70.2778894,25.1703311 70.3222223,24.7013358 70.3222223,24.216 C70.3222223,24.1039994 70.319889,24.010667 70.3152223,23.936 C70.3105556,23.861333 70.3035556,23.7726672 70.2942223,23.67 L71.3162223,23.67 Z M82.3280001,17.762 C82.4120005,18.228669 82.521666,18.725664 82.6570001,19.253 C82.7923341,19.780336 82.9416659,20.3169973 83.1050001,20.863 C83.2683342,21.4090027 83.4409991,21.9479973 83.6230001,22.48 C83.805001,23.0120027 83.9893325,23.511331 84.1760001,23.978 C84.3346675,23.6233316 84.5026658,23.1916692 84.6800001,22.683 C84.8573343,22.1743308 85.0346658,21.6376695 85.2120001,21.073 C85.3893343,20.5083305 85.5549993,19.9390029 85.7090001,19.365 C85.8630008,18.7909971 85.9913329,18.2566691 86.0940001,17.762 L86.9900001,17.762 C86.6539984,19.1806738 86.2876687,20.4779941 85.8910001,21.654 C85.4943314,22.8300059 85.0580024,23.9453281 84.5820001,25 L83.7280001,25 C83.5879994,24.6733317 83.4410008,24.307002 83.2870001,23.901 C83.1329993,23.494998 82.9743342,23.0610023 82.8110001,22.599 C82.6476659,22.1369977 82.4890008,21.6516692 82.3350001,21.143 C82.1809993,20.6343308 82.0340008,20.1140027 81.8940001,19.582 C81.7539994,20.1140027 81.6070008,20.6343308 81.4530001,21.143 C81.2989993,21.6516692 81.1403342,22.1369977 80.9770001,22.599 C80.8136659,23.0610023 80.6550008,23.494998 80.5010001,23.901 C80.3469993,24.307002 80.2000008,24.6733317 80.0600001,25 L79.1920001,25 C78.7159977,23.9453281 78.2796687,22.8300059 77.8830001,21.654 C77.4863314,20.4779941 77.1200017,19.1806738 76.7840001,17.762 L77.7500001,17.762 C77.8526672,18.2566691 77.9809993,18.7909971 78.1350001,19.365 C78.2890008,19.9390029 78.4546658,20.5083305 78.6320001,21.073 C78.8093343,21.6376695 78.9889991,22.1719975 79.1710001,22.676 C79.353001,23.1800025 79.5233326,23.6093316 79.6820001,23.964 C79.8593343,23.497331 80.0389991,22.9980027 80.2210001,22.466 C80.403001,21.9339973 80.5733326,21.397336 80.7320001,20.856 C80.8906675,20.314664 81.0399994,19.780336 81.1800001,19.253 C81.3200008,18.725664 81.4413329,18.228669 81.5440001,17.762 L82.3280001,17.762 Z M88.470889,21.374 C88.470889,20.7393302 88.561888,20.1863357 88.743889,19.715 C88.9258899,19.2436643 89.1638875,18.8493349 89.457889,18.532 C89.7518904,18.2146651 90.0878871,17.9790008 90.465889,17.825 C90.8438908,17.6709992 91.2335536,17.594 91.634889,17.594 C92.5215601,17.594 93.228553,17.8833304 93.755889,18.462 C94.2832249,19.0406696 94.546889,19.931994 94.546889,21.136 C94.546889,21.210667 94.5445556,21.285333 94.539889,21.36 C94.5352223,21.434667 94.5282223,21.5046663 94.518889,21.57 L89.436889,21.57 C89.4648891,22.4566711 89.6842202,23.1379976 90.094889,23.614 C90.5055577,24.0900024 91.1588845,24.328 92.054889,24.328 C92.5495581,24.328 92.9415542,24.2813338 93.230889,24.188 C93.5202237,24.0946662 93.7302216,24.0153337 93.860889,23.95 L94.028889,24.734 C93.8982216,24.808667 93.6532241,24.8973328 93.293889,25 C92.9345538,25.1026672 92.5122247,25.154 92.026889,25.154 C91.3922191,25.154 90.8508912,25.0606676 90.402889,24.874 C89.9548867,24.6873324 89.5862237,24.4260017 89.296889,24.09 C89.0075542,23.7539983 88.7975563,23.3550023 88.666889,22.893 C88.5362216,22.4309977 88.470889,21.9246694 88.470889,21.374 Z M93.608889,20.8 C93.5902222,20.0439962 93.4128906,19.4560021 93.076889,19.036 C92.7408873,18.6159979 92.264892,18.406 91.648889,18.406 C91.3222207,18.406 91.0305569,18.4713327 90.773889,18.602 C90.517221,18.7326673 90.2932232,18.9076656 90.101889,19.127 C89.9105547,19.3463344 89.7612228,19.6006652 89.653889,19.89 C89.5465551,20.1793348 89.4835557,20.4826651 89.464889,20.8 L93.608889,20.8 Z M100.546667,25 L100.546667,14.304 L101.456667,14.136 L101.456667,17.972 C101.755335,17.8599994 102.058665,17.773667 102.366667,17.713 C102.674668,17.652333 102.982665,17.622 103.290667,17.622 C103.85067,17.622 104.317332,17.7013325 104.690667,17.86 C105.064002,18.0186675 105.362666,18.2449985 105.586667,18.539 C105.810668,18.8330015 105.967,19.1853313 106.055667,19.596 C106.144334,20.0066687 106.188667,20.4593309 106.188667,20.954 L106.188667,25 L105.278667,25 L105.278667,21.248 C105.278667,20.7346641 105.243667,20.3006684 105.173667,19.946 C105.103666,19.5913316 104.987001,19.3020011 104.823667,19.078 C104.660333,18.8539989 104.443335,18.6930005 104.172667,18.595 C103.901999,18.4969995 103.561335,18.448 103.150667,18.448 C102.991999,18.448 102.821668,18.4619999 102.639667,18.49 C102.457666,18.5180001 102.287334,18.5483332 102.128667,18.581 C101.969999,18.6136668 101.827667,18.6486665 101.701667,18.686 C101.575666,18.7233335 101.494,18.7513332 101.456667,18.77 L101.456667,25 L100.546667,25 Z M111.183556,24.342 C111.538224,24.342 111.848554,24.3303334 112.114556,24.307 C112.380557,24.2836665 112.606888,24.2533335 112.793556,24.216 L112.793556,21.668 C112.690888,21.6213331 112.527557,21.5723336 112.303556,21.521 C112.079555,21.4696664 111.771558,21.444 111.379556,21.444 C111.155555,21.444 110.922224,21.4603332 110.679556,21.493 C110.436888,21.5256668 110.21289,21.5956661 110.007556,21.703 C109.802221,21.8103339 109.634223,21.9573324 109.503556,22.144 C109.372888,22.3306676 109.307556,22.5779985 109.307556,22.886 C109.307556,23.156668 109.351889,23.3853324 109.440556,23.572 C109.529223,23.7586676 109.655221,23.9079994 109.818556,24.02 C109.98189,24.1320006 110.177888,24.2136664 110.406556,24.265 C110.635223,24.3163336 110.894221,24.342 111.183556,24.342 Z M111.099556,17.594 C111.575558,17.594 111.979221,17.661666 112.310556,17.797 C112.641891,17.932334 112.910221,18.1189988 113.115556,18.357 C113.32089,18.5950012 113.470222,18.8773317 113.563556,19.204 C113.656889,19.5306683 113.703556,19.8853314 113.703556,20.268 L113.703556,24.832 C113.610222,24.8600001 113.47489,24.8903332 113.297556,24.923 C113.120221,24.9556668 112.91489,24.9906665 112.681556,25.028 C112.448221,25.0653335 112.189224,25.0956665 111.904556,25.119 C111.619888,25.1423334 111.328224,25.154 111.029556,25.154 C110.646887,25.154 110.294557,25.1120004 109.972556,25.028 C109.650554,24.9439996 109.370557,24.8110009 109.132556,24.629 C108.894554,24.4469991 108.70789,24.2136681 108.572556,23.929 C108.437222,23.6443319 108.369556,23.2966687 108.369556,22.886 C108.369556,22.493998 108.444222,22.1580014 108.593556,21.878 C108.74289,21.5979986 108.952888,21.3670009 109.223556,21.185 C109.494224,21.0029991 109.81622,20.8700004 110.189556,20.786 C110.562891,20.7019996 110.968887,20.66 111.407556,20.66 C111.538223,20.66 111.675888,20.6669999 111.820556,20.681 C111.965223,20.6950001 112.105222,20.7136665 112.240556,20.737 C112.37589,20.7603334 112.492555,20.7836665 112.590556,20.807 C112.688556,20.8303334 112.756222,20.8513332 112.793556,20.87 L112.793556,20.422 C112.793556,20.1699987 112.774889,19.9250012 112.737556,19.687 C112.700222,19.4489988 112.618556,19.2343343 112.492556,19.043 C112.366555,18.8516657 112.189223,18.6976672 111.960556,18.581 C111.731888,18.4643327 111.430891,18.406 111.057556,18.406 C110.525553,18.406 110.12889,18.443333 109.867556,18.518 C109.606221,18.592667 109.41489,18.6533331 109.293556,18.7 L109.167556,17.902 C109.326223,17.827333 109.571221,17.7573337 109.902556,17.692 C110.233891,17.6266663 110.632887,17.594 111.099556,17.594 Z M118.600445,24.02 C118.796446,23.6186647 118.99711,23.1590026 119.202445,22.641 C119.407779,22.1229974 119.60611,21.5863361 119.797445,21.031 C119.988779,20.4756639 120.16611,19.9156695 120.329445,19.351 C120.492779,18.7863305 120.630444,18.2566691 120.742445,17.762 L121.652445,17.762 C121.484444,18.42467 121.297779,19.0779968 121.092445,19.722 C120.88711,20.3660032 120.670112,20.9959969 120.441445,21.612 C120.212777,22.2280031 119.974779,22.8206638 119.727445,23.39 C119.48011,23.9593362 119.239779,24.4959975 119.006445,25 L118.138445,25 C117.895777,24.4959975 117.653112,23.9593362 117.410445,23.39 C117.167777,22.8206638 116.932112,22.2280031 116.703445,21.612 C116.474777,20.9959969 116.257779,20.3660032 116.052445,19.722 C115.84711,19.0779968 115.660445,18.42467 115.492445,17.762 L116.458445,17.762 C116.570445,18.2566691 116.70811,18.7863305 116.871445,19.351 C117.034779,19.9156695 117.21211,20.4756639 117.403445,21.031 C117.594779,21.5863361 117.79311,22.1229974 117.998445,22.641 C118.203779,23.1590026 118.404444,23.6186647 118.600445,24.02 Z M123.091333,21.374 C123.091333,20.7393302 123.182333,20.1863357 123.364333,19.715 C123.546334,19.2436643 123.784332,18.8493349 124.078333,18.532 C124.372335,18.2146651 124.708332,17.9790008 125.086333,17.825 C125.464335,17.6709992 125.853998,17.594 126.255333,17.594 C127.142005,17.594 127.848997,17.8833304 128.376333,18.462 C128.903669,19.0406696 129.167333,19.931994 129.167333,21.136 C129.167333,21.210667 129.165,21.285333 129.160333,21.36 C129.155667,21.434667 129.148667,21.5046663 129.139333,21.57 L124.057333,21.57 C124.085334,22.4566711 124.304665,23.1379976 124.715333,23.614 C125.126002,24.0900024 125.779329,24.328 126.675333,24.328 C127.170003,24.328 127.561999,24.2813338 127.851333,24.188 C128.140668,24.0946662 128.350666,24.0153337 128.481333,23.95 L128.649333,24.734 C128.518666,24.808667 128.273669,24.8973328 127.914333,25 C127.554998,25.1026672 127.132669,25.154 126.647333,25.154 C126.012664,25.154 125.471336,25.0606676 125.023333,24.874 C124.575331,24.6873324 124.206668,24.4260017 123.917333,24.09 C123.627999,23.7539983 123.418001,23.3550023 123.287333,22.893 C123.156666,22.4309977 123.091333,21.9246694 123.091333,21.374 Z M128.229333,20.8 C128.210667,20.0439962 128.033335,19.4560021 127.697333,19.036 C127.361332,18.6159979 126.885337,18.406 126.269333,18.406 C125.942665,18.406 125.651001,18.4713327 125.394333,18.602 C125.137665,18.7326673 124.913668,18.9076656 124.722333,19.127 C124.530999,19.3463344 124.381667,19.6006652 124.274333,19.89 C124.167,20.1793348 124.104,20.4826651 124.085333,20.8 L128.229333,20.8 Z M137.449111,24.342 C137.80378,24.342 138.11411,24.3303334 138.380111,24.307 C138.646113,24.2836665 138.872444,24.2533335 139.059111,24.216 L139.059111,21.668 C138.956444,21.6213331 138.793112,21.5723336 138.569111,21.521 C138.34511,21.4696664 138.037113,21.444 137.645111,21.444 C137.42111,21.444 137.187779,21.4603332 136.945111,21.493 C136.702443,21.5256668 136.478446,21.5956661 136.273111,21.703 C136.067777,21.8103339 135.899779,21.9573324 135.769111,22.144 C135.638444,22.3306676 135.573111,22.5779985 135.573111,22.886 C135.573111,23.156668 135.617444,23.3853324 135.706111,23.572 C135.794778,23.7586676 135.920777,23.9079994 136.084111,24.02 C136.247445,24.1320006 136.443443,24.2136664 136.672111,24.265 C136.900779,24.3163336 137.159776,24.342 137.449111,24.342 Z M137.365111,17.594 C137.841114,17.594 138.244776,17.661666 138.576111,17.797 C138.907446,17.932334 139.175777,18.1189988 139.381111,18.357 C139.586446,18.5950012 139.735777,18.8773317 139.829111,19.204 C139.922445,19.5306683 139.969111,19.8853314 139.969111,20.268 L139.969111,24.832 C139.875777,24.8600001 139.740445,24.8903332 139.563111,24.923 C139.385777,24.9556668 139.180446,24.9906665 138.947111,25.028 C138.713777,25.0653335 138.454779,25.0956665 138.170111,25.119 C137.885443,25.1423334 137.593779,25.154 137.295111,25.154 C136.912443,25.154 136.560113,25.1120004 136.238111,25.028 C135.91611,24.9439996 135.636112,24.8110009 135.398111,24.629 C135.16011,24.4469991 134.973445,24.2136681 134.838111,23.929 C134.702777,23.6443319 134.635111,23.2966687 134.635111,22.886 C134.635111,22.493998 134.709777,22.1580014 134.859111,21.878 C135.008445,21.5979986 135.218443,21.3670009 135.489111,21.185 C135.759779,21.0029991 136.081776,20.8700004 136.455111,20.786 C136.828446,20.7019996 137.234442,20.66 137.673111,20.66 C137.803779,20.66 137.941444,20.6669999 138.086111,20.681 C138.230779,20.6950001 138.370777,20.7136665 138.506111,20.737 C138.641445,20.7603334 138.758111,20.7836665 138.856111,20.807 C138.954112,20.8303334 139.021778,20.8513332 139.059111,20.87 L139.059111,20.422 C139.059111,20.1699987 139.040445,19.9250012 139.003111,19.687 C138.965778,19.4489988 138.884112,19.2343343 138.758111,19.043 C138.632111,18.8516657 138.454779,18.6976672 138.226111,18.581 C137.997443,18.4643327 137.696446,18.406 137.323111,18.406 C136.791109,18.406 136.394446,18.443333 136.133111,18.518 C135.871777,18.592667 135.680445,18.6533331 135.559111,18.7 L135.433111,17.902 C135.591779,17.827333 135.836776,17.7573337 136.168111,17.692 C136.499446,17.6266663 136.898442,17.594 137.365111,17.594 Z M147.746889,24.356 C148.269558,24.356 148.701221,24.2696675 149.041889,24.097 C149.382557,23.9243325 149.552889,23.6326687 149.552889,23.222 C149.552889,23.025999 149.522556,22.8580007 149.461889,22.718 C149.401222,22.5779993 149.30089,22.4520006 149.160889,22.34 C149.020888,22.2279994 148.836557,22.1206672 148.607889,22.018 C148.379221,21.9153328 148.096891,21.7940007 147.760889,21.654 C147.490221,21.5419994 147.233557,21.4276672 146.990889,21.311 C146.748221,21.1943327 146.533557,21.0590008 146.346889,20.905 C146.160221,20.7509992 146.01089,20.5666677 145.898889,20.352 C145.786888,20.1373323 145.730889,19.8760015 145.730889,19.568 C145.730889,18.9799971 145.952553,18.5040018 146.395889,18.14 C146.839225,17.7759982 147.448218,17.594 148.222889,17.594 C148.717558,17.594 149.125887,17.6359996 149.447889,17.72 C149.769891,17.8040004 149.996222,17.8786663 150.126889,17.944 L149.916889,18.756 C149.804888,18.6999997 149.61589,18.6253338 149.349889,18.532 C149.083888,18.4386662 148.694225,18.392 148.180889,18.392 C147.975555,18.392 147.78189,18.4129998 147.599889,18.455 C147.417888,18.4970002 147.25689,18.5623329 147.116889,18.651 C146.976888,18.7396671 146.864889,18.851666 146.780889,18.987 C146.696889,19.122334 146.654889,19.287999 146.654889,19.484 C146.654889,19.680001 146.692222,19.8479993 146.766889,19.988 C146.841556,20.1280007 146.951222,20.2516661 147.095889,20.359 C147.240556,20.4663339 147.417888,20.5666662 147.627889,20.66 C147.83789,20.7533338 148.078221,20.8559994 148.348889,20.968 C148.62889,21.0800006 148.897221,21.1943327 149.153889,21.311 C149.410557,21.4276672 149.636888,21.5676658 149.832889,21.731 C150.02889,21.8943341 150.187555,22.0903322 150.308889,22.319 C150.430223,22.5476678 150.490889,22.8346649 150.490889,23.18 C150.490889,23.8333366 150.245891,24.3279983 149.755889,24.664 C149.265887,25.0000017 148.596227,25.168 147.746889,25.168 C147.112219,25.168 146.626891,25.1143339 146.290889,25.007 C145.954887,24.8996661 145.73089,24.8180003 145.618889,24.762 L145.856889,23.936 C145.884889,23.9546668 145.945555,23.9849998 146.038889,24.027 C146.132223,24.0690002 146.258222,24.1156664 146.416889,24.167 C146.575556,24.2183336 146.764555,24.2626665 146.983889,24.3 C147.203223,24.3373335 147.457554,24.356 147.746889,24.356 Z M158.201778,24.748 C157.93111,24.822667 157.567114,24.9066662 157.109778,25 C156.652442,25.0933338 156.092448,25.14 155.429778,25.14 C154.888442,25.14 154.43578,25.0606675 154.071778,24.902 C153.707776,24.7433325 153.413779,24.5193348 153.189778,24.23 C152.965777,23.9406652 152.804778,23.5906687 152.706778,23.18 C152.608777,22.7693313 152.559778,22.3166691 152.559778,21.822 L152.559778,17.762 L153.469778,17.762 L153.469778,21.528 C153.469778,22.0413359 153.507111,22.4753316 153.581778,22.83 C153.656445,23.1846684 153.777777,23.4716656 153.945778,23.691 C154.113779,23.9103344 154.330777,24.0689995 154.596778,24.167 C154.862779,24.2650005 155.187109,24.314 155.569778,24.314 C155.999113,24.314 156.372443,24.2906669 156.689778,24.244 C157.007113,24.1973331 157.207777,24.1553335 157.291778,24.118 L157.291778,17.762 L158.201778,17.762 L158.201778,24.748 Z M161.908667,18.196 C162.067334,18.0746661 162.321665,17.946334 162.671667,17.811 C163.021669,17.675666 163.434664,17.608 163.910667,17.608 C164.433336,17.608 164.897665,17.7013324 165.303667,17.888 C165.709669,18.0746676 166.052665,18.3359983 166.332667,18.672 C166.612668,19.0080017 166.824999,19.4069977 166.969667,19.869 C167.114334,20.3310023 167.186667,20.8373306 167.186667,21.388 C167.186667,21.9760029 167.100334,22.503331 166.927667,22.97 C166.754999,23.436669 166.512335,23.8333317 166.199667,24.16 C165.886999,24.4866683 165.513669,24.7363325 165.079667,24.909 C164.645665,25.0816675 164.162669,25.168 163.630667,25.168 C162.986664,25.168 162.454669,25.1260004 162.034667,25.042 C161.614665,24.9579996 161.269335,24.8693338 160.998667,24.776 L160.998667,14.304 L161.908667,14.136 L161.908667,18.196 Z M161.908667,24.146 C162.048668,24.1926669 162.256332,24.2369998 162.531667,24.279 C162.807002,24.3210002 163.168665,24.342 163.616667,24.342 C164.400671,24.342 165.030664,24.0876692 165.506667,23.579 C165.982669,23.0703308 166.220667,22.3400048 166.220667,21.388 C166.220667,20.9866647 166.178667,20.6063351 166.094667,20.247 C166.010666,19.8876649 165.875334,19.5750013 165.688667,19.309 C165.501999,19.0429987 165.257002,18.8306675 164.953667,18.672 C164.650332,18.5133325 164.274669,18.434 163.826667,18.434 C163.611999,18.434 163.406668,18.4549998 163.210667,18.497 C163.014666,18.5390002 162.832668,18.5926663 162.664667,18.658 C162.496666,18.7233337 162.349667,18.793333 162.223667,18.868 C162.097666,18.942667 161.992667,19.0126663 161.908667,19.078 L161.908667,24.146 Z M169.549556,18.014 C169.820224,17.939333 170.172554,17.8553338 170.606556,17.762 C171.040558,17.6686662 171.602886,17.622 172.293556,17.622 C173.208227,17.622 173.870887,17.8879973 174.281556,18.42 C174.328223,18.3826665 174.419222,18.3196671 174.554556,18.231 C174.68989,18.1423329 174.860221,18.0513338 175.065556,17.958 C175.27089,17.8646662 175.511221,17.7853337 175.786556,17.72 C176.06189,17.6546663 176.367554,17.622 176.703556,17.622 C177.254225,17.622 177.699887,17.7036658 178.040556,17.867 C178.381224,18.0303341 178.644888,18.2589985 178.831556,18.553 C179.018223,18.8470015 179.144222,19.1993313 179.209556,19.61 C179.274889,20.0206687 179.307556,20.4686642 179.307556,20.954 L179.307556,25 L178.397556,25 L178.397556,21.248 C178.397556,20.7719976 178.376556,20.3590017 178.334556,20.009 C178.292555,19.6589982 178.208556,19.3696678 178.082556,19.141 C177.956555,18.9123322 177.77689,18.7396672 177.543556,18.623 C177.310221,18.5063327 177.006891,18.448 176.633556,18.448 C176.353554,18.448 176.099224,18.4736664 175.870556,18.525 C175.641888,18.5763336 175.443557,18.639333 175.275556,18.714 C175.107555,18.788667 174.96989,18.863333 174.862556,18.938 C174.755222,19.012667 174.678223,19.0686665 174.631556,19.106 C174.715556,19.3486679 174.778555,19.6216651 174.820556,19.925 C174.862556,20.2283348 174.883556,20.5479983 174.883556,20.884 L174.883556,25 L173.973556,25 L173.973556,21.248 C173.973556,20.7719976 173.952556,20.3590017 173.910556,20.009 C173.868555,19.6589982 173.782223,19.3696678 173.651556,19.141 C173.520888,18.9123322 173.336557,18.7396672 173.098556,18.623 C172.860555,18.5063327 172.545558,18.448 172.153556,18.448 C171.714887,18.448 171.343891,18.4713331 171.040556,18.518 C170.737221,18.5646669 170.543556,18.6066665 170.459556,18.644 L170.459556,25 L169.549556,25 L169.549556,18.014 Z M182.930445,25 L182.020445,25 L182.020445,17.762 L182.930445,17.762 L182.930445,25 Z M183.140445,15.578 C183.140445,15.7926677 183.075112,15.9629994 182.944445,16.089 C182.813777,16.2150006 182.655112,16.278 182.468445,16.278 C182.281777,16.278 182.123112,16.2150006 181.992445,16.089 C181.861777,15.9629994 181.796445,15.7926677 181.796445,15.578 C181.796445,15.3633323 181.861777,15.1930006 181.992445,15.067 C182.123112,14.9409994 182.281777,14.878 182.468445,14.878 C182.655112,14.878 182.813777,14.9409994 182.944445,15.067 C183.075112,15.1930006 183.140445,15.3633323 183.140445,15.578 Z M187.211333,24.356 C187.734003,24.356 188.165665,24.2696675 188.506333,24.097 C188.847002,23.9243325 189.017333,23.6326687 189.017333,23.222 C189.017333,23.025999 188.987,22.8580007 188.926333,22.718 C188.865667,22.5779993 188.765334,22.4520006 188.625333,22.34 C188.485333,22.2279994 188.301001,22.1206672 188.072333,22.018 C187.843666,21.9153328 187.561335,21.7940007 187.225333,21.654 C186.954665,21.5419994 186.698001,21.4276672 186.455333,21.311 C186.212666,21.1943327 185.998001,21.0590008 185.811333,20.905 C185.624666,20.7509992 185.475334,20.5666677 185.363333,20.352 C185.251333,20.1373323 185.195333,19.8760015 185.195333,19.568 C185.195333,18.9799971 185.416998,18.5040018 185.860333,18.14 C186.303669,17.7759982 186.912663,17.594 187.687333,17.594 C188.182003,17.594 188.590332,17.6359996 188.912333,17.72 C189.234335,17.8040004 189.460666,17.8786663 189.591333,17.944 L189.381333,18.756 C189.269333,18.6999997 189.080335,18.6253338 188.814333,18.532 C188.548332,18.4386662 188.158669,18.392 187.645333,18.392 C187.439999,18.392 187.246334,18.4129998 187.064333,18.455 C186.882333,18.4970002 186.721334,18.5623329 186.581333,18.651 C186.441333,18.7396671 186.329334,18.851666 186.245333,18.987 C186.161333,19.122334 186.119333,19.287999 186.119333,19.484 C186.119333,19.680001 186.156666,19.8479993 186.231333,19.988 C186.306001,20.1280007 186.415666,20.2516661 186.560333,20.359 C186.705001,20.4663339 186.882332,20.5666662 187.092333,20.66 C187.302335,20.7533338 187.542665,20.8559994 187.813333,20.968 C188.093335,21.0800006 188.361666,21.1943327 188.618333,21.311 C188.875001,21.4276672 189.101333,21.5676658 189.297333,21.731 C189.493334,21.8943341 189.652,22.0903322 189.773333,22.319 C189.894667,22.5476678 189.955333,22.8346649 189.955333,23.18 C189.955333,23.8333366 189.710336,24.3279983 189.220333,24.664 C188.730331,25.0000017 188.060671,25.168 187.211333,25.168 C186.576664,25.168 186.091335,25.1143339 185.755333,25.007 C185.419332,24.8996661 185.195334,24.8180003 185.083333,24.762 L185.321333,23.936 C185.349334,23.9546668 185.41,23.9849998 185.503333,24.027 C185.596667,24.0690002 185.722666,24.1156664 185.881333,24.167 C186.040001,24.2183336 186.228999,24.2626665 186.448333,24.3 C186.667668,24.3373335 186.921999,24.356 187.211333,24.356 Z M193.592222,24.356 C194.114892,24.356 194.546554,24.2696675 194.887222,24.097 C195.227891,23.9243325 195.398222,23.6326687 195.398222,23.222 C195.398222,23.025999 195.367889,22.8580007 195.307222,22.718 C195.246555,22.5779993 195.146223,22.4520006 195.006222,22.34 C194.866222,22.2279994 194.68189,22.1206672 194.453222,22.018 C194.224555,21.9153328 193.942224,21.7940007 193.606222,21.654 C193.335554,21.5419994 193.07889,21.4276672 192.836222,21.311 C192.593555,21.1943327 192.37889,21.0590008 192.192222,20.905 C192.005555,20.7509992 191.856223,20.5666677 191.744222,20.352 C191.632222,20.1373323 191.576222,19.8760015 191.576222,19.568 C191.576222,18.9799971 191.797887,18.5040018 192.241222,18.14 C192.684558,17.7759982 193.293552,17.594 194.068222,17.594 C194.562892,17.594 194.971221,17.6359996 195.293222,17.72 C195.615224,17.8040004 195.841555,17.8786663 195.972222,17.944 L195.762222,18.756 C195.650222,18.6999997 195.461224,18.6253338 195.195222,18.532 C194.929221,18.4386662 194.539558,18.392 194.026222,18.392 C193.820888,18.392 193.627223,18.4129998 193.445222,18.455 C193.263221,18.4970002 193.102223,18.5623329 192.962222,18.651 C192.822222,18.7396671 192.710223,18.851666 192.626222,18.987 C192.542222,19.122334 192.500222,19.287999 192.500222,19.484 C192.500222,19.680001 192.537555,19.8479993 192.612222,19.988 C192.686889,20.1280007 192.796555,20.2516661 192.941222,20.359 C193.08589,20.4663339 193.263221,20.5666662 193.473222,20.66 C193.683223,20.7533338 193.923554,20.8559994 194.194222,20.968 C194.474224,21.0800006 194.742554,21.1943327 194.999222,21.311 C195.25589,21.4276672 195.482221,21.5676658 195.678222,21.731 C195.874223,21.8943341 196.032888,22.0903322 196.154222,22.319 C196.275556,22.5476678 196.336222,22.8346649 196.336222,23.18 C196.336222,23.8333366 196.091225,24.3279983 195.601222,24.664 C195.11122,25.0000017 194.44156,25.168 193.592222,25.168 C192.957553,25.168 192.472224,25.1143339 192.136222,25.007 C191.800221,24.8996661 191.576223,24.8180003 191.464222,24.762 L191.702222,23.936 C191.730223,23.9546668 191.790889,23.9849998 191.884222,24.027 C191.977556,24.0690002 192.103555,24.1156664 192.262222,24.167 C192.42089,24.2183336 192.609888,24.2626665 192.829222,24.3 C193.048557,24.3373335 193.302888,24.356 193.592222,24.356 Z M199.399111,25 L198.489111,25 L198.489111,17.762 L199.399111,17.762 L199.399111,25 Z M199.609111,15.578 C199.609111,15.7926677 199.543779,15.9629994 199.413111,16.089 C199.282444,16.2150006 199.123779,16.278 198.937111,16.278 C198.750444,16.278 198.591779,16.2150006 198.461111,16.089 C198.330444,15.9629994 198.265111,15.7926677 198.265111,15.578 C198.265111,15.3633323 198.330444,15.1930006 198.461111,15.067 C198.591779,14.9409994 198.750444,14.878 198.937111,14.878 C199.123779,14.878 199.282444,14.9409994 199.413111,15.067 C199.543779,15.1930006 199.609111,15.3633323 199.609111,15.578 Z M208.37,21.388 C208.37,21.9573362 208.288334,22.475331 208.125,22.942 C207.961666,23.408669 207.733002,23.8053317 207.439,24.132 C207.144999,24.4586683 206.797336,24.7129991 206.396,24.895 C205.994665,25.0770009 205.551336,25.168 205.066,25.168 C204.580664,25.168 204.137336,25.0770009 203.736,24.895 C203.334665,24.7129991 202.987002,24.4586683 202.693,24.132 C202.398999,23.8053317 202.170334,23.408669 202.007,22.942 C201.843666,22.475331 201.762,21.9573362 201.762,21.388 C201.762,20.8186638 201.843666,20.300669 202.007,19.834 C202.170334,19.367331 202.398999,18.968335 202.693,18.637 C202.987002,18.305665 203.334665,18.0490009 203.736,17.867 C204.137336,17.6849991 204.580664,17.594 205.066,17.594 C205.551336,17.594 205.994665,17.6849991 206.396,17.867 C206.797336,18.0490009 207.144999,18.305665 207.439,18.637 C207.733002,18.968335 207.961666,19.367331 208.125,19.834 C208.288334,20.300669 208.37,20.8186638 208.37,21.388 Z M207.404,21.388 C207.404,20.4826621 207.194002,19.7616693 206.774,19.225 C206.353998,18.6883306 205.78467,18.42 205.066,18.42 C204.34733,18.42 203.778002,18.6883306 203.358,19.225 C202.937998,19.7616693 202.728,20.4826621 202.728,21.388 C202.728,22.2933379 202.937998,23.0119973 203.358,23.544 C203.778002,24.0760027 204.34733,24.342 205.066,24.342 C205.78467,24.342 206.353998,24.0760027 206.774,23.544 C207.194002,23.0119973 207.404,22.2933379 207.404,21.388 Z M210.732889,18.014 C211.003557,17.939333 211.367553,17.8553338 211.824889,17.762 C212.282225,17.6686662 212.842219,17.622 213.504889,17.622 C214.055558,17.622 214.515221,17.7013325 214.883889,17.86 C215.252558,18.0186675 215.546555,18.2449985 215.765889,18.539 C215.985224,18.8330015 216.141555,19.1853313 216.234889,19.596 C216.328223,20.0066687 216.374889,20.4593309 216.374889,20.954 L216.374889,25 L215.464889,25 L215.464889,21.248 C215.464889,20.7346641 215.429889,20.3006684 215.359889,19.946 C215.289889,19.5913316 215.173223,19.3020011 215.009889,19.078 C214.846555,18.8539989 214.63189,18.6930005 214.365889,18.595 C214.099888,18.4969995 213.766224,18.448 213.364889,18.448 C212.935554,18.448 212.564557,18.4713331 212.251889,18.518 C211.939221,18.5646669 211.736223,18.6066665 211.642889,18.644 L211.642889,25 L210.732889,25 L210.732889,18.014 Z M220.375778,24.398 C220.375778,24.6126677 220.308112,24.7946659 220.172778,24.944 C220.037444,25.0933341 219.848446,25.168 219.605778,25.168 C219.36311,25.168 219.174112,25.0933341 219.038778,24.944 C218.903444,24.7946659 218.835778,24.6126677 218.835778,24.398 C218.835778,24.1833323 218.903444,24.0013341 219.038778,23.852 C219.174112,23.7026659 219.36311,23.628 219.605778,23.628 C219.848446,23.628 220.037444,23.7026659 220.172778,23.852 C220.308112,24.0013341 220.375778,24.1833323 220.375778,24.398 Z"/>
      <polygon fill="#7BCAEC" points="21 40 21 63.548 44.548 40"/>
    </g>
  </g>
</svg>
