<svg xmlns="http://www.w3.org/2000/svg" width="112" height="88" viewBox="0 0 112 88">
  <g fill="none" fill-rule="evenodd">
    <path fill="#4E4B49" d="M46.4157037,62.336 L46.4157037,63.6576 L41.4659259,63.6576 L41.4659259,77.8592 L39.9497778,77.8592 L39.9497778,63.6576 L35,63.6576 L35,62.336 L46.4157037,62.336 Z M62.9546008,70.0864 C62.9546008,71.4154733 62.7613682,72.5877283 62.3748971,73.6032 C61.9884261,74.6186717 61.4644683,75.4661299 60.8030082,76.1456 C60.1415481,76.8250701 59.3723336,77.3365316 58.4953416,77.68 C57.6183495,78.0234684 56.6893465,78.1952 55.7083045,78.1952 C54.7272626,78.1952 53.7982595,78.0234684 52.9212675,77.68 C52.0442755,77.3365316 51.2750609,76.8250701 50.6136008,76.1456 C49.9521407,75.4661299 49.428183,74.6186717 49.0417119,73.6032 C48.6552409,72.5877283 48.4620082,71.4154733 48.4620082,70.0864 C48.4620082,68.7573267 48.6552409,67.588805 49.0417119,66.5808 C49.428183,65.572795 49.9521407,64.7290701 50.6136008,64.0496 C51.2750609,63.3701299 52.0442755,62.8586684 52.9212675,62.5152 C53.7982595,62.1717316 54.7272626,62 55.7083045,62 C56.6893465,62 57.6183495,62.1717316 58.4953416,62.5152 C59.3723336,62.8586684 60.1415481,63.3701299 60.8030082,64.0496 C61.4644683,64.7290701 61.9884261,65.572795 62.3748971,66.5808 C62.7613682,67.588805 62.9546008,68.7573267 62.9546008,70.0864 Z M61.3492675,70.0864 C61.3492675,69.0410614 61.2154911,68.1040041 60.9479342,67.2752 C60.6803773,66.4463959 60.301344,65.7408029 59.8108231,65.1584 C59.3203021,64.5759971 58.7294561,64.1317349 58.0382675,63.8256 C57.3470789,63.5194651 56.5704323,63.3664 55.7083045,63.3664 C54.8461768,63.3664 54.0695302,63.5194651 53.3783416,63.8256 C52.6871529,64.1317349 52.096307,64.5759971 51.605786,65.1584 C51.115265,65.7408029 50.7362318,66.4463959 50.4686749,67.2752 C50.201118,68.1040041 50.0673416,69.0410614 50.0673416,70.0864 C50.0673416,71.1317386 50.201118,72.0687959 50.4686749,72.8976 C50.7362318,73.7264041 51.115265,74.4319971 51.605786,75.0144 C52.096307,75.5968029 52.6871529,76.0447984 53.3783416,76.3584 C54.0695302,76.6720016 54.8461768,76.8288 55.7083045,76.8288 C56.5704323,76.8288 57.3470789,76.6720016 58.0382675,76.3584 C58.7294561,76.0447984 59.3203021,75.5968029 59.8108231,75.0144 C60.301344,74.4319971 60.6803773,73.7264041 60.9479342,72.8976 C61.2154911,72.0687959 61.3492675,71.1317386 61.3492675,70.0864 Z M70.8648313,62.2016 C73.0498793,62.2016 74.6774926,62.6197292 75.7477202,63.456 C76.8179478,64.2922708 77.3530535,65.479459 77.3530535,67.0176 C77.3530535,67.8986711 77.196981,68.6490636 76.8848313,69.2688 C76.5726816,69.8885364 76.1267601,70.3887981 75.5470535,70.7696 C74.9673469,71.1504019 74.2575886,71.4266658 73.4177572,71.5984 C72.5779259,71.7701342 71.6303427,71.856 70.5749794,71.856 L68.4791276,71.856 L68.4791276,77.8592 L66.9629794,77.8592 L66.9629794,62.6272 C67.4980932,62.4778659 68.1260993,62.3696003 68.8470165,62.3024 C69.5679337,62.2351997 70.2405319,62.2016 70.8648313,62.2016 Z M70.9317202,63.5232 C70.3668779,63.5232 69.8875123,63.5418665 69.4936091,63.5792 C69.0997059,63.6165335 68.7615488,63.6501332 68.4791276,63.68 L68.4791276,70.5344 L70.3966091,70.5344 C71.214144,70.5344 71.9536305,70.4858672 72.6150906,70.3888 C73.2765507,70.2917328 73.8413845,70.1125346 74.3096091,69.8512 C74.7778336,69.5898654 75.1382868,69.2277356 75.3909794,68.7648 C75.6436721,68.3018644 75.7700165,67.7120036 75.7700165,66.9952 C75.7700165,66.3082632 75.632524,65.7408022 75.357535,65.2928 C75.082546,64.8447978 74.7183768,64.4901346 74.2650165,64.2288 C73.8116562,63.9674654 73.2951305,63.7845339 72.7154239,63.68 C72.1357173,63.5754661 71.5411553,63.5232 70.9317202,63.5232 Z"/>
    <polygon fill="#B4B4B4" points="13 8 99 8 56 44.8" transform="matrix(1 0 0 -1 0 52.8)"/>
  </g>
</svg>
