<svg xmlns="http://www.w3.org/2000/svg" width="281" height="66" viewBox="0 0 281 66">
  <g fill="none" fill-rule="evenodd">
    <polygon fill="#171615" points="74.513 62.112 137.362 62.112 137.362 65.58 74.513 65.58"/>
    <path fill="#FFFFFF" d="M13.6262597,42.6340777 C14.4673394,40.9148738 15.328262,38.9438447 16.2109476,36.724835 C17.0929932,34.5045437 17.9443144,32.2047961 18.7661913,29.8243107 C19.5880683,27.4451068 20.3491367,25.0447573 21.0506765,22.6245437 C21.7515763,20.2043301 22.3430205,17.934699 22.824369,15.8143689 L26.7218838,15.8143689 C25.9979408,18.654932 25.1933462,21.4538447 24.3093804,24.2143107 C23.4247745,26.9747767 22.4902415,29.6743689 21.5051412,32.3143689 C20.520041,34.9543689 19.4939749,37.4950485 18.4282232,39.9338447 C17.3624715,42.3745631 16.3280843,44.6743107 15.3225011,46.8343689 L11.6912642,46.8343689 C10.6453554,44.6743107 9.59880638,42.3745631 8.55353759,39.9338447 C7.50890888,37.4950485 6.49372437,34.9543689 5.50798405,32.3143689 C4.52288383,29.6743689 3.58771071,26.9747767 2.70310478,24.2143107 C1.81785877,21.4538447 1.01326424,18.654932 0.290601367,15.8143689 L4.42623007,15.8143689 C4.90757859,17.934699 5.49838269,20.2043301 6.19928246,22.6245437 C6.90082232,25.0447573 7.66253075,27.4451068 8.48504784,29.8243107 C9.30628474,32.2047961 10.158246,34.5045437 11.0402916,36.724835 C11.9223371,38.9438447 12.7845399,40.9148738 13.6262597,42.6340777 Z M35.9519977,31.2942524 C35.9519977,28.5747961 36.3411731,26.2045631 37.120164,24.1841942 C37.899795,22.1651068 38.91882,20.4747379 40.1772392,19.1143689 C41.4356583,17.7552816 42.8739431,16.7447767 44.4927335,16.0847767 C46.1108838,15.4241359 47.7789613,15.0947767 49.4969658,15.0947767 C53.2927062,15.0947767 56.3190569,16.3346796 58.5772984,18.8144854 C60.8342597,21.294932 61.9640205,25.1139612 61.9640205,30.2741359 C61.9640205,30.5945243 61.953139,30.9142718 61.9339362,31.2340194 C61.9134533,31.5550485 61.883369,31.854932 61.8436834,32.1336699 L40.0869863,32.1336699 C40.2066834,35.9347573 41.1450569,38.8541359 42.9040273,40.8937282 C44.6617175,42.9339612 47.4589157,43.9540777 51.2956219,43.9540777 C53.4124032,43.9540777 55.0907221,43.7541553 56.3299385,43.3543107 C57.5672346,42.954466 58.4672027,42.6142136 59.0266424,42.3341942 L59.7461048,45.6944272 C59.1860251,46.0141748 58.1369157,46.3941553 56.5994169,46.8343689 C55.0606378,47.273301 53.2523804,47.4937282 51.1752847,47.4937282 C48.4574579,47.4937282 46.1409681,47.0938835 44.222615,46.2941942 C42.3049021,45.4945049 40.7257973,44.3744272 39.487861,42.9339612 C38.2492847,41.4941359 37.3499567,39.7845437 36.7905171,37.8039029 C36.2304374,35.8239029 35.9519977,33.6555146 35.9519977,31.2942524 Z M57.9480888,28.8343107 L40.2066834,28.8343107 C40.2866948,27.4752233 40.5561731,26.1750874 41.0163986,24.9345437 C41.475344,23.6946408 42.114795,22.6046796 42.9341116,21.6646602 C43.7521481,20.7252816 44.7116446,19.974932 45.8106811,19.4142524 C46.9097175,18.8548544 48.1578952,18.5741942 49.5571344,18.5741942 C52.1943098,18.5741942 54.2323599,19.4744854 55.6706446,21.2744272 C57.1089294,23.0743689 57.8674374,25.5939029 57.9480888,28.8343107 Z M99.242287,45.7540194 C98.083082,46.0744078 96.5251002,46.435165 94.5677016,46.8343689 C92.6096629,47.2335728 90.2118815,47.4341359 87.3756378,47.4341359 C85.0578679,47.4341359 83.119672,47.0938835 81.5616902,46.4146602 C80.0030683,45.7341553 78.7440091,44.7742718 77.7857927,43.5337282 C76.8262961,42.2951068 76.1375581,40.7950485 75.7176583,39.0341942 C75.2983986,37.2746214 75.0890888,35.3349903 75.0890888,33.2140194 L75.0890888,15.8143689 L78.9840433,15.8143689 L78.9840433,31.9542524 C78.9840433,34.1546796 79.143426,36.0142136 79.4634715,37.5341359 C79.7835171,39.054699 80.302631,40.2849903 81.0220934,41.2243689 C81.7415558,42.1643883 82.670328,42.8442524 83.8096902,43.2646019 C84.9477722,43.6843107 86.3361298,43.8938447 87.974123,43.8938447 C89.8118246,43.8938447 91.4107722,43.795165 92.7696856,43.5939612 C94.1273189,43.3946796 94.9869613,43.2139806 95.3466925,43.0537864 L95.3466925,15.8143689 L99.242287,15.8143689 L99.242287,45.7540194 Z M124.025335,33.7119029 C123.14777,34.7563689 122.269565,35.8540194 121.39264,37.0061359 C120.515075,38.1588932 119.667595,39.2924272 118.850198,40.4086602 C118.032162,41.5242524 117.287096,42.6545825 116.615,43.7983689 C115.941624,44.9434369 115.371943,45.9545825 114.906597,46.8343689 L110.869542,46.8343689 C112.535699,43.7740194 114.308112,40.9501165 116.184859,38.3607379 C118.061606,35.7726408 119.979319,33.2319612 121.939918,30.7406214 L111.468667,15.8143689 L116.024196,15.8143689 L124.126469,27.5610874 L132.206339,15.8143689 L136.461665,15.8143689 L126.205485,30.5746602 C127.074089,31.6633398 128.004781,32.8500583 128.998843,34.1322524 C129.991624,35.4150874 130.985046,36.7459806 131.978467,38.1255728 C132.971248,39.5058058 133.933945,40.9347379 134.864638,42.4117282 C135.79533,43.8893592 136.647932,45.3631456 137.420522,46.8343689 L133.231125,46.8343689 C132.754897,45.9488155 132.175615,44.9773981 131.492638,43.9201165 C130.809661,42.8641165 130.056913,41.760699 129.234396,40.6111456 C128.411239,39.4615922 127.548396,38.2928155 126.645868,37.1054563 C125.741419,35.9193786 124.867695,34.7884078 124.025335,33.7119029 Z M175.359362,47.3745437 C174.040134,47.333534 172.891171,47.1643689 171.912472,46.8644854 C170.933132,46.5639612 170.115096,46.1045243 169.455162,45.4836117 C168.795868,44.8646214 168.295957,44.064932 167.956708,43.0839029 C167.61682,42.1041553 167.447836,40.8745049 167.447836,39.3943107 L167.447836,0.994485437 L171.343431,0.274893204 L171.343431,39.2744854 C171.343431,40.2343689 171.433043,41.0045825 171.612909,41.5838447 C171.793415,42.1643883 172.062893,42.6251068 172.421984,42.9640777 C172.782355,43.3043301 173.250902,43.5548738 173.830825,43.7144272 C174.409467,43.8746214 175.098845,44.0136699 175.898959,44.1341359 L175.359362,47.3745437 Z M196.995082,15.0947767 C199.032492,15.0947767 200.760738,15.3850485 202.17854,15.9643107 C203.596982,16.5442136 204.745945,17.3439029 205.625431,18.3640194 C206.503636,19.3841359 207.143087,20.5952039 207.543144,21.9940194 C207.94192,23.3953981 208.142909,24.9146796 208.142909,26.5537864 L208.142909,46.1141359 C207.742852,46.2339612 207.162929,46.3640388 206.404421,46.5037282 C205.644633,46.644699 204.765148,46.7946408 203.767246,46.9541942 C202.768064,47.1131068 201.659426,47.2431845 200.440692,47.3444272 C199.221319,47.4437476 197.973141,47.4937282 196.694879,47.4937282 C195.055606,47.4937282 193.548191,47.3143107 192.170075,46.9541942 C190.791319,46.5940777 189.592428,46.0237864 188.573403,45.2439612 C187.555018,44.4641359 186.755544,43.4645243 186.176262,42.2444854 C185.596339,41.0244466 185.307018,39.5346408 185.307018,37.7737864 C185.307018,36.0943107 185.626424,34.6544854 186.265875,33.4543107 C186.904686,32.2541359 187.803374,31.2641359 188.963219,30.4843107 C190.121144,29.7038447 191.50054,29.1341942 193.098847,28.7740777 C194.696515,28.4146019 196.435002,28.2339029 198.31303,28.2339029 C198.871829,28.2339029 199.461353,28.2640194 200.080961,28.3242524 C200.700569,28.3844854 201.299695,28.4652233 201.879617,28.5639029 C202.45826,28.6645049 202.958171,28.7651068 203.377431,28.8644272 C203.79733,28.9643883 204.086651,29.0547379 204.246674,29.1341942 L204.246674,27.2144272 C204.246674,26.1340777 204.166023,25.0838447 204.00728,24.0643689 C203.847257,23.0442524 203.497768,22.1247379 202.958171,21.3045437 C202.418574,20.4849903 201.659426,19.8256311 200.680727,19.3245437 C199.700747,18.8247379 198.412884,18.5741942 196.814576,18.5741942 C194.537132,18.5741942 192.83897,18.7343883 191.720091,19.0541359 C190.601212,19.3745243 189.781895,19.6346796 189.263421,19.8346019 L188.723825,16.4141359 C189.402321,16.0943883 190.451431,15.7945049 191.870513,15.5144854 C193.288314,15.234466 194.996077,15.0947767 196.995082,15.0947767 Z M197.354173,44.0136699 C196.115597,44.0136699 195.006319,43.9047379 194.02762,43.6843107 C193.04828,43.4645243 192.209121,43.1140194 191.510141,42.6340777 C190.811162,42.1541359 190.271565,41.5146408 189.891991,40.7143107 C189.511777,39.9146214 189.32295,38.9348738 189.32295,37.7737864 C189.32295,36.4544272 189.60203,35.3945825 190.162109,34.5942524 C190.720909,33.7945631 191.440371,33.1646796 192.319856,32.7039612 C193.198062,32.2445243 194.156918,31.9452816 195.196426,31.8043107 C196.234654,31.6646214 197.234476,31.5947767 198.193333,31.5947767 C199.871651,31.5947767 201.189599,31.7049903 202.148456,31.9241359 C203.108592,32.1445631 203.806292,32.3547379 204.246674,32.5546602 L204.246674,43.4741359 C203.4472,43.6349709 202.478743,43.7650485 201.340021,43.8643689 C200.200658,43.9643301 198.871829,44.0136699 197.354173,44.0136699 Z M226.781722,17.6745437 C227.460219,17.1555146 228.550294,16.6044466 230.048107,16.0245437 C231.54656,15.4446408 233.315132,15.1543689 235.352542,15.1543689 C237.590301,15.1543689 239.577784,15.5542136 241.316271,16.3539029 C243.054118,17.1555146 244.523128,18.2743107 245.721378,19.7147767 C246.920269,21.1546019 247.828558,22.864835 248.448806,24.844835 C249.067134,26.8241942 249.377579,28.9945049 249.377579,31.3544854 C249.377579,33.8740194 249.007606,36.1346796 248.268301,38.1345437 C247.528995,40.1350485 246.490128,41.8343883 245.151697,43.2344854 C243.812626,44.6345825 242.214959,45.7040388 240.357415,46.4441359 C238.49923,47.184233 236.431096,47.5539612 234.153651,47.5539612 C231.396779,47.5539612 229.119335,47.3745437 227.321319,47.0137864 C225.523303,46.6543107 224.044692,46.2743301 222.886128,45.8744854 L222.886128,0.994485437 L226.781722,0.274893204 L226.781722,17.6745437 Z M226.781722,43.1742524 L226.781722,21.4538447 C227.141453,21.1751068 227.590797,20.8745825 228.130394,20.5541942 C228.669991,20.2344466 229.2992,19.9345631 230.018663,19.6545437 C230.738125,19.3745243 231.516476,19.1444854 232.355636,18.9644272 C233.194795,18.7843689 234.073,18.6946602 234.992811,18.6946602 C236.910524,18.6946602 238.519073,19.0349126 239.817818,19.7147767 C241.115282,20.3946408 242.164392,21.3045437 242.964506,22.4438447 C243.763339,23.5844272 244.342622,24.924932 244.702353,26.4647184 C245.062084,28.0045049 245.24195,29.6346408 245.24195,31.3544854 C245.24195,35.4343107 244.222925,38.5645049 242.184875,40.7444272 C240.147465,42.9243495 237.450121,44.0136699 234.094123,44.0136699 C232.17641,44.0136699 230.62739,43.9239612 229.448982,43.7445437 C228.269934,43.5638447 227.380847,43.3748155 226.781722,43.1742524 Z M268.975888,44.0739029 C271.213647,44.0739029 273.06159,43.7048155 274.520358,42.9640777 C275.977845,42.2246214 276.707549,40.974466 276.707549,39.2142524 C276.707549,38.3741942 276.57761,37.6546019 276.317733,37.0541942 C276.057856,36.4544272 275.628355,35.9142524 275.02987,35.4343107 C274.430105,34.9543689 273.640872,34.494932 272.662173,34.0547184 C271.682194,33.6145049 270.474982,33.0941942 269.036057,32.4944272 C267.876852,32.0144854 266.777815,31.524932 265.739588,31.0244854 C264.70008,30.5246796 263.781549,29.9441359 262.982715,29.2841359 C262.183241,28.6241359 261.54379,27.8353398 261.064362,26.9145437 C260.584934,25.9943883 260.3449,24.8743107 260.3449,23.5543107 C260.3449,21.0341359 261.294155,18.9945437 263.192665,17.4342524 C265.089895,15.8739612 267.696986,15.0947767 271.013938,15.0947767 C273.13136,15.0947767 274.879449,15.2741942 276.258205,15.6343107 C277.636961,15.9944272 278.605419,16.3148155 279.165499,16.5941942 L278.266171,20.0742524 C277.786103,19.8346019 276.977667,19.5148544 275.838945,19.1143689 C274.699583,18.715165 273.031506,18.5146019 270.834073,18.5146019 C269.954588,18.5146019 269.12567,18.6049515 268.346679,18.7850097 C267.567688,18.9657087 266.87831,19.2463689 266.279185,19.6269903 C265.679419,20.0082524 265.199991,20.488835 264.8409,21.0700194 C264.480528,21.6512039 264.301303,22.3618252 264.301303,23.2038058 C264.301303,24.0451456 264.460046,24.767301 264.780731,25.3683495 C265.100137,25.9700388 265.569323,26.5006019 266.188932,26.9619612 C266.8079,27.4233204 267.567688,27.8526408 268.466376,28.2505631 C269.365704,28.6484854 270.39433,29.0867767 271.552895,29.5647961 C272.751786,30.0428155 273.900109,30.5298058 274.999786,31.0283301 C276.098182,31.5255728 277.06728,32.124699 277.90644,32.8244272 C278.745599,33.5241553 279.424736,34.3648544 279.94449,35.3439612 C280.462964,36.3243495 280.723481,37.5546408 280.723481,39.0341942 C280.723481,41.8343883 279.675011,43.9540777 277.576793,45.3945437 C275.479214,46.8343689 272.611606,47.5539612 268.975888,47.5539612 C266.258702,47.5539612 264.181606,47.3239223 262.742681,46.8644854 C261.303756,46.4050485 260.3449,46.0539029 259.865472,45.8142524 L260.884497,42.2746019 C261.004834,42.3553398 261.264071,42.4841359 261.664128,42.6641942 C262.062904,42.8442524 262.602501,43.0448155 263.282278,43.2646019 C263.961415,43.4843883 264.76985,43.674699 265.709503,43.8342524 C266.647877,43.9944466 267.736672,44.0739029 268.975888,44.0739029 Z"/>
  </g>
</svg>
